<svg id="frames" xmlns="http://www.w3.org/2000/svg" viewBox="0 0 384 216"><defs><style>.cls-1{fill:#0f1b33;}.cls-2{fill:#fd0101;}.cls-3{fill:#f5f3f4;}.cls-4{fill:#d6d7d0;}</style></defs><path class="cls-1" d="M165.46,122.68c0-.49,0-1,0-1.49,0-6.94,0-13.87-.05-20.8q-.07-7.35,0-14.7c0-1.86,0-3.73.16-5.59a1,1,0,0,1,.79-1,2.75,2.75,0,0,1,1-.08q9.84,0,19.69,0,7.86,0,15.7.16c1.6,0,3.2.08,4.79.19a19.36,19.36,0,0,1,5.89,1.46,27.21,27.21,0,0,1,12.25,8.63c.31-.09.22-.33.23-.5.09-2.33.16-4.66.23-7,0-.33-.06-.66-.07-1,0-1.54.64-1.8,1.65-1.8,8,0,16.07,0,24.1,0q6.79,0,13.58.19a26.49,26.49,0,0,1,17.41,7,26.14,26.14,0,0,1,6.67,9.35,26.85,26.85,0,0,1,2.06,8.7,26.42,26.42,0,0,1-2.36,13,26.93,26.93,0,0,1-12.22,12.87,28.13,28.13,0,0,1-10.18,3,21.13,21.13,0,0,1-2.39.1H249.2c-.69,0-.71,0-.73.75,0,1.53-.08,3.06-.08,4.59q0,10.8,0,21.59c0,.24,0,.47,0,.7a1.24,1.24,0,0,1-1.29,1.35c-.63.05-1.27,0-1.9,0l-5.79-.1a10.29,10.29,0,0,1,1.7-.57,15.44,15.44,0,0,0,3.08-1.15c.33-.17.67-.35.77-.74s-.14-.52-.5-.41l-.61-.34a18.13,18.13,0,0,0-4.24-1.44c-4.91-1.45-9.75-3.09-14.58-4.79-3.55-1.25-7.13-2.39-10.67-3.64-4.8-1.68-9.58-3.42-14.37-5.13-1.84-.66-3.69-1.3-5.54-1.95.35-.25.65,0,.94.1,3.45,1.12,6.91,2.21,10.33,3.39,4.06,1.39,8.07,2.93,12.14,4.28,2.43.81,4.85,1.66,7.27,2.48.79.26.85.22.84-.62,0-1.23-.06-2.46-.07-3.69a2.73,2.73,0,0,0-.41-1.31,23.16,23.16,0,0,1-1.4-2.53c.2-.52.06-1.08.21-1.6l3.08,5.26a2.81,2.81,0,0,1,.27.95c.22,1.35.49,2.69.69,4a1,1,0,0,0,.84.95c1.75.54,3.48,1.13,5.23,1.69.19.07.42.25.65,0a2,2,0,0,0-.44-.87,51.87,51.87,0,0,0-5.42-6.77,8.3,8.3,0,0,1-1.29-1.37c-.68-1.21-1.41-2.39-2.12-3.58l-7.64-12.88c-.18-.3-.29-.68-.66-.84-.57.68-.57.68-.18,1.36,1,1.73,2.07,3.41,3,5.2l-.14,1.64c-1.25-1.83-2.25-3.82-3.41-5.71-.08-.14-.15-.29-.24-.43-.32-.49-.46-.51-.95-.15-.21.16-.37.38-.59.53s-.41.54-.81.48c.14-.51.6-.78.86-1.2a.22.22,0,0,0,.22-.2l0,0a16.16,16.16,0,0,0,1.64-1.67,2.71,2.71,0,0,0,.44-3A20.94,20.94,0,0,1,216,129c-.68.53-1.12,1.32-1.85,1.8a10.42,10.42,0,0,1-7.61,1.7c-2-.33-2-.31-3.6.81a1.37,1.37,0,0,0-.22.2c-1.19.59-2.33,1.28-3.56,1.8a8,8,0,0,0-2,.64c-1.59.65-3.18,1.31-4.76,2a2.41,2.41,0,0,0-1.45,1.11l-.73,1.53-3.73-1.16c-.05-.19.13-.25.21-.37a1.42,1.42,0,0,0,.91-.09.25.25,0,0,0,.37,0,10.64,10.64,0,0,0,3.41-1.59q4.26-3.14,8.46-6.34c2-1.55,3.92-3.28,6-4.8a38.2,38.2,0,0,0,5.25-4.59c.11-.11.2-.28.46-.19a1.64,1.64,0,0,1-.07.61c0,.38-.5.9,0,1.12s.56-.44.76-.76a.47.47,0,0,0,.33-.41,5.91,5.91,0,0,0,1.11-2.12.46.46,0,0,0,.2-.49c.13-.3.27-.6.4-.91.29-.7.56-.85,1.44-.82-.16,1-.63,1.88-.85,2.84-.09.13-.22.28,0,.4s.23,0,.31-.14a7.46,7.46,0,0,0,2.24-2.37.76.76,0,0,0,.1-.72,23.92,23.92,0,0,0-.82-2.61,4,4,0,0,0-4.32-2.77,1,1,0,0,0-.95.6c-.53,1-1.12,1.89-1.6,2.88a3.3,3.3,0,0,1-1.07,1.27,35.73,35.73,0,0,0-5.45,4.68c-3.41,3.78-6.8,7.59-10.41,11.18a12.83,12.83,0,0,1-2.42,1.93,1.66,1.66,0,0,1-1,.39c-.33-.27,0-.35.14-.46a5.8,5.8,0,0,0,1.5-1.27,22.33,22.33,0,0,0-2.69-.11c-.21,0-.41,0-.41.31a7.74,7.74,0,0,0,.06,1.79,3.5,3.5,0,0,0,1.06-.41c.16-.06.33-.12.34.15a1.59,1.59,0,0,1-1,.58,28.46,28.46,0,0,1-4.43,1.12,12.85,12.85,0,0,1-6.94-.49c-3.84-1.45-7.77-2.69-11.66-4,0-.37,0-.73,0-1.09,0-.87,0-.87-.9-.72-1.11.19-1.11.19-1.28,1.19-1.39-.54-2.87-.82-4.45-1.5l2.55-.69c2.16-.56,4.4-.63,6.59-1a33,33,0,0,0,6.1-1.44,19,19,0,0,0,3.12-1.73c.28-.17.11-.31-.07-.43a3.19,3.19,0,0,1,.86-.49c1.44-.69,2.95-1.22,4.42-1.82a10.87,10.87,0,0,0,4.18.76,26.33,26.33,0,0,1,4.93.57c.07.53.18,1.06.2,1.59.1,1.85-.44,2.67-2.16,3.38,0,0-.05.09-.1.19,1.38.39,2.77.74,4.13,1.17a1,1,0,0,0,1.21-.37c.18-.27.49-.46.55-.91-.79-.29-1.6-.57-2.39-.87s-.82-.33-.71-1.22a8.43,8.43,0,0,0-2-6.58l0,0c0-.19-.14-.28-.3-.34-.39-.41-.61-1-1.38-.94-1.63.08-3.25.09-4.88.23-2.86.25-5.55,1.34-8.41,1.55a12.14,12.14,0,0,0-1.76.34,5.25,5.25,0,0,1-1.18.17c-.25-.6-.73-.46-1.19-.37A44.26,44.26,0,0,0,165.46,122.68Zm45.95.72c0-.07.13-.12.06-.22s-.19-.08-.29,0a3.87,3.87,0,0,0-.74,1.2A2.25,2.25,0,0,0,211.41,123.4ZM218,103.55l0,0c0,.24-.08.39-.34.34a5.37,5.37,0,0,1-1.5-.53c-.89-.43-1.85-.58-2.9-1a7.91,7.91,0,0,0,.81,2.14l.26.88c-.81.12-1.35-.51-2.08-.65-.13.8-.23,1.52-.37,2.23-.3,1.49.09,3-.33,4.51,0,.06,0,.13.06.25a19.82,19.82,0,0,1,3.78.71c1.25.26,2.54.27,4,.55-1,.43-2,.31-2.8.63-.05,0-.14,0-.15,0s.06.13.14.12a1.53,1.53,0,0,0,1.45.6l0,.41a1.11,1.11,0,0,0-.86-.09,1.19,1.19,0,0,0,.11.74,13.09,13.09,0,0,1,1.06,5.41c-.07.92-.22,1.84-.34,2.75-.23.43-.19.76.31,1,.22.09.5.16.52.49-1.15.11-1.16.11-.81,1.24a1.21,1.21,0,0,0,.28.68,7.36,7.36,0,0,0,1.43-2,4.1,4.1,0,0,0,.78-1.49,23.07,23.07,0,0,1,2.3-4.74c.2-.35.39-.69.57-1.05a21.72,21.72,0,0,0,2-6.64,12.61,12.61,0,0,0-.69-6.85c-.58-1.41-1.2-2.82-1.67-4.27-1.07-3.24-3.36-5.51-5.85-7.64a1.32,1.32,0,0,0-.18-.22c-.27-.24-.45-.39-.42.19,0,.38-.25,0-.38,0a3.26,3.26,0,0,0-.81-1.13c-.28-.63-.68-1-1.44-.76-.05,0-.12,0-.18,0l-.2-.18a.52.52,0,0,0-.42-.36,4.36,4.36,0,0,0-1-.84.52.52,0,0,0-.43-.36,1.08,1.08,0,0,0-.57-.44.47.47,0,0,0-.43-.35.09.09,0,0,0-.12-.08,1.9,1.9,0,0,0-1.08-.71.1.1,0,0,0-.13-.08c-.07-.22-.29-.26-.45-.35a37.8,37.8,0,0,0-4.29-1.86,3.81,3.81,0,0,0-2.14-.24,2.21,2.21,0,0,0-1-.06,2.45,2.45,0,0,0-1.37,0,5.12,5.12,0,0,0-1.61.05,1.09,1.09,0,0,0-.83,0,2.59,2.59,0,0,0-1-.07,7.21,7.21,0,0,0-1.6-.32.45.45,0,0,0-.4-.09c-.39-.3.34-.55.08-.71-.46-.27-.27-.65-.28-1a1,1,0,0,0-.77-1c0-.23-.09-.38-.34-.4s-.53,0-.8,0a.71.71,0,0,0-1,0,4,4,0,0,0-2,1.11c-.2.25-.73.1-.74.54s.28.66.48,1,.44.58.66.86c0,.09.05.22.12.26a1.86,1.86,0,0,1,1,1.23.76.76,0,0,0,.16.25c.2.22.42.49.73.38s.07-.41.11-.61,0-.27.05-.39c.09-.32.24-.44.55-.19.09.07.25,0,.37.06a.94.94,0,0,0,.59.14.29.29,0,0,0,.39.06,1.74,1.74,0,0,0,.81.14.61.61,0,0,0,.61.07,6.31,6.31,0,0,1,3.53,1.46,3.68,3.68,0,0,0,.51.32,2.57,2.57,0,0,0,2.2.25,5,5,0,0,1,1.53-.38,15.46,15.46,0,0,0,.72,2.87c.3.79.36.8-.33,1.18a9.12,9.12,0,0,0-2.06,1.53.87.87,0,0,0-.31,1c-.08-.05-.14,0-.14.06a.12.12,0,0,0,0,.08.11.11,0,0,0,.08-.15,22,22,0,0,1,2.71-2c.86-.48,1.11-.5,1.85.14a33.21,33.21,0,0,0,4.68,3.22,1.94,1.94,0,0,0,2.87-.71l.26-.36.14,0,.26.2c0,.19-.2.47.19.54l0,0,0,0a.53.53,0,0,0,.46.31l.51.42.06,1c-.19.87-.37,1.74-.56,2.61a.53.53,0,0,0,0,.58.4.4,0,0,0,.19.4.5.5,0,0,0,.36.45,1.93,1.93,0,0,0,.64.75,3.83,3.83,0,0,0,1.16,1.24.74.74,0,0,0,.4.38A.49.49,0,0,0,218,103.55Zm-15.7-4.94a4.9,4.9,0,0,0-2,0c2.28,3.91,4.51,7.73,6.83,11.69a8,8,0,0,0,.56-6c-.08-.34-.34-.35-.63-.26-.67.21-1-.09-1.33-.67a3.68,3.68,0,0,0-1.87-1.45c-.09-.79-.15-1.58-.27-2.36S203.19,98.64,202.32,98.61Zm-.62,5.07c.17.26.34.5.49.76,1.32,2.27,2.63,4.55,3.95,6.83.56,1,1.14,1.93,1.76,3a1.87,1.87,0,0,0-.06-2Q200.75,100.11,193.69,88a1.29,1.29,0,0,0-1.44-.74c-.31-.06-.6-.26-.95-.18a1.36,1.36,0,0,0,.34.84c.88,1.57,1.8,3.12,2.68,4.69,1.1,2,2.31,3.9,3.32,5.92l-8.89.14c-.73,0-.75,0-.75.78v9.1c0,1.93,0,3.86,0,5.79,0,.66,0,.66.68.65l12.09-.15a6.7,6.7,0,0,0,3.81-1.32c1.25-.89,1.22-.92.46-2.28-1.16-2.06-2.41-4.07-3.49-6.17Zm53.24,11.4v.13h5.19a5.35,5.35,0,0,0,1.49-.15,8.88,8.88,0,0,0,6.56-7.31,5.63,5.63,0,0,0-.35-3.43,10.63,10.63,0,0,0-4.31-4.85,5.8,5.8,0,0,0-2.95-.82c-3.76,0-7.53,0-11.3,0-.68,0-.7,0-.7.75q-.06,7.39-.1,14.78c0,.86,0,.9.87.91C251.2,115.1,253.07,115.08,254.94,115.08Zm-29.15,7.78a.44.44,0,0,0-.43.22,34.24,34.24,0,0,1-6.62,5.75c-.49.31-.37.57-.13,1l6.68,11.37c.1.17.13.47.5.4Zm-35.48-3.5a12.18,12.18,0,0,0,2,2,5.45,5.45,0,0,0,2.7,1.19,41.42,41.42,0,0,0,5.78.34.57.57,0,0,0,.46-.12c.75-.76,1.5-1.52,2.22-2.29.21-.22.14-.44-.14-.55a3.1,3.1,0,0,0-.58-.15,67.15,67.15,0,0,0-11.33-.85A1.63,1.63,0,0,0,190.31,119.36Zm18.11-16.91c1.06-1,1.84-3.49,1-4.75-.26.4-.5.79-.76,1.16,0,.06-.18.07-.27.07s-.14-.13-.14-.22c0-.43,0-.86.08-1.29a1.16,1.16,0,0,0-.75-1.27,5.91,5.91,0,0,1-2.29-1.73c-.21-.25-.42-.5-.84-.27s-.66.4-.57.91a10,10,0,0,1,.05,1.1c0,.68.13.8.81.87.48,0,1,0,1.52,0-.06.38-.1.64-.15.89-.18,1-.2,1,.78,1.36a1.25,1.25,0,0,1,.87,1A12.46,12.46,0,0,0,208.42,102.45Z"/><path class="cls-1" d="M151.38,92.53c3.32,10.65,6.57,21.33,9.84,32-.72.41-1.45.77-2.21,1.12-.45.22-.29.43.1.55a.58.58,0,0,1-.13.14l-4.18,2.53a.85.85,0,0,1-.76,0c-3.88-1.26-7.75-2.57-11.67-3.73-1.65-.49-3.29-1-4.94-1.54a2.89,2.89,0,0,0,0-.29q-2.25-7.71-4.51-15.42c-.06-.2,0-.48-.43-.65-1.41,4.75-3,9.43-4.62,14.09a2,2,0,0,1-.49,0c-1.78-.33-3.59-.3-5.38-.53a18.55,18.55,0,0,0-4.88-.19,5.55,5.55,0,0,0-3.58,1.56,2,2,0,0,0-.69,1.49,6.4,6.4,0,0,0,1.5,4.3,39.76,39.76,0,0,0,11.44,8.59,54.42,54.42,0,0,0,7.17,3c3,1.09,6,2.07,8.89,3.31,2,.87,4.1,1.58,6.16,2.36.23.09.47.27.74.07,0-.27-.17-.43-.3-.62l-9.24-13.53c-1.43-2.08-2.88-4.16-4.33-6.24a48.87,48.87,0,0,1,7.69,2.19,16.13,16.13,0,0,0,1.39,2.42q5.34,8.81,10.7,17.59a1.59,1.59,0,0,0,.9.73c1.42.49,2.83,1,4.24,1.52.17.06.36.21.54,0a1.41,1.41,0,0,0-.26-.74q-2.86-5.61-5.75-11.2c-1.17-2.29-2.35-4.56-3.51-6.85-.13-.25-.53-.5-.15-.86.35-.14.64.08.94.17,10.85,3.46,21.74,6.77,32.56,10.34,8.66,2.86,17.35,5.65,26,8.53,6.48,2.16,12.82,4.7,19.27,6.94,3,1,6,2,9.07,2.75,1.61.41,3.22.83,4.85,1.17a2,2,0,0,1-.76.22c-1.6.3-3.23.43-4.84.69a88.6,88.6,0,0,1-24.18.23c-3.34-.39-6.66-.89-10-1.35-5.18-.72-10.33-1.57-15.43-2.69-3.48-.76-6.93-1.64-10.4-2.44a53.63,53.63,0,0,0-6-1.08,13,13,0,0,0,1.67.63q5.08,1.5,10.21,2.83a42.77,42.77,0,0,1,4.15,1.06c0,1.1,0,2.19-.1,3.29a1.05,1.05,0,0,1-1.1,1.15c-.23,0-.46,0-.7,0H150.14c-1.3,0-1.32,0-1.73-1.3-1-3-2-6-2.95-9-.28-.86-.3-.87-1.2-.87h-23.8c-.55,0-.82.14-1,.71-.71,2.6-1.63,5.14-2.25,7.77a8.93,8.93,0,0,1-.56,1.49,1.59,1.59,0,0,1-1.65,1c-1.19,0-2.39.06-3.59.05-3.06,0-6.12.15-9.19.15-2.66,0-5.32.11-8,.17h-.6c-1.09,0-1.44-.51-1.12-1.55.87-2.8,1.77-5.59,2.66-8.39L105,121.29q1.65-5.19,3.31-10.38c.24-.73.24-.74-.46-1.12s-1.12-.59-1.68-.9a2.73,2.73,0,0,1-.65-.46.94.94,0,0,1,1.19-1.45c.5.32,1,.68,1.47,1a2.07,2.07,0,0,0,.9.49,8.7,8.7,0,0,0,.69-1.93c.26-.73.48-1.46.71-2.19s.26-.83-.47-1.26c-1.71-1-3.42-2.06-5.14-3.09a12,12,0,0,1-1.55-1.09c-.67-.58-.75-1-.35-1.64a1.41,1.41,0,0,1,1.92-.75,11.6,11.6,0,0,1,1.61,1c1.4,1,2.78,2.07,4.17,3.11.73.55.84.52,1.12-.37,1.31-4.23,2.63-8.46,3.92-12.7.77-2.55,1.67-5.06,2.51-7.59.28-.84.45-1,1.38-1,3,0,5.93,0,8.9,0,5.6,0,11.2,0,16.8,0,1.38,0,1.79.2,2.34,1.65Z"/><path class="cls-2" d="M187.73,157.75a42.77,42.77,0,0,0-4.15-1.06q-5.13-1.33-10.21-2.83a13,13,0,0,1-1.67-.63,53.63,53.63,0,0,1,6,1.08c3.47.8,6.92,1.68,10.4,2.44,5.1,1.12,10.25,2,15.43,2.69,3.32.46,6.64,1,10,1.35a88.6,88.6,0,0,0,24.18-.23c1.61-.26,3.24-.39,4.84-.69a2,2,0,0,0,.76-.22l.74.12c.25,0,.35-.08.39-.29.36-.12.62-.06.5.4s-.44.57-.77.74a15.44,15.44,0,0,1-3.08,1.15,10.29,10.29,0,0,0-1.7.57,56.44,56.44,0,0,1-6.7,1.13,74.73,74.73,0,0,1-15.25-.17c-5.16-.61-10.31-1.32-15.41-2.32-3.17-.61-6.29-1.44-9.43-2.22A44.93,44.93,0,0,0,187.73,157.75Z"/><path class="cls-2" d="M159.11,126.2c-.39-.12-.55-.33-.1-.55.76-.35,1.49-.71,2.21-1.12l4.24-1.85a44.26,44.26,0,0,1,5.64-1.62c.46-.09.94-.23,1.19.37a1,1,0,0,1-.56.18,49.8,49.8,0,0,0-9.57,3.12C161.13,125.18,160.13,125.71,159.11,126.2Z"/><path class="cls-1" d="M272.83,64.43a1,1,0,0,1-1.11.33A.87.87,0,0,1,272.83,64.43Z"/><path class="cls-1" d="M252,53.92c-.16,0-.35-.07-.34-.24s.21-.21.37-.22a.25.25,0,0,1,.29.19C252.29,53.84,252.12,53.89,252,53.92Z"/><path class="cls-3" d="M159.11,126.2c1-.49,2-1,3-1.47a49.8,49.8,0,0,1,9.57-3.12,1,1,0,0,0,.56-.18,5.25,5.25,0,0,0,1.18-.17,12.14,12.14,0,0,1,1.76-.34c2.86-.21,5.55-1.3,8.41-1.55,1.63-.14,3.25-.15,4.88-.23.77,0,1,.53,1.38.94.06.15.08.33.3.34l0,0a19.44,19.44,0,0,0,.92,2,2.45,2.45,0,0,1,.33,1.59,26.33,26.33,0,0,0-4.93-.57,10.87,10.87,0,0,1-4.18-.76c-.28-.35-.08-.6.16-.86a2.42,2.42,0,0,0,.73-.93l-4.45.51c.08.43.64.43.65,1a10.21,10.21,0,0,0-3.78.93,50.51,50.51,0,0,1-7.21,2.33,1.53,1.53,0,0,0-.88.35,1,1,0,0,0,.81.13c1.73-.12,3.46-.15,5.17-.44A21,21,0,0,0,177,125c.18.12.35.26.07.43a19,19,0,0,1-3.12,1.73,33,33,0,0,1-6.1,1.44c-2.19.37-4.43.44-6.59,1l-2.55.69c1.58.68,3.06,1,4.45,1.5l2.19.62c3.89,1.32,7.82,2.56,11.66,4a12.85,12.85,0,0,0,6.94.49,28.46,28.46,0,0,0,4.43-1.12,1.59,1.59,0,0,0,1-.58h0a1.66,1.66,0,0,0,1-.39,12.83,12.83,0,0,0,2.42-1.93c3.61-3.59,7-7.4,10.41-11.18a35.73,35.73,0,0,1,5.45-4.68,3.3,3.3,0,0,0,1.07-1.27c.48-1,1.07-1.92,1.6-2.88a1,1,0,0,1,.95-.6,4,4,0,0,1,4.32,2.77,23.92,23.92,0,0,1,.82,2.61.76.76,0,0,1-.1.72,7.46,7.46,0,0,1-2.24,2.37l-.28-.26c.22-1,.69-1.85.85-2.84-.88,0-1.15.12-1.44.82-.13.31-.27.61-.4.91a.38.38,0,0,0-.2.49,5.91,5.91,0,0,1-1.11,2.12.37.37,0,0,0-.33.41c-.2.32-.44.91-.76.76s0-.74,0-1.12a1.64,1.64,0,0,0,.07-.61c-.26-.09-.35.08-.46.19a38.2,38.2,0,0,1-5.25,4.59c-2.07,1.52-4,3.25-6,4.8q-4.2,3.21-8.46,6.34a10.64,10.64,0,0,1-3.41,1.59c-.14-.17-.26-.15-.37,0a1.42,1.42,0,0,1-.91.09,5.11,5.11,0,0,0-.55-.05.22.22,0,0,0-.23.14c0,.16.08.22.2.25a2.31,2.31,0,0,0,.37,0l3.73,1.16c.34.29.82.28,1.19.49a9.43,9.43,0,0,0,3,1.1c1.85.65,3.7,1.29,5.54,1.95,4.79,1.71,9.57,3.45,14.37,5.13,3.54,1.25,7.12,2.39,10.67,3.64,4.83,1.7,9.67,3.34,14.58,4.79a18.13,18.13,0,0,1,4.24,1.44l.61.34c0,.22-.14.35-.39.3l-.74-.12c-1.63-.34-3.24-.76-4.85-1.17-3.06-.79-6.09-1.71-9.07-2.75-6.45-2.24-12.79-4.78-19.27-6.94-8.65-2.88-17.34-5.67-26-8.53-10.82-3.57-21.71-6.88-32.56-10.34-.3-.09-.59-.31-.94-.17v0c0-.23-.18-.19-.33-.2a16.17,16.17,0,0,0-2.62-.89c-1.71-.53-3.39-1.16-5.14-1.55a48.87,48.87,0,0,0-7.69-2.19,45.38,45.38,0,0,0-4.71-1.25,41,41,0,0,0-14.34-1.31,5.45,5.45,0,0,1-1.93.19c-.06-.37.21-.43.4-.53a8.18,8.18,0,0,1,3.13-.94c1.52-.15,3-.25,4.57-.29,1.79.23,3.6.2,5.38.53a2,2,0,0,0,.49,0,29.83,29.83,0,0,0,3.38.71c2.1.43,4.13,1.11,6.22,1.56,1.65.52,3.29,1,4.94,1.54,3.92,1.16,7.79,2.47,11.67,3.73a.85.85,0,0,0,.76,0l4.18-2.53A.58.58,0,0,0,159.11,126.2Z"/><path class="cls-3" d="M217.58,103.21a.74.74,0,0,1-.4-.38,1.75,1.75,0,0,0-1.16-1.24,1.93,1.93,0,0,1-.64-.75.39.39,0,0,0-.36-.45.4.4,0,0,1-.19-.4.37.37,0,0,0,0-.58c.19-.87.37-1.74.56-2.61.27-.35.39-.7-.06-1l-.51-.42a.35.35,0,0,0-.46-.31l0,0,0,0c.2-1.14.84-2.2.67-3.42,0-.27.15-.41.41-.45a3.26,3.26,0,0,1,.81,1.13c0,.49.39.81.54,1.23.06.17.18.39.42.32s.2-.31.17-.5a2.88,2.88,0,0,1-.15-1c2.49,2.13,4.78,4.4,5.85,7.64.47,1.45,1.09,2.86,1.67,4.27a12.61,12.61,0,0,1,.69,6.85,21.72,21.72,0,0,1-2,6.64c-.18.36-.37.7-.57,1.05a23.07,23.07,0,0,0-2.3,4.74,4.1,4.1,0,0,1-.78,1.49c-.69-.31-1.47-.52-1.73-1.38.12-.91.27-1.83.34-2.75a13.09,13.09,0,0,0-1.06-5.41,1.19,1.19,0,0,1-.11-.74,1.11,1.11,0,0,1,.86.09c.23.09.54.31.65,0s-.24-.37-.49-.42a.41.41,0,0,0-.19,0,1.53,1.53,0,0,1-1.45-.6.16.16,0,0,0,0-.15c.84-.32,1.78-.2,2.8-.63-1.43-.28-2.72-.29-4-.55a19.82,19.82,0,0,0-3.78-.71c0-.12-.08-.19-.06-.25.42-1.48,0-3,.33-4.51.14-.71.24-1.43.37-2.23.73.14,1.27.77,2.08.65-.09-.33-.18-.61-.26-.88.1-.32-.07-.59-.14-.87-.16-.61,0-.77.53-.58.82.25,1.62.59,2.43.87a2.41,2.41,0,0,0,1.06.23c.17,0,.33-.08.35-.28s-.12-.29-.3-.32l0,0A.39.39,0,0,0,217.58,103.21Z"/><path class="cls-3" d="M194.78,84.06a.45.45,0,0,1,.4.09,1.29,1.29,0,0,0,1.6.32,2.59,2.59,0,0,1,1,.07c.29.33.57.34.83,0a5.12,5.12,0,0,1,1.61-.05,1.45,1.45,0,0,0,1.37,0,2.21,2.21,0,0,1,1,.06c.27.43.7.22,1.06.27s1,0,1.16.63l-2,0c-.19-.25-.4-.23-.51,0s.12.3.33.29a2.47,2.47,0,0,0,1.15.14,4.49,4.49,0,0,1,2.78.22c.06.26.3.49.47.34.52-.45.91-.06,1.33.11s.66.44,1.09.38a.1.1,0,0,1,.13.08,1.18,1.18,0,0,0,1.08.71.09.09,0,0,1,.12.08.37.37,0,0,0,.43.35,1.08,1.08,0,0,1,.57.44.38.38,0,0,0,.43.36,4.36,4.36,0,0,1,1,.84.36.36,0,0,0,.42.36l.2.18a3.87,3.87,0,0,1,.38,2.94c-.11.35-.44.59-.43,1l-.26.36a10.6,10.6,0,0,1-2.17-1.72,19.13,19.13,0,0,0-4.67-3.19,1.28,1.28,0,0,1-.81-.64l1.35-.16,0-.24a4.84,4.84,0,0,1-2.35-1,1.73,1.73,0,0,0-1.52-.27,5,5,0,0,0-1.53.38,2.57,2.57,0,0,1-2.2-.25,3.68,3.68,0,0,1-.51-.32,6.31,6.31,0,0,0-3.53-1.46.36.36,0,0,0-.61-.07,1.74,1.74,0,0,1-.81-.14c-.1-.18-.23-.23-.39-.06a.94.94,0,0,1-.59-.14c-.18-.28-.24-.56.13-.73S194.31,84.26,194.78,84.06Z"/><path class="cls-3" d="M220.27,135.83c-.9-1.79-2-3.47-3-5.2-.39-.68-.39-.68.18-1.36.37.16.48.54.66.84L225.78,143c.71,1.19,1.44,2.37,2.12,3.58a8.3,8.3,0,0,0,1.29,1.37,51.87,51.87,0,0,1,5.42,6.77,2,2,0,0,1,.44.87c-.23.24-.46.06-.65,0-1.75-.56-3.48-1.15-5.23-1.69a1,1,0,0,1-.84-.95c-.2-1.35-.47-2.69-.69-4a2.81,2.81,0,0,0-.27-.95l-3.08-5.26c-.24-.44-.46-.88-.71-1.31C222.46,139.53,221.47,137.62,220.27,135.83Z"/><path class="cls-3" d="M190.31,119.36a1.63,1.63,0,0,1,1.15-.41,67.15,67.15,0,0,1,11.33.85,3.1,3.1,0,0,1,.58.15c.28.11.35.33.14.55-.72.77-1.47,1.53-2.22,2.29a.57.57,0,0,1-.46.12,41.42,41.42,0,0,1-5.78-.34,5.45,5.45,0,0,1-2.7-1.19A12.18,12.18,0,0,1,190.31,119.36Z"/><path class="cls-2" d="M203.39,87.47a1.73,1.73,0,0,1,1.52.27,4.84,4.84,0,0,0,2.35,1l0,.24-1.35.16a1.28,1.28,0,0,0,.81.64,19.13,19.13,0,0,1,4.67,3.19,10.6,10.6,0,0,0,2.17,1.72,1.94,1.94,0,0,1-2.87.71A33.21,33.21,0,0,1,206,92.14c-.74-.64-1-.62-1.85-.14a22,22,0,0,0-2.71,2h0a.87.87,0,0,1,.31-1,9.12,9.12,0,0,1,2.06-1.53c.69-.38.63-.39.33-1.18A15.46,15.46,0,0,1,203.39,87.47Z"/><path class="cls-3" d="M192.25,87.25a1.29,1.29,0,0,1,1.44.74q7,12.14,14.15,24.21a1.87,1.87,0,0,1,.06,2c-.62-1-1.2-2-1.76-3-1.32-2.28-2.63-4.56-3.95-6.83-.15-.26-.32-.5-.48-.75l-4.17-7.28Q194.9,91.84,192.25,87.25Z"/><path class="cls-2" d="M177,125a21,21,0,0,1-3.52.66c-1.71.29-3.44.32-5.17.44a1,1,0,0,1-.81-.13,1.53,1.53,0,0,1,.88-.35,50.51,50.51,0,0,0,7.21-2.33,10.21,10.21,0,0,1,3.78-.93c0-.52-.57-.52-.65-1l4.45-.51a2.42,2.42,0,0,1-.73.93c-.24.26-.44.51-.16.86-1.47.6-3,1.13-4.42,1.82A3.19,3.19,0,0,0,177,125Z"/><path class="cls-2" d="M214.13,132.19a5.24,5.24,0,0,1-3.75,2.19,20.84,20.84,0,0,1-7.69-.87,1.37,1.37,0,0,1,.22-.2c1.63-1.12,1.64-1.14,3.6-.81a10.42,10.42,0,0,0,7.61-1.7c.73-.48,1.17-1.27,1.85-1.8-.15.65-.72,1.12-.78,1.81l0,0c-.14,0-.18.09-.22.2C214.73,131.41,214.27,131.68,214.13,132.19Z"/><path class="cls-3" d="M208.42,102.45a12.46,12.46,0,0,1-.65-2.19,1.25,1.25,0,0,0-.87-1c-1-.33-1-.36-.78-1.36,0-.25.09-.51.15-.89-.55,0-1,0-1.52,0-.68-.07-.78-.19-.81-.87a10,10,0,0,0-.05-1.1c-.09-.51.19-.7.57-.91s.63,0,.84.27a5.91,5.91,0,0,0,2.29,1.73,1.16,1.16,0,0,1,.75,1.27c0,.43-.06.86-.08,1.29,0,.09,0,.22.14.22s.23,0,.27-.07c.26-.37.5-.76.76-1.16C210.26,99,209.48,101.47,208.42,102.45Z"/><path class="cls-2" d="M192.25,87.25q2.66,4.57,5.29,9.16l4.17,7.28c-.07.45-.13.91-.2,1.37-1-1.76-2-3.53-3.09-5.29a6.52,6.52,0,0,0-.78-1.25c-1-2-2.22-3.94-3.32-5.92-.88-1.57-1.8-3.12-2.68-4.69a1.36,1.36,0,0,1-.34-.84C191.65,87,191.94,87.19,192.25,87.25Z"/><path class="cls-2" d="M191.43,124a2.45,2.45,0,0,0-.33-1.59,19.44,19.44,0,0,1-.92-2,8.43,8.43,0,0,1,2,6.58c-.11.89-.13.89.71,1.22s1.6.58,2.39.87c-.06.45-.37.64-.55.91a1,1,0,0,1-1.21.37c-1.36-.43-2.75-.78-4.13-1.17,0-.1.06-.18.1-.19,1.72-.71,2.26-1.53,2.16-3.38C191.61,125.08,191.5,124.55,191.43,124Z"/><path class="cls-3" d="M194.78,84.06c-.47.2-1,.4-1.43.62s-.31.45-.13.73c-.12,0-.28,0-.37-.06-.31-.25-.46-.13-.55.19,0,.12,0,.26-.05.39s.18.51-.11.61-.53-.16-.73-.38a.76.76,0,0,1-.16-.25,1.86,1.86,0,0,0-1-1.23c-.07,0-.08-.17-.12-.26.17,0,.35-.07.42-.24a2.8,2.8,0,0,1,3.16-1.86.12.12,0,0,0,.07,0v-.89a1,1,0,0,1,.77,1c0,.35-.18.73.28,1C195.12,83.51,194.39,83.76,194.78,84.06Z"/><path class="cls-2" d="M220.27,135.83c1.2,1.79,2.19,3.7,3.31,5.54.25.43.47.87.71,1.31-.15.52,0,1.08-.21,1.6-1.16-1.71-2.09-3.55-3.15-5.32a6.48,6.48,0,0,1-.8-1.49C220.18,136.92,220.22,136.37,220.27,135.83Z"/><path class="cls-3" d="M193.81,81.39v.89a.12.12,0,0,1-.07,0,2.8,2.8,0,0,0-3.16,1.86c-.07.17-.25.2-.42.24-.22-.28-.47-.56-.66-.86s-.49-.58-.48-1,.54-.29.74-.54a4,4,0,0,1,2-1.11,2.39,2.39,0,0,0,1,0c.27,0,.54,0,.8,0S193.81,81.16,193.81,81.39Z"/><path class="cls-2" d="M199.13,135.31c-1.74,1-3.53,1.91-5.34,2.79l-.71.35a2.43,2.43,0,0,0-1.67,2.63c-.37-.21-.85-.2-1.19-.49l.73-1.53A2.41,2.41,0,0,1,192.4,138c1.58-.69,3.17-1.35,4.76-2A8,8,0,0,1,199.13,135.31Z"/><path class="cls-3" d="M215.19,130.81c.06-.69.63-1.16.78-1.81a20.94,20.94,0,0,0,1.3-2.84,2.71,2.71,0,0,1-.44,3A16.16,16.16,0,0,1,215.19,130.81Z"/><path class="cls-3" d="M218.05,123.61c.26.86,1,1.07,1.73,1.38a7.36,7.36,0,0,1-1.43,2,1.21,1.21,0,0,1-.28-.68c-.35-1.13-.34-1.13.81-1.24,0-.33-.3-.4-.52-.49C217.86,124.37,217.82,124,218.05,123.61Z"/><path class="cls-1" d="M213.77,94.29c0-.39.32-.63.43-1a3.87,3.87,0,0,0-.38-2.94c.06,0,.13.07.18,0,.76-.26,1.16.13,1.44.76-.26,0-.45.18-.41.45.17,1.22-.47,2.28-.67,3.42-.39-.07-.16-.35-.19-.54s.23-.27,0-.38-.21.08-.28.18Z"/><path class="cls-3" d="M204.8,85.42c-.15-.64-.69-.56-1.16-.63s-.79.16-1.06-.27a3.81,3.81,0,0,1,2.14.24A37.8,37.8,0,0,1,209,86.62c.16.09.38.13.45.35-.43.06-.73-.24-1.09-.38s-.81-.56-1.33-.11c-.17.15-.41-.08-.47-.34a1.65,1.65,0,0,0-1-.48A1,1,0,0,1,204.8,85.42Z"/><path class="cls-2" d="M203.87,102c-.55.23-.62-.17-.7-.54-.12-.58-.22-1.17-.33-1.76a2.12,2.12,0,0,0-.52-1.06c.87,0,1.16.23,1.28,1S203.78,101.18,203.87,102Z"/><path class="cls-3" d="M218.05,103.58c.18,0,.32.11.3.32s-.18.26-.35.28a2.41,2.41,0,0,1-1.06-.23c-.81-.28-1.61-.62-2.43-.87-.58-.19-.69,0-.53.58.07.28.24.55.14.87a7.91,7.91,0,0,1-.81-2.14c1.05.42,2,.57,2.9,1a5.37,5.37,0,0,0,1.5.53C218,104,218.06,103.82,218.05,103.58Z"/><path class="cls-1" d="M217.23,92.31a2.88,2.88,0,0,0,.15,1c0,.19.08.42-.17.5s-.36-.15-.42-.32c-.15-.42-.55-.74-.54-1.23.13,0,.39.35.38,0,0-.58.15-.43.42-.19A1.32,1.32,0,0,1,217.23,92.31Z"/><path class="cls-3" d="M211.41,123.4a2.25,2.25,0,0,1-1,1,3.87,3.87,0,0,1,.74-1.2Z"/><path class="cls-3" d="M216,101.59a1.75,1.75,0,0,1,1.16,1.24A3.83,3.83,0,0,1,216,101.59Z"/><path class="cls-3" d="M196.78,84.47a1.29,1.29,0,0,1-1.6-.32A7.21,7.21,0,0,1,196.78,84.47Z"/><path class="cls-3" d="M201.59,84.46a1.45,1.45,0,0,1-1.37,0A2.45,2.45,0,0,1,201.59,84.46Z"/><path class="cls-3" d="M210.67,87.76a1.18,1.18,0,0,1-1.08-.71A1.9,1.9,0,0,1,210.67,87.76Z"/><path class="cls-3" d="M215.32,95.78c.45.32.33.67.06,1Z"/><path class="cls-3" d="M218.05,114.39a.41.41,0,0,1,.19,0c.25.05.61.12.49.42s-.42.09-.65,0Z"/><path class="cls-3" d="M198.61,84.51c-.26.37-.54.36-.83,0A1.09,1.09,0,0,1,198.61,84.51Z"/><path class="cls-4" d="M186.49,139.43a2.31,2.31,0,0,1-.37,0c-.12,0-.24-.09-.2-.25a.22.22,0,0,1,.23-.14,5.11,5.11,0,0,1,.55.05C186.62,139.18,186.44,139.24,186.49,139.43Z"/><path class="cls-3" d="M192.67,81a2.39,2.39,0,0,1-1,0A.71.71,0,0,1,192.67,81Z"/><path class="cls-3" d="M195,85.75a.36.36,0,0,1,.61.07A.61.61,0,0,1,195,85.75Z"/><path class="cls-3" d="M214.82,99.41a.37.37,0,0,1,0,.58A.53.53,0,0,1,214.82,99.41Z"/><path class="cls-3" d="M193.81,85.55c.16-.17.29-.12.39.06A.29.29,0,0,1,193.81,85.55Z"/><path class="cls-3" d="M211.22,88.19a.37.37,0,0,1-.43-.35A.47.47,0,0,1,211.22,88.19Z"/><path class="cls-3" d="M212.22,89a.38.38,0,0,1-.43-.36A.52.52,0,0,1,212.22,89Z"/><path class="cls-3" d="M213.62,90.19a.36.36,0,0,1-.42-.36A.52.52,0,0,1,213.62,90.19Z"/><path class="cls-3" d="M213.64,119.87a.38.38,0,0,1,.2-.49A.46.46,0,0,1,213.64,119.87Z"/><path class="cls-4" d="M214.35,95.05a.35.35,0,0,1,.46.31A.53.53,0,0,1,214.35,95.05Z"/><path class="cls-3" d="M215,100.39a.39.39,0,0,1,.36.45A.5.5,0,0,1,215,100.39Z"/><path class="cls-4" d="M187.61,139c.11-.18.23-.2.37,0A.25.25,0,0,1,187.61,139Z"/><path class="cls-3" d="M217.58,103.21a.39.39,0,0,1,.44.34A.49.49,0,0,1,217.58,103.21Z"/><path class="cls-3" d="M212.2,122.4a.37.37,0,0,1,.33-.41A.47.47,0,0,1,212.2,122.4Z"/><path class="cls-2" d="M190.2,120.42c-.22,0-.24-.19-.3-.34C190.06,120.14,190.19,120.23,190.2,120.42Z"/><path class="cls-2" d="M201.4,94a.11.11,0,0,1-.08.15.12.12,0,0,1,0-.08c0-.09.06-.11.14-.06Z"/><path class="cls-3" d="M216.61,113.64a.16.16,0,0,1,0,.15c-.08,0-.17,0-.14-.12S216.56,113.65,216.61,113.64Z"/><path class="cls-3" d="M211.41,123.4l-.23-.24c.1-.06.2-.13.29,0S211.43,123.33,211.41,123.4Z"/><path class="cls-3" d="M215.11,120.75c-.08.09-.18.21-.31.14s-.06-.27,0-.4Z"/><path class="cls-4" d="M215,131c0-.11.08-.21.22-.2A.22.22,0,0,1,215,131Z"/><path class="cls-2" d="M122,120.82c-1.53,0-3,.14-4.57.29a8.18,8.18,0,0,0-3.13.94c-.19.1-.46.16-.4.53a5.45,5.45,0,0,0,1.93-.19,41,41,0,0,1,14.34,1.31,45.38,45.38,0,0,1,4.71,1.25c1.45,2.08,2.9,4.16,4.33,6.24l9.24,13.53c.13.19.31.35.3.62-.27.2-.51,0-.74-.07-2.06-.78-4.14-1.49-6.16-2.36-2.91-1.24-5.92-2.22-8.89-3.31a54.42,54.42,0,0,1-7.17-3A39.76,39.76,0,0,1,114.31,128a6.4,6.4,0,0,1-1.5-4.3,2,2,0,0,1,.69-1.49,5.55,5.55,0,0,1,3.58-1.56A18.55,18.55,0,0,1,122,120.82Z"/><path class="cls-2" d="M142.53,127.14c1.75.39,3.43,1,5.14,1.55a16.17,16.17,0,0,1,2.62.89c.08.13.1.33.33.2v0c-.38.36,0,.61.15.86,1.16,2.29,2.34,4.56,3.51,6.85q2.88,5.59,5.75,11.2a1.41,1.41,0,0,1,.26.74c-.18.21-.37.06-.54,0-1.41-.5-2.82-1-4.24-1.52a1.59,1.59,0,0,1-.9-.73q-5.34-8.79-10.7-17.59A16.13,16.13,0,0,1,142.53,127.14Z"/><path class="cls-1" d="M150.62,129.78c-.23.13-.25-.07-.33-.2C150.44,129.59,150.61,129.55,150.62,129.78Z"/><path class="cls-1" d="M204.8,85.42a1,1,0,0,0,.74.24,1.65,1.65,0,0,1,1,.48,4.49,4.49,0,0,0-2.78-.22,2.47,2.47,0,0,1-1.15-.14l.18-.32Z"/><path class="cls-1" d="M202.82,85.46l-.18.32c-.21,0-.44,0-.33-.29S202.63,85.21,202.82,85.46Z"/><path class="cls-1" d="M213.91,94.31c.07-.1.15-.24.28-.18s.06.25,0,.38Z"/><path class="cls-1" d="M195.11,83.75c-.63-.75-1.13-.75-2.3-.67a1,1,0,0,0-.84.62c-.14.37.36.42.41.71,0,.06-.09.16-.13.16-1-.1-.9,0-1,1.3-.32-.38-.87-.16-1-.78.49,0,.55-.55.73-.94a2.52,2.52,0,0,1,3.1-1.54c.28-.32.07-.67.14-1,.67.22.85.46.73,1.27C194.89,83.22,195.11,83.41,195.11,83.75Z"/><path class="cls-1" d="M194.88,84.19c.38-.06,1.57.36,2,.06-.47-.13-1.18,0-1.65-.18-.29-.08-.23-.24-.14-.43a3,3,0,0,0-2.23,1.07c-.21.22-.48.49-.28.87.15-.19,0-.33.3-.18A2.92,2.92,0,0,1,194.88,84.19Z"/></svg>