<svg id="frames" xmlns="http://www.w3.org/2000/svg" viewBox="0 0 384 216"><defs><style>.cls-1{fill:#17233a;}.cls-2{fill:#fb0b0b;}.cls-3{fill:#fdfdfc;}.cls-4{fill:#d6d7d0;}</style></defs><path class="cls-1" d="M191.85,153.77a6.7,6.7,0,0,0-1.84-1.91,20.33,20.33,0,0,1-2.31-2.33c-.7-.88-1.54-1.64-2.26-2.5-.56-.68-1.09-1.39-1.64-2.07a42.87,42.87,0,0,1-3.75-5.55c-.52-.9-1.12-1.75-1.62-2.64-.66-1.17-1.4-2.28-2-3.49a2.75,2.75,0,0,1-.23-1.15c0-.33,0-.7.34-.85a.75.75,0,0,1,1,.33c.38.51.77,1,1.14,1.52,2.35,3.24,4.65,6.52,7,9.73a51,51,0,0,0,6.71,7.23,26.93,26.93,0,0,0,2.59,2.3,13,13,0,0,0,2.17,1.75,6.93,6.93,0,0,0,1.4,1.25,135.59,135.59,0,0,0,20.61,13.7,91.36,91.36,0,0,0,8.67,3.83,22.86,22.86,0,0,1,3.56,1.53,1.55,1.55,0,0,0,.38.13c.35.09.84.07,1,.3s.2.56.56.67c.17,0,.1.23,0,.32s-.18.34-.47.23a32.37,32.37,0,0,0-4.39-1.38c-.89-.21-1.73-.63-2.63-.75-2.84-.38-5.27-1.81-7.77-3.05a14.83,14.83,0,0,1-2.38-1.37,17.66,17.66,0,0,0-2.24-1.06c-1.39-.79-2.83-1.47-4.17-2.36-.65-.43-1.44-.61-2.13-1-1.6-1-3.18-2-4.77-3s-2.94-2.24-4.46-3.3c-1.21-.85-2.28-1.86-3.39-2.81a12.64,12.64,0,0,0-1.14-.77A3,3,0,0,0,191.85,153.77Z"/><path class="cls-1" d="M243.06,118.75a21.18,21.18,0,0,0-1.61-2.82c-.71-1.31-1.64-2.49-2.4-3.77a2.15,2.15,0,0,1-.14-.26c-.09-.19-.17-.38,0-.55s.38,0,.52.1a11.37,11.37,0,0,1,.83.87,59,59,0,0,1,5.21,7.53c1.72,2.83,3.28,5.75,5.14,8.5a26.59,26.59,0,0,0,7,7,43.22,43.22,0,0,1,7.89,6.58,59.43,59.43,0,0,1,4.62,5.76,13.08,13.08,0,0,1,1.71,3.35c.13.39.16.7-.32.93a10.28,10.28,0,0,0-1.25-2.63,26,26,0,0,0-4.44-5.68,41.4,41.4,0,0,0-5.46-4.51c-.83-.56-1.57-1.25-2.42-1.78-1.27-.78-2.32-1.87-3.61-2.62-.31-.18-.44-.49-.68-.71a34.78,34.78,0,0,1-3.37-3.5c-.84-1-1.6-2.18-2.34-3.31a42.1,42.1,0,0,0-5.49-6.65,11.9,11.9,0,0,0-5.31-3.22,10.7,10.7,0,0,1-5.47-3.5,8.62,8.62,0,0,1-1.31-2.07c-.14-.3-.15-.59.19-.78s.57,0,.77.23.63.77.95,1.16a10.66,10.66,0,0,0,5.79,3.81,9.08,9.08,0,0,1,4.78,2.68c.06.12.17.3.26.24S243.17,118.86,243.06,118.75Z"/><path class="cls-1" d="M231.92,155.82a1.4,1.4,0,0,1-.94-.73c-1.89-2.78-4-5.41-6-8.07A72.49,72.49,0,0,0,214,135.92a16.55,16.55,0,0,0-2.76-1.8,4.46,4.46,0,0,0-2.45-.28c-1,.06-1.92.17-2.89.24a6.92,6.92,0,0,1-2.85-.43A25.15,25.15,0,0,0,195,132c-.33,0-.93.06-.92-.34s.59-.52,1-.54a22.05,22.05,0,0,1,5.95.56c1,.2,2,.46,2.92.68a13.42,13.42,0,0,0,5.17-.06,16.59,16.59,0,0,1,3,0,1.7,1.7,0,0,1,1,.38,31.45,31.45,0,0,1,4.23,3.5c2.06,2.18,4.19,4.29,6.26,6.46a26.24,26.24,0,0,1,2.66,3.61c1.29,1.89,2.37,3.9,3.55,5.85C230.53,153.27,231.06,154.51,231.92,155.82Z"/><path class="cls-2" d="M195.07,106.83a2.28,2.28,0,0,1,1.7-.12,18.6,18.6,0,0,1,4.76,2.43,117.35,117.35,0,0,1,11.67,8.36c4.24,3.49,8.33,7.17,12.21,11.06a3.87,3.87,0,0,1,.47.52.53.53,0,0,1,.08.65.65.65,0,0,1-.63.24,4.87,4.87,0,0,1-2-.93c-5.7-4.92-11.05-10.24-17.18-14.65-2.43-1.75-4.88-3.49-7.37-5.16C197.58,108.44,196.39,107.69,195.07,106.83Z"/><path class="cls-3" d="M197.17,154.14a13,13,0,0,1-2.17-1.75c.11-.47.55-.55.9-.69a63.9,63.9,0,0,1,11.64-3.41c1-.2,2.1-.32,3.15-.46a2.53,2.53,0,0,1,1.88.5c.76.57.7,1.25-.13,1.73a10.27,10.27,0,0,1-3.4,1.1c-3.65.68-7.28,1.48-10.87,2.44C197.8,153.7,197.36,153.69,197.17,154.14Z"/><path class="cls-3" d="M204.75,157.13c1.76-.58,3.5-1.2,5.27-1.74a37.33,37.33,0,0,1,14.84-1.95,9.69,9.69,0,0,1,2.42.57,1.43,1.43,0,0,1,.66.44.64.64,0,0,1-.21,1.12,4.69,4.69,0,0,1-2.11.57,46.09,46.09,0,0,1-5.38.21c-2.39-.26-4.79-.11-7.18-.16a23.45,23.45,0,0,0-4.65.48l-3.59.67Z"/><path class="cls-1" d="M244.72,148.79a1.07,1.07,0,0,1-.58.78c-.28.13-.39-.15-.58-.27a7.49,7.49,0,0,1-1.57-1.76c-1-1.25-2.09-2.37-3.11-3.58a18.37,18.37,0,0,0-2.67-2.91,1.39,1.39,0,0,1-.21-.21c-2.28-2.65-4.81-5.06-7.17-7.63-.33-.35-.76-.68-.68-1.27s.44-.86,1-.6a5.16,5.16,0,0,1,1.44,1.06c2.49,2.32,4.77,4.84,7,7.39s4.52,5.35,6.61,8.15C244.44,148.2,244.73,148.42,244.72,148.79Z"/><path class="cls-3" d="M191.85,153.77a3,3,0,0,1,1.58,1.42,27.57,27.57,0,0,0-4.29,1.84q-3.16,1.47-6.21,3.18c-.34.18-.67.46-1.15.31,0-.35.32-.49.54-.64,2.85-2,5.64-4,8.61-5.75A1.94,1.94,0,0,1,191.85,153.77Z"/><path class="cls-1" d="M232.23,156.65l-.31-.46c.31,0,.15.32.28.45Z"/><polygon class="cls-1" points="232.2 156.63 232.23 156.61 232.23 156.65 232.2 156.63"/><path class="cls-4" d="M243.06,118.75c.11.11.29.24.09.38s-.2-.12-.26-.24Z"/></svg>