<svg id="frames" xmlns="http://www.w3.org/2000/svg" viewBox="0 0 384 216"><defs><style>.cls-1{fill:#0e1b33;}.cls-2{fill:#fcfcfc;}.cls-3{fill:#fc0b0b;}.cls-4{fill:#d6d7d0;}</style></defs><path class="cls-1" d="M167.25,137c-.07-.15-.19-.29,0-.42l.87-.5,6.81-3.79.67-.39c-.43-.28-.69,0-1,.12l-6.15,3.32a2.78,2.78,0,0,1-.94.41c-.18-.16-.15-.3,0-.39a16.06,16.06,0,0,1,3.7-3c1-.52,1.9-1.27,2.87-1.88s1.85-1.08,2.77-1.63c1.29-.77,2.58-1.54,3.83-2.37a9.33,9.33,0,0,0,1.11-.63c.5-.43.5-.79-.11-1a3.46,3.46,0,0,0-2.9.07c-1.9.85-3.73,1.84-5.59,2.77-.31.15-.59.43-1,.33a.72.72,0,0,1,.29-.6c.11-.12.25-.22.36-.34a.82.82,0,0,0,.22-.91,1.07,1.07,0,0,0-.81-.46,5.47,5.47,0,0,0-2.14.63,16.43,16.43,0,0,0-4.45,2.39c-.36-.11-.28-.34-.28-.52,0-3.83,0-7.67,0-11.5a1,1,0,0,1,.67-1,29.73,29.73,0,0,0,2.75-1.26c1.73-.91,3.39-2,5.15-2.78a39.55,39.55,0,0,0,5.45-3.21,9.52,9.52,0,0,0,2.72-2.72c.62-1,.3-1.54-.87-1.6a3.65,3.65,0,0,0-1.46.28,38.22,38.22,0,0,0-5.37,2.55c-1.08.6-2.16,1.23-3.2,1.91-1.62,1-3.21,2.13-4.8,3.22a5.43,5.43,0,0,1-.85.4,1.35,1.35,0,0,1-.17-1c0-4.5,0-9-.1-13.5a1.16,1.16,0,0,1,.78-1.3c1.53-.64,2.86-1.66,4.32-2.45a.92.92,0,0,0,.43-.4c.11-.23.56-.24.45-.58s-.52-.42-.85-.41a8.07,8.07,0,0,0-3,.81c-1.58.69-2.91,1.8-4.42,2.59-2.25,1.17-4.52,2.27-6.8,3.37a2.06,2.06,0,0,1-1.25.26c-.32-.06-.4-.28-.2-.49a5.37,5.37,0,0,1,1.11-1,40,40,0,0,0,3.73-2.89c1.27-1,2.45-2,3.75-3A14,14,0,0,1,165,91.26a.65.65,0,0,0,.35-.66c0-.2,0-.4,0-.6,0-3.37,0-6.73.15-10.09a.71.71,0,0,1,.49-.74,3.12,3.12,0,0,1,1.28-.16l23.49.11c3.87,0,7.73,0,11.6.1,1.83,0,3.66.11,5.48.27a22.23,22.23,0,0,1,6.67,1.94,28.91,28.91,0,0,1,8.1,4.95,29.59,29.59,0,0,1,3.08,3.25c.18-.17.14-.34.15-.5q.1-3.55.23-7.09a12,12,0,0,1,0-2,1,1,0,0,1,.81-.82,2.34,2.34,0,0,1,.7,0c8.83,0,17.66,0,26.49.05,3.76,0,7.53,0,11.29.15a26.24,26.24,0,0,1,9.74,2.17,27.17,27.17,0,0,1,7.81,5,26.38,26.38,0,0,1,8.24,15.13A25.27,25.27,0,0,1,290,115.18a27.53,27.53,0,0,1-5.48,9.22,26.93,26.93,0,0,1-15.83,8.65,22.77,22.77,0,0,1-4.66.35c0-.69,0-1.39-.05-2.09a12.11,12.11,0,0,0-.6-3.63,54.85,54.85,0,0,0-5-10.55c-.39-.65-.81-1.29-1.21-1.93l3,0a5.37,5.37,0,0,0,1.49-.17,8.75,8.75,0,0,0,5.73-4.76,7,7,0,0,0,.5-5.89,10.14,10.14,0,0,0-4.24-4.9,6.14,6.14,0,0,0-3.23-.89c-3.66,0-7.33,0-11,0-.86,0-.87,0-.87.88,0,2.8,0,5.59,0,8.39,0,1-.11,1.92-.17,2.88l-1.19,0c-.16,0-.24,0-.18.18-.16.36-.49.54-.76.78-.74.62-1.48,1.25-2.23,1.85-.39.3-.39.59-.2,1a11.52,11.52,0,0,0,3.63,4.18c.29.23.59.36.77-.14.05-.15.2-.16.33-.13a16.29,16.29,0,0,0,2,.09c0,.2,0,.33-.06.46-.06.29-.13.59-.21.88-.26,1-.26.94-1.21.76a40.9,40.9,0,0,0-7.22-.94c-.33,0-.66-.08-1-.12a27.59,27.59,0,0,1-6.76-2.09,8.77,8.77,0,0,0-3.61-.63c-.21,0-.48-.06-.6.22a.24.24,0,0,0,.18.21,34.64,34.64,0,0,1,3.32,1.06,5.25,5.25,0,0,1,1.38.58c1.94,1.16,3.93,2.24,6,3.26a34.35,34.35,0,0,0,7.21,2.61,13.9,13.9,0,0,0,3.86.48,4.48,4.48,0,0,0,3.7-1.84s.11,0,.24,0a42.61,42.61,0,0,1,0,9.84l-1,.15a1.63,1.63,0,0,0-.76,0,24,24,0,0,0-2.68-.08,1,1,0,0,0-1,.6,11.64,11.64,0,0,1-1.52,2.22c-.42.47-.33.47-.4,1.23-.1,1,.09,2.06-.07,3.08-.24-.07-.53,0-.74-.29.2-.28.37-.6.08-.89a5.69,5.69,0,0,0-.71-.5c.35-.13.69-.25,1-.39a.36.36,0,0,0,.22-.3c0-.22-.17-.26-.32-.32a1.28,1.28,0,0,0-.39-.07,32.19,32.19,0,0,0-6.13,0,.15.15,0,0,0-.07-.16c1.78-.21,3.57-.34,5.36-.44a1.4,1.4,0,0,0,.28-.06c.17-.06.11-.21.14-.33a.16.16,0,0,0-.16-.2,4,4,0,0,0-.49,0,43,43,0,0,0-7.35.53c-3.12.53-6.17,1.36-9.25,2.05a6.64,6.64,0,0,0-2.59,1.22,2.11,2.11,0,0,1-1.44.58q0-8.94,0-17.88a.3.3,0,0,0-.21-.33c-.82.79-1.57,1.68-2.42,2.47a26.93,26.93,0,0,1-8.95,5.73,46.58,46.58,0,0,1-10.71,2.22c-1.13.12-2.27,0-3.39.1a36.6,36.6,0,0,1-6.28.19c-.21,0-.48.1-.61-.24,1.44-1.12,2.89-2.23,4.32-3.36.63-.5,1.23-1,1.82-1.57.26-.24.6-.54.37-.93s-.63-.33-1-.33a2.2,2.2,0,0,0-1,.27,1.63,1.63,0,0,1-.77.32c-.29-.82-1-1-1.79-1.12a6,6,0,0,0-1.79.09,30.46,30.46,0,0,0-5.49,1.47,141.35,141.35,0,0,0-17.71,8.53c-.17.09-.37.15-.45.36a1,1,0,0,0-.58.33l-.35.06C168.41,136.9,167.79,137.07,167.25,137Zm23.15-22.1H201a3,3,0,0,0,.6-.07,8.57,8.57,0,0,0,6.42-7.54,9.13,9.13,0,0,0-2.56-6.82,5.9,5.9,0,0,0-3.21-1.87,8.69,8.69,0,0,0-1.69-.13c-3,0-5.93,0-8.89.14-1,0-2.06.06-3.09,0-.49,0-.67.18-.62.64,0,.17,0,.34,0,.5,0,3.54.06,7.07-.06,10.6,0,.72,0,1.44,0,2.32.44-.27.72-.43,1-.61a49.07,49.07,0,0,1,6-3.36,15.85,15.85,0,0,1,2.71-1,3.55,3.55,0,0,1,1.68-.09.93.93,0,0,1,.62,1.58,4.41,4.41,0,0,1-1.09,1,17.83,17.83,0,0,1-2.16,1.25l-5.68,3C190.8,114.53,190.51,114.56,190.4,114.87Zm51.19,14.18a2.35,2.35,0,0,0-1-.56c-1.3-.58-2.64-1.1-3.92-1.73a37.54,37.54,0,0,1-9.15-6.17,10.25,10.25,0,0,1-3-4.84c-.07-.29-.2-.57-.26-.86a.5.5,0,0,0-.57-.43c-.32,0-.45.2-.53.49a2.64,2.64,0,0,0,0,1.28,6.76,6.76,0,0,0,1.43,3.15,15.85,15.85,0,0,0,1.66,1.72,40.85,40.85,0,0,0,14.32,8.09A1,1,0,0,0,241.59,129.05Zm-1.84-12.56c-.24-.24-.28-.3-.34-.32a2.41,2.41,0,0,0-.48-.12,3.09,3.09,0,0,1-2.45-1.81,6.83,6.83,0,0,1-.81-2.44c0-.33-.11-.59-.51-.58s-.44.35-.44.64a4.79,4.79,0,0,0,1.78,3.84A4.3,4.3,0,0,0,239.75,116.49Zm8.81,18.18a2.27,2.27,0,0,0,.54-.82c.09-.15.11-.32-.1-.39s-.42,0-.48.19A1.57,1.57,0,0,0,248.56,134.67Z"/><path class="cls-1" d="M253.2,146a4.77,4.77,0,0,1-1.09,2.53,26.3,26.3,0,0,1-3.14,3.61,1.8,1.8,0,0,0-.59,1.49c0,1.13,0,2.26,0,3.39,0,.49.1.81.6,1a22,22,0,0,0,2.83,1.2h0a.76.76,0,0,0,.2.2,59.65,59.65,0,0,1,6.64,4,1.33,1.33,0,0,0,1.3.14,59.52,59.52,0,0,0,5.62-2.28c.71.24,1.49.37,1.93,1.1a9,9,0,0,0-2.12.83c-1.48.56-2.94,1.18-4.5,1.81a4,4,0,0,0,1,1c3.32,2.41,6.32,5.19,9.41,7.88,1.58,1.38,3.3,2.58,5,3.88a15.1,15.1,0,0,1,1.18,1.08c.25.23.14.41-.12.53a1.09,1.09,0,0,1-1.05-.09c-.43-.25-.86-.51-1.28-.78-1.46-.92-2.89-1.9-4.4-2.74a50.71,50.71,0,0,1-5.89-4.15c-.93-.72-1.7-1.66-2.64-2.39a9.52,9.52,0,0,0-2.09-1.45,7.78,7.78,0,0,1-1.6-1.27,1.67,1.67,0,0,0-1.53-.41,87,87,0,0,1-21.23,2,115.28,115.28,0,0,1-14.25-1.75c-4.39-.67-8.65-1.89-13-3a16.89,16.89,0,0,0-3.47-1c-.95-.83-2.34-.53-3.3-1.3-1.47-.22-2.77-1-4.21-1.28a18.13,18.13,0,0,1-2.27-.72,20.06,20.06,0,0,0-3.66-1.1,2.41,2.41,0,0,1-1.07-.42c-.66-.54-1.55-.45-2.22-.95-.22-.16-.44-.09-.49.24s-.41.59-.78.77q-4.32,2.15-8.63,4.33a3,3,0,0,1-1.75.23c0-.51.44-.7.73-.83a25.94,25.94,0,0,0,3-2c1.59-1,3.07-2.17,4.59-3.26l.5-.4c0-.25-.12-.29-.22-.33-1.78-.71-3.47-1.61-5.23-2.36-1.2-.51-2.49-.83-3.63-1.43s-2.55-1-3.76-1.68-2.43-1.51-3.63-2.3a17.26,17.26,0,0,1-3-2.53,19.25,19.25,0,0,1-2.56-3c-.32-.53-.72-1-1-1.56a1.63,1.63,0,0,1,.76-2.19c.23-.12.49-.19.73-.29,1-.16,2,.14,3,0a7.14,7.14,0,0,1,1.79,0,33.35,33.35,0,0,1,4.22.78c5.78,1.33,11.44,3.08,17.08,4.92,5.48,1.79,11,3.47,16.5,5.13s11.13,3.46,16.8,4.85c6.92,1.69,13.84,3.38,20.63,5.58,1.45.46,2.91.89,4.37,1.34.47.26.92.64,1.53.38-.48-.31-.85-.84-1.52-.7a20.53,20.53,0,0,0-4.3-2.2l-2.56-1.12A36.11,36.11,0,0,0,236.1,155c-8.44-2.4-16.93-4.62-25.44-6.75a20.06,20.06,0,0,1-2.77-.82c-.29-.13-.68-.17-.69-.61a2.33,2.33,0,0,1,1.7-.15c.57.1,1.14.22,1.7.33,1.27.28,2.54.53,3.8.84a2.59,2.59,0,0,0,1.65-.09,29.81,29.81,0,0,1,4.31-1.24L227.7,145a7.88,7.88,0,0,1,2.06-.32,1.4,1.4,0,0,0,1.14-.37,2,2,0,0,1,1.13-.56q3.58-.24,7.17-.57c3-.29,6-.64,9-1.21a15.28,15.28,0,0,1,.25,2.42,3.2,3.2,0,0,1-.45,1.51c-.55,1-1.12,2-1.62,3a10.62,10.62,0,0,1-3.46,3.92c-.84.6-1.64,1.25-2.51,1.91.65.22,1.22.39,1.77.62a1.06,1.06,0,0,0,1.18-.24c1.15-1,2.3-1.91,3.38-3a52.54,52.54,0,0,0,5.37-5.89C252.42,145.86,252.74,145.68,253.2,146Zm-35.63,2.52,7.92,2c.41.11.45-.15.44-.45,0-1,0-1.93-.05-2.89,0-.63,0-.65-.72-.52-2.14.45-4.29.9-6.43,1.37A1.87,1.87,0,0,0,217.57,148.52Z"/><path class="cls-2" d="M253.2,146c-.46-.32-.78-.14-1.09.27a52.54,52.54,0,0,1-5.37,5.89c-1.08,1-2.23,2-3.38,3a1.06,1.06,0,0,1-1.18.24c-.55-.23-1.12-.4-1.77-.62.87-.66,1.67-1.31,2.51-1.91a10.62,10.62,0,0,0,3.46-3.92c.5-1,1.07-2,1.62-3a3.2,3.2,0,0,0,.45-1.51c.33,0,.41-.31.51-.54.28-.6.57-1.2.8-1.82a16.13,16.13,0,0,0,1.35-4c.08-.73,0-1.45.09-2.18a1.94,1.94,0,0,1,2.05-2c.28,0,.61.07.77-.29a1.63,1.63,0,0,1,.76,0c.53.45.73.42,1-.15a42.61,42.61,0,0,0,0-9.84c-.13,0-.21,0-.24,0a4.48,4.48,0,0,1-3.7,1.84,13.9,13.9,0,0,1-3.86-.48,34.35,34.35,0,0,1-7.21-2.61c-2-1-4-2.1-6-3.26a5.25,5.25,0,0,0-1.38-.58,34.64,34.64,0,0,0-3.32-1.06.24.24,0,0,1-.18-.21c.12-.28.39-.21.6-.22a8.77,8.77,0,0,1,3.61.63,27.59,27.59,0,0,0,6.76,2.09c.33,0,.66.11,1,.12a40.9,40.9,0,0,1,7.22.94c1,.18,1,.19,1.21-.76.08-.29.15-.59.21-.88,0-.13,0-.26.06-.46a16.29,16.29,0,0,1-2-.09c-.13,0-.28,0-.33.13-.18.5-.48.37-.77.14a11.52,11.52,0,0,1-3.63-4.18c-.19-.44-.19-.73.2-1,.75-.6,1.49-1.23,2.23-1.85.27-.24.6-.42.76-.78l.18-.18,1.19,0a2.47,2.47,0,0,1,1.33,1.13c.43.56.95,1,1.41,1.53a.73.73,0,0,0,.7.25,6.57,6.57,0,0,1,5.36,1.5c.4.64.82,1.28,1.21,1.93a54.85,54.85,0,0,1,5,10.55,12.11,12.11,0,0,1,.6,3.63c0,.7,0,1.4.05,2.09a.76.76,0,0,0,0,.3c.45,1.34-.1,2.53-.52,3.75a12.25,12.25,0,0,1-3,5,7.13,7.13,0,0,1-5.67,2.36,1,1,0,0,0-1.16.69A.89.89,0,0,1,253.2,146Z"/><path class="cls-1" d="M126.73,100.32A6.76,6.76,0,0,1,128,98.56a39,39,0,0,0,3.86-5,10.91,10.91,0,0,1,.84-1.09,46.07,46.07,0,0,0,3.65-6.11,5.27,5.27,0,0,0,.52-1.92,2.3,2.3,0,0,0-1.72-2.68,6.13,6.13,0,0,0-3.15-.23A9.42,9.42,0,0,0,128,83.31a18.06,18.06,0,0,0-3.93,4.07,4.77,4.77,0,0,1-.45.54c-1.9,1.83-3.66,3.78-5.37,5.78a2.07,2.07,0,0,1-.48.5,3,3,0,0,1,.64-1.42,13.45,13.45,0,0,0,1.12-2c.92-1.46,1.92-2.87,2.82-4.35,1.51-2.49,3.13-4.92,4.76-7.34a14.1,14.1,0,0,1,2.25-2.63c.62-.54,1.35-.75,1.61-.41.41.53.14,1.06-.1,1.59s-.55.73-.65,1.2a1.59,1.59,0,0,0,.92.11l15.09.05a1.18,1.18,0,0,0,.72-.24,10.45,10.45,0,0,1,3.8-1.55,3.94,3.94,0,0,1,1.49-.07c.88.17,1.13.84.54,1.5a12.19,12.19,0,0,1-2.49,2q-3.72,2.45-7.24,5.16A105.13,105.13,0,0,0,130.55,97c-1,1.05-2.09,2-3.12,3.05A1.58,1.58,0,0,1,126.73,100.32Z"/><path class="cls-2" d="M207.2,146.8c0,.44.4.48.69.61a20.06,20.06,0,0,0,2.77.82c8.51,2.13,17,4.35,25.44,6.75a36.11,36.11,0,0,1,5.24,1.92L243.9,158a20.53,20.53,0,0,1,4.3,2.2v.32c-1.46-.45-2.92-.88-4.37-1.34-6.79-2.2-13.71-3.89-20.63-5.58-5.67-1.39-11.22-3.17-16.8-4.85s-11-3.34-16.5-5.13c-5.64-1.84-11.3-3.59-17.08-4.92a33.35,33.35,0,0,0-4.22-.78,7.14,7.14,0,0,0-1.79,0c-1,.15-2-.15-3,0a3.71,3.71,0,0,1,2.34-.92,2.8,2.8,0,0,0,1.1-.08c.54.1,1.16-.07,1.61.39.14.13.26.13.35-.06a1,1,0,0,1,.58-.33c.22.37.59.38,1,.44,2.26.37,4.52.77,6.77,1.14,2.07.33,4.11.77,6.15,1.24.11.14.15.4.39.38.74-.08,1.38.35,2.09.39.16.05.31.11.47.15l13.46,3.95c1.84.54,3.68,1.11,5.52,1.64A5.38,5.38,0,0,1,207.2,146.8Z"/><path class="cls-1" d="M138.9,108.49c.65-.76,1.28-1.54,1.94-2.28,3.14-3.5,6-7.24,9.21-10.66a16,16,0,0,1,2.33-2.18,4,4,0,0,1,2.4-.74,1.75,1.75,0,0,1,1.77,2.57A5.26,5.26,0,0,1,155.36,97a42.52,42.52,0,0,1-4.88,4.2c-2.95,2.26-5.95,4.46-8.77,6.89-.46.39-.93.76-1.39,1.14C139.89,108.92,139.61,108.32,138.9,108.49Z"/><path class="cls-3" d="M267.48,162.35c-.44-.73-1.22-.86-1.93-1.1a3.68,3.68,0,0,0-.38-.31,11.38,11.38,0,0,0-4.58-1.55,38.68,38.68,0,0,0-7.22-.24c-.53,0-1.06,0-1.58,0h0c-.11-.53.09-.76.63-.87,1.85-.38,3.73-.61,5.59-1s3.81.31,5.63.9c1,.32,2,.79,3,1.18.49.19,1,.35,1.5.52a8.74,8.74,0,0,0,1.95.87,6.77,6.77,0,0,0,.66.43,58.49,58.49,0,0,1,8.5,5.5c1.13.84,1.12.85,1.42,1.51a1.86,1.86,0,0,1-1.81-.27,20.06,20.06,0,0,0-5-2.73c-.62-.23-1.2-.54-1.8-.82l-3.64-1.79A2.12,2.12,0,0,0,267.48,162.35Z"/><path class="cls-3" d="M107.12,109.75a6.54,6.54,0,0,1,2.59.76,36.68,36.68,0,0,1,7.83,5.41,4.18,4.18,0,0,1,1.22,1.29c.07.17.32.34.08.51a.45.45,0,0,1-.55,0,2.24,2.24,0,0,0-.27-.13c-1.64-.88-3.34-1.66-5-2.57-1.47-.82-3.14-1.22-4.5-2.22a23.94,23.94,0,0,1-2.63-1.68c-.23-.21-.61-.4-.46-.8s.49-.42.8-.5A5.28,5.28,0,0,1,107.12,109.75Z"/><path class="cls-1" d="M148.42,113.65a3.55,3.55,0,0,1,1.52-1.53,22.15,22.15,0,0,0,1.91-1.54,32.34,32.34,0,0,1,3-2.33c1.13-.74,2.23-1.53,3.42-2.18a14.36,14.36,0,0,1,2.45-1A2.66,2.66,0,0,1,162,105c.64.11.79.46.38,1a6.61,6.61,0,0,1-2.19,1.7c-2.14,1.1-4.38,2-6.49,3.16-1.46.81-2.91,1.65-4.36,2.47A8.75,8.75,0,0,1,148.42,113.65Z"/><path class="cls-1" d="M270.07,160.85a8.74,8.74,0,0,1-1.95-.87,27.32,27.32,0,0,1,3.32-1.59c2.25-1,4.43-2.16,6.77-2.93.31-.11.59-.34.94-.15.12.28-.11.35-.27.46a31.09,31.09,0,0,1-3.29,1.84c-1.5.75-2.91,1.66-4.33,2.54Z"/><path class="cls-3" d="M138.9,108.49c.71-.17,1,.43,1.42.77.4.8.78,1.61,1.2,2.4a20,20,0,0,1,1.25,3.22.84.84,0,0,1-.05.29,1.35,1.35,0,0,1-.8-.73c-.48-.9-1.18-1.66-1.66-2.55a16.18,16.18,0,0,0-1-1.7,10.55,10.55,0,0,1-.48-1.54Z"/><path class="cls-1" d="M138.77,108.65a10.55,10.55,0,0,0,.48,1.54c-1.51,1.21-3,2.51-4.6,3.69C134.66,113,135.89,111.46,138.77,108.65Z"/><path class="cls-3" d="M133.76,121.24a6.36,6.36,0,0,1-1.41-2.35c-.11-.33-.46-.94.11-1.13s.53.52.64.85C133.37,119.46,133.55,120.36,133.76,121.24Z"/><path class="cls-1" d="M167.37,135.73l-.07.07a.75.75,0,0,1-.06-.13s0,0,.06-.07Z"/><path class="cls-2" d="M210.6,147a1,1,0,0,1,.67-1l5.49-2.59a13.33,13.33,0,0,1,4.05-1.35c1.05-.13,2.1-.23,3.14-.45a3.77,3.77,0,0,0,1.86-.61,2.11,2.11,0,0,0,1.44-.58,6.64,6.64,0,0,1,2.59-1.22c3.08-.69,6.13-1.52,9.25-2.05a43,43,0,0,1,7.35-.53,4,4,0,0,1,.49,0,.16.16,0,0,1,.16.2c0,.12,0,.27-.14.33a1.4,1.4,0,0,1-.28.06c-1.79.1-3.58.23-5.36.44a4.11,4.11,0,0,0-2.24.45,5.66,5.66,0,0,0,2.31-.29,32.19,32.19,0,0,1,6.13,0,1.28,1.28,0,0,1,.39.07c.15.06.33.1.32.32a.36.36,0,0,1-.22.3c-.34.14-.68.26-1,.39a5.69,5.69,0,0,1,.71.5c.29.29.12.61-.08.89.21.26.5.22.74.29.92.59.91.84-.07,1.36l-.07.07c-3,.57-6,.92-9,1.21q-3.58.33-7.17.57a2,2,0,0,0-1.13.56,1.4,1.4,0,0,1-1.14.37,7.88,7.88,0,0,0-2.06.32l-7.34,1.47a29.81,29.81,0,0,0-4.31,1.24,2.59,2.59,0,0,1-1.65.09C213.14,147.51,211.87,147.26,210.6,147Z"/><path class="cls-2" d="M241.59,129.05a1,1,0,0,1-1.09.14,40.85,40.85,0,0,1-14.32-8.09,15.85,15.85,0,0,1-1.66-1.72,6.76,6.76,0,0,1-1.43-3.15,2.64,2.64,0,0,1,0-1.28c.08-.29.21-.49.53-.49a.5.5,0,0,1,.57.43c.06.29.19.57.26.86a10.25,10.25,0,0,0,3,4.84,37.54,37.54,0,0,0,9.15,6.17c1.28.63,2.62,1.15,3.92,1.73A2.35,2.35,0,0,1,241.59,129.05Z"/><path class="cls-2" d="M239.75,116.49a4.3,4.3,0,0,1-3.25-.79,4.79,4.79,0,0,1-1.78-3.84c0-.29,0-.62.44-.64s.46.25.51.58a6.83,6.83,0,0,0,.81,2.44,3.09,3.09,0,0,0,2.45,1.81,2.41,2.41,0,0,1,.48.12C239.47,116.19,239.51,116.25,239.75,116.49Z"/><path class="cls-4" d="M241.38,137.82a5.66,5.66,0,0,1-2.31.29,4.11,4.11,0,0,1,2.24-.45A.15.15,0,0,1,241.38,137.82Z"/><path class="cls-4" d="M169.21,137.3c-.09.19-.21.19-.35.06Z"/><path class="cls-4" d="M247.2,110.82,247,111C247,110.82,247,110.78,247.2,110.82Z"/><path class="cls-4" d="M248.19,160.54v-.32c.67-.14,1,.39,1.52.7C249.11,161.18,248.66,160.8,248.19,160.54Z"/><path class="cls-1" d="M183.66,139.79c.67-.48,1.34-1,2-1.43.38-.25.8-.56,1.26-.19s.34.76,0,1.36a12.4,12.4,0,0,1-.76,1c-.71,0-1.35-.47-2.09-.39C183.81,140.19,183.77,139.93,183.66,139.79Z"/></svg>