<svg id="frames" xmlns="http://www.w3.org/2000/svg" viewBox="0 0 384 216"><defs><style>.cls-1{fill:#0f1b33;}.cls-2{fill:#fd0101;}.cls-3{fill:#f5f6f7;}.cls-4{fill:#d6d7d0;}</style></defs><path class="cls-1" d="M165.45,122.79c0-.2,0-.4,0-.6.1-12.09-.16-24.19-.1-36.29,0-1.93,0-3.86.16-5.79a1,1,0,0,1,.78-1,2.77,2.77,0,0,1,1-.08q9.86,0,19.7,0,7.84,0,15.7.16c1.59,0,3.19.08,4.78.19a19.35,19.35,0,0,1,5.9,1.46,30.38,30.38,0,0,1,9.38,5.59,23.46,23.46,0,0,1,2.85,3c.36-.13.24-.41.25-.61.09-2.3.16-4.59.23-6.89,0-.37-.06-.73-.06-1.1,0-1.27.38-1.68,1.65-1.68l24.39,0c4.43,0,8.87.06,13.29.19A26.94,26.94,0,0,1,289.4,95.75a27,27,0,0,1,2.05,8.7,26.32,26.32,0,0,1-2.37,13,26.91,26.91,0,0,1-12.22,12.86,28,28,0,0,1-10.18,3,19.5,19.5,0,0,1-2.29.1h-15.2c-.67,0-.7.05-.72.76,0,1.5-.08,3-.08,4.5q0,10.85,0,21.69c0,.23,0,.47,0,.7a1.26,1.26,0,0,1-1.31,1.34c-.73,0-1.46,0-2.2,0l-5.09-.1a14.27,14.27,0,0,1,2.18-.72,14.08,14.08,0,0,0,2.49-1,1.09,1.09,0,0,0,.66-.7c.1-.46-.14-.52-.51-.37a10,10,0,0,0-3-1.29c-2.18-.62-4.37-1.2-6.52-1.91-3.57-1.17-7.1-2.45-10.66-3.66-6.37-2.17-12.73-4.35-19-6.65-2.91-1.06-5.81-2.12-8.76-3,.28-.43.59-.1.87,0,2.79.9,5.58,1.77,8.35,2.72,4.06,1.4,8.07,2.94,12.14,4.28,2.37.79,4.72,1.62,7.09,2.42.86.29.92.25.91-.63,0-1.26-.06-2.52-.07-3.79a2.93,2.93,0,0,0-.42-1.41,15.64,15.64,0,0,1-1.24-2.27c.25-.48.07-1,.21-1.53,1.14,1.68,2.05,3.5,3.1,5.24a2.79,2.79,0,0,1,.26.95c.22,1.35.48,2.69.69,4a1,1,0,0,0,.76.91c1.81.56,3.61,1.17,5.41,1.75.18.05.37.2.53,0a1.16,1.16,0,0,0-.28-.63,50.43,50.43,0,0,0-6.42-7.86c-.16-.17-.37-.27-.47-.5a41.3,41.3,0,0,0-2.25-3.86q-3.77-6.34-7.54-12.7a2.42,2.42,0,0,0-.51-.72c-.68.59-.69.59-.3,1.28,1,1.76,2.11,3.46,3,5.28-.21.5,0,1.05-.18,1.56a5.39,5.39,0,0,1-.7-1.08c-1-1.65-1.89-3.36-3-5-.32-.49-.47-.53-.92-.18a8,8,0,0,1-1.39,1.13c0-.3.15-.48.32-.68s.46-.36.5-.69a.28.28,0,0,0,.31-.22l0,0a11.92,11.92,0,0,0,1.77-1.85,2.47,2.47,0,0,0,.27-2.56,7.86,7.86,0,0,0-.63,1.31,5,5,0,0,1-.74,1.4c-.18.21-.5.34-.46.71l0,0c-.65.17-.92.81-1.45,1.14a10.55,10.55,0,0,1-7.59,1.61c-.49-.09-1-.11-1.48-.17a1,1,0,0,0-.76.16,10.6,10.6,0,0,0-1.46,1l-3.65,1.83a9.3,9.3,0,0,0-2.35.79q-2.13.85-4.22,1.78a2.6,2.6,0,0,0-1.56,1.16c-.24.51-.48,1-.73,1.52a26.88,26.88,0,0,1-3.93-1.36,8.59,8.59,0,0,0,4.59-1.55c2.3-1.45,4.39-3.21,6.55-4.87a.37.37,0,0,0,.38-.27,4.81,4.81,0,0,0,1.22-.93.35.35,0,0,0,.36-.28,1.49,1.49,0,0,0,.64-.5.35.35,0,0,0,.35-.29,1.74,1.74,0,0,0,.65-.52.32.32,0,0,0,.35-.28,4.47,4.47,0,0,0,1.05-.89.39.39,0,0,0,.37-.32l3.23-2.5a.41.41,0,0,0,.38-.3,1.51,1.51,0,0,0,.62-.5.39.39,0,0,0,.38-.3,20.3,20.3,0,0,0,3.82-3.53.5.5,0,0,1,.42.15c-.1.38-.2.76-.31,1.13,0,.16-.11.34,0,.44s.31,0,.41-.14.43-.57.64-.86a.37.37,0,0,0,.26-.39,1.06,1.06,0,0,0,.35-.58.35.35,0,0,0,.22-.42,7.36,7.36,0,0,0,.8-2,.38.38,0,0,0,.18-.45c.17-.46.65-.53,1-.78a.5.5,0,0,1,.46.41l-1,2.95c.25,0,.36,0,.43-.09a8.9,8.9,0,0,0,2.35-2.54.86.86,0,0,0,.08-.76,13.35,13.35,0,0,0-1-2.83,3.88,3.88,0,0,0-3.2-2.37c-1.44-.12-1.58-.09-2.3,1.16l-.05.08a16.27,16.27,0,0,1-1.76,3,21.26,21.26,0,0,1-2.82,2.2,20.15,20.15,0,0,0-2.69,2.34c-.68.8-1.38,1.59-2.08,2.37-2.92,3.28-5.86,6.54-9,9.62a10,10,0,0,1-3.27,2.26c-.28-.14-.18-.31,0-.44.39-.3.81-.56,1.21-.86.21-.16.52-.26.56-.74h-2.9c-.21,0-.42,0-.41.3,0,.64-.21,1.31.16,1.92.12.08.21.21.09.31a1.5,1.5,0,0,1-.53.24,26.85,26.85,0,0,1-5.47,1.06,9.86,9.86,0,0,1-4.3-.5c-2.23-.86-4.51-1.6-6.77-2.37-1.92-.66-3.84-1.28-5.76-1.92v-.49c0-1.45.2-1.47-1.35-1.13-.78.17-.78.16-.64,1-.2,0-.44.07-.59,0a20.89,20.89,0,0,0-3.17-1.11c-.17-.07-.42,0-.44-.37a27.86,27.86,0,0,1,3.83-1c2.85-.43,5.73-.67,8.55-1.33a15.91,15.91,0,0,0,5.62-2.46c.28-.19.29-.35-.05-.46a4.32,4.32,0,0,1,.94-.52c1.43-.69,2.92-1.19,4.37-1.81a9.79,9.79,0,0,0,3.3.7,33.75,33.75,0,0,1,5.84.62c0,.36.12.73.15,1.09.19,2.49-.4,3.2-2.26,4,.18.25.47.24.72.31l3.18.87a1.4,1.4,0,0,0,1.93-.82c.16-.29.08-.42-.21-.52-.69-.23-1.39-.46-2.07-.72-.85-.32-.84-.34-.72-1.23a7.68,7.68,0,0,0-.9-4.91,4.69,4.69,0,0,0-1.33-2c-.42-.44-.66-1-1.48-1a48.24,48.24,0,0,0-5.37.34c-1.78.28-3.52.67-5.27,1.07s-3.67.57-5.5.9a.77.77,0,0,0-.91-.43l-1.07.22A51.86,51.86,0,0,0,165.45,122.79Zm46.16.61c0-.07.13-.13.06-.23s-.2-.08-.31,0a4.64,4.64,0,0,0-.77,1.26A2.31,2.31,0,0,0,211.61,123.4ZM193.87,81.22a1.85,1.85,0,0,0-1.58-.29,2.77,2.77,0,0,0-1.48.55.42.42,0,0,0-.47.28l-.72.59c-.46-.06-.6.15-.43.56a.94.94,0,0,0,.39.53.13.13,0,0,0,.09.15A.46.46,0,0,0,190,84a.2.2,0,0,0,.15.21,18.26,18.26,0,0,1,1.57,2.13.46.46,0,0,0,.59.23c.24-.1.1-.34.11-.52.05-.72.05-.72.82-.63a.48.48,0,0,0,.39.09.58.58,0,0,0,.6.11.52.52,0,0,0,.4.08,1,1,0,0,0,.8.12,1,1,0,0,0,.6.09l1.6.31a2.24,2.24,0,0,0,.73.39.56.56,0,0,0,.46.31,1.68,1.68,0,0,0,.73.5,2.31,2.31,0,0,0,2.84.31.56.56,0,0,0,.4-.12l.74-.07c.09.43.17.85.28,1.27a4.46,4.46,0,0,0,.62,1.76c.39.46.14.65-.21.83a10.72,10.72,0,0,0-2.34,1.67,1.06,1.06,0,0,0-.41,1.15,12,12,0,0,1,3-2.25,1.23,1.23,0,0,1,1.6.17,29.63,29.63,0,0,0,5,3.42,1.83,1.83,0,0,0,2.52-.93,2.93,2.93,0,0,0-.39-4.86,1.74,1.74,0,0,0-.83-.73,1.33,1.33,0,0,0-.58-.47.46.46,0,0,0-.42-.33A.52.52,0,0,0,211,88a.47.47,0,0,0-.45-.32.11.11,0,0,0-.13-.09c-.13-.3-.44-.4-.69-.54a27.84,27.84,0,0,0-5.15-2.28,5.74,5.74,0,0,0-2.64-.2,5.38,5.38,0,0,0-2,0,22,22,0,0,0-3,0,.55.55,0,0,0-.4-.06c-.41-.12-.82-.23-1.23-.36-.18-.05-.37-.09-.38-.36,0-.54-.38-1-.34-1.56s-.31-.59-.66-.7ZM204,102c-.09-.79-.15-1.58-.28-2.36s-.42-1-1.29-1a5,5,0,0,0-1.89-.07,1.07,1.07,0,0,0,.25.75c2.08,3.55,4.18,7.09,6.27,10.64,0,0,0,0,.08,0a.42.42,0,0,0,.15,0,8,8,0,0,0,.45-5.42c-.07-.37-.28-.49-.64-.39-.64.16-.91-.18-1.24-.7A4,4,0,0,0,204,102ZM192.41,87.31a2.77,2.77,0,0,0-.93-.2c-.08.36.14.56.26.78.85,1.5,1.72,3,2.56,4.49,1.15,2.05,2.4,4,3.46,6.15l-5.19.07c-1.33,0-2.66.06-4,.05-.44,0-.61.15-.57.57,0,.17,0,.34,0,.5,0,3.57.05,7.13-.05,10.69,0,1.3,0,2.6,0,3.9,0,.68,0,.68.66.67l12-.15a6.82,6.82,0,0,0,4.22-1.55c1-.8,1-.82.35-1.93l-3.54-6.26.2-1.32a3.51,3.51,0,0,1,.6.91q2.63,4.53,5.26,9.06c.1.17.13.46.48.42a2.31,2.31,0,0,0-.23-2q-7-12-14-24C193.54,87.54,193.14,87.18,192.41,87.31Zm22.49,3.16c-.1-.07-.21-.14-.29,0s0,.15.08.23a4.36,4.36,0,0,1-.19,3.67.64.64,0,0,0,.34,1,1.21,1.21,0,0,1,.65,1.5,16.08,16.08,0,0,1-.41,2,2,2,0,0,0,.55,2.27c.45.45.87.93,1.29,1.4s.84,1,1.29,1.52c-1.6-.15-3-1.24-4.65-1.4.2,1,.78,1.88.93,2.91a6.35,6.35,0,0,1-2-.79c-.2,1.12-.4,2.16-.57,3.21a2.12,2.12,0,0,0,0,.79,2.94,2.94,0,0,1-.09,1.76,2.71,2.71,0,0,0-.13.69.51.51,0,0,0,.53.66,12,12,0,0,1,1.68.27,27.3,27.3,0,0,0,4,.72,5,5,0,0,1,1.53.24c-.91.45-1.93.24-2.85.71.68.48,1.44.54,2,.93-.43.22-.9-.18-1.36.12.19.53.38,1,.55,1.52a13.35,13.35,0,0,1,.34,7.2c-.17.77-.13.79.57,1.12.12.06.25.09.37.14s.2.33-.1.37-.72-.13-1.12.08a6.82,6.82,0,0,0,.59,1.79A9.59,9.59,0,0,0,220,125a4.12,4.12,0,0,0,.77-1.5,17.42,17.42,0,0,1,2-4.13,21.68,21.68,0,0,0,2.83-7.83,12.76,12.76,0,0,0-.68-7.33c-.56-1.32-1.12-2.64-1.56-4A13.74,13.74,0,0,0,220.11,95a18.64,18.64,0,0,0-2.82-2.65c-.1-.1-.2-.27-.35-.1s0,.21.1.3c0,.37.35.66.22,1.2A12.63,12.63,0,0,0,214.9,90.47ZM255,115.09v.12h5.1a5.74,5.74,0,0,0,1.49-.13,8.73,8.73,0,0,0,5.87-4.89,6.91,6.91,0,0,0,.4-5.89,10.44,10.44,0,0,0-4.24-4.79,5.85,5.85,0,0,0-3-.86c-3.73,0-7.46,0-11.19,0-.76,0-.78,0-.78.77q-.06,7.35-.1,14.69c0,1,0,1,1,1C251.3,115.11,253.13,115.09,255,115.09Zm-29.2,7.81c-.19-.06-.26,0-.32.08a34.07,34.07,0,0,1-6.67,5.84c-.47.3-.29.56-.1.9q3.33,5.64,6.64,11.28c.1.16.14.38.45.36Zm-31-3.9h-3.09a1.65,1.65,0,0,0-.69.09c-.44.19-.51.37-.2.72a9.27,9.27,0,0,0,1,1,6.29,6.29,0,0,0,3.08,1.74A37.38,37.38,0,0,0,201,123a.87.87,0,0,0,.67-.36c.5-.54,1-1,1.52-1.58.22-.23.64-.42.54-.77s-.59-.34-.94-.42c-.06,0-.13,0-.19,0A64.49,64.49,0,0,0,194.76,119Zm13.71-19.88c0-.65,0-1.18,0-1.7a1.1,1.1,0,0,0-.71-1.19,6,6,0,0,1-2.29-1.72c-.21-.24-.41-.54-.84-.31s-.69.37-.61.89a6,6,0,0,1,.05,1.2.67.67,0,0,0,.7.78c.52,0,1.05.05,1.56.07a1.62,1.62,0,0,1-.07.83c-.18,1-.2,1,.77,1.37a1.23,1.23,0,0,1,.88,1c.18.73.38,1.45.58,2.17a4.67,4.67,0,0,0,1.18-4.75C209.18,98.11,209.16,98.86,208.47,99.12Z"/><path class="cls-1" d="M151.3,92.25c3.33,10.71,6.6,21.45,9.9,32.18a1.42,1.42,0,0,1,0,.2c-.69.38-1.39.75-2.07,1.14-.46.26-.18.38.11.48-.05,0-.08.11-.14.14L155,128.92a1,1,0,0,1-.86,0l-11-3.53c-1.89-.6-3.83-1.07-5.69-1.77a7.47,7.47,0,0,0-.42-1.54q-2-7-4.1-14.08c-.07-.23,0-.62-.45-.72-.36,1.13-.72,2.24-1.06,3.35-1.09,3.63-2.33,7.22-3.64,10.78l-4.63-.43a31.11,31.11,0,0,0-5.37-.31,6,6,0,0,0-4.09,1.6,2,2,0,0,0-.71,1.48,6.53,6.53,0,0,0,1.75,4.61,41.57,41.57,0,0,0,13.71,9.49c3.12,1.43,6.42,2.42,9.63,3.62s6.14,2.39,9.21,3.59c.52.2,1.05.37,1.62.57a.88.88,0,0,0-.25-.73Q144,138,139.26,131.18q-2.12-3.09-4.25-6.16a48.69,48.69,0,0,1,7.68,2.17c.15.3.27.61.44.9q5.79,9.51,11.57,19a1.88,1.88,0,0,0,1,.86c1.36.46,2.69,1,4,1.44.21.07.42.25.66.07a1.36,1.36,0,0,0-.28-.83c-2.41-4.71-4.84-9.41-7.24-14.12-.83-1.63-1.75-3.22-2.47-4.9.35.09.71.16,1.06.27,10.36,3.33,20.79,6.48,31.13,9.88,9.07,3,18.17,5.91,27.24,8.92,6.64,2.21,13.13,4.82,19.74,7.11,3,1.05,6.07,2,9.17,2.77,1.57.41,3.16.75,4.74,1.16a55.66,55.66,0,0,1-5.72.88,92.72,92.72,0,0,1-11,.95c-3.2,0-6.38-.11-9.57-.39-1.09-.1-2.19-.14-3.28-.29-3.62-.48-7.24-1-10.86-1.5a193.29,193.29,0,0,1-19.71-3.71c-4-1-7.91-2-11.78-2.49a13.39,13.39,0,0,0,1.75.68c2.7.91,5.48,1.55,8.23,2.31,2,.57,4.13,1.06,6.19,1.59,0,1.07-.06,2.13-.11,3.2,0,.86-.36,1.18-1.22,1.23-.2,0-.4,0-.6,0h-36c-.87,0-1-.11-1.28-.95-.47-1.42-.92-2.85-1.38-4.27-.56-1.71-1.12-3.42-1.7-5.12-.27-.82-.3-.85-1.11-.85-8,0-15.93,0-23.9,0a.83.83,0,0,0-1,.73c-.72,2.6-1.64,5.14-2.25,7.77a8.64,8.64,0,0,1-.57,1.49,1.61,1.61,0,0,1-1.66,1c-2.46,0-4.93,0-7.39.08-3.83.11-7.65.18-11.48.22-.7,0-1.4,0-2.09.08-1.29.11-1.92-.4-1.43-1.88,1.17-3.51,2.27-7,3.38-10.56q4.53-14.3,9-28.58,1.67-5.3,3.38-10.57c.16-.48.11-.71-.35-.93-.72-.35-1.42-.74-2.11-1.13a1.94,1.94,0,0,1-.79-.6.91.91,0,0,1,0-1.19.88.88,0,0,1,1.25-.16c.53.34,1,.72,1.56,1.09l1.1.74a6.77,6.77,0,0,0,.67-1.81c.3-.85.54-1.72.83-2.57a.75.75,0,0,0-.4-1c-1.9-1.11-3.77-2.26-5.66-3.39A9.8,9.8,0,0,1,103,98.7c-.58-.53-.65-.87-.33-1.49a1.53,1.53,0,0,1,1.7-.93,3.51,3.51,0,0,1,.89.44c1.82,1.12,3.45,2.51,5.17,3.76l.87.65c.45-.27.5-.71.63-1.12,1.64-5.28,3.27-10.56,4.93-15.83.44-1.4,1-2.77,1.46-4.15.32-.92.45-1,1.45-1q7.2,0,14.4,0c3.77,0,7.53,0,11.3,0,1.36,0,1.7.27,2.2,1.56Z"/><path class="cls-2" d="M187.74,157.77c-2.06-.53-4.14-1-6.19-1.59-2.75-.76-5.53-1.4-8.23-2.31a13.39,13.39,0,0,1-1.75-.68c3.87.53,7.82,1.54,11.78,2.49a193.29,193.29,0,0,0,19.71,3.71c3.62.48,7.24,1,10.86,1.5,1.09.15,2.19.19,3.28.29,3.19.28,6.37.39,9.57.39a92.72,92.72,0,0,0,11-.95,55.66,55.66,0,0,0,5.72-.88l.66.07c.22,0,.39,0,.41-.26.37-.15.61-.09.51.37a1.09,1.09,0,0,1-.66.7,14.08,14.08,0,0,1-2.49,1,14.27,14.27,0,0,0-2.18.72c-2,.4-4,.86-6,1.08a65.94,65.94,0,0,1-13.76.16,159.83,159.83,0,0,1-27-4.7A44.84,44.84,0,0,0,187.74,157.77Z"/><path class="cls-2" d="M159.28,126.25c-.29-.1-.57-.22-.11-.48.68-.39,1.38-.76,2.07-1.14l4.21-1.84a51.86,51.86,0,0,1,5-1.5l1.07-.22a.77.77,0,0,1,.91.43c-.19.06-.38.13-.57.17a49.64,49.64,0,0,0-9.38,3C161.42,125.18,160.35,125.73,159.28,126.25Z"/><path class="cls-1" d="M272.8,64.46a1,1,0,0,1-1.08.3A.78.78,0,0,1,272.8,64.46Z"/><path class="cls-1" d="M252,53.92c-.16,0-.35-.07-.34-.24s.21-.21.37-.22a.25.25,0,0,1,.29.19C252.29,53.84,252.12,53.89,252,53.92Z"/><path class="cls-3" d="M159.28,126.25c1.07-.52,2.14-1.07,3.23-1.54a49.64,49.64,0,0,1,9.38-3c.19,0,.38-.11.57-.17,1.83-.33,3.7-.48,5.5-.9s3.49-.79,5.27-1.07a48.24,48.24,0,0,1,5.37-.34c.82,0,1.06.54,1.48,1,.4.79.82,1.58,1.19,2.38a2.25,2.25,0,0,1,.32,1.52,33.75,33.75,0,0,0-5.84-.62,9.79,9.79,0,0,1-3.3-.7c-.25-.36,0-.6.19-.87s.61-.4.6-.91l-4.31.5c.09.45.62.42.61.91a14.36,14.36,0,0,0-4.46,1.23,46,46,0,0,1-6.66,2.11,1.08,1.08,0,0,0-.8.38,10.9,10.9,0,0,0,2.92-.08,32,32,0,0,0,6.6-.94c.34.11.33.27.05.46a15.91,15.91,0,0,1-5.62,2.46c-2.82.66-5.7.9-8.55,1.33a27.86,27.86,0,0,0-3.83,1c0,.33.27.3.44.37a20.89,20.89,0,0,1,3.17,1.11c.15.08.39,0,.59,0a6.33,6.33,0,0,0,2,.63c1.92.64,3.84,1.26,5.76,1.92,2.26.77,4.54,1.51,6.77,2.37a9.86,9.86,0,0,0,4.3.5,26.85,26.85,0,0,0,5.47-1.06,1.5,1.5,0,0,0,.53-.24c.12-.1,0-.23-.09-.31h0c-.09.16-.06.35.14.32a1.54,1.54,0,0,0,1.09-.51c.07.13.14.05.2,0a10,10,0,0,0,3.27-2.26c3.14-3.08,6.08-6.34,9-9.62.7-.78,1.4-1.57,2.08-2.37a20.15,20.15,0,0,1,2.69-2.34,21.26,21.26,0,0,0,2.82-2.2,16.27,16.27,0,0,0,1.76-3l.05-.08c.72-1.25.86-1.28,2.3-1.16a3.88,3.88,0,0,1,3.2,2.37,13.35,13.35,0,0,1,1,2.83.86.86,0,0,1-.08.76,8.9,8.9,0,0,1-2.35,2.54c-.07,0-.18,0-.43.09l1-2.95c.22-.17.24-.38,0-.55s-.36-.06-.48.14c-.33.25-.81.32-1,.78a.34.34,0,0,0-.18.45,7.36,7.36,0,0,1-.8,2,.35.35,0,0,0-.22.42,1.06,1.06,0,0,1-.35.58.32.32,0,0,0-.26.39c-.21.29-.42.58-.64.86s-.24.25-.41.14-.09-.28,0-.44c.11-.37.21-.75.31-1.13,0-.16,0-.32-.17-.35s-.22.07-.25.2a20.3,20.3,0,0,1-3.82,3.53.34.34,0,0,0-.38.3,1.51,1.51,0,0,1-.62.5.34.34,0,0,0-.38.3l-3.23,2.5a.33.33,0,0,0-.37.32,4.47,4.47,0,0,1-1.05.89.3.3,0,0,0-.35.28,1.74,1.74,0,0,1-.65.52.31.31,0,0,0-.35.29,1.49,1.49,0,0,1-.64.5.31.31,0,0,0-.36.28,4.81,4.81,0,0,1-1.22.93.32.32,0,0,0-.38.27c-2.16,1.66-4.25,3.42-6.55,4.87a8.59,8.59,0,0,1-4.59,1.55,26.88,26.88,0,0,0,3.93,1.36c.35.32.84.28,1.22.51.43.5,1.08.49,1.63.68A23.27,23.27,0,0,0,196.6,143c3,.92,5.85,2,8.76,3,6.32,2.3,12.68,4.48,19,6.65,3.56,1.21,7.09,2.49,10.66,3.66,2.15.71,4.34,1.29,6.52,1.91a10,10,0,0,1,3,1.29c0,.25-.19.29-.41.26l-.66-.07c-1.58-.41-3.17-.75-4.74-1.16-3.1-.81-6.16-1.72-9.17-2.77-6.61-2.29-13.1-4.9-19.74-7.11-9.07-3-18.17-5.93-27.24-8.92-10.34-3.4-20.77-6.55-31.13-9.88-.35-.11-.71-.18-1.06-.27a19.86,19.86,0,0,0-2.73-.91c-1.67-.52-3.32-1.14-5-1.53A48.69,48.69,0,0,0,135,125a44.86,44.86,0,0,0-4.81-1.28,40.93,40.93,0,0,0-14.53-1.27,4.54,4.54,0,0,1-1.64.16c0-.36.21-.42.4-.53a7.67,7.67,0,0,1,2.74-.89,37.12,37.12,0,0,1,6-.26l4.63.43c2.19.35,4.33,1,6.5,1.4,1.07.22,2.07.68,3.17.81,1.86.7,3.8,1.17,5.69,1.77l11,3.53a1,1,0,0,0,.86,0l4.17-2.53C159.2,126.36,159.23,126.3,159.28,126.25Z"/><path class="cls-3" d="M217.29,92.31A18.64,18.64,0,0,1,220.11,95a13.74,13.74,0,0,1,3.19,5.24c.44,1.36,1,2.68,1.56,4a12.76,12.76,0,0,1,.68,7.33,21.68,21.68,0,0,1-2.83,7.83,17.42,17.42,0,0,0-2,4.13A4.12,4.12,0,0,1,220,125l-.83-.16c-.12,0-.25-.08-.37-.14-.7-.33-.74-.35-.57-1.12a13.35,13.35,0,0,0-.34-7.2c-.17-.5-.36-1-.55-1.52.46-.3.93.1,1.36-.12-.59-.39-1.35-.45-2-.93.92-.47,1.94-.26,2.85-.71a5,5,0,0,0-1.53-.24,27.3,27.3,0,0,1-4-.72,12,12,0,0,0-1.68-.27.51.51,0,0,1-.53-.66,2.71,2.71,0,0,1,.13-.69,2.94,2.94,0,0,0,.09-1.76,2.12,2.12,0,0,1,0-.79c.17-1,.37-2.09.57-3.21a6.35,6.35,0,0,0,2,.79c-.15-1-.73-1.87-.93-2.91,1.68.16,3.05,1.25,4.65,1.4-.45-.53-.86-1-1.29-1.52s-.84-1-1.29-1.4a2,2,0,0,1-.55-2.27,16.08,16.08,0,0,0,.41-2,1.21,1.21,0,0,0-.65-1.5.64.64,0,0,1-.34-1,4.36,4.36,0,0,0,.19-3.67l.21-.23a12.63,12.63,0,0,1,2.36,3.24c.13-.54-.24-.83-.22-1.2Z"/><path class="cls-3" d="M193.62,85.53a.48.48,0,0,1-.39-.09,1.66,1.66,0,0,1,2.05-1.1c.43.1.83.46,1.3.14a.55.55,0,0,1,.4.06.52.52,0,0,0,.5.25h2.05a.49.49,0,0,0,.49-.25,5.38,5.38,0,0,1,2,0c.43.44,1,.19,1.48.25s1,0,1.15.63a6.68,6.68,0,0,0-1.87.33c1.43.34,2.95-.1,4.35.46a2.63,2.63,0,0,1,1.23.33,11.35,11.35,0,0,0,2.14,1,.11.11,0,0,1,.13.09A.35.35,0,0,0,211,88a.53.53,0,0,1,.35.27.35.35,0,0,0,.42.34,1.33,1.33,0,0,1,.58.47.87.87,0,0,0,.83.73,2.93,2.93,0,0,1,.39,4.86,3.53,3.53,0,0,1-1.34-1,22.21,22.21,0,0,0-5.85-4.08c-.16-.06-.39-.12-.31-.39.38-.26.89,0,1.36-.34a5.15,5.15,0,0,1-1.92-.76,3.23,3.23,0,0,0-2-.68c-.28-.06-.55-.08-.74.21a.56.56,0,0,1-.4.12,6.23,6.23,0,0,1-2.84-.31,1.68,1.68,0,0,1-.73-.5.35.35,0,0,0-.46-.31,2.24,2.24,0,0,1-.73-.39,1.43,1.43,0,0,0-1.6-.31,1,1,0,0,1-.6-.09.53.53,0,0,0-.8-.12.52.52,0,0,1-.4-.08A.36.36,0,0,0,193.62,85.53Z"/><path class="cls-3" d="M220.43,135.92c-.9-1.82-2-3.52-3-5.28-.39-.69-.38-.69.3-1.28a2.42,2.42,0,0,1,.51.72q3.78,6.34,7.54,12.7a41.3,41.3,0,0,1,2.25,3.86c.1.23.31.33.47.5a50.43,50.43,0,0,1,6.42,7.86,1.16,1.16,0,0,1,.28.63c-.16.24-.35.09-.53,0-1.8-.58-3.6-1.19-5.41-1.75a1,1,0,0,1-.76-.91c-.21-1.35-.47-2.69-.69-4a2.79,2.79,0,0,0-.26-.95c-1-1.74-2-3.56-3.1-5.24-.73-1.53-1.65-2.95-2.5-4.41A17.52,17.52,0,0,0,220.43,135.92Z"/><path class="cls-3" d="M194.76,119a64.49,64.49,0,0,1,7.84.81c.06,0,.13,0,.19,0,.35.08.82,0,.94.42s-.32.54-.54.77c-.49.54-1,1-1.52,1.58a.87.87,0,0,1-.67.36,37.38,37.38,0,0,1-6.16-.42,6.29,6.29,0,0,1-3.08-1.74,9.27,9.27,0,0,1-1-1c-.31-.35-.24-.53.2-.72a1.65,1.65,0,0,1,.69-.09Z"/><path class="cls-2" d="M203.52,87.42a3.23,3.23,0,0,1,2,.68,5.15,5.15,0,0,0,1.92.76c-.47.35-1,.08-1.36.34-.08.27.15.33.31.39a22.21,22.21,0,0,1,5.85,4.08,3.53,3.53,0,0,0,1.34,1,1.83,1.83,0,0,1-2.52.93,29.63,29.63,0,0,1-5-3.42,1.23,1.23,0,0,0-1.6-.17,12,12,0,0,0-3,2.25,1.06,1.06,0,0,1,.41-1.15,10.72,10.72,0,0,1,2.34-1.67c.35-.18.6-.37.21-.83a4.46,4.46,0,0,1-.62-1.76c-.11-.42-.19-.84-.28-1.27A.12.12,0,0,0,203.52,87.42Z"/><path class="cls-3" d="M192.41,87.31c.73-.13,1.13.23,1.49.84q7,12,14,24a2.31,2.31,0,0,1,.23,2c-.35,0-.38-.25-.48-.42q-2.64-4.53-5.26-9.06a3.51,3.51,0,0,0-.6-.91,3.19,3.19,0,0,0-.48-1l-3.81-6.57Q195,91.77,192.41,87.31Z"/><path class="cls-2" d="M177.14,125.08a32,32,0,0,1-6.6.94,10.9,10.9,0,0,1-2.92.08,1.08,1.08,0,0,1,.8-.38,46,46,0,0,0,6.66-2.11,14.36,14.36,0,0,1,4.46-1.23c0-.49-.52-.46-.61-.91l4.31-.5c0,.51-.38.66-.6.91s-.44.51-.19.87c-1.45.62-2.94,1.12-4.37,1.81A4.32,4.32,0,0,0,177.14,125.08Z"/><path class="cls-2" d="M214.28,132.38l-.94.88c-1.34,1.22-3,1.3-4.68,1.27a21.08,21.08,0,0,1-5.78-1,10.6,10.6,0,0,1,1.46-1,1,1,0,0,1,.76-.16c.49.06,1,.08,1.48.17a10.55,10.55,0,0,0,7.59-1.61c.53-.33.8-1,1.45-1.14.18.4-.37.63-.23,1l0,0c-.15,0-.21.14-.31.22,0,.33-.32.48-.5.69S214.24,132.08,214.28,132.38Z"/><path class="cls-3" d="M208.47,99.12c.69-.26.71-1,1.21-1.39a4.67,4.67,0,0,1-1.18,4.75c-.2-.72-.4-1.44-.58-2.17a1.23,1.23,0,0,0-.88-1c-1-.32-.95-.36-.77-1.37a1.62,1.62,0,0,0,.07-.83c-.51,0-1,0-1.56-.07a.67.67,0,0,1-.7-.78,6,6,0,0,0-.05-1.2c-.08-.52.24-.69.61-.89s.63.07.84.31a6,6,0,0,0,2.29,1.72,1.1,1.1,0,0,1,.71,1.19C208.45,97.94,208.47,98.47,208.47,99.12Z"/><path class="cls-2" d="M192.41,87.31q2.57,4.45,5.14,8.91l3.81,6.57a3.19,3.19,0,0,1,.48,1c-.06.44-.13.88-.2,1.32l-3.29-5.65c-.18-.31-.39-.61-.59-.91-1.06-2.11-2.31-4.1-3.46-6.15-.84-1.51-1.71-3-2.56-4.49-.12-.22-.34-.42-.26-.78A2.77,2.77,0,0,1,192.41,87.31Z"/><path class="cls-2" d="M191.59,124.07a2.25,2.25,0,0,0-.32-1.52c-.37-.8-.79-1.59-1.19-2.38a4.69,4.69,0,0,1,1.33,2,7.68,7.68,0,0,1,.9,4.91c-.12.89-.13.91.72,1.23.68.26,1.38.49,2.07.72.29.1.37.23.21.52a1.4,1.4,0,0,1-1.93.82l-3.18-.87c-.25-.07-.54-.06-.72-.31,1.86-.78,2.45-1.49,2.26-4C191.71,124.8,191.64,124.43,191.59,124.07Z"/><path class="cls-3" d="M196.58,84.48c-.47.32-.87,0-1.3-.14a1.66,1.66,0,0,0-2.05,1.1c-.77-.09-.77-.09-.82.63,0,.18.13.42-.11.52a.46.46,0,0,1-.59-.23,18.26,18.26,0,0,0-1.57-2.13c.57.07.85-.31,1-.74a2.12,2.12,0,0,1,2-1.13c.28,0,.56.21.88,0a2.16,2.16,0,0,1-.12-.87c.35.11.69.23.66.7s.33,1,.34,1.56c0,.27.2.31.38.36C195.76,84.25,196.17,84.36,196.58,84.48Z"/><path class="cls-2" d="M220.43,135.92a17.52,17.52,0,0,1,1.51,2.45c.85,1.46,1.77,2.88,2.5,4.41-.14.5,0,1.05-.21,1.53-1.18-1.68-2.08-3.52-3.14-5.27a7.31,7.31,0,0,1-.84-1.56C220.39,137,220.22,136.42,220.43,135.92Z"/><path class="cls-2" d="M199.23,135.39c-1.69,1-3.43,1.89-5.2,2.73l-.89.44a2.32,2.32,0,0,0-1.55,2.59c-.38-.23-.87-.19-1.22-.51.25-.5.49-1,.73-1.52a2.6,2.6,0,0,1,1.56-1.16q2.09-.93,4.22-1.78A9.3,9.3,0,0,1,199.23,135.39Z"/><path class="cls-3" d="M194,81.5a2.16,2.16,0,0,0,.12.87c-.32.2-.6,0-.88,0a2.12,2.12,0,0,0-2,1.13c-.19.43-.47.81-1,.74A.2.2,0,0,1,190,84a.35.35,0,0,0-.32-.43.13.13,0,0,1-.09-.15c0-.37-.3-.74,0-1.09l.72-.59a.36.36,0,0,0,.47-.28,2.77,2.77,0,0,1,1.48-.55,3.73,3.73,0,0,0,1.58.29Z"/><path class="cls-3" d="M210.46,87.57a11.35,11.35,0,0,1-2.14-1,2.63,2.63,0,0,0-1.23-.33,15.23,15.23,0,0,0-2.48-.79c-.14-.66-.68-.57-1.15-.63s-1.05.19-1.48-.25a5.74,5.74,0,0,1,2.64.2A27.84,27.84,0,0,1,209.77,87C210,87.17,210.33,87.27,210.46,87.57Z"/><path class="cls-3" d="M215.39,130.81c-.14-.38.41-.61.23-1l0,0c.4-.09.41-.41.46-.71a5,5,0,0,0,.74-1.4,7.86,7.86,0,0,1,.63-1.31,2.47,2.47,0,0,1-.27,2.56A11.92,11.92,0,0,1,215.39,130.81Z"/><path class="cls-2" d="M204,102c-.52.25-.63-.12-.7-.49-.13-.6-.23-1.22-.35-1.83a1.91,1.91,0,0,0-.52-1c.87,0,1.17.22,1.29,1S203.94,101.23,204,102Z"/><path class="cls-3" d="M219.14,124.83l.83.16a9.59,9.59,0,0,1-1.46,2.08,6.82,6.82,0,0,1-.59-1.79c.4-.21.77,0,1.12-.08S219.15,125,219.14,124.83Z"/><path class="cls-3" d="M200,84.53a.49.49,0,0,1-.49.25h-2.05a.52.52,0,0,1-.5-.25A22,22,0,0,1,200,84.53Z"/><path class="cls-3" d="M199.54,87.44a6.23,6.23,0,0,0,2.84.31A2.31,2.31,0,0,1,199.54,87.44Z"/><path class="cls-3" d="M211.61,123.4a2.31,2.31,0,0,1-1,1,4.64,4.64,0,0,1,.77-1.26Z"/><path class="cls-3" d="M193.87,81.22a3.73,3.73,0,0,1-1.58-.29A1.85,1.85,0,0,1,193.87,81.22Z"/><path class="cls-3" d="M196,85.93a1.43,1.43,0,0,1,1.6.31Z"/><path class="cls-3" d="M189.62,82.35c-.34.35,0,.72,0,1.09a.94.94,0,0,1-.39-.53C189,82.5,189.16,82.29,189.62,82.35Z"/><path class="cls-3" d="M213.22,89.79a.87.87,0,0,1-.83-.73A1.74,1.74,0,0,1,213.22,89.79Z"/><path class="cls-3" d="M194.62,85.72a.53.53,0,0,1,.8.12A1,1,0,0,1,194.62,85.72Z"/><path class="cls-4" d="M215.38,117.6c.12-.2.31-.27.48-.14s.2.38,0,.55A.5.5,0,0,0,215.38,117.6Z"/><path class="cls-3" d="M193.62,85.53a.36.36,0,0,1,.6.11A.58.58,0,0,1,193.62,85.53Z"/><path class="cls-3" d="M203.52,87.42a.12.12,0,0,1,0,.14l-.74.07C203,87.34,203.24,87.36,203.52,87.42Z"/><path class="cls-4" d="M213.2,121.2a.35.35,0,0,1,.22-.42A.35.35,0,0,1,213.2,121.2Z"/><path class="cls-4" d="M202.58,128.9a.33.33,0,0,1,.37-.32A.39.39,0,0,1,202.58,128.9Z"/><path class="cls-2" d="M216.06,129.11c-.05.3-.06.62-.46.71C215.56,129.45,215.88,129.32,216.06,129.11Z"/><path class="cls-4" d="M211.38,121.45c0-.13.11-.23.25-.2s.21.19.17.35A.5.5,0,0,0,211.38,121.45Z"/><path class="cls-4" d="M201.18,130.07a.3.3,0,0,1,.35-.28A.32.32,0,0,1,201.18,130.07Z"/><path class="cls-4" d="M212.59,122.17a.32.32,0,0,1,.26-.39A.37.37,0,0,1,212.59,122.17Z"/><path class="cls-4" d="M206.18,126.08a.34.34,0,0,1,.38-.3A.41.41,0,0,1,206.18,126.08Z"/><path class="cls-4" d="M200.18,130.88a.31.31,0,0,1,.35-.29A.35.35,0,0,1,200.18,130.88Z"/><path class="cls-3" d="M190.81,81.48a.36.36,0,0,1-.47.28A.42.42,0,0,1,190.81,81.48Z"/><path class="cls-3" d="M211.81,88.59a.35.35,0,0,1-.42-.34A.49.49,0,0,1,211.81,88.59Z"/><path class="cls-4" d="M199.18,131.66a.31.31,0,0,1,.36-.28A.35.35,0,0,1,199.18,131.66Z"/><path class="cls-4" d="M197.58,132.86a.32.32,0,0,1,.38-.27A.37.37,0,0,1,197.58,132.86Z"/><path class="cls-3" d="M189.67,83.59A.35.35,0,0,1,190,84,.46.46,0,0,1,189.67,83.59Z"/><path class="cls-3" d="M198.35,86.63a.35.35,0,0,1,.46.31A.56.56,0,0,1,198.35,86.63Z"/><path class="cls-4" d="M207.18,125.28a.34.34,0,0,1,.38-.3A.39.39,0,0,1,207.18,125.28Z"/><path class="cls-4" d="M214.22,118.83a.34.34,0,0,1,.18-.45A.38.38,0,0,1,214.22,118.83Z"/><path class="cls-3" d="M211,88a.35.35,0,0,1-.45-.32A.47.47,0,0,1,211,88Z"/><path class="cls-3" d="M214.69,90.7c0-.08-.1-.18-.08-.23s.19-.07.29,0Z"/><path class="cls-3" d="M211.61,123.4l-.25-.25c.11-.06.22-.13.31,0S211.63,123.33,211.61,123.4Z"/><path class="cls-3" d="M217,92.51c-.07-.09-.19-.21-.1-.3s.25,0,.35.1Z"/><path class="cls-4" d="M215.1,131c.1-.08.16-.22.31-.22A.28.28,0,0,1,215.1,131Z"/><path class="cls-2" d="M123.13,121a37.12,37.12,0,0,0-6,.26,7.67,7.67,0,0,0-2.74.89c-.19.11-.45.17-.4.53a4.54,4.54,0,0,0,1.64-.16,40.93,40.93,0,0,1,14.53,1.27A44.86,44.86,0,0,1,135,125q2.13,3.08,4.25,6.16,4.69,6.84,9.37,13.69a.88.88,0,0,1,.25.73c-.57-.2-1.1-.37-1.62-.57-3.07-1.2-6.13-2.43-9.21-3.59s-6.51-2.19-9.63-3.62a41.57,41.57,0,0,1-13.71-9.49,6.53,6.53,0,0,1-1.75-4.61,2,2,0,0,1,.71-1.48,6,6,0,0,1,4.09-1.6A31.11,31.11,0,0,1,123.13,121Z"/><path class="cls-2" d="M142.69,127.19c1.71.39,3.36,1,5,1.53a19.86,19.86,0,0,1,2.73.91c.72,1.68,1.64,3.27,2.47,4.9,2.4,4.71,4.83,9.41,7.24,14.12a1.36,1.36,0,0,1,.28.83c-.24.18-.45,0-.66-.07-1.35-.48-2.68-1-4-1.44a1.88,1.88,0,0,1-1-.86q-5.77-9.53-11.57-19C143,127.8,142.84,127.49,142.69,127.19Z"/><path class="cls-1" d="M188.08,135.6l.88-.33c.16-.06.3-.06.35.14a1.54,1.54,0,0,1-1.09.51C188,136,188,135.76,188.08,135.6Z"/><path class="cls-1" d="M204.61,85.43a15.23,15.23,0,0,1,2.48.79c-1.4-.56-2.92-.12-4.35-.46A6.68,6.68,0,0,1,204.61,85.43Z"/><path class="cls-1" d="M195,83.59c-.63-.75-1.13-.75-2.3-.67a1,1,0,0,0-.84.62c-.15.37.36.42.41.71,0,.06-.1.16-.13.16-1-.1-.9,0-1,1.3-.32-.38-.88-.16-1-.78.48,0,.54-.55.73-.93a2.52,2.52,0,0,1,3.1-1.55c.28-.31.07-.67.14-1,.66.23.85.46.73,1.27C194.77,83.06,195,83.25,195,83.59Z"/><path class="cls-1" d="M195,84.21c.38-.06,1.57.36,2,.06-.47-.13-1.18,0-1.65-.18-.29-.08-.23-.24-.14-.43a3,3,0,0,0-2.23,1.08,1.89,1.89,0,0,0-.35,1.48c.15-.18.24-.83.53-.67A2.37,2.37,0,0,1,195,84.21Z"/></svg>