<svg id="frames" xmlns="http://www.w3.org/2000/svg" viewBox="0 0 384 216"><defs><style>.cls-1{fill:#101c34;}.cls-2{fill:#fbfbfb;}.cls-3{fill:#fd0908;}</style></defs><path class="cls-1" d="M260.87,121.75c-.07-.11-.18-.2-.17-.35a1.59,1.59,0,0,0-.92-1.44,3.82,3.82,0,0,0-1.48-.56,11.36,11.36,0,0,0-6.29.47c-2.16.87-4.36,1.64-6.56,2.41-1.82.63-3.67,1.19-5.51,1.78-.22.07-.45.11-.69.17.26-.65.92-.77,1.38-1.06,4.25-2.68,8.42-5.5,12.63-8.24,1.56-1,3.1-2.08,4.65-3.12a7.68,7.68,0,0,1,2.7-1.26,4,4,0,0,1,.58-.12c.33,0,.74-.05.88.31s-.22.52-.44.71a18,18,0,0,1-3.06,2.06c-.86.5-1.73,1-2.61,1.47.2.32.45.2.66.21,1,0,1.94,0,2.9.06,3.32.32,7-2.32,8.18-5.61a7.33,7.33,0,0,0,.44-1.67l-2.64,1.09c-.33.12-.76.5-1,.14s.33-.57.59-.77c.85-.65,1.72-1.26,2.59-1.88.66-.48.69-.53.47-1.33a9.11,9.11,0,0,0-1.78-3.33c-.16-.2-.4-.35-.44-.63s.23-.24.38-.32a24.79,24.79,0,0,0,8-6.64,6.1,6.1,0,0,0,1.22-2.39,2.17,2.17,0,0,0-.13-1.46,1.45,1.45,0,0,0-1.31-.89A3.32,3.32,0,0,0,271,91.32c-.75,1-1.56,2-2.37,3a23,23,0,0,1-6.26,5.07,30.33,30.33,0,0,1-5.9,2.79c-.08,0-.18,0-.4,0,.48-.35.86-.65,1.27-.9a48.54,48.54,0,0,0,5.08-3.71,6.08,6.08,0,0,0,2.05-3.78,1.67,1.67,0,0,0,0-.59.58.58,0,0,0-1-.31,6.36,6.36,0,0,0-.56.7c-1,1.37-2,2.75-3.09,4a2.73,2.73,0,0,1-2.16,1c-2.93,0-5.86,0-8.79,0-.09-.36.21-.4.38-.51,1.63-1.09,3.25-2.21,4.91-3.25a15.15,15.15,0,0,0,4.29-4.41,5.86,5.86,0,0,0,1-3.12,1.74,1.74,0,0,0-1.94-2,20.74,20.74,0,0,0-6,1c-1.69.49-3.37,1.05-5,1.68a3.75,3.75,0,0,1-1,.32c1.15-.71,2.38-1.48,3.66-2.18,1.13-.62,2.15-1.47,3.29-2.09,1.36-.74,2.57-1.71,3.94-2.44.83-.45,1.59-1,2.38-1.53a3.21,3.21,0,0,1,1.71-.69,47.86,47.86,0,0,1,8.46.36A26,26,0,0,1,277.91,83c.2.12.43.18.62.31a.8.8,0,0,0,1,0,43.88,43.88,0,0,1,4.32-2.57,17.84,17.84,0,0,1,4.54-2,2.92,2.92,0,0,1,2.49.3c.65.44.68.66.15,1.24a12.27,12.27,0,0,1-2.87,2.14,31.59,31.59,0,0,1-6.1,2.83.39.39,0,0,0-.33.29,5.61,5.61,0,0,0,1.23,1.2A17.26,17.26,0,0,1,286.05,90a23.88,23.88,0,0,1,3.11,5.27c.11.27.24.37.5.36,1.25-.06,1.76.72,2,1.78a9,9,0,0,1,.33,2.07,37.92,37.92,0,0,1-.4,7.67c-.23,1.27-.29,2.57-.53,3.84a27.2,27.2,0,0,1-6.73,13.5,26.81,26.81,0,0,1-14.83,8.36,1.62,1.62,0,0,1-1.26,0c0-.39-.32-.7-.27-1.1a33.91,33.91,0,0,0,5.66-1.9c3.89-1.62,7.21-3.94,9.19-7.86A10.67,10.67,0,0,0,284,118a1.3,1.3,0,0,0-1-1.5,4.33,4.33,0,0,0-1.07-.22,4.21,4.21,0,0,0-3.64,1.51c-1,1.14-2,2.3-3.12,3.36a25.3,25.3,0,0,1-9.31,5.64.1.1,0,0,0,0-.12c1.31-.83,2.63-1.65,3.93-2.49a4.51,4.51,0,0,0,1.51-1.56c.56-1,.35-1.43-.78-1.67a3.93,3.93,0,0,0-3,.63c-1.23.79-2.43,1.63-3.71,2.33-.33-.42-.68-.82-1-1.27A1.72,1.72,0,0,0,260.87,121.75Z"/><path class="cls-1" d="M262.37,166.62a33.68,33.68,0,0,0,3.73,3,34.91,34.91,0,0,1,3.83,3,3.88,3.88,0,0,0,.62.52,74.13,74.13,0,0,1,6.83,5.67,22.88,22.88,0,0,0,4.22,2.66c1.06.56,2.13,1.09,3.19,1.64.21.11.4.24.6.36s.23.16.21.31-.21.22-.37.27a1.4,1.4,0,0,1-1.16-.13,7.45,7.45,0,0,0-2.36-.93c-1.06-.42-2-1-3.1-1.39a1.69,1.69,0,0,0-.37-.15c-1.81-.35-3-1.75-4.41-2.72-.67-.46-1.26-1-1.94-1.5s-.95-1.09-1.57-1.5c-.85-.56-1.64-1.2-2.48-1.76s-1.71-1.51-2.7-2.12a46.28,46.28,0,0,1-4.07-3c-1-.76-1.95-1.52-2.88-2.32a1.17,1.17,0,0,0-1.28-.23,6,6,0,0,1-2.21.56,13.08,13.08,0,0,0-2.26.16,52.6,52.6,0,0,1-13-.11,65.2,65.2,0,0,1-6.44-1.35c-2.52-.61-5-1.35-7.47-2.16a77.24,77.24,0,0,1-9.76-3.51,43.51,43.51,0,0,1-6.43-4c-.83-.6-1.44-1.43-2.3-2-.35-.23-.28-.61-.09-1a3.77,3.77,0,0,0,.64-1.32.4.4,0,0,1,.34-.14,44.69,44.69,0,0,1,11.14.65c3.49.64,6.94,1.55,10.37,2.48,2.72.75,5.46,1.44,8.19,2.17,3.63,1,7.14,2.34,10.72,3.46,1.65.52,3.24,1.19,4.84,1.83a20.25,20.25,0,0,0,4.64,1.55.93.93,0,0,0,1.11.08l6.56-2.6a11.15,11.15,0,0,1,2,1.14c-1.23.64-2.56,1-3.84,1.58a17.29,17.29,0,0,0-2.27,1c-.42,0-.72.31-1.32.32A20,20,0,0,0,262.37,166.62Z"/><path class="cls-1" d="M248.56,104.33c0,1.44,0,2.77,0,4.1,0,.53-.33.66-.69.84-1.85.92-3.72,1.8-5.54,2.78a62.6,62.6,0,0,1-9.06,4c-1.13.39-2.21.91-3.31,1.37a13.26,13.26,0,0,1-3.1.7c-.34,0-.51-.09-.46-.46a1.33,1.33,0,0,1,.3-.71,22.19,22.19,0,0,1,3.43-3.35c1.32-1,2.61-2.06,3.84-3.19a11.88,11.88,0,0,1,1.75-1.39,13.55,13.55,0,0,0,1.57-1.36c.71-.62,1.46-1.22,2.16-1.87s1.27-1,1.85-1.59c1.13-1.09,2.59-1.73,3.71-2.82A2.1,2.1,0,0,1,247,101c.49.08.73,1.16.4,1.64a3.42,3.42,0,0,1-.57.57,47.27,47.27,0,0,1-4.85,3.84,17,17,0,0,0-2,1.63.94.94,0,0,0,1-.11c1-.55,2-1.11,2.95-1.68,1.21-.71,2.4-1.44,3.61-2.15A2.1,2.1,0,0,1,248.56,104.33Z"/><path class="cls-2" d="M268,131.8c-.05.4.27.71.27,1.1-.25.94-.65,1.12-1.48.69-.26-.13-.43-.44-.77-.39-.62-.2-1.13-.68-1.82-.71a.36.36,0,0,0-.26-.26,19.28,19.28,0,0,1-4.54-1.65c-1.74-.78-3.48-1.58-5.22-2.38-.66-.41-1.28-1-2.16-.7,0-.48-.38-.57-.69-.75-1.12-.63-2.26-1.24-3.38-1.9a8.89,8.89,0,0,1-1.73-1.3,2.06,2.06,0,0,1,1.51,0,40.59,40.59,0,0,1,6.87,2.59,1.23,1.23,0,0,0,.39,0,5,5,0,0,0,2.19.91c.11.28.38.37.61.47,1.42.65,2.83,1.29,4.26,1.91.25.12.58.36.83.14s.12-.62,0-.94a.64.64,0,0,0-.08-.19,28.55,28.55,0,0,0-1.9-3.12,20.89,20.89,0,0,1-.94-2.17c-.53-1.08-.43-1.25.87-1.46a1.72,1.72,0,0,1,1.95.84c.29.45.64.85,1,1.27.55.85,1.1,1.7,1.66,2.55a.45.45,0,0,0,.42.21.1.1,0,0,1,0,.12A38.91,38.91,0,0,0,268,131.8Z"/><path class="cls-2" d="M257.8,163.59a20.25,20.25,0,0,1-4.64-1.55c-1.6-.64-3.19-1.31-4.84-1.83-3.58-1.12-7.09-2.49-10.72-3.46-2.73-.73-5.47-1.42-8.19-2.17-3.43-.93-6.88-1.84-10.37-2.48a44.69,44.69,0,0,0-11.14-.65.4.4,0,0,0-.34.14c-.2-.07-.38-.17-.29-.43s.22-.64.61-.72a16.09,16.09,0,0,1,2.25-.4c1.6-.06,3.2-.07,4.8,0a44,44,0,0,1,8,1.35c6.24,1.47,12.39,3.28,18.55,5.09A96,96,0,0,1,251.58,160c1.86.78,3.65,1.74,5.45,2.65C257.39,162.83,257.85,163,257.8,163.59Z"/><path class="cls-3" d="M267.49,162.21a11.15,11.15,0,0,0-2-1.14c-.17-.37-.54-.48-.87-.62a22.75,22.75,0,0,0-3.74-1.4,1.16,1.16,0,0,1-.26-.15c.27-.42.71-.35,1.09-.38a6.76,6.76,0,0,1,1.79.17l5.07,1.11,2.09,1a39.39,39.39,0,0,0,3.75,2.23c3.08,1.83,6.12,3.73,9.05,5.78,1.39,1,2.79,1.94,4.17,2.93a8.52,8.52,0,0,1,1.19,1.05c.3.32.21.67-.19.75a1.69,1.69,0,0,1-1.44-.12c-2.74-2.15-5.94-3.53-8.93-5.24-3.29-1.9-6.62-3.72-9.94-5.58C268,162.44,267.76,162.33,267.49,162.21Z"/><path class="cls-2" d="M251.6,140a4.91,4.91,0,0,0,2.22-.19,6.23,6.23,0,0,1,3.15,0c.16,0,.32.08.47.14s.51.24.51.55-.24.47-.5.55a4.37,4.37,0,0,1-1.15.31c-.93,0-1.85.22-2.78.26-1.55.08-3.1.29-4.65.46-.85.09-1.7.22-2.56.32a4.7,4.7,0,0,0-2.2.85c-2.86,2-5.6,4.26-8.35,6.46a11.38,11.38,0,0,1-2.62,1.83c-.22-.55.2-.78.48-1,.57-.45,1.09-1,1.64-1.45,1.64-1.41,3.19-2.91,4.76-4.39a10.29,10.29,0,0,1,2-1.5,12.28,12.28,0,0,0,2.48-1.49,1.52,1.52,0,0,1,1-.31c.26,0,.55.07.72-.22.29,0,.59,0,.88-.09A30.45,30.45,0,0,0,251.6,140Z"/><path class="cls-1" d="M251.6,140a30.45,30.45,0,0,1-4.51,1.06c-.29,0-.59.06-.88.09a56.73,56.73,0,0,1,9.26-5.7,11.57,11.57,0,0,1,3-1,2.57,2.57,0,0,1,2,.38.52.52,0,0,1,.15.84,5.45,5.45,0,0,1-1.13,1.12,9.28,9.28,0,0,1-2.76,1.38c-1.43.46-2.85.94-4.27,1.43A1.91,1.91,0,0,0,251.6,140Z"/><path class="cls-1" d="M201.4,76c0-.51.36-.65.56-.8.88-.65,1.59-1.49,2.39-2.21a22.53,22.53,0,0,0,2.86-2.59,20.86,20.86,0,0,1,2.15-1.92,7.61,7.61,0,0,1,1.42-1.18,2.54,2.54,0,0,1,1.64-.32c.81.09,1.11.59.78,1.32a4.5,4.5,0,0,1-1.44,1.77,48.12,48.12,0,0,1-5.23,3.32c-.89.49-1.75,1-2.65,1.5S202.29,75.6,201.4,76Z"/><path class="cls-1" d="M270.64,160.78l-2.09-1c3-1.67,6.23-3,9.39-4.4a13,13,0,0,1,4.72-1.15c.67,0,1.33-.15,2-.22.32,0,.67-.13.91.25-.26.42-.72.42-1.12.54-1.64.51-3.31,1-4.9,1.63-2.46,1-4.87,2.22-7.24,3.46Z"/><path class="cls-1" d="M255.5,72c.36,0,.94,0,1.12.48s-.29.77-.59,1.08a9.61,9.61,0,0,1-3.21,1.91c-1.47.65-2.95,1.32-4.46,1.85-1.34.47-2.62,1.11-4,1.45-.18,0-.43.2-.53,0s0-.41.28-.54c.42-.23.81-.53,1.22-.77,2.19-1.28,4.31-2.69,6.44-4.07A6.81,6.81,0,0,1,255.5,72Z"/><path class="cls-1" d="M152.79,77.05c.25-.89,1-1,1.44-1.36a20.37,20.37,0,0,1,3.84-2.59c1.09-.63,2.19-1.25,3.31-1.83A4.56,4.56,0,0,1,164,70.8a2,2,0,0,1,.76.23c.45.26.52.49.18.86A5,5,0,0,1,163,73.24c-2.25.85-4.49,1.71-6.74,2.55C155.16,76.2,154.06,76.59,152.79,77.05Z"/><path class="cls-2" d="M261,155.46a4.76,4.76,0,0,1-1.33-1.17c-1.19-1.3-2.36-2.61-3.54-3.92l-.14-.14c-1.1-1.14-1.08-1.25-.18-2.5.77-1.08,1.49-2.2,2.22-3.32a5.6,5.6,0,0,1,.8-.89,1,1,0,0,1,.71-.31c.61,0,.84.23.57.78-.4.8-.86,1.58-1.32,2.35a22,22,0,0,1-1.34,2.1,1.15,1.15,0,0,0,.07,1.6c.93,1.26,1.92,2.47,2.74,3.81A3.83,3.83,0,0,1,261,155.46Z"/><path class="cls-1" d="M169.75,80.94a1.18,1.18,0,0,1-.4.65,14.64,14.64,0,0,1-2.09,1.85c-1.54,1.13-3.1,2.22-4.65,3.33l-1.42,1.06c-.17.12-.39.17-.53,0s.05-.31.17-.42l2.61-2.59a27,27,0,0,1,4.07-3.55,3.19,3.19,0,0,1,1.83-.64C169.54,80.61,169.74,80.65,169.75,80.94Z"/><path class="cls-1" d="M189.05,94.43a22.89,22.89,0,0,1,2.46-1.88c1-.69,1.93-1.43,2.9-2.13a6.44,6.44,0,0,1,3-1.28,2.41,2.41,0,0,1,.6,0c.36.07.43.29.2.57a5.41,5.41,0,0,1-1.7,1.36c-2.16,1.17-4.37,2.25-6.57,3.34A.7.7,0,0,1,189.05,94.43Z"/><path class="cls-3" d="M112.19,113.47a11.43,11.43,0,0,1-3.43-1.12c-1.08-.39-2.16-.8-3.22-1.25a4.27,4.27,0,0,1-1.92-1.15c-.37-.48-.28-.75.32-.88a3,3,0,0,1,1.48.14,9.82,9.82,0,0,1,3.13,1.45C109.74,111.54,110.9,112.47,112.19,113.47Z"/><path class="cls-1" d="M163,104.75a6.85,6.85,0,0,1,1.9-1.46,31.66,31.66,0,0,1,6.2-3,5.39,5.39,0,0,1,1.06-.22.48.48,0,0,1,.53.19c.12.23-.1.35-.22.49a4.68,4.68,0,0,1-1.71,1.16c-2.38,1-4.76,2-7.23,2.85A.58.58,0,0,1,163,104.75Z"/><path class="cls-1" d="M190.18,105.62a2.79,2.79,0,0,1,.39.1c.35.14.48.36.18.66a6.62,6.62,0,0,1-1.26,1.12c-1.6.85-3.12,1.82-4.79,2.53a18.65,18.65,0,0,0-1.64.89c-.2.11-.48.23-.6,0s0-.42.26-.58c1.31-1,2.66-1.86,3.91-2.88a11.3,11.3,0,0,1,2.5-1.52A2.54,2.54,0,0,1,190.18,105.62Z"/><path class="cls-2" d="M262.37,166.62a20,20,0,0,1-2.31-1.56c.6,0,.9-.34,1.32-.32a6,6,0,0,0,2.36.62c2,.31,3.91.71,5.85,1.11.26.05.72,0,.66.43s-.47.28-.76.29a19.29,19.29,0,0,1-4.55-.43A11.67,11.67,0,0,0,262.37,166.62Z"/><path class="cls-1" d="M132.17,73.78a.92.92,0,0,1,.29-.77c1-1.38,2-2.81,3.1-4.15a10.64,10.64,0,0,1,1.85-2.17,2.09,2.09,0,0,1,1.15-.47c.23,0,.49,0,.61.23s0,.38-.14.54a9.37,9.37,0,0,1-1.37,1.7Z"/><path class="cls-1" d="M257.18,127.11a5,5,0,0,1-2.19-.91,27.55,27.55,0,0,0,4-2.29c.33-.25.5-.74,1-.7a20.89,20.89,0,0,0,.94,2.17Z"/><path class="cls-1" d="M252,127.5c.88-.27,1.5.29,2.16.7a16.68,16.68,0,0,1-4.21,1.17c-1.73.35-3.48.65-5.34,1a2.21,2.21,0,0,1,1.41-.73,41.88,41.88,0,0,0,5.37-1.82A1.56,1.56,0,0,0,252,127.5Z"/><path class="cls-1" d="M221.65,79.75a2.47,2.47,0,0,1,1-1.09,15.34,15.34,0,0,0,1.72-1.28A8.81,8.81,0,0,1,227,76.1a1,1,0,0,1,.29,0,.46.46,0,0,1,.5.25c.06.16-.07.31-.18.43a6.48,6.48,0,0,1-1.68,1.21A18.3,18.3,0,0,1,221.65,79.75Z"/><path class="cls-1" d="M183.23,83.53c.06-.08.09-.18.17-.23A30.58,30.58,0,0,1,187.06,81c.55-.26,1-.75,1.67-.76a4,4,0,0,1,.59,0c.27,0,.33.25.14.42a4,4,0,0,1-1,.69c-1.54.73-3.13,1.36-4.62,2.18A.52.52,0,0,1,183.23,83.53Z"/><path class="cls-3" d="M140.81,110.92c.05.27,0,.38-.15.42s-.46.09-.55-.08a14.69,14.69,0,0,1-1.65-3c-.07-.2-.21-.48.1-.59s.69-.3,1,0a.64.64,0,0,1,.11.16C140.22,108.88,140.34,110,140.81,110.92Z"/><path class="cls-1" d="M178.35,77.82a2.33,2.33,0,0,1,.64-.77c.76-.67,1.37-1.5,2.2-2.11.08-.06.13-.17.22-.2.45-.17,1.05-.61,1.35-.19s-.36.74-.69,1c-1,.77-2,1.48-3,2.2A.54.54,0,0,1,178.35,77.82Z"/><path class="cls-1" d="M264.2,132.49c.69,0,1.2.51,1.82.71a.86.86,0,0,1-.74.21c-2.43,0-4.86,0-7.3,0a9.3,9.3,0,0,1,2.28-.33A19.37,19.37,0,0,0,264.2,132.49Z"/></svg>