<svg id="frames" xmlns="http://www.w3.org/2000/svg" viewBox="0 0 384 216"><defs><style>.cls-1{fill:#fefefe;}.cls-2{fill:#1a243a;}.cls-3{fill:#f30c0c;}.cls-4{fill:#adb0b0;}</style></defs><path class="cls-1" d="M126.8,105.79c0-.52.36-.65.71-.83a39.18,39.18,0,0,1,5.16-2.13,89.16,89.16,0,0,1,11.44-3.12c2.43-.49,4.9-.81,7.37-1.13a111.29,111.29,0,0,1,16-.54c1.52,0,3,.33,4.55.47s2.74.47,4.14.49l4.12.78a69.72,69.72,0,0,1,18.48,6.29c.32.16.71.25.82.67-1.06,0-2.13-.08-3.2-.14-1.56-.08-3.12-.08-4.68-.31a16.13,16.13,0,0,0-6.45.34,11.56,11.56,0,0,1-3,.43,41.1,41.1,0,0,0-5,.38c-3.34.36-6.58,1-9.4,3a1.45,1.45,0,0,1-1,.34,2.21,2.21,0,0,1,.34-1.63,27.66,27.66,0,0,1,2.09-3.62c.23-.29.48-.64.27-1s-.64-.28-1-.26-.81.26-1.07.13c-.89-.47-1.68,0-2.51.09a1.09,1.09,0,0,0-.94.6c-.52.9-1.17,1.71-1.77,2.55a4.61,4.61,0,0,0-.9,2.8,12.93,12.93,0,0,1-.17,4.07.65.65,0,0,0,.47.86c1.66.63,3.31,1,5-.08a8.49,8.49,0,0,1,3.17-1.13,18.86,18.86,0,0,1,3.09-.19,20,20,0,0,0,6.64,0,3.61,3.61,0,0,0,1.29-.52l2.8-1.72,3.8,2.11a10.39,10.39,0,0,0,3.23,1.43,2.93,2.93,0,0,0,1.26.74,4.71,4.71,0,0,1,1.35.61,18,18,0,0,0,4.13,1.84c.34.12.73.15.94.5a2.08,2.08,0,0,0,0,1.08c.21,1.1.75,1.54,1.83,1.2a1.35,1.35,0,0,1,1.57.44c.16.17.34.31.51.48a6.44,6.44,0,0,0,5.58,2,7.94,7.94,0,0,0,5.24-2.33c1-1.05,2-2,3.07-3a1.49,1.49,0,0,1,.39.29c.38.44.68.75,1,1.15a22.82,22.82,0,0,1,2.92,4.26,1.7,1.7,0,0,0,.35.36c.45.84.92,1.67,1.35,2.53a2.66,2.66,0,0,1,.47,1.49,18.89,18.89,0,0,0-1.89.86c-2,.69-4,1.35-6.1,1.92a55.3,55.3,0,0,1-7.66,1.34,77.36,77.36,0,0,1-10.75.95c-3.5,0-7,0-10.48-.34-3.25-.31-6.48-.85-9.71-1.33a96.83,96.83,0,0,1-26.09-8,75.62,75.62,0,0,1-10-5.62A46,46,0,0,1,126.8,105.79Z"/><path class="cls-2" d="M229.29,125.79a3.85,3.85,0,0,0,.41-1.18c1.29,2.67,2.49,5.37,3.66,8.09.33.77.43.86,1.32.84a3.76,3.76,0,0,0-.13-.48l-5.17-11.46c-.13-.28-.25-.55-.58-.64l.11-.54c.86.3,1.08.23,1.44-.47a11.29,11.29,0,0,1,.67-1.45c.89-1.32.48-2.62.07-4.07-.71.52-1.31,1-2,1.4a1.71,1.71,0,0,0-.74,1.21,4.08,4.08,0,0,0,.26,3.14c-.29,0-.38-.21-.54-.37a6.91,6.91,0,0,1-1.52-3.06c-.18-.5-.15-.82.42-1.1a1.84,1.84,0,0,1-1.07-1.36,6.24,6.24,0,0,0-.46-1.1c-.22-.39-.4-.84-.92-1a5.73,5.73,0,0,1,2-1.36c.11,0,.17.05.23.12a29,29,0,0,0,.84,3.69c.13.47.33.47.71.37a5.88,5.88,0,0,0,2.36-1.45.7.7,0,0,0,.16-.9,5.18,5.18,0,0,1-.34-2.64c0-.63.08-1.26.1-1.89a6.3,6.3,0,0,0-1.52-4.82c-1.3-1.38-2.63-2.73-4-4.08-.14-.15-.23-.42-.54-.33-.19.94-.39,1.88-.57,2.83a10,10,0,0,1-3.41,6,30.06,30.06,0,0,0-3.37,3.4,4.63,4.63,0,0,0-.74,1.17c-.21.5,0,.82.33,1.16s.61.11.89,0c2.16-1,4.37-1.79,6.49-2.84a10.52,10.52,0,0,1,2.53-1.09,25.2,25.2,0,0,1-3.7,2.53c-1.66,1-3.49,1.66-5.12,2.71-1.07.68-1.08.67-.37,1.86.14.52-.25.79-.54,1.08s-.76.62-.92,1.12c-1,1-2.11,1.91-3.07,3a7.94,7.94,0,0,1-5.24,2.33,6.44,6.44,0,0,1-5.58-2c-.17-.17-.35-.31-.51-.48a1.35,1.35,0,0,0-1.57-.44c-1.08.34-1.62-.1-1.83-1.2a2.08,2.08,0,0,1,0-1.08c1.21.36,2.42.73,3.63,1.08,1.38.39,2.76.77,4.14,1.12.39.1.8.31,1.23,0-.18-.22-.4-.21-.58-.29-1.44-.62-3-.82-4.44-1.48-2.65-1.25-5.44-2.17-8.08-3.43-.87-.41-1.76-.78-2.65-1.15-.58-.24-.6-.22-.93.45a10.39,10.39,0,0,1-3.23-1.43l-3.8-2.11a2.11,2.11,0,0,0-1.32-.29h-2.56a1.41,1.41,0,0,1-.07-.15,2.58,2.58,0,0,1,1.29-.46,28.49,28.49,0,0,1,7,.53c.51.1,1,.56,1.5.26a4.64,4.64,0,0,0,1-1.26c-1-.43-2.1-.36-3-.91a15.26,15.26,0,0,1,2.95.48c.38.11.63,0,.75-.39a5.92,5.92,0,0,1,1.07-1.79c.17-.23.5-.36.49-.71-.14-.19-.35-.18-.54-.2a29.41,29.41,0,0,0-4.09-.11c-1.14.06-2.24.39-3.35.47s-2.35.33-3.56.34a39.42,39.42,0,0,0-4.46.46,16.42,16.42,0,0,0-7.82,2.8,7.66,7.66,0,0,1-3,1s-.08-.09-.16-.19a1.06,1.06,0,0,0,.57-1.21,2,2,0,0,1,.32-1.24c.74-1.19,1.17-2.54,2-3.68a1.63,1.63,0,0,0,.2-.45c.06-.27,0-.48-.35-.41a2,2,0,0,0-.76.2.45.45,0,0,1-.56,0c-.63-.54-1.28-.08-1.91-.06a.29.29,0,0,0-.32.18,16.09,16.09,0,0,1-1.81,2.62,5,5,0,0,0-.9,3.21,8.69,8.69,0,0,1-.42,3.54c-.18.57.16,1.05.73.91a6.1,6.1,0,0,0,2.19-.52c.58-.38,1.26-.6,1.88-.93a22,22,0,0,1,8.44-2.55c.29,0,.69-.19.79.17s-.34.42-.6.51c-.46.17-1,.29-1.43.43-.15,0-.34,0-.39.33l2.53.17c-1,.41-2,.6-3,1.1a18.86,18.86,0,0,0-3.09.19,8.49,8.49,0,0,0-3.17,1.13c-1.64,1.08-3.29.71-5,.08a.65.65,0,0,1-.47-.86,12.93,12.93,0,0,0,.17-4.07,4.61,4.61,0,0,1,.9-2.8c.6-.84,1.25-1.65,1.77-2.55a1.09,1.09,0,0,1,.94-.6c.83-.07,1.62-.56,2.51-.09.26.13.71-.11,1.07-.13s.78-.12,1,.26,0,.72-.27,1a27.66,27.66,0,0,0-2.09,3.62,2.21,2.21,0,0,0-.34,1.63,1.45,1.45,0,0,0,1-.34c2.82-2,6.06-2.68,9.4-3a41.1,41.1,0,0,1,5-.38,11.56,11.56,0,0,0,3-.43,16.13,16.13,0,0,1,6.45-.34c1.56.23,3.12.23,4.68.31,1.07.06,2.14.09,3.2.14.73.07,1.35.16,2.18.29a2,2,0,0,0,.44.09c2.22.55,1.88.41,2.88-1.19.12-.29.18-.37.26-.54l.12-.28a3.92,3.92,0,0,1,.21-.73c.33-.33.72-.18,1.1-.17a6.51,6.51,0,0,1,1,.31c1.21.37,1.23.74,1.59-.9.2-.87.37-1.54.67-2.63.18-.65.26-1.08.39-1.64.45,0,.64-.28.33-.64A8.84,8.84,0,0,0,207.49,96a1.09,1.09,0,0,1-.55-1l.3-2.38c.24-.36.45-.74.72-1.07s.2-.49-.07-.74-.7-.54-.78-1a2.87,2.87,0,0,1,1.09.78c.15.14.32.27.5.06a17.77,17.77,0,0,1,1.85-1.54c-.45-.39-.84-.75-1.26-1.08s-.9-.58-1.3-.92-1.06-.07-1.47-.64a6.85,6.85,0,0,1,1-.26,4.69,4.69,0,0,0,2.75-1.69c.22-.21.17-.39,0-.59a1.6,1.6,0,0,0-1.69-.23c-.38.1-.74.28-1.13.38a6.14,6.14,0,0,0-4.25,3.46c-.41.89-.38.87.29,1.59a6.61,6.61,0,0,1,1.73,2.13c-.26-.2-.52-.41-.79-.59A27.44,27.44,0,0,0,202,88.78c-.28-.45.11-.78.21-1.16a2.52,2.52,0,0,1,.41-.61h0a7,7,0,0,1,.61-.8h0c.08-.1.11-.16.14-.2a6.65,6.65,0,0,1,4.19-2.44,2.75,2.75,0,0,0,1.48-.76,4.87,4.87,0,0,1,2.55-.92,2.55,2.55,0,0,1,2.28,1,3.77,3.77,0,0,1,.76,2.81c0,.13,0,.29-.17.33-.74.23-.41.69-.24,1.09a27.51,27.51,0,0,1,1.16,2.62c.25.8.63.78,1.43.88.37.06.52.11.81.14.6.15,1.13.56,1.78.46a4.2,4.2,0,0,0,1.74.45,3.85,3.85,0,0,0,1.1,2.37,5.54,5.54,0,0,0,2.63,2,.75.75,0,0,0,.75,0,3.72,3.72,0,0,0,1.06-2.69c-.06-.3-.29-.43-.49-.59a7.08,7.08,0,0,0-3.48-1.59l.54-.4c.14,0,.21,0,.36,0a2,2,0,0,1,.42.11l1.76.68a8.09,8.09,0,0,1,1,.63,1.94,1.94,0,0,1,.69,1.14,20.51,20.51,0,0,1-.77,3.88,5.91,5.91,0,0,0-.2,1.27,1.43,1.43,0,0,0,.47,1.34c.26.82,1,1.25,1.58,1.77a30.84,30.84,0,0,1,2.39,2.46l.71,1.89a9.07,9.07,0,0,1,.14,1v1.6a8.46,8.46,0,0,0-.09,3.25c.08.69.54,1.37.09,2.09a.34.34,0,0,0,0,.29,4.61,4.61,0,0,1,.56,1.57c.06.59.11,1,.16,1.58a4.24,4.24,0,0,1-.56,1.09,4.89,4.89,0,0,0-.93,1.74,1.33,1.33,0,0,1-.85.77l-.58.21c.29.79.64,1.42.8,1.82q1.91,4.27,3.82,8.57c.36.8.73,1.6,1.09,2.41a16,16,0,0,1,2.47,1c1.87.84,3.75,1.63,5.68,2.31a2.63,2.63,0,0,1,.4.21,1,1,0,0,1-.93.12,9.71,9.71,0,0,1-2.14-.87,3.67,3.67,0,0,0-1-.4,8.3,8.3,0,0,0-2.4-1,9.59,9.59,0,0,1-1.63-.66,22.53,22.53,0,0,1-2.64-.85.92.92,0,0,1-.58-.68M212.74,86.8A1.12,1.12,0,0,0,212,87c-1-.86-1-.86-1.9.08-.13.13-.32.23-.37.48.53.44.92,1.1,1.62,1.36a2.7,2.7,0,0,1,1,.61,1.61,1.61,0,0,0,.93.52,2.06,2.06,0,0,0,1,.17,1.18,1.18,0,0,0,1,.1c-.48-1.1-.95-2.19-1.44-3.27C213.48,86.36,213.47,86.37,212.74,86.8Zm6.39,9c-.24-.39,0-.57.07-.77a5.72,5.72,0,0,0,.44-1.53,1.54,1.54,0,0,0-1.13-1.75,13.57,13.57,0,0,0-4.12-.72,3.33,3.33,0,0,1-2.73-1.16.6.6,0,0,0-.94-.11,8.3,8.3,0,0,0-2.45,2.72,1.08,1.08,0,0,0,.11,1.29,11.34,11.34,0,0,0,1.64,2,16.57,16.57,0,0,1,3.78,5.58c.14.28.53.63.26.87s-.58-.24-.89-.38a.6.6,0,0,0-.19,0c-.23.34.23.69,0,1-.36.15-.29-.38-.66-.38a46.69,46.69,0,0,1-2.56,6.32,21.77,21.77,0,0,1,5.06,4.18,24.32,24.32,0,0,1,2.32-2.57,54.46,54.46,0,0,0,4-5.36,9.5,9.5,0,0,0,1.59-2.76c.33-1.15.59-2.32.86-3.49a2.22,2.22,0,0,0-.51-1.93c-.86-1.13-2.19-1.79-2.88-3.21C219.82,94.49,219.77,95.27,219.13,95.82ZM210,111.17c.26-.18.38-.11.49,0a10.31,10.31,0,0,1,2.16,1.74c.34.37.71.71,1.08,1a.47.47,0,0,0,.37,0c.15-.05.12-.22.11-.35a1.61,1.61,0,0,0-.54-.92,25,25,0,0,0-3.7-3,3.25,3.25,0,0,0-.61-.33c-.35-.17-.64-.29-.92.17-.18.29-.52.35-.6-.15-.05-.34-.32-.27-.54-.31a47.05,47.05,0,0,1-5.36-1.07,29.66,29.66,0,0,0-7.51-.93,1.08,1.08,0,0,0-.87.36,8.81,8.81,0,0,0-2.11,3.47c-.29.88-.29.88.53,1.2l2.88,1.13c1.89.73,3.78,1.48,5.67,2.2a40.77,40.77,0,0,0,7.48,1.72,1.87,1.87,0,0,0,.88,0,9.49,9.49,0,0,0,4.68-2.58C212.48,113.27,211.13,112.35,210,111.17Zm-3.9-4.76a8,8,0,0,1,2.29,0,.36.36,0,0,0,.49-.33c0-.24.25-.57-.11-.69a3.64,3.64,0,0,0-2-.47c-.55.14-.48.88-.74,1.32C206,106.24,206,106.28,206.06,106.41Zm4.55-23.77c.19,0,.37.06.56.07a1.6,1.6,0,0,1,1.56,1.14c0,.09.07.19.1.28s.2.27.38.18.29-.17.25-.37a.8.8,0,0,0-.11-.38C212.51,82.39,212.08,81.82,210.61,82.64Zm.93,2.28c.71-.51.71-.52.35-1.18s-.85-.92-1.95-.49A2.67,2.67,0,0,1,211.54,84.92Zm1.39,16.86s0,0,0-.06,0,0,0-.06l-.06.08Z"/><path class="cls-2" d="M126.8,105.79a46,46,0,0,0,13.11,13,75.62,75.62,0,0,0,10,5.62,96.83,96.83,0,0,0,26.09,8c3.23.48,6.46,1,9.71,1.33,3.48.33,7,.3,10.48.34a77.36,77.36,0,0,0,10.75-.95,55.3,55.3,0,0,0,7.66-1.34c2.06-.57,4.08-1.23,6.1-1.92a18.89,18.89,0,0,1,1.89-.86c.39,0,.46.28.62.61-.11.53-.55.72-1,.92a31.67,31.67,0,0,1-5.61,2,94.92,94.92,0,0,1-9.45,2.13c-.59.09-1.18.15-1.78.23a2,2,0,0,1-.43.05l-1.38.09c-1.82.15-3,.21-5,.32a8.29,8.29,0,0,1-1,0c-2.28.08-3.69,0-5.8,0l-1,0c-1.35-.08-2.42-.17-3.63-.32-.84,0-1,0-2,0l-.58-.05c-.5,0-.79-.06-1.22-.12l-.79-.07c-.42,0-.64-.06-1-.12l-.78-.08a3.65,3.65,0,0,1-.62-.1l-1-.12-.43-.08-.78-.1a1.81,1.81,0,0,1-.42-.08L171,132.78c-.11-.13-.25-.07-.42-.12l-.38-.07c-.2-.07-.22-.05-.42-.12L163,130.72a3.86,3.86,0,0,0-.49-.1.29.29,0,0,0-.34.13.31.31,0,0,0,.06.37c.2.18.41.35.62.51a75.38,75.38,0,0,1,6.59,5.64c1.51,1.45,3,2.93,4.49,4.4a20.74,20.74,0,0,0,3.53,2.74c.46.29,1,.38,1.54.63,2.13,1.09,4.15,2.39,6.18,3.66,1,.66,2.09,1.3,3.14,1.94a46.88,46.88,0,0,0,4.6,3c.3.17.72.22.79.67-.88.1-1.45-.55-2.11-.91a35.09,35.09,0,0,1-3.13-2,25.2,25.2,0,0,0-2.67-1.77,16.6,16.6,0,0,0-2.39-1.6,28.77,28.77,0,0,0-5.17-2.81,14.65,14.65,0,0,1-3.92-2.14,2.54,2.54,0,0,0-.94-.55l-.93-.83a10.16,10.16,0,0,0-2.24-2.2,10.27,10.27,0,0,0-1.46-1.34c-.1-.31-.38-.46-.58-.67-1.29-1.4-2.84-2.5-4.24-3.78a39.7,39.7,0,0,0-5.63-4.27,5.6,5.6,0,0,0-1.51-.72c-.48-.18-.62-.27-1.09-.44s-.66-.23-1.18-.48-1-.31-1.65-.57c-2.31-1-4.52-2.25-6.83-3.26a42,42,0,0,1-4.15-2.32,15.29,15.29,0,0,1-2.84-1.73c-1.25-1.14-2.75-2-4-3.11-1-.92-2.07-1.71-3.06-2.62s-2-2.23-2.94-3.33c-.63-.69-1.05-1.51-1.68-2.18-.35-.37-.39-1-.82-1.33a1.33,1.33,0,0,0-.56-.61c0-.1,0-.2,0-.29C125.85,105.74,126,105.63,126.8,105.79Zm35.37,24.88-.07-.07a.75.75,0,0,0-.06.13s0,.05.06.07Z"/><path class="cls-1" d="M243.9,148.81a40.56,40.56,0,0,1,6.19.25,30,30,0,0,1,7.58,1.68,1.33,1.33,0,0,1,.28.1c.38.17.76.39.78.82s-.46.62-.83.72a9.47,9.47,0,0,1-3.86.11c-4.72-.59-9.31-1.89-14-2.71-.38-.07-.94-.11-.91-.58s.61-.37,1-.38C241.25,148.8,242.38,148.81,243.9,148.81Z"/><path class="cls-2" d="M239.79,137a7,7,0,0,1,.8.6,1.32,1.32,0,0,1-.36,2.34,8.3,8.3,0,0,1-2.53.85l-2.08.29a1.49,1.49,0,0,1-.43.06l-4,.16a1.78,1.78,0,0,0-.39-.07c-3.28,0-6.56-.08-9.84-.06a17.15,17.15,0,0,0-6.2,1.18l-1.4.37a1.55,1.55,0,0,1-1.14,0l.2-.28,3.24-.91a22.8,22.8,0,0,1,6.1-.79c.33,0,.66,0,1-.06s.36,0,.63,0h4.38c.51,0,.62,0,1,0h.36a20.42,20.42,0,0,0,3,0,15.68,15.68,0,0,0,2.37-.12,7,7,0,0,0,.83-.07c.4,0,.62,0,1-.1a10.46,10.46,0,0,0,2.75-.7c1.07-.55,1.13-1.37.1-2a7.55,7.55,0,0,0-2-1,16.66,16.66,0,0,0-6.21-.36,5.42,5.42,0,0,1-.69,0l-1.29.09a7.28,7.28,0,0,0-.77.09,10.53,10.53,0,0,0-1.42.18q-2.15.41-4.29.87a53.07,53.07,0,0,0-12.3,4.21,4.33,4.33,0,0,1-1.78.57c-.13-.36.13-.46.38-.57,1.67-.76,3.31-1.59,5-2.24a62.71,62.71,0,0,1,13.4-3.39,36.32,36.32,0,0,1,10.15-.09A15.34,15.34,0,0,1,239.79,137Z"/><path class="cls-1" d="M266.88,157.2a23,23,0,0,1,7.46,1.16,8,8,0,0,1,1.62.77c.19.12.41.29.31.57a.47.47,0,0,1-.49.27,16.27,16.27,0,0,1-2.79-.08c-2.53-.45-5-1.23-7.48-1.77-.35-.08-.71-.15-1.06-.24-.16,0-.34-.13-.31-.34a.35.35,0,0,1,.35-.3c.59,0,1.19,0,1.79,0Z"/><path class="cls-3" d="M224.57,112.24c.52.11.7.56.92,1a6.24,6.24,0,0,1,.46,1.1,1.84,1.84,0,0,0,1.07,1.36c-.57.28-.6.6-.42,1.1a6.91,6.91,0,0,0,1.52,3.06,1.41,1.41,0,0,0,.54.37h0c.12.1.09.15.28.25h0c0,.18-.07.36-.11.54s-.39-.08-.6.14l1.5,3.51a3.85,3.85,0,0,1-.41,1.18c-1-2.13-2-4.23-2.87-6.41-.38-.95-.9-1.86-1.31-2.82l-.42-1c.59-.29.6-.77.41-1.31-.09-.27-.22-.53-.33-.79s-.18-.12-.18-.5v0c.1-.26,0-.5,0-.76Z"/><path class="cls-3" d="M206.94,95a25.94,25.94,0,0,1-3.1-3.6,12.89,12.89,0,0,0-1.79-2.12l-.05-.53a27.44,27.44,0,0,1,2.41,1.89c.27.18.53.39.79.59l2,1.39Z"/><path class="cls-2" d="M223.49,112.86a1.07,1.07,0,0,1,.73-.49c.08.24.12.51.38.64v0a.63.63,0,0,0,.18.5c.11.26.24.52.33.79.19.54.18,1-.41,1.31"/><path class="cls-3" d="M223.24,90.8l-.54.4c-.54.1-1.19-.18-1.57.46a4.2,4.2,0,0,1-1.74-.45,1.33,1.33,0,0,1,.94-.43,9.2,9.2,0,0,1,1-.06c.63,0,1,0,1.58,0A1.85,1.85,0,0,1,223.24,90.8Z"/><path class="cls-4" d="M162.72,65.51a.34.34,0,0,1-.39.26c-.2,0-.45-.08-.47-.29s.23-.29.43-.28A.42.42,0,0,1,162.72,65.51Z"/><path class="cls-4" d="M244.69,120.57a1.13,1.13,0,0,1-.1.13,1.47,1.47,0,0,1-.1-.13l0-.07A.1.1,0,0,1,244.69,120.57Z"/><path class="cls-3" d="M190.64,115.28c.33-.67.35-.69.93-.45.89.37,1.78.74,2.65,1.15,2.64,1.26,5.43,2.18,8.08,3.43,1.41.66,3,.86,4.44,1.48.18.08.4.07.58.29-.43.3-.84.09-1.23,0-1.38-.35-2.76-.73-4.14-1.12-1.21-.35-2.42-.72-3.63-1.08-.21-.35-.6-.38-.94-.5a18,18,0,0,1-4.13-1.84,4.71,4.71,0,0,0-1.35-.61A2.93,2.93,0,0,1,190.64,115.28Z"/><path class="cls-3" d="M179.73,111.46h2.56a2.11,2.11,0,0,1,1.32.29l-2.8,1.72a3.61,3.61,0,0,1-1.29.52,20,20,0,0,1-6.64,0c1-.5,2-.69,3-1.1a9.4,9.4,0,0,0,3.38-.93C179.47,111.88,179.77,111.81,179.73,111.46Z"/><path class="cls-1" d="M219.13,95.82c.64-.55.69-1.33,1.06-2.12.69,1.42,2,2.08,2.88,3.21a2.22,2.22,0,0,1,.51,1.93c-.27,1.17-.53,2.34-.86,3.49a9.5,9.5,0,0,1-1.59,2.76,54.46,54.46,0,0,1-4,5.36,24.32,24.32,0,0,0-2.32,2.57,21.77,21.77,0,0,0-5.06-4.18,46.69,46.69,0,0,0,2.56-6.32c.37,0,.3.53.66.38.24-.34-.22-.69,0-1a.6.6,0,0,1,.19,0c.31.14.51.73.89.38s-.12-.59-.26-.87A16.57,16.57,0,0,0,210,95.8a11.34,11.34,0,0,1-1.64-2,1.08,1.08,0,0,1-.11-1.29,8.3,8.3,0,0,1,2.45-2.72.6.6,0,0,1,.94.11,3.33,3.33,0,0,0,2.73,1.16,13.57,13.57,0,0,1,4.12.72,1.54,1.54,0,0,1,1.13,1.75,5.72,5.72,0,0,1-.44,1.53C219.12,95.25,218.89,95.43,219.13,95.82ZM217.45,105c.34.08.56-.12.79-.3a24.74,24.74,0,0,0,2.22-2,3,3,0,0,0,.87-1.65,15.37,15.37,0,0,0,.3-3.18,4,4,0,0,0,0-.49c0-.17-.13-.31-.33-.28s-.18.17-.18.31c0,1.07-.16,2.12-.27,3.18a3.48,3.48,0,0,1-1,2.12C219.05,103.5,218.23,104.22,217.45,105Z"/><path class="cls-1" d="M210,111.17c1.17,1.18,2.52,2.1,3.57,3.33a9.49,9.49,0,0,1-4.68,2.58,1.87,1.87,0,0,1-.88,0,40.77,40.77,0,0,1-7.48-1.72c-1.89-.72-3.78-1.47-5.67-2.2L191.94,112c-.82-.32-.82-.32-.53-1.2a8.81,8.81,0,0,1,2.11-3.47,1.08,1.08,0,0,1,.87-.36,29.66,29.66,0,0,1,7.51.93,47.05,47.05,0,0,0,5.36,1.07c.22,0,.49,0,.54.31.08.5.42.44.6.15.28-.46.57-.34.92-.17a3.25,3.25,0,0,1,.61.33,25,25,0,0,1,3.7,3,1.61,1.61,0,0,1,.54.92c0,.13,0,.3-.11.35a.47.47,0,0,1-.37,0c-.37-.33-.74-.67-1.08-1a10.31,10.31,0,0,0-2.16-1.74C210.34,111.06,210.22,111,210,111.17Z"/><path class="cls-1" d="M179.73,111.46c0,.35-.26.42-.49.51a9.4,9.4,0,0,1-3.38.93l-2.53-.17c0-.3.24-.29.39-.33.48-.14,1-.26,1.43-.43.26-.09.71-.13.6-.51s-.5-.19-.79-.17a22,22,0,0,0-8.44,2.55c-.62.33-1.3.55-1.88.93a6.1,6.1,0,0,1-2.19.52c-.57.14-.91-.34-.73-.91a8.69,8.69,0,0,0,.42-3.54,5,5,0,0,1,.9-3.21,16.09,16.09,0,0,0,1.81-2.62.29.29,0,0,1,.32-.18c.63,0,1.28-.48,1.91.06a.45.45,0,0,0,.56,0,2,2,0,0,1,.76-.2c.35-.07.41.14.35.41a1.63,1.63,0,0,1-.2.45c-.83,1.14-1.26,2.49-2,3.68a2,2,0,0,0-.32,1.24,1.06,1.06,0,0,1-.57,1.21c.08.1.13.19.16.19a7.66,7.66,0,0,0,3-1,16.42,16.42,0,0,1,7.82-2.8,39.42,39.42,0,0,1,4.46-.46c1.21,0,2.37-.26,3.56-.34s2.21-.41,3.35-.47a29.41,29.41,0,0,1,4.09.11c.19,0,.4,0,.54.2,0,.35-.32.48-.49.71a5.92,5.92,0,0,0-1.07,1.79c-.12.42-.37.5-.75.39a15.26,15.26,0,0,0-2.95-.48c.94.55,2.06.48,3,.91a4.64,4.64,0,0,1-1,1.26c-.46.3-1-.16-1.5-.26a28.49,28.49,0,0,0-7-.53,2.58,2.58,0,0,0-1.29.46A1.41,1.41,0,0,0,179.73,111.46Zm5.16-3.24a3.08,3.08,0,0,0-2,.15C183.49,108.77,184.09,108.59,184.89,108.22Z"/><path class="cls-1" d="M226.77,109.61a10.52,10.52,0,0,0-2.53,1.09c-2.12,1-4.33,1.88-6.49,2.84-.28.12-.57.36-.89,0s-.54-.66-.33-1.16a4.63,4.63,0,0,1,.74-1.17,30.06,30.06,0,0,1,3.37-3.4,10,10,0,0,0,3.41-6c.18-1,.38-1.89.57-2.83.31-.09.4.18.54.33,1.33,1.35,2.66,2.7,4,4.08a6.3,6.3,0,0,1,1.52,4.82c0,.63-.06,1.26-.1,1.89a5.18,5.18,0,0,0,.34,2.64.7.7,0,0,1-.16.9,5.88,5.88,0,0,1-2.36,1.45c-.38.1-.58.1-.71-.37a29,29,0,0,1-.84-3.69h0l1.63-.45c-.38-.26-.68-.12-.93-.22a6.29,6.29,0,0,0,1.65-2.91A10.39,10.39,0,0,1,226.77,109.61Z"/><path class="cls-1" d="M207.24,92.65l-2-1.39a6.61,6.61,0,0,0-1.73-2.13c-.67-.72-.7-.7-.29-1.59a6.14,6.14,0,0,1,4.25-3.46c.39-.1.75-.28,1.13-.38a1.6,1.6,0,0,1,1.69.23c.2.2.25.38,0,.59a4.69,4.69,0,0,1-2.75,1.69,6.85,6.85,0,0,0-1,.26c.41.57,1.06.3,1.47.64s.88.6,1.3.92.81.69,1.26,1.08a17.77,17.77,0,0,0-1.85,1.54c-.18.21-.35.08-.5-.06a2.87,2.87,0,0,0-1.09-.78c.08.49.47.73.78,1s.32.44.07.74S207.48,92.29,207.24,92.65Z"/><path class="cls-1" d="M221.13,91.66c.38-.64,1-.36,1.57-.46a7.08,7.08,0,0,1,3.48,1.59c.2.16.43.29.49.59a3.72,3.72,0,0,1-1.06,2.69.75.75,0,0,1-.75,0,5.54,5.54,0,0,1-2.63-2A3.85,3.85,0,0,1,221.13,91.66Z"/><path class="cls-3" d="M226.77,109.61a10.39,10.39,0,0,0,2.38-2.18,6.29,6.29,0,0,1-1.65,2.91c-.23.12-.46.23-.68.37s-.16.19,0,.3h0c-.06-.07-.12-.17-.23-.12a5.73,5.73,0,0,0-2,1.36h0l-.33.12a1.07,1.07,0,0,0-.73.49c-1.34.8-2.67,1.62-4,2.4a8.07,8.07,0,0,0-1.88,1.45c-.71-1.19-.7-1.18.37-1.86,1.63-1,3.46-1.71,5.12-2.71A25.2,25.2,0,0,0,226.77,109.61Z"/><path class="cls-1" d="M228.91,120.42h0c-.14-.06-.14-.08-.28-.25l-.06-.06a3.94,3.94,0,0,1-.15-3.07,1.71,1.71,0,0,1,.74-1.21c.64-.42,1.24-.88,2-1.4.41,1.45.82,2.75-.07,4.07a11.29,11.29,0,0,0-.67,1.45C230,120.65,229.77,120.72,228.91,120.42Z"/><path class="cls-1" d="M229.7,124.61l-1.5-3.51c.21-.22.43,0,.6-.14.33.09.45.36.58.64l5.17,11.46a3.76,3.76,0,0,1,.13.48c-.89,0-1-.07-1.32-.84C232.19,130,231,127.28,229.7,124.61Z"/><path class="cls-1" d="M206.06,106.41c0-.13-.06-.17-.05-.19.26-.44.19-1.18.74-1.32a3.64,3.64,0,0,1,2,.47c.36.12.14.45.11.69a.36.36,0,0,1-.49.33A8,8,0,0,0,206.06,106.41Z"/><path class="cls-1" d="M212.74,86.8c.73-.43.74-.44,1,.24.49,1.08,1,2.17,1.44,3.27a1.18,1.18,0,0,1-1-.1Z"/><path class="cls-3" d="M212.74,86.8l1.47,3.41a2.06,2.06,0,0,1-1-.17L212,87A1.12,1.12,0,0,1,212.74,86.8Z"/><path class="cls-3" d="M210.47,99.35l-3-3.36a8.84,8.84,0,0,1,3.31,2.72C211.11,99.07,210.92,99.3,210.47,99.35Z"/><path class="cls-1" d="M210.61,82.64c1.47-.82,1.9-.25,2.74.92a.8.8,0,0,1,.11.38c0,.2-.09.3-.25.37s-.31,0-.38-.18-.06-.19-.1-.28a1.6,1.6,0,0,0-1.56-1.14C211,82.7,210.8,82.66,210.61,82.64Z"/><path class="cls-1" d="M211.54,84.92a2.67,2.67,0,0,0-1.6-1.67c1.1-.43,1.5-.32,1.95.49S212.25,84.41,211.54,84.92Z"/><path class="cls-2" d="M212.93,101.78l-.06,0,.06-.08s.06,0,0,.06S213,101.76,212.93,101.78Z"/><path class="cls-2" d="M162.17,130.67l-.07.13s-.07-.05-.06-.07a.75.75,0,0,1,.06-.13Z"/><path class="cls-2" d="M224.22,112.37l.33-.12c0,.26.15.5,0,.76C224.34,112.88,224.3,112.61,224.22,112.37Z"/><path class="cls-2" d="M224.77,113.49a.63.63,0,0,1-.18-.5C224.63,113.28,224.68,113.24,224.77,113.49Z"/><path class="cls-2" d="M228.61,120.17a.9.9,0,0,0,.28.25A2.44,2.44,0,0,1,228.61,120.17Z"/><path class="cls-2" d="M217.45,105c.78-.79,1.6-1.51,2.36-2.29a3.48,3.48,0,0,0,1-2.12c.11-1.06.26-2.11.27-3.18,0-.14,0-.28.18-.31s.3.11.33.28a4,4,0,0,1,0,.49,15.37,15.37,0,0,1-.3,3.18,3,3,0,0,1-.87,1.65,24.74,24.74,0,0,1-2.22,2C218,104.89,217.79,105.09,217.45,105Z"/><path class="cls-2" d="M184.89,108.22c-.8.37-1.4.55-2,.15A3.08,3.08,0,0,1,184.89,108.22Z"/><path class="cls-2" d="M226.8,111c-.14-.11-.09-.23,0-.3s.45-.25.68-.37c.25.1.55,0,.93.22Z"/></svg>