<svg id="frames" xmlns="http://www.w3.org/2000/svg" viewBox="0 0 384 216"><defs><style>.cls-1{fill:#f5f4f5;}.cls-2{fill:#0f1b33;}.cls-3{fill:#fd0101;}.cls-4{fill:#d6d7d0;}</style></defs><path class="cls-1" d="M0-.06l-.2.2C-.23,0-.17-.1,0-.06Z"/><path class="cls-1" d="M-.19,215.72l.2.2C-.17,216-.23,215.89-.19,215.72Z"/><path class="cls-1" d="M383.59,215.92l.19-.2C383.82,215.89,383.76,216,383.59,215.92Z"/><path class="cls-2" d="M165.29,121.79c0-.16,0-.33,0-.5.11-11.82-.2-23.63-.13-35.45,0-2,.09-3.93.17-5.89a1,1,0,0,1,.85-1,4.49,4.49,0,0,1,.9-.05c11.82,0,23.65.08,35.47.21a43.66,43.66,0,0,1,5.48.3,27.12,27.12,0,0,1,8.21,2.74,25.85,25.85,0,0,1,7.64,5.53c.54.57,1,1.17,1.58,1.77a1.44,1.44,0,0,0,.18-1c.08-2.13.13-4.26.22-6.39,0-.44-.11-.86-.1-1.29,0-1.24.55-1.69,1.57-1.68,9.46,0,18.92,0,28.38.11,3.13,0,6.26,0,9.38.11a27,27,0,0,1,17.4,7,26.18,26.18,0,0,1,8.23,14.38A26.49,26.49,0,0,1,289,116.81a25.9,25.9,0,0,1-5.54,8.23,27.19,27.19,0,0,1-14.89,7.76,31,31,0,0,1-5.36.42H248.74c-.32,0-.5.12-.49.46,0,.17,0,.34,0,.5-.22,8.62-.06,17.24-.11,25.86,0,.26,0,.53,0,.8a1.23,1.23,0,0,1-1.3,1.34,21.87,21.87,0,0,1-2.29,0c-2.2-.12-4.4,0-6.59-.07-.17,0-.33,0-.5-.06l2.3-.68a18.33,18.33,0,0,0,3.37-1.22,1.53,1.53,0,0,0,.86-.78c.14-.37,0-.46-.51-.42a9.53,9.53,0,0,0-3.1-1.35c-2.17-.62-4.36-1.2-6.5-1.91-3.66-1.2-7.28-2.5-10.92-3.73-6.43-2.18-12.84-4.4-19.22-6.71-3.47-1.26-7-2.45-10.44-3.68.25-.34.53-.12.8,0,3.38,1.11,6.78,2.16,10.14,3.35,5.73,2,11.47,4.07,17.24,6a22.78,22.78,0,0,1,3.08,1.14c.61.3.86.06.8-.67-.08-.93-.2-1.86-.22-2.79a4.59,4.59,0,0,0-.68-2.25,11.39,11.39,0,0,1-1.4-2.62c.3-.47.09-1,.28-1.52,1,1.75,2.06,3.49,3.08,5.25a3.09,3.09,0,0,1,.25,1c.23,1.34.48,2.68.69,4a.92.92,0,0,0,.7.85c1.84.57,3.67,1.19,5.51,1.78.16.05.36.21.52,0a11.49,11.49,0,0,0-1.39-2.28c-1.13-1.4-2.26-2.8-3.41-4.17a27.57,27.57,0,0,1-3.33-4.17c-2.13-3.8-4.43-7.51-6.66-11.25l-2.67-4.45c-.71.65-.72.66-.34,1.33,1,1.76,2,3.51,3,5.27-.22.55,0,1.15-.21,1.69a5.2,5.2,0,0,1-.35-.47c-1.06-1.8-2.11-3.6-3.17-5.39-.46-.8-.64-.82-1.34-.2a4.24,4.24,0,0,1-1.09.84c.06-.54.52-.81.82-1.2l.13-.18v0a12.21,12.21,0,0,0,2.07-2.24,2.35,2.35,0,0,0,.13-2.36,16.58,16.58,0,0,0-.75,1.61c-.22.47-.34,1-.83,1.29-.08.16-.27.28-.22.5h0c-.6.18-.87.78-1.36,1.1a10.5,10.5,0,0,1-7.22,1.74l-1.79-.22a1.18,1.18,0,0,0-.86.13,8.33,8.33,0,0,0-1.55,1.06c-1.21.58-2.35,1.31-3.6,1.81a7.74,7.74,0,0,0-2.15.7c-1.54.62-3.06,1.26-4.58,1.93a2.39,2.39,0,0,0-1.38,1.06c-.25.5-.48,1-.71,1.52a25.29,25.29,0,0,1-3.93-1.34,10.5,10.5,0,0,0,5.56-2.26c4-3,8.07-6,11.94-9.19,2.5-2.08,5.21-3.92,7.43-6.33,0,0,.12,0,.18,0a1.6,1.6,0,0,1-.05,1.11c-.11.34-.38.64-.34,1-.11,0-.2.1-.15.17s.19,0,.25-.09c.25-.06.35-.28.51-.45a12.36,12.36,0,0,0,2.48-4.52A1.56,1.56,0,0,1,214.7,117c-.16,1.2-.74,2.21-1,3.52a8.14,8.14,0,0,0,2.83-2.9c.15-.22.05-.45,0-.67a11,11,0,0,0-.9-2.65c-1.14-2.06-1.83-2.49-4.2-2.54a1.07,1.07,0,0,0-1,.61c-.53,1-1.13,2-1.63,3a3.32,3.32,0,0,1-.95,1.12c-1.15.9-2.37,1.72-3.47,2.69-1.58,1.39-2.9,3-4.33,4.55-2.69,2.91-5.33,5.85-8.13,8.65a11.3,11.3,0,0,1-4.11,2.76,23,23,0,0,1-7.1,1.49,7.7,7.7,0,0,1-2.58-.1c-1-.32-2-.69-3-1-3.22-1.15-6.44-2.33-9.73-3.28-.05-.08-.07-.18-.19-.19h0a5.23,5.23,0,0,0,.07-.68c0-1.48.31-1.53-1.52-1.23-.71.11-.71.14-.57.94a.34.34,0,0,1-.16.41c-1.63-.6-3.34-.92-5.06-1.68a34.21,34.21,0,0,1,6.91-1.41,36,36,0,0,0,8.19-1.7,18.76,18.76,0,0,0,3.14-1.72c.34-.2.17-.35-.09-.47l1-.47c1.43-.68,2.92-1.21,4.39-1.8a8.39,8.39,0,0,0,2.7.64c.9,0,1.79.09,2.69.18a17.31,17.31,0,0,1,3.65.48,7,7,0,0,1,.23,1.88c0,1.82-.58,2.55-2.32,3.13,0,0,0,.11-.05.2l4.49,1.26a.61.61,0,0,0,.64-.16,3.69,3.69,0,0,0,.93-1.21c-.93-.34-1.79-.67-2.66-1-.48-.16-.65-.36-.55-.93a8.2,8.2,0,0,0-1.86-6.68l0,0a.43.43,0,0,0-.32-.4c-.43-.4-.61-1-1.44-1a34.62,34.62,0,0,0-9.08,1c-2.35.65-4.78.77-7.14,1.29-.29-.58-.79-.48-1.28-.39C168.42,120.82,166.87,121.36,165.29,121.79Zm48-27.28.13.18,0,0,.36.17,0,.07.08,0a1.28,1.28,0,0,1,.49,1.4,19.06,19.06,0,0,1-.45,2.15,1.86,1.86,0,0,0,.42,1.94,33.84,33.84,0,0,0,2.49,2.59c.13.11.39.18.19.53-1.56-.24-2.93-1.25-4.59-1.44.17,1,.79,1.86.9,2.87-.8,0-1.32-.52-2-.69-.18,1-.37,2-.53,3a2.11,2.11,0,0,0,0,.79,3.47,3.47,0,0,1-.12,2.16,1.28,1.28,0,0,0-.07.39c-.05.43.1.68.58.73a9.38,9.38,0,0,1,1.67.27,30.33,30.33,0,0,0,4.73.79,1.22,1.22,0,0,1,.75.19c-.91.36-1.87.26-2.76.79l2.06.8c-.55.21-1-.13-1.38.09a.7.7,0,0,0,.08.5,13,13,0,0,1,.81,7.82c-.24,1.11-.21,1.12.81,1.73a1.58,1.58,0,0,1,.33.22c.28.29.48.14.62-.13a8.76,8.76,0,0,0,.66-1.34,18.24,18.24,0,0,1,1.95-4.14,21.45,21.45,0,0,0,3-9,11.11,11.11,0,0,0-.49-5.31c-.74-2-1.53-4-2.29-6a8.85,8.85,0,0,0-1.26-2.37,31.1,31.1,0,0,0-3.65-4c-.22-.2-.42-.44-.75-.45v0l-.09-.18c0-.22-.23-.38-.39-.32-.42.15-.64-.16-.93-.32-.3-.48-.56-1-1.16-1.18-.06.09-.09.12-.08.15a.43.43,0,0,0,0,.19,4,4,0,0,1,0,3.37c-.1.27-.34.5-.26.83C213.18,94.49,213.18,94.54,213.31,94.51Zm-8.8-9.89a.74.74,0,0,1-.22-.1l-.21-.07a.54.54,0,0,1-.39-.14l-.05,0,0-.07a1.87,1.87,0,0,0-1.13-.28,28.06,28.06,0,0,0-4.85-.06,8.52,8.52,0,0,1-2.47-.15c-.61-.14-1.3-.08-1.8-.59.19,0,.41,0,.5-.2s-.09-.27-.25-.33a.55.55,0,0,1,0-.44,1,1,0,0,0-.71-1.25.33.33,0,0,0-.15-.34,3.38,3.38,0,0,0-1.83-.21l-.19.06a1.61,1.61,0,0,0-.38.16l-.62.26a3.68,3.68,0,0,1-.34.16c-.41.23-.66.67-1.17.81-.27.08-.15.37,0,.56a.49.49,0,0,0,.29.47,2.69,2.69,0,0,0,.65.94c.08.56.65.54,1,.83.1.68.33,1.25,1.2,1.39a3.24,3.24,0,0,1,.18-1.56c.39.07.51.7,1,.48l0,0,.06,0a1.17,1.17,0,0,0,.89.16,10.52,10.52,0,0,0,1.47.26,4.92,4.92,0,0,1,2.84,1.09,8,8,0,0,0,.74.51,2.61,2.61,0,0,0,2.38.32,4.7,4.7,0,0,1,1.44-.37c.09.39.18.78.28,1.16a6.7,6.7,0,0,0,.61,2c.27.43.1.54-.24.73a8.83,8.83,0,0,0-2.32,1.65,1.47,1.47,0,0,0-.44,1.5,8.33,8.33,0,0,1,3.05-2.52,1.26,1.26,0,0,1,1.69.18,26.66,26.66,0,0,0,4.66,3.22,2,2,0,0,0,2.93-.78c.11-.13.22-.25.32-.38a3,3,0,0,0-.46-4.26c-.71-.6-1.41-1.2-2.14-1.78A9.51,9.51,0,0,0,207.71,86a.15.15,0,0,0-.22-.12,2.55,2.55,0,0,0-1-.46,6.32,6.32,0,0,0-1.95-.82Zm-3.77,18.61c.17.25.35.49.5.74l5.25,9.07c.12.22.18.52.56.57a2.45,2.45,0,0,0-.22-2q-7.07-12-14.11-24.11c-.35-.6-.75-.89-1.43-.69l-1.09-.32a2.06,2.06,0,0,0,.42,1l6.11,10.75c-2.72.22-5.45.16-8.18.23-.72,0-.74,0-.74.7q0,7.44-.07,14.87c0,.77,0,.78.76.78,4.06,0,8.13-.07,12.18-.15a6.66,6.66,0,0,0,3.93-1.53c.42-.32.39-.6.14-1-.47-.76-.91-1.55-1.34-2.33-1-1.75-2.06-3.42-2.91-5.22C200.73,104.14,200.57,103.66,200.74,103.23Zm.6-5a8.78,8.78,0,0,0-1.86.13c2.4,4.11,4.73,8.14,7.09,12.13A.82.82,0,0,0,207,110a8.68,8.68,0,0,0,.54-5.55c-.29-1.07-.22-1.08-1.3-.82-.93.22-1.06.12-1.61-.68a4.13,4.13,0,0,0-1.8-1.41c-.09-.83-.13-1.66-.27-2.47S202,98,201.34,98.24Zm47,9c-.09,1.88-.07,4.37-.06,6.86,0,.73,0,.74.69.75l11,.16a5,5,0,0,0,1.58-.19,8.72,8.72,0,0,0,5.64-4.71,7,7,0,0,0,.52-5.88,10.11,10.11,0,0,0-4.3-5,6.09,6.09,0,0,0-3.14-.84c-3.69,0-7.39,0-11.08,0-.81,0-.83,0-.83.82ZM225.5,142.43a.12.12,0,0,0,.12-.14q0-9.82-.07-19.66l-.07-.07-.11,0c-.55.6-1.08,1.24-1.68,1.8a32.62,32.62,0,0,1-5.63,4.45c-.44.25-.42.47-.19.86q3.67,6.24,7.32,12.48C225.26,142.24,225.29,142.43,225.5,142.43ZM189.32,118.8a11.52,11.52,0,0,0,2.07,2.06,5.29,5.29,0,0,0,2.8,1.19c1.48.2,3,.26,4.47.35a2.56,2.56,0,0,0,2.55-1.08,9.87,9.87,0,0,1,1.12-1.12c.51-.52.45-.7-.28-.88-.2,0-.4,0-.59-.09a63.07,63.07,0,0,0-10.72-.82A2.13,2.13,0,0,0,189.32,118.8ZM207.37,102c1.17-.88,1.94-3.8,1.06-4.7-.44.32-.36,1.14-1.09,1.23,0-.58,0-1.11,0-1.63a1.08,1.08,0,0,0-.71-1.18A6.16,6.16,0,0,1,204.35,94c-.24-.29-.47-.51-.92-.28a.8.8,0,0,0-.52.94,8.11,8.11,0,0,1,0,1c0,.72.13.85.87.92a14.53,14.53,0,0,0,1.48,0c-.07.4-.13.69-.18,1-.16.89-.15,1,.7,1.23a1.32,1.32,0,0,1,1,1.1C207,100.55,207.17,101.24,207.37,102Zm-19.55,32.47a3.7,3.7,0,0,0,1.8-1.21,1.6,1.6,0,0,0-.78-.08C187.61,133.13,187.61,133.13,187.82,134.43Zm30.7-9.52a1.07,1.07,0,0,0-.65-.26c-1.1-.18-1.15-.12-.84.93.08.28.06.6.36.83A5,5,0,0,0,218.52,124.91Z"/><path class="cls-2" d="M149.94,88.26q5.51,17.47,10.78,35c0,.13.1.25.15.37a4.64,4.64,0,0,1-1.11.62c-.6.32-1.24.59-1.81,1s0,.36.19.43a2.07,2.07,0,0,1-.78.6c-1.06.62-2.15,1.2-3.19,1.86a1.13,1.13,0,0,1-1.37.07,2.32,2.32,0,0,0-.46-.18c-3.23-1-6.46-2-9.69-3-1.78-.56-3.56-1.08-5.34-1.62l-.14-.16a2.52,2.52,0,0,0-.16-.77l-3.81-13a16.71,16.71,0,0,0-.75-2.47c-.07,0-.16.08-.17.13-1.5,4.6-2.91,9.24-4.52,13.8a24.33,24.33,0,0,1-3-.3c-1.58-.1-3.17-.23-4.75-.35a12.59,12.59,0,0,0-4.66,0,4.67,4.67,0,0,0-1.78.62c-.29.18-.76.28-.68.8h0c-.11-.13-.22-.09-.34,0a1.74,1.74,0,0,0-.8,1.42,6.37,6.37,0,0,0,1.53,4.49,38.41,38.41,0,0,0,9.85,7.72,50.09,50.09,0,0,0,7.9,3.58c3.28,1.21,6.61,2.28,9.82,3.67,2,.84,4,1.54,6,2.29.3.1.59.34,1,.12-.22-.34-.43-.66-.65-1-4.24-6.21-8.44-12.44-12.8-18.58-.16-.22-.46-.42-.3-.77.19-.17.38,0,.56,0,.93.24,1.87.44,2.79.74a28.84,28.84,0,0,1,3.94,1.3q6.07,10,12.14,19.93a2,2,0,0,0,1.18,1c1.29.43,2.56.92,3.85,1.38.23.09.47.27.75.1a1.63,1.63,0,0,0-.29-.84L149.79,130a2.32,2.32,0,0,1-.39-1,2.5,2.5,0,0,1,.29.05c9.48,3,19,6,28.44,9,4.7,1.51,9.43,2.94,14.05,4.68,2.37.89,4.84,1.48,7.25,2.27,8.68,2.84,17.37,5.64,25.79,9.17,1,.44,2.13.6,3.17.95A109,109,0,0,0,242.21,159a1.67,1.67,0,0,1-1.11.38c-1.51.22-3,.43-4.54.62a78,78,0,0,1-18.41.71c-1.85-.18-3.71-.27-5.56-.49-3-.36-6.06-.8-9.09-1.21-6.89-.94-13.73-2.14-20.49-3.76-3.82-.92-7.62-1.88-11.5-2.54a4.09,4.09,0,0,0-1.32-.13c.65.24,1.25.5,1.88.68,2.78.79,5.56,1.59,8.35,2.34,2.35.63,4.71,1.18,7.07,1.77,0,1.06,0,2.13,0,3.19s-.38,1.33-1.42,1.36c-.16,0-.33,0-.5,0H150.06c-.17,0-.33,0-.5,0-.74,0-1-.16-1.19-.82-.75-2.31-1.48-4.62-2.23-6.93-.29-.92-.61-1.83-.9-2.75a.83.83,0,0,0-1-.68c-.2,0-.4,0-.6,0h-23c-.23,0-.47,0-.7,0s-.54.16-.63.49c-.74,2.49-1.49,5-2.21,7.46q-.27,1-.63,1.89a1.66,1.66,0,0,1-1.77,1.16c-2.43,0-4.86,0-7.29.06-3.82.14-7.64.17-11.47.21-.79,0-1.59.1-2.39.09-1.2,0-1.57-.5-1.21-1.64.93-3,1.88-5.9,2.81-8.85q3.87-12.12,7.71-24.25c1.77-5.59,3.46-11.19,5.28-16.75.71-2.18,1.45-4.36,2.16-6.54.27-.81.25-.82-.44-1.27l-1.52-1a3.93,3.93,0,0,1-1.11-1,1.13,1.13,0,0,1,0-1.62,1.3,1.3,0,0,1,1.75-.48,28.73,28.73,0,0,1,2.44,1.56c.37-.17.3-.56.39-.85q2.73-8.51,5.44-17c.29-.92.59-1.83.86-2.76a1.07,1.07,0,0,1,1.16-.87c.64,0,1.27,0,1.9,0h24a4.08,4.08,0,0,1,.7,0,1.47,1.47,0,0,1,1.2.74Z"/><path class="cls-3" d="M187.49,157.4c-2.36-.59-4.72-1.14-7.07-1.77-2.79-.75-5.57-1.55-8.35-2.34-.63-.18-1.23-.44-1.88-.68a4.09,4.09,0,0,1,1.32.13c3.88.66,7.68,1.62,11.5,2.54,6.76,1.62,13.6,2.82,20.49,3.76,3,.41,6.06.85,9.09,1.21,1.85.22,3.71.31,5.56.49a78,78,0,0,0,18.41-.71c1.51-.19,3-.4,4.54-.62a1.67,1.67,0,0,0,1.11-.38l.82.15c.19,0,.38,0,.44-.22.54,0,.65,0,.51.42a1.53,1.53,0,0,1-.86.78,18.33,18.33,0,0,1-3.37,1.22l-2.3.68a66.53,66.53,0,0,1-7.7,1,81.16,81.16,0,0,1-16.92-.78c-4-.63-8.05-1.07-12-1.9-3-.64-6-1.39-9-2.15A32.9,32.9,0,0,0,187.49,157.4Z"/><path class="cls-2" d="M262.62,34.67a8.51,8.51,0,0,1,.95-1.51,12.19,12.19,0,0,0,2-5.58A11.35,11.35,0,0,0,263.48,20a20.83,20.83,0,0,0-8.78-7l-1.23-.55c.08-.35.27-.25.41-.2,4.57,1.73,8.54,4.24,10.87,8.73a12.08,12.08,0,0,1-.36,12.12,4.32,4.32,0,0,1-1.65,1.69Z"/><path class="cls-3" d="M158.14,125.65c-.24-.07-.63-.15-.19-.43s1.21-.64,1.81-1a4.64,4.64,0,0,0,1.11-.62l4.42-1.85c1.58-.43,3.13-1,4.75-1.28.49-.09,1-.19,1.28.39-.25.07-.5.16-.76.21a50.89,50.89,0,0,0-9.46,3.12C160.1,124.66,159.18,125.28,158.14,125.65Z"/><path class="cls-2" d="M52.28,48.27a.91.91,0,0,1-.37,0A19.12,19.12,0,0,1,48,45.84c-.14-.12-.36-.26-.28-.47a.5.5,0,0,1,.61-.21,1.7,1.7,0,0,1,.62.3c1.11.89,2.19,1.8,3.36,2.62Z"/><path class="cls-2" d="M89.35,72.24c-.39.07-.51-.16-.67-.32l-1.53-1.56a1.62,1.62,0,0,1-.42-.55.43.43,0,0,1,.07-.46.4.4,0,0,1,.46-.1,1.09,1.09,0,0,1,.54.41A9.84,9.84,0,0,1,89.35,72.24Z"/><path class="cls-2" d="M80.32,48.55a.45.45,0,0,1-.75,0L77.69,46.2c-.1-.13-.21-.28-.07-.44a.41.41,0,0,1,.46-.06.81.81,0,0,1,.31.24Z"/><path class="cls-2" d="M213.54,13.48a6.41,6.41,0,0,1,2.27-1c.65-.11,1.2.06,1.13.31-.13.46-.58.5-1,.54A9.49,9.49,0,0,1,213.54,13.48Z"/><path class="cls-2" d="M222.31,67.75a5.86,5.86,0,0,1-2.92,1.79A3.84,3.84,0,0,1,222.31,67.75Z"/><path class="cls-2" d="M268.47,66c.73-.42,1.46-.85,2.19-1.26a.75.75,0,0,1,.67,0c.22.09.3.25.11.45a.36.36,0,0,1-.16.11,13,13,0,0,1-2.74,1Z"/><path class="cls-2" d="M41.5,74.66A14.19,14.19,0,0,1,46,74.8,8.59,8.59,0,0,1,41.5,74.66Z"/><path class="cls-2" d="M290.77,85.21c-.1.25.15.7-.23.76s-.37-.39-.44-.65c-.1-.42-.16-.85-.23-1.27,0-.14,0-.29.12-.35a.41.41,0,0,1,.45.1.63.63,0,0,1,.25.51C290.71,84.61,290.74,84.9,290.77,85.21Z"/><path class="cls-2" d="M214.8,44.21a8.08,8.08,0,0,1,2.51-.72A3.92,3.92,0,0,1,214.8,44.21Z"/><path class="cls-2" d="M148.48,60.77a1.65,1.65,0,0,1-1.28.86C147.32,60.89,147.68,60.65,148.48,60.77Z"/><path class="cls-2" d="M157.16,18.08a.92.92,0,0,1,.7-.17c.21,0,.49-.09.58.21s-.12.31-.26.38-.46.41-.66.06C157.42,18.38,157.15,18.38,157.16,18.08Z"/><path class="cls-2" d="M159.36,72.46c-.1,0-.2,0-.21-.16s.4-.57.69-.56a.19.19,0,0,1,.21.17C160.07,72.13,159.65,72.46,159.36,72.46Z"/><path class="cls-2" d="M262.74,34.79c-.08.07-.14.23-.25.06s.05-.15.13-.18Z"/><path class="cls-1" d="M158.14,125.65c1-.37,2-1,3-1.42a50.89,50.89,0,0,1,9.46-3.12c.26,0,.51-.14.76-.21,2.36-.52,4.79-.64,7.14-1.29a34.62,34.62,0,0,1,9.08-1c.83,0,1,.64,1.44,1,.06.17.1.35.32.4l0,0c.3.66.62,1.31.89,2,.19.47.5,1,.26,1.5a17.31,17.31,0,0,0-3.65-.48c-.9-.09-1.79-.14-2.69-.18a8.39,8.39,0,0,1-2.7-.64c-.28-.32-.17-.59.09-.87s.58-.43.64-.94l-4.31.49c.08.46.71.41.62.9a22.8,22.8,0,0,0-6,1.84c-1.94.73-4,1.2-6,1.83a8.91,8.91,0,0,0,3,0,30.64,30.64,0,0,0,6.59-1c.26.12.43.27.09.47a18.76,18.76,0,0,1-3.14,1.72,36,36,0,0,1-8.19,1.7,34.21,34.21,0,0,0-6.91,1.41c1.72.76,3.43,1.08,5.06,1.68a7.45,7.45,0,0,0,2.18.56h0c0,.12.07.18.19.19,3.29.95,6.51,2.13,9.73,3.28,1,.35,2,.72,3,1a7.7,7.7,0,0,0,2.58.1,23,23,0,0,0,7.1-1.49,11.3,11.3,0,0,0,4.11-2.76c2.8-2.8,5.44-5.74,8.13-8.65,1.43-1.53,2.75-3.16,4.33-4.55,1.1-1,2.32-1.79,3.47-2.69a3.32,3.32,0,0,0,.95-1.12c.5-1,1.1-2,1.63-3a1.07,1.07,0,0,1,1-.61c2.37,0,3.06.48,4.2,2.54a11,11,0,0,1,.9,2.65c.05.22.15.45,0,.67a8.14,8.14,0,0,1-2.83,2.9c.28-1.31.86-2.32,1-3.52a1.56,1.56,0,0,0-1.53,1.11,12.36,12.36,0,0,1-2.48,4.52c-.16.17-.26.39-.51.45l-.1-.08c0-.39.23-.69.34-1a1.6,1.6,0,0,0,.05-1.11c-.06,0-.14,0-.18,0-2.22,2.41-4.93,4.25-7.43,6.33-3.87,3.21-7.9,6.21-11.94,9.19a10.5,10.5,0,0,1-5.56,2.26,25.29,25.29,0,0,0,3.93,1.34c.68.42,1.5.47,2.19.85a3.42,3.42,0,0,0,1.81.69c3.48,1.23,7,2.42,10.44,3.68,6.38,2.31,12.79,4.53,19.22,6.71,3.64,1.23,7.26,2.53,10.92,3.73,2.14.71,4.33,1.29,6.5,1.91a9.53,9.53,0,0,1,3.1,1.35c-.06.25-.25.25-.44.22l-.82-.15a109,109,0,0,1-13.82-3.87c-1-.35-2.13-.51-3.17-.95-8.42-3.53-17.11-6.33-25.79-9.17-2.41-.79-4.88-1.38-7.25-2.27-4.62-1.74-9.35-3.17-14.05-4.68-9.47-3-19-6-28.44-9a2.5,2.5,0,0,0-.29-.05c-2.52-.9-5.09-1.65-7.65-2.44a.94.94,0,0,0-.29,0,28.84,28.84,0,0,0-3.94-1.3c-.92-.3-1.86-.5-2.79-.74-.18,0-.37-.16-.56,0v0c.07-.25-.12-.17-.23-.19a1.3,1.3,0,0,0-.26-.14,85.45,85.45,0,0,0-10.13-2.21,32.74,32.74,0,0,0-7.66-.29c-.86.09-1.72.13-2.57.29-.43.08-.43-.14-.37-.45h0a2,2,0,0,0,.37-.1,9.61,9.61,0,0,1,3.41-1,25,25,0,0,0,3.34-.32c1.58.12,3.17.25,4.75.35a24.33,24.33,0,0,0,3,.3.24.24,0,0,0,.08.06c2.76.65,5.56,1.17,8.27,2.07a1.67,1.67,0,0,0,1.06.16c0,.12,0,.18.14.16,1.78.54,3.56,1.06,5.34,1.62,3.23,1,6.46,2,9.69,3a2.32,2.32,0,0,1,.46.18,1.13,1.13,0,0,0,1.37-.07c1-.66,2.13-1.24,3.19-1.86A2.07,2.07,0,0,0,158.14,125.65Z"/><path class="cls-1" d="M216.1,91.83c.33,0,.53.25.75.45a31.1,31.1,0,0,1,3.65,4,8.85,8.85,0,0,1,1.26,2.37c.76,2,1.55,4,2.29,6a11.11,11.11,0,0,1,.49,5.31,21.45,21.45,0,0,1-3,9,18.24,18.24,0,0,0-1.95,4.14,8.76,8.76,0,0,1-.66,1.34c-.14.27-.34.42-.62.13a1.58,1.58,0,0,0-.33-.22c-1-.61-1.05-.62-.81-1.73a13,13,0,0,0-.81-7.82.7.7,0,0,1-.08-.5c.4-.22.83.12,1.38-.09l-2.06-.8c.89-.53,1.85-.43,2.76-.79a1.22,1.22,0,0,0-.75-.19,30.33,30.33,0,0,1-4.73-.79,9.38,9.38,0,0,0-1.67-.27c-.48,0-.63-.3-.58-.73a1.28,1.28,0,0,1,.07-.39,3.47,3.47,0,0,0,.12-2.16,2.11,2.11,0,0,1,0-.79c.16-1,.35-2,.53-3,.67.17,1.19.72,2,.69-.11-1-.73-1.84-.9-2.87,1.66.19,3,1.2,4.59,1.44.2-.35-.06-.42-.19-.53a33.84,33.84,0,0,1-2.49-2.59,1.86,1.86,0,0,1-.42-1.94,19.06,19.06,0,0,0,.45-2.15,1.28,1.28,0,0,0-.49-1.4l0-.06h-.07l-.36-.17,0,0-.13-.18a.1.1,0,0,0-.08-.12c-.08-.33.16-.56.26-.83a4,4,0,0,0,0-3.37.43.43,0,0,1,0-.19s0-.06.08-.15c.6.17.86.7,1.16,1.18a11.32,11.32,0,0,0,1.48,2.25C216.43,92.68,216,92.27,216.1,91.83Z"/><path class="cls-1" d="M219.3,135.31c-1-1.76-2-3.51-3-5.27-.38-.67-.37-.68.34-1.33l2.67,4.45c2.23,3.74,4.53,7.45,6.66,11.25a27.57,27.57,0,0,0,3.33,4.17c1.15,1.37,2.28,2.77,3.41,4.17a11.49,11.49,0,0,1,1.39,2.28c-.16.25-.36.09-.52,0-1.84-.59-3.67-1.21-5.51-1.78a.92.92,0,0,1-.7-.85c-.21-1.35-.46-2.69-.69-4a3.09,3.09,0,0,0-.25-1c-1-1.76-2-3.5-3.08-5.25a5.86,5.86,0,0,0-.69-1.31C221.53,139,220.52,137.11,219.3,135.31Z"/><path class="cls-1" d="M189.32,118.8a2.13,2.13,0,0,1,1.42-.39,63.07,63.07,0,0,1,10.72.82c.19,0,.39,0,.59.09.73.18.79.36.28.88a9.87,9.87,0,0,0-1.12,1.12,2.56,2.56,0,0,1-2.55,1.08c-1.5-.09-3-.15-4.47-.35a5.29,5.29,0,0,1-2.8-1.19A11.52,11.52,0,0,1,189.32,118.8Z"/><path class="cls-3" d="M202.36,87a1.54,1.54,0,0,1,1.51.23,7,7,0,0,0,2.57,1.08c-.58.33-1.07.09-1.53.36.07.29.33.37.55.47a19.9,19.9,0,0,1,5.15,3.53,5.67,5.67,0,0,0,2,1.45,2,2,0,0,1-2.93.78A26.66,26.66,0,0,1,205,91.66a1.26,1.26,0,0,0-1.69-.18A8.33,8.33,0,0,0,200.25,94a1.47,1.47,0,0,1,.44-1.5A8.83,8.83,0,0,1,203,90.85c.34-.19.51-.3.24-.73a6.7,6.7,0,0,1-.61-2C202.54,87.76,202.45,87.37,202.36,87Z"/><path class="cls-1" d="M191.29,86.82c.68-.2,1.08.09,1.43.69q7,12.08,14.11,24.11a2.45,2.45,0,0,1,.22,2c-.38,0-.44-.35-.56-.57L201.24,104c-.15-.25-.33-.49-.5-.74a7.94,7.94,0,0,0-.83-1.58Z"/><path class="cls-3" d="M176,124.46a30.64,30.64,0,0,1-6.59,1,8.91,8.91,0,0,1-3,0c2-.63,4-1.1,6-1.83a22.8,22.8,0,0,1,6-1.84c.09-.49-.54-.44-.62-.9l4.31-.49c-.06.51-.41.69-.64.94s-.37.55-.09.87c-1.47.59-3,1.12-4.39,1.8Z"/><path class="cls-3" d="M213.14,131.78l-.06.08c-1.66,1.88-3.82,2.26-6.18,2.09a27.84,27.84,0,0,1-5.19-.93,8.33,8.33,0,0,1,1.55-1.06,1.18,1.18,0,0,1,.86-.13l1.79.22a10.5,10.5,0,0,0,7.22-1.74c.49-.32.76-.92,1.36-1.1.1.48-.43.75-.41,1.21v0l-.13.18C213.66,131,213.2,131.24,213.14,131.78Z"/><path class="cls-1" d="M207.37,102c-.2-.72-.4-1.41-.56-2.11a1.32,1.32,0,0,0-1-1.1c-.85-.25-.86-.34-.7-1.23,0-.29.11-.58.18-1a14.53,14.53,0,0,1-1.48,0c-.74-.07-.84-.2-.87-.92a8.11,8.11,0,0,0,0-1,.8.8,0,0,1,.52-.94c.45-.23.68,0,.92.28a6.16,6.16,0,0,0,2.29,1.72,1.08,1.08,0,0,1,.71,1.18c0,.52,0,1,0,1.63.73-.09.65-.91,1.09-1.23C209.31,98.16,208.54,101.08,207.37,102Z"/><path class="cls-3" d="M191.29,86.82l8.62,14.83a7.94,7.94,0,0,1,.83,1.58c-.17.43,0,.91-.24,1.33-1.07-1.59-1.92-3.29-2.9-4.92a8.57,8.57,0,0,0-.87-1.42l-6.11-10.75a2.06,2.06,0,0,1-.42-1Z"/><path class="cls-3" d="M190.43,123.49c.24-.55-.07-1-.26-1.5-.27-.67-.59-1.32-.89-2a8.2,8.2,0,0,1,1.86,6.68c-.1.57.07.77.55.93.87.3,1.73.63,2.66,1a3.69,3.69,0,0,1-.93,1.21.61.61,0,0,1-.64.16l-4.49-1.26c0-.09,0-.19.05-.2,1.74-.58,2.29-1.31,2.32-3.13A7,7,0,0,0,190.43,123.49Z"/><path class="cls-3" d="M219.3,135.31c1.22,1.8,2.23,3.73,3.34,5.58a5.86,5.86,0,0,1,.69,1.31c-.19.49,0,1.05-.28,1.52-.34-.2-.44-.56-.62-.87-1.11-1.95-2.32-3.85-3.34-5.85C219.33,136.46,219.08,135.86,219.3,135.31Z"/><path class="cls-3" d="M198.11,134.83c-1.79,1-3.61,2-5.48,2.85a7.13,7.13,0,0,0-1.46.85,1.11,1.11,0,0,0-.5.82c0,.71-.17.93.54,1.2.15.07.31.12.27.34-.69-.38-1.51-.43-2.19-.85.23-.5.46-1,.71-1.52a2.39,2.39,0,0,1,1.38-1.06c1.52-.67,3-1.31,4.58-1.93A7.74,7.74,0,0,1,198.11,134.83Z"/><path class="cls-1" d="M190.69,80.49l.19-.06a6,6,0,0,0,1.83.21.33.33,0,0,1,.15.34c-.08.28.12.59-.08.85-1.85,0-2.13.12-3.1,1.71a.57.57,0,0,1-.56.31,2.69,2.69,0,0,1-.65-.94.37.37,0,0,0-.29-.47c-.15-.19-.27-.48,0-.56.51-.14.76-.58,1.17-.81.2-.17.26-.18.34-.16l.62-.26C190.47,80.53,190.55,80.48,190.69,80.49Z"/><path class="cls-1" d="M193.6,82.67c.16.06.33.14.25.33s-.31.19-.5.2a2.27,2.27,0,0,0-1.89,1.31,3.24,3.24,0,0,0-.18,1.56c-.87-.14-1.1-.71-1.2-1.39.08-1.13.08-1.13,1.08-1.11,0,0,0-.07,0-.09l-.18-.22c-.29-.38-.26-.54.18-.68a3.7,3.7,0,0,1,.58-.1A6.07,6.07,0,0,1,193.6,82.67Z"/><path class="cls-2" d="M191.46,84.51a2.27,2.27,0,0,1,1.89-1.31c.5.51,1.19.45,1.8.59a8.52,8.52,0,0,0,2.47.15,28.06,28.06,0,0,1,4.85.06,1.87,1.87,0,0,1,1.13.28c-1.65,0-3.29-.3-5-.2a10.62,10.62,0,0,1-2.76,0,9.44,9.44,0,0,1-1.56-.27,1.87,1.87,0,0,0-2,.48c-.49.4,0,.49.18.67C192,85.21,191.85,84.58,191.46,84.51Z"/><path class="cls-2" d="M193.6,82.67a6.07,6.07,0,0,0-1.85-.19,3.7,3.7,0,0,0-.58.1c-.44.14-.47.3-.18.68l.18.22s0,.06,0,.09c-1,0-1,0-1.08,1.11-.31-.29-.88-.27-1-.83a.57.57,0,0,0,.56-.31c1-1.59,1.25-1.74,3.1-1.71.2-.26,0-.57.08-.85a1,1,0,0,1,.71,1.25A.55.55,0,0,0,193.6,82.67Z"/><path class="cls-1" d="M214.08,130.42c0-.46.51-.73.41-1.21h0c.26-.08.18-.32.22-.5.49-.29.61-.82.83-1.29a16.58,16.58,0,0,1,.75-1.61,2.35,2.35,0,0,1-.13,2.36A12.21,12.21,0,0,1,214.08,130.42Z"/><path class="cls-3" d="M202.87,101.51c-.65.22-.7-.27-.79-.68-.12-.57-.22-1.15-.33-1.72a1.54,1.54,0,0,0-.41-.87c.65-.23,1.13,0,1.26.8S202.78,100.68,202.87,101.51Z"/><path class="cls-1" d="M218.52,124.91a5,5,0,0,1-1.13,1.5c-.3-.23-.28-.55-.36-.83-.31-1-.26-1.11.84-.93A1.07,1.07,0,0,1,218.52,124.91Z"/><path class="cls-1" d="M216.1,91.83c-.09.44.33.85.08,1.45A11.32,11.32,0,0,1,214.7,91c.29.16.51.47.93.32.16-.06.35.1.39.32l.09.18Z"/><path class="cls-1" d="M204.91,85.13l-.39-.5a6.32,6.32,0,0,1,1.95.82l-.75,0A1.21,1.21,0,0,1,204.91,85.13Z"/><path class="cls-1" d="M192.71,80.64a6,6,0,0,1-1.83-.21A3.38,3.38,0,0,1,192.71,80.64Z"/><path class="cls-1" d="M192.6,85a1.17,1.17,0,0,1,.89.16A1.17,1.17,0,0,1,192.6,85Z"/><path class="cls-1" d="M188.18,82.44a.37.37,0,0,1,.29.47A.49.49,0,0,1,188.18,82.44Z"/><path class="cls-3" d="M189.3,120c-.22,0-.26-.23-.32-.4A.43.43,0,0,1,189.3,120Z"/><path class="cls-3" d="M214.7,128.72c0,.18,0,.42-.22.5C214.43,129,214.62,128.88,214.7,128.72Z"/><path class="cls-4" d="M213.44,94.69l0,0Z"/><polygon class="cls-4" points="213.77 94.83 213.84 94.82 213.87 94.88 213.79 94.9 213.77 94.83"/><path class="cls-4" d="M214,130.58l.13-.18Z"/><path class="cls-1" d="M207.71,86a.16.16,0,0,1-.22-.12A.15.15,0,0,1,207.71,86Z"/><path class="cls-4" d="M165.31,132.19c-.12,0-.19-.07-.19-.19S165.26,132.11,165.31,132.19Z"/><path class="cls-1" d="M210.18,123.09c-.06.09-.11.27-.25.09s0-.16.15-.17Z"/><path class="cls-4" d="M213.23,94.39a.1.1,0,0,1,.08.12C213.18,94.54,213.18,94.49,213.23,94.39Z"/><path class="cls-1" d="M216.11,91.85l-.09-.18Z"/><path class="cls-3" d="M113,121.61c-.06.31-.06.53.37.45.85-.16,1.71-.2,2.57-.29a32.74,32.74,0,0,1,7.66.29,85.45,85.45,0,0,1,10.13,2.21,1.3,1.3,0,0,1,.26.14c0,.12.08.2.23.19v0c-.16.35.14.55.3.77,4.36,6.14,8.56,12.37,12.8,18.58.22.32.43.64.65,1-.46.22-.75,0-1-.12-2-.75-4-1.45-6-2.29-3.21-1.39-6.54-2.46-9.82-3.67a50.09,50.09,0,0,1-7.9-3.58,38.41,38.41,0,0,1-9.85-7.72,6.37,6.37,0,0,1-1.53-4.49,1.74,1.74,0,0,1,.8-1.42C112.73,121.52,112.84,121.48,113,121.61Z"/><path class="cls-3" d="M141.46,126.59a.94.94,0,0,1,.29,0c2.56.79,5.13,1.54,7.65,2.44a2.32,2.32,0,0,0,.39,1l9.3,18.09a1.63,1.63,0,0,1,.29.84c-.28.17-.52,0-.75-.1-1.29-.46-2.56-1-3.85-1.38a2,2,0,0,1-1.18-1Q147.56,136.55,141.46,126.59Z"/><path class="cls-3" d="M120.05,120.23a25,25,0,0,1-3.34.32,9.61,9.61,0,0,0-3.41,1,2,2,0,0,1-.37.1c-.08-.52.39-.62.68-.8a4.67,4.67,0,0,1,1.78-.62A12.59,12.59,0,0,1,120.05,120.23Z"/><path class="cls-4" d="M137.31,123.33c-.13,0-.17,0-.14-.16Z"/><path class="cls-2" d="M134.17,124.6c-.15,0-.2-.07-.23-.19S134.24,124.35,134.17,124.6Z"/><path class="cls-2" d="M204.91,85.13a1.21,1.21,0,0,0,.81.36c-.05.09.11.24,0,.21a5.15,5.15,0,0,0-3-.26,1.26,1.26,0,0,1-1.16-.31A8.35,8.35,0,0,1,204.91,85.13Z"/><path class="cls-1" d="M203.6,84.28l.09,0a1.14,1.14,0,0,1,.39.14l.21.07.22.1h0l.39.5a8.35,8.35,0,0,0-3.34,0,1.26,1.26,0,0,0,1.16.31,5.15,5.15,0,0,1,3,.26c.07,0-.09-.12,0-.21l.75,0a2.55,2.55,0,0,1,1,.46.16.16,0,0,0,.22.12,9.51,9.51,0,0,1,2.59,1.65c.73.58,1.43,1.18,2.14,1.78a3,3,0,0,1,.46,4.26c-.1.13-.21.25-.32.38a5.67,5.67,0,0,1-2-1.45,19.9,19.9,0,0,0-5.15-3.53c-.22-.1-.48-.18-.55-.47.46-.27,1,0,1.53-.36a7,7,0,0,1-2.57-1.08,1.54,1.54,0,0,0-1.51-.23,4.7,4.7,0,0,0-1.44.37,2.61,2.61,0,0,1-2.38-.32,8,8,0,0,1-.74-.51A4.92,4.92,0,0,0,195,85.43a10.52,10.52,0,0,1-1.47-.26,1.17,1.17,0,0,0-.89-.16l-.06,0,0,0c-.21-.18-.67-.27-.18-.67a1.87,1.87,0,0,1,2-.48,9.44,9.44,0,0,0,1.56.27,10.62,10.62,0,0,0,2.76,0c1.67-.1,3.31.2,5,.2"/></svg>