<svg id="frames" xmlns="http://www.w3.org/2000/svg" viewBox="0 0 384 216"><defs><style>.cls-1{fill:#0e1a32;}.cls-2{fill:#fa0203;}.cls-3{fill:#f5f3f4;}.cls-4{fill:#d6d7d0;}.cls-5{fill:#0f1b33;}</style></defs><path class="cls-1" d="M165.46,124c0-.4,0-.8,0-1.2,0-7.43,0-14.85-.05-22.28q-.07-7.89,0-15.79c0-1.56.09-3.12.16-4.69a1,1,0,0,1,.73-1,2.82,2.82,0,0,1,1.08-.1q9.84,0,19.69,0,7.83,0,15.68.16a48.89,48.89,0,0,1,5.68.29,30,30,0,0,1,15.73,8.28c.57.6,1.11,1.23,1.67,1.85a34.85,34.85,0,0,1,3.35,8.91,2.4,2.4,0,0,0,.13-.68c.16-2.06.31-4.11.46-6.17q.44-6.21.86-12.43c1.93-.06,3.86-.07,5.79,0l.7,0c5.53,0,11.07-.1,16.6,0,3.93.07,7.86,0,11.79.16a26.74,26.74,0,0,1,17.37,7.06,25.79,25.79,0,0,1,8.3,15.11A26.3,26.3,0,0,1,284.88,124a26.64,26.64,0,0,1-16,9,29.94,29.94,0,0,1-5.26.42H249c-.39,0-.53.2-.52.56,0,.17,0,.33,0,.5-.16,8.6,0,17.19-.07,25.79v.7c0,1-.45,1.43-1.4,1.45a19.34,19.34,0,0,1-3.49-.09l2.43-1.08a1.1,1.1,0,0,0,.72-.75c.09-.46-.15-.5-.51-.34a9.74,9.74,0,0,0-2.92-1.27c-2.36-.68-4.72-1.35-7.06-2.11-2.62-.86-5.22-1.74-7.83-2.65-4.93-1.72-9.88-3.4-14.81-5.12-5.41-1.89-10.76-3.93-16.2-5.7A.41.41,0,0,1,197,143c3.42,1.1,6.87,2.13,10.26,3.32,5.37,1.9,10.73,3.82,16.13,5.64.63.21,1.26.44,1.9.64s.67.11.66-.46c-.06-2.4,0-4.8-.19-7.2.21-.48.08-1,.24-1.52.62.79,1,1.73,1.53,2.56a11.81,11.81,0,0,1,2.17,5.91,8,8,0,0,0,.17,1c.36,1.72,0,1.38,1.68,1.91s3.25,1.16,4.94,1.56c.07.06.16.11.24,0s0-.17-.06-.23a1.44,1.44,0,0,0-.3-.62,52.59,52.59,0,0,0-5.53-6.92,7.49,7.49,0,0,1-1.28-1.36c-1-1.85-2.12-3.61-3.19-5.4-2.2-3.68-4.38-7.37-6.57-11-.18-.3-.3-.65-.63-.82-.74.66-.55.74-.18,1.37l3,5.19c-.25.51-.05,1.07-.18,1.58a4.1,4.1,0,0,1-.35-.47c-1.07-1.83-2.14-3.67-3.22-5.5-.35-.61-.53-.63-1.08-.2a7,7,0,0,1-1.3,1.06c0-.58.51-.83.79-1.23a11.53,11.53,0,0,0,2.32-2.56,2.09,2.09,0,0,0-.07-2.18,12.66,12.66,0,0,1-1.29,2.67,12.63,12.63,0,0,1-2,1.92,10.15,10.15,0,0,1-7.35,1.58c-.49-.08-1-.12-1.49-.18a1.29,1.29,0,0,0-.95.21c-.46.33-.93.64-1.39,1-1.21.6-2.36,1.31-3.61,1.82a14.43,14.43,0,0,0-3,1c-1.3.52-2.58,1.07-3.85,1.65a2.23,2.23,0,0,0-1.3,1c-.23.51-.47,1-.71,1.53a24.49,24.49,0,0,1-3.91-1.37,8.75,8.75,0,0,0,4.67-1.61c2.34-1.52,4.49-3.3,6.7-5a.41.41,0,0,0,.4-.29.62.62,0,0,0,.4-.29,1,1,0,0,0,.63-.49.74.74,0,0,0,.38-.3.44.44,0,0,0,.4-.31,1.35,1.35,0,0,0,.59-.49.94.94,0,0,0,.63-.5.6.6,0,0,0,.37-.31,1.49,1.49,0,0,0,.82-.7,1.38,1.38,0,0,0,.59-.48,1.08,1.08,0,0,0,.62-.51.67.67,0,0,0,.38-.3A.45.45,0,0,0,206,128a5.27,5.27,0,0,0,1.2-.89.43.43,0,0,0,.4-.31,9,9,0,0,0,1.61-1.26.47.47,0,0,0,.41-.33,1.24,1.24,0,0,0,.59-.47A1.67,1.67,0,0,0,211,124a11,11,0,0,0,2-2l.37.15-.06.46c-.29.79-.68,1.53-1,2.3.52-.45,1.14-.8,1.34-1.52l.2-.24a.38.38,0,0,0,.33-.37,1.57,1.57,0,0,0,.49-.77,2,2,0,0,0,.61-1.24.82.82,0,0,0,.22-.51,3.36,3.36,0,0,0,.57-1.49l.37-.34c.3.09.57-.32.9-.07l-.08.85a13.78,13.78,0,0,0-.74,2.07c-.06.1-.18.2-.05.31s.2,0,.28-.11a7.62,7.62,0,0,0,2.38-2.48.9.9,0,0,0,.12-.85,12.85,12.85,0,0,0-.9-2.64c-1-2-2-2.55-4.17-2.57a1.08,1.08,0,0,0-1.12.66c-.14,0-.2,0-.16.19-.49.91-1,1.81-1.45,2.73a3,3,0,0,1-.94,1.13c-1.16.9-2.36,1.73-3.46,2.7a56.54,56.54,0,0,0-4.4,4.63c-2.49,2.69-4.93,5.42-7.52,8a12.42,12.42,0,0,1-4.74,3.36,23.14,23.14,0,0,1-7.4,1.47,7.77,7.77,0,0,1-2.66-.25c-5-1.69-9.85-3.5-14.86-5l0-.48c0-.64-.09-.69-.69-.54-.44.12-.86.29-1.29.43a20.32,20.32,0,0,1-2.83-1.06,37.58,37.58,0,0,1,4.1-1c2.78-.42,5.6-.66,8.35-1.3a16.57,16.57,0,0,0,5.72-2.47c.28-.2.26-.34,0-.49.29-.16.57-.33.87-.47,1.43-.7,2.93-1.23,4.41-1.83a8.8,8.8,0,0,0,3,.68c.83,0,1.66.07,2.49.15a17.35,17.35,0,0,1,3.65.51c.06.53.17,1.05.19,1.58a2.9,2.9,0,0,1-2.17,3.36c-.05,0-.07.09-.11.13.16.22.41.21.62.27,1.06.29,2.12.56,3.18.86s1.25.25,1.9-.66c.3-.43.28-.49-.24-.68-.78-.3-1.56-.57-2.34-.86-.32-.11-.5-.3-.39-.68a7,7,0,0,0-.19-3.73,7.88,7.88,0,0,0-2-3.51c-.43-.41-.64-1-1.48-1a50,50,0,0,0-5.18.31c-1.84.29-3.65.67-5.47,1.1s-3.67.58-5.5.9c-.24-.5-.65-.5-1.11-.39-1,.25-2,.48-3,.74C168.37,122.86,167,123.54,165.46,124Zm30.12-41.74c-.07-.29-.09-.59-.5-.64a3.63,3.63,0,0,0-2.5.28,14.43,14.43,0,0,0-1.2.85c-.76.6-.79.58-.26,1.38.2.3.44.57.66.86,0,.09.06.23.12.26a2.07,2.07,0,0,1,1,1.29.84.84,0,0,0,1,.62c.07-.52-.12-1.09.33-1.5.24,0,.17.47.5.38a1,1,0,0,0,.63.14.33.33,0,0,0,.42.07,8,8,0,0,0,2.18.32.79.79,0,0,0,.62.08c.44.22.89.44,1.33.68a10.71,10.71,0,0,0,1.52.94,1.56,1.56,0,0,0,1.72.28c.65,0,1.22-.43,1.89-.41a8.8,8.8,0,0,0,.81,3c.33.56.17.71-.26,1a10.24,10.24,0,0,0-2,1.36,2.71,2.71,0,0,0-.86,1.61.91.91,0,0,0,.47-.39,9.22,9.22,0,0,1,2.61-2.07,1.36,1.36,0,0,1,1.78.21A26.13,26.13,0,0,0,212.33,96a1.92,1.92,0,0,0,2.87-.72c.19-.2.37-.42.57-.61s.22,0,.26.1c-.2.55-.21,1,.44,1.28a2.85,2.85,0,0,1,.6.51.54.54,0,0,0,.05.43c-.2.94-.37,1.89-.6,2.83a1.61,1.61,0,0,0,.32,1.49,27.22,27.22,0,0,0,2.61,2.76c.14.12.37.19.28.55-1.6-.18-2.95-1.25-4.62-1.4.16,1,.76,1.87.92,2.89a8,8,0,0,1-2-.73c-.2,1.11-.39,2.15-.56,3.2a1.47,1.47,0,0,0,0,.69,3.06,3.06,0,0,1-.1,2,2.29,2.29,0,0,0-.11.58c0,.34.09.58.48.62,2.08.25,4.09.94,6.2,1.07a2.25,2.25,0,0,1,1.1.19c-.89.41-1.87.21-2.87.76l2.09.86c-.48.2-.95-.17-1.37.1a2.15,2.15,0,0,0,.25.8,13.18,13.18,0,0,1,.83,6.57c-.08.56-.2,1.12-.29,1.68,0,.23-.08.47.22.58.11.2.47.2.44.48s-.34.2-.55.23-.37.13-.29.38c.16.5.32,1,.51,1.56a9.06,9.06,0,0,0,1.48-2.08,3,3,0,0,0,.59-1.12.59.59,0,0,0,.21-.54,20.49,20.49,0,0,1,2-4,21.23,21.23,0,0,0,2.95-8.62,11.31,11.31,0,0,0-.54-5.79c-.61-1.58-1.23-3.16-1.83-4.75a12.58,12.58,0,0,0-1.42-3.07,27,27,0,0,0-4.33-4.67c-.16-.13-.3-.38-.6-.23,0,.47.42.85.33,1.52a16.55,16.55,0,0,0-1.74-2.58c-.26-.75-.79-.84-1.45-.61a25.14,25.14,0,0,0-3.91-3.23,14.87,14.87,0,0,0-2.65-1.39c-.18-.07-.47-.23-.53,0s-.19.33-.44.23a4.91,4.91,0,0,0-2.66-.17,1.1,1.1,0,0,1-1.17-.35l2-.17a2.07,2.07,0,0,0,1.51.19,2.78,2.78,0,0,0-2.14-1,1.8,1.8,0,0,0-1-.07,2.11,2.11,0,0,0-1-.15c-1.75-.09-3.5.08-5.25.07a1.43,1.43,0,0,0-.79-.11.37.37,0,0,0-.41-.12,1.32,1.32,0,0,0-1-.17c-.2-.2-.15-.3.11-.38s.4-.27.17-.41c-.44-.26-.26-.6-.28-.94S196.2,82.16,195.58,82.28Zm8.43,17a4.43,4.43,0,0,0-2.25-.62,101.63,101.63,0,0,0,5.93,10.16,6.32,6.32,0,0,0-.12-4.43,4.7,4.7,0,0,0-2-1.72c-.08-.75-.14-1.5-.25-2.25S205,99.35,204,99.24Zm-.62,5.17c.17.24.35.48.5.74l5.31,9.15c.11.18.13.46.54.45a2.54,2.54,0,0,0-.25-2q-4.47-7.6-8.91-15.23c-1.73-3-3.48-5.9-5.18-8.87a1.26,1.26,0,0,0-1.43-.76,2.9,2.9,0,0,0-1.14-.21l2.08,3.65,4,7.13c-3.36,0-6.72.11-10.08.15-.85,0-.86,0-.86.88v6.8c0,2.63,0,5.26,0,7.9,0,.76,0,.75.78.74l11.69-.15a7,7,0,0,0,5.36-2.47c.69-.79.68-.79.17-1.71-.92-1.66-2-3.25-2.78-5Zm22.36,18.28c-.8.69-1.42,1.57-2.22,2.27a20.38,20.38,0,0,0-3.52,3.78.9.9,0,0,0-.08,1.15c1.81,3,3.59,6.06,5.38,9.09a1.6,1.6,0,0,0,.47.62.94.94,0,0,0,.51.72c.52-7.54,1.05-15,1.57-22.47l-.15,0ZM255,115.08v.13h5.1a5.29,5.29,0,0,0,1.58-.18,8.86,8.86,0,0,0,6.5-7.26,5.7,5.7,0,0,0-.33-3.43,10.46,10.46,0,0,0-4.48-4.95,5.63,5.63,0,0,0-2.76-.75c-3.77,0-7.54,0-11.3,0-.72,0-.74,0-.74.71q-.06,7.45-.1,14.89c0,.79,0,.83.83.83C251.2,115.1,253.1,115.08,255,115.08ZM192,120a5.23,5.23,0,0,0,1,1.18,6.64,6.64,0,0,0,4.27,2.14,50.67,50.67,0,0,0,5.08.25.93.93,0,0,0,.78-.32c.59-.63,1.21-1.23,1.81-1.86s.42-.69-.22-.87l-.29-.06a68.22,68.22,0,0,0-11.33-.86A1.62,1.62,0,0,0,192,120Zm18-20.24c0-.66,0-1.15,0-1.64a1.19,1.19,0,0,0-.8-1.33A6,6,0,0,1,207,95.12c-.21-.24-.42-.53-.84-.31s-.69.37-.6.9a5.25,5.25,0,0,1,0,1.19.67.67,0,0,0,.7.78c.52,0,1.05.06,1.57.08a2.58,2.58,0,0,1-.11,1c-.12.81-.11.91.7,1.15a1.39,1.39,0,0,1,1,1.19c.14.67.36,1.33.56,2a4.35,4.35,0,0,0,1.06-4.76C210.75,98.78,210.66,99.41,210,99.77Zm-16.45,33.86a41.4,41.4,0,0,0-5.2-.26c-.29,0-.42.15-.42.43v2.49c0,.38.22.43.53.35A12.57,12.57,0,0,0,193.56,133.63Z"/><path class="cls-1" d="M149.88,87.66c4,12.57,7.79,25.17,11.63,37.78,0,.13.07.26.1.39a9.65,9.65,0,0,0-1,.59c-.32.26,0,.35.17.44l-.06.08c-1.34,1-2.89,1.65-4.26,2.59-.29.2-.57.06-.86,0-4.33-1.4-8.65-2.85-13-4.13-1.72-.51-3.46-1-5.14-1.6,0-.23-.07-.46-.13-.68q-2.19-7.5-4.39-15c-.09-.28,0-.67-.46-.85-.12.35-.23.66-.33,1-.72,2.28-1.4,4.58-2.18,6.83s-1.44,4.56-2.39,6.76H126.4a.34.34,0,0,0-.37,0,1.34,1.34,0,0,0-.84-.07,9.14,9.14,0,0,0-1.81-.22,16.84,16.84,0,0,0-5.16-.08,5.4,5.4,0,0,0-2,.66c-.31.2-.74.34-.68.85l-.08.08c-.79,0-.91.59-1,1.11a5.6,5.6,0,0,0,1.24,4.28,30.19,30.19,0,0,0,5.8,5.32,52.64,52.64,0,0,0,11.83,6.17c3.54,1.26,7.11,2.45,10.58,3.93,1.9.8,3.85,1.48,5.78,2.2.19.07.41.28.65,0a2.35,2.35,0,0,0-.53-.93c-4.25-6.24-8.48-12.51-12.86-18.67-.17-.24-.31-.51-.46-.76a46.3,46.3,0,0,1,7.65,2.17,4.12,4.12,0,0,0,.5,1c1,1.68,2,3.36,3.06,5,2.82,4.63,5.66,9.27,8.48,13.91a1.71,1.71,0,0,0,.95.82c1.38.48,2.75,1,4.14,1.48.19.07.41.26.62,0a1.65,1.65,0,0,0-.31-.82c-2.41-4.72-4.84-9.43-7.25-14.14-.81-1.61-1.7-3.17-2.42-4.82a6.66,6.66,0,0,1,.77.19c10.87,3.48,21.8,6.79,32.64,10.37,8.94,2.95,17.92,5.79,26.84,8.82,6.33,2.15,12.58,4.55,18.88,6.79,2.94,1.05,5.94,2,9,2.72l4.94,1.21c-.36.08-.71.18-1.07.24-1.54.3-3.1.42-4.64.66a87.82,87.82,0,0,1-24.18.2c-3.56-.42-7.11-1-10.67-1.45a199.3,199.3,0,0,1-19.7-3.72c-3.27-.79-6.52-1.64-9.85-2.16a1.31,1.31,0,0,0-1,.06,4.59,4.59,0,0,0,.8.36c2.08.45,4.1,1.14,6.16,1.68,2.29.59,4.57,1.21,6.85,1.81,0,1-.08,1.93-.13,2.89s-.35,1.24-1.27,1.29H150.17c-1.34,0-1.35,0-1.75-1.27-1-3-2-6-2.94-9-.3-.9-.31-.9-1.28-.9H120.6c-.9,0-.9,0-1.15.86-.75,2.59-1.65,5.13-2.25,7.76,0,.13-.08.26-.12.39-.85,2.19-1.11,2-2.82,2-2.43,0-4.86,0-7.29.08-3.59.13-7.18.18-10.78.22-.86,0-1.73.09-2.59.06-1,0-1.38-.51-1.07-1.5.74-2.39,1.5-4.77,2.26-7.14,0-.09.07-.19.11-.29l.15-.44.12-.33a.17.17,0,0,1,0-.12,3.5,3.5,0,0,0,.41-.9c1.26-2.87,2.22-5.86,3.37-8.78,3.53-9,7-18.08,10.43-27.12.48-1.25,1-2.5,1.44-3.73.16-.39.1-.62-.28-.8a14.34,14.34,0,0,0-2-1c-1.77-1.11-3.69-2-5.5-3a8.11,8.11,0,0,1-.86-.51,1,1,0,0,1-.28-1.4,1,1,0,0,1,1.41-.13l4.76,3.28a2.32,2.32,0,0,0,.86.49,15.77,15.77,0,0,0,2.37,1.68l1.92-5c.11-.29-.05-.44-.27-.56a16.7,16.7,0,0,0-2.34-1.31,2.33,2.33,0,0,0-.81-.57l-8.39-5a9.83,9.83,0,0,1-1.55-1.09c-.71-.6-.79-1-.35-1.72a1.39,1.39,0,0,1,1.86-.69,9.27,9.27,0,0,1,1.54.93l7.19,5.39a4.14,4.14,0,0,0,1.07.73,28.55,28.55,0,0,0,2.61,2.07,2.41,2.41,0,0,0,.55-1.06q3.09-8,6.16-16c1-2.58,1.94-5.17,2.91-7.75.4,0,.8,0,1.2,0,6.92,0,13.85,0,20.77,0a2,2,0,0,1,2.14,1.38Z"/><path class="cls-2" d="M187.76,158c-2.28-.6-4.56-1.22-6.85-1.81-2.06-.54-4.08-1.23-6.16-1.68a4.59,4.59,0,0,1-.8-.36,1.31,1.31,0,0,1,1-.06c3.33.52,6.58,1.37,9.85,2.16a199.3,199.3,0,0,0,19.7,3.72c3.56.48,7.11,1,10.67,1.45a87.82,87.82,0,0,0,24.18-.2c1.54-.24,3.1-.36,4.64-.66.36-.06.71-.16,1.07-.24l.68.09c.22,0,.4,0,.44-.26.36-.16.6-.12.51.34a1.1,1.1,0,0,1-.72.75l-2.43,1.08c-.66.15-1.31.26-1.95.45a42.48,42.48,0,0,1-10.44,1.58,91.4,91.4,0,0,1-18.61-1.29c-3.75-.61-7.52-1.06-11.22-1.94-2.75-.66-5.49-1.36-8.25-2C191.28,158.73,189.52,158.39,187.76,158Z"/><path class="cls-2" d="M123.47,79c-1,2.58-1.93,5.17-2.91,7.75q-3.07,8-6.16,16a2.41,2.41,0,0,1-.55,1.06,28.55,28.55,0,0,1-2.61-2.07c1.65-4.53,3-9.17,4.36-13.78.83-2.7,1.77-5.37,2.66-8,.19-.57.48-.93,1.12-.93C120.75,79,122.11,78.91,123.47,79Z"/><path class="cls-2" d="M108.61,110.26a14.34,14.34,0,0,1,2,1c.38.18.44.41.28.8-.49,1.23-1,2.48-1.44,3.73-3.47,9-6.9,18.1-10.43,27.12-1.15,2.92-2.11,5.91-3.37,8.78a3.5,3.5,0,0,1-.41.9c.49-1.93,1.16-3.81,1.76-5.71Q101,134,105,121.26q1.59-5,3.22-10.08C108.35,110.87,108.49,110.57,108.61,110.26Z"/><path class="cls-2" d="M230.55,79.25q-.44,6.21-.86,12.43c-.15,2.06-.3,4.11-.46,6.17a2.4,2.4,0,0,1-.13.68,34.85,34.85,0,0,0-3.35-8.91c.06-2.9.33-5.78.2-8.68,0-1,.38-1.88,1.61-1.76C228.55,79.28,229.55,79.13,230.55,79.25Z"/><path class="cls-2" d="M110.68,103.81a16.7,16.7,0,0,1,2.34,1.31c.22.12.38.27.27.56l-1.92,5A15.77,15.77,0,0,1,109,109Z"/><path class="cls-2" d="M160.81,126.86c-.2-.09-.49-.18-.17-.44a9.65,9.65,0,0,1,1-.59c1.32-.53,2.59-1.17,3.85-1.81,1.49-.48,2.91-1.16,4.43-1.56,1-.26,2-.49,3-.74.46-.11.87-.11,1.11.39-.25.07-.5.16-.76.22a46.62,46.62,0,0,0-11.34,4C161.55,126.55,161.17,126.7,160.81,126.86Z"/><path class="cls-2" d="M94.9,153.44c0,.1-.07.2-.11.29Z"/><path class="cls-2" d="M95.17,152.67l-.12.33Z"/><path class="cls-3" d="M160.81,126.86c.36-.16.74-.31,1.09-.49a46.62,46.62,0,0,1,11.34-4c.26-.06.51-.15.76-.22,1.83-.32,3.71-.48,5.5-.9s3.63-.81,5.47-1.1a50,50,0,0,1,5.18-.31c.84,0,1,.58,1.48,1,.38.77.79,1.53,1.14,2.31a2.33,2.33,0,0,1,.36,1.61,17.35,17.35,0,0,0-3.65-.51c-.83-.08-1.66-.14-2.49-.15a8.8,8.8,0,0,1-3-.68c-.25-.36-.05-.61.18-.87a1.77,1.77,0,0,0,.65-.91l-4.32.48c0,.49.67.42.58.91a23.53,23.53,0,0,0-6,1.83c-1.94.74-4,1.21-5.94,1.84a9.48,9.48,0,0,0,3,0,31.29,31.29,0,0,0,6.59-1c.29.15.31.29,0,.49a16.57,16.57,0,0,1-5.72,2.47c-2.75.64-5.57.88-8.35,1.3a37.58,37.58,0,0,0-4.1,1A20.32,20.32,0,0,0,163.4,132a12.85,12.85,0,0,0,2,.59c5,1.49,9.91,3.3,14.86,5a7.77,7.77,0,0,0,2.66.25,23.14,23.14,0,0,0,7.4-1.47,12.42,12.42,0,0,0,4.74-3.36c2.59-2.59,5-5.32,7.52-8a56.54,56.54,0,0,1,4.4-4.63c1.1-1,2.3-1.8,3.46-2.7a3,3,0,0,0,.94-1.13c.45-.92,1-1.82,1.45-2.73l.16-.19a1.08,1.08,0,0,1,1.12-.66c2.17,0,3.12.56,4.17,2.57a12.85,12.85,0,0,1,.9,2.64.9.9,0,0,1-.12.85,7.62,7.62,0,0,1-2.38,2.48l-.23-.2a13.78,13.78,0,0,1,.74-2.07c.26-.35.59-.78.2-1.11s-.74,0-1,.33l-.37.34a2.11,2.11,0,0,0-.57,1.49.82.82,0,0,1-.22.51,2,2,0,0,0-.61,1.24,1.57,1.57,0,0,1-.49.77.35.35,0,0,0-.33.37l-.2.24c-.2,0-.35-.1-.28-.35s.1-.3,0-.43l.06-.46a.19.19,0,0,0-.09-.31c-.14-.06-.24,0-.28.16a11,11,0,0,1-2,2,.92.92,0,0,0-.79.74,1.24,1.24,0,0,1-.59.47.37.37,0,0,0-.41.33,9,9,0,0,1-1.61,1.26.36.36,0,0,0-.4.31,5.27,5.27,0,0,1-1.2.89.35.35,0,0,0-.39.32.67.67,0,0,1-.38.3.56.56,0,0,0-.62.51,1.38,1.38,0,0,1-.59.48.91.91,0,0,0-.82.7.6.6,0,0,1-.37.31.57.57,0,0,0-.63.5,1.35,1.35,0,0,1-.59.49.34.34,0,0,0-.4.31.74.74,0,0,1-.38.3.58.58,0,0,0-.63.49.62.62,0,0,1-.4.29.35.35,0,0,0-.4.29c-2.21,1.7-4.36,3.48-6.7,5a8.75,8.75,0,0,1-4.67,1.61,24.49,24.49,0,0,0,3.91,1.37c.31.27.73.28,1.08.45a12.54,12.54,0,0,0,3.45,1.26l.57,0v0a.41.41,0,0,0,.31.34c5.44,1.77,10.79,3.81,16.2,5.7,4.93,1.72,9.88,3.4,14.81,5.12,2.61.91,5.21,1.79,7.83,2.65,2.34.76,4.7,1.43,7.06,2.11a9.74,9.74,0,0,1,2.92,1.27c0,.25-.22.29-.44.26l-.68-.09-4.94-1.21c-3-.77-6-1.67-9-2.72-6.3-2.24-12.55-4.64-18.88-6.79-8.92-3-17.9-5.87-26.84-8.82-10.84-3.58-21.77-6.89-32.64-10.37a6.66,6.66,0,0,0-.77-.19c-1.51-.6-3.08-1-4.63-1.51a26.31,26.31,0,0,0-3.14-.93,46.3,46.3,0,0,0-7.65-2.17c-1.61-.55-3.27-.91-4.92-1.3A41.6,41.6,0,0,0,118.31,123c-.79.07-1.58.18-2.37.29-.27,0-.47,0-.45-.31l.08-.08a9.23,9.23,0,0,1,2.58-1,23.38,23.38,0,0,1,5-.34,8.64,8.64,0,0,0,2,.09,1.34,1.34,0,0,1,.84.07.34.34,0,0,0,.37,0h1.19c.34.31.7,0,1,.07,1.58.24,3.13.58,4.67.94l4.16,1c1.68.64,3.42,1.09,5.14,1.6,4.37,1.28,8.69,2.73,13,4.13.29.1.57.24.86,0,1.37-.94,2.92-1.59,4.26-2.59Z"/><path class="cls-3" d="M217.06,91.77a16.55,16.55,0,0,1,1.74,2.58c.09-.67-.36-1-.33-1.52.3-.15.44.1.6.23a27,27,0,0,1,4.33,4.67,12.58,12.58,0,0,1,1.42,3.07c.6,1.59,1.22,3.17,1.83,4.75a11.31,11.31,0,0,1,.54,5.79,21.23,21.23,0,0,1-2.95,8.62,20.49,20.49,0,0,0-2,4,.42.42,0,0,0-.21.54,3,3,0,0,1-.59,1.12c-.58-.06-.94-.71-1.59-.57-.3-.11-.27-.35-.22-.58.09-.56.21-1.12.29-1.68a13.18,13.18,0,0,0-.83-6.57,2.15,2.15,0,0,1-.25-.8c.42-.27.89.1,1.37-.1l-2.09-.86c1-.55,2-.35,2.87-.76a2.25,2.25,0,0,0-1.1-.19c-2.11-.13-4.12-.82-6.2-1.07-.39,0-.51-.28-.48-.62a2.29,2.29,0,0,1,.11-.58,3.06,3.06,0,0,0,.1-2,1.47,1.47,0,0,1,0-.69c.17-1,.36-2.09.56-3.2a8,8,0,0,0,2,.73c-.16-1-.76-1.86-.92-2.89,1.67.15,3,1.22,4.62,1.4.09-.36-.14-.43-.28-.55a27.22,27.22,0,0,1-2.61-2.76,1.61,1.61,0,0,1-.32-1.49c.23-.94.4-1.89.6-2.83.3-.18.28-.32-.05-.43a2.85,2.85,0,0,0-.6-.51c-.65-.27-.64-.73-.44-1.28l0,0c.23-.24.48-.48.2-.84v0c.24.14.21-.13.31-.2a1.28,1.28,0,0,0,0-1.62l-.09-.4Z"/><path class="cls-3" d="M198,86.59a8,8,0,0,1-2.18-.32c-.1-.23-.24-.29-.42-.07a1,1,0,0,1-.63-.14.9.9,0,0,1,.76-1c.25-.07.52-.07.68-.33a1.32,1.32,0,0,1,1,.17c.08.23.19.35.41.12a1.43,1.43,0,0,1,.79.11c.19.32.52.25.8.25,1.62,0,3.24,0,4.86,0a.69.69,0,0,0,.55-.17,1.8,1.8,0,0,1,1,.07c.08.37.68.3.63.77l-2,.17a1.1,1.1,0,0,0,1.17.35,4.91,4.91,0,0,1,2.66.17c.25.1.35.07.44-.23s.35,0,.53,0a14.87,14.87,0,0,1,2.65,1.39,25.14,25.14,0,0,1,3.91,3.23c.15.21.23.48.47.64l.1.86c-.12.18-.23.36,0,.54.08.27-.15.54,0,.81v0c-.4.47-.42.56-.2.84l0,0c0-.15-.15-.2-.26-.1s-.38.41-.57.61a10,10,0,0,1-2.18-1.7,19.25,19.25,0,0,0-4.65-3.2c-.28-.12-.67-.16-.74-.57.38-.32.92,0,1.34-.39a6.37,6.37,0,0,1-2.22-.94,1.7,1.7,0,0,0-1.67-.35c-.67,0-1.24.38-1.89.41a5.63,5.63,0,0,0-1.72-.28,10.71,10.71,0,0,1-1.52-.94c-.44-.24-.89-.46-1.33-.68C198.45,86.37,198.24,86.36,198,86.59Z"/><path class="cls-3" d="M222,136.51l-3-5.19c-.37-.63-.56-.71.18-1.37.33.17.45.52.63.82,2.19,3.68,4.37,7.37,6.57,11,1.07,1.79,2.2,3.55,3.19,5.4a7.49,7.49,0,0,0,1.28,1.36,52.59,52.59,0,0,1,5.53,6.92,1.44,1.44,0,0,1,.3.62l-.18.2c-1.69-.4-3.29-1-4.94-1.56s-1.32-.19-1.68-1.91a8,8,0,0,1-.17-1,11.81,11.81,0,0,0-2.17-5.91c-.54-.83-.91-1.77-1.53-2.56-.24-.43-.46-.87-.71-1.29C224.18,140.25,223.17,138.33,222,136.51Z"/><path class="cls-3" d="M192,120a1.62,1.62,0,0,1,1.13-.4,68.22,68.22,0,0,1,11.33.86l.29.06c.64.18.69.38.22.87s-1.22,1.23-1.81,1.86a.93.93,0,0,1-.78.32,50.67,50.67,0,0,1-5.08-.25,6.64,6.64,0,0,1-4.27-2.14A5.23,5.23,0,0,1,192,120Z"/><path class="cls-2" d="M205.08,88.16a1.7,1.7,0,0,1,1.67.35,6.37,6.37,0,0,0,2.22.94c-.42.42-1,.07-1.34.39.07.41.46.45.74.57a19.25,19.25,0,0,1,4.65,3.2,10,10,0,0,0,2.18,1.7,1.92,1.92,0,0,1-2.87.72,26.13,26.13,0,0,1-4.66-3.22,1.36,1.36,0,0,0-1.78-.21,9.22,9.22,0,0,0-2.61,2.07.91.91,0,0,1-.47.39,2.71,2.71,0,0,1,.86-1.61,10.24,10.24,0,0,1,2-1.36c.43-.26.59-.41.26-1A8.8,8.8,0,0,1,205.08,88.16Z"/><path class="cls-3" d="M194,87.94a1.26,1.26,0,0,1,1.43.76c1.7,3,3.45,5.91,5.18,8.87q4.46,7.62,8.91,15.23a2.54,2.54,0,0,1,.25,2c-.41,0-.43-.27-.54-.45l-5.31-9.15c-.15-.26-.33-.5-.5-.74a1.77,1.77,0,0,0-.34-.72q-2.48-4.27-5-8.56Q196,91.54,194,87.94Z"/><path class="cls-2" d="M225.78,139.6l0-16.91q1-2.43,2-4.86l.15,0c-.52,7.47-1.05,14.93-1.57,22.47A.94.94,0,0,1,225.78,139.6Z"/><path class="cls-2" d="M178.71,125.67a31.29,31.29,0,0,1-6.59,1,9.48,9.48,0,0,1-3,0c2-.63,4-1.1,5.94-1.84a23.53,23.53,0,0,1,6-1.83c.09-.49-.58-.42-.58-.91l4.32-.48a1.77,1.77,0,0,1-.65.91c-.23.26-.43.51-.18.87-1.48.6-3,1.13-4.41,1.83C179.28,125.34,179,125.51,178.71,125.67Z"/><path class="cls-2" d="M215.84,133l-1,.87c-1.35,1.26-3.06,1.32-4.75,1.29a20.81,20.81,0,0,1-5.75-1c.46-.32.93-.63,1.39-1a1.29,1.29,0,0,1,.95-.21c.5.06,1,.1,1.49.18a10.15,10.15,0,0,0,7.35-1.58,12.63,12.63,0,0,0,2-1.92c0,.43-.25.73-.44,1a2.75,2.75,0,0,0-.52,1C216.35,132.15,215.84,132.4,215.84,133Z"/><path class="cls-3" d="M210,99.77c.65-.36.74-1,1.11-1.4a4.35,4.35,0,0,1-1.06,4.76c-.2-.69-.42-1.35-.56-2a1.39,1.39,0,0,0-1-1.19c-.81-.24-.82-.34-.7-1.15a2.58,2.58,0,0,0,.11-1c-.52,0-1,0-1.57-.08a.67.67,0,0,1-.7-.78,5.25,5.25,0,0,0,0-1.19c-.09-.53.24-.7.6-.9s.63.07.84.31a6,6,0,0,0,2.21,1.68,1.19,1.19,0,0,1,.8,1.33C210,98.62,210,99.11,210,99.77Z"/><path class="cls-2" d="M194,87.94q2.06,3.6,4.12,7.19,2.47,4.29,5,8.56a1.77,1.77,0,0,1,.34.72l-.21,1.27c-1.06-1.55-1.89-3.25-2.86-4.87l-1.38-2.3-4-7.13-2.08-3.65A2.9,2.9,0,0,1,194,87.94Z"/><path class="cls-2" d="M193.13,124.71a2.33,2.33,0,0,0-.36-1.61c-.35-.78-.76-1.54-1.14-2.31a7.88,7.88,0,0,1,2,3.51,7,7,0,0,1,.19,3.73c-.11.38.07.57.39.68.78.29,1.56.56,2.34.86.52.19.54.25.24.68-.65.91-.82,1-1.9.66s-2.12-.57-3.18-.86c-.21-.06-.46-.05-.62-.27,0,0,.06-.11.11-.13a2.9,2.9,0,0,0,2.17-3.36C193.3,125.76,193.19,125.24,193.13,124.71Z"/><path class="cls-3" d="M196.21,84.74c-.16.26-.43.26-.68.33a.9.9,0,0,0-.76,1c-.33.09-.26-.34-.5-.38-.45.41-.26,1-.33,1.5a.84.84,0,0,1-1-.62,2.07,2.07,0,0,0-1-1.29c-.06,0-.08-.17-.12-.26.58,0,.72-.55.94-.92a2.22,2.22,0,0,1,2.15-1.1c.65,0,.65,0,.71-.71.62-.12.61.35.63.73s-.16.68.28.94c.23.14,0,.35-.17.41S196,84.54,196.21,84.74Z"/><path class="cls-2" d="M222,136.51c1.2,1.82,2.21,3.74,3.33,5.6.25.42.47.86.71,1.29-.16.5,0,1-.24,1.52a12.56,12.56,0,0,1-1.35-2.18c-.88-1.55-1.87-3-2.63-4.65C221.92,137.58,221.72,137,222,136.51Z"/><path class="cls-3" d="M195.58,82.28c-.06.73-.06.72-.71.71a2.22,2.22,0,0,0-2.15,1.1c-.22.37-.36.89-.94.92-.22-.29-.46-.56-.66-.86-.53-.8-.5-.78.26-1.38a14.43,14.43,0,0,1,1.2-.85,3.63,3.63,0,0,1,2.5-.28C195.49,81.69,195.51,82,195.58,82.28Z"/><path class="cls-2" d="M200.78,136c-1.77,1-3.6,2-5.45,2.86l-.8.4a2.23,2.23,0,0,0-1.42,2,2.08,2.08,0,0,1-.11.48c-.35-.17-.77-.18-1.08-.45.24-.51.48-1,.71-1.53a2.23,2.23,0,0,1,1.3-1c1.27-.58,2.55-1.13,3.85-1.65A14.43,14.43,0,0,1,200.78,136Z"/><path class="cls-3" d="M216.63,131.75a2.75,2.75,0,0,1,.52-1c.19-.32.48-.62.44-1a12.66,12.66,0,0,0,1.29-2.67,2.09,2.09,0,0,1,.07,2.18A11.53,11.53,0,0,1,216.63,131.75Z"/><path class="cls-3" d="M219.89,125.07c.65-.14,1,.51,1.59.57a9.06,9.06,0,0,1-1.48,2.08c-.19-.58-.35-1.06-.51-1.56-.08-.25,0-.35.29-.38s.52.11.55-.23S220,125.27,219.89,125.07Zm.61.52s-.06,0-.06.06a.52.52,0,0,0,.06.13s.06,0,.06-.06A1.39,1.39,0,0,0,220.5,125.59Z"/><path class="cls-2" d="M205.56,102.63c-.53.26-.63-.14-.71-.49-.11-.51-.17-1-.27-1.55a2.9,2.9,0,0,0-.57-1.35c1,.11,1.18.3,1.3,1.14S205.48,101.88,205.56,102.63Z"/><path class="cls-3" d="M204.59,85.22a.69.69,0,0,1-.55.17c-1.62,0-3.24,0-4.86,0-.28,0-.61.07-.8-.25,1.75,0,3.5-.16,5.25-.07A2.11,2.11,0,0,1,204.59,85.22Z"/><path class="cls-3" d="M213.28,122.62c.13.13.07.28,0,.43s.08.32.28.35c-.2.72-.82,1.07-1.34,1.52C212.6,124.15,213,123.41,213.28,122.62Z"/><path class="cls-3" d="M206.22,86.06c.05-.47-.55-.4-.63-.77a2.78,2.78,0,0,1,2.14,1A2.07,2.07,0,0,1,206.22,86.06Z"/><path class="cls-1" d="M216.08,91.8c-.24-.16-.32-.43-.47-.64.66-.23,1.19-.14,1.45.61l-.64,0A.37.37,0,0,0,216.08,91.8Z"/><path class="cls-3" d="M216.38,118.44c.28-.33.74-.57,1-.33s.06.76-.2,1.11l.08-.85C217,118.12,216.68,118.53,216.38,118.44Z"/><path class="cls-3" d="M201.47,88.29a5.63,5.63,0,0,1,1.72.28A1.56,1.56,0,0,1,201.47,88.29Z"/><path class="cls-3" d="M215.44,120.27a2.11,2.11,0,0,1,.57-1.49A3.36,3.36,0,0,1,215.44,120.27Z"/><path class="cls-3" d="M214.61,122a2,2,0,0,1,.61-1.24A2,2,0,0,1,214.61,122Z"/><path class="cls-3" d="M203.18,130.3a.91.91,0,0,1,.82-.7A1.49,1.49,0,0,1,203.18,130.3Z"/><path class="cls-3" d="M210.19,124.73A.92.92,0,0,1,211,124,1.67,1.67,0,0,1,210.19,124.73Z"/><path class="cls-3" d="M204.59,129.12a.56.56,0,0,1,.62-.51A1.08,1.08,0,0,1,204.59,129.12Z"/><path class="cls-3" d="M202.18,131.11a.57.57,0,0,1,.63-.5A.94.94,0,0,1,202.18,131.11Z"/><path class="cls-3" d="M200.18,132.7a.58.58,0,0,1,.63-.49A1,1,0,0,1,200.18,132.7Z"/><path class="cls-3" d="M198,86.59c.24-.23.45-.22.62.08A.79.79,0,0,1,198,86.59Z"/><path class="cls-3" d="M207.18,127.1a.36.36,0,0,1,.4-.31A.43.43,0,0,1,207.18,127.1Z"/><path class="cls-3" d="M205.59,128.31A.35.35,0,0,1,206,128,.45.45,0,0,1,205.59,128.31Z"/><path class="cls-3" d="M195.4,86.2c.18-.22.32-.16.42.07A.33.33,0,0,1,195.4,86.2Z"/><path class="cls-3" d="M213,122c0-.15.14-.22.28-.16a.19.19,0,0,1,.09.31Z"/><path class="cls-3" d="M197.59,85c-.22.23-.33.11-.41-.12A.37.37,0,0,1,197.59,85Z"/><path class="cls-3" d="M201.19,131.91a.34.34,0,0,1,.4-.31A.44.44,0,0,1,201.19,131.91Z"/><path class="cls-1" d="M217.07,96.59c.33.11.35.25.05.43A.54.54,0,0,1,217.07,96.59Z"/><path class="cls-3" d="M213.79,123.16a.35.35,0,0,1,.33-.37A.38.38,0,0,1,213.79,123.16Z"/><path class="cls-3" d="M199.38,133.28a.35.35,0,0,1,.4-.29A.41.41,0,0,1,199.38,133.28Z"/><path class="cls-4" d="M222.07,124.52a.42.42,0,0,1,.21-.54A.59.59,0,0,1,222.07,124.52Z"/><path class="cls-3" d="M209.19,125.53a.37.37,0,0,1,.41-.33A.47.47,0,0,1,209.19,125.53Z"/><path class="cls-1" d="M213,113.61l-.16.19C212.8,113.66,212.86,113.6,213,113.61Z"/><path class="cls-3" d="M236.68,156.12c.07.06.14.14.06.23s-.17,0-.24,0Z"/><path class="cls-3" d="M216.69,121.49c-.08.08-.15.23-.28.11s0-.21.05-.31Z"/><path class="cls-2" d="M115.49,123c0,.35.18.35.45.31.79-.11,1.58-.22,2.37-.29a41.6,41.6,0,0,1,13.33,1.34c1.65.39,3.31.75,4.92,1.3.15.25.29.52.46.76,4.38,6.16,8.61,12.43,12.86,18.67a2.35,2.35,0,0,1,.53.93c-.24.27-.46.06-.65,0-1.93-.72-3.88-1.4-5.78-2.2-3.47-1.48-7-2.67-10.58-3.93a52.64,52.64,0,0,1-11.83-6.17,30.19,30.19,0,0,1-5.8-5.32,5.6,5.6,0,0,1-1.24-4.28C114.58,123.56,114.7,122.93,115.49,123Z"/><path class="cls-2" d="M144.21,127.8a26.31,26.31,0,0,1,3.14.93c1.55.5,3.12.91,4.63,1.51.72,1.65,1.61,3.21,2.42,4.82,2.41,4.71,4.84,9.42,7.25,14.14a1.65,1.65,0,0,1,.31.82c-.21.27-.43.08-.62,0-1.39-.49-2.76-1-4.14-1.48a1.71,1.71,0,0,1-.95-.82c-2.82-4.64-5.66-9.28-8.48-13.91-1-1.68-2-3.36-3.06-5A4.12,4.12,0,0,1,144.21,127.8Z"/><path class="cls-2" d="M123.16,121.59a23.38,23.38,0,0,0-5,.34,9.23,9.23,0,0,0-2.58,1c-.06-.51.37-.65.68-.85a5.4,5.4,0,0,1,2-.66,16.84,16.84,0,0,1,5.16.08Z"/><path class="cls-4" d="M123.16,121.59l.22-.13a9.14,9.14,0,0,1,1.81.22A8.64,8.64,0,0,1,123.16,121.59Z"/><path class="cls-4" d="M126.4,121.8a.34.34,0,0,1-.37,0A.34.34,0,0,1,126.4,121.8Z"/><path class="cls-1" d="M196.45,143c.2-.19.39-.1.57,0Z"/><path class="cls-1" d="M216.19,93.2c-.24-.18-.13-.36,0-.54.33,0,.25-.29.33-.47a1.28,1.28,0,0,1,0,1.62C216.36,93.62,216.58,93.25,216.19,93.2Z"/><path class="cls-1" d="M216.51,92.19c-.08.18,0,.47-.33.47l-.1-.86a.37.37,0,0,1,.34,0Z"/><path class="cls-1" d="M216,94.82c-.22-.28-.2-.37.2-.84C216.48,94.34,216.23,94.58,216,94.82Z"/><path class="cls-1" d="M216.19,93.2c.39,0,.17.42.31.61-.1.07-.07.34-.31.2S216.27,93.47,216.19,93.2Z"/><path class="cls-1" d="M220.5,125.59a1.39,1.39,0,0,1,.06.13s0,0-.06.06a.52.52,0,0,1-.06-.13S220.48,125.61,220.5,125.59Z"/><path class="cls-5" d="M196.45,84c-.63-.75-1.13-.75-2.3-.68a1,1,0,0,0-.84.63c-.14.37.36.41.41.7-.05.07-.09.17-.13.16-1-.09-.9,0-1,1.31-.32-.38-.87-.16-1-.78.49,0,.55-.56.73-.94a2.52,2.52,0,0,1,3.1-1.54c.28-.32.07-.68.14-1,.67.22.85.46.73,1.27C196.23,83.44,196.45,83.62,196.45,84Z"/><path class="cls-5" d="M196.42,84.69c.37-.06,1.56.35,2,.06-.47-.14-1.18-.06-1.65-.18-.29-.08-.23-.25-.13-.44a3.05,3.05,0,0,0-2.24,1.08A1.91,1.91,0,0,0,194,86.7c.15-.19.24-.83.53-.68A2.37,2.37,0,0,1,196.42,84.69Z"/></svg>