<svg id="frames" xmlns="http://www.w3.org/2000/svg" viewBox="0 0 384 216"><defs><style>.cls-1{fill:#152238;}.cls-2{fill:#273246;}.cls-3{fill:#f6f6f5;}</style></defs><path class="cls-1" d="M280.9,82.23a3.66,3.66,0,0,1,1.91.87,8.63,8.63,0,0,1,1.33,1.62,25.15,25.15,0,0,1,4.15,11,3,3,0,0,1,.06.59.39.39,0,0,1-.63.2,1.06,1.06,0,0,1-.18-.35,35.13,35.13,0,0,0-6.43-9.81,15.16,15.16,0,0,1-1-1.24,2.4,2.4,0,0,1-.42-1.89A1.07,1.07,0,0,1,280.9,82.23Z"/><path class="cls-2" d="M281.76,100.76c0,.33,0,.66,0,1s-.09.4-.34.41a.34.34,0,0,1-.38-.37,14.56,14.56,0,0,0-.66-3c-.16-.65-.34-1.29-.5-1.93-.08-.31-.09-.61.28-.75a.64.64,0,0,1,.91.35,5.53,5.53,0,0,1,.33,1.14A18.77,18.77,0,0,1,281.76,100.76Z"/><path class="cls-2" d="M264.31,73.26c1.5-.8,4.36,0,5.63,1.66-1.07-.36-1.95-.67-2.84-1A12.27,12.27,0,0,1,264.31,73.26Z"/><path class="cls-2" d="M300.23,73.82a9.09,9.09,0,0,1,2.46-1.37,1.69,1.69,0,0,1,.49-.09c.2,0,.44,0,.54.17s-.11.43-.32.53a14.82,14.82,0,0,1-2.61,1A.58.58,0,0,1,300.23,73.82Z"/><path class="cls-3" d="M255.89,110c0,.1-.13.18-.22.15a.63.63,0,0,1-.33-.19c-.49-.87-1-1.74-1.43-2.62a.31.31,0,0,1,.08-.44.46.46,0,0,1,.47,0,.75.75,0,0,1,.38.44c.35.83.69,1.66,1,2.48A.64.64,0,0,1,255.89,110Z"/><path class="cls-2" d="M171.72,69.36a11.9,11.9,0,0,1-2.52.62.18.18,0,0,1-.2-.17c0-.06,0-.16.06-.17.81-.31,1.57-.86,2.51-.55C171.62,69.11,171.64,69.2,171.72,69.36Z"/><path class="cls-2" d="M215.45,65.61a2.47,2.47,0,0,1,1.87-1.4c.16,0,.35,0,.42.15s-.09.31-.23.38C216.9,65.06,216.39,65.64,215.45,65.61Z"/><path class="cls-2" d="M262.6,68.88c-.55.32-1,.6-1.44.84a.35.35,0,0,1-.51-.16c-.08-.18.09-.31.23-.39A1.54,1.54,0,0,1,262.6,68.88Z"/><path class="cls-3" d="M270.31,122.74c-.17,0-.28-.14-.27-.28a5.44,5.44,0,0,1,.42-1.63.36.36,0,0,1,.42-.19.35.35,0,0,1,.29.36,3.2,3.2,0,0,1-.61,1.65C270.52,122.71,270.38,122.71,270.31,122.74Z"/><path class="cls-2" d="M229.89,75.42a.9.9,0,0,1-1.12.31C229.13,75.4,229.45,75.22,229.89,75.42Z"/></svg>