<svg id="frames" xmlns="http://www.w3.org/2000/svg" viewBox="0 0 384 216"><defs><style>.cls-1{fill:#0f1b33;}.cls-2{fill:#0e1b32;}.cls-3{fill:#fc0101;}.cls-4{fill:#fefefe;}.cls-5{fill:#f5f2f3;}</style></defs><path class="cls-1" d="M165.46,123.64c0-.37,0-.73,0-1.1,0-7.36,0-14.72-.05-22.08q-.07-7.75,0-15.49c0-1.64.07-3.27.16-4.89a1,1,0,0,1,.71-1,2.89,2.89,0,0,1,1.09-.1q9.84,0,19.69,0,7.85,0,15.69.16c1.59,0,3.19.08,4.78.19a19.29,19.29,0,0,1,5.89,1.46,30.86,30.86,0,0,1,9.39,5.59,37.83,37.83,0,0,1,3,3.19,45.13,45.13,0,0,1,2.36,5.08c.17-1.39.28-2.75.37-4.11q.38-5.67.76-11.35c2.4-.06,4.8-.08,7.19,0h.6c5.54,0,11.07-.1,16.6,0,4,.07,7.93,0,11.89.16a26.66,26.66,0,0,1,17.35,7.12,26,26,0,0,1,8.38,16.12A26.23,26.23,0,0,1,284.89,124a26.63,26.63,0,0,1-16,9.05,31.19,31.19,0,0,1-5.37.42H249.8c-.23,0-.46,0-.7,0-.47,0-.63.2-.64.66,0,1.5-.07,3-.07,4.49q0,10.9,0,21.8c0,.23,0,.46,0,.7a1.25,1.25,0,0,1-1.3,1.34c-.8.05-1.6,0-2.4,0s-1.53-.07-2.3-.11l1-.39a13.47,13.47,0,0,0,2.11-.89,1.08,1.08,0,0,0,.65-.7c.1-.46-.14-.53-.51-.37l-.44-.22a1.51,1.51,0,0,0-.73-.38,2.53,2.53,0,0,0-1.3-.47,6.39,6.39,0,0,0-1.6-.47.37.37,0,0,0-.4-.08,2,2,0,0,0-.83-.32c-4.17-1.22-8.29-2.6-12.39-4-5-1.74-9.93-3.44-14.9-5.15-2.79-.95-5.58-1.93-8.35-2.94-2.53-.92-5.09-1.72-7.58-2.72a4.77,4.77,0,0,1-1.34-.61c.32.08.65.14,1,.24q5.36,1.69,10.66,3.53c5.88,2.05,11.75,4.13,17.64,6.12.87.3.91.27.9-.63,0-1.39-.07-2.79-.07-4.19a5,5,0,0,0-.58-2.88c.08-.51.16-1,.23-1.53,1.17,1.7,2.08,3.56,3.12,5.35a2.36,2.36,0,0,1,.19.76c.25,1.42.53,2.82.73,4.24a.79.79,0,0,0,.65.73c1.81.57,3.62,1.17,5.42,1.75.17.06.37.21.54,0a1.57,1.57,0,0,0-.43-1,50.22,50.22,0,0,0-5.32-6.6,13.67,13.67,0,0,1-1.83-2.31c-3.1-5.29-6.26-10.55-9.4-15.81-.13-.21-.2-.5-.51-.57-.56.66-.56.66-.17,1.34,1,1.73,2,3.47,3,5.2a9.88,9.88,0,0,0-.16,1.62c-.13-.18-.28-.36-.4-.56l-3.08-5.25c-.51-.87-.64-.89-1.4-.21a4.27,4.27,0,0,1-1.08.86c0-.6.54-.79.79-1.2a19.66,19.66,0,0,0,2-2.09c.75-.83.65-1.7.34-2.8a26.24,26.24,0,0,1-1.37,2.9c-.68.49-1.1,1.25-1.81,1.71a10.53,10.53,0,0,1-7.5,1.71c-2.06-.31-2.07-.29-3.79.83l-.14.14c-1.13.61-2.24,1.25-3.42,1.76l0,0-.25.12a3.51,3.51,0,0,0-.58.13c-2.19.75-4.31,1.69-6.42,2.65a2.08,2.08,0,0,0-1.25,1.32,7.68,7.68,0,0,1-.57,1.15l-1-.3-3.14-1a.19.19,0,0,0,0-.16,2.82,2.82,0,0,0,1.19-.1.31.31,0,0,0,.41-.08,1.09,1.09,0,0,0,1-.26.34.34,0,0,0,.4-.17,7.41,7.41,0,0,0,2.49-1.22c2.66-2,5.33-4,8-6,2.2-1.66,4.23-3.54,6.46-5.17a35.18,35.18,0,0,0,5.31-4.67c.08-.09.19-.19.35-.09.18.58-.22,1.08-.29,1.62-.1.16-.33.34-.15.5s.3-.1.39-.26a11,11,0,0,0,2.65-4.63,1.53,1.53,0,0,1,1.43-1.09c.2.24.05.42,0,.6-.21.67-.44,1.33-.66,2-.06.18-.21.39,0,.55s.37,0,.52-.12a9.2,9.2,0,0,0,2-2.33.82.82,0,0,0,0-.76,12.76,12.76,0,0,0-.86-2.55c-1.11-2.09-1.86-2.56-4.16-2.62a1.1,1.1,0,0,0-1.13.63c-.51,1-1.1,1.9-1.59,2.89a3.32,3.32,0,0,1-1,1.2c-1.13.88-2.31,1.68-3.38,2.63-2,1.8-3.73,3.9-5.56,5.88-2.32,2.52-4.63,5-7.07,7.47a11.46,11.46,0,0,1-4.86,3c-1.08.32-2.18.61-3.29.83a16.2,16.2,0,0,1-5.85.22,24.62,24.62,0,0,0-3.57-1.22,6.59,6.59,0,0,0-1.63-.58.79.79,0,0,0-.57-.21c-.21-.09-.41-.2-.63-.28l-7-2.29a3.12,3.12,0,0,1-1.27-.51,1.85,1.85,0,0,0-.08-1.22c-.42.08-.84.15-1.26.25-.22.06-.46.14-.42.46-1.15-.17-2.2-.7-3.34-.92,0-.13,0-.28.15-.32a35.7,35.7,0,0,1,3.67-.9c2.85-.43,5.73-.68,8.55-1.33A16.46,16.46,0,0,0,178.3,126c.3-.21.23-.35-.09-.44a4.57,4.57,0,0,1,1-.57l4.28-1.76a8.37,8.37,0,0,0,2.79.66c.83,0,1.66.08,2.49.16a18.47,18.47,0,0,1,3.85.51,10.8,10.8,0,0,1,.19,1.58c0,1.74-.36,2.79-2.17,3.37-.09,0-.11.08,0,.23l3.68,1c1.12.32,1.34.24,2-.69.26-.35.16-.51-.22-.63-.79-.27-1.57-.58-2.36-.83-.4-.13-.53-.33-.42-.74a7.17,7.17,0,0,0-.19-3.65,7.53,7.53,0,0,0-2-3.59,1.83,1.83,0,0,0-2.08-.94c-.56.06-1.13,0-1.69,0a26.91,26.91,0,0,0-6.4.88c-2.44.68-5,.8-7.42,1.37-.23-.5-.64-.49-1.09-.4a33,33,0,0,0-4.39,1.18ZM207.7,86.27c0,.16.13.19.27.16-.11,0,.12.33-.14.22a5.26,5.26,0,0,0-2.94-.24,1.11,1.11,0,0,1-1.11-.34,8.77,8.77,0,0,1,1.74-.15c.57,0,1.13.31,1.93.07a5.94,5.94,0,0,0-2.74-1,29.54,29.54,0,0,0-4-.09,12.56,12.56,0,0,1-4.36-.34,2.15,2.15,0,0,0-2.09.67c-.35.3-.27.59.19.69a20.06,20.06,0,0,0,2.65.44A5.17,5.17,0,0,1,200,87.48c.24.18.49.34.74.5a2.73,2.73,0,0,0,2.48.34,3.55,3.55,0,0,1,1.44-.35c.16.89.4,1.75.61,2.62.09.36.62.56.4.93a2.24,2.24,0,0,1-1,.68A6.38,6.38,0,0,0,203,93.47a1.77,1.77,0,0,0-.56,1.34,11.39,11.39,0,0,1,2.77-2.28,1.31,1.31,0,0,1,1.93.09,34.63,34.63,0,0,0,4.68,3.21,1.91,1.91,0,0,0,2.88-.67l.49-.62a3,3,0,0,0-.38-4c-.87-.65-1.66-1.43-2.53-2.09a12,12,0,0,0-4.17-2.24c-.08-.09-.18-.15-.3-.07a.28.28,0,0,0-.38-.17c-.08,0-.09.07-.06.14A.27.27,0,0,0,207.7,86.27ZM217.57,93a1.17,1.17,0,0,0-.56-.84,2.14,2.14,0,0,0-.7-.9,1.06,1.06,0,0,0-.19-.23c-.09-.07-.2-.2-.34-.1s0,.24,0,.35a1.24,1.24,0,0,0,.18.22,5.85,5.85,0,0,1-.47,3.64c-.39.08-.17.29,0,.37a8.44,8.44,0,0,1,1.19.87v.82a1.38,1.38,0,0,0-.13.8.47.47,0,0,0-.07.4,30827137529905.74,30827137529905.74,0,0,1-.2.8.4.4,0,0,0-.09.4,1,1,0,0,0,.07,1.18.52.52,0,0,0,.35.47,23.43,23.43,0,0,0,2.94,3.18,2.85,2.85,0,0,1-1.69-.34,14.92,14.92,0,0,0-2.82-1c-.3-.1-.34,0-.22.27a6.71,6.71,0,0,0,.85,2.2l0,.39c-.54,0-1-.36-1.49-.43-.41-.42-.46-.42-.59,0-.16.85-.33,1.7-.49,2.55a2.52,2.52,0,0,0,0,1.19,2.46,2.46,0,0,1-.06,1.47,6.63,6.63,0,0,0-.18.77c-.07.44.09.7.57.73a15.94,15.94,0,0,1,2.55.49,16.54,16.54,0,0,0,3.64.5.36.36,0,0,0,.44,0l.61.21c-.73.41-1.53.25-2.22.54a1.59,1.59,0,0,0-.38,0,.33.33,0,0,0-.23.14c-.06.15.08.22.19.26s.25.06.38.09a4.37,4.37,0,0,0,1.49.54.18.18,0,0,0,.12.27,3.43,3.43,0,0,0-1.15-.1c-.13-.09-.29-.14-.39,0s0,.27.13.37a14.19,14.19,0,0,1,.68,8.59c-.05.21-.17.46.11.62a.4.4,0,0,0,.48.22l.33.18c0,.16.24.37-.13.4s-.71-.15-1.07.1l.52,1.65a.27.27,0,0,0,.32-.07,12.24,12.24,0,0,0,1.23-1.89.45.45,0,0,0,.21-.4.34.34,0,0,0,.19-.35,1,1,0,0,0,.31-.67,30.69,30.69,0,0,1,2.56-5.13,15,15,0,0,0,1.85-4.88.39.39,0,0,0,.08-.4.71.71,0,0,0,.14-.6.39.39,0,0,0,.06-.4,1.81,1.81,0,0,0,.15-1,.44.44,0,0,0,.08-.4,1.56,1.56,0,0,0,.11-.8,7.6,7.6,0,0,0,0-2.38,1.37,1.37,0,0,0-.12-.8.79.79,0,0,0-.14-.58,1.61,1.61,0,0,0-.25-.82.73.73,0,0,0-.18-.57,24.48,24.48,0,0,0-1.39-3.63.71.71,0,0,0-.24-.56.61.61,0,0,0-.17-.44.79.79,0,0,0-.21-.57,5.54,5.54,0,0,0-.92-2,.61.61,0,0,0-.33-.49,18.94,18.94,0,0,0-3.75-4.14,3,3,0,0,0-1.21-1l.07.5-.17.14a.4.4,0,0,1-.19,0Zm-22.65-9.78.83-.08c.09-.65-.1-1.06-.71-1.22,0-.17,0-.39-.2-.41a4.15,4.15,0,0,0-2.44.07c-.66.32-1.16.86-1.83,1.15-.38.17-.42.37-.23.69a7.42,7.42,0,0,0,1.28,1.76c.07.35.43.17.61.33.13.69.29,1.35,1.23,1.5-.23-2,1.23-2.55,2.71-3C195.82,83.5,195.33,83.45,194.92,83.23ZM203.52,99c-.69-.22-1.35-.67-2.25-.34,2.09,3.57,4.13,7.06,6.16,10.55a.49.49,0,0,0,.33-.33,8.67,8.67,0,0,0,.12-3.76c0-.16-.06-.36-.21-.44-.39-.19-.48-.62-.73-.9a4,4,0,0,0-1.84-1.36c-.08-.76-.15-1.52-.26-2.28S204.49,99.16,203.52,99Zm-10-11.28a2.09,2.09,0,0,0-1.09-.18l.51.94c.93,1.62,1.87,3.23,2.78,4.86s2,3.37,2.88,5.13l-5.9.09c-1.36,0-2.73.06-4.09.05-.43,0-.63.12-.59.56,0,.23,0,.46,0,.7v8.79c0,1.84,0,3.67,0,5.5,0,.79,0,.79.74.78l11.8-.15a6.84,6.84,0,0,0,4.78-1.94c1-1,1-1,.33-2.23-1-1.71-2-3.37-2.88-5.14l.23-1.27c.16.25.34.49.49.75l5.21,9c.13.23.21.54.58.65a2.14,2.14,0,0,0-.18-1.94c-.73-1.21-1.42-2.46-2.14-3.68q-6-10.25-12-20.49A1.24,1.24,0,0,0,193.5,87.76Zm32.25,34.92a45.7,45.7,0,0,1-5.37,5,7.29,7.29,0,0,0-.9.94.72.72,0,0,0-.06,1c2.07,3.29,4,6.69,5.94,10,.08.13.12.32.47.27v-1c0-3.76,0-7.52,0-11.28.15-2,.36-3.91.42-6A2.92,2.92,0,0,0,225.75,122.68Zm29.17-7.6v.13h5.2a5,5,0,0,0,1.49-.15,8.86,8.86,0,0,0,6.57-7.3,5.53,5.53,0,0,0-.31-3.33,10.37,10.37,0,0,0-4.6-5.09,5.7,5.7,0,0,0-2.69-.69c-3.76,0-7.53,0-11.29,0-.7,0-.73,0-.72.73.07,4.93-.12,9.86-.1,14.79,0,.87,0,.9.86.91C251.19,115.1,253.06,115.08,254.92,115.08Zm-63.37,4.74a5.33,5.33,0,0,0,1,1.17,6.63,6.63,0,0,0,4.27,2.15,50,50,0,0,0,5.19.26.78.78,0,0,0,.62-.24c.66-.7,1.35-1.37,2-2.08.33-.35.25-.56-.21-.7a4.26,4.26,0,0,0-.49-.1,69.45,69.45,0,0,0-11.25-.86A1.78,1.78,0,0,0,191.55,119.82Zm18-20.26a4.42,4.42,0,0,1,0-1.58,1.23,1.23,0,0,0-.78-1.35A6,6,0,0,1,206.57,95c-.24-.28-.46-.54-.92-.31s-.62.45-.53.94a5.51,5.51,0,0,1,0,1c0,.73.14.84.86,1a9.09,9.09,0,0,1,1.46.07c-.07.38-.13.71-.18,1-.12.71-.1.86.57,1a1.61,1.61,0,0,1,1.21,1.4,5.2,5.2,0,0,0,.66,1.94c1-1.56,1.64-3,1-4.88C210.26,98.54,210.23,99.21,209.58,99.56ZM192.7,133.62a29.38,29.38,0,0,0-4.38-.24c-.31,0-.38.19-.38.46v2.09c0,.44.23.47.58.36A10,10,0,0,0,192.7,133.62Zm23.43-12.25.07-.07-.13-.06s0,0-.07.06Z"/><path class="cls-2" d="M151.3,92.25c3.51,11,6.84,22.14,10.21,33.23l-1.68.94a16.86,16.86,0,0,0-3.43,1.7.77.77,0,0,0-.38,1.14v.24c-.34-.09-.75,0-1-.34-.07-.24-.15-.43-.41-.15-1-.13-2-.65-3-.79a6.32,6.32,0,0,0-1.8-.58,1.5,1.5,0,0,0-.77-.25.17.17,0,0,0-.22-.09l-.26-.09a1.81,1.81,0,0,0-1-.33l-.26-.07a5.45,5.45,0,0,0-1.73-.54l-.36-.09a3.59,3.59,0,0,0-1.45-.44.5.5,0,0,0-.42-.13.37.37,0,0,0-.37-.13l-.28-.06,0,0v0c-.18-.07-.36-.16-.55-.22l-4.68-1.43a3.85,3.85,0,0,0-.08-.49q-2.25-7.71-4.51-15.4c-.06-.21,0-.48-.36-.62a3,3,0,0,0-.34.88c-.89,2.71-1.66,5.47-2.62,8.17-.62,1.75-1.18,3.52-1.77,5.28l-1.8,0a.83.83,0,0,0-.6-.06.73.73,0,0,0-.63,0,5.59,5.59,0,0,0-1.46-.2c-.83-.1-1.65-.25-2.48-.28a10.7,10.7,0,0,0-4.42.52c-.5.2-1.08.35-1.22,1h0a1.38,1.38,0,0,0-1.15,1.49,5.74,5.74,0,0,0,1.24,4.09,30.46,30.46,0,0,0,5.79,5.32,52.76,52.76,0,0,0,12.3,6.36c3.23,1.13,6.49,2.22,9.64,3.57,2,.84,4,1.54,6,2.29.29.11.58.33.94.21.07-.32-.16-.5-.3-.71q-4.62-6.76-9.25-13.52c-1.43-2.08-2.88-4.16-4.32-6.24.46,0,.88.27,1.35.21a.45.45,0,0,0,.4.12.71.71,0,0,0,.6.11.44.44,0,0,0,.4.1,2,2,0,0,0,1,.3,6.31,6.31,0,0,0,1.6.49l2.36.87c.13.27.24.55.39.8l11.67,19.19a1.77,1.77,0,0,0,1,.78c1.32.45,2.63.94,3.95,1.41.24.08.47.28.75.08a1.29,1.29,0,0,0-.25-.74L154,135c-.84-1.66-1.78-3.27-2.5-5l2.45.69a25.66,25.66,0,0,0,3.43,1.06,6.83,6.83,0,0,0,1.81.58,44.58,44.58,0,0,0,4.8,1.52,6.39,6.39,0,0,0,1.59.5.49.49,0,0,0,.4.13.62.62,0,0,0,.47.12,3.55,3.55,0,0,0,1.34.45,12.48,12.48,0,0,0,2.46.75,1.11,1.11,0,0,0,.74.25c.78.26,1.55.53,2.34.77,1.93.59,3.82,1.29,5.78,1.77a12.05,12.05,0,0,0,2.67.92l1.88.65,6.71,2.24a.8.8,0,0,0,.57.84,12.19,12.19,0,0,1,1.91,1.05c.46.26.86.61,1.32.89,1.14.7,2.45,1,3.61,1.66a42.33,42.33,0,0,0,5.76,2.44c2.58,1,5.09,2.1,7.62,3.18a7.57,7.57,0,0,0,1.61.52,4.65,4.65,0,0,1,1.75.69,5.8,5.8,0,0,0,1.44.65c1.06.32,2,.79,3.09,1.12a15.7,15.7,0,0,1,3.38,1.44,3.47,3.47,0,0,0,1.12.63,5.72,5.72,0,0,1,1.91.83,3.22,3.22,0,0,0,1.41.43,6.43,6.43,0,0,1,2.59.65,23,23,0,0,0,2.22,1.11c.54.22,1.14.43,1.31,1.11a12.33,12.33,0,0,1-2.18.24,88.64,88.64,0,0,1-10.18-.15c-1.89-.16-3.79-.23-5.67-.46-3.07-.36-6.12-.83-9.19-1.24A211.5,211.5,0,0,1,183.73,156c-2.72-.67-5.43-1.36-8.19-1.84a2.58,2.58,0,0,0-1.29-.08c0,.27.1.3.23.35a16.16,16.16,0,0,0,2.39.63q3.07.87,6.16,1.69c1.58.43,3.15.84,4.73,1.25l-.12,2.9c0,1-.35,1.32-1.41,1.35h-36c-1.42,0-1.4,0-1.85-1.4-1-3-1.94-6-2.93-8.92-.28-.86-.3-.87-1.19-.87H120.48c-.78,0-.78,0-1,.79-.75,2.59-1.65,5.13-2.26,7.76a7.36,7.36,0,0,1-.63,1.57,1.45,1.45,0,0,1-1.44.88c-1.26,0-2.53,0-3.79.06-3.26.08-6.53.08-9.79.13-2.49,0-5,.12-7.48.18-.24,0-.47,0-.7,0a1,1,0,0,1-.94-1.24,4.42,4.42,0,0,1,.15-.48q4.45-14,8.92-28.08c0-.16.11-.32.17-.47a.17.17,0,0,0,0-.15l.09-.27c.15-.14.14-.32.18-.49v0a3.31,3.31,0,0,0,.46-1l7-18.16c.5-1.3.5-1.31-.82-1.8-1.45-.94-3-1.65-4.53-2.49-.29-.17-.59-.31-.86-.5a1,1,0,0,1-.36-1.39c.35-.51.86-.59,1.47-.17,1.28.88,2.56,1.78,3.84,2.65a2.06,2.06,0,0,0,.86.49,3.45,3.45,0,0,0,1.17.85,1.89,1.89,0,0,0,.48-.9c.36-.93.71-1.86,1.07-2.78.6-1.53.6-1.53-1-2.24l-.09,0a6.11,6.11,0,0,0-1.42-.93q-3.45-2.08-6.92-4.15a10.59,10.59,0,0,1-1.55-1.1c-.67-.58-.74-.94-.33-1.63a1.44,1.44,0,0,1,1.83-.78,8.09,8.09,0,0,1,1.62,1l6.54,4.91a2.35,2.35,0,0,0,.83.53,5.53,5.53,0,0,0,1.57,1.22,2.76,2.76,0,0,0,.48-1q3.07-8,6.13-15.94c.87-2.27,1.71-4.55,2.57-6.82.36,0,.73,0,1.09,0,7.4,0,14.8,0,22.19,0,1.34,0,1.79.18,2.33,1.66Zm22.09,61.44c-.37-.17-.73-.42-1.23-.19a1.86,1.86,0,0,0,1.22.51l.19,0a.84.84,0,0,0,.27-.05c0-.17-.17-.11-.27-.17Z"/><path class="cls-3" d="M187.76,158c-1.58-.41-3.15-.82-4.73-1.25q-3.09-.82-6.16-1.69a16.16,16.16,0,0,1-2.39-.63c-.13,0-.26-.08-.23-.35a2.58,2.58,0,0,1,1.29.08c2.76.48,5.47,1.17,8.19,1.84a211.5,211.5,0,0,0,22.06,4.12c3.07.41,6.12.88,9.19,1.24,1.88.23,3.78.3,5.67.46a88.64,88.64,0,0,0,10.18.15,11.47,11.47,0,0,0,2.18-.25,24.14,24.14,0,0,0,3.79-.41,61.17,61.17,0,0,0,7-.95,1.94,1.94,0,0,0,.79-.14h.6c.24.14.41.1.46-.2.37-.16.61-.09.51.37a1.08,1.08,0,0,1-.65.7,13.47,13.47,0,0,1-2.11.89l-1,.39c-.32.07-.66.1-1,.19a47.57,47.57,0,0,1-13.22,1.72,88.22,88.22,0,0,1-15.4-1.23c-2.86-.46-5.74-.79-8.58-1.34-3.93-.76-7.78-1.83-11.67-2.72C191,158.59,189.38,158.17,187.76,158Z"/><path class="cls-3" d="M122.07,79c-.86,2.27-1.7,4.55-2.57,6.82q-3.06,8-6.13,15.94a2.76,2.76,0,0,1-.48,1,5.53,5.53,0,0,1-1.57-1.22c2-5.77,3.61-11.68,5.52-17.49.45-1.39.94-2.77,1.42-4.15.27-.77.43-.91,1.22-.93A17.23,17.23,0,0,1,122.07,79Z"/><path class="cls-3" d="M229.23,79.25q-.37,5.67-.76,11.35c-.09,1.36-.2,2.72-.37,4.11a45.13,45.13,0,0,0-2.36-5.08c.08-2.89.32-5.78.22-8.67-.05-1.34.55-1.92,1.68-1.77C228.16,79.26,228.7,79.23,229.23,79.25Z"/><path class="cls-3" d="M108.62,110.26c1.32.49,1.32.5.82,1.8l-7,18.16a3.31,3.31,0,0,1-.46,1,29.09,29.09,0,0,1,1-3.45c1.72-5.5,3.47-11,5.21-16.48C108.33,110.93,108.48,110.6,108.62,110.26Z"/><path class="cls-3" d="M159.83,126.42l1.68-.94,4-1.84,2.61-.93a33,33,0,0,1,4.39-1.18c.45-.09.86-.1,1.09.4-.29.08-.57.17-.86.24a50.33,50.33,0,0,0-5.64,1.61,56.84,56.84,0,0,0-6.74,3Z"/><path class="cls-3" d="M110.72,103.76l.09,0c1.55.71,1.55.71,1,2.24-.36.92-.71,1.85-1.07,2.78a1.89,1.89,0,0,1-.48.9,3.45,3.45,0,0,1-1.17-.85Z"/><path class="cls-3" d="M102,131.19c0,.17,0,.35-.18.49A.72.72,0,0,1,102,131.19Z"/><path class="cls-3" d="M101.73,132a.17.17,0,0,1,0,.15A.12.12,0,0,1,101.73,132Z"/><path class="cls-4" d="M192.61,141.66a12,12,0,0,0,2.81.93l.4,0,0,0a4.77,4.77,0,0,0,1.34.61c2.49,1,5.05,1.8,7.58,2.72,2.77,1,5.56,2,8.35,2.94,5,1.71,9.94,3.41,14.9,5.15,4.1,1.44,8.22,2.82,12.39,4a2,2,0,0,1,.83.32c.09.21.22.29.4.08a6.39,6.39,0,0,1,1.6.47,1.4,1.4,0,0,0,1.3.47,1.51,1.51,0,0,1,.73.38l0,.42h-.6a1.13,1.13,0,0,0-.8-.17,3.25,3.25,0,0,0-1.38-.25,21.17,21.17,0,0,0-2.58-.76,49.17,49.17,0,0,1-5.44-1.61,1.3,1.3,0,0,0-1.27-.95c-.24,0-.31.22-.34.42a42,42,0,0,1-5.5-1.79c-6.35-2.41-12.72-4.74-19.17-6.87l-8.52-2.83a2.92,2.92,0,0,0-2.39-.79c-.19,0-.39-.08-.57-.14l-6.25-2-6.71-2.24-1.88-.65a.52.52,0,0,0-.37-.42,5.74,5.74,0,0,0-2.3-.5c-2-.48-3.85-1.18-5.78-1.77-.79-.24-1.56-.51-2.34-.77-.16-.36-.45-.29-.74-.25a12.48,12.48,0,0,1-2.46-.75,1.39,1.39,0,0,0-1.34-.45.62.62,0,0,1-.47-.12c-.06-.25-.17-.37-.4-.13a6.39,6.39,0,0,1-1.59-.5c0-.06,0-.14-.1-.17a13.31,13.31,0,0,0-4.15-1.49.54.54,0,0,0-.55.14,6.83,6.83,0,0,1-1.81-.58.55.55,0,0,0-.43-.49c-.85-.29-1.69-.57-2.54-.84-.22-.07-.37.06-.46.27l-2.45-.69-3.92-1.31c-.14-.45-.57-.54-.93-.66-1.43-.49-2.88-.93-4.32-1.39a.93.93,0,0,0-.94.08,6.31,6.31,0,0,1-1.6-.49.76.76,0,0,0-1-.3.44.44,0,0,1-.4-.1c-.15-.31-.35-.33-.6-.11a.45.45,0,0,1-.4-.12,2.19,2.19,0,0,0-1.81-.45.46.46,0,0,1-.39-.09c-.08-.25-.2-.35-.41-.11a.46.46,0,0,1-.39-.09,1,1,0,0,0-1.21-.32.92.92,0,0,1-.66-.17.14.14,0,0,0-.11,0,.53.53,0,0,1-.42-.1,2.14,2.14,0,0,0-1.73-.46,6.59,6.59,0,0,1-1.87-.36c-.1-.24-.22-.31-.41-.08a1.32,1.32,0,0,1-.8-.12c-.1-.25-.23-.3-.4-.06a1.87,1.87,0,0,1-1-.15c-.1-.23-.23-.3-.41-.07a1.47,1.47,0,0,1-.8-.09c-.21-.42-.49-.37-.8-.11a7.89,7.89,0,0,1-2-.13,2.48,2.48,0,0,0-2.21,0l-3.37.33c-.21,0-.41,0-.48-.23s.12-.36.29-.44a5,5,0,0,1,.84-.31,21.06,21.06,0,0,1,6.33-.56,2.06,2.06,0,0,0,1.56.11.73.73,0,0,1,.63,0c.18.29.38.29.6.06l1.8,0c.08.06.16.16.24.17,2.06.21,4,.83,6.05,1.2,1.15.22,2.23.7,3.39.81l4.68,1.43c.19.06.37.15.55.22h0l.28.06a.4.4,0,0,0,.37.13.5.5,0,0,1,.42.13,1.62,1.62,0,0,0,1.45.44l.36.09a2.24,2.24,0,0,0,1.73.54l.26.07c.18.49.61.28,1,.33l.26.09.22.09a1.5,1.5,0,0,1,.77.25,2.14,2.14,0,0,0,1.39.85c.26.08.36,0,.41-.27,1,.14,2,.66,3,.79.1.16.25.16.41.15.26.34.67.25,1,.34.08.36.4.4.68.49l1.71.51a6,6,0,0,0,1.81.49c1.14.22,2.19.75,3.34.92a2.53,2.53,0,0,0,1.76.51,3.12,3.12,0,0,0,1.27.51l7,2.29c.22.08.42.19.63.28.11.28.32.3.57.21a6.59,6.59,0,0,1,1.63.58,9.26,9.26,0,0,0,3.57,1.22,16.2,16.2,0,0,0,5.85-.22c1.11-.22,2.21-.51,3.29-.83a11.46,11.46,0,0,0,4.86-3c2.44-2.42,4.75-4.95,7.07-7.47,1.83-2,3.53-4.08,5.56-5.88,1.07-.95,2.25-1.75,3.38-2.63a3.32,3.32,0,0,0,1-1.2c.49-1,1.08-1.92,1.59-2.89a1.1,1.1,0,0,1,1.13-.63c2.3.06,3.05.53,4.16,2.62a12.76,12.76,0,0,1,.86,2.55.82.82,0,0,1,0,.76,9.2,9.2,0,0,1-2,2.33c-.15.12-.33.28-.52.12s0-.37,0-.55c.22-.66.45-1.32.66-2,.05-.18.2-.36,0-.6a1.53,1.53,0,0,0-1.43,1.09,11,11,0,0,1-2.65,4.63l-.24-.24c.07-.54.47-1,.29-1.62-.16-.1-.27,0-.35.09a35.18,35.18,0,0,1-5.31,4.67c-2.23,1.63-4.26,3.51-6.46,5.17-2.64,2-5.31,4-8,6A7.41,7.41,0,0,1,190.2,139c-.28-.28-.35-.09-.4.17a1.09,1.09,0,0,1-1,.26c-.2-.28-.32-.21-.41.08a2.82,2.82,0,0,1-1.19.1.3.3,0,0,0-.41-.14.18.18,0,0,0-.07.15c.08.2.26.16.42.16h.1l3.14,1,1,.3A4.76,4.76,0,0,0,192.61,141.66Z"/><path class="cls-4" d="M214.1,105.56c.52.07,1,.43,1.49.43.13,0,.28,0,.3-.17s-.13-.2-.26-.22a6.71,6.71,0,0,1-.85-2.2l.22-.27a14.92,14.92,0,0,1,2.82,1,2.85,2.85,0,0,0,1.69.34,23.43,23.43,0,0,1-2.94-3.18.38.38,0,0,0-.35-.47,1,1,0,0,1-.07-1.18c.22-.09.3-.21.09-.4a.44.44,0,0,1,.1-.4c.22-.09.31-.21.1-.4a.47.47,0,0,1,.07-.4c.4-.21.36-.49.13-.8v-.82a.27.27,0,0,0,0-.43c-.37-.28-.75-.54-1.13-.81a5.85,5.85,0,0,0,.47-3.64l.35-.24a2.14,2.14,0,0,1,.7.9c0,.38.12.73.56.84v0a2.23,2.23,0,0,0,.4,1.11c.11.21.23.44.52.34a.41.41,0,0,0,.24-.57c-.12-.34,0-.5.34-.55a18.94,18.94,0,0,1,3.75,4.14c0,.26,0,.44.33.49a5.54,5.54,0,0,1,.92,2c-.08.25-.06.46.21.57a.61.61,0,0,1,.17.44c-.06.25,0,.45.24.56a24.48,24.48,0,0,1,1.39,3.63c-.09.24-.08.44.18.57a1.61,1.61,0,0,1,.25.82c-.12.23-.12.44.14.58a1.37,1.37,0,0,1,.12.8,3.54,3.54,0,0,0,0,2.38,1.56,1.56,0,0,1-.11.8c-.24.1-.3.23-.08.4a1.81,1.81,0,0,1-.15,1c-.21.1-.27.23-.06.4a.71.71,0,0,1-.14.6c-.2.1-.27.22-.08.4a15,15,0,0,1-1.85,4.88,30.69,30.69,0,0,0-2.56,5.13c-.38.09-.35.38-.31.67a.34.34,0,0,1-.19.35.63.63,0,0,0-.65.21h-.43l-.33-.18a.36.36,0,0,0-.48-.22c-.28-.16-.16-.41-.11-.62a14.19,14.19,0,0,0-.68-8.59.65.65,0,0,0,.26-.39,3.43,3.43,0,0,1,1.15.1c.1.12.2.27.35.07a.21.21,0,0,0-.11-.31,1.42,1.42,0,0,0-.36,0,4.37,4.37,0,0,1-1.49-.54l0-.47c.69-.29,1.49-.13,2.22-.54l-.61-.21c-.13-.31-.28-.3-.44,0a16.54,16.54,0,0,1-3.64-.5,15.94,15.94,0,0,0-2.55-.49c-.48,0-.64-.29-.57-.73a6.63,6.63,0,0,1,.18-.77,2.46,2.46,0,0,0,.06-1.47,2.52,2.52,0,0,1,0-1.19c.16-.85.33-1.7.49-2.55Z"/><path class="cls-5" d="M160.22,131a6,6,0,0,1-1.81-.49L156.7,130c-.28-.09-.6-.13-.68-.49v-.24a38.32,38.32,0,0,0,4.29-2.53,56.84,56.84,0,0,1,6.74-3,50.33,50.33,0,0,1,5.64-1.61c.29-.07.57-.16.86-.24,2.45-.57,5-.69,7.42-1.37a26.91,26.91,0,0,1,6.4-.88c.56,0,1.13,0,1.69,0a1.83,1.83,0,0,1,2.08.94c.4.78.81,1.55,1.18,2.35a2.28,2.28,0,0,1,.34,1.59,18.47,18.47,0,0,0-3.85-.51c-.83-.08-1.66-.13-2.49-.16a8.37,8.37,0,0,1-2.79-.66c-.26-.36-.06-.61.18-.88s.6-.41.61-.91l-4.3.5c.09.45.65.43.56.9a15.41,15.41,0,0,0-4.29,1.2,45.27,45.27,0,0,1-6.84,2.16,1,1,0,0,0-.8.44,44.61,44.61,0,0,0,9.56-1.08c.32.09.39.23.09.44a16.46,16.46,0,0,1-5.71,2.48c-2.82.65-5.7.9-8.55,1.33a35.7,35.7,0,0,0-3.67.9C160.2,130.71,160.22,130.86,160.22,131Z"/><path class="cls-5" d="M208.12,86.25a12,12,0,0,1,4.17,2.24c.87.66,1.66,1.44,2.53,2.09a3,3,0,0,1,.38,4l-.49.62a15.83,15.83,0,0,1-2.17-1.75,18.8,18.8,0,0,0-4.66-3.19c-.28-.13-.66-.17-.75-.56.4-.33,1,.06,1.45-.43a4.93,4.93,0,0,1-2.28-.91,1.77,1.77,0,0,0-1.68-.35,3.55,3.55,0,0,0-1.44.35A2.73,2.73,0,0,1,200.7,88c-.25-.16-.5-.32-.74-.5a5.17,5.17,0,0,0-2.85-1.09,20.06,20.06,0,0,1-2.65-.44c-.46-.1-.54-.39-.19-.69a2.15,2.15,0,0,1,2.09-.67,12.56,12.56,0,0,0,4.36.34,29.54,29.54,0,0,1,4,.09,5.94,5.94,0,0,1,2.74,1c-.8.24-1.36-.1-1.93-.07a8.77,8.77,0,0,0-1.74.15,1.11,1.11,0,0,0,1.11.34,5.26,5.26,0,0,1,2.94.24c.26.11,0-.18.14-.22Z"/><path class="cls-5" d="M221.51,136.32c-1-1.73-2-3.47-3-5.2-.39-.68-.39-.68.17-1.34.31.07.38.36.51.57,3.14,5.26,6.3,10.52,9.4,15.81a13.67,13.67,0,0,0,1.83,2.31,50.22,50.22,0,0,1,5.32,6.6,1.57,1.57,0,0,1,.43,1c-.17.22-.37.07-.54,0-1.8-.58-3.61-1.18-5.42-1.75a.79.79,0,0,1-.65-.73c-.2-1.42-.48-2.82-.73-4.24a2.36,2.36,0,0,0-.19-.76c-1-1.79-1.95-3.65-3.12-5.35C224.27,140.89,222.92,138.58,221.51,136.32Z"/><path class="cls-5" d="M191.55,119.82a1.78,1.78,0,0,1,1.16-.4,69.45,69.45,0,0,1,11.25.86,4.26,4.26,0,0,1,.49.1c.46.14.54.35.21.7-.66.71-1.35,1.38-2,2.08a.78.78,0,0,1-.62.24,50,50,0,0,1-5.19-.26,6.63,6.63,0,0,1-4.27-2.15A5.33,5.33,0,0,1,191.55,119.82Z"/><path class="cls-3" d="M204.62,88a1.77,1.77,0,0,1,1.68.35,4.93,4.93,0,0,0,2.28.91c-.47.49-1.05.1-1.45.43.09.39.47.43.75.56a18.8,18.8,0,0,1,4.66,3.19,15.83,15.83,0,0,0,2.17,1.75,1.91,1.91,0,0,1-2.88.67,34.63,34.63,0,0,1-4.68-3.21,1.31,1.31,0,0,0-1.93-.09,11.39,11.39,0,0,0-2.77,2.28,1.77,1.77,0,0,1,.56-1.34,6.38,6.38,0,0,1,1.66-1.27,2.24,2.24,0,0,0,1-.68c.22-.37-.31-.57-.4-.93C205,89.72,204.78,88.86,204.62,88Z"/><path class="cls-5" d="M193.5,87.76a1.24,1.24,0,0,1,1.43.75q6,10.26,12,20.49c.72,1.22,1.41,2.47,2.14,3.68a2.14,2.14,0,0,1,.18,1.94c-.37-.11-.45-.42-.58-.65l-5.21-9c-.15-.26-.33-.5-.49-.75s-.28-.6-.44-.88q-2.51-4.31-5-8.62C196.17,92.43,194.84,90.09,193.5,87.76Z"/><path class="cls-3" d="M178.21,125.52a44.61,44.61,0,0,1-9.56,1.08,1,1,0,0,1,.8-.44,45.27,45.27,0,0,0,6.84-2.16,15.41,15.41,0,0,1,4.29-1.2c.09-.47-.47-.45-.56-.9l4.3-.5c0,.5-.39.66-.61.91s-.44.52-.18.88L179.25,125A4.57,4.57,0,0,0,178.21,125.52Z"/><path class="cls-3" d="M215.39,132.78l-.06.08c-1.52,1.79-3.56,2.2-5.76,2.11a23.25,23.25,0,0,1-5.67-1l.14-.14c1.72-1.12,1.73-1.14,3.79-.83a10.53,10.53,0,0,0,7.5-1.71c.71-.46,1.13-1.22,1.81-1.71-.19.73-.74,1.28-1,2C215.93,132,215.34,132.18,215.39,132.78Z"/><path class="cls-5" d="M209.58,99.56c.65-.35.68-1,1.17-1.42.63,1.83,0,3.32-1,4.88a5.2,5.2,0,0,1-.66-1.94,1.61,1.61,0,0,0-1.21-1.4c-.67-.17-.69-.32-.57-1,0-.33.11-.66.18-1a9.09,9.09,0,0,0-1.46-.07c-.72-.11-.83-.22-.86-1a5.51,5.51,0,0,0,0-1c-.09-.49.12-.72.53-.94s.68,0,.92.31a6,6,0,0,0,2.22,1.67,1.23,1.23,0,0,1,.78,1.35A4.42,4.42,0,0,0,209.58,99.56Z"/><path class="cls-3" d="M193.5,87.76c1.34,2.33,2.67,4.67,4,7q2.49,4.32,5,8.62c.16.28.29.59.44.88-.08.42-.15.85-.23,1.27-1.14-1.71-2.06-3.55-3.12-5.31a12.21,12.21,0,0,0-1-1.7c-.86-1.76-1.92-3.42-2.88-5.13s-1.85-3.24-2.78-4.86l-.51-.94A2.09,2.09,0,0,1,193.5,87.76Z"/><path class="cls-3" d="M192.66,124.52a2.28,2.28,0,0,0-.34-1.59c-.37-.8-.78-1.57-1.18-2.35a7.53,7.53,0,0,1,2,3.59,7.17,7.17,0,0,1,.19,3.65c-.11.41,0,.61.42.74.79.25,1.57.56,2.36.83.38.12.48.28.22.63-.65.93-.87,1-2,.69l-3.68-1c-.08-.15-.06-.2,0-.23,1.81-.58,2.15-1.63,2.17-3.37A10.8,10.8,0,0,0,192.66,124.52Z"/><path class="cls-3" d="M221.51,136.32c1.41,2.26,2.76,4.57,4,6.92-.07.51-.15,1-.23,1.53a16.72,16.72,0,0,1-1.44-2.36c-.84-1.49-1.8-2.91-2.52-4.47A9.88,9.88,0,0,1,221.51,136.32Z"/><path class="cls-5" d="M191.62,85.19a7.42,7.42,0,0,1-1.28-1.76c-.19-.32-.15-.52.23-.69.67-.29,1.17-.83,1.83-1.15a4.15,4.15,0,0,1,2.44-.07c.18,0,.2.24.2.41a.89.89,0,0,0,.06.56.35.35,0,0,1-.27.5H193.6c-.87.06-1.21.65-1.39,1.39l0,0C191.76,84.49,191.85,85,191.62,85.19Z"/><path class="cls-3" d="M192.61,141.66a4.76,4.76,0,0,1-1.18-.57,7.68,7.68,0,0,0,.57-1.15,2.08,2.08,0,0,1,1.25-1.32c2.11-1,4.23-1.9,6.42-2.65a3.51,3.51,0,0,1,.58-.13c-1.63,1-3.32,1.83-5,2.65-.27.13-.53.28-.81.4A2.58,2.58,0,0,0,192.61,141.66Z"/><path class="cls-5" d="M194.92,83.23c.41.22.9.27,1.25.77-1.48.47-2.94,1-2.71,3-.94-.15-1.1-.81-1.23-1.5a3.76,3.76,0,0,0,0-1.11l0,0c.25,0,.7.1.66-.1-.14-.72.48-.66.78-.92s.85,0,1.26-.16Zm-1.49,1.21-.14.06s0,.07.05.06a.59.59,0,0,0,.14-.06Z"/><path class="cls-4" d="M216.18,131.58c.22-.71.77-1.26,1-2a26.24,26.24,0,0,0,1.37-2.9c.31,1.1.41,2-.34,2.8A19.66,19.66,0,0,1,216.18,131.58Z"/><path class="cls-3" d="M205.1,102.46c-.53.24-.62-.15-.7-.51-.13-.58-.23-1.17-.33-1.76a2.37,2.37,0,0,0-.55-1.15c1,.12,1.19.29,1.32,1.14S205,101.7,205.1,102.46Z"/><path class="cls-4" d="M220.16,125.23h.43a.63.63,0,0,0,.44.19,12.24,12.24,0,0,1-1.23,1.89.27.27,0,0,1-.32.07l-.52-1.65c.36-.25.73-.07,1.07-.1S220.19,125.39,220.16,125.23Z"/><path class="cls-3" d="M225.84,127.64l-.09-5a2.92,2.92,0,0,1,.51-1.06C226.2,123.73,226,125.68,225.84,127.64Z"/><path class="cls-5" d="M219.08,93.37c-.33,0-.46.21-.34.55a.41.41,0,0,1-.24.57c-.29.1-.41-.13-.52-.34a2.23,2.23,0,0,1-.4-1.11.4.4,0,0,0,.19,0c0,.12.07.27.19.21s0-.24,0-.35l-.07-.5A3,3,0,0,1,219.08,93.37Z"/><path class="cls-5" d="M180,137.51a9.26,9.26,0,0,1-3.57-1.22A24.62,24.62,0,0,1,180,137.51Z"/><path class="cls-5" d="M226.77,110.39a3.54,3.54,0,0,1,0-2.38A7.6,7.6,0,0,1,226.77,110.39Z"/><path class="cls-1" d="M194.92,83.23v0l-.08-.22a.35.35,0,0,0,.27-.5.89.89,0,0,1-.06-.56c.61.16.8.57.71,1.22Z"/><path class="cls-5" d="M215.49,95.15c.38.27.76.53,1.13.81a.27.27,0,0,1,0,.43,8.44,8.44,0,0,0-1.19-.87C215.32,95.44,215.1,95.23,215.49,95.15Z"/><path class="cls-1" d="M192.19,84.41a3.76,3.76,0,0,1,0,1.11c-.18-.16-.54,0-.61-.33C191.85,85,191.76,84.49,192.19,84.41Z"/><path class="cls-5" d="M244.49,159.38a1.4,1.4,0,0,1-1.3-.47A2.53,2.53,0,0,1,244.49,159.38Z"/><path class="cls-5" d="M217.57,93c-.44-.11-.53-.46-.56-.84A1.17,1.17,0,0,1,217.57,93Z"/><path class="cls-5" d="M216.64,97.21c.23.31.27.59-.13.8A1.38,1.38,0,0,1,216.64,97.21Z"/><path class="cls-5" d="M218.4,114.05l0,.47c-.13,0-.26,0-.38-.09s-.25-.11-.19-.26A.33.33,0,0,1,218,114,1.59,1.59,0,0,1,218.4,114.05Z"/><path class="cls-5" d="M221,125.42a.34.34,0,1,1,.21-.4A.45.45,0,0,1,221,125.42Z"/><path class="cls-5" d="M187.25,139.78h-.1c-.16,0-.34,0-.42-.16a.18.18,0,0,1,.07-.15.3.3,0,0,1,.41.14A.19.19,0,0,1,187.25,139.78Z"/><path class="cls-5" d="M219.85,115.06a1.42,1.42,0,0,1,.36,0,.21.21,0,0,1,.11.31c-.15.2-.25,0-.35-.07A.18.18,0,0,1,219.85,115.06Z"/><path class="cls-5" d="M221.43,124.67c0-.29-.07-.58.31-.67A1,1,0,0,1,221.43,124.67Z"/><path class="cls-5" d="M189.8,139.18c0-.26.12-.45.4-.17A.34.34,0,0,1,189.8,139.18Z"/><path class="cls-5" d="M224.7,101.61c-.28-.11-.3-.31-.24-.56A.71.71,0,0,1,224.7,101.61Z"/><path class="cls-5" d="M216,91.51a1.24,1.24,0,0,1-.18-.22c0-.11-.14-.25,0-.35s.25,0,.34.1a1.06,1.06,0,0,1,.19.23Z"/><path class="cls-5" d="M223.16,98c-.28,0-.36-.23-.33-.49A.61.61,0,0,1,223.16,98Z"/><path class="cls-5" d="M216.44,98.41c.21.19.12.31-.1.4A.44.44,0,0,1,216.44,98.41Z"/><path class="cls-5" d="M216.24,99.21c.21.19.13.31-.09.4A.4.4,0,0,1,216.24,99.21Z"/><path class="cls-5" d="M224.29,100.61c-.27-.11-.29-.32-.21-.57A.79.79,0,0,1,224.29,100.61Z"/><path class="cls-5" d="M216.22,100.79a.38.38,0,0,1,.35.47A.52.52,0,0,1,216.22,100.79Z"/><path class="cls-5" d="M245.2,160.18l0-.42.44.22C245.61,160.28,245.44,160.32,245.2,160.18Z"/><path class="cls-5" d="M218.82,115.23a.65.65,0,0,1-.26.39c-.13-.1-.23-.22-.13-.37S218.69,115.14,218.82,115.23Z"/><path class="cls-5" d="M219.57,113.28c.16-.28.31-.29.44,0A.36.36,0,0,1,219.57,113.28Z"/><path class="cls-5" d="M226.37,113c-.21-.17-.15-.3.06-.4A.39.39,0,0,1,226.37,113Z"/><path class="cls-5" d="M226.58,111.59c-.22-.17-.16-.3.08-.4A.44.44,0,0,1,226.58,111.59Z"/><path class="cls-5" d="M226.66,107.21c-.26-.14-.26-.35-.14-.58A.79.79,0,0,1,226.66,107.21Z"/><path class="cls-5" d="M174.76,135.71c-.25.09-.46.07-.57-.21A.79.79,0,0,1,174.76,135.71Z"/><path class="cls-5" d="M226.27,105.81c-.26-.13-.27-.33-.18-.57A.73.73,0,0,1,226.27,105.81Z"/><path class="cls-5" d="M226.15,114c-.19-.18-.12-.3.08-.4A.39.39,0,0,1,226.15,114Z"/><path class="cls-5" d="M188.4,139.52c.09-.29.21-.36.41-.08A.31.31,0,0,1,188.4,139.52Z"/><path class="cls-5" d="M241.59,158.44c-.18.21-.31.13-.4-.08A.37.37,0,0,1,241.59,158.44Z"/><path class="cls-5" d="M215.63,105.6c.13,0,.28.05.26.22s-.17.17-.3.17Z"/><path class="cls-4" d="M219.35,124.83a.36.36,0,0,1,.48.22A.4.4,0,0,1,219.35,124.83Z"/><path class="cls-5" d="M207.7,86.28a.29.29,0,0,1-.32-.13c0-.07,0-.12.06-.14a.28.28,0,0,1,.38.17Z"/><path class="cls-4" d="M212.73,123.74c-.09.16-.17.43-.39.26s0-.34.15-.5Z"/><path class="cls-5" d="M214.1,105.56l-.59,0C213.64,105.14,213.69,105.14,214.1,105.56Z"/><path class="cls-5" d="M207.82,86.18c.12-.08.22,0,.3.07l-.15.18c-.14,0-.24,0-.27-.15Z"/><path class="cls-3" d="M200.48,135.74l0,0Z"/><path class="cls-5" d="M215,103.13l-.22.27C214.66,103.15,214.7,103,215,103.13Z"/><path class="cls-4" d="M216.13,121.37l-.13-.07s.05-.07.07-.06l.13.06Z"/><path class="cls-3" d="M134.41,124.9a.46.46,0,0,0,.39.09.44.44,0,0,0,.41.11.46.46,0,0,0,.39.09l.46.24c1.44,2.08,2.89,4.16,4.32,6.24q4.63,6.75,9.25,13.52c.14.21.37.39.3.71-.36.12-.65-.1-.94-.21-2-.75-4-1.45-6-2.29-3.15-1.35-6.41-2.44-9.64-3.57a52.76,52.76,0,0,1-12.3-6.36,30.46,30.46,0,0,1-5.79-5.32,5.74,5.74,0,0,1-1.24-4.09,1.38,1.38,0,0,1,1.15-1.49c0,.18-.28.35-.09.52s.43,0,.62-.11a.25.25,0,0,0,.1-.23c-.08-.35-.35-.14-.55-.16h-.1c.14-.66.72-.81,1.22-1a10.7,10.7,0,0,1,4.42-.52c.83,0,1.65.18,2.48.28a.22.22,0,0,0-.1.09,21.06,21.06,0,0,0-6.33.56,5,5,0,0,0-.84.31c-.17.08-.38.19-.29.44s.27.25.48.23l3.37-.33a8.61,8.61,0,0,0,2.21,0,7.89,7.89,0,0,0,2,.13,1.17,1.17,0,0,0,.8.11,1.47,1.47,0,0,0,.8.09.39.39,0,0,0,.41.07,1.87,1.87,0,0,0,1,.15.37.37,0,0,0,.4.06,1.32,1.32,0,0,0,.8.12.38.38,0,0,0,.41.08,6.59,6.59,0,0,0,1.87.36,5.16,5.16,0,0,0,1.73.46.53.53,0,0,0,.42.1l0,.06.06,0a.92.92,0,0,0,.66.17A2.69,2.69,0,0,0,134.41,124.9Z"/><path class="cls-1" d="M234.4,157.38a49.17,49.17,0,0,0,5.44,1.61,21.17,21.17,0,0,1,2.58.76,8.11,8.11,0,0,1-3,.39.94.94,0,0,1-.28-.1c-.69-.2-1.38-.41-2.08-.59-.25-.07-.55-.12-.72.14a.5.5,0,0,0,.17.7,1,1,0,0,1,.34,1,24.14,24.14,0,0,1-3.79.41c-.17-.67-.77-.88-1.31-1.1a23,23,0,0,1-2.22-1.11,6.43,6.43,0,0,0-2.59-.65,3.22,3.22,0,0,1-1.41-.43,5.72,5.72,0,0,0-1.91-.83,3.47,3.47,0,0,1-1.12-.63,15.7,15.7,0,0,0-3.38-1.44c-1-.33-2-.8-3.09-1.12a5.8,5.8,0,0,1-1.44-.65,4.65,4.65,0,0,0-1.75-.69,7.57,7.57,0,0,1-1.61-.52c-2.53-1.08-5-2.22-7.62-3.18a42.33,42.33,0,0,1-5.76-2.44c-1.16-.66-2.47-1-3.61-1.66-.46-.28-.86-.63-1.32-.89a12.19,12.19,0,0,0-1.91-1.05.8.8,0,0,1-.57-.84l6.25,2c.18.06.38.09.57.14.79.28,1.47.91,2.39.79l8.52,2.83c6.45,2.13,12.82,4.46,19.17,6.87a42,42,0,0,0,5.5,1.79A3.66,3.66,0,0,0,234.4,157.38Z"/><path class="cls-3" d="M147.6,128.73l3.92,1.31c.72,1.71,1.66,3.32,2.5,5l7.24,14.13a1.29,1.29,0,0,1,.25.74c-.28.2-.51,0-.75-.08-1.32-.47-2.63-1-3.95-1.41a1.77,1.77,0,0,1-1-.78l-11.67-19.19c-.15-.25-.26-.53-.39-.8C145.09,127.87,146.3,128.45,147.6,128.73Z"/><path class="cls-1" d="M160.31,126.73a38.32,38.32,0,0,1-4.29,2.53.77.77,0,0,1,.38-1.14,16.86,16.86,0,0,1,3.43-1.7Z"/><path class="cls-5" d="M147.6,128.73c-1.3-.28-2.51-.86-3.83-1.1l-2.36-.87a.93.93,0,0,1,.94-.08c1.44.46,2.89.9,4.32,1.39C147,128.19,147.46,128.28,147.6,128.73Z"/><path class="cls-5" d="M159.21,132.37a.54.54,0,0,1,.55-.14,13.31,13.31,0,0,1,4.15,1.49c.05,0,.06.11.1.17A44.58,44.58,0,0,1,159.21,132.37Z"/><path class="cls-5" d="M154,130.73c.09-.21.24-.34.46-.27.85.27,1.69.55,2.54.84a.55.55,0,0,1,.43.49A25.66,25.66,0,0,1,154,130.73Z"/><path class="cls-5" d="M179.13,138.63a5.74,5.74,0,0,1,2.3.5.52.52,0,0,1,.37.42A12.05,12.05,0,0,1,179.13,138.63Z"/><path class="cls-5" d="M151.6,128.22c0,.23-.15.35-.41.27a2.14,2.14,0,0,1-1.39-.85A6.32,6.32,0,0,1,151.6,128.22Z"/><path class="cls-5" d="M136.06,125.43l-.46-.24a2.19,2.19,0,0,1,1.81.45C136.94,125.7,136.52,125.4,136.06,125.43Z"/><path class="cls-1" d="M173.38,154a1.86,1.86,0,0,1-1.22-.51c.5-.23.86,0,1.23.19Z"/><path class="cls-5" d="M147.34,126.81a2.24,2.24,0,0,1-1.73-.54A5.45,5.45,0,0,1,147.34,126.81Z"/><path class="cls-5" d="M123.2,121.42a.22.22,0,0,1,.1-.09,5.59,5.59,0,0,1,1.46.2A2.06,2.06,0,0,1,123.2,121.42Z"/><path class="cls-5" d="M145.25,126.18a1.62,1.62,0,0,1-1.45-.44A3.59,3.59,0,0,1,145.25,126.18Z"/><path class="cls-5" d="M166.47,134.64a1.39,1.39,0,0,1,1.34.45A3.55,3.55,0,0,1,166.47,134.64Z"/><path class="cls-5" d="M138.81,126a.76.76,0,0,1,1,.3A2,2,0,0,1,138.81,126Z"/><path class="cls-5" d="M148.55,127.21c-.34,0-.77.16-1-.33A1.81,1.81,0,0,1,148.55,127.21Z"/><path class="cls-5" d="M137.81,125.76c.25-.22.45-.2.6.11A.71.71,0,0,1,137.81,125.76Z"/><path class="cls-5" d="M126,121.63c-.22.23-.42.23-.6-.06A.83.83,0,0,1,126,121.63Z"/><path class="cls-5" d="M170.27,135.84c.29,0,.58-.11.74.25A1.11,1.11,0,0,1,170.27,135.84Z"/><path class="cls-1" d="M155,129.16c-.16,0-.31,0-.41-.15C154.86,128.73,154.94,128.92,155,129.16Z"/><path class="cls-5" d="M165.6,134.39c.23-.24.34-.12.4.13A.49.49,0,0,1,165.6,134.39Z"/><path class="cls-3" d="M173.38,154v-.32l.18.08c.1.06.27,0,.27.17a.84.84,0,0,1-.27.05Z"/><path class="cls-5" d="M143.38,125.61a.4.4,0,0,1-.37-.13A.37.37,0,0,1,143.38,125.61Z"/><path class="cls-5" d="M149,127.39l-.22-.09A.17.17,0,0,1,149,127.39Z"/><polygon class="cls-5" points="142.73 125.42 142.7 125.41 142.7 125.37 142.73 125.42"/><path class="cls-2" d="M236.8,161.26a1,1,0,0,0-.34-1,.5.5,0,0,1-.17-.7c.17-.26.47-.21.72-.14.7.18,1.39.39,2.08.59a.94.94,0,0,0,.28.1,8.11,8.11,0,0,0,3-.39,3.25,3.25,0,0,1,1.38.25v.31A61.17,61.17,0,0,1,236.8,161.26Z"/><path class="cls-1" d="M243.81,160.31V160a1.13,1.13,0,0,1,.8.17A1.94,1.94,0,0,1,243.81,160.31Z"/><path class="cls-1" d="M195.82,142.61l-.4,0C195.57,142.42,195.69,142.49,195.82,142.61Z"/><path class="cls-5" d="M234.4,157.38a3.66,3.66,0,0,1-1.61-.53c0-.2.1-.39.34-.42A1.3,1.3,0,0,1,234.4,157.38Z"/><path class="cls-5" d="M199.6,145.36c-.92.12-1.6-.51-2.39-.79A2.92,2.92,0,0,1,199.6,145.36Z"/><path class="cls-5" d="M121.8,122.66a8.61,8.61,0,0,1-2.21,0A2.48,2.48,0,0,1,121.8,122.66Z"/><path class="cls-5" d="M132,124.29a5.16,5.16,0,0,1-1.73-.46A2.14,2.14,0,0,1,132,124.29Z"/><path class="cls-5" d="M134.41,124.9a2.69,2.69,0,0,1-1.21-.32A1,1,0,0,1,134.41,124.9Z"/><path class="cls-5" d="M124.6,122.9a1.17,1.17,0,0,1-.8-.11C124.11,122.53,124.39,122.48,124.6,122.9Z"/><path class="cls-5" d="M135.21,125.1a.44.44,0,0,1-.41-.11C135,124.75,135.13,124.85,135.21,125.1Z"/><path class="cls-5" d="M127.2,123.27a.37.37,0,0,1-.4-.06C127,123,127.1,123,127.2,123.27Z"/><path class="cls-5" d="M128.41,123.47a.38.38,0,0,1-.41-.08C128.19,123.16,128.31,123.23,128.41,123.47Z"/><path class="cls-5" d="M125.81,123.06a.39.39,0,0,1-.41-.07C125.58,122.76,125.71,122.83,125.81,123.06Z"/><path class="cls-5" d="M132.54,124.41l-.06,0,0-.06A.14.14,0,0,1,132.54,124.41Z"/><path class="cls-1" d="M193.65,83.37c-.3.26-.92.2-.78.92,0,.2-.41.14-.66.1.18-.74.52-1.33,1.39-1.39Z"/><path class="cls-1" d="M193.65,83.37,193.6,83h1.23l.08.22C194.5,83.35,194.05,83.16,193.65,83.37Z"/><path class="cls-5" d="M193.43,84.44l0,.06a.59.59,0,0,1-.14.06s0,0-.05-.06Z"/><path class="cls-1" d="M217.94,92.89c.07.11.23.25,0,.35s-.17-.09-.19-.21Z"/><path class="cls-5" d="M115.18,122.58h.1c.2,0,.47-.19.55.16a.25.25,0,0,1-.1.23c-.19.1-.42.27-.62.11s.08-.34.09-.52Z"/></svg>