<svg id="frames" xmlns="http://www.w3.org/2000/svg" viewBox="0 0 384 216"><defs><style>.cls-1{fill:#0f1b33;}.cls-2{fill:#fd0101;}.cls-3{fill:#f5f6f7;}</style></defs><path class="cls-1" d="M165.44,123.52c0-.67,0-1.33,0-2,0-7,0-14.06,0-21.09-.06-5.19-.06-10.39-.05-15.59,0-1.6.07-3.19.16-4.79a1,1,0,0,1,.72-1,2.84,2.84,0,0,1,1.08-.1c6.57,0,13.13,0,19.69,0q7.84,0,15.69.16c1.6,0,3.19.08,4.79.19a19.36,19.36,0,0,1,5.89,1.46,31.14,31.14,0,0,1,9.38,5.59,41.16,41.16,0,0,1,3,3.19c.73,1.31,1.37,2.67,2.09,4q.5-7.22,1-14.42c2.53-.06,5.06-.07,7.59,0l.9,0c5.53,0,11.06-.11,16.59,0,3.87.06,7.73,0,11.59.15a26.81,26.81,0,0,1,17.35,7.09,25.81,25.81,0,0,1,8.26,15A27.19,27.19,0,0,1,268.83,133a30.05,30.05,0,0,1-5.27.42H249.27c-.77,0-.79,0-.81.77,0,1.57-.07,3.13-.08,4.7v21.48c0,.24,0,.47,0,.7a1.26,1.26,0,0,1-1.31,1.34c-.83.05-1.67,0-2.5,0s-1.66-.07-2.49-.11c.37-.15.73-.31,1.1-.44a13,13,0,0,0,2.11-.87,1.39,1.39,0,0,0,.71-.66c.16-.35.06-.45-.48-.47a10.71,10.71,0,0,0-3-1.27c-3.37-.92-6.72-1.92-10-3.08-8.89-3.12-17.84-6-26.69-9.3-2.52-.93-5.05-1.87-7.63-2.64.41-.46.8-.07,1.16.05,5.41,1.75,10.8,3.61,16.15,5.54,3.17,1.14,6.37,2.18,9.55,3.26.85.29.93.24.92-.64,0-1.13-.07-2.26-.06-3.39a6.22,6.22,0,0,0-.74-3.74c.07-.51.15-1,.22-1.51.93,1.26,1.56,2.7,2.4,4a7.06,7.06,0,0,1,1.1,3.07c.11,1,.38,2,.51,3.05a1.1,1.1,0,0,0,.91,1c1.66.51,3.3,1.07,5,1.6.26.09.53.29.85.1a2.55,2.55,0,0,0-.47-1,48.1,48.1,0,0,0-4.23-5.42,30.07,30.07,0,0,1-3.34-4.17c-2.78-4.86-5.69-9.63-8.56-14.43a5.43,5.43,0,0,0-.87-1.31c-.65.62-.66.63-.28,1.29l3,5.29c-.27.49-.07,1-.2,1.55a1.38,1.38,0,0,1-.39-.56l-3.17-5.41c-.36-.61-.55-.64-1.09-.21a8.31,8.31,0,0,1-1.3,1.07c-.05-.6.53-.79.78-1.2a19.43,19.43,0,0,0,2.14-2.3c.65-.81.47-1.63.2-2.7-.29.7-.49,1.22-.71,1.72a3.24,3.24,0,0,1-.86,1.43,13.08,13.08,0,0,1-1.56,1.51,10.42,10.42,0,0,1-7.37,1.77l-1.67-.21a1.23,1.23,0,0,0-.95.16c-.48.35-1,.68-1.47,1-1.19.6-2.33,1.3-3.56,1.81a11.61,11.61,0,0,0-2.53.86c-1.41.56-2.81,1.16-4.2,1.77a2.53,2.53,0,0,0-1.45,1.12c-.23.51-.47,1-.71,1.53a29.32,29.32,0,0,1-3.86-1.33,10.85,10.85,0,0,0,5.51-2.27c4-3,8.09-6,11.94-9.22,1.93-1.63,4.07-3,5.89-4.79.57-.54,1.13-1.1,1.84-1.79a6.42,6.42,0,0,1-.79,2.84,6.69,6.69,0,0,0,.93-.91,12.51,12.51,0,0,0,2.48-4.52,1.54,1.54,0,0,1,1.59-1.07c-.19.61-.36,1.11-.5,1.61a6.28,6.28,0,0,0-.47,1.55.36.36,0,0,0,.43,0,8.57,8.57,0,0,0,2.14-2.35.82.82,0,0,0,.13-.76c-.37-.92-.48-1.91-.91-2.81a4.12,4.12,0,0,0-4.24-2.5,1,1,0,0,0-1,.56c-.54,1-1.14,2-1.64,3a3.36,3.36,0,0,1-1,1.19c-1.12.89-2.3,1.7-3.38,2.64A60.11,60.11,0,0,0,202,124.7c-2.64,2.87-5.25,5.77-8,8.52a11.87,11.87,0,0,1-4.06,2.8,23.41,23.41,0,0,1-6.89,1.54,8.49,8.49,0,0,1-3.46-.25c-4.51-1.54-9-3.22-13.53-4.58a1.2,1.2,0,0,1-.71-.33c0-.29,0-.59,0-.89,0-.13,0-.29-.17-.33a2.78,2.78,0,0,0-1.07.12c-.33.06-.67.13-.71.57a33.15,33.15,0,0,1-3.61-1.13,28.18,28.18,0,0,1,4.18-1.06c1.68-.23,3.37-.41,5.05-.68a30.63,30.63,0,0,0,6-1.42,19.52,19.52,0,0,0,3.13-1.74c.29-.17.11-.31-.06-.44a3,3,0,0,1,.86-.47c1.43-.69,2.93-1.22,4.4-1.81a12,12,0,0,0,4.28.76,23.41,23.41,0,0,1,4.73.54,4,4,0,0,1,.31,1.86c0,1.75-.55,2.48-2.23,3.12-.08,0-.08.1,0,.23,1.17.32,2.42.65,3.67,1s1.35.24,2-.68c.23-.34.18-.51-.22-.64-.76-.25-1.5-.55-2.26-.8-.45-.15-.64-.38-.49-.89a6.18,6.18,0,0,0-.08-3,11.14,11.14,0,0,0-.33-1.11,7,7,0,0,0-1.78-3c-.41-.39-.61-1-1.39-1a55.26,55.26,0,0,0-6.16.42c-2.64.36-5.15,1.31-7.83,1.47-.75,0-1.47.38-2.25.4a.68.68,0,0,0-.8-.42q-.59.09-1.17.21A49.5,49.5,0,0,0,165.44,123.52Zm27.45-42.19c-1.09.15-1.79,1-2.72,1.48-.22.11-.09.35,0,.52A9.42,9.42,0,0,0,191.34,85a2.63,2.63,0,0,1,1,1.25.9.9,0,0,0,1,.7c.12-.52-.17-1.14.36-1.56.36.61,1,.61,1.54.6a1,1,0,0,0,.6.1.88.88,0,0,0,.8.11.9.9,0,0,0,.6.1,1.16,1.16,0,0,0,.8.09l1,.39a.48.48,0,0,0,.45.28,2,2,0,0,0,.76.52.48.48,0,0,0,.44.3l.28.14a1.94,1.94,0,0,0,2.29.09.51.51,0,0,0,.39-.11l.87-.11a16.81,16.81,0,0,0,.75,2.89c.28.7.31.7-.28,1.06a9.49,9.49,0,0,0-2,1.48,1.66,1.66,0,0,0-.57,1.49,7.82,7.82,0,0,1,2.81-2.38,1.47,1.47,0,0,1,2,.19,25.3,25.3,0,0,0,4.51,3.11c1.13.7,2.06.44,2.89-.7,1.45-1.68,1.39-3.35-.17-4.68a1.12,1.12,0,0,0-.63-.54,2.14,2.14,0,0,0-.77-.66.5.5,0,0,0-.43-.34,1.36,1.36,0,0,0-.57-.46.45.45,0,0,0-.43-.31.15.15,0,0,0-.15-.1,1.68,1.68,0,0,0-.26-.27,26.45,26.45,0,0,0-5.75-2.63,4.16,4.16,0,0,0-2-.15,1.11,1.11,0,0,0-.6,0,3.57,3.57,0,0,0-1.75,0,3.92,3.92,0,0,0-1.41.07,3,3,0,0,0-1.44,0l-.4-.06a6.69,6.69,0,0,0-1.6-.33.47.47,0,0,0-.4-.07c-.32-.33.43-.55.14-.73-.51-.32-.28-.76-.33-1.15s-.16-.64-.61-.53c-.06-.43-.22-.74-.74-.68a3.82,3.82,0,0,1-.58,0A.53.53,0,0,0,192.89,81.33ZM203.39,99a3,3,0,0,0-2.25-.32l6.33,10.84a5.54,5.54,0,0,0,.53-2.77c0-.63.13-1.39-.25-1.84a10.27,10.27,0,0,0-1.22-1.45c-.48-.4-.88-1-1.59-1.07-.09-.75-.15-1.51-.26-2.25S204.32,99.09,203.39,99Zm-10-11.32c-.34-.06-.65-.28-1.1-.14.91,1.58,1.79,3.1,2.65,4.63,1.18,2.12,2.47,4.17,3.56,6.33l-9.48.16c-1,0-1,0-1,.95v9c0,1.9,0,3.79,0,5.69,0,.7,0,.7.74.69l11.78-.15a6.86,6.86,0,0,0,4.78-1.93c1-.93,1-.93.29-2.15-1-1.77-2.09-3.48-3-5.31l.2-1.28c.17.24.35.48.5.74l5.22,9c.14.24.21.55.6.7a2.49,2.49,0,0,0-.2-2q-7.08-12.06-14.12-24.15A1.27,1.27,0,0,0,193.34,87.67Zm25.71,36.73c-.2.31.07.4.25.51s.57.17.59.51c-.34.28-.79-.09-1.06.31l.56,1.81a12.11,12.11,0,0,0,1.44-2.13,4.24,4.24,0,0,0,.79-1.48,17.81,17.81,0,0,1,2-4.23,21.14,21.14,0,0,0,2.95-8.61,11.63,11.63,0,0,0-.5-5.7c-.57-1.56-1.19-3.1-1.8-4.65a13.93,13.93,0,0,0-1.49-3.26,26.81,26.81,0,0,0-4.48-4.8c-.14-.1-.25-.33-.48-.2s.2.46-.21.58A11,11,0,0,0,216,91c0-.16-.12-.2-.25-.2s-.17.07-.14.18a4.48,4.48,0,0,1-.18,3.85c-.24.45-.19.71.32.91a1.18,1.18,0,0,1,.72,1.46,23.17,23.17,0,0,1-.5,2.34,1.6,1.6,0,0,0,.33,1.58,26.05,26.05,0,0,0,2.61,2.75c.14.12.37.19.26.55-1.6-.19-3-1.25-4.63-1.41.16,1,.76,1.85.92,2.87a5.75,5.75,0,0,1-2-.75c-.2,1.14-.39,2.21-.57,3.29a1.77,1.77,0,0,0,0,.69,2.82,2.82,0,0,1-.07,1.77,2.67,2.67,0,0,0-.15.68c0,.39.09.65.54.66a7.61,7.61,0,0,1,1.77.29,26.88,26.88,0,0,0,4.72.78c.22,0,.47,0,.67.2-.86.4-1.85.24-2.84.65.68.5,1.46.49,2,1a5,5,0,0,1-.51,0c-.89-.09-.93,0-.64.78a20.55,20.55,0,0,1,1,3.27.58.58,0,0,0,.07.58c0,.68,0,1.36,0,2a1.06,1.06,0,0,0-.08.78,1.86,1.86,0,0,0-.15.81.36.36,0,0,0-.06.41A1.12,1.12,0,0,0,219.05,124.4Zm35.89-9.33v.13h5.2a5.32,5.32,0,0,0,1.68-.22,8.88,8.88,0,0,0,6.34-7.17,5.62,5.62,0,0,0-.3-3.43,10.54,10.54,0,0,0-4.45-5,5.92,5.92,0,0,0-3-.77c-3.7,0-7.4,0-11.1,0-.77,0-.78,0-.79.77q-.06,7.39-.1,14.79c0,.84,0,.88.89.89C251.21,115.09,253.08,115.07,254.94,115.07Zm-29.19,7.84c-.68.62-1.36,1.21-2,1.83-1.34,1.3-2.8,2.46-4.23,3.65-.63.53-.61.57-.22,1.23l5.93,10.06c.11.19.15.45.51.5Zm-34.38-3.13a13.15,13.15,0,0,0,2.1,2.06,5.46,5.46,0,0,0,2.62,1.14,39.87,39.87,0,0,0,5.78.35.81.81,0,0,0,.62-.24c.64-.68,1.3-1.33,1.94-2,.42-.44.35-.63-.26-.8a2.47,2.47,0,0,0-.29-.06,68.1,68.1,0,0,0-11.32-.86A1.74,1.74,0,0,0,191.37,119.78Zm18.06-16.91a4.48,4.48,0,0,0,1.09-4.8c-.24.4-.46.76-.69,1.11-.09.14-.2.29-.4.2s-.12-.22-.11-.34c0-.37,0-.74.07-1.1a1.22,1.22,0,0,0-.82-1.41,5.84,5.84,0,0,1-2.2-1.68c-.21-.25-.41-.51-.83-.29s-.67.38-.58.9a5.92,5.92,0,0,1,0,1.19.66.66,0,0,0,.71.77c.52,0,1,0,1.54,0a2.05,2.05,0,0,1-.07,1c-.15.94-.17,1,.76,1.28a1.28,1.28,0,0,1,.92,1C209,101.45,209.23,102.14,209.43,102.87Zm-16.88,30.79a25.13,25.13,0,0,0-4.33-.29.33.33,0,0,0-.28.35,15.14,15.14,0,0,0,.07,2.58A10.48,10.48,0,0,0,192.55,133.66Zm23.34-12.47s-.06,0-.06.06a.84.84,0,0,0,.06.14s.07,0,.06-.07A.75.75,0,0,0,215.89,121.19Z"/><path class="cls-1" d="M150.65,90.19c3.66,11.53,7.14,23.11,10.68,34.67,0,.16.08.33.12.49a10,10,0,0,1-1.38.72c-.37.19-.36.44.1.54a2.45,2.45,0,0,1-.8.59c-1,.6-2.09,1.16-3.09,1.82a1.26,1.26,0,0,1-1.46.14,2.54,2.54,0,0,0-.46-.17c-5.39-1.7-10.75-3.47-16.18-5a1.53,1.53,0,0,1-.8-.38,3.68,3.68,0,0,0-.08-.58q-2.18-7.49-4.37-15c-.08-.27,0-.66-.46-.84l-.33,1c-.86,2.59-1.56,5.23-2.5,7.79-.67,1.85-1.26,3.72-1.89,5.58a30.58,30.58,0,0,1-3.45-.22,30.64,30.64,0,0,0-5.66-.35,7.78,7.78,0,0,0-2.62.57c-1.56.68-2.43,1.91-2.16,3.32a7.37,7.37,0,0,0,1.76,3.82,40.33,40.33,0,0,0,9.44,7.32,50.68,50.68,0,0,0,8.07,3.69c3.25,1.2,6.55,2.25,9.74,3.62,2,.85,4,1.56,6.06,2.31.25.1.52.31.81.06a1.9,1.9,0,0,0-.48-.88c-4.19-6.16-8.37-12.34-12.68-18.43-.17-.25-.52-.46-.37-.86.09,0,.19-.1.27-.08a51.59,51.59,0,0,1,7.1,2.09,8.52,8.52,0,0,0,.4.8q5.82,9.56,11.63,19.11a1.86,1.86,0,0,0,1,.87c1.35.46,2.69,1,4,1.44.2.08.41.26.67,0a1.75,1.75,0,0,0-.27-.73q-1.16-2.26-2.32-4.53-3.51-6.84-7-13.69c-.11-.21-.38-.42-.13-.71.38-.13.7.1,1,.21,6.13,1.92,12.25,3.88,18.39,5.79,7.92,2.45,15.78,5.1,23.66,7.67,6,2,12.11,3.9,18.12,6s11.89,4.32,17.86,6.44c2.82,1,5.69,1.85,8.6,2.6,1.7.44,3.41.89,5.13,1.25a2.87,2.87,0,0,1-.86.22c-1.61.31-3.23.48-4.85.69-2.61.34-5.22.69-7.85.84a96.85,96.85,0,0,1-16.15-.6c-3.37-.38-6.73-.91-10.09-1.36a202.29,202.29,0,0,1-20.7-3.9,115.16,115.16,0,0,0-11.33-2.39l0,0,0,0c.53.2,1,.45,1.58.6q4.23,1.22,8.46,2.38c1.7.47,3.41.9,5.11,1.35,0,1-.07,2-.12,3s-.35,1.23-1.28,1.27H149.86c-1,0-1.07-.09-1.36-1-.89-2.75-1.79-5.5-2.68-8.26-.13-.38-.25-.76-.39-1.13-.27-.78-.3-.81-1.14-.81H120.7c-1.15,0-1,0-1.29.94-.74,2.56-1.63,5.08-2.22,7.68,0,.06,0,.13,0,.19-.62,2-.91,2.18-3,2.19-2.47,0-4.93,0-7.39.09-3.49.12-7,.19-10.48.2-.83,0-1.66.08-2.49.08-1.29,0-1.63-.45-1.25-1.68,1.17-3.68,2.35-7.36,3.51-11q3.86-12.14,7.69-24.28c.12-.38.2-.77.3-1.16.43,0,.36-.42.46-.66.75-1.65,1.25-3.4,2-5.07,1-2.33,1.83-4.7,2.73-7.06.31-.81.3-.82-.6-1.17-1.32-.89-2.79-1.51-4.16-2.31a8,8,0,0,1-.86-.49,1,1,0,0,1-.38-1.45c.37-.49.86-.53,1.48-.11,1.29.88,2.56,1.77,3.84,2.66a1,1,0,0,0,.53.25,1.27,1.27,0,0,0,.93.57c.53-1.39,1.06-2.75,1.58-4.12.36-.92.35-.92-.48-1.39a2,2,0,0,0-.37-.14c-1.06-.8-2.26-1.4-3.39-2.1-1.53-.94-3.08-1.86-4.62-2.78a11.34,11.34,0,0,1-1.55-1.09c-.66-.57-.75-1-.36-1.65a1.44,1.44,0,0,1,1.93-.74,11.5,11.5,0,0,1,1.94,1.22l5.75,4.33a2.85,2.85,0,0,0,.91.59,3,3,0,0,0,1.21.93,2.83,2.83,0,0,0,.51-1.05q2.91-7.55,5.8-15.09c.92-2.42,1.83-4.85,2.75-7.28.33,0,.66,0,1,0q11.4,0,22.79,0c1.39,0,1.74.26,2.23,1.53Z"/><path class="cls-2" d="M172.59,153.58A115.16,115.16,0,0,1,183.92,156a202.29,202.29,0,0,0,20.7,3.9c3.36.45,6.72,1,10.09,1.36a96.85,96.85,0,0,0,16.15.6c2.63-.15,5.24-.5,7.85-.84,1.62-.21,3.24-.38,4.85-.69a2.87,2.87,0,0,0,.86-.22c.23,0,.46.06.68.11s.37-.07.42-.3c.54,0,.64.12.48.47a1.39,1.39,0,0,1-.71.66,13,13,0,0,1-2.11.87c-.37.13-.73.29-1.1.44s-.86.13-1.28.25a45.82,45.82,0,0,1-11.23,1.57A104.22,104.22,0,0,1,211,162.72a159.31,159.31,0,0,1-17.2-3.51c-2-.51-4-1-6-1.29-1.7-.45-3.41-.88-5.11-1.35q-4.23-1.17-8.46-2.38c-.54-.15-1-.4-1.58-.6Z"/><path class="cls-2" d="M121.59,79c-.92,2.43-1.83,4.86-2.75,7.28q-2.9,7.54-5.8,15.09a2.83,2.83,0,0,1-.51,1.05,3,3,0,0,1-1.21-.93c2-5.76,3.61-11.67,5.52-17.47.45-1.39.94-2.76,1.42-4.14.26-.75.43-.88,1.24-.9A12.17,12.17,0,0,1,121.59,79Z"/><path class="cls-2" d="M228.8,79.23q-.48,7.22-1,14.42c-.72-1.37-1.36-2.73-2.09-4,.09-2.88.32-5.77.22-8.66,0-1.25.5-1.94,1.66-1.78A9.39,9.39,0,0,0,228.8,79.23Z"/><path class="cls-2" d="M160.17,126.61c-.46-.1-.47-.35-.1-.54a10,10,0,0,0,1.38-.72l4-1.83a49.5,49.5,0,0,1,5.95-1.88q.59-.12,1.17-.21a.68.68,0,0,1,.8.42,1.55,1.55,0,0,1-.75.22,50.85,50.85,0,0,0-9.48,3.12C162.12,125.62,161.21,126.25,160.17,126.61Z"/><path class="cls-2" d="M108.6,110.25c.9.35.91.36.6,1.17-.9,2.36-1.76,4.73-2.73,7.06-.7,1.67-1.2,3.42-2,5.07-.1.24,0,.64-.46.66q1.84-5.76,3.68-11.53A20.6,20.6,0,0,1,108.6,110.25Z"/><path class="cls-2" d="M110.71,103.72a2,2,0,0,1,.37.14c.83.47.84.47.48,1.39-.52,1.37-1,2.73-1.58,4.12a1.27,1.27,0,0,1-.93-.57C109.61,107.11,110.16,105.41,110.71,103.72Z"/><path class="cls-3" d="M160.17,126.61c1-.36,2-1,3-1.42a50.85,50.85,0,0,1,9.48-3.12,1.55,1.55,0,0,0,.75-.22c.78,0,1.5-.36,2.25-.4,2.68-.16,5.19-1.11,7.83-1.47a55.26,55.26,0,0,1,6.16-.42c.78,0,1,.56,1.39,1,.42.85.87,1.68,1.25,2.55.17.42.52.86.15,1.36a23.41,23.41,0,0,0-4.73-.54,12,12,0,0,1-4.28-.76c-.25-.35-.09-.61.17-.87a2.11,2.11,0,0,0,.67-.92l-4.38.49c0,.44.64.42.58,1a7,7,0,0,0-1.94.33c-2.36.69-4.58,1.8-7,2.41l-2.51.64c-.16,0-.43,0-.35.38a51.47,51.47,0,0,0,5.95-.46,17.66,17.66,0,0,0,3.52-.68c.17.13.35.27.06.44a19.52,19.52,0,0,1-3.13,1.74,30.63,30.63,0,0,1-6,1.42c-1.68.27-3.37.45-5.05.68a28.18,28.18,0,0,0-4.18,1.06,33.15,33.15,0,0,0,3.61,1.13,3.9,3.9,0,0,0,1.92.53,1.2,1.2,0,0,0,.71.33c4.56,1.36,9,3,13.53,4.58a8.49,8.49,0,0,0,3.46.25,23.41,23.41,0,0,0,6.89-1.54,11.87,11.87,0,0,0,4.06-2.8c2.76-2.75,5.37-5.65,8-8.52a60.11,60.11,0,0,1,4.41-4.63c1.08-.94,2.26-1.75,3.38-2.64a3.36,3.36,0,0,0,1-1.19c.5-1,1.1-2,1.64-3a1,1,0,0,1,1-.56,4.12,4.12,0,0,1,4.24,2.5c.43.9.54,1.89.91,2.81a.82.82,0,0,1-.13.76,8.57,8.57,0,0,1-2.14,2.35.36.36,0,0,1-.43,0,6.28,6.28,0,0,1,.47-1.55c.14-.5.31-1,.5-1.61a1.54,1.54,0,0,0-1.59,1.07,12.51,12.51,0,0,1-2.48,4.52,6.69,6.69,0,0,1-.93.91,6.42,6.42,0,0,0,.79-2.84c-.71.69-1.27,1.25-1.84,1.79-1.82,1.77-4,3.16-5.89,4.79-3.85,3.24-7.9,6.22-11.94,9.22a10.85,10.85,0,0,1-5.51,2.27A29.32,29.32,0,0,0,191.3,141c.1.28.3.36.61.37a1.74,1.74,0,0,1,1.29.39,4.83,4.83,0,0,0,1.71.7,18,18,0,0,0,3.26,1.13c2.58.77,5.11,1.71,7.63,2.64,8.85,3.25,17.8,6.18,26.69,9.3,3.29,1.16,6.64,2.16,10,3.08a10.71,10.71,0,0,1,3,1.27c-.05.23-.17.35-.42.3s-.45-.08-.68-.11c-1.72-.36-3.43-.81-5.13-1.25-2.91-.75-5.78-1.6-8.6-2.6-6-2.12-11.88-4.37-17.86-6.44s-12.07-4-18.12-6c-7.88-2.57-15.74-5.22-23.66-7.67-6.14-1.91-12.26-3.87-18.39-5.79-.34-.11-.66-.34-1-.21v0c0-.22-.14-.16-.26-.18a18.51,18.51,0,0,0-2.54-.86c-1.74-.53-3.45-1.18-5.23-1.58a51.59,51.59,0,0,0-7.1-2.09c-.08,0-.18.05-.27.08v0c0-.26-.16-.19-.3-.2a41.84,41.84,0,0,0-4.52-1.21c-5.3-1.3-10.64-2.06-16.1-1.15-.18,0-.33,0-.44-.2a5.38,5.38,0,0,1,2.79-1.17,29.7,29.7,0,0,1,6.66-.3,30.58,30.58,0,0,0,3.45.22c.93.26,1.9.27,2.84.48,1.75.38,3.5.79,5.24,1.21a4.63,4.63,0,0,0,1.55.33,1.53,1.53,0,0,0,.8.38c5.43,1.55,10.79,3.32,16.18,5a2.54,2.54,0,0,1,.46.17,1.26,1.26,0,0,0,1.46-.14c1-.66,2.06-1.22,3.09-1.82A2.45,2.45,0,0,0,160.17,126.61Z"/><path class="cls-3" d="M219.23,123.4a1.86,1.86,0,0,1,.15-.81.53.53,0,0,0,.08-.78v-2c.2-.22.15-.41-.07-.58a20.55,20.55,0,0,0-1-3.27c-.29-.8-.25-.87.64-.78a5,5,0,0,0,.51,0c-.59-.55-1.37-.54-2-1,1-.41,2-.25,2.84-.65-.2-.23-.45-.17-.67-.2a26.88,26.88,0,0,1-4.72-.78,7.61,7.61,0,0,0-1.77-.29c-.45,0-.58-.27-.54-.66a2.67,2.67,0,0,1,.15-.68,2.82,2.82,0,0,0,.07-1.77,1.77,1.77,0,0,1,0-.69c.18-1.08.37-2.15.57-3.29a5.75,5.75,0,0,0,2,.75c-.16-1-.76-1.86-.92-2.87,1.68.16,3,1.22,4.63,1.41.11-.36-.12-.43-.26-.55a26.05,26.05,0,0,1-2.61-2.75,1.6,1.6,0,0,1-.33-1.58,23.17,23.17,0,0,0,.5-2.34,1.18,1.18,0,0,0-.72-1.46c-.51-.2-.56-.46-.32-.91a4.48,4.48,0,0,0,.18-3.85l.39,0a11,11,0,0,1,1.66,2.07c.41-.12.09-.41.21-.58s.34.1.48.2a26.81,26.81,0,0,1,4.48,4.8,13.93,13.93,0,0,1,1.49,3.26c.61,1.55,1.23,3.09,1.8,4.65a11.63,11.63,0,0,1,.5,5.7,21.14,21.14,0,0,1-2.95,8.61,17.81,17.81,0,0,0-2,4.23,4.24,4.24,0,0,1-.79,1.48,7.3,7.3,0,0,1-1.78-1,1.12,1.12,0,0,1,.12-.59C219.36,123.7,219.43,123.57,219.23,123.4Z"/><path class="cls-3" d="M199,86.8l-1-.39a.51.51,0,0,0-.8-.09.9.9,0,0,1-.6-.1.54.54,0,0,0-.8-.11,1,1,0,0,1-.6-.1c-.11-.2-.31-.21-.5-.25s-.41-.09-.42-.32.2-.32.36-.41c.37-.2.74-.38,1.12-.56a.47.47,0,0,1,.4.07,1.45,1.45,0,0,0,1.6.33l.4.06a1.08,1.08,0,0,0,1.44,0,3.92,3.92,0,0,1,1.41-.07,2.45,2.45,0,0,0,1.75,0,1.11,1.11,0,0,1,.6,0c.27.42.7.21,1.06.27.52.08,1.13,0,1.37.64l-2.06.06c-.15-.06-.33-.14-.39.06s.13.23.29.22c.34.07.67.28,1,.19a6.29,6.29,0,0,1,2.73.05l0,0,.44.32c0,.12.1.25.15.21.73-.48,1.28,0,1.88.31s.94.76,1.59.75a.15.15,0,0,1,.15.1.34.34,0,0,0,.43.31,1.36,1.36,0,0,1,.57.46.35.35,0,0,0,.43.34,2.14,2.14,0,0,1,.77.66.57.57,0,0,0,.63.54c1.56,1.33,1.62,3,.17,4.68a10.92,10.92,0,0,1-2.18-1.7,19,19,0,0,0-4.66-3.2c-.28-.12-.62-.21-.78-.58.43-.26.92,0,1.53-.34a5.43,5.43,0,0,1-2-.77,3,3,0,0,0-2-.67c-.32-.06-.64-.09-.86.23a.51.51,0,0,1-.39.11,9.24,9.24,0,0,1-2.29-.09l-.28-.14a.36.36,0,0,0-.44-.3,2,2,0,0,1-.76-.52A.36.36,0,0,0,199,86.8Z"/><path class="cls-3" d="M221.37,136.29l-3-5.29c-.38-.66-.37-.67.28-1.29a5.43,5.43,0,0,1,.87,1.31c2.87,4.8,5.78,9.57,8.56,14.43a30.07,30.07,0,0,0,3.34,4.17,48.1,48.1,0,0,1,4.23,5.42,2.55,2.55,0,0,1,.47,1c-.32.19-.59,0-.85-.1-1.65-.53-3.29-1.09-5-1.6a1.1,1.1,0,0,1-.91-1c-.13-1-.4-2-.51-3.05a7.06,7.06,0,0,0-1.1-3.07c-.84-1.32-1.47-2.76-2.4-4C224.13,140.82,222.78,138.53,221.37,136.29Z"/><path class="cls-3" d="M191.37,119.78a1.74,1.74,0,0,1,1.19-.42,68.1,68.1,0,0,1,11.32.86,2.47,2.47,0,0,1,.29.06c.61.17.68.36.26.8-.64.68-1.3,1.33-1.94,2a.81.81,0,0,1-.62.24,39.87,39.87,0,0,1-5.78-.35,5.46,5.46,0,0,1-2.62-1.14A13.15,13.15,0,0,1,191.37,119.78Z"/><path class="cls-2" d="M204.43,87.79a3,3,0,0,1,2,.67,5.43,5.43,0,0,0,2,.77c-.61.29-1.1.08-1.53.34.16.37.5.46.78.58a19,19,0,0,1,4.66,3.2,10.92,10.92,0,0,0,2.18,1.7c-.83,1.14-1.76,1.4-2.89.7a25.3,25.3,0,0,1-4.51-3.11,1.47,1.47,0,0,0-2-.19,7.82,7.82,0,0,0-2.81,2.38,1.66,1.66,0,0,1,.57-1.49,9.49,9.49,0,0,1,2-1.48c.59-.36.56-.36.28-1.06a16.81,16.81,0,0,1-.75-2.89A.11.11,0,0,0,204.43,87.79Z"/><path class="cls-3" d="M193.34,87.67a1.27,1.27,0,0,1,1.43.76q7,12.09,14.12,24.15a2.49,2.49,0,0,1,.2,2c-.39-.15-.46-.46-.6-.7l-5.22-9c-.15-.26-.33-.5-.5-.74s-.21-.49-.34-.72l-5-8.6C196.06,92.45,194.7,90.05,193.34,87.67Z"/><path class="cls-2" d="M178.12,125.4a17.66,17.66,0,0,1-3.52.68,51.47,51.47,0,0,1-5.95.46c-.08-.36.19-.33.35-.38l2.51-.64c2.39-.61,4.61-1.72,7-2.41a7,7,0,0,1,1.94-.33c.06-.54-.56-.52-.58-1l4.38-.49a2.11,2.11,0,0,1-.67.92c-.26.26-.42.52-.17.87-1.47.59-3,1.12-4.4,1.81A3,3,0,0,0,178.12,125.4Z"/><path class="cls-2" d="M215.22,132.73l-.07.07c-1.54,1.82-3.61,2.19-5.84,2.09a23.92,23.92,0,0,1-5.56-1c.49-.33,1-.66,1.47-1a1.23,1.23,0,0,1,.95-.16l1.67.21a10.42,10.42,0,0,0,7.37-1.77,13.08,13.08,0,0,0,1.56-1.51c0,.73-.59,1.2-.77,1.85C215.75,131.94,215.17,132.13,215.22,132.73Z"/><path class="cls-3" d="M209.43,102.87c-.2-.73-.42-1.42-.58-2.13a1.28,1.28,0,0,0-.92-1c-.93-.31-.91-.34-.76-1.28a2.05,2.05,0,0,0,.07-1c-.5,0-1,0-1.54,0a.66.66,0,0,1-.71-.77,5.92,5.92,0,0,0,0-1.19c-.09-.52.2-.7.58-.9s.62,0,.83.29a5.84,5.84,0,0,0,2.2,1.68,1.22,1.22,0,0,1,.82,1.41c0,.36,0,.73-.07,1.1,0,.12,0,.27.11.34s.31-.06.4-.2c.23-.35.45-.71.69-1.11A4.48,4.48,0,0,1,209.43,102.87Z"/><path class="cls-2" d="M193.34,87.67c1.36,2.38,2.72,4.78,4.1,7.16l5,8.6c.13.23.23.48.34.72-.07.42-.14.85-.2,1.28-1.09-1.6-1.94-3.33-2.93-5a19.68,19.68,0,0,0-1.19-2c-1.09-2.16-2.38-4.21-3.56-6.33-.86-1.53-1.74-3-2.65-4.63C192.69,87.39,193,87.61,193.34,87.67Z"/><path class="cls-2" d="M192.39,124.42c.37-.5,0-.94-.15-1.36-.38-.87-.83-1.7-1.25-2.55a7,7,0,0,1,1.78,3,11.14,11.14,0,0,1,.33,1.11,6.18,6.18,0,0,1,.08,3c-.15.51,0,.74.49.89.76.25,1.5.55,2.26.8.4.13.45.3.22.64-.64.92-.86,1-2,.68s-2.5-.69-3.67-1c-.1-.13-.1-.2,0-.23,1.68-.64,2.22-1.37,2.23-3.12A4,4,0,0,0,192.39,124.42Z"/><path class="cls-3" d="M195.77,84.47c-.38.18-.75.36-1.12.56-.16.09-.38.18-.36.41s.23.28.42.32.39,0,.5.25c-.59,0-1.18,0-1.54-.6-.53.42-.24,1-.36,1.56a.9.9,0,0,1-1-.7,2.63,2.63,0,0,0-1-1.25,1.66,1.66,0,0,0,.23-.31c.57-1.27,1.4-2.13,2.93-2,.54.06.39-.4.47-.68.45-.11.57.14.61.53s-.18.83.33,1.15C196.2,83.92,195.45,84.14,195.77,84.47Z"/><path class="cls-2" d="M221.37,136.29c1.41,2.24,2.76,4.53,4,6.88-.07.5-.15,1-.22,1.51a14.74,14.74,0,0,1-1.4-2.27c-.86-1.52-1.83-3-2.58-4.57C221.3,137.33,221.1,136.78,221.37,136.29Z"/><path class="cls-2" d="M200.19,135.73c-1.84,1.06-3.72,2-5.63,2.94a7.26,7.26,0,0,0-1.37.81,1.51,1.51,0,0,0-.59.88c-.16.83-.17.84.63,1.28,0,0,0,0,0,.05a.35.35,0,0,1-.05.08,1.74,1.74,0,0,0-1.29-.39c-.31,0-.51-.09-.61-.37.24-.51.48-1,.71-1.53a2.53,2.53,0,0,1,1.45-1.12c1.39-.61,2.79-1.21,4.2-1.77A11.61,11.61,0,0,1,200.19,135.73Z"/><path class="cls-3" d="M195,82.06c-.08.28.07.74-.47.68-1.53-.16-2.36.7-2.93,2a1.66,1.66,0,0,1-.23.31,9.42,9.42,0,0,1-1.17-1.69c-.09-.17-.22-.41,0-.52.93-.46,1.63-1.33,2.72-1.48a1.4,1.4,0,0,0,.76,0,3.82,3.82,0,0,0,.58,0C194.75,81.32,194.91,81.63,195,82.06Z"/><path class="cls-3" d="M205.8,85.82c-.24-.67-.85-.56-1.37-.64-.36-.06-.79.15-1.06-.27a4.16,4.16,0,0,1,2,.15,26.45,26.45,0,0,1,5.75,2.63,1.68,1.68,0,0,1,.26.27c-.65,0-1-.53-1.59-.75s-1.15-.79-1.88-.31c-.05,0-.15-.09-.15-.21l-.44-.32,0,0C207,85.94,206.27,86.19,205.8,85.82Z"/><path class="cls-3" d="M216,131.53c.18-.65.78-1.12.77-1.85a3.24,3.24,0,0,0,.86-1.43c.22-.5.42-1,.71-1.72.27,1.07.45,1.89-.2,2.7A19.43,19.43,0,0,1,216,131.53Z"/><path class="cls-3" d="M219.05,124.4a7.3,7.3,0,0,0,1.78,1,12.11,12.11,0,0,1-1.44,2.13l-.56-1.81c.27-.4.72,0,1.06-.31,0-.34-.36-.37-.59-.51S218.85,124.71,219.05,124.4Z"/><path class="cls-2" d="M204.94,102.38c-.53.24-.63-.14-.71-.5-.11-.55-.18-1.1-.29-1.65a2.49,2.49,0,0,0-.55-1.24c.93.1,1.17.29,1.29,1.14S204.85,101.63,204.94,102.38Z"/><path class="cls-3" d="M200.89,88a9.24,9.24,0,0,0,2.29.09A1.94,1.94,0,0,1,200.89,88Z"/><path class="cls-3" d="M202.77,84.87a2.45,2.45,0,0,1-1.75,0A3.57,3.57,0,0,1,202.77,84.87Z"/><path class="cls-3" d="M197.77,84.87a1.45,1.45,0,0,1-1.6-.33A6.69,6.69,0,0,1,197.77,84.87Z"/><path class="cls-3" d="M199.61,84.94a1.08,1.08,0,0,1-1.44,0A3,3,0,0,1,199.61,84.94Z"/><path class="cls-3" d="M197.21,86.32a.51.51,0,0,1,.8.09A1.16,1.16,0,0,1,197.21,86.32Z"/><path class="cls-3" d="M195.81,86.11a.54.54,0,0,1,.8.11A.88.88,0,0,1,195.81,86.11Z"/><path class="cls-3" d="M219.46,121.81a.53.53,0,0,1-.08.78A1.06,1.06,0,0,1,219.46,121.81Z"/><path class="cls-3" d="M214.41,90.37a.57.57,0,0,1-.63-.54A1.12,1.12,0,0,1,214.41,90.37Z"/><path class="cls-3" d="M204.43,87.79a.11.11,0,0,1,0,.12l-.87.11C203.79,87.7,204.11,87.73,204.43,87.79Z"/><path class="cls-3" d="M193.65,81.35a1.4,1.4,0,0,1-.76,0A.53.53,0,0,1,193.65,81.35Z"/><path class="cls-3" d="M219.38,119.19c.22.17.27.36.07.58A.58.58,0,0,1,219.38,119.19Z"/><path class="cls-3" d="M213,89.17a.35.35,0,0,1-.43-.34A.5.5,0,0,1,213,89.17Z"/><path class="cls-3" d="M199,86.8a.36.36,0,0,1,.45.28A.48.48,0,0,1,199,86.8Z"/><path class="cls-3" d="M200.17,87.6a.36.36,0,0,1,.44.3A.48.48,0,0,1,200.17,87.6Z"/><path class="cls-3" d="M212,88.37a.34.34,0,0,1-.43-.31A.45.45,0,0,1,212,88.37Z"/><path class="cls-3" d="M219.23,123.4c.2.17.13.3-.06.41A.36.36,0,0,1,219.23,123.4Z"/><path class="cls-3" d="M216,91l-.39,0c0-.11,0-.17.14-.18S215.94,90.83,216,91Z"/><path class="cls-3" d="M215.89,121.19a.75.75,0,0,1,.06.13s0,0-.06.07a.84.84,0,0,1-.06-.14S215.87,121.21,215.89,121.19Z"/><path class="cls-2" d="M124.3,121.35a29.7,29.7,0,0,0-6.66.3,5.38,5.38,0,0,0-2.79,1.17c.11.24.26.23.44.2,5.46-.91,10.8-.15,16.1,1.15a41.84,41.84,0,0,1,4.52,1.21c.07.11.14.23.3.2v0c-.15.4.2.61.37.86,4.31,6.09,8.49,12.27,12.68,18.43a1.9,1.9,0,0,1,.48.88c-.29.25-.56,0-.81-.06-2-.75-4.08-1.46-6.06-2.31-3.19-1.37-6.49-2.42-9.74-3.62a50.68,50.68,0,0,1-8.07-3.69,40.33,40.33,0,0,1-9.44-7.32,7.37,7.37,0,0,1-1.76-3.82c-.27-1.41.6-2.64,2.16-3.32a7.78,7.78,0,0,1,2.62-.57A30.64,30.64,0,0,1,124.3,121.35Z"/><path class="cls-2" d="M143.58,127.55c1.78.4,3.49,1,5.23,1.58a18.51,18.51,0,0,1,2.54.86c.05.11.08.26.26.18v0c-.25.29,0,.5.13.71q3.5,6.85,7,13.69,1.17,2.27,2.32,4.53a1.75,1.75,0,0,1,.27.73c-.26.23-.47,0-.67,0-1.35-.47-2.69-1-4-1.44a1.86,1.86,0,0,1-1-.87q-5.81-9.56-11.63-19.11A8.52,8.52,0,0,1,143.58,127.55Z"/><polygon class="cls-2" points="172.59 153.59 172.56 153.56 172.59 153.58 172.59 153.59"/><path class="cls-1" d="M136.21,125.58c-.16,0-.23-.09-.3-.2C136.05,125.39,136.24,125.32,136.21,125.58Z"/><path class="cls-1" d="M151.61,130.17c-.18.08-.21-.07-.26-.18C151.47,130,151.64,130,151.61,130.17Z"/><path class="cls-1" d="M205.8,85.82c.47.37,1.17.12,1.61.58a6.29,6.29,0,0,0-2.73-.05c-.37.09-.7-.12-1-.19l.1-.28Z"/><path class="cls-1" d="M203.74,85.88l-.1.28c-.16,0-.36,0-.29-.22S203.59,85.82,203.74,85.88Z"/><path class="cls-1" d="M207.37,86.37l.44.32Z"/><path class="cls-1" d="M195.84,83.8c-.63-.75-1.13-.75-2.3-.67a1,1,0,0,0-.84.62c-.15.37.36.42.41.71-.05.06-.1.16-.13.16-1-.1-.9-.05-1,1.3-.32-.38-.88-.16-1-.78.48,0,.54-.55.73-.94a2.51,2.51,0,0,1,3.09-1.54c.29-.32.08-.67.15-1,.66.22.85.46.73,1.27C195.62,83.27,195.84,83.46,195.84,83.8Z"/><path class="cls-1" d="M195.8,84.52c.38-.06,1.57.36,2,.06-.47-.13-1.18,0-1.65-.18-.29-.08-.23-.25-.14-.43A3,3,0,0,0,193.75,85a1.87,1.87,0,0,0-.35,1.49c.15-.19.24-.83.53-.67A2.37,2.37,0,0,1,195.8,84.52Z"/></svg>