<svg id="frames" xmlns="http://www.w3.org/2000/svg" viewBox="0 0 384 216"><defs><style>.cls-1{fill:#0f1b33;}.cls-2{fill:#fd0101;}.cls-3{fill:#f5f5f6;}.cls-4{fill:#d6d7d0;}</style></defs><path class="cls-1" d="M165.45,122.18c0-2.26,0-4.53,0-6.79.07-9.87-.2-19.73-.11-29.6,0-1.89,0-3.79.16-5.69a1,1,0,0,1,.78-1,2.47,2.47,0,0,1,.89-.08c11.87-.07,23.73.07,35.59.2,1.57,0,3.13.09,4.69.2A19.55,19.55,0,0,1,213,80.75a31.08,31.08,0,0,1,9.69,5.66,23.31,23.31,0,0,1,2.92,3.12c.36-.13.24-.4.25-.6.09-2.3.16-4.6.23-6.9,0-.36-.06-.73-.07-1.09-.06-1.25.38-1.73,1.6-1.73,8.87,0,17.73,0,26.59.05,3.7,0,7.4,0,11.09.15a27.14,27.14,0,0,1,12.31,3.32,26.84,26.84,0,0,1,14,23.74A27.24,27.24,0,0,1,273.08,132a26,26,0,0,1-8.62,1.48H249a.44.44,0,0,0-.5.48v.3c-.05,2.77-.16,5.53-.12,8.3.07,6,0,11.92,0,17.89v.5c0,1.06-.45,1.49-1.53,1.53-.67,0-1.34,0-2,0-2.1-.11-4.2,0-6.3-.07a5.65,5.65,0,0,1-.59,0,11.3,11.3,0,0,1,1.89-.62,18.7,18.7,0,0,0,3.75-1.36,1.37,1.37,0,0,0,.72-.66c.15-.36,0-.46-.49-.46a10.84,10.84,0,0,0-2.93-1.25c-1.69-.49-3.39-1-5.08-1.5-8.44-2.69-16.78-5.67-25.14-8.57-4.05-1.4-8.07-2.86-12.1-4.31a5.77,5.77,0,0,1-2-.81,1.61,1.61,0,0,1,.87.12c2.75.92,5.52,1.79,8.26,2.75,5.33,1.88,10.66,3.76,16,5.58,1.16.39,2.32.81,3.49,1.19.56.18.65.1.61-.48-.08-1.13-.2-2.26-.25-3.39a3.56,3.56,0,0,0-.49-1.59,28.5,28.5,0,0,1-1.64-3c.23-.5.07-1,.21-1.57,1.14,1.72,2.07,3.57,3.13,5.34a2.49,2.49,0,0,1,.23.86c.22,1.35.49,2.69.69,4a1,1,0,0,0,.83.95c1.72.53,3.42,1.11,5.13,1.66.24.08.48.26.8,0a18.56,18.56,0,0,0-1.06-1.78,64.55,64.55,0,0,0-5-6,7.81,7.81,0,0,1-1.15-1.23c-.48-.83-1-1.65-1.47-2.48-2.71-4.74-5.59-9.37-8.35-14.08-.16-.27-.25-.61-.6-.74-.56.67-.56.67-.18,1.36,1,1.73,2.08,3.41,3,5.19,0,.55-.1,1.09-.14,1.63-.14-.19-.28-.37-.4-.56l-3.07-5.24c-.54-.92-.64-.93-1.45-.2a5.65,5.65,0,0,1-1.08.87c0-.62.57-.84.84-1.26a23.28,23.28,0,0,0,2-2.18c.75-.78.53-1.64.25-2.53-.44.9-.81,1.81-1.29,2.66a16,16,0,0,1-2,1.82,9.93,9.93,0,0,1-7.3,1.68c-.52-.08-1.05-.13-1.58-.2a1.27,1.27,0,0,0-.95.17,8.8,8.8,0,0,0-1.46,1c-1.23.53-2.35,1.29-3.6,1.78a49.71,49.71,0,0,0-7.16,2.86,1.75,1.75,0,0,0-.92.73c-.29.59-.55,1.2-.82,1.8l-3.31-1.18c-.19-.07-.48,0-.56-.37a10.38,10.38,0,0,0,6-2.45l5.1-3.82a35.55,35.55,0,0,0,3.2-2.53.44.44,0,0,0,.4-.32c2.6-2.07,5.23-4.11,7.81-6.22a13.19,13.19,0,0,0,2.39-2.39c.31,0,.37.19.43.42l-.06.31c-.33.67-.67,1.34-1,2a2.09,2.09,0,0,0,1.1-1.07,7.48,7.48,0,0,0,.54-.69,4.72,4.72,0,0,0,1.24-2.1.42.42,0,0,0,.21-.47,4.86,4.86,0,0,0,.59-1.52l.33-.48c.35,0,.64-.37,1.11-.19-.19,1.12-.74,2.15-1,3.42a8,8,0,0,0,2.85-2.93.69.69,0,0,0,0-.58,15.12,15.12,0,0,0-1-2.93,4.11,4.11,0,0,0-4.16-2.34,1.07,1.07,0,0,0-1,.57c-.54,1-1.15,2-1.65,3a3,3,0,0,1-1,1.19,41.24,41.24,0,0,0-7.44,6.84q-4.08,4.72-8.54,9.13a9.86,9.86,0,0,1-1.6,1.35c-.34.21-.61.62-1.1.54-.25-.05-.23-.19-.1-.34.25-.3.7-.39.86-.8a1.63,1.63,0,0,0-1-.11c-1.41,0-1.41,0-1.23,1.42,0,.05.09.09.16.15.31-.17.62-.35.95-.5.17-.09.32-.06.31.19a5.55,5.55,0,0,1-2.33,1.15,27,27,0,0,1-5.56,1.12,8.33,8.33,0,0,1-3.26-.14c-4.29-1.44-8.52-3-12.84-4.37,0-.46,0-.92,0-1.38,0-.88,0-.89-.9-.76l-.2,0c-1.36.25-1.2.18-.9,1.43a45.13,45.13,0,0,1-5-1.62,1.67,1.67,0,0,1,.58-.27,46.6,46.6,0,0,1,8-1.43,31.78,31.78,0,0,0,6.4-1.47,20.9,20.9,0,0,0,3.14-1.74c.27-.15.12-.31-.09-.42a4,4,0,0,1,1-.53c1.41-.69,2.89-1.17,4.32-1.79a11.43,11.43,0,0,0,4.29.77,24,24,0,0,1,4.84.57,8,8,0,0,1,.13,2.68,2.66,2.66,0,0,1-1.63,2.11c-.21.09-.47.05-.63.25.05.05.08.12.12.14l4.33,1.21a.64.64,0,0,0,.72-.2l.6-.67c.28-.31.21-.51-.19-.64-.76-.26-1.51-.55-2.26-.8-.45-.16-.64-.39-.5-.9a7.17,7.17,0,0,0-.3-3.84,7.26,7.26,0,0,0-1.62-2.92v0a.37.37,0,0,0-.3-.38,1.8,1.8,0,0,0-2-.93c-.89.08-1.79,0-2.69.08-3.8.19-7.41,1.49-11.18,1.9-.23,0-.45.1-.68.14a4,4,0,0,1-1.08.16.66.66,0,0,0-.79-.44c-.39.07-.78.13-1.16.23Zm25-37.26a1.61,1.61,0,0,0,.71,1.25c.27.18.51.17.48-.27a2.2,2.2,0,0,1,1.61-2.24c.21-.09.44-.16.65-.23s.37-.05.34-.28-.27-.25-.45-.31c.34-.92.21-1.28-.56-1.65,0-.21-.06-.43-.3-.42-.51,0-1-.27-1.52-.14a.3.3,0,0,0-.44.14A3.41,3.41,0,0,0,189,82c-.19,0-.39,0-.5.18a.29.29,0,0,0-.07.43,7.18,7.18,0,0,0,1.31,1.84C189.83,84.81,190.28,84.65,190.43,84.92Zm1.23,2.1c-.31,0-.6-.29-1-.15a1.43,1.43,0,0,0,.33.8c.89,1.56,1.79,3.11,2.67,4.67,1.14,2,2.37,4,3.42,6.07-2.72.22-5.45.15-8.18.22-.92,0-.92,0-.93.93,0,3.67.05,7.33-.05,11,0,1.26,0,2.53,0,3.79,0,.44.09.67.61.66,4.13-.06,8.26-.06,12.39-.16a6.52,6.52,0,0,0,4-1.63.66.66,0,0,0,.13-1c-.25-.39-.47-.8-.7-1.21-1.15-2.07-2.41-4.07-3.48-6.18l.16-1.38c.17.25.36.49.51.74q2.63,4.53,5.26,9.07c.13.23.19.56.55.65a2,2,0,0,0-.14-1.91q-7.1-12.09-14.15-24.21A1.25,1.25,0,0,0,191.66,87Zm10.08,11.44a7,7,0,0,0-1.77.07c.16.7,6,10.82,6.92,12.07a.38.38,0,0,0,.16-.11,2.26,2.26,0,0,0,.26-.42,8.22,8.22,0,0,0,.4-5.93c-.12-.48-.33-.61-.86-.42-1.07.38-1.09.26-1.75-.63a3.52,3.52,0,0,0-1.84-1.36c-.09-.8-.15-1.6-.28-2.38S202.46,98.3,201.74,98.46Zm4.77-12.84c-.13-.12-.29-.21-.38,0s.08.21.21.24c-.06,0-.13.09-.17.08a5.87,5.87,0,0,0-3.24-.25.86.86,0,0,1-1-.42c.63,0,1.16,0,1.69-.09s1,.29,1.62,0a4.74,4.74,0,0,0-2.71-.91,37.37,37.37,0,0,0-4.49-.05,9.86,9.86,0,0,1-3.46-.34,2.15,2.15,0,0,0-2.18.66c-.36.31-.28.58.19.68a25.86,25.86,0,0,0,2.75.46,5.22,5.22,0,0,1,2.75,1.07c.29.22.6.42.91.61a2.57,2.57,0,0,0,2.21.26,3.88,3.88,0,0,1,1.53-.38,12.18,12.18,0,0,0,.79,3c.3.65.35.64-.29,1a9.22,9.22,0,0,0-2.3,1.72,1.1,1.1,0,0,0-.36,1,14.2,14.2,0,0,1,2.94-2.22,1.39,1.39,0,0,1,1.87.19A26.27,26.27,0,0,0,210,95.1a1.91,1.91,0,0,0,2.86-.69c.12-.12.23-.24.34-.37a3,3,0,0,0-.4-4.34c-.81-.58-1.52-1.3-2.31-1.9A11.61,11.61,0,0,0,206.51,85.62Zm8.9,15.74a9.66,9.66,0,0,0,1.67,1.71c.64,1.05.09.66-.47.57a12.65,12.65,0,0,0-1.7-.7,11.66,11.66,0,0,0-1.62-.6c-.16-.08-.37-.25-.49,0a.39.39,0,0,0,.17.5,3,3,0,0,0,.43,1.13,1.05,1.05,0,0,1,.18.46c-.06.26.3.46.06.79a3.93,3.93,0,0,1-1.45-.54c-.36-.22-.53-.13-.59.28-.13.82-.28,1.64-.42,2.46a2.36,2.36,0,0,0,0,1.09,2.77,2.77,0,0,1-.08,1.66,3.93,3.93,0,0,0-.15.68c-.05.45.13.7.6.7a6.7,6.7,0,0,1,1.67.27,21.47,21.47,0,0,0,3.73.68c.54,0,1.08.13,1.62.2a18.26,18.26,0,0,1-2.69.73c.61.59,1.47.54,2.12,1.09-.31,0-.5,0-.7-.06s-.45-.11-.66.06,0,.44.13.65a13.11,13.11,0,0,1,.75,7.53c-.25,1.22-.24,1.22.86,1.89.19.11.32.34.67.34a5,5,0,0,0,.83-1.61,2.6,2.6,0,0,0,.4-1.15c.62-1.33,1.33-2.6,2.08-3.87a20.59,20.59,0,0,0,2.52-7.94,11.46,11.46,0,0,0-.43-5.42c-.57-1.67-1.33-3.28-1.87-5a14.61,14.61,0,0,0-3.65-5.78,11.73,11.73,0,0,0-2.74-2.42l-.1-.12s0,.09,0,.12.08,0,.12,0c-.29.45.39.76.16,1.21-.35-.14-.42-.49-.58-.76a13.47,13.47,0,0,0-1.24-1.68c-.12-.13-.26-.23-.43-.13a.3.3,0,0,0-.07.36,4.59,4.59,0,0,1-.39,3.48c-.21.42,0,.61.36.74a.4.4,0,0,0,.4.27l.39.52a.42.42,0,0,0,0,.42c-.17.8-.28,1.61-.51,2.39a1.84,1.84,0,0,0,.61,2.19A.88.88,0,0,0,215.41,101.36ZM255,115.08v.13h5.1a5.35,5.35,0,0,0,1.49-.14,8.74,8.74,0,0,0,5.87-4.88,7,7,0,0,0,.42-5.81,10.19,10.19,0,0,0-4.63-5.06,5.61,5.61,0,0,0-2.68-.67c-3.74,0-7.47,0-11.2,0-.75,0-.77,0-.77.78q-.06,7.39-.1,14.79c0,.82,0,.85.8.86C251.17,115.09,253.07,115.08,255,115.08Zm-29.39,27.35c.36-1.54.26-19,.06-19.64-.15,0-.21.13-.3.23a35.29,35.29,0,0,1-7,6c-.52.34-.51.35-.12,1l5.44,9.3ZM194.51,118.7h-3.39a3,3,0,0,0-.79.05c-.57.14-.65.39-.26.81a15.08,15.08,0,0,0,1.21,1.19,6,6,0,0,0,3,1.53,38.44,38.44,0,0,0,6,.36.62.62,0,0,0,.54-.19c.63-.77,1.38-1.43,2.08-2.15.27-.29.18-.52-.21-.66-.13,0-.26-.05-.39-.08A69.15,69.15,0,0,0,194.51,118.7Zm11.17-21.9-.17.87c-.2,1-.21,1,.76,1.36a1.23,1.23,0,0,1,.88,1c.18.73.39,1.45.6,2.23a4.45,4.45,0,0,0,1.1-4.74c-.49.3-.4,1.14-1.15,1.24a5.14,5.14,0,0,1,0-1.52,1.22,1.22,0,0,0-.81-1.33,5.74,5.74,0,0,1-2.2-1.67c-.24-.28-.47-.53-.92-.28a.79.79,0,0,0-.52.94,6.51,6.51,0,0,1,0,1c0,.72.15.87.87.93C204.65,96.83,205.12,96.8,205.68,96.8Zm12,30a3.58,3.58,0,0,0,1.15-1.79c-.48,0-.9-.1-1.32-.13-.25,0-.39.13-.33.36C217.34,125.73,217.51,126.21,217.7,126.79Zm-3.53-36.52-.07-.07a.75.75,0,0,0-.06.13s0,0,.06.07Z"/><path class="cls-1" d="M187.71,157.63c0,1.16,0,2.33-.09,3.49a1,1,0,0,1-1,1.06,5.31,5.31,0,0,1-.8,0H150.16c-1.32,0-1.34,0-1.74-1.28-1-3-1.94-5.95-2.91-8.92-.33-1-.34-1-1.32-1h-23.6c-.89,0-.89,0-1.14.86-.75,2.59-1.64,5.14-2.27,7.77a9.13,9.13,0,0,1-.55,1.39,1.51,1.51,0,0,1-1.57,1c-1.23,0-2.47,0-3.7.06-3.26.08-6.52.08-9.78.13-2.5,0-5,.12-7.49.18a5.45,5.45,0,0,1-.7,0,1,1,0,0,1-.93-1.32c.05-.2.12-.38.18-.57l10.92-34.38c1.61-5.08,3.19-10.16,4.79-15.25a1.28,1.28,0,0,0-.1-1.29c-.35-.49-.2-.94.38-1.08s.72-.45.86-.93c.31-1,.67-2.09,1-3.14s.29-.93-.49-1.43l-2.7-1.71A3.71,3.71,0,0,1,106,100a1,1,0,0,1,.11-1.45,1.28,1.28,0,0,1,1.48-.56,4.48,4.48,0,0,1,1.13.63c.94.67,1.9,1.33,2.93,2,.46-1.46.9-2.8,1.32-4.15,1.72-5.43,3.25-10.92,5.18-16.28.45-1.24.42-1.28,1.77-1.28q12.8,0,25.59,0a1.85,1.85,0,0,1,2,1.19,10.15,10.15,0,0,1,.88,3.06,1.24,1.24,0,0,0,.08.48,38.51,38.51,0,0,1,2.21,6.52c3.5,11.05,6.86,22.14,10.23,33.23.06.19.11.39.16.58l-2.62,1.36c-.46.23-.32.4.05.55a3.4,3.4,0,0,1-.29.26c-1.28.88-2.73,1.48-4,2.39-.26.19-.5.08-.76,0-4.55-1.47-9.08-3-13.67-4.33a7.24,7.24,0,0,1-2.42-.87,1.51,1.51,0,0,0,0-.3c-1.48-5.06-3-10.13-4.45-15.2-.06-.22,0-.56-.4-.65-.08.21-.18.41-.24.63-1.32,4.46-2.85,8.86-4.35,13.26a1.31,1.31,0,0,1-.39,0c-2-.38-4-.35-5.92-.62a21.75,21.75,0,0,0-5-.22,5.69,5.69,0,0,0-3.77,1.62,2,2,0,0,0-.65,1.41,6.11,6.11,0,0,0,1.47,4.31,38.38,38.38,0,0,0,8,6.59,55.47,55.47,0,0,0,10.34,5c3.15,1.16,6.35,2.2,9.45,3.52,2,.85,4,1.56,6.06,2.32.2.08.42.24.62,0a1.45,1.45,0,0,0-.38-.7q-4.59-6.74-9.2-13.45c-1.43-2.08-2.88-4.16-4.32-6.24A56.83,56.83,0,0,1,142,126.9a1.78,1.78,0,0,0,.39.9l11.58,19a1.72,1.72,0,0,0,.95.81c1.39.47,2.76,1,4.14,1.48.2.07.42.25.65,0a1.86,1.86,0,0,0-.31-.83c-2.42-4.71-4.85-9.42-7.25-14.13-.83-1.63-1.75-3.22-2.48-4.9.19,0,.39.08.58.14,8.54,2.69,17.09,5.36,25.62,8.08,6.25,2,12.47,4.06,18.7,6.11,5.7,1.87,11.4,3.69,17.06,5.66s11.52,4.2,17.29,6.24c3,1,6,1.93,9,2.71,1.61.42,3.23.8,4.85,1.18a2.59,2.59,0,0,1-.77.21c-2.23.42-4.49.59-6.73.93a87.11,87.11,0,0,1-22.12,0c-4-.44-8-1-12-1.61-6.26-.94-12.48-2.08-18.63-3.6-3.82-.94-7.63-1.88-11.55-2.45a9.62,9.62,0,0,0,2,.75c3,.89,6.08,1.75,9.15,2.53Z"/><path class="cls-2" d="M187.71,157.63l-5.62-1.43c-3.07-.78-6.11-1.64-9.15-2.53a9.62,9.62,0,0,1-2-.75c3.92.57,7.73,1.51,11.55,2.45,6.15,1.52,12.37,2.66,18.63,3.6,4,.6,8,1.17,12,1.61a87.11,87.11,0,0,0,22.12,0c2.24-.34,4.5-.51,6.73-.93a2.59,2.59,0,0,0,.77-.21l.73.11c.24.05.33-.09.37-.3.53,0,.64.1.49.46a1.37,1.37,0,0,1-.72.66,18.7,18.7,0,0,1-3.75,1.36,11.3,11.3,0,0,0-1.89.62c-1.95.29-3.87.71-5.82.89a80.08,80.08,0,0,1-11.17.18c-4.26-.18-8.45-1-12.67-1.51a131.08,131.08,0,0,1-15.83-3.26A43,43,0,0,0,187.71,157.63Z"/><path class="cls-1" d="M265,34.4c.14,0,.28,0,.32-.14.33-1,.87-2,1.29-3a11.92,11.92,0,0,0-.93-11.1,16.88,16.88,0,0,0-4.09-4.74c-.2-.16-.47-.26-.58-.58a1.25,1.25,0,0,1,1,.42c3.85,3,6.1,6.88,6.08,11.9a11,11,0,0,1-2.64,6.63c-.15.2-.46.3-.4.63Z"/><path class="cls-2" d="M158.49,126c-.37-.15-.51-.32-.05-.55l2.62-1.36,4.39-1.87,4.27-1.2c.38-.1.77-.16,1.16-.23a.66.66,0,0,1,.79.44,3.57,3.57,0,0,1-.46.16,48.34,48.34,0,0,0-9.48,3.06C160.63,124.89,159.57,125.44,158.49,126Z"/><path class="cls-1" d="M78.4,46.08c0,.29-.16.36-.33.34a4.17,4.17,0,0,1-1.45-1.58.21.21,0,0,1,.12-.24c.15-.07.36-.16.47,0C77.63,45.07,78,45.6,78.4,46.08Z"/><path class="cls-1" d="M87,69.43a.45.45,0,0,1-.35-.16l-.88-1c-.12-.13-.2-.3-.07-.44a.41.41,0,0,1,.55-.09,4.63,4.63,0,0,1,1,1.34C87.33,69.3,87.15,69.41,87,69.43Z"/><path class="cls-1" d="M48.33,45.44c0,.16-.12.27-.24.23a3.73,3.73,0,0,1-1.82-1.08c-.11-.13-.07-.32.15-.38A3,3,0,0,1,48.33,45.44Z"/><path class="cls-1" d="M43.41,74.72c-.3.61-.74.47-1.12.51s-.59,0-.89,0S41,75.3,41,75a.41.41,0,0,1,.48-.4Z"/><path class="cls-1" d="M216.34,13.1a1.45,1.45,0,0,1,2.2-.81C218,13,217,12.73,216.34,13.1Z"/><path class="cls-1" d="M218.3,43.37a1.7,1.7,0,0,1-1.36.38C217.37,43.26,217.87,43.42,218.3,43.37Z"/><path class="cls-1" d="M272.82,64.46a1,1,0,0,1-1.11.29A.83.83,0,0,1,272.82,64.46Z"/><path class="cls-1" d="M252.3,53.68a.37.37,0,0,1-.36.24c-.15,0-.35-.07-.31-.26s.22-.2.38-.2A.3.3,0,0,1,252.3,53.68Z"/><path class="cls-1" d="M159.33,17.55c.08,0,.15-.08.19-.07s.46,0,.52.33a.23.23,0,0,1-.1.14C159.59,18.05,159.42,17.87,159.33,17.55Z"/><path class="cls-1" d="M149.35,60.4a.17.17,0,0,1-.25.05c-.12-.05-.25-.13-.19-.29s.16-.09.25,0S149.41,60.22,149.35,60.4Z"/><polygon class="cls-1" points="265 34.4 264.97 34.43 264.99 34.4 265 34.4"/><path class="cls-3" d="M158.49,126c1.08-.52,2.14-1.07,3.24-1.55a48.34,48.34,0,0,1,9.48-3.06,3.57,3.57,0,0,0,.46-.16,4,4,0,0,0,1.08-.16c.23,0,.45-.12.68-.14,3.77-.41,7.38-1.71,11.18-1.9.9,0,1.8,0,2.69-.08a1.8,1.8,0,0,1,2,.93c0,.16.07.35.3.38v0a17.28,17.28,0,0,0,.89,2,2.58,2.58,0,0,1,.34,1.61,24,24,0,0,0-4.84-.57,11.43,11.43,0,0,1-4.29-.77.58.58,0,0,1,.12-.8,3.23,3.23,0,0,0,.8-1l-4.47.5c.13.45.64.43.64.9a24,24,0,0,0-6,1.83,57,57,0,0,1-6.09,1.78,1.76,1.76,0,0,0,1.1.17,44.65,44.65,0,0,0,4.77-.38,24.69,24.69,0,0,0,3.82-.7c.21.11.36.27.09.42a20.9,20.9,0,0,1-3.14,1.74,31.78,31.78,0,0,1-6.4,1.47,46.6,46.6,0,0,0-8,1.43,1.67,1.67,0,0,0-.58.27,45.13,45.13,0,0,0,5,1.62,9.23,9.23,0,0,0,2,.68c4.32,1.34,8.55,2.93,12.84,4.37a8.33,8.33,0,0,0,3.26.14,27,27,0,0,0,5.56-1.12,5.55,5.55,0,0,0,2.33-1.15h0c.49.08.76-.33,1.1-.54a9.86,9.86,0,0,0,1.6-1.35q4.45-4.39,8.54-9.13a41.24,41.24,0,0,1,7.44-6.84,3,3,0,0,0,1-1.19c.5-1,1.11-2,1.65-3a1.07,1.07,0,0,1,1-.57,4.11,4.11,0,0,1,4.16,2.34,15.12,15.12,0,0,1,1,2.93.69.69,0,0,1,0,.58,8,8,0,0,1-2.85,2.93c.29-1.27.84-2.3,1-3.42-.47-.18-.76.18-1.11.19s-.38.21-.33.48a4.86,4.86,0,0,1-.59,1.52.36.36,0,0,0-.21.47,4.72,4.72,0,0,1-1.24,2.1,7.48,7.48,0,0,1-.54.69c-.36-.28,0-.64-.1-.93l.06-.31c.2-.18.24-.39,0-.57s-.35-.06-.45.15a13.19,13.19,0,0,1-2.39,2.39c-2.58,2.11-5.21,4.15-7.81,6.22a.34.34,0,0,0-.4.32,35.55,35.55,0,0,1-3.2,2.53l-5.1,3.82a10.38,10.38,0,0,1-6,2.45c.08.35.37.3.56.37l3.31,1.18c.73.39,1.62.26,2.33.72a9.32,9.32,0,0,0,3.1,1.21l.39,0,0,0a.69.69,0,0,0,.63.22l0,0a.6.6,0,0,0,.63.22v0a5.77,5.77,0,0,0,2,.81c4,1.45,8,2.91,12.1,4.31,8.36,2.9,16.7,5.88,25.14,8.57,1.69.54,3.39,1,5.08,1.5a10.84,10.84,0,0,1,2.93,1.25c0,.21-.13.35-.37.3l-.73-.11c-1.62-.38-3.24-.76-4.85-1.18-3-.78-6-1.67-9-2.71-5.77-2-11.5-4.23-17.29-6.24s-11.36-3.79-17.06-5.66c-6.23-2-12.45-4.12-18.7-6.11-8.53-2.72-17.08-5.39-25.62-8.08-.19-.06-.39-.1-.58-.14-2.54-.86-5.09-1.68-7.67-2.4a56.83,56.83,0,0,0-7.77-2.21c-6.86-2-13.76-3.51-21-2.29a.46.46,0,0,1,.33-.56A7.33,7.33,0,0,1,116,121a44.91,44.91,0,0,1,5.56-.4c2,.27,4,.24,5.92.62a1.31,1.31,0,0,0,.39,0c.62.15,1.22.31,1.84.45,1.57.38,3.15.78,4.73,1.11a10.71,10.71,0,0,0,2.89.7,7.24,7.24,0,0,0,2.42.87c4.59,1.34,9.12,2.86,13.67,4.33.26.08.5.19.76,0,1.26-.91,2.71-1.51,4-2.39A3.4,3.4,0,0,0,158.49,126Z"/><path class="cls-3" d="M219.89,123.33a5,5,0,0,1-.83,1.61c-.35,0-.48-.23-.67-.34-1.1-.67-1.11-.67-.86-1.89a13.11,13.11,0,0,0-.75-7.53c-.08-.21-.24-.4-.13-.65s.44-.08.66-.06.39,0,.7.06c-.65-.55-1.51-.5-2.12-1.09a18.26,18.26,0,0,0,2.69-.73c-.54-.07-1.08-.15-1.62-.2a21.47,21.47,0,0,1-3.73-.68,6.7,6.7,0,0,0-1.67-.27c-.47,0-.65-.25-.6-.7a3.93,3.93,0,0,1,.15-.68,2.77,2.77,0,0,0,.08-1.66,2.36,2.36,0,0,1,0-1.09c.14-.82.29-1.64.42-2.46.06-.41.23-.5.59-.28a3.93,3.93,0,0,0,1.45.54c.24-.33-.12-.53-.06-.79a1.5,1.5,0,0,0-.18-.46,3,3,0,0,1-.43-1.13c.08-.3.26-.31.52-.23a3,3,0,0,0,1.42.32,12.65,12.65,0,0,1,1.7.7.54.54,0,0,0,.44.2c.25,0,.59.11.66-.25s-.22-.37-.44-.46l-.19-.06a9.66,9.66,0,0,1-1.67-1.71.58.58,0,0,0-.5-.58,1.84,1.84,0,0,1-.61-2.19c.23-.78.34-1.59.51-2.39q.31-.21,0-.42l-.39-.52A.34.34,0,0,0,214,95c-.36-.13-.57-.32-.36-.74a4.59,4.59,0,0,0,.39-3.48.3.3,0,0,1,.07-.36c.17-.1.31,0,.43.13a13.47,13.47,0,0,1,1.24,1.68c.16.27.23.62.58.76.23-.45-.45-.76-.16-1.21v0a11.73,11.73,0,0,1,2.74,2.42,14.61,14.61,0,0,1,3.65,5.78c.54,1.67,1.3,3.28,1.87,5a11.46,11.46,0,0,1,.43,5.42,20.59,20.59,0,0,1-2.52,7.94c-.75,1.27-1.46,2.54-2.08,3.87A1.14,1.14,0,0,0,219.89,123.33Z"/><path class="cls-3" d="M202.78,87.23a3.88,3.88,0,0,0-1.53.38,2.57,2.57,0,0,1-2.21-.26c-.31-.19-.62-.39-.91-.61a5.22,5.22,0,0,0-2.75-1.07,25.86,25.86,0,0,1-2.75-.46c-.47-.1-.55-.37-.19-.68a2.15,2.15,0,0,1,2.18-.66,9.86,9.86,0,0,0,3.46.34,37.37,37.37,0,0,1,4.49.05,4.74,4.74,0,0,1,2.71.91c-.64.3-1.13,0-1.62,0s-1.06,0-1.69.09a.86.86,0,0,0,1,.42,5.87,5.87,0,0,1,3.24.25s.11,0,.17-.08l.17-.24a11.61,11.61,0,0,1,4,2.18c.79.6,1.5,1.32,2.31,1.9a3,3,0,0,1,.4,4.34c-.11.13-.22.25-.34.37a14.52,14.52,0,0,1-2.17-1.74,18.6,18.6,0,0,0-4.6-3.15,1.38,1.38,0,0,1-.79-.57c.39-.33.94,0,1.38-.47a4.65,4.65,0,0,1-2.21-.88A1.88,1.88,0,0,0,202.78,87.23Z"/><path class="cls-3" d="M219.66,135.59c-.89-1.78-2-3.46-3-5.19-.38-.69-.38-.69.18-1.36.35.13.44.47.6.74,2.76,4.71,5.64,9.34,8.35,14.08.48.83,1,1.65,1.47,2.48a7.81,7.81,0,0,0,1.15,1.23,64.55,64.55,0,0,1,5,6,18.56,18.56,0,0,1,1.06,1.78c-.32.23-.56.05-.8,0-1.71-.55-3.41-1.13-5.13-1.66a1,1,0,0,1-.83-.95c-.2-1.35-.47-2.69-.69-4a2.49,2.49,0,0,0-.23-.86c-1.06-1.77-2-3.62-3.13-5.34-.68-1.4-1.53-2.71-2.31-4.05A24.85,24.85,0,0,0,219.66,135.59Z"/><path class="cls-3" d="M194.51,118.7a69.15,69.15,0,0,1,7.74.87c.13,0,.26,0,.39.08.39.14.48.37.21.66-.7.72-1.45,1.38-2.08,2.15a.62.62,0,0,1-.54.19,38.44,38.44,0,0,1-6-.36,6,6,0,0,1-3-1.53,15.08,15.08,0,0,1-1.21-1.19c-.39-.42-.31-.67.26-.81a3,3,0,0,1,.79-.05Z"/><path class="cls-2" d="M202.78,87.23a1.88,1.88,0,0,1,1.7.37,4.65,4.65,0,0,0,2.21.88c-.44.48-1,.14-1.38.47a1.38,1.38,0,0,0,.79.57,18.6,18.6,0,0,1,4.6,3.15,14.52,14.52,0,0,0,2.17,1.74,1.91,1.91,0,0,1-2.86.69,26.27,26.27,0,0,1-4.58-3.16,1.39,1.39,0,0,0-1.87-.19A14.2,14.2,0,0,0,200.62,94a1.1,1.1,0,0,1,.36-1,9.22,9.22,0,0,1,2.3-1.72c.64-.36.59-.35.29-1A12.18,12.18,0,0,1,202.78,87.23Z"/><path class="cls-3" d="M191.66,87a1.25,1.25,0,0,1,1.43.75q7,12.12,14.15,24.21a2,2,0,0,1,.14,1.91c-.36-.09-.42-.42-.55-.65q-2.64-4.53-5.26-9.07c-.15-.25-.34-.49-.51-.74a8.43,8.43,0,0,0-.39-.8l-5-8.61C194.33,91.69,193,89.35,191.66,87Z"/><path class="cls-2" d="M176.42,124.76a24.69,24.69,0,0,1-3.82.7,44.65,44.65,0,0,1-4.77.38,1.76,1.76,0,0,1-1.1-.17,57,57,0,0,0,6.09-1.78,24,24,0,0,1,6-1.83c0-.47-.51-.45-.64-.9l4.47-.5a3.23,3.23,0,0,1-.8,1,.58.58,0,0,0-.12.8c-1.43.62-2.91,1.1-4.32,1.79A4,4,0,0,0,176.42,124.76Z"/><path class="cls-2" d="M213.52,132.09c-1.63,1.92-3.8,2.25-6.14,2.12a28.72,28.72,0,0,1-5.29-.92,8.8,8.8,0,0,1,1.46-1,1.27,1.27,0,0,1,.95-.17c.53.07,1.06.12,1.58.2a9.93,9.93,0,0,0,7.3-1.68,16,16,0,0,0,2-1.82c-.2.75-.82,1.29-1,2.05C214.09,131.25,213.51,131.47,213.52,132.09Z"/><path class="cls-3" d="M205.68,96.8c-.56,0-1,0-1.49,0-.72-.06-.83-.21-.87-.93a6.51,6.51,0,0,0,0-1,.79.79,0,0,1,.52-.94c.45-.25.68,0,.92.28a5.74,5.74,0,0,0,2.2,1.67,1.22,1.22,0,0,1,.81,1.33,5.14,5.14,0,0,0,0,1.52c.75-.1.66-.94,1.15-1.24a4.45,4.45,0,0,1-1.1,4.74c-.21-.78-.42-1.5-.6-2.23a1.23,1.23,0,0,0-.88-1c-1-.33-1-.36-.76-1.36Z"/><path class="cls-2" d="M191.66,87c1.34,2.33,2.67,4.67,4,7l5,8.61a8.43,8.43,0,0,1,.39.8c-.05.46-.11.92-.16,1.38l-3.11-5.31c-.21-.37-.45-.73-.68-1.09-1.05-2.07-2.28-4-3.42-6.07-.88-1.56-1.78-3.11-2.67-4.67a1.43,1.43,0,0,1-.33-.8C191.06,86.73,191.35,87,191.66,87Z"/><path class="cls-2" d="M190.82,123.78a2.58,2.58,0,0,0-.34-1.61,17.28,17.28,0,0,1-.89-2,7.26,7.26,0,0,1,1.62,2.92,7.17,7.17,0,0,1,.3,3.84c-.14.51.05.74.5.9.75.25,1.5.54,2.26.8.4.13.47.33.19.64l-.6.67a.64.64,0,0,1-.72.2L188.81,129s-.07-.09-.12-.14c.16-.2.42-.16.63-.25a2.66,2.66,0,0,0,1.63-2.11A8,8,0,0,0,190.82,123.78Z"/><path class="cls-2" d="M219.66,135.59a24.85,24.85,0,0,1,1.7,2.8c.78,1.34,1.63,2.65,2.31,4.05-.14.52,0,1.07-.21,1.57-1.18-1.69-2.08-3.54-3.15-5.3a6.45,6.45,0,0,1-.79-1.49C219.56,136.68,219.61,136.14,219.66,135.59Z"/><path class="cls-2" d="M198.49,135.07c-1.79,1.05-3.65,2-5.53,2.89a7.59,7.59,0,0,0-1.45.86,1.54,1.54,0,0,0-.54.69c-.3.9-.2,1.08.95,1.67-.71-.46-1.6-.33-2.33-.72.27-.6.53-1.21.82-1.8a1.75,1.75,0,0,1,.92-.73A49.71,49.71,0,0,1,198.49,135.07Z"/><path class="cls-3" d="M189,82A3.41,3.41,0,0,1,191,80.77a.36.36,0,0,0,.44-.14c.52-.13,1,.16,1.52.14.24,0,.29.21.3.42s.13.58,0,1c-.4,0-.83,0-1.25,0a1.61,1.61,0,0,0-1.52,1.64l0,0c-.47-.06-.37.46-.63.62a7.18,7.18,0,0,1-1.31-1.84.29.29,0,0,1,.07-.43A.38.38,0,0,0,189,82Z"/><path class="cls-3" d="M193.77,82.84c.18.06.42.08.45.31s-.19.23-.34.28-.44.14-.65.23a2.2,2.2,0,0,0-1.61,2.24c0,.44-.21.45-.48.27a1.61,1.61,0,0,1-.71-1.25l0-1.11,0,0c.25-.08.56-.09.61-.41.1-.59.59-.58,1-.68A4.82,4.82,0,0,1,193.77,82.84Zm-2.22,1,.14.05,0-.15c-.09-.11-.24-.22-.31-.09S191.44,83.83,191.55,83.85Z"/><path class="cls-3" d="M214.36,130.83c.17-.76.79-1.3,1-2.05.48-.85.85-1.76,1.29-2.66.28.89.5,1.75-.25,2.53A23.28,23.28,0,0,1,214.36,130.83Z"/><path class="cls-2" d="M203.26,101.73c-.55.22-.63-.18-.7-.55-.13-.58-.22-1.17-.34-1.76a1.55,1.55,0,0,0-.48-1c.72-.16,1.11.09,1.24.89S203.17,100.93,203.26,101.73Z"/><path class="cls-1" d="M193.77,82.84A4.82,4.82,0,0,0,192,82.7c-.39.1-.88.09-1,.68-.05.32-.36.33-.61.41a1.61,1.61,0,0,1,1.52-1.64c.42,0,.85,0,1.25,0,.16-.38-.09-.67,0-1C194,81.56,194.11,81.92,193.77,82.84Z"/><path class="cls-3" d="M217.7,126.79c-.19-.58-.36-1.06-.5-1.56-.06-.23.08-.38.33-.36.42,0,.84.08,1.32.13A3.58,3.58,0,0,1,217.7,126.79Z"/><path class="cls-3" d="M214.91,102.94a3,3,0,0,1-1.42-.32c-.26-.08-.44-.07-.52.23a.39.39,0,0,1-.17-.5c.12-.26.33-.09.49,0A11.66,11.66,0,0,1,214.91,102.94Z"/><path class="cls-4" d="M211,121.91c.15.29-.26.65.1.93a2.09,2.09,0,0,1-1.1,1.07C210.28,123.25,210.62,122.58,211,121.91Z"/><path class="cls-3" d="M217.08,103.07l.19.06c.22.09.5.19.44.46s-.41.26-.66.25a.54.54,0,0,1-.44-.2C216.86,103.63,217.7,104.09,217.08,103.07Z"/><path class="cls-1" d="M190.39,83.81l0,1.11c-.15-.27-.6-.11-.67-.49C190,84.27,189.92,83.75,190.39,83.81Z"/><path class="cls-3" d="M219.89,123.33a1.14,1.14,0,0,1,.4-1.15A2.6,2.6,0,0,1,219.89,123.33Z"/><path class="cls-4" d="M210.58,121.18c.1-.21.27-.29.45-.15s.18.39,0,.57C211,121.37,210.89,121.14,210.58,121.18Z"/><path class="cls-3" d="M214.91,100.78a.58.58,0,0,1,.5.58A.88.88,0,0,1,214.91,100.78Z"/><path class="cls-3" d="M214.81,95.78q.31.21,0,.42A.42.42,0,0,1,214.81,95.78Z"/><path class="cls-3" d="M214,95a.34.34,0,0,1,.4.27A.4.4,0,0,1,214,95Z"/><path class="cls-4" d="M213.63,118.06c0-.27,0-.44.33-.48Z"/><path class="cls-4" d="M200,130.11a.34.34,0,0,1,.4-.32A.44.44,0,0,1,200,130.11Z"/><path class="cls-4" d="M212.83,120.05a.36.36,0,0,1,.21-.47A.42.42,0,0,1,212.83,120.05Z"/><path class="cls-3" d="M189,82a.38.38,0,0,1-.5.18C188.63,81.94,188.83,82,189,82Z"/><path class="cls-3" d="M191.39,80.63a.36.36,0,0,1-.44.14A.3.3,0,0,1,191.39,80.63Z"/><path class="cls-2" d="M189.6,120.22c-.23,0-.25-.22-.3-.38A.37.37,0,0,1,189.6,120.22Z"/><path class="cls-3" d="M214.17,90.27l-.07.13s-.07-.05-.06-.07a.75.75,0,0,1,.06-.13Z"/><path class="cls-3" d="M206.34,85.86c-.13,0-.28-.09-.21-.24s.25-.12.38,0Z"/><path class="cls-3" d="M216.21,91.77c0,.08-.09.09-.12,0s0-.08,0-.12l.1.12Z"/><path class="cls-2" d="M121.59,120.58a44.91,44.91,0,0,0-5.56.4,7.33,7.33,0,0,0-2.44.86.46.46,0,0,0-.33.56c7.2-1.22,14.1.33,21,2.29,1.44,2.08,2.89,4.16,4.32,6.24q4.61,6.72,9.2,13.45a1.45,1.45,0,0,1,.38.7c-.2.24-.42.08-.62,0-2-.76-4.07-1.47-6.06-2.32-3.1-1.32-6.3-2.36-9.45-3.52a55.47,55.47,0,0,1-10.34-5,38.38,38.38,0,0,1-8-6.59,6.11,6.11,0,0,1-1.47-4.31,2,2,0,0,1,.65-1.41,5.69,5.69,0,0,1,3.77-1.62A21.75,21.75,0,0,1,121.59,120.58Z"/><path class="cls-2" d="M142,126.9c2.58.72,5.13,1.54,7.67,2.4.73,1.68,1.65,3.27,2.48,4.9,2.4,4.71,4.83,9.42,7.25,14.13a1.86,1.86,0,0,1,.31.83c-.23.21-.45,0-.65,0-1.38-.49-2.75-1-4.14-1.48a1.72,1.72,0,0,1-.95-.81l-11.58-19A1.78,1.78,0,0,1,142,126.9Z"/><path class="cls-1" d="M195.38,142.4c.24,0,.51-.11.63.22A.69.69,0,0,1,195.38,142.4Z"/><path class="cls-1" d="M196,142.6c.26-.08.5-.07.63.22A.6.6,0,0,1,196,142.6Z"/><path class="cls-1" d="M195,142.39c.14-.2.28-.27.39,0Z"/><path class="cls-3" d="M191.55,83.85c-.11,0-.32,0-.21-.19s.22,0,.31.09Z"/><path class="cls-4" d="M191.65,83.75l0,.15-.14-.05Z"/></svg>