<svg id="frames" xmlns="http://www.w3.org/2000/svg" viewBox="0 0 384 216"><defs><style>.cls-1{fill:#17243a;}.cls-2{fill:#f6f7f7;}</style></defs><path class="cls-1" d="M297,200.77a41.52,41.52,0,0,1,4.26,3.46c.43.39,1.05.52,1.44,1.17-1.76-.61-3.34-1.37-4.95-2.05a75,75,0,0,1-14-8,19.34,19.34,0,0,1-3.31-3.15c-.63-.71-1.23-1.46-1.88-2.17s-1-1.58-1.54-2.3a8.32,8.32,0,0,1-1.66-3.5c-.3-1.42-.48-2.88-.67-4.33a29.15,29.15,0,0,1-.32-4.38,1.91,1.91,0,0,1,.14-.89,14.61,14.61,0,0,1,.94,2.77,2.25,2.25,0,0,0,0,.69,55.76,55.76,0,0,0,2.93,6.85c.5.93,1,1.49,2.12,1.2a4,4,0,0,1,.5,0l1.18.16a19.15,19.15,0,0,0,9,.84,59.24,59.24,0,0,0,12.61-3.34,18.18,18.18,0,0,1,3.56-1c1.08-.17,2.15-.38,3.23-.57.8.05,1.58-.23,2.38-.13a3.1,3.1,0,0,1,.69.1c.26.08.24.29.06.45a2,2,0,0,1-.93.32,25.19,25.19,0,0,0-7.17,2.37,16.25,16.25,0,0,1-3.16,1.37,72.44,72.44,0,0,1-7.86,1.73,32,32,0,0,1-9.43-.11,6.42,6.42,0,0,0-1.58-.15c-.64-.18-1.27-.4-1.91-.55a10.15,10.15,0,0,0-1.94-.58c0,.14,0,.21.08.26.14.23.28.46.43.68a30.76,30.76,0,0,0,8.38,8,51.6,51.6,0,0,0,5.38,3,26,26,0,0,0,2.56,1.47c0,.11.07.14.17.13S296.87,200.79,297,200.77Z"/><path class="cls-2" d="M310.61,182.22c-1.08.19-2.15.4-3.23.57a18.18,18.18,0,0,0-3.56,1,59.24,59.24,0,0,1-12.61,3.34,19.15,19.15,0,0,1-9-.84.59.59,0,0,1,.43-.22c.87.06,1.71-.19,2.57-.21a25.73,25.73,0,0,0,5.61-.71c4.05-1,8.17-1.71,12.27-2.44a50.87,50.87,0,0,1,6.52-.65A1.25,1.25,0,0,1,310.61,182.22Z"/><path class="cls-2" d="M296.59,200.48A26,26,0,0,1,294,199a51.6,51.6,0,0,1-5.38-3,30.76,30.76,0,0,1-8.38-8c-.15-.22-.29-.45-.43-.68,0-.05,0-.12-.08-.26a10.15,10.15,0,0,1,1.94.58c.64.15,1.27.37,1.91.55,0,.39.26.6.49.83,1.36,1.37,2.69,2.78,4.1,4.1,1.92,1.78,3.89,3.51,5.86,5.24.5.43,1.11.73,1.64,1.14C296.05,199.75,296.54,199.93,296.59,200.48Z"/><path class="cls-2" d="M281,186.1a2.74,2.74,0,0,0-.5,0c-1.1.29-1.62-.27-2.12-1.2a55.76,55.76,0,0,1-2.93-6.85,2.25,2.25,0,0,1,0-.69c.68.34.84,1.07,1.2,1.65a36.26,36.26,0,0,0,2.59,4.36c.42.51.82,1,1.25,1.55A1.7,1.7,0,0,1,281,186.1Z"/><path class="cls-2" d="M297,200.77c-.12,0-.19-.06-.23-.16Z"/></svg>