<svg id="frames" xmlns="http://www.w3.org/2000/svg" viewBox="0 0 384 216"><defs><style>.cls-1{fill:#0f1b33;}.cls-2{fill:#fd0101;}.cls-3{fill:#f5f5f6;}.cls-4{fill:#d6d7d0;}</style></defs><path class="cls-1" d="M165.45,122.56c0-.2,0-.4,0-.6.1-12.29-.17-24.59-.1-36.89,0-1.66.07-3.33.16-5a1,1,0,0,1,.71-1,2.87,2.87,0,0,1,1.09-.1q9.84,0,19.69,0,7.85,0,15.7.16a49.11,49.11,0,0,1,5.68.29,29.9,29.9,0,0,1,15.73,8.29c.53.56,1,1.14,1.53,1.71.3-.19.2-.48.2-.73.09-2.23.16-4.46.23-6.69,0-.36-.06-.73-.07-1.09-.07-1.3.37-1.77,1.67-1.77l24.39,0c4.43,0,8.86.06,13.28.19A26.94,26.94,0,0,1,289.4,95.75a27,27,0,0,1,2.05,8.7,26.36,26.36,0,0,1-2.37,13,26.84,26.84,0,0,1-12.21,12.86,28,28,0,0,1-10.18,3,19.5,19.5,0,0,1-2.29.1H249.8c-.23,0-.47,0-.7,0-.48,0-.63.2-.64.66,0,1.5-.07,3-.07,4.5q0,10.89,0,21.78c0,.24,0,.47,0,.7a1.24,1.24,0,0,1-1.29,1.35c-.73.05-1.47,0-2.2,0l-5.79-.11a6.92,6.92,0,0,1,1.49-.52,18.16,18.16,0,0,0,3.42-1.24,1.48,1.48,0,0,0,.79-.71c.14-.36,0-.45-.51-.44a8.83,8.83,0,0,0-2.54-1.15c-5.77-1.6-11.45-3.5-17.09-5.51-4.74-1.69-9.54-3.18-14.25-4.92-3.53-1.3-7.08-2.54-10.63-3.8-1.58-.56-3.18-1.1-4.77-1.65.16-.21.34-.11.53,0,3.38,1.1,6.79,2.14,10.15,3.3,4.31,1.49,8.58,3.1,12.91,4.54,2.21.74,4.41,1.51,6.61,2.26.67.22.75.16.75-.55,0-1.13-.07-2.26-.07-3.39a3.17,3.17,0,0,0-.47-1.61,19.12,19.12,0,0,1-1.49-2.7c.19-.49,0-1,.23-1.51,1.13,1.7,2.05,3.51,3.09,5.25a2.39,2.39,0,0,1,.23.87c.23,1.31.48,2.62.67,3.93a1.15,1.15,0,0,0,.94,1.1c1.63.48,3.23,1,4.85,1.57.3.09.6.31.95.15a1.72,1.72,0,0,0-.42-.89,50.41,50.41,0,0,0-5.42-6.77,8.2,8.2,0,0,1-1.28-1.37c-.69-1.33-1.52-2.56-2.27-3.84-2.52-4.32-5.1-8.59-7.66-12.88-.13-.22-.21-.5-.52-.57-.56.64-.56.64-.16,1.33l3,5.21c-.22.51,0,1.07-.17,1.59a1.6,1.6,0,0,1-.4-.56l-3.07-5.24c-.5-.87-.63-.88-1.4-.2a3.87,3.87,0,0,1-1.08.85c0-.58.52-.84.8-1.25a9.93,9.93,0,0,0,2.1-2.24,2.1,2.1,0,0,0,.14-2.5c-.21.51-.4,1-.58,1.42a5.32,5.32,0,0,1-.7,1.31,20.27,20.27,0,0,1-2.09,1.95,9.89,9.89,0,0,1-7.41,1.49,3.85,3.85,0,0,0-3.65.95l-.06.08c-1.23.61-2.4,1.34-3.67,1.85a15.84,15.84,0,0,0-3,1.05c-1.23.49-2.46,1-3.66,1.56a2.39,2.39,0,0,0-1.45,1.12c-.22.52-.49,1-.74,1.52l-3.78-1.24c-.05,0-.07-.11-.1-.16a10.47,10.47,0,0,0,5.71-2.31c2.68-2,5.35-4,8-6,2.08-1.62,4-3.37,6.16-4.93a37.49,37.49,0,0,0,4.88-4.28c.12-.13.22-.36.52-.21a3.77,3.77,0,0,1-.53,1.86c-.12.26-.38.49-.22.82l0,0,0,0a13.56,13.56,0,0,0,3.4-5.56c.23-.75.75-1,1.5-1.06a29.15,29.15,0,0,1-.88,3c-.06.11-.19.22-.06.34s.22,0,.31-.11a7.69,7.69,0,0,0,2.32-2.43.93.93,0,0,0,.14-.85,13.85,13.85,0,0,0-1-2.82,3.93,3.93,0,0,0-3.1-2.36c-1.43-.17-1.69-.1-2.41,1.14l-.15.26a15.88,15.88,0,0,1-1.71,2.91c-.79.79-1.81,1.35-2.68,2.07a19.68,19.68,0,0,0-2.9,2.55c-.75.92-1.58,1.76-2.36,2.65-2.72,3.11-5.52,6.14-8.45,9a11.54,11.54,0,0,1-3.86,2.62,23.2,23.2,0,0,1-7.67,1.6,6.58,6.58,0,0,1-2.38-.17c-4.44-1.51-8.85-3.12-13.32-4.54,0-.06,0-.13,0-.19,0-2.08-.09-2.13-2.07-1.39,0,0,0,0-.09.1l.16.84a34.69,34.69,0,0,1-4.52-1.5,19.14,19.14,0,0,1,3.85-1c1.91-.28,3.83-.48,5.73-.79a28.13,28.13,0,0,0,5.41-1.33,19.09,19.09,0,0,0,3.13-1.74c.29-.18.07-.31-.12-.4a3,3,0,0,1,.86-.49l4.43-1.83a12.16,12.16,0,0,0,4.35.77,22.81,22.81,0,0,1,4.8.57,16.44,16.44,0,0,1,.18,1.69,2.84,2.84,0,0,1-2.29,3.27c-.07,0-.07.09,0,.19l3.81,1.06c1.09.3,1.19.27,1.84-.61.37-.49.36-.54-.19-.75l-2.26-.82c-.34-.12-.57-.29-.45-.73a6.75,6.75,0,0,0-.18-3.65,7.75,7.75,0,0,0-2-3.59c-.41-.4-.63-1-1.39-1a36.94,36.94,0,0,0-9.88,1.2,14.74,14.74,0,0,1-2.54.47,19,19,0,0,0-2.36.39,4.57,4.57,0,0,1-1.47.23c-.25-.59-.73-.44-1.18-.36A44.11,44.11,0,0,0,165.45,122.56Zm25.17-41.24a.42.42,0,0,0-.49.24,1,1,0,0,0-.52.51c-.23.11-.59,0-.7.35,0,.76.56,1.22,1,1.77.07.14.12.34.23.41a2.15,2.15,0,0,1,1,1.24.88.88,0,0,0,1,.63c.13-.37,0-.74.09-1.09s.35-.3.59-.15h0a7.82,7.82,0,0,0,3.24.61l.8.11,1.6.8a.58.58,0,0,0,.37.26c.22.15.31.15.43.3l.27.16a1.09,1.09,0,0,0,.94.38.82.82,0,0,0,.76,0c.72,0,1.34-.43,2-.42a13.12,13.12,0,0,0,.77,2.89c.31.71.35.7-.31,1.07a9,9,0,0,0-1.94,1.4,2,2,0,0,0-.69,1.51,8,8,0,0,1,2.34-2c1.88-1.1,1.42-1,2.89.19a36.63,36.63,0,0,0,4.59,3,1.82,1.82,0,0,0,2.45-1.06c1.56-1.27,1.43-3.32-.29-4.66a2.77,2.77,0,0,0-1-.93.56.56,0,0,0-.35-.27,1,1,0,0,0-.65-.52.11.11,0,0,0-.12-.1.93.93,0,0,0-.68-.49.13.13,0,0,0-.14-.1c-.08-.21-.28-.27-.44-.38a30.13,30.13,0,0,0-5.35-2.39.85.85,0,0,0-.68-.06.47.47,0,0,0-.4-.05,2.5,2.5,0,0,0-1-.13,37.55,37.55,0,0,0-4,0,8.85,8.85,0,0,1-3.15-.37c-.15-.05-.45-.12-.41-.19.31-.53-.41-.79-.28-1.3a1,1,0,0,0-.75-1.18c-.09-.66-.58-.36-.93-.4a1.4,1.4,0,0,0-1.76.23Zm11.57,17.26a8.26,8.26,0,0,0-1.86,0,121.78,121.78,0,0,0,6.85,11.66,7.91,7.91,0,0,0,.53-5.9c-.1-.47-.41-.39-.77-.34-.87.15-.83.1-1.33-.65a4.29,4.29,0,0,0-1.88-1.45c-.09-.79-.16-1.57-.28-2.35S203,98.56,202.19,98.58ZM192.14,87.21A2.23,2.23,0,0,0,191,87c.83,1.45,1.62,2.83,2.4,4.22q2.07,3.63,4.12,7.28l-8.78.14c-.73,0-.75,0-.75.79v9.09c0,1.93,0,3.86,0,5.79,0,.66,0,.66.67.65l12-.15a6.79,6.79,0,0,0,4.45-1.75c.56-.5.56-.51.2-1.16-.54-1-1.11-1.9-1.64-2.86-.75-1.37-1.62-2.67-2.28-4.1l.22-1.27c.17.25.35.48.5.74q2.63,4.53,5.26,9.06c.12.21.17.5.54.55a2.27,2.27,0,0,0-.22-2c-2.68-4.52-5.32-9-8-13.58-2-3.49-4.13-7-6.1-10.52A1.2,1.2,0,0,0,192.14,87.21Zm28.56,35.32a.83.83,0,0,0,.21-.54c.54-1,1-2,1.62-3a20.52,20.52,0,0,0,2.36-5.81,14.66,14.66,0,0,0-.64-10c-.71-1.54-1.26-3.15-1.87-4.73a7.09,7.09,0,0,0-1-1.74,28.49,28.49,0,0,0-3.71-4,1.92,1.92,0,0,0-.47-.35c-.22-.09-.4,0-.39.26s.25.54.13.94c-.28-.45-.52-.83-.75-1.22A12,12,0,0,0,215,90.67c-.11-.12-.24-.28-.41-.19s-.13.27-.07.43a4.07,4.07,0,0,1-.27,3.29c-.28.56-.14.85.37,1.1a1.12,1.12,0,0,1,.63,1.32,14.15,14.15,0,0,1-.47,2.24,1.88,1.88,0,0,0,.49,2,30.29,30.29,0,0,0,2.42,2.52c.13.12.39.16.27.55-1.59-.19-2.94-1.25-4.65-1.42.18,1,.74,1.87.94,2.87a5.4,5.4,0,0,1-2.05-.75c-.2,1.18-.39,2.28-.56,3.39a1.36,1.36,0,0,0,0,.6,2.79,2.79,0,0,1-.08,1.76,3.91,3.91,0,0,0-.14.68c0,.4.12.65.54.67,1.34.06,2.6.58,3.92.75,1.07.15,2.15.27,3.23.41-.83.47-1.79.35-2.69.71.53.64,1.41.53,2,1.07-.49.09-.92-.23-1.32,0a.89.89,0,0,0,.13.59,13.32,13.32,0,0,1,.79,7.54c-.32,1.68-.48,1.24,1.08,2,0,.18-.1.28-.32.26-1.17,0-1.18,0-.84,1.09.06.21,0,.47.31.66a7.73,7.73,0,0,0,1.45-2A6.75,6.75,0,0,0,220.7,122.53ZM255,98.64c-1.87,0-3.73,0-5.6,0-.82,0-.83,0-.83.82,0,1.67,0,3.33,0,5,0,3.19-.07,6.39-.09,9.59,0,1.19,0,1,1,1h.2l10.4.11a4.93,4.93,0,0,0,1.38-.12,8.84,8.84,0,0,0,6-5,7.09,7.09,0,0,0-1-8,14.88,14.88,0,0,0-1.46-1.51,7.11,7.11,0,0,0-5-1.9C258.33,98.65,256.67,98.64,255,98.64Zm-29.25,24.23c-.11,0-.15,0-.17,0l-.28.27a33.8,33.8,0,0,1-6.62,5.73c-.47.29-.42.54-.17.95l6.77,11.53c.11.17.14.47.47.4Zm-35.58-3.56a11.87,11.87,0,0,0,2.05,2,5.47,5.47,0,0,0,2.61,1.16,38.39,38.39,0,0,0,5.87.35.77.77,0,0,0,.6-.27c.59-.63,1.21-1.24,1.81-1.86.16-.17.4-.31.33-.58s-.38-.31-.64-.36a68.27,68.27,0,0,0-11.51-.9A1.5,1.5,0,0,0,190.17,119.31Zm19.16-21.75c-.3.47-.53.84-.76,1.19-.08.11-.19.2-.34.13s-.13-.2-.12-.33c0-.36,0-.73.07-1.09a1.21,1.21,0,0,0-.83-1.41,5.73,5.73,0,0,1-2.19-1.68c-.22-.25-.43-.5-.85-.28s-.66.39-.57.9a6.71,6.71,0,0,1,0,1.1c0,.65.15.81.81.88.49,0,1,0,1.52,0-.06.37-.1.67-.15,1-.16.92-.17,1,.67,1.24a1.39,1.39,0,0,1,1,1.19,7.89,7.89,0,0,0,.61,2A4.73,4.73,0,0,0,209.33,97.56ZM190.7,133.43l-2.41-.05a.29.29,0,0,0-.33.29c0,.52-.24,1.19.11,1.51s.8-.23,1.19-.43a6.56,6.56,0,0,0,1-.66C190.44,134,190.75,133.87,190.7,133.43ZM217,92.27l-.07-.07a.75.75,0,0,0-.06.13s0,0,.06.07Z"/><path class="cls-1" d="M187.71,157.7c0,1.14,0,2.27-.09,3.4a1,1,0,0,1-1,1.09,5.45,5.45,0,0,1-.7,0h-35.8c-1.24,0-1.26,0-1.66-1.26q-1.47-4.56-3-9.11c-.26-.79-.31-.82-1.14-.82h-23.9c-.5,0-.77.13-.91.66-.72,2.6-1.64,5.14-2.25,7.77a9.7,9.7,0,0,1-.6,1.58,1.61,1.61,0,0,1-1.67,1c-2.5,0-5,0-7.5.08q-5.69.16-11.38.22c-.79,0-1.59.08-2.39.07-1.15,0-1.5-.49-1.16-1.6q2-6.33,4-12.66,4.23-13.38,8.44-26.77c1.11-3.5,2.22-7,3.36-10.47.16-.5.14-.79-.37-1s-1-.53-1.5-.8a2.64,2.64,0,0,1-.58-.38,1,1,0,0,1-.18-1.35.92.92,0,0,1,1.33-.16c.66.44,1.31.9,2,1.38a5.45,5.45,0,0,0,.66-1.72c.3-.84.53-1.71.83-2.56a.8.8,0,0,0-.43-1.13c-1.67-1-3.32-2-5-3a10.59,10.59,0,0,1-1.55-1.1c-.61-.56-.69-.92-.32-1.57a1.47,1.47,0,0,1,1.82-.83,8.3,8.3,0,0,1,1.72,1l3.84,2.88c.79.6.89.56,1.18-.37q2.24-7.24,4.5-14.5c.61-1.94,1.28-3.86,1.93-5.78.27-.79.44-.91,1.32-.92,2.27,0,4.54,0,6.8,0l19,0c1.39,0,1.73.25,2.23,1.52a7.79,7.79,0,0,1,.76,2.88.9.9,0,0,0,.1.39,42.93,42.93,0,0,1,2.32,6.89c3.56,11.21,6.95,22.47,10.38,33.71-.79.42-1.59.83-2.37,1.27-.51.3,0,.35.14.48l-.06.07c-1.34,1-2.89,1.64-4.26,2.6-.29.21-.58,0-.85-.05-3.1-1-6.2-2-9.3-3-2.35-.74-4.7-1.45-7.06-2.17-.14-.51-.27-1-.42-1.54q-2-7-4.1-14.07c-.07-.23,0-.62-.47-.71q-2.13,7.08-4.61,14l-5.69-.52a22.06,22.06,0,0,0-5.07-.22,5.67,5.67,0,0,0-3.69,1.55,1.93,1.93,0,0,0-.73,1.46,6.24,6.24,0,0,0,1.54,4.39,38.59,38.59,0,0,0,7.82,6.47,55.59,55.59,0,0,0,10.79,5.14c3.1,1.12,6.22,2.17,9.26,3.46,2,.82,4,1.53,6,2.28.19.07.4.27.66,0-.1-.16-.2-.33-.31-.49q-4.94-7.22-9.87-14.43c-1.25-1.84-2.63-3.6-3.79-5.51a53.89,53.89,0,0,1,7.68,2.21,2.63,2.63,0,0,0,.43.89q5.79,9.51,11.58,19a1.84,1.84,0,0,0,1,.86c1.36.46,2.7,1,4.05,1.44.2.08.4.26.64.05a1.33,1.33,0,0,0-.26-.74c-2.42-4.74-4.86-9.47-7.28-14.22-.83-1.63-1.75-3.22-2.47-4.9l1,.27c12.18,3.86,24.4,7.62,36.53,11.65,7.52,2.49,15.07,4.89,22.58,7.4,6.45,2.15,12.75,4.69,19.17,6.92,2.92,1,5.88,1.92,8.89,2.67,1.61.41,3.23.8,4.84,1.19a2,2,0,0,1-.85.25c-1.57.29-3.16.44-4.74.67a80.68,80.68,0,0,1-18.63.7c-1.75-.16-3.52-.22-5.27-.43-3.4-.42-6.78-.93-10.18-1.39a204.43,204.43,0,0,1-21.27-4c-3-.74-6.09-1.47-9.17-2l-1.43-.22a97.75,97.75,0,0,0,9.67,2.94C183.38,156.62,185.55,157.15,187.71,157.7Z"/><path class="cls-2" d="M187.71,157.7c-2.16-.55-4.33-1.08-6.48-1.65a97.75,97.75,0,0,1-9.67-2.94l1.43.22c3.08.54,6.13,1.27,9.17,2a204.43,204.43,0,0,0,21.27,4c3.4.46,6.78,1,10.18,1.39,1.75.21,3.52.27,5.27.43a80.68,80.68,0,0,0,18.63-.7c1.58-.23,3.17-.38,4.74-.67a2,2,0,0,0,.85-.25c.25,0,.51.06.76.11a.33.33,0,0,0,.43-.27c.55,0,.65.08.51.44a1.48,1.48,0,0,1-.79.71,18.16,18.16,0,0,1-3.42,1.24,6.92,6.92,0,0,0-1.49.52,67.4,67.4,0,0,1-6.9,1.11,70.13,70.13,0,0,1-12.38,0,161.24,161.24,0,0,1-27.32-4.77A40.71,40.71,0,0,0,187.71,157.7Z"/><path class="cls-2" d="M159,126.14c-.15-.13-.65-.18-.14-.48.78-.44,1.58-.85,2.37-1.27l4.26-1.83A44.11,44.11,0,0,1,171,121c.45-.08.93-.23,1.18.36l-1.14.36c-.1-.08-.17,0-.22.06l-.37.07a.23.23,0,0,0-.29.1,38.27,38.27,0,0,0-6.19,1.93C162.2,124.48,160.64,125.43,159,126.14Z"/><path class="cls-1" d="M271.67,64.75a.87.87,0,0,1,1.13-.29A1,1,0,0,1,271.67,64.75Z"/><path class="cls-1" d="M251.61,53.66a.4.4,0,0,1,.49-.18c.07,0,.19.14.18.18a.32.32,0,0,1-.43.24A.27.27,0,0,1,251.61,53.66Z"/><path class="cls-3" d="M171,121.72l1.14-.36a4.57,4.57,0,0,0,1.47-.23,19,19,0,0,1,2.36-.39,14.74,14.74,0,0,0,2.54-.47,36.94,36.94,0,0,1,9.88-1.2c.76,0,1,.56,1.39,1,.39.78.8,1.55,1.17,2.35a2.47,2.47,0,0,1,.36,1.59,22.81,22.81,0,0,0-4.8-.57,12.16,12.16,0,0,1-4.35-.77c-.24-.36-.05-.62.2-.88a2.7,2.7,0,0,0,.71-.9l-4.41.49c0,.44.58.43.56.84-.07,0-.16.12-.24.12a10,10,0,0,0-3.28.84,51.82,51.82,0,0,1-7.69,2.48,1.13,1.13,0,0,0-.7.34,11.28,11.28,0,0,0,2.85,0,33.82,33.82,0,0,0,6.71-1c.19.09.41.22.12.4a19.09,19.09,0,0,1-3.13,1.74,28.13,28.13,0,0,1-5.41,1.33c-1.9.31-3.82.51-5.73.79a19.14,19.14,0,0,0-3.85,1,34.69,34.69,0,0,0,4.52,1.5,7.48,7.48,0,0,0,2,.64c4.47,1.42,8.88,3,13.32,4.54a6.58,6.58,0,0,0,2.38.17,23.2,23.2,0,0,0,7.67-1.6,11.54,11.54,0,0,0,3.86-2.62c2.93-2.91,5.73-5.94,8.45-9,.78-.89,1.61-1.73,2.36-2.65a19.68,19.68,0,0,1,2.9-2.55c.87-.72,1.89-1.28,2.68-2.07a15.88,15.88,0,0,0,1.71-2.91l.15-.26c.72-1.24,1-1.31,2.41-1.14a3.93,3.93,0,0,1,3.1,2.36,13.85,13.85,0,0,1,1,2.82.93.93,0,0,1-.14.85,7.69,7.69,0,0,1-2.32,2.43l-.25-.23a29.15,29.15,0,0,0,.88-3c-.75.09-1.27.31-1.5,1.06a13.56,13.56,0,0,1-3.4,5.56h0c-.16-.34.1-.57.22-.83a3.77,3.77,0,0,0,.53-1.86c-.3-.15-.4.08-.52.21a37.49,37.49,0,0,1-4.88,4.28c-2.12,1.56-4.08,3.31-6.16,4.93-2.63,2-5.3,4-8,6a10.47,10.47,0,0,1-5.71,2.31c0,.05.05.14.1.16l3.78,1.24c.7.47,1.61.35,2.29.84a7.62,7.62,0,0,0,2.67,1c1.59.55,3.19,1.09,4.77,1.65,3.55,1.26,7.1,2.5,10.63,3.8,4.71,1.74,9.51,3.23,14.25,4.92,5.64,2,11.32,3.91,17.09,5.51a8.83,8.83,0,0,1,2.54,1.15.33.33,0,0,1-.43.27c-.25-.05-.51-.07-.76-.11-1.61-.39-3.23-.78-4.84-1.19-3-.75-6-1.66-8.89-2.67-6.42-2.23-12.72-4.77-19.17-6.92-7.51-2.51-15.06-4.91-22.58-7.4-12.13-4-24.35-7.79-36.53-11.65l-1-.27c-.81-.27-1.62-.57-2.44-.81-1.77-.51-3.49-1.19-5.29-1.59a53.89,53.89,0,0,0-7.68-2.21,79.64,79.64,0,0,0-9.81-2.24,35.53,35.53,0,0,0-9.44-.28,6,6,0,0,1-1.74.16c0-.34.21-.43.41-.54a7.27,7.27,0,0,1,2.25-.79,39.51,39.51,0,0,1,5.75-.41l5.69.52c1.06.22,2.11.47,3.18.67,2.17.43,4.27,1.11,6.42,1.62,2.36.72,4.71,1.43,7.06,2.17,3.1,1,6.2,2,9.3,3,.27.09.56.26.85.05,1.37-1,2.92-1.59,4.26-2.6l.06-.07c1.68-.71,3.24-1.66,5-2.26a38.27,38.27,0,0,1,6.19-1.93.26.26,0,0,0,.29-.1l.37-.07A.17.17,0,0,0,171,121.72Z"/><path class="cls-3" d="M219.08,124.87c-1.56-.79-1.4-.35-1.08-2a13.32,13.32,0,0,0-.79-7.54.89.89,0,0,1-.13-.59c.4-.26.83.06,1.32,0-.57-.54-1.45-.43-2-1.07.9-.36,1.86-.24,2.69-.71-1.08-.14-2.16-.26-3.23-.41-1.32-.17-2.58-.69-3.92-.75-.42,0-.59-.27-.54-.67a3.91,3.91,0,0,1,.14-.68,2.79,2.79,0,0,0,.08-1.76,1.36,1.36,0,0,1,0-.6c.17-1.11.36-2.21.56-3.39a5.4,5.4,0,0,0,2.05.75c-.2-1-.76-1.85-.94-2.87,1.71.17,3.06,1.23,4.65,1.42.12-.39-.14-.43-.27-.55a30.29,30.29,0,0,1-2.42-2.52,1.88,1.88,0,0,1-.49-2,14.15,14.15,0,0,0,.47-2.24,1.12,1.12,0,0,0-.63-1.32c-.51-.25-.65-.54-.37-1.1a4.07,4.07,0,0,0,.27-3.29c-.06-.16-.11-.35.07-.43s.3.07.41.19a12,12,0,0,1,1.25,1.68c.23.39.47.77.75,1.22.12-.4-.12-.65-.13-.94s.17-.35.39-.26a1.92,1.92,0,0,1,.47.35,28.49,28.49,0,0,1,3.71,4,7.09,7.09,0,0,1,1,1.74c.61,1.58,1.16,3.19,1.87,4.73a14.66,14.66,0,0,1,.64,10,20.52,20.52,0,0,1-2.36,5.81c-.58,1-1.08,2-1.62,3a.37.37,0,0,0-.21.54,6.75,6.75,0,0,1-1,2.31Z"/><path class="cls-3" d="M196.81,86l-.8-.11a11.6,11.6,0,0,0-3.24-.61h0a2,2,0,0,1,2.41-.92,7,7,0,0,0,2.36.31h5a1,1,0,0,0,.67-.13.47.47,0,0,1,.4.05c.11.26.37.24.59.3s.56.19.63.54a10.73,10.73,0,0,0-2.43.13c.73.39.73.4,1.42.31a4.2,4.2,0,0,1,2.81.39c.07.06.17.19.21.17a2.3,2.3,0,0,1,2,.48,2.15,2.15,0,0,0,1.24.51.13.13,0,0,1,.14.1.56.56,0,0,0,.68.49.11.11,0,0,1,.12.1.57.57,0,0,0,.65.52.56.56,0,0,1,.35.27,1.21,1.21,0,0,0,1,.93c1.72,1.34,1.85,3.39.3,4.66a1.15,1.15,0,0,1-.63-.25c-.51-.47-1.05-.92-1.58-1.37a18.79,18.79,0,0,0-4.58-3.13c-.29-.13-.63-.21-.8-.57.43-.3.94,0,1.45-.36a5.48,5.48,0,0,1-1.84-.71,3.58,3.58,0,0,0-2-.76,3.4,3.4,0,0,0-2.17.57.82.82,0,0,1-.76,0,.88.88,0,0,0-.94-.38l-.27-.16a.36.36,0,0,0-.43-.3.58.58,0,0,1-.37-.26A1.65,1.65,0,0,0,196.81,86Z"/><path class="cls-3" d="M220.13,135.78l-3-5.21c-.4-.69-.4-.69.16-1.33.31.07.39.35.52.57,2.56,4.29,5.14,8.56,7.66,12.88.75,1.28,1.58,2.51,2.27,3.84a8.2,8.2,0,0,0,1.28,1.37,50.41,50.41,0,0,1,5.42,6.77,1.72,1.72,0,0,1,.42.89c-.35.16-.65-.06-.95-.15-1.62-.52-3.22-1.09-4.85-1.57a1.15,1.15,0,0,1-.94-1.1c-.19-1.31-.44-2.62-.67-3.93a2.39,2.39,0,0,0-.23-.87c-1-1.74-2-3.55-3.09-5.25C222.9,140.34,221.55,138,220.13,135.78Z"/><path class="cls-3" d="M190.17,119.31a1.5,1.5,0,0,1,1.12-.44,68.27,68.27,0,0,1,11.51.9c.26,0,.57,0,.64.36s-.17.41-.33.58c-.6.62-1.22,1.23-1.81,1.86a.77.77,0,0,1-.6.27,38.39,38.39,0,0,1-5.87-.35,5.47,5.47,0,0,1-2.61-1.16A11.87,11.87,0,0,1,190.17,119.31Z"/><path class="cls-2" d="M203.35,87.29a3.58,3.58,0,0,1,2,.76,5.48,5.48,0,0,0,1.84.71c-.51.33-1,.06-1.45.36.17.36.51.44.8.57a18.79,18.79,0,0,1,4.58,3.13c.53.45,1.07.9,1.58,1.37a1.15,1.15,0,0,0,.63.25,1.83,1.83,0,0,1-2.46,1.06,36.63,36.63,0,0,1-4.59-3c-1.47-1.16-1-1.29-2.89-.19a8,8,0,0,0-2.34,2,2,2,0,0,1,.69-1.51,9,9,0,0,1,1.94-1.4c.66-.37.62-.36.31-1.07a13.12,13.12,0,0,1-.77-2.89Z"/><path class="cls-3" d="M192.14,87.21a1.2,1.2,0,0,1,1.42.75c2,3.54,4.05,7,6.1,10.52,2.67,4.53,5.31,9.06,8,13.58a2.27,2.27,0,0,1,.22,2c-.37-.05-.42-.34-.54-.55q-2.64-4.53-5.26-9.06c-.15-.26-.33-.49-.5-.74s-.21-.48-.34-.71l-5-8.61C194.86,92,193.5,89.6,192.14,87.21Z"/><path class="cls-2" d="M176.86,125a33.82,33.82,0,0,1-6.71,1,11.28,11.28,0,0,1-2.85,0,1.13,1.13,0,0,1,.7-.34,51.82,51.82,0,0,0,7.69-2.48,10,10,0,0,1,3.28-.84c.08,0,.17-.08.24-.12,0-.41-.53-.4-.56-.84l4.41-.49a2.7,2.7,0,0,1-.71.9c-.25.26-.44.52-.2.88l-4.43,1.83A3,3,0,0,0,176.86,125Z"/><path class="cls-2" d="M214,132.22l-.06.09a6.62,6.62,0,0,1-5.74,2.1,23.08,23.08,0,0,1-5.65-1l.06-.08a3.85,3.85,0,0,1,3.65-.95,9.89,9.89,0,0,0,7.41-1.49,20.27,20.27,0,0,0,2.09-1.95,1.72,1.72,0,0,1-.43,1,3.2,3.2,0,0,0-.53,1C214.53,131.38,214,131.64,214,132.22Z"/><path class="cls-3" d="M209.33,97.56a4.73,4.73,0,0,1-1.06,4.8,7.89,7.89,0,0,1-.61-2,1.39,1.39,0,0,0-1-1.19c-.84-.26-.83-.32-.67-1.24,0-.29.09-.59.15-1-.54,0-1,0-1.52,0-.66-.07-.78-.23-.81-.88a6.71,6.71,0,0,0,0-1.1c-.09-.51.19-.7.57-.9s.63,0,.85.28a5.73,5.73,0,0,0,2.19,1.68,1.21,1.21,0,0,1,.83,1.41c0,.36-.06.73-.07,1.09,0,.13,0,.27.12.33s.26,0,.34-.13C208.8,98.4,209,98,209.33,97.56Z"/><path class="cls-2" d="M192.14,87.21c1.36,2.39,2.72,4.78,4.1,7.16l5,8.61c.13.23.23.47.34.71-.07.42-.14.85-.22,1.27-1.09-1.61-1.94-3.35-2.94-5l-.88-1.43q-2.06-3.64-4.12-7.28c-.78-1.39-1.57-2.77-2.4-4.22A2.23,2.23,0,0,1,192.14,87.21Z"/><path class="cls-3" d="M203.18,84.49a1,1,0,0,1-.67.13h-5a7,7,0,0,1-2.36-.31,2,2,0,0,0-2.41.92c-.24-.15-.45-.23-.59.15s0,.72-.09,1.09a.88.88,0,0,1-1-.63,2.15,2.15,0,0,0-1-1.24c-.11-.07-.16-.27-.23-.41.2,0,.43.19.59-.14s.31-.5.46-.76a2.11,2.11,0,0,1,2.27-1.06c.16,0,.32.13.47,0s-.15-.57,0-.86a1,1,0,0,1,.75,1.18c-.13.51.59.77.28,1.3,0,.07.26.14.41.19a8.85,8.85,0,0,0,3.15.37,37.55,37.55,0,0,1,4,0A2.5,2.5,0,0,1,203.18,84.49Z"/><path class="cls-2" d="M191.3,124a2.47,2.47,0,0,0-.36-1.59c-.37-.8-.78-1.57-1.17-2.35a7.75,7.75,0,0,1,2,3.59,6.75,6.75,0,0,1,.18,3.65c-.12.44.11.61.45.73l2.26.82c.55.21.56.26.19.75-.65.88-.75.91-1.84.61l-3.81-1.06c-.07-.1-.07-.16,0-.19a2.84,2.84,0,0,0,2.29-3.27A16.44,16.44,0,0,0,191.3,124Z"/><path class="cls-2" d="M220.13,135.78c1.42,2.26,2.77,4.56,4,6.91-.2.49,0,1-.23,1.51a14.22,14.22,0,0,1-1.39-2.27c-.86-1.52-1.83-3-2.58-4.56C220.09,136.85,219.91,136.29,220.13,135.78Z"/><path class="cls-2" d="M198.89,135.28c-1.79,1.07-3.66,2-5.54,2.91-.41.2-.81.45-1.21.68a1.76,1.76,0,0,0-.83,1.49.6.6,0,0,0,.33.66l.7.35c-.68-.49-1.59-.37-2.29-.84.25-.5.52-1,.74-1.52a2.39,2.39,0,0,1,1.45-1.12c1.2-.56,2.43-1.07,3.66-1.56A15.84,15.84,0,0,1,198.89,135.28Z"/><path class="cls-3" d="M193.64,81.34c-.12.29.09.58,0,.86s-.31,0-.47,0a2.11,2.11,0,0,0-2.27,1.06c-.15.26-.34.5-.46.76s-.39.15-.59.14c-.41-.55-1-1-1-1.77.29,0,.6,0,.7-.35a1,1,0,0,1,.52-.51.38.38,0,0,0,.49-.24l.33-.15,1.76-.23C193.06,81,193.55,80.68,193.64,81.34Z"/><path class="cls-4" d="M214.81,131a3.2,3.2,0,0,1,.53-1,1.72,1.72,0,0,0,.43-1,5.32,5.32,0,0,0,.7-1.31c.18-.46.37-.91.58-1.42a2.1,2.1,0,0,1-.14,2.5A9.93,9.93,0,0,1,214.81,131Z"/><path class="cls-4" d="M165.39,132.4a7.48,7.48,0,0,1-2-.64l-.16-.84c.05-.06.07-.09.09-.1,2-.74,2.05-.69,2.07,1.39C165.38,132.27,165.39,132.34,165.39,132.4Z"/><path class="cls-3" d="M210.05,87.37a2.15,2.15,0,0,1-1.24-.51,2.3,2.3,0,0,0-2-.48s-.14-.11-.21-.17a1.41,1.41,0,0,0-1.08-.57,1.24,1.24,0,0,1-.72-.26c-.07-.35-.33-.47-.63-.54s-.48,0-.59-.3a.85.85,0,0,1,.68.06A30.13,30.13,0,0,1,209.61,87C209.77,87.1,210,87.16,210.05,87.37Z"/><path class="cls-2" d="M203.73,101.91c-.53.22-.64-.15-.72-.53-.11-.55-.18-1.1-.3-1.65a2.06,2.06,0,0,0-.52-1.15c.84,0,1.14.19,1.26,1S203.64,101.12,203.73,101.91Z"/><path class="cls-4" d="M219.08,124.87l.6,0a7.73,7.73,0,0,1-1.45,2c-.3-.19-.25-.45-.31-.66-.34-1.13-.33-1.14.84-1.09C219,125.15,219.05,125.05,219.08,124.87Z"/><path class="cls-3" d="M192.77,85.23a11.6,11.6,0,0,1,3.24.61A7.82,7.82,0,0,1,192.77,85.23Z"/><path class="cls-3" d="M203.35,87.29l-.12.15c-.71,0-1.33.47-2,.42A3.4,3.4,0,0,1,203.35,87.29Z"/><path class="cls-3" d="M196.81,86a1.65,1.65,0,0,1,1.6.8Z"/><path class="cls-3" d="M192.71,80.94l-1.76.23A1.4,1.4,0,0,1,192.71,80.94Z"/><path class="cls-3" d="M213,89.78a1.21,1.21,0,0,1-1-.93A2.77,2.77,0,0,1,213,89.78Z"/><path class="cls-3" d="M199.48,87.47a.88.88,0,0,1,.94.38A1.09,1.09,0,0,1,199.48,87.47Z"/><path class="cls-3" d="M210.87,88a.56.56,0,0,1-.68-.49A.93.93,0,0,1,210.87,88Z"/><path class="cls-3" d="M189.61,82.07c-.1.39-.41.34-.7.35C189,82.06,189.38,82.18,189.61,82.07Z"/><path class="cls-3" d="M211.64,88.58a.57.57,0,0,1-.65-.52A1,1,0,0,1,211.64,88.58Z"/><path class="cls-3" d="M198.78,87a.36.36,0,0,1,.43.3A2.11,2.11,0,0,1,198.78,87Z"/><path class="cls-4" d="M220.7,122.53a.37.37,0,0,1,.21-.54A.83.83,0,0,1,220.7,122.53Z"/><path class="cls-3" d="M190.62,81.32a.38.38,0,0,1-.49.24A.42.42,0,0,1,190.62,81.32Z"/><path class="cls-3" d="M214.9,120.72c-.09.07-.16.24-.31.11s0-.23.06-.34Z"/><path class="cls-3" d="M217,92.27l-.07.13s-.07-.05-.06-.07a.75.75,0,0,1,.06-.13Z"/><polygon class="cls-3" points="210.63 124.09 210.65 124.04 210.67 124.08 210.63 124.09"/><path class="cls-2" d="M122.14,120.77a39.51,39.51,0,0,0-5.75.41,7.27,7.27,0,0,0-2.25.79c-.2.11-.43.2-.41.54a6,6,0,0,0,1.74-.16,35.53,35.53,0,0,1,9.44.28,79.64,79.64,0,0,1,9.81,2.24c1.16,1.91,2.54,3.67,3.79,5.51q4.92,7.23,9.87,14.43c.11.16.21.33.31.49-.26.27-.47.07-.66,0-2-.75-4-1.46-6-2.28-3-1.29-6.16-2.34-9.26-3.46A55.59,55.59,0,0,1,122,134.42a38.59,38.59,0,0,1-7.82-6.47,6.24,6.24,0,0,1-1.54-4.39,1.93,1.93,0,0,1,.73-1.46,5.67,5.67,0,0,1,3.69-1.55A22.06,22.06,0,0,1,122.14,120.77Z"/><path class="cls-2" d="M142.4,127.08c1.8.4,3.52,1.08,5.29,1.59.82.24,1.63.54,2.44.81.72,1.68,1.64,3.27,2.47,4.9,2.42,4.75,4.86,9.48,7.28,14.22a1.33,1.33,0,0,1,.26.74c-.24.21-.44,0-.64-.05-1.35-.47-2.69-1-4.05-1.44a1.84,1.84,0,0,1-1-.86q-5.78-9.51-11.58-19A2.63,2.63,0,0,1,142.4,127.08Z"/><path class="cls-4" d="M171,121.72a.17.17,0,0,1-.22.06C170.82,121.69,170.89,121.64,171,121.72Z"/><path class="cls-4" d="M170.4,121.85a.26.26,0,0,1-.29.1A.23.23,0,0,1,170.4,121.85Z"/><path class="cls-1" d="M204.8,85.38a1.24,1.24,0,0,0,.72.26,1.41,1.41,0,0,1,1.08.57,4.2,4.2,0,0,0-2.81-.39c-.69.09-.69.08-1.42-.31A10.73,10.73,0,0,1,204.8,85.38Z"/><path class="cls-1" d="M194.74,83.46c-.62-.75-1.12-.75-2.29-.67a1,1,0,0,0-.85.62c-.14.38.37.42.42.71-.05.07-.1.17-.13.16-1-.09-.9,0-1,1.31-.32-.38-.88-.16-1-.78.48,0,.54-.56.73-.94a2.51,2.51,0,0,1,3.09-1.54c.29-.32.08-.68.15-1,.66.22.85.46.73,1.27C194.53,82.94,194.74,83.12,194.74,83.46Z"/><path class="cls-1" d="M194.63,84c.37-.06,1.57.35,2,.06-.47-.14-1.18,0-1.65-.18-.3-.08-.24-.25-.14-.44a3,3,0,0,0-2.23,1.08c-.21.22-.48.49-.28.87.14-.19,0-.34.3-.18A2.89,2.89,0,0,1,194.63,84Z"/></svg>