<svg id="frames" xmlns="http://www.w3.org/2000/svg" viewBox="0 0 384 216"><defs><style>.cls-1{fill:#0f1b33;}.cls-2{fill:#fc0101;}.cls-3{fill:#f4f2f4;}.cls-4{fill:#d6d7d0;}</style></defs><path class="cls-1" d="M165.44,122.92c0-.17,0-.33,0-.5.1-12.63-.17-25.25-.1-37.88,0-1.5.1-3,.16-4.49a1,1,0,0,1,.72-1,2.87,2.87,0,0,1,1.09-.1c6.56,0,13.12,0,19.68,0q7.84,0,15.69.17a48.55,48.55,0,0,1,5.78.3A21.65,21.65,0,0,1,214,81.1a30.67,30.67,0,0,1,8.73,5.32,41.16,41.16,0,0,1,3,3.19l.16.07s0-.05,0-.08c.05-.56.09-1.13.13-1.69.18-2.84.49-5.68.56-8.53a1.87,1.87,0,0,1,1.25-.18q12,0,23.9,0c4.53,0,9.06,0,13.58.18a26.56,26.56,0,0,1,17.4,7,26.24,26.24,0,0,1,6.66,9.36,26.66,26.66,0,0,1,2.05,8.8,26.19,26.19,0,0,1-2.73,13.63,26.8,26.8,0,0,1-14.8,13.43,26.5,26.5,0,0,1-9.56,1.8c-4.87,0-9.74,0-14.6,0H249a.43.43,0,0,0-.49.49c0,.1,0,.2,0,.3,0,2.76-.15,5.53-.12,8.29.08,6,0,11.93,0,17.9v.4c0,1.18-.43,1.6-1.64,1.63H245l-4.89-.11c.73-.24,1.45-.5,2.18-.72a13.66,13.66,0,0,0,2.21-.9,1.36,1.36,0,0,0,.71-.67c.15-.35,0-.45-.51-.45a9.4,9.4,0,0,0-2.63-1.17c-5.16-1.43-10.24-3.1-15.29-4.87s-10.3-3.56-15.45-5.36c-3.7-1.3-7.39-2.63-11.08-4a28.49,28.49,0,0,1-3.9-1.44,1.6,1.6,0,0,1,.49,0c5,1.65,9.93,3.21,14.84,5,4.41,1.61,8.87,3.07,13.32,4.59.86.3.92.25.91-.63,0-1.33-.06-2.66-.07-4a2.86,2.86,0,0,0-.42-1.42,10.8,10.8,0,0,1-1.08-2c.24-.47.08-1,.23-1.49,1.14,1.68,2,3.5,3.09,5.25a2.84,2.84,0,0,1,.25,1c.21,1.21.46,2.42.61,3.64a1.37,1.37,0,0,0,1.17,1.37c.9.2,1.77.57,2.66.85s1.94.62,2.92.93c0-.18.06-.25,0-.29-.14-.27-.28-.53-.44-.78a52,52,0,0,0-5.43-6.76,10,10,0,0,1-1.62-1.87c-.64-1.19-1.36-2.34-2-3.51-2.44-4.24-5-8.4-7.49-12.63a1.38,1.38,0,0,0-.46-.61c-.67.59-.67.59-.3,1.26,1,1.77,2.11,3.47,3,5.29-.24.5,0,1.05-.18,1.55a2.48,2.48,0,0,1-.55-.81c-1-1.71-2-3.44-3-5.15-.36-.61-.53-.63-1.08-.2a6.24,6.24,0,0,1-1.3,1c0-.59.55-.78.78-1.2l.17-.23v0a.23.23,0,0,0,.22-.23l0,0a9.26,9.26,0,0,0,1.87-2c.6-.76.34-1.52.16-2.46a6.48,6.48,0,0,0-.65,1.39l-.66,1.34c-.68.54-1.11,1.33-1.84,1.82a10.32,10.32,0,0,1-7.49,1.76c-2.16-.33-2.16-.32-4,.9l-.06.08a34.91,34.91,0,0,1-3.61,1.83,10.18,10.18,0,0,0-2.16.73c-1.54.63-3.07,1.27-4.58,1.94a2.3,2.3,0,0,0-1.37,1.08c-.23.51-.49,1-.73,1.53-.66-.21-1.34-.4-2-.64a9.79,9.79,0,0,1-2.15-.83,9,9,0,0,0,5.56-2q4.11-3,8.16-6.1c2.08-1.61,4-3.38,6.16-4.94a38.06,38.06,0,0,0,5.11-4.47.44.44,0,0,1,.52-.19,6,6,0,0,1-1,2.69,4.23,4.23,0,0,0,1.1-1,13.86,13.86,0,0,0,2.53-4.61c.29-.78.52-.89,1.43-.86a5.37,5.37,0,0,1-.46,1.62,2.29,2.29,0,0,0-.34,1.11.89.89,0,0,0-.31.8c.26-.12.5-.22.61-.49l.16-.2h.06l0-.06a6.07,6.07,0,0,0,2.1-2.34c.17-.24,0-.52,0-.77a15.35,15.35,0,0,0-.94-2.61,4,4,0,0,0-4.15-2.46,1.06,1.06,0,0,0-1,.62c-.54,1-1.13,2-1.64,3a3,3,0,0,1-.95,1.11c-.84.61-1.68,1.22-2.48,1.86a17.35,17.35,0,0,0-2.53,2.21c-.73.9-1.51,1.74-2.28,2.6-2.79,3.13-5.61,6.24-8.59,9.19a11.55,11.55,0,0,1-4.25,2.85,25.36,25.36,0,0,1-7.41,1.49,8.89,8.89,0,0,1-3.42-.54c-2.34-.86-4.7-1.66-7.06-2.47-1.89-.64-3.79-1.26-5.68-1.89,0-.13,0-.26,0-.39,0-1.58.2-1.45-1.43-1.12-.66.14-.66.15-.55.89a31.7,31.7,0,0,1-4.11-1.32,19.42,19.42,0,0,1,3.93-1.08c2.85-.43,5.73-.67,8.55-1.34a16.4,16.4,0,0,0,5.61-2.46c.33-.23.19-.35-.09-.45a3.65,3.65,0,0,1,.95-.52l4.37-1.81a11.43,11.43,0,0,0,4.29.77,24.71,24.71,0,0,1,4.85.57c0,.4.12.79.15,1.19.14,1.89-.2,3.15-2.22,3.81,0,0,0,.05,0,.09.16.21.41.19.62.25,1.15.32,2.33.58,3.46,1a1,1,0,0,0,1.36-.43c.17-.23.44-.41.45-.83l-2.48-.91c-.58-.21-.82-.27-.62-1.08a6.88,6.88,0,0,0-.46-4.11,6.79,6.79,0,0,0-1.74-2.86c-.42-.43-.67-1-1.48-1a37.79,37.79,0,0,0-9.59,1.14c-2.15.59-4.39.66-6.56,1.16-.3-.61-.81-.44-1.29-.35A42.92,42.92,0,0,0,165.44,122.92ZM215,90.58c0-.07,0-.21-.19-.13s-.4.23-.64.08a.72.72,0,0,0-.38-.35,1.73,1.73,0,0,0-.82-.69,5,5,0,0,0-1.35-1.12.53.53,0,0,0-.44-.36.46.46,0,0,0-.36-.24A4.19,4.19,0,0,0,209,86.64a.3.3,0,0,0-.27-.13,19.34,19.34,0,0,0-4.35-1.82c-.05,0-.12,0-.19,0a1.16,1.16,0,0,0-.8-.08,2.13,2.13,0,0,0-1-.12c-1.87,0-3.75,0-5.63,0a1,1,0,0,0-.6-.09l-.35-.17c-.2-.09-.61-.2-.6-.25.07-.48-.38-.76-.4-1.16,0-1,0-1-1-1.73a1.23,1.23,0,0,0-.66,0,1,1,0,0,0-1.25,0,2.26,2.26,0,0,0-.86.4.39.39,0,0,0-.46.25,1.16,1.16,0,0,0-.55.52c-.9.23-.9.23-.43.94a1.36,1.36,0,0,0,.49.75.49.49,0,0,0,.31.44h0c.06.12.08.29.17.34a2.09,2.09,0,0,1,1,1.25,1,1,0,0,0,1,.69c.18-.46-.15-1,.33-1.38a1.63,1.63,0,0,0,1.16.33.87.87,0,0,0,.59.11.73.73,0,0,0,.61.09.84.84,0,0,0,.6.1.55.55,0,0,0,.58.07,5.46,5.46,0,0,1,2.77,1.18,2,2,0,0,0,.75.45.48.48,0,0,0,.5.23,1.87,1.87,0,0,0,2,0c.46.09.85-.29,1.31-.22a8.64,8.64,0,0,0,1.16,3.48c-1.25,1-3,1.46-3.31,3.28A11.76,11.76,0,0,1,204.59,92a1.28,1.28,0,0,1,1.69.21,28.12,28.12,0,0,0,4.94,3.36,1.81,1.81,0,0,0,2.56-1l.43-.26a.08.08,0,0,1-.05.1c.53,0,0,.58.38.74a3.88,3.88,0,0,1,.91.6c.27.21.24.52.21.83a13.65,13.65,0,0,1-.5,2.53,1.71,1.71,0,0,0,.41,1.75c.61.65,1.19,1.33,1.81,2,.33.35.7.66,1.14,1.09a4.48,4.48,0,0,1-2.45-.65c-.76-.27-1.53-.48-2.41-.75.09.33.12.49.18.64.23.63.49,1.24.7,1.87.13.39,0,.52-.38.39s-.8-.33-1.19-.49a.25.25,0,0,0-.33-.23.12.12,0,0,0,0,.21,1.17,1.17,0,0,0-.09.69.4.4,0,0,0-.07.5c-.24,1.07-.66,2.13-.19,3.23a.28.28,0,0,0,0,.37c-.13.49-.28,1-.37,1.45s0,.67.5.69c1.41.07,2.73.61,4.11.79l3.11.37a.78.78,0,0,1-.66.3l-1.78.26c-.16,0-.33.07-.34.29s.13.2.25.27a1.48,1.48,0,0,0,.65.19,2,2,0,0,1,1.16.49c-.5.06-1-.24-1.46,0a12.88,12.88,0,0,1,1,3,11.36,11.36,0,0,1,.09,5,2.61,2.61,0,0,0-.11,1.54c.07.23.25.26.45.24l.34.17c0,.17.24.37-.11.43s-.65-.15-1,.15a6.38,6.38,0,0,0,.63,1.73,11.66,11.66,0,0,0,1.47-2.14,4,4,0,0,0,.68-1.33,17.85,17.85,0,0,1,2-4.14,21.59,21.59,0,0,0,3-9.11,11,11,0,0,0-.39-4.84c-.82-2.5-1.87-4.91-2.83-7.36a6,6,0,0,0-.9-1.44,30,30,0,0,0-2.86-3.2q-.74-.68-1.5-1.32c-.1-.09-.31-.31-.38-.07-.19.64-.35.23-.52,0a5.58,5.58,0,0,0-1.46-1.6Zm-10.82,11.5c-.09-.76-.15-1.52-.26-2.28s-.4-1-1.33-1.1a3.82,3.82,0,0,0-1.89-.12.39.39,0,0,0,.05.44c2.14,3.6,4.17,7.27,6.39,10.83,0,0,.06,0,.09,0h.13a8,8,0,0,0,.41-5.25.42.42,0,0,0-.57-.38c-.61.13-.86-.22-1.15-.7A4,4,0,0,0,204.18,102.08ZM202,103.84c.17.24.35.48.5.74l5.22,9c.14.25.19.58.59.69a2.31,2.31,0,0,0-.18-2Q201.05,100.21,194,88.13a1.24,1.24,0,0,0-1.43-.75,2.37,2.37,0,0,0-1-.22,1,1,0,0,0,.22.61c1.09,1.9,2.19,3.79,3.26,5.7,1,1.68,2,3.31,2.82,5l-8.78.15c-1.11,0-1.09-.28-1.09,1.14v8.89c0,1.9,0,3.8-.05,5.7,0,.47.16.61.64.61q6-.1,12-.17a6.77,6.77,0,0,0,4.38-1.66c.94-.78.92-.79.32-1.86-1.15-2.06-2.41-4.07-3.48-6.17A11.18,11.18,0,0,0,202,103.84Zm53-5.22h-5.7c-.71,0-.72,0-.73.72q-.06,7.44-.1,14.89c0,.77,0,.77.75.82l.4,0,10.69.12a4,4,0,0,0,1.38-.18,8.84,8.84,0,0,0,6.49-7.26,6.06,6.06,0,0,0-.72-4.24,11.44,11.44,0,0,0-2.45-3,7.09,7.09,0,0,0-5-1.9C258.33,98.64,256.66,98.62,255,98.62Zm-29.24,24.11c-.92.91-1.71,1.74-2.56,2.52a19.81,19.81,0,0,1-4.29,3.38c-.47.24-.48.45-.18,1l6.54,11.11c.11.18.17.43.49.48Zm-35.13-3.24a13.58,13.58,0,0,0,1.89,1.9,5.85,5.85,0,0,0,3.17,1.34c1.46.16,2.92.24,4.38.3a2.34,2.34,0,0,0,2.31-1,13.78,13.78,0,0,1,1.25-1.29c.46-.48.4-.66-.28-.82h-.09a67.49,67.49,0,0,0-11.53-.91A1.41,1.41,0,0,0,190.62,119.49Zm18-20.35a8.93,8.93,0,0,1,0-1.72,1.07,1.07,0,0,0-.66-1.11,6.17,6.17,0,0,1-2.38-1.79c-.21-.26-.43-.48-.84-.26s-.66.41-.57.92a6.51,6.51,0,0,1,0,1c0,.77.16.92.94,1,.44,0,.9,0,1.4,0,0,.26-.07.42-.09.58l-.09.49c-.12.77-.1.9.64,1.1a1.44,1.44,0,0,1,1.1,1.25c.14.66.36,1.3.55,2l.24,0a5.3,5.3,0,0,0,.93-4.74C209.3,98.15,209.33,98.93,208.61,99.14Zm-17,34.22h-3.19c-.33,0-.49.13-.48.47a8.75,8.75,0,0,0,.07,1.77A6.77,6.77,0,0,0,191.6,133.36Z"/><path class="cls-1" d="M151.66,93.45c3.22,10.32,6.37,20.67,9.54,31,0,.1.05.2.07.29a19.5,19.5,0,0,0-2.29,1.37l.45.19c-1,.82-2.25,1.3-3.31,2a2.72,2.72,0,0,1-2.73.31c-4.18-1.36-8.34-2.78-12.57-4a25.7,25.7,0,0,1-3.42-1.1,1.67,1.67,0,0,0-.05-.39c-1.48-5.08-2.95-10.16-4.45-15.24-.07-.23,0-.54-.45-.76-1.44,4.8-3,9.51-4.66,14.2l-5.51-.45c-.78-.09-1.57-.23-2.36-.26a11,11,0,0,0-4.3.46c-.57.21-1.2.38-1.43,1.07h0c-.16,0-.25,0-.21.21h0c-.66.09-.82.61-.86,1.14a6.22,6.22,0,0,0,1.63,4.74,40,40,0,0,0,11.06,8.29,48.92,48.92,0,0,0,7,3c3.6,1.3,7.22,2.54,10.75,4,1.56.67,3.18,1.21,4.77,1.8.2.08.42.24.67,0a1.5,1.5,0,0,0-.4-.78l-9.2-13.44-4.25-6.18a54.64,54.64,0,0,1,7.83,2.24c-.09.41.2.68.38,1l3,4.87q4.26,7,8.52,14a1.8,1.8,0,0,0,.94.84c1.39.47,2.76,1,4.14,1.48.21.07.43.23.65,0a2.15,2.15,0,0,0-.32-.81c-2.41-4.71-4.84-9.42-7.25-14.14-.82-1.6-1.61-3.21-2.42-4.82.26.07.52.12.77.2,14.12,4.47,28.26,8.87,42.32,13.54,6.28,2.09,12.62,4,18.86,6.24,5.78,2.05,11.51,4.2,17.28,6.25,3,1.05,6,1.94,9.08,2.74,1.57.4,3.16.76,4.74,1.16-.26.07-.52.14-.78.19-1.63.33-3.29.49-4.94.7-2.64.35-5.28.71-7.94.85a97.79,97.79,0,0,1-16.05-.62c-3.33-.37-6.66-.89-10-1.34-4.92-.67-9.81-1.49-14.66-2.52-3.38-.72-6.74-1.56-10.11-2.36-2.55-.61-5.12-1.1-7.63-1.48.6.22,1.26.52,1.94.71,2.72.79,5.44,1.55,8.16,2.3,2,.55,4.06,1.05,6.09,1.57,0,1-.06,2.07-.11,3.1s-.35,1.27-1.35,1.3H149.48c-.58,0-.79-.39-.95-.86-.7-2.19-1.42-4.37-2.13-6.56-.32-1-.63-2-1-2.94-.27-.78-.32-.82-1.14-.82H120.71c-1.16,0-1,0-1.3.94-.74,2.56-1.63,5.07-2.22,7.67l0,.2c-.62,2-.91,2.18-3,2.19-2.46,0-4.93,0-7.39.09q-5.25.18-10.48.2c-.87,0-1.73.08-2.6.08-1.15,0-1.51-.49-1.16-1.59,1.22-3.87,2.46-7.74,3.68-11.62Q102.1,130.59,108,112c.15-.45.26-.9.45-1.33s.06-.6-.3-.78c-.86-.44-1.71-.91-2.56-1.37a1.76,1.76,0,0,1-.76-.62.92.92,0,0,1,1.24-1.33c.61.4,1.19.84,1.8,1.26l1.14.76a1.1,1.1,0,0,0,.41-.71l1.08-3.43c.28-.9.28-.9-.55-1.4-1.89-1.13-3.77-2.27-5.66-3.39a11.16,11.16,0,0,1-1.55-1.1c-.67-.59-.74-1-.28-1.73a1.39,1.39,0,0,1,1.87-.64,10.6,10.6,0,0,1,1.87,1.16l4.31,3.25a2.45,2.45,0,0,0,.84.53,2.13,2.13,0,0,0,.54-1c1-3.25,2-6.49,3-9.73v0l.14-.47.09-.27a.75.75,0,0,1,.05-.16c1.51-3.42,2.77-6.95,4.07-10.45.57,0,1.13-.06,1.7-.06h24.47c1.39,0,1.71.27,2.2,1.54Z"/><path class="cls-2" d="M187.73,157.79c-2-.52-4.06-1-6.09-1.57-2.72-.75-5.44-1.51-8.16-2.3-.68-.19-1.34-.49-1.94-.71,2.51.38,5.08.87,7.63,1.48,3.37.8,6.73,1.64,10.11,2.36,4.85,1,9.74,1.85,14.66,2.52,3.32.45,6.65,1,10,1.34a97.79,97.79,0,0,0,16.05.62c2.66-.14,5.3-.5,7.94-.85,1.65-.21,3.31-.37,4.94-.7.26,0,.52-.12.78-.19l.68.07c.23,0,.39,0,.43-.27.55,0,.66.1.51.45a1.36,1.36,0,0,1-.71.67,13.66,13.66,0,0,1-2.21.9c-.73.22-1.45.48-2.18.72a58.56,58.56,0,0,1-5.88,1.11,72.71,72.71,0,0,1-17.63-.15c-5.61-.74-11.23-1.43-16.75-2.71q-3-.71-6-1.47C191.84,158.6,189.8,158.13,187.73,157.79Z"/><path class="cls-2" d="M159.43,126.31l-.45-.19a19.5,19.5,0,0,1,2.29-1.37l4.17-1.83a42.92,42.92,0,0,1,5.87-1.73c.48-.09,1-.26,1.29.35-.29.08-.57.18-.86.25a53.44,53.44,0,0,0-5.65,1.62A62.36,62.36,0,0,0,159.43,126.31Z"/><path class="cls-2" d="M119.25,79c-1.3,3.5-2.56,7-4.07,10.45.73-2.83,1.69-5.58,2.66-8.34.16-.47.33-.94.48-1.41S118.73,79,119.25,79Z"/><path class="cls-2" d="M226.61,79.38c-.07,2.85-.38,5.69-.56,8.53,0,.56-.08,1.13-.13,1.69,0,0,0,.05,0,.08l-.16-.07c.09-2.25.18-4.49.26-6.74A13.14,13.14,0,0,0,226,81,1.46,1.46,0,0,1,226.61,79.38Z"/><path class="cls-2" d="M115.13,89.65l-.09.27Z"/><path class="cls-2" d="M114.9,90.39v0Z"/><path class="cls-3" d="M159.43,126.31a62.36,62.36,0,0,1,6.66-2.9,53.44,53.44,0,0,1,5.65-1.62c.29-.07.57-.17.86-.25,2.17-.5,4.41-.57,6.56-1.16a37.79,37.79,0,0,1,9.59-1.14c.81,0,1.06.55,1.48,1,.39.77.8,1.53,1.16,2.31a2.34,2.34,0,0,1,.35,1.61,24.71,24.71,0,0,0-4.85-.57,11.43,11.43,0,0,1-4.29-.77c-.26-.35,0-.6.18-.87s.6-.41.63-.91l-4.34.51c.11.43.6.42.65.89a12.26,12.26,0,0,0-3.64.92,51.66,51.66,0,0,1-7.59,2.45,1.6,1.6,0,0,0-.8.35,11.78,11.78,0,0,0,3-.06,33.56,33.56,0,0,0,6.61-1c.28.1.42.22.09.45a16.4,16.4,0,0,1-5.61,2.46c-2.82.67-5.7.91-8.55,1.34a19.42,19.42,0,0,0-3.93,1.08,31.7,31.7,0,0,0,4.11,1.32,6.69,6.69,0,0,0,2,.62c1.89.63,3.79,1.25,5.68,1.89,2.36.81,4.72,1.61,7.06,2.47a8.89,8.89,0,0,0,3.42.54,25.36,25.36,0,0,0,7.41-1.49,11.55,11.55,0,0,0,4.25-2.85c3-3,5.8-6.06,8.59-9.19.77-.86,1.55-1.7,2.28-2.6a17.35,17.35,0,0,1,2.53-2.21c.8-.64,1.64-1.25,2.48-1.86A3,3,0,0,0,210,116c.51-1,1.1-2,1.64-3a1.06,1.06,0,0,1,1-.62,4,4,0,0,1,4.15,2.46,15.35,15.35,0,0,1,.94,2.61c.08.25.21.53,0,.77a6.07,6.07,0,0,1-2.1,2.34h-.06l0,.06-.16.2-.3-.31a2.29,2.29,0,0,1,.34-1.11,5.37,5.37,0,0,0,.46-1.62c-.91,0-1.14.08-1.43.86a13.86,13.86,0,0,1-2.53,4.61,4.23,4.23,0,0,1-1.1,1,6,6,0,0,0,1-2.69.44.44,0,0,0-.52.19,38.06,38.06,0,0,1-5.11,4.47c-2.13,1.56-4.08,3.33-6.16,4.94q-4.05,3.09-8.16,6.1a9,9,0,0,1-5.56,2,9.79,9.79,0,0,0,2.15.83c.65.24,1.33.43,2,.64a1.81,1.81,0,0,0,1.25.44c.2,0,.42.17.63.26s.15.26.25.29c1.12.37,2.24.72,3.37,1.07l.39,0v0a28.49,28.49,0,0,0,3.9,1.44c3.69,1.33,7.38,2.66,11.08,4,5.15,1.8,10.31,3.54,15.45,5.36S237,157,242.11,158.42a9.4,9.4,0,0,1,2.63,1.17c0,.26-.2.3-.43.27l-.68-.07c-1.58-.4-3.17-.76-4.74-1.16-3.06-.8-6.1-1.69-9.08-2.74-5.77-2-11.5-4.2-17.28-6.25-6.24-2.21-12.58-4.15-18.86-6.24-14.06-4.67-28.2-9.07-42.32-13.54-.25-.08-.51-.13-.77-.2-2.52-.85-5-1.68-7.6-2.37a54.64,54.64,0,0,0-7.83-2.24l-3-.8a52.52,52.52,0,0,0-11.61-1.9,31,31,0,0,0-5.86.34c-.34.06-.59.1-.7-.29h0c.17,0,.24,0,.21-.21h0c.37.07.62-.2.92-.32a8.66,8.66,0,0,1,2.69-.68c1.49-.14,3-.25,4.48-.27l5.51.45c.56.38,1.22.15,1.83.3,2.59.66,5.19,1.27,7.78,1.89a25.7,25.7,0,0,0,3.42,1.1c4.23,1.2,8.39,2.62,12.57,4a2.72,2.72,0,0,0,2.73-.31C157.18,127.61,158.41,127.13,159.43,126.31Z"/><path class="cls-3" d="M196.17,84.45a1,1,0,0,1,.6.09c.2.3.52.24.81.24h5.34a.62.62,0,0,0,.45-.14,1.16,1.16,0,0,1,.8.08c.13.29.44.26.67.37s.51.16.55.49a21.53,21.53,0,0,0-2.54,0c-.06,0-.14,0-.16.06s0,.11.11.11a2.21,2.21,0,0,0,1.43.22,4.73,4.73,0,0,1,3,.39,11.12,11.12,0,0,0,1.52.12.3.3,0,0,1,.27.13,3.19,3.19,0,0,0,1.84,1.13.46.46,0,0,1,.36.24.37.37,0,0,0,.44.36A5,5,0,0,1,213,89.49a.9.9,0,0,0,.82.69.72.72,0,0,1,.38.35,3.58,3.58,0,0,1,.22,3.23.67.67,0,0,0,0,.19c0,.16-.07.35.14.41a.35.35,0,0,0,.4-.21,2.94,2.94,0,0,0,.37-1.23,7.1,7.1,0,0,0-.25-2.34,5.58,5.58,0,0,1,1.46,1.6c.17.22.33.63.52,0,.07-.24.28,0,.38.07q.76.65,1.5,1.32a30,30,0,0,1,2.86,3.2,6,6,0,0,1,.9,1.44c1,2.45,2,4.86,2.83,7.36a11,11,0,0,1,.39,4.84,21.59,21.59,0,0,1-3,9.11,17.85,17.85,0,0,0-2,4.14,4,4,0,0,1-.68,1.33c-.36.07-.66-.2-1-.17l-.34-.17a.39.39,0,0,0-.45-.24,2.61,2.61,0,0,1,.11-1.54,11.36,11.36,0,0,0-.09-5,12.88,12.88,0,0,0-1-3c.51-.26,1,0,1.46,0a2,2,0,0,0-1.16-.49,1.48,1.48,0,0,1-.65-.19c-.12-.07-.25-.12-.25-.27s.18-.26.34-.29l1.78-.26a.78.78,0,0,0,.66-.3l-3.11-.37c-1.38-.18-2.7-.72-4.11-.79-.45,0-.57-.32-.5-.69s.24-1,.37-1.45c.18-.12.18-.24,0-.37-.47-1.1-.05-2.16.19-3.23a.38.38,0,0,0,.07-.5,1.17,1.17,0,0,1,.09-.69l.37,0c.39.16.78.36,1.19.49s.51,0,.38-.39c-.21-.63-.47-1.24-.7-1.87-.06-.15-.09-.31-.18-.64.88.27,1.65.48,2.41.75a4.48,4.48,0,0,0,2.45.65c-.44-.43-.81-.74-1.14-1.09-.62-.66-1.2-1.34-1.81-2a1.71,1.71,0,0,1-.41-1.75,13.65,13.65,0,0,0,.5-2.53c0-.31.06-.62-.21-.83a3.88,3.88,0,0,0-.91-.6c-.36-.16.15-.72-.38-.74a.08.08,0,0,0,.05-.1l-.43.26c-.64,0-1-.54-1.37-.9a22.12,22.12,0,0,0-5.84-4.07c-.17-.07-.39-.15-.32-.42.38-.24.91.08,1.32-.32a5.15,5.15,0,0,1-1.8-.72,3.45,3.45,0,0,0-2-.72,1.43,1.43,0,0,0-1.38.36,1.87,1.87,0,0,1-2,0,.37.37,0,0,0-.5-.23,2,2,0,0,1-.75-.45A5.46,5.46,0,0,0,196.39,86a.34.34,0,0,0-.58-.07.84.84,0,0,1-.6-.1.35.35,0,0,0-.61-.09.87.87,0,0,1-.59-.11,2,2,0,0,0-.21-.2c-.49-.37-.49-.4,0-.68a2.26,2.26,0,0,1,1.89-.28C195.87,84.53,196,84.58,196.17,84.45Z"/><path class="cls-3" d="M220.58,136c-.91-1.82-2-3.52-3-5.29-.37-.67-.37-.67.3-1.26a1.38,1.38,0,0,1,.46.61c2.47,4.23,5.05,8.39,7.49,12.63.68,1.17,1.4,2.32,2,3.51a10,10,0,0,0,1.62,1.87,52,52,0,0,1,5.43,6.76c.16.25.3.51.44.78,0,0,0,.11,0,.29-1-.31-1.95-.61-2.92-.93s-1.76-.65-2.66-.85a1.37,1.37,0,0,1-1.17-1.37c-.15-1.22-.4-2.43-.61-3.64a2.84,2.84,0,0,0-.25-1c-1-1.75-1.95-3.57-3.09-5.25-.59-1.29-1.38-2.47-2.09-3.69A30.75,30.75,0,0,0,220.58,136Z"/><path class="cls-3" d="M190.62,119.49a1.41,1.41,0,0,1,1.1-.45,67.49,67.49,0,0,1,11.53.91h.09c.68.16.74.34.28.82a13.78,13.78,0,0,0-1.25,1.29,2.34,2.34,0,0,1-2.31,1c-1.46-.06-2.92-.14-4.38-.3a5.85,5.85,0,0,1-3.17-1.34A13.58,13.58,0,0,1,190.62,119.49Z"/><path class="cls-2" d="M203.75,87.47a3.45,3.45,0,0,1,2,.72,5.15,5.15,0,0,0,1.8.72c-.41.4-.94.08-1.32.32-.07.27.15.35.32.42a22.12,22.12,0,0,1,5.84,4.07c.4.36.73.88,1.37.9a1.81,1.81,0,0,1-2.56,1,28.12,28.12,0,0,1-4.94-3.36,1.28,1.28,0,0,0-1.69-.21,11.76,11.76,0,0,0-3.06,2.33c.36-1.82,2.06-2.31,3.31-3.28a8.64,8.64,0,0,1-1.16-3.48A.19.19,0,0,0,203.75,87.47Z"/><path class="cls-3" d="M192.58,87.38a1.24,1.24,0,0,1,1.43.75q7,12.09,14.12,24.14a2.31,2.31,0,0,1,.18,2c-.4-.11-.45-.44-.59-.69l-5.22-9c-.15-.26-.33-.5-.5-.74a2.13,2.13,0,0,0-.39-.8c-1.63-2.83-3.27-5.64-4.91-8.47C195.32,92.18,194,89.78,192.58,87.38Z"/><path class="cls-2" d="M177.28,125.13a33.56,33.56,0,0,1-6.61,1,11.78,11.78,0,0,1-3,.06,1.6,1.6,0,0,1,.8-.35,51.66,51.66,0,0,0,7.59-2.45,12.26,12.26,0,0,1,3.64-.92c-.05-.47-.54-.46-.65-.89l4.34-.51c0,.5-.41.66-.63.91s-.44.52-.18.87l-4.37,1.81A3.65,3.65,0,0,0,177.28,125.13Z"/><path class="cls-2" d="M214.45,132.41l-.06.09c-1.55,1.81-3.62,2.2-5.86,2.08a24,24,0,0,1-5.57-1l.06-.08c1.8-1.22,1.8-1.23,4-.9a10.32,10.32,0,0,0,7.49-1.76c.73-.49,1.16-1.28,1.84-1.82-.12.64-.72,1.07-.72,1.76l0,0c-.17,0-.21.09-.22.23v0l-.17.23C215,131.63,214.42,131.82,214.45,132.41Z"/><path class="cls-3" d="M208.61,99.14c.72-.21.69-1,1.23-1.37a5.3,5.3,0,0,1-.93,4.74l-.24,0c-.19-.65-.41-1.29-.55-2a1.44,1.44,0,0,0-1.1-1.25c-.74-.2-.76-.33-.64-1.1l.09-.49c0-.16.05-.32.09-.58-.5,0-1,0-1.4,0-.78-.06-.91-.21-.94-1a6.51,6.51,0,0,0,0-1c-.09-.51.18-.71.57-.92s.63,0,.84.26A6.17,6.17,0,0,0,208,96.31a1.07,1.07,0,0,1,.66,1.11A8.93,8.93,0,0,0,208.61,99.14Z"/><path class="cls-2" d="M192.58,87.38c1.38,2.4,2.74,4.8,4.12,7.19,1.64,2.83,3.28,5.64,4.91,8.47a2.13,2.13,0,0,1,.39.8,11.18,11.18,0,0,1-.21,1.29c-1.2-1.86-2.21-3.82-3.34-5.72-.18-.31-.39-.6-.59-.91-.85-1.72-1.87-3.35-2.82-5-1.07-1.91-2.17-3.8-3.26-5.7a1,1,0,0,1-.22-.61A2.37,2.37,0,0,1,192.58,87.38Z"/><path class="cls-2" d="M191.74,124.14a2.34,2.34,0,0,0-.35-1.61c-.36-.78-.77-1.54-1.16-2.31a6.79,6.79,0,0,1,1.74,2.86,6.88,6.88,0,0,1,.46,4.11c-.2.81,0,.87.62,1.08l2.48.91c0,.42-.28.6-.45.83a1,1,0,0,1-1.36.43c-1.13-.38-2.31-.64-3.46-1-.21-.06-.46,0-.62-.25,0,0,0-.09,0-.09,2-.66,2.36-1.92,2.22-3.81C191.86,124.93,191.79,124.54,191.74,124.14Z"/><path class="cls-3" d="M196.17,84.45c-.15.13-.3.08-.46,0a2.26,2.26,0,0,0-1.89.28c-.51.28-.51.31,0,.68a2,2,0,0,1,.21.2,1.63,1.63,0,0,1-1.16-.33c-.48.4-.15.92-.33,1.38a1,1,0,0,1-1-.69,2.09,2.09,0,0,0-1-1.25c-.09,0-.11-.22-.17-.34a.85.85,0,0,0,.76-.55,2.39,2.39,0,0,1,2.64-1.48.65.65,0,0,0,.28-.09,2.14,2.14,0,0,0-.27-1.14c1,.72,1,.72,1,1.73,0,.4.47.68.4,1.16,0,0,.4.16.6.25Z"/><path class="cls-2" d="M220.58,136a30.75,30.75,0,0,1,1.94,3.21c.71,1.22,1.5,2.4,2.09,3.69-.15.49,0,1-.23,1.49a12,12,0,0,1-1.35-2.18c-.88-1.55-1.87-3-2.63-4.66C220.54,137,220.34,136.47,220.58,136Z"/><path class="cls-2" d="M199.35,135.44c-1.82,1.11-3.73,2-5.64,3a8.24,8.24,0,0,0-1.36.83,1.84,1.84,0,0,0-.6,1.51c0,.44.45.43.64.68-.21-.09-.43-.28-.63-.26a1.81,1.81,0,0,1-1.25-.44c.24-.51.5-1,.73-1.53a2.3,2.3,0,0,1,1.37-1.08c1.51-.67,3-1.31,4.58-1.94A10.18,10.18,0,0,1,199.35,135.44Z"/><path class="cls-3" d="M193.78,81.14a2.14,2.14,0,0,1,.27,1.14.65.65,0,0,1-.28.09,2.39,2.39,0,0,0-2.64,1.48.85.85,0,0,1-.76.55h0a.36.36,0,0,0-.31-.44,1.36,1.36,0,0,1-.49-.75c-.07-.41.27-.64.43-.94a1.16,1.16,0,0,1,.55-.52.38.38,0,0,0,.46-.25,2.26,2.26,0,0,1,.86-.4,3.09,3.09,0,0,0,1.25,0A1.23,1.23,0,0,1,193.78,81.14Z"/><path class="cls-4" d="M215.59,130.81c0-.69.6-1.12.72-1.76l.66-1.34a6.48,6.48,0,0,1,.65-1.39c.18.94.44,1.7-.16,2.46A9.26,9.26,0,0,1,215.59,130.81Z"/><path class="cls-2" d="M204.18,102.08c-.53.23-.64-.15-.71-.52-.13-.57-.2-1.16-.32-1.73a1.91,1.91,0,0,0-.56-1.13c.93,0,1.2.25,1.33,1.1S204.09,101.32,204.18,102.08Z"/><path class="cls-4" d="M219.15,124.81c.35,0,.65.24,1,.17a11.66,11.66,0,0,1-1.47,2.14,6.38,6.38,0,0,1-.63-1.73c.33-.3.67-.1,1-.15S219.2,125,219.15,124.81Z"/><path class="cls-3" d="M203.37,84.65a.62.62,0,0,1-.45.14h-5.34c-.29,0-.61.06-.81-.24,1.88,0,3.76,0,5.63,0A2.13,2.13,0,0,1,203.37,84.65Z"/><path class="cls-3" d="M208.71,86.51a11.12,11.12,0,0,1-1.52-.12c-.49-.51-1.21-.49-1.8-.8,0-.33-.31-.39-.55-.49s-.54-.08-.67-.37c.07,0,.14,0,.19,0A19.34,19.34,0,0,1,208.71,86.51Z"/><path class="cls-1" d="M215,90.58a7.1,7.1,0,0,1,.25,2.34,2.94,2.94,0,0,1-.37,1.23.35.35,0,0,1-.4.21c-.21-.06-.16-.25-.14-.41a.67.67,0,0,1,0-.19,3.58,3.58,0,0,0-.22-3.23c.24.15.44,0,.64-.08l.19.13Z"/><path class="cls-3" d="M210.82,87.77A3.19,3.19,0,0,1,209,86.64,4.19,4.19,0,0,1,210.82,87.77Z"/><path class="cls-4" d="M215.15,120.52l.3.31c-.11.27-.35.37-.61.49A.89.89,0,0,1,215.15,120.52Z"/><path class="cls-3" d="M190,82.28c-.16.3-.5.53-.43.94C189.1,82.51,189.1,82.51,190,82.28Z"/><path class="cls-3" d="M203.75,87.47a.19.19,0,0,1-.07.14c-.46-.07-.85.31-1.31.22A1.43,1.43,0,0,1,203.75,87.47Z"/><path class="cls-3" d="M213.79,90.18a.9.9,0,0,1-.82-.69A1.73,1.73,0,0,1,213.79,90.18Z"/><path class="cls-3" d="M193.12,81.1a3.09,3.09,0,0,1-1.25,0A1,1,0,0,1,193.12,81.1Z"/><path class="cls-3" d="M195.81,85.93a.34.34,0,0,1,.58.07A.55.55,0,0,1,195.81,85.93Z"/><path class="cls-4" d="M213,105l-.37,0a.12.12,0,0,1,0-.21A.25.25,0,0,1,213,105Z"/><path class="cls-3" d="M194.6,85.74a.35.35,0,0,1,.61.09A.73.73,0,0,1,194.6,85.74Z"/><path class="cls-4" d="M212.25,109.4c.17.13.17.25,0,.37A.28.28,0,0,1,212.25,109.4Z"/><path class="cls-3" d="M211.62,88.37a.37.37,0,0,1-.44-.36A.53.53,0,0,1,211.62,88.37Z"/><path class="cls-3" d="M199.91,87.63a.37.37,0,0,1,.5.23A.48.48,0,0,1,199.91,87.63Z"/><path class="cls-3" d="M191,81.51a.38.38,0,0,1-.46.25A.39.39,0,0,1,191,81.51Z"/><path class="cls-4" d="M218.36,124.4a.39.39,0,0,1,.45.24C218.61,124.66,218.43,124.63,218.36,124.4Z"/><path class="cls-4" d="M190.06,84a.36.36,0,0,1,.31.44A.49.49,0,0,1,190.06,84Z"/><path class="cls-4" d="M212.51,105.67a.38.38,0,0,1-.07.5A.4.4,0,0,1,212.51,105.67Z"/><path class="cls-4" d="M214.21,94.36a.08.08,0,0,1-.05.1A.08.08,0,0,0,214.21,94.36Z"/><polygon class="cls-4" points="215.61 120.63 215.64 120.57 215.7 120.57 215.67 120.63 215.61 120.63"/><path class="cls-4" d="M215.23,131.21l.17-.23Z"/><path class="cls-3" d="M215,90.58l-.19-.13C215,90.37,215,90.51,215,90.58Z"/><path class="cls-4" d="M215.39,131c0-.14.05-.24.22-.23A.23.23,0,0,1,215.39,131Z"/><path class="cls-2" d="M114,122.4c.11.39.36.35.7.29a31,31,0,0,1,5.86-.34,52.52,52.52,0,0,1,11.61,1.9l3,.8,4.25,6.18,9.2,13.44a1.5,1.5,0,0,1,.4.78c-.25.2-.47,0-.67,0-1.59-.59-3.21-1.13-4.77-1.8-3.53-1.5-7.15-2.74-10.75-4a48.92,48.92,0,0,1-7-3,40,40,0,0,1-11.06-8.29,6.22,6.22,0,0,1-1.63-4.74C113.18,123,113.34,122.49,114,122.4Z"/><path class="cls-2" d="M143,127.29c2.56.69,5.08,1.52,7.6,2.37.81,1.61,1.6,3.22,2.42,4.82,2.41,4.72,4.84,9.43,7.25,14.14a2.15,2.15,0,0,1,.32.81c-.22.27-.44.11-.65,0-1.38-.49-2.75-1-4.14-1.48a1.8,1.8,0,0,1-.94-.84q-4.25-7-8.52-14l-3-4.87C143.18,128,142.89,127.7,143,127.29Z"/><path class="cls-2" d="M122.28,120.94c-1.5,0-3,.13-4.48.27a8.66,8.66,0,0,0-2.69.68c-.3.12-.55.39-.92.32.23-.69.86-.86,1.43-1.07a11,11,0,0,1,4.3-.46C120.71,120.71,121.5,120.85,122.28,120.94Z"/><path class="cls-2" d="M114.2,122.2c0,.17,0,.23-.21.21C114,122.22,114,122.17,114.2,122.2Z"/><path class="cls-1" d="M196,142.78c.15-.23.28-.25.39,0Z"/><path class="cls-1" d="M205.39,85.59c.59.31,1.31.29,1.8.8a4.73,4.73,0,0,0-3-.39,2.21,2.21,0,0,1-1.43-.22.11.11,0,0,0,0-.17A21.53,21.53,0,0,1,205.39,85.59Z"/><path class="cls-4" d="M202.85,85.61a.11.11,0,0,1,0,.17c-.07,0-.13,0-.11-.11S202.79,85.63,202.85,85.61Z"/><path class="cls-1" d="M195.15,83.63c-.62-.75-1.12-.75-2.3-.67a1,1,0,0,0-.84.62c-.14.37.37.42.42.71-.05.06-.1.16-.14.16-1-.1-.89,0-1,1.3-.31-.38-.87-.16-1-.78.49,0,.55-.55.73-.94a2.53,2.53,0,0,1,3.1-1.54c.29-.31.07-.67.15-1,.66.22.85.46.72,1.27C194.93,83.1,195.15,83.29,195.15,83.63Z"/><path class="cls-1" d="M195.12,84.25c.37-.06,1.57.36,2,.06-.47-.13-1.18,0-1.66-.18-.29-.08-.23-.24-.13-.43a3,3,0,0,0-2.23,1.07,1.87,1.87,0,0,0-.35,1.49c.14-.18.24-.83.52-.67A2.37,2.37,0,0,1,195.12,84.25Z"/></svg>