<svg id="frames" xmlns="http://www.w3.org/2000/svg" viewBox="0 0 384 216"><defs><style>.cls-1{fill:#0f1b33;}.cls-2{fill:#fc0101;}.cls-3{fill:#f7f8f8;}.cls-4{fill:#d6d7d0;}</style></defs><path class="cls-1" d="M165.49,124.17c0-.3-.06-.6-.06-.9q0-19-.07-38.09c0-1.67,0-3.33.14-5a1,1,0,0,1,1-1.15,6.76,6.76,0,0,1,.9,0q17.66.09,35.3.21a46.18,46.18,0,0,1,5.38.29,27.07,27.07,0,0,1,8.58,2.87A25.61,25.61,0,0,1,224,87.76c.55.58,1.07,1.19,1.6,1.78.31-.13.18-.4.19-.6.08-2.27.16-4.53.22-6.8,0-.43-.06-.86-.07-1.29,0-1.19.41-1.64,1.61-1.64,8.86,0,17.73,0,26.59.05,3.69,0,7.39,0,11.09.15a27.29,27.29,0,0,1,12.31,3.31,26.86,26.86,0,0,1,14,23.75A27.24,27.24,0,0,1,273.08,132a26.08,26.08,0,0,1-8.62,1.48H249a.43.43,0,0,0-.49.49v.3c-.05,2.77-.16,5.53-.12,8.29.07,6,0,12,0,18,0,.2,0,.4,0,.6a1.22,1.22,0,0,1-1.24,1.29,14.09,14.09,0,0,1-3.18-.06l2.34-1a1.23,1.23,0,0,0,.69-.67c.12-.33,0-.5-.34-.48s-.64.22-1,.05c-.06-.51-.46-.69-.87-.82a22.74,22.74,0,0,0-2.27-.68,15.74,15.74,0,0,0-3.16-.73l-.4-.11a1.55,1.55,0,0,0-.8-.34c-.31-.12-.61-.25-.93-.36-3.15-1.07-6.33-2.06-9.47-3.16q-10.47-3.67-21-7.26c-2.39-.82-4.79-1.6-7.09-2.63-1.09-.49-2.26-.79-3.33-1.34a9.6,9.6,0,0,1,1.06.25c3.39,1.1,6.78,2.18,10.16,3.34,4.09,1.4,8.13,3,12.25,4.31,1.77.58,3.52,1.21,5.29,1.8.73.24.79.18.8-.6,0-.2,0-.4,0-.6,0-2.14-.13-4.27-.06-6.4.29,0,.31-.2.32-.4,0-.46.07-.93.1-1.39,1.05,1.89,2.1,3.77,3.14,5.67a2.66,2.66,0,0,1,.2.76c.24,1.38.51,2.75.71,4.13a1,1,0,0,0,.82,1c1.75.53,3.48,1.12,5.22,1.68.27.09.54.27.89.08a5.3,5.3,0,0,0-.9-1.61,40.71,40.71,0,0,0-5.49-6.45,5.89,5.89,0,0,1-1-1.33c-1.3-2.21-2.57-4.43-3.88-6.63-1.15-1.94-2.23-3.93-3.48-5.82a1.11,1.11,0,0,0-.46-.75,8.76,8.76,0,0,0-1.11-1.89,1.26,1.26,0,0,0-.48-.79,2.87,2.87,0,0,0-.57-1c0-.18,0-.34-.27-.34s-.26.16-.29.34c-.47.33-.23.67,0,1,1,1.78,2.11,3.52,3.05,5.35-.26.53-.06,1.11-.19,1.65a3,3,0,0,1-.55-.82c-1-1.72-2-3.45-3-5.16-.35-.59-.46-.6-1-.19a5.9,5.9,0,0,1-1.25,1l.3-.53.18-.27v0a10.86,10.86,0,0,0,2.53-2.75,2.15,2.15,0,0,0,0-2.71,26.75,26.75,0,0,1-1.34,3c-.19.19-.37.38-.57.56a11.8,11.8,0,0,1-1.62,1.45,10.51,10.51,0,0,1-7.36,1.49c-2-.31-2-.26-3.66.92l-.06.07c-1.2.62-2.36,1.32-3.61,1.82a13.23,13.23,0,0,0-2.61.91q-2.07.82-4.11,1.74a2.4,2.4,0,0,0-1.44,1.12c-.22.52-.48,1-.73,1.52l-3.65-1.13-.05-.39a7.69,7.69,0,0,0,4.93-1.84c1.29-.94,2.46-2,3.8-2.91s2.86-1.94,4.22-3c2.2-1.72,4.28-3.59,6.53-5.24a35.82,35.82,0,0,0,5.23-4.61c.09-.1.19-.18.35-.06a2.15,2.15,0,0,1-.15,1,5.17,5.17,0,0,0-.44,1.19c-.09,0-.15.07-.11.17s.07,0,.09,0,.09-.13,0-.2c.42.22.46-.23.62-.39a12.16,12.16,0,0,0,2.57-4.58,1.63,1.63,0,0,1,1.58-1.17,33,33,0,0,1-1.18,3.66,8.89,8.89,0,0,0,2.82-2.81,1,1,0,0,0,.13-.93,16.71,16.71,0,0,0-1.09-2.88,3.8,3.8,0,0,0-3.94-2.26,1.26,1.26,0,0,0-1.27.82c-.49,1.09-1.21,2.06-1.69,3.17a1,1,0,0,1-.31.38c-.56.47-1.14.92-1.72,1.36-.15.11-.35.25-.45-.07.11-.5.57-.91.45-1.68-.43.74-1,1.23-.79,2,.22.2,0,.29-.09.43a.46.46,0,0,0-.42.34h0c-.58.2-.71.76-1,1.19l-.16.17c-.34,0-.69,0-.85.43a1.45,1.45,0,0,0-.58.62.48.48,0,0,0-.35.4,4,4,0,0,0-.86,1,.5.5,0,0,0-.37.42,1.19,1.19,0,0,0-.45.54,2.66,2.66,0,0,0-.81.72c-.71.75-1.39,1.52-2.09,2.29-1.47,1.62-3,3.17-4.43,4.86a8.72,8.72,0,0,0-1.23,1.2c-.25.15-.63.15-.64.57a14,14,0,0,1-5,2.8,33.86,33.86,0,0,1-3.56.93,1.5,1.5,0,0,0-1,.38c-.45-.07-.93-.23-1.21.32-.73-.23-1.46-.44-2.18-.69-5.31-1.88-10.63-3.73-16.1-5.1,0-.19,0-.39,0-.58,0-.59,0-.63-.58-.46-.4.12-.79.3-1.18.45a27,27,0,0,0-2.93-.81c-.21-.49.36-.33.46-.56l.29-.07a.42.42,0,0,0,.51-.13l2.67-.68a.36.36,0,0,0,.41,0l2.82-.38a.25.25,0,0,0,.37,0,35.91,35.91,0,0,0,6.34-1.16,11.09,11.09,0,0,0,3.37-1.42c.37-.25.4-.47.14-.79.5-.25,1-.53,1.52-.75,1.59-.68,3.19-1.33,4.79-2a11.58,11.58,0,0,0,4.28.77,23.11,23.11,0,0,1,4.84.57,8.86,8.86,0,0,1,.15,2.57,2.68,2.68,0,0,1-1.73,2.25c-.19.08-.47,0-.61.3l4.53,1.26a.59.59,0,0,0,.64-.15,3.05,3.05,0,0,0,.89-1.18l-2.77-1c-.34-.12-.57-.3-.44-.73a7,7,0,0,0-.18-3.64,3.8,3.8,0,0,0-1.15-2.23h0a.32.32,0,0,0-.21-.41v0a.36.36,0,0,0-.21-.41.62.62,0,0,0-.43-.57l-.57-.64c-.17-.49-.61-.34-.93-.33a30.92,30.92,0,0,0-5.77.37A13.65,13.65,0,0,0,181,121a.49.49,0,0,0-.39.1,1.93,1.93,0,0,0-1,.33.93.93,0,0,0-.59.08,8.76,8.76,0,0,0-2.84.36,6.23,6.23,0,0,1-1.86.29.68.68,0,0,0-.8-.44l-1,.19A54,54,0,0,0,165.49,124.17ZM194.74,81.7a1.3,1.3,0,0,0-1.6.27,2.59,2.59,0,0,0-1.52,1c-.22,0-.46-.09-.54.23a4.23,4.23,0,0,0,1.31,2.19c.1.35.63.26.69.72a1.66,1.66,0,0,0,1,1.26c.21.1.31.23.16.45a5.68,5.68,0,0,0-1.32-.17c.89,1.22,1.29,2.43,2.73,2.8A2.38,2.38,0,0,0,197,91c-.52-.89-1-1.7-1.46-2.48-.21-.36-.34-.82-.91-.78-.2,0-.25-.15-.25-.35s-.06-.45-.07-.68c0-.67.11-.75.76-.56a2.78,2.78,0,0,0,.58,0,.48.48,0,0,0,.4.09,1,1,0,0,0,.8.12.81.81,0,0,0,.59.1.7.7,0,0,0,.61.08,9.46,9.46,0,0,1,1.73.41.54.54,0,0,0,.47.28,8.64,8.64,0,0,0,1.92,1.24,1.65,1.65,0,0,0,1.44.06,1.61,1.61,0,0,0,1-.27l.4-.14.43,0a9,9,0,0,0,1.15,3.47c-1.26,1-3,1.49-3.34,3.4a9.74,9.74,0,0,1,3.28-2.52,1,1,0,0,1,1.34.16,29.73,29.73,0,0,0,4.83,3.35c1.12.67,2.05.41,2.88-.72a3.07,3.07,0,0,0-.54-5,.52.52,0,0,0-.42-.36,8.46,8.46,0,0,0-1.77-1.44.45.45,0,0,0-.43-.31.15.15,0,0,0-.16-.1,1.72,1.72,0,0,0-.27-.27,28.51,28.51,0,0,0-5.6-2.53,1.21,1.21,0,0,0-.38,0,2.14,2.14,0,0,0-1.2-.11,14.48,14.48,0,0,0-4.36,0,3.24,3.24,0,0,0-1,0,1.84,1.84,0,0,0-1-.09,1.1,1.1,0,0,0-.59-.1c-.34-.35-1.23-.12-1.06-1,0,0-.07-.12-.13-.15-.54-.21-.44-.65-.4-1.08a1.26,1.26,0,0,0-.81-1Zm9.57,17.63a10.47,10.47,0,0,0-2.35-.76l5.67,9.64c.28,0,.31-.15.32-.25a8.16,8.16,0,0,0-.24-3.74,3.67,3.67,0,0,0-1.81-1.5c-.08-.78-.15-1.56-.27-2.33S205.24,99.37,204.31,99.33Zm-.55,5.12c.13.19.27.38.38.58q2.69,4.62,5.35,9.24c.16.27.24.61.66.8a1.94,1.94,0,0,0-.14-1.73c-1-1.76-2-3.53-3-5.28-3-5.16-6.07-10.31-9.07-15.48-.38-.65-.76-1.14-1.56-1.13a6.84,6.84,0,0,0-1.79-.79c.7,1.22,1.3,2.24,1.88,3.28.84,1.5,1.79,2.94,2.53,4.5l-10.08.2c-.89,0-.9,0-.9.85q0,7.29,0,14.59c0,.92,0,.92.92.91,3.8,0,7.6-.09,11.39-.11a7.1,7.1,0,0,0,5.6-2.6c.72-.84.7-.83.16-1.81-.84-1.51-1.81-3-2.55-4.52C203.71,105.48,203.52,104.92,203.76,104.45Zm10,8c1.26.26,2.52.56,3.79.78s2.49.35,3.94.54c-1.05.45-2,.29-2.88.69.46.81,1.48.42,2,1.07-.46.12-.91-.28-1.38,0,0,.16.09.32.15.47a13.3,13.3,0,0,1,.81,7.73c-.25,1.22-.23,1.22.8,1.81l.43.25c-.05,0-.09.11-.15.12-.46.12-1.14-.37-1.35.1s.19,1,.32,1.49a.41.41,0,0,0,.2.31,3.76,3.76,0,0,0,1.39-1.78,3,3,0,0,0,.79-1.44,31.61,31.61,0,0,0,1.75-3.61,5.88,5.88,0,0,0,.92-1.88,2.62,2.62,0,0,0,.63-1.33.7.7,0,0,0,.18-.46.65.65,0,0,0,.23-.54.76.76,0,0,0,.17-.46.51.51,0,0,0,.17-.54l.13-.39a10.08,10.08,0,0,0,.85-3.15c.18-1,0-2.06.09-3.09a6.72,6.72,0,0,0-.31-2.67c-.86-2.63-1.92-5.18-3-7.72a8.9,8.9,0,0,0-2.8-3.56A15.06,15.06,0,0,0,219.47,93a1.2,1.2,0,0,0-.92-.65,1.25,1.25,0,0,0,.39,1c-.08.36.33.62.21,1.08a1.65,1.65,0,0,1-.56-.74,15.88,15.88,0,0,0-1.23-2.15c-.12-.23-.35-.46-.65-.26s-.05.42,0,.62a4.39,4.39,0,0,1-.27,3.11c-.35.77-.36.77.33,1.17a1,1,0,0,1,.65.92c0,1.12-.35,2.19-.44,3.31a1.25,1.25,0,0,0,.21,1c.34.41.69.82,1.05,1.21.62.67,1.23,1.36,1.92,2-1.66-.11-3-1.11-4.78-1.33l1.07,2.93a4.69,4.69,0,0,1-2.13-.86c-.14,1-.26,2-.47,2.92a1.81,1.81,0,0,0,0,.89,4.49,4.49,0,0,1-.14,2.44C213.55,111.91,213.4,112.21,213.79,112.42ZM255,115.1v.15h5.1a5.62,5.62,0,0,0,1.58-.16,8.75,8.75,0,0,0,5.78-4.84,7,7,0,0,0,.48-5.8,10.26,10.26,0,0,0-4.22-4.91,6,6,0,0,0-3.13-.89c-3.76,0-7.52,0-11.29,0-.68,0-.7,0-.7.75,0,1.29,0,2.59,0,3.89,0,3.66-.07,7.32-.09,11,0,.83,0,.84.81.84C251.18,115.11,253.08,115.1,255,115.1Zm-29.21,7.72c-.94.88-1.88,1.75-2.8,2.63a37.39,37.39,0,0,0-2.41,3.18c-.55.65-.52.67,0,1.41.11.17.21.35.31.52,1.25,2.16,2.49,4.33,3.77,6.47.26.44.46,1.3.91,1.17s.27-1,.28-1.51c0-4.43,0-8.86,0-13.29C225.8,123.19,225.89,122.94,225.76,122.82ZM192.27,120a6.14,6.14,0,0,0,1.18,1.35,6.54,6.54,0,0,0,4.29,2.09c1.39.1,2.78.18,4.18.25a2.33,2.33,0,0,0,2.2-1,20.85,20.85,0,0,1,1.7-1.75A43,43,0,0,0,192.27,120ZM211.56,98.4c-.45.36-.52.91-.88,1.24a.27.27,0,0,1-.27.08.2.2,0,0,1-.13-.23c0-.5.05-1,.08-1.5a1,1,0,0,0-.63-1,6.55,6.55,0,0,1-2.51-1.91.54.54,0,0,0-.78-.13c-.36.19-.6.38-.52.84a10,10,0,0,1,.05,1.1c0,.72.13.85.87.91.47,0,.95,0,1.41,0,0,.15,0,.18,0,.21-.05.3-.11.59-.16.88-.13.76-.11.89.64,1.09a1.42,1.42,0,0,1,1.1,1.24,7.54,7.54,0,0,0,.67,2.07C211.56,101.74,212.15,100.24,211.56,98.4Zm-17.77,35.24a33.69,33.69,0,0,0-5.39-.27c-.34,0-.46.16-.46.49,0,.83,0,1.66,0,2.49,0,.38.12.56.53.45A11.14,11.14,0,0,0,193.79,133.64ZM216.73,91l-.13.07s.05.07.07.06l.13-.06Z"/><path class="cls-1" d="M150.73,90.4q5.34,17.23,10.61,34.48c.12.38.19.77.29,1.16l-.59.36c-.55.34-.13.41.14.53a4.59,4.59,0,0,1-1,.67c-1,.63-2.07,1.1-3,1.8-.43,0-.41.41-.59.63a14.24,14.24,0,0,0-2.8-1c-1-.24-2-.62-2.94-.94-2.71-.9-5.41-1.85-8.16-2.61-1.73-.47-3.46-1-5.19-1.44a8.56,8.56,0,0,0-.5-1.93q-2-7-4.1-14.08c-.07-.27,0-.67-.44-.81a3.18,3.18,0,0,0-.17.4c-1.42,4.54-2.8,9.09-4.45,13.56-.11.29-.17.58.13.82-1.33-.16-2.65-.32-4-.46a23,23,0,0,0-5-.14,5.48,5.48,0,0,0-3.48,1.54,2,2,0,0,0-.73,1.58,6.89,6.89,0,0,0,1.82,4.59,41,41,0,0,0,10.94,8.11,51.21,51.21,0,0,0,7.06,3c3.12,1.15,6.3,2.17,9.35,3.49,1.68.73,3.41,1.34,5.13,2a5.65,5.65,0,0,0,1.62.48,1.21,1.21,0,0,0-.32-.77l-9.32-13.6c-1.41-2.06-2.84-4.1-4.26-6.15.48.09,1,.16,1.45.29a52.58,52.58,0,0,1,6.28,1.73,1.59,1.59,0,0,0,.38,1q5.82,9.56,11.63,19.11a1.85,1.85,0,0,0,1,.85c1.35.46,2.69,1,4,1.45.2.07.41.24.65.07a1.55,1.55,0,0,0-.3-.83q-3.6-7-7.2-14c-.89-1.75-1.87-3.46-2.64-5.26a9.94,9.94,0,0,1,1.91.56c3.51,1.14,7,2.27,10.54,3.44,5.24,1.74,10.57,3.19,15.87,4.77,2.71.81,5.32,1.91,8,2.73,3.53,1.07,7,2.26,10.54,3.41,5.79,1.9,11.56,3.83,17.3,5.89,5.32,1.92,10.51,4.19,15.92,5.89,2.51.79,5,1.52,7.58,2.16a.49.49,0,0,0,.54.13l.4.12a.31.31,0,0,0,.4.09l.39.13a1.92,1.92,0,0,0,1.21.27l1.24.28c.52.31,1.14,0,1.65.29-.28.36-.7.34-1.08.41-1.67.32-3.36.5-5,.71-2.71.35-5.42.72-8.14.86a97.44,97.44,0,0,1-15.65-.61c-4.26-.48-8.5-1.12-12.74-1.75q-9.39-1.37-18.61-3.63c-2.52-.62-5-1.29-7.59-1.72a2.22,2.22,0,0,0-1.31,0,1.87,1.87,0,0,0,1,.49c1.5.44,3,.87,4.52,1.29l6.65,1.78c0,1-.06,1.93-.1,2.9s-.35,1.28-1.34,1.31h-36.5c-.83,0-1-.11-1.24-.87-.72-2.18-1.42-4.37-2.14-6.55-.32-1-.63-2-1-2.94-.27-.79-.31-.82-1.13-.83h-23.6c-1.14,0-1-.06-1.3.93-.34,1.15-.72,2.29-1,3.44a1.46,1.46,0,0,1-.77,1c-3.48,1.83-7,3.68-10.43,5.52a3.58,3.58,0,0,1-1.64.34l-8.1.09c-1.13,0-2.26.07-3.39.08-.21,0-.45.1-.69-.13a2.75,2.75,0,0,1,.88-.6c3.27-1.94,6.58-3.8,9.8-5.81,1.5-.94,3-1.92,4.4-3a15.31,15.31,0,0,0,2.12-1.82,3.57,3.57,0,0,0,.73-1.07c.4-1-.1-1.67-1.15-1.59a5.41,5.41,0,0,0-1.72.5,41,41,0,0,0-7.46,4.24c-2.4,1.64-4.63,3.49-6.87,5.33-.25.21-.44.51-.8.57-.2-.27,0-.51.07-.74.35-1.15.74-2.28,1.07-3.43a3,3,0,0,1,1-1.55,63.91,63.91,0,0,0,11.82-13.75,16.48,16.48,0,0,0,.83-1.48,3.06,3.06,0,0,0,.34-1.15,1.18,1.18,0,0,0-1.66-1.31,4.85,4.85,0,0,0-1.67,1.08,30.62,30.62,0,0,0-4.36,4.81c-.94,1.29-1.84,2.62-2.76,3.92a2.81,2.81,0,0,1-.69.85c-.12-.33.08-.6.16-.87,1.9-6,3.82-12,5.71-18,1.68-5.3,3.31-10.61,5-15.91,1-3,2-5.93,3-8.9s1.88-6,2.83-9.06c1.41-4.48,2.84-9,4.26-13.43.32-1,.45-1.1,1.59-1.1h14.5c3.7,0,7.4,0,11.1,0,1.37,0,1.72.25,2.22,1.53Zm-42.47,55.48a.29.29,0,0,0-.22-.34,1.33,1.33,0,0,0-1,0,6.94,6.94,0,0,0-1.42.7,43.6,43.6,0,0,0-5.85,4.63c-.17.16-.31.35-.46.52a.4.4,0,0,0-.11.46.42.42,0,0,0,.54.11,4,4,0,0,0,.85-.5,69.92,69.92,0,0,1,6.26-4.42,11.54,11.54,0,0,0,1.17-.92A1.52,1.52,0,0,0,108.26,145.88Zm66.79,8.3c-.09,0-.19.06-.17.14s.15.1.24.13.24,0,.23-.11S175.19,154.19,175.05,154.18Z"/><path class="cls-2" d="M187.73,158l-6.65-1.78c-1.51-.42-3-.85-4.52-1.29a1.87,1.87,0,0,1-1-.49,2.22,2.22,0,0,1,1.31,0c2.56.43,5.07,1.1,7.59,1.72q9.23,2.25,18.61,3.63c4.24.63,8.48,1.27,12.74,1.75a97.44,97.44,0,0,0,15.65.61c2.72-.14,5.43-.51,8.14-.86,1.68-.21,3.37-.39,5-.71.38-.07.8-.05,1.08-.41h0c.33.17.64,0,1-.05s.46.15.34.48a1.23,1.23,0,0,1-.69.67l-2.34,1c-1.39.22-2.7.74-4.07,1a58.61,58.61,0,0,1-13.61,1.09,95.78,95.78,0,0,1-13.42-1.34c-3.45-.52-6.92-1-10.34-1.74-3-.65-5.89-1.44-8.84-2.13C191.71,158.8,189.71,158.41,187.73,158Z"/><path class="cls-2" d="M161.18,126.93c-.27-.12-.69-.19-.14-.53l.59-.36,3.86-1.87a54,54,0,0,1,7-2.24l1-.19a.68.68,0,0,1,.8.44,3.72,3.72,0,0,1-.94.25,10.63,10.63,0,0,0-2.33.65,4.84,4.84,0,0,0-1.44.41c-.11,0-.19,0-.22.1h0a.29.29,0,0,0-.35.12l-.25.11a.35.35,0,0,0-.41.15.51.51,0,0,0-.41.15.6.6,0,0,0-.53.2.59.59,0,0,0-.44.13.26.26,0,0,0-.31.12,1,1,0,0,0-.69.25.35.35,0,0,0-.42.16,1.88,1.88,0,0,0-.66.2C163.62,125.64,162.46,126.41,161.18,126.93Z"/><path class="cls-1" d="M81.63,89.66l-4.33-2.6c-.19-.12-.42-.28-.24-.55s.41-.19.61-.05c.41.28.81.58,1.2.88l2.84,2.16Z"/><path class="cls-1" d="M80.24,90.58,77.8,89.3c-.15-.08-.28-.23-.13-.4s.24-.05.35,0l2.28,1.58Z"/><path class="cls-3" d="M221.4,125.8l-.43-.25c-1-.59-1.05-.59-.8-1.81a13.3,13.3,0,0,0-.81-7.73c-.06-.15-.1-.31-.15-.47.47-.32.92.08,1.38,0-.47-.65-1.49-.26-2-1.07.86-.4,1.83-.24,2.88-.69-1.45-.19-2.7-.33-3.94-.54s-2.53-.52-3.79-.78c0-.28.07-.57-.13-.81a4.49,4.49,0,0,0,.14-2.44,1.81,1.81,0,0,1,0-.89c.21-.93.33-1.87.47-2.92a4.69,4.69,0,0,0,2.13.86l-1.07-2.93c1.73.22,3.12,1.22,4.78,1.33-.69-.66-1.3-1.35-1.92-2-.36-.39-.71-.8-1.05-1.21a1.25,1.25,0,0,1-.21-1c.09-1.12.45-2.19.44-3.31a1,1,0,0,0-.65-.92c-.69-.4-.68-.4-.33-1.17a4.39,4.39,0,0,0,.27-3.11c-.05-.2-.26-.45,0-.62s.53,0,.65.26a15.88,15.88,0,0,1,1.23,2.15,1.65,1.65,0,0,0,.56.74c.12-.46-.29-.72-.21-1.08a.82.82,0,0,1,.53-.32,15.06,15.06,0,0,1,2.13,2.24,4.36,4.36,0,0,0,.54,1.26c.41.74.84,1.47,1.19,2.26.47,1,.7,2.3,1.79,3a.72.72,0,0,1,.27.62,5.5,5.5,0,0,0,1,3,8,8,0,0,1,.82,3.42A1.54,1.54,0,0,1,227,110a.53.53,0,0,0,0,.65.65.65,0,0,1,.16.46,38.15,38.15,0,0,1-.4,3.84c0,.17-.09.32.05.46l-.13.39a.38.38,0,0,0-.17.54.76.76,0,0,1-.17.46.37.37,0,0,0-.23.54.7.7,0,0,1-.18.46,1.49,1.49,0,0,0-.63,1.33,5.88,5.88,0,0,1-.92,1.88,8.45,8.45,0,0,0-1.75,3.61,3,3,0,0,1-.79,1.44A.37.37,0,0,0,221.4,125.8Z"/><path class="cls-3" d="M184.82,138.3a1.5,1.5,0,0,1,1-.38,33.86,33.86,0,0,0,3.56-.93,14,14,0,0,0,5-2.8.58.58,0,0,0,.64-.57,8.72,8.72,0,0,1,1.23-1.2c.13,0,.3,0,.38-.07a20.14,20.14,0,0,0,2.55-2.33c.48-.6.88-1.24,1.37-1.82.36-.42.67-.93,1.29-1,.14,0,.29-.1.27-.24-.11-.84.56-1.16,1.08-1.49a.78.78,0,0,0,.39-.9A1.19,1.19,0,0,1,204,124a.37.37,0,0,0,.37-.42,4,4,0,0,1,.86-1,.36.36,0,0,0,.35-.4,1.45,1.45,0,0,1,.58-.62c.36,0,.72,0,.85-.43l.16-.17a1.11,1.11,0,0,0,1-1.19h0a.34.34,0,0,0,.42-.34c0-.14.31-.23.1-.43h0c.14,0,.27.13.4,0s-.07-.2-.07-.3h0c.1.32.3.18.45.07.58-.44,1.16-.89,1.72-1.36a1,1,0,0,0,.31-.38c.48-1.11,1.2-2.08,1.69-3.17a1.26,1.26,0,0,1,1.27-.82,3.8,3.8,0,0,1,3.94,2.26,16.71,16.71,0,0,1,1.09,2.88,1,1,0,0,1-.13.93,8.89,8.89,0,0,1-2.82,2.81,33,33,0,0,0,1.18-3.66,1.63,1.63,0,0,0-1.58,1.17A12.16,12.16,0,0,1,213.6,124c-.16.16-.2.61-.62.39h0a5.17,5.17,0,0,1,.44-1.19,2.15,2.15,0,0,0,.15-1c-.16-.12-.26,0-.35.06a35.82,35.82,0,0,1-5.23,4.61c-2.25,1.65-4.33,3.52-6.53,5.24-1.36,1.06-2.76,2.07-4.22,3s-2.51,2-3.8,2.91a7.69,7.69,0,0,1-4.93,1.84,2.92,2.92,0,0,0-1.47-.48,8.78,8.78,0,0,1-1.72-.41A.61.61,0,0,1,184.82,138.3Z"/><path class="cls-3" d="M193.41,141.89a11.7,11.7,0,0,0,2.64.88l.37,0,0,0c1.07.55,2.24.85,3.33,1.34,2.3,1,4.7,1.81,7.09,2.63q10.49,3.6,21,7.26c3.14,1.1,6.32,2.09,9.47,3.16.32.11.62.24.93.36.19.31.42.51.8.34l.4.11c.11.19.3.21.5.26,1.26.34,2.53.68,3.8,1,.3.09.68.1.9.45l-.52.18-1.24-.28a1.19,1.19,0,0,0-1.21-.27l-.39-.13c-.1-.2-.22-.29-.4-.09l-.4-.12a.37.37,0,0,0-.54-.13c-2.55-.64-5.07-1.37-7.58-2.16-5.41-1.7-10.6-4-15.92-5.89-5.74-2.06-11.51-4-17.3-5.89-3.51-1.15-7-2.34-10.54-3.41-2.71-.82-5.32-1.92-8-2.73-5.3-1.58-10.63-3-15.87-4.77-3.51-1.17-7-2.3-10.54-3.44a9.94,9.94,0,0,0-1.91-.56c-2.5-.93-5.06-1.64-7.61-2.35A52.58,52.58,0,0,0,138.3,126c-.48-.13-1-.2-1.45-.29-6.44-1.9-13-3.18-19.79-2.63a1,1,0,0,1,.81-.74,4.3,4.3,0,0,1,1.17-.21,63.9,63.9,0,0,1,7.19.12.32.32,0,0,0,.54,0,2.63,2.63,0,0,1,1.08.11,14.53,14.53,0,0,0,1.75.3c.82.11,1.64.09,2.45.15a11.19,11.19,0,0,1,3.26.79,4.81,4.81,0,0,0,2.21.44c1.73.48,3.46,1,5.19,1.44,2.75.76,5.45,1.71,8.16,2.61,1,.32,1.93.7,2.94.94a14.24,14.24,0,0,1,2.8,1,22.2,22.2,0,0,0,4,1.4,27,27,0,0,1,2.93.81,3.92,3.92,0,0,0,1.75.59c5.47,1.37,10.79,3.22,16.1,5.1.72.25,1.45.46,2.18.69.07.07.12.18.2.21a27.13,27.13,0,0,0,4.77,1.38l3.65,1.13Z"/><path class="cls-3" d="M169.61,123.49a4.84,4.84,0,0,1,1.44-.41,1.49,1.49,0,0,0,1.08,0,1.81,1.81,0,0,1,2.23.48c.2.24.49.25.62-.1s.56-.59.94-.81a6.85,6.85,0,0,1,2.7-.9.46.46,0,0,0,.4-.25.93.93,0,0,1,.59-.08c.47.29.75,0,1-.33a.49.49,0,0,1,.39-.1c.71.21,1.41-.12,2.13,0a5,5,0,0,0,2.06-.18,15.15,15.15,0,0,1,5.4-.61c.26,0,.53,0,.79,0l.57.64.23.6a.12.12,0,0,0,.09.14l.32.24v0c0,.19,0,.35.21.41h0c0,.38.23.66.34,1a2.42,2.42,0,0,1,.33,1.58,23.11,23.11,0,0,0-4.84-.57,11.58,11.58,0,0,1-4.28-.77c-.25-.34-.09-.6.16-.85s.47-.49.71-.76c-.29-.24-.56-.12-.8-.17-.21-.3-.34-.2-.41.09l-3.2.42c.06.43.57.4.64.91a13.58,13.58,0,0,0-4.07,1.06c-1.37.52-2.74,1-4.13,1.49a21.94,21.94,0,0,0-4,1.26,23.49,23.49,0,0,0,3.94-.16c1.62-.17,3.22-.5,4.86-.55.26.32.23.54-.14.79a11.09,11.09,0,0,1-3.37,1.42,35.91,35.91,0,0,1-6.34,1.16c-.14-.17-.26-.14-.37,0L165,130c-.15-.2-.29-.16-.41,0l-2.67.68a.42.42,0,0,0-.51.13l-.29.07a12.85,12.85,0,0,1-3.34-.87.69.69,0,0,1-.57-.6c1-.7,2-1.17,3-1.8a4.59,4.59,0,0,0,1-.67c1.28-.52,2.44-1.29,3.75-1.76a1.88,1.88,0,0,1,.66-.2c.27.29.36.11.42-.16a1,1,0,0,1,.69-.25.27.27,0,0,0,.31-.12.6.6,0,0,1,.45-.13c.23.08.42,0,.52-.2a.51.51,0,0,1,.41-.15c.27.3.36.12.41-.15l.25-.11a.28.28,0,0,0,.35-.12h0A.17.17,0,0,0,169.61,123.49Z"/><path class="cls-3" d="M197.41,86.54a.81.81,0,0,1-.59-.1.53.53,0,0,0-.8-.12.48.48,0,0,1-.4-.09c-.05-.25-.44-.15-.47-.46a2,2,0,0,1,2.18-.69c.16,0,.31.11.46,0a1.1,1.1,0,0,1,.59.1.72.72,0,0,0,1,.09,3.24,3.24,0,0,1,1,0,2.62,2.62,0,0,0,1.54.12,10.66,10.66,0,0,0,2.82-.11,2.14,2.14,0,0,1,1.2.11c.35.35.94.36,1.2.84a9,9,0,0,0-2.62.1,1.38,1.38,0,0,0,1.34.31,4.29,4.29,0,0,1,2.9.4s.12.13.13.12c.5-.38.92-.09,1.39.11.66.27,1.16.87,1.91.92a.15.15,0,0,1,.16.1.35.35,0,0,0,.43.31A8.46,8.46,0,0,1,214.59,90a.36.36,0,0,0,.42.36,3.07,3.07,0,0,1,.54,5,9.74,9.74,0,0,1-2.18-1.71,19.36,19.36,0,0,0-4.67-3.2,1.41,1.41,0,0,1-.83-.58c.47-.24,1,0,1.6-.35a4.62,4.62,0,0,1-1.91-.68,3.59,3.59,0,0,0-2-.76.39.39,0,0,0-.56.1l-.4.14a.91.91,0,0,0-1,.27,1.65,1.65,0,0,1-1.44-.06,8.64,8.64,0,0,1-1.92-1.24.36.36,0,0,0-.47-.28,9.46,9.46,0,0,0-1.73-.41A.36.36,0,0,0,197.41,86.54Z"/><path class="cls-3" d="M220.93,131.9a8.76,8.76,0,0,1,1.11,1.89c-.26,0-.45.14-.27.43a.66.66,0,0,0,.73.32c1.25,1.89,2.33,3.88,3.48,5.82,1.31,2.2,2.58,4.42,3.88,6.63a5.89,5.89,0,0,0,1,1.33,40.71,40.71,0,0,1,5.49,6.45,5.3,5.3,0,0,1,.9,1.61c-.35.19-.62,0-.89-.08-1.74-.56-3.47-1.15-5.22-1.68a1,1,0,0,1-.82-1c-.2-1.38-.47-2.75-.71-4.13a2.66,2.66,0,0,0-.2-.76c-1-1.9-2.09-3.78-3.14-5.67a18.46,18.46,0,0,0-1.34-2.2c-.84-1.47-1.66-3-2.63-4.35-.94-1.83-2-3.57-3.05-5.35-.2-.36-.44-.7,0-1h.56a2.87,2.87,0,0,1,.57,1C220.44,131.48,220.23,132,220.93,131.9Z"/><path class="cls-3" d="M192.27,120a43,43,0,0,1,13.55,1,20.85,20.85,0,0,0-1.7,1.75,2.33,2.33,0,0,1-2.2,1c-1.4-.07-2.79-.15-4.18-.25a6.54,6.54,0,0,1-4.29-2.09A6.14,6.14,0,0,1,192.27,120Z"/><path class="cls-2" d="M205.54,88.1a3.59,3.59,0,0,1,2,.76,4.62,4.62,0,0,0,1.91.68c-.6.35-1.13.11-1.6.35a1.41,1.41,0,0,0,.83.58,19.36,19.36,0,0,1,4.67,3.2,9.74,9.74,0,0,0,2.18,1.71c-.83,1.13-1.76,1.39-2.88.72a29.73,29.73,0,0,1-4.83-3.35,1,1,0,0,0-1.34-.16,9.74,9.74,0,0,0-3.28,2.52c.3-1.91,2.08-2.39,3.34-3.4a9,9,0,0,1-1.15-3.47Z"/><path class="cls-2" d="M178,126.17c-1.64,0-3.24.38-4.86.55a23.49,23.49,0,0,1-3.94.16,21.94,21.94,0,0,1,4-1.26c1.39-.46,2.76-1,4.13-1.49a13.58,13.58,0,0,1,4.07-1.06c-.07-.51-.58-.48-.64-.91l3.2-.42a.3.3,0,0,0,.41-.09c.24,0,.51-.07.8.17-.24.27-.47.52-.71.76s-.41.51-.16.85c-1.6.66-3.2,1.31-4.79,2C179,125.64,178.53,125.92,178,126.17Z"/><path class="cls-3" d="M195.64,90.47c.81,0,.85-.27,1.23.38,3,5.17,7.1,12.05,10.12,17.21,1,1.75,2,3.52,3,5.28a1.94,1.94,0,0,1,.14,1.73c-.42-.19-.5-.53-.66-.8q-2.67-4.62-5.35-9.24c-.11-.2-.25-.39-.38-.58s-.28-.6-.45-.89l-4.9-8.46C197.71,93.89,196.23,91.75,195.64,90.47Z"/><path class="cls-2" d="M216.33,133l-.87.81a4.93,4.93,0,0,1-3,1.33,21,21,0,0,1-7.72-.9l.06-.07c1.67-1.18,1.68-1.23,3.66-.92a10.51,10.51,0,0,0,7.36-1.49,11.8,11.8,0,0,0,1.62-1.45c.2-.18.38-.37.57-.56a3.78,3.78,0,0,1-.56,1.16,3.13,3.13,0,0,0-.64,1.32v0c-.12.05-.15.16-.18.27Z"/><path class="cls-3" d="M211.56,98.4c.59,1.84,0,3.34-1,4.87a7.54,7.54,0,0,1-.67-2.07,1.42,1.42,0,0,0-1.1-1.24c-.75-.2-.77-.33-.64-1.09,0-.29.11-.58.16-.88,0,0,0-.06,0-.21-.46,0-.94,0-1.41,0-.74-.06-.84-.19-.87-.91a10,10,0,0,0-.05-1.1c-.08-.46.16-.65.52-.84a.54.54,0,0,1,.78.13A6.55,6.55,0,0,0,209.73,97a1,1,0,0,1,.63,1c0,.5-.07,1-.08,1.5a.2.2,0,0,0,.13.23.27.27,0,0,0,.27-.08C211,99.31,211.11,98.76,211.56,98.4Z"/><path class="cls-2" d="M195.64,90.47c.59,1.28,2.07,3.42,2.77,4.63l4.9,8.46c.17.29.3.59.45.89-.24.47,0,1-.28,1.5-1.24-1.85-2.25-3.83-3.4-5.74a14.1,14.1,0,0,0-1.1-1.77c-.74-1.56-1.69-3-2.53-4.5-.58-1-2.84-5-3.54-6.27C193.7,87.86,195.14,90.2,195.64,90.47Z"/><path class="cls-3" d="M197.79,85.06c-.15.13-.3.07-.46,0a2,2,0,0,0-2.18.69c0,.31.42.21.47.46a2.78,2.78,0,0,1-.58,0c-.65-.19-.78-.11-.76.56,0,.23.07.45.07.68s.05.36.25.35c.57,0,.7.42.91.78.48.78.94,1.59,1.46,2.48a2.38,2.38,0,0,1-1.33-.56l-1.41-2.63c.15-.22.05-.35-.16-.45a1.66,1.66,0,0,1-1-1.26c-.06-.46-.59-.37-.69-.72l.6-1.12a2.27,2.27,0,0,1,2-1.3c.82,0,.84-.1.52-.86a4,4,0,0,0-.17-.36,1.26,1.26,0,0,1,.81,1c0,.43-.14.87.4,1.08.06,0,.14.11.13.15C196.56,84.94,197.45,84.71,197.79,85.06Z"/><path class="cls-3" d="M226.78,115.39c-.14-.14-.1-.29-.05-.46a38.15,38.15,0,0,0,.4-3.84.65.65,0,0,0-.16-.46.53.53,0,0,1,0-.65,1.54,1.54,0,0,0,.23-1.23,8,8,0,0,0-.82-3.42,5.5,5.5,0,0,1-1-3,.72.72,0,0,0-.27-.62c-1.09-.71-1.32-2-1.79-3-.35-.79-.78-1.52-1.19-2.26a4.36,4.36,0,0,1-.54-1.26,8.9,8.9,0,0,1,2.8,3.56c1.09,2.54,2.15,5.09,3,7.72a6.72,6.72,0,0,1,.31,2.67c-.08,1,.09,2.06-.09,3.09A10.08,10.08,0,0,1,226.78,115.39Z"/><path class="cls-2" d="M193.46,124.77a2.42,2.42,0,0,0-.33-1.58c-.11-.33-.39-.61-.34-1a3.8,3.8,0,0,1,1.15,2.23,7,7,0,0,1,.18,3.64c-.13.43.1.61.44.73l2.77,1a3.05,3.05,0,0,1-.89,1.18.59.59,0,0,1-.64.15l-4.53-1.26c.14-.31.42-.22.61-.3a2.68,2.68,0,0,0,1.73-2.25A8.86,8.86,0,0,0,193.46,124.77Z"/><path class="cls-2" d="M222.34,136.54c1,1.39,1.79,2.88,2.63,4.35a18.46,18.46,0,0,1,1.34,2.2c0,.46-.06.93-.1,1.39,0,.2,0,.41-.32.4-1-2-2.17-3.8-3.25-5.71a3.6,3.6,0,0,1-.49-1C222.28,137.65,222.08,137.07,222.34,136.54Z"/><path class="cls-2" d="M193.41,141.89l-1.18-.55c.25-.5.51-1,.73-1.52a2.4,2.4,0,0,1,1.44-1.12q2-.91,4.11-1.74a13.23,13.23,0,0,1,2.61-.91c-1.71,1-3.48,1.92-5.27,2.78-.18.09-.35.18-.54.26A2.65,2.65,0,0,0,193.41,141.89Z"/><path class="cls-3" d="M195.39,81.77a4,4,0,0,1,.17.36c.32.76.3.83-.52.86a2.27,2.27,0,0,0-2,1.3l-.6,1.12a4.23,4.23,0,0,1-1.31-2.19c.22,0,.43,0,.54-.23a2.59,2.59,0,0,1,1.52-1l1.6-.27Z"/><path class="cls-3" d="M203.57,124.55a.78.78,0,0,1-.39.9c-.52.33-1.19.65-1.08,1.49,0,.14-.13.22-.27.24-.62.09-.93.6-1.29,1-.49.58-.89,1.22-1.37,1.82a20.14,20.14,0,0,1-2.55,2.33c-.08.07-.25.05-.38.07,1.41-1.69,3-3.24,4.43-4.86.7-.77,1.38-1.54,2.09-2.29A2.66,2.66,0,0,1,203.57,124.55Z"/><path class="cls-3" d="M191.39,120.2c-.26,0-.53,0-.79,0a15.15,15.15,0,0,0-5.4.61,5,5,0,0,1-2.06.18c-.72-.08-1.42.25-2.13,0a13.65,13.65,0,0,1,3.68-.78,30.92,30.92,0,0,1,5.77-.37C190.78,119.86,191.22,119.71,191.39,120.2Z"/><path class="cls-3" d="M179,121.53a.46.46,0,0,1-.4.25,6.85,6.85,0,0,0-2.7.9c-.38.22-.78.34-.94.81s-.42.34-.62.1a1.81,1.81,0,0,0-2.23-.48,1.49,1.49,0,0,1-1.08,0,10.63,10.63,0,0,1,2.33-.65,3.72,3.72,0,0,0,.94-.25,6.23,6.23,0,0,0,1.86-.29A8.76,8.76,0,0,1,179,121.53Z"/><path class="cls-3" d="M216.8,132.22a3.13,3.13,0,0,1,.64-1.32,3.78,3.78,0,0,0,.56-1.16,26.75,26.75,0,0,0,1.34-3,2.15,2.15,0,0,1,0,2.71A10.86,10.86,0,0,1,216.8,132.22Z"/><path class="cls-2" d="M194.23,87.84l1.41,2.63c-1.44-.37-1.14,0-2.73-2.8A5.68,5.68,0,0,1,194.23,87.84Z"/><path class="cls-2" d="M205.9,102.72c-.5.23-.66,0-.7-.49a13.21,13.21,0,0,0-.34-1.86,2,2,0,0,0-.55-1c.93,0,1.2.23,1.32,1.06S205.82,101.94,205.9,102.72Z"/><path class="cls-4" d="M244.06,159.91l.52-.18c-.22-.35-.6-.36-.9-.45-1.27-.36-2.54-.7-3.8-1-.2-.05-.39-.07-.5-.26a15.74,15.74,0,0,1,3.16.73,22.74,22.74,0,0,1,2.27.68c.41.13.81.31.87.82h0C245.2,159.9,244.58,160.22,244.06,159.91Z"/><path class="cls-3" d="M207.18,86.22c-.26-.48-.85-.49-1.2-.84a1.21,1.21,0,0,1,.38,0,28.51,28.51,0,0,1,5.6,2.53,1.72,1.72,0,0,1,.27.27c-.75-.05-1.25-.65-1.91-.92-.47-.2-.89-.49-1.39-.11,0,0-.09-.08-.13-.12a1.5,1.5,0,0,0-.94-.59C207.63,86.39,207.33,86.53,207.18,86.22Z"/><path class="cls-1" d="M188.58,140.21a27.13,27.13,0,0,1-4.77-1.38c-.08,0-.13-.14-.2-.21.28-.55.76-.39,1.21-.32a.61.61,0,0,0,.52.63,8.78,8.78,0,0,0,1.72.41,2.92,2.92,0,0,1,1.47.48Z"/><path class="cls-1" d="M157.2,129.4a.69.69,0,0,0,.57.6,12.85,12.85,0,0,0,3.34.87c-.1.23-.67.07-.46.56a22.2,22.2,0,0,1-4-1.4C156.79,129.81,156.77,129.39,157.2,129.4Z"/><path class="cls-3" d="M221.4,125.8a.37.37,0,0,1,.41.24,3.76,3.76,0,0,1-1.39,1.78.41.41,0,0,1-.2-.31c-.13-.51-.49-1.12-.32-1.49s.89,0,1.35-.1C221.31,125.91,221.35,125.84,221.4,125.8Z"/><path class="cls-3" d="M204.78,85.27a10.66,10.66,0,0,1-2.82.11,2.62,2.62,0,0,1-1.54-.12A14.48,14.48,0,0,1,204.78,85.27Z"/><path class="cls-3" d="M222.6,124.6a8.45,8.45,0,0,1,1.75-3.61A31.61,31.61,0,0,1,222.6,124.6Z"/><path class="cls-1" d="M209.05,118.69h0c-.16.06-.33.11-.33.33h0c-.2-.79.35-1.28.78-2C209.62,117.78,209.16,118.19,209.05,118.69Z"/><path class="cls-3" d="M208.2,119.8a1.11,1.11,0,0,1-1,1.19C207.49,120.56,207.62,120,208.2,119.8Z"/><path class="cls-3" d="M194.74,81.7l-1.6.27A1.3,1.3,0,0,1,194.74,81.7Z"/><path class="cls-3" d="M225.27,119.11a1.49,1.49,0,0,1,.63-1.33A2.62,2.62,0,0,1,225.27,119.11Z"/><path class="cls-3" d="M222.5,134.54a.66.66,0,0,1-.73-.32c-.18-.29,0-.39.27-.43A1.11,1.11,0,0,1,222.5,134.54Z"/><path class="cls-3" d="M180.62,121.12c-.26.35-.54.62-1,.33A1.93,1.93,0,0,1,180.62,121.12Z"/><path class="cls-3" d="M199.39,85.25a.72.72,0,0,1-1-.09A1.84,1.84,0,0,1,199.39,85.25Z"/><path class="cls-3" d="M203.58,88.61a.91.91,0,0,1,1-.27A1.61,1.61,0,0,1,203.58,88.61Z"/><path class="cls-3" d="M207,121.16c-.13.44-.49.44-.85.43C206.34,121.21,206.69,121.19,207,121.16Z"/><path class="cls-3" d="M219.47,93a.82.82,0,0,0-.53.32,1.25,1.25,0,0,1-.39-1A1.2,1.2,0,0,1,219.47,93Z"/><path class="cls-3" d="M196,86.32a.53.53,0,0,1,.8.12A1,1,0,0,1,196,86.32Z"/><path class="cls-4" d="M239,157.87c-.38.17-.61,0-.8-.34A1.55,1.55,0,0,1,239,157.87Z"/><path class="cls-3" d="M195,133.62a.58.58,0,0,1-.64.57C194.38,133.77,194.76,133.77,195,133.62Z"/><path class="cls-4" d="M213.66,111.61c.2.24.13.53.13.81C213.4,112.21,213.55,111.91,213.66,111.61Z"/><path class="cls-3" d="M220.93,131.9c-.7.06-.49-.42-.48-.79A1.26,1.26,0,0,1,220.93,131.9Z"/><path class="cls-3" d="M197.41,86.54a.36.36,0,0,1,.61.08A.7.7,0,0,1,197.41,86.54Z"/><path class="cls-3" d="M191.62,83c-.11.23-.32.24-.54.23C191.16,82.9,191.4,83,191.62,83Z"/><path class="cls-3" d="M167.81,129.58c.11-.18.23-.21.37,0A.25.25,0,0,1,167.81,129.58Z"/><path class="cls-3" d="M219.88,130.16h-.56c0-.18.1-.33.29-.34S219.87,130,219.88,130.16Z"/><path class="cls-3" d="M208.62,119.46a.34.34,0,0,1-.42.34A.46.46,0,0,1,208.62,119.46Z"/><path class="cls-3" d="M161.4,130.8a.42.42,0,0,1,.51-.13A.42.42,0,0,1,161.4,130.8Z"/><path class="cls-3" d="M205.54,88.1l-.13.14-.43,0A.39.39,0,0,1,205.54,88.1Z"/><path class="cls-3" d="M212.82,88.59a.35.35,0,0,1-.43-.31A.45.45,0,0,1,212.82,88.59Z"/><path class="cls-3" d="M215,90.39a.36.36,0,0,1-.42-.36A.52.52,0,0,1,215,90.39Z"/><path class="cls-3" d="M199.75,87a.36.36,0,0,1,.47.28A.54.54,0,0,1,199.75,87Z"/><path class="cls-3" d="M226.08,117.32a.37.37,0,0,1,.23-.54A.65.65,0,0,1,226.08,117.32Z"/><path class="cls-3" d="M226.48,116.32a.38.38,0,0,1,.17-.54A.51.51,0,0,1,226.48,116.32Z"/><path class="cls-3" d="M164.58,130c.12-.19.26-.23.41,0A.36.36,0,0,1,164.58,130Z"/><path class="cls-3" d="M205.6,122.21a.36.36,0,0,1-.35.4A.48.48,0,0,1,205.6,122.21Z"/><path class="cls-3" d="M204.39,123.59a.37.37,0,0,1-.37.42A.5.5,0,0,1,204.39,123.59Z"/><path class="cls-2" d="M192.19,121.44l-.23-.6a.62.62,0,0,1,.43.57l0,0Z"/><path class="cls-2" d="M192.6,121.82l-.32-.24a1.09,1.09,0,0,0,.08-.15l0,0A.36.36,0,0,1,192.6,121.82Z"/><path class="cls-2" d="M192.8,122.21c-.22-.06-.25-.22-.21-.41A.32.32,0,0,1,192.8,122.21Z"/><path class="cls-3" d="M216.73,91l.07.07-.13.06s0,0-.07-.06Z"/><path class="cls-4" d="M216.63,132.46c0-.11.06-.22.18-.27Z"/><path class="cls-3" d="M213,124.39c.09.07.09.14,0,.2s-.09,0-.09,0,0-.15.11-.17Z"/><path class="cls-2" d="M127.85,122.34a2.63,2.63,0,0,0-1.08-.11.6.6,0,0,0-.54,0,63.9,63.9,0,0,0-7.19-.12,4.3,4.3,0,0,0-1.17.21,1,1,0,0,0-.81.74c6.83-.55,13.35.73,19.79,2.63,1.42,2,2.85,4.09,4.26,6.15l9.32,13.6a1.21,1.21,0,0,1,.32.77,5.65,5.65,0,0,1-1.62-.48c-1.72-.65-3.45-1.26-5.13-2-3.05-1.32-6.23-2.34-9.35-3.49a51.21,51.21,0,0,1-7.06-3,41,41,0,0,1-10.94-8.11,6.89,6.89,0,0,1-1.82-4.59,2,2,0,0,1,.73-1.58,5.48,5.48,0,0,1,3.48-1.54,23,23,0,0,1,5,.14c1.32.14,2.64.3,4,.46C128.16,122.18,128,122.24,127.85,122.34Z"/><path class="cls-2" d="M144.58,127.69c2.55.71,5.11,1.42,7.61,2.35.77,1.8,1.75,3.51,2.64,5.26q3.58,7,7.2,14a1.55,1.55,0,0,1,.3.83c-.24.17-.45,0-.65-.07-1.35-.48-2.69-1-4-1.45a1.85,1.85,0,0,1-1-.85q-5.81-9.57-11.63-19.11A1.59,1.59,0,0,1,144.58,127.69Z"/><path class="cls-4" d="M241.61,159.36a1.19,1.19,0,0,1,1.21.27A1.92,1.92,0,0,1,241.61,159.36Z"/><path class="cls-4" d="M239.88,158.89a.37.37,0,0,1,.54.13A.49.49,0,0,1,239.88,158.89Z"/><path class="cls-4" d="M240.82,159.14c.18-.2.3-.11.4.09A.31.31,0,0,1,240.82,159.14Z"/><path class="cls-2" d="M175.05,154.18c.14,0,.29,0,.3.16s-.14.13-.23.11-.21-.07-.24-.13S175,154.17,175.05,154.18Z"/><path class="cls-3" d="M168.8,123.81c-.05.27-.14.45-.41.15A.35.35,0,0,1,168.8,123.81Z"/><path class="cls-3" d="M166,124.81c-.06.27-.15.45-.42.16A.35.35,0,0,1,166,124.81Z"/><path class="cls-3" d="M168,124.11c-.1.25-.29.28-.52.2A.57.57,0,0,1,168,124.11Z"/><path class="cls-3" d="M167,124.44a.27.27,0,0,1-.31.12A.26.26,0,0,1,167,124.44Z"/><path class="cls-4" d="M169.4,123.58a.28.28,0,0,1-.35.12A.29.29,0,0,1,169.4,123.58Z"/><path class="cls-3" d="M169.61,123.49a.17.17,0,0,1-.22.1C169.42,123.46,169.5,123.44,169.61,123.49Z"/><path class="cls-1" d="M196.42,142.81l-.37,0C196.19,142.6,196.3,142.77,196.42,142.81Z"/><path class="cls-1" d="M208.69,119c0-.22.17-.27.33-.33,0,.1.2.14.07.3S208.83,119.06,208.69,119Z"/><path class="cls-4" d="M126.23,122.21a.6.6,0,0,1,.54,0A.32.32,0,0,1,126.23,122.21Z"/><path class="cls-4" d="M184.41,121.65a.3.3,0,0,1-.41.09C184.07,121.45,184.2,121.35,184.41,121.65Z"/><path class="cls-4" d="M192.36,121.43a1.09,1.09,0,0,1-.08.15.12.12,0,0,1-.09-.14Z"/><path class="cls-1" d="M207.18,86.22c.15.31.45.17.68.22a1.5,1.5,0,0,1,.94.59,4.29,4.29,0,0,0-2.9-.4,1.38,1.38,0,0,1-1.34-.31A9,9,0,0,1,207.18,86.22Z"/><path class="cls-1" d="M196.87,84.24c-.63-.75-1.13-.75-2.3-.68a1,1,0,0,0-.84.63c-.14.37.36.42.41.71,0,.06-.09.16-.13.16-1-.1-.9,0-1,1.3-.32-.38-.88-.16-1-.78.49,0,.55-.55.73-.94a2.52,2.52,0,0,1,3.1-1.54c.28-.32.07-.68.14-1,.67.22.85.46.73,1.27C196.65,83.71,196.87,83.89,196.87,84.24Z"/><path class="cls-1" d="M196.82,84.59c.37-.06,1.58.47,2,.18-.47-.14-1.18-.06-1.65-.18-.29-.08-.23-.25-.13-.44a3,3,0,0,0-2.24,1.08,1.91,1.91,0,0,0-.35,1.49c.15-.19,0-.62.31-.46A3,3,0,0,1,196.82,84.59Z"/></svg>