<svg id="frames" xmlns="http://www.w3.org/2000/svg" viewBox="0 0 384 216"><defs><style>.cls-1{fill:#111d34;}.cls-2{fill:#f90202;}.cls-3{fill:#f9f9fa;}.cls-4{fill:#d6d7d0;}</style></defs><path class="cls-1" d="M170,78.32l.11-1.57c.15.14.31.26.44.4q6.92,7.69,13.84,15.37c.69.77,1.48,1.44,2.23,2.15.14.13.29.3.5.09a.35.35,0,0,0,0-.53c-.13-.16-.26-.3-.39-.45L168.51,73.71c-1-1.16-2.09-2.33-3.17-3.47-.35-.37-.68-.87-1.34-.67h0s.06,0,.05-.06a.29.29,0,0,0-.05-.13.65.65,0,0,0-.72-.24c-.55-.26-1.09-.54-1.65-.79-.22-.1-.46-.27-.72-.07a15.92,15.92,0,0,1-1.71-1.77,2,2,0,0,1-.33-1.58,17.78,17.78,0,0,0,.33-1.77,1.35,1.35,0,0,1,.58-1.06,1.4,1.4,0,0,0,.49-.48c.38-.7.64-.81,1.29-.49a1.77,1.77,0,0,0,1.49.18.93.93,0,0,1,1.31.84,3.75,3.75,0,0,0,1.44,2.61c-.14.27-.27,0-.37,0-.73-.5-1-.51-1.63,0a3.24,3.24,0,0,0-.49.49c-.15.18-.29.36,0,.6s.22.31-.12.23-.36.12-.38.32c-.12.85-.16,1.67,1.16,1.7a2.71,2.71,0,0,1,1.84-2.58c.25-.08.21-.29,0-.46a.23.23,0,0,1,0-.35,84,84,0,0,0,7.31,4.76,9,9,0,0,1,1.69,1.23A4.55,4.55,0,0,0,177,71.78a33,33,0,0,1,3.78,1.15,2.74,2.74,0,0,0,1.55.21,2.55,2.55,0,0,1,1.46.18,5.08,5.08,0,0,0,2.11.47,2.54,2.54,0,0,0,1-.06c-.4.38-.08.46.22.55a64.4,64.4,0,0,0,7,1.75c.22,0,.45.16.73-.07a18.4,18.4,0,0,0-1.7-3.22,1.57,1.57,0,0,0-1.75-.62c-1,.23-1.94.69-3,.86a16.29,16.29,0,0,0,1.93-1.14,4.26,4.26,0,0,1,1.87-.2,3.05,3.05,0,0,1,2.19,1.83c.29.59.56,1.2.82,1.81a5.35,5.35,0,0,0,1.9,2.34,3.55,3.55,0,0,1,.88.8,6.82,6.82,0,0,1,1,1.44c.43.41.64.45.93.87a31.55,31.55,0,0,0,2,2.62A26.91,26.91,0,0,1,204,86.23c.88,1.31,1.68,2.68,2.51,4,.16.26.26.54.41.8s.07.62-.22.86c-.12.14-.3.24-.28.47v0c-.09,0-.2,0-.26.11l-4.31,4.38c-.14.14-.29.28-.23.51a2.12,2.12,0,0,0-1,1.38,24.25,24.25,0,0,1-1.92,4.55,9.45,9.45,0,0,1-.59,1.14.88.88,0,0,0,.14,1.27c2.45,2.64,4.85,5.31,7.28,8,.47.52,1,1,1.41,1.55a13.65,13.65,0,0,0,3.19,2.83,59.27,59.27,0,0,1,10.31,8.78c.67.74.66.69,1.57.2a10.43,10.43,0,0,1,1.41-.39,44.17,44.17,0,0,1,4.76-1.44c.33-.08.69-.32,1.08.06-.57.83-1.73.83-2.43,1.65a10.1,10.1,0,0,0,2.79-.16c-.2.18-.27.29-.35.3a10.81,10.81,0,0,1-2.72.24c-.19,0-.4.13-.47-.17a.51.51,0,0,1,.19-.53c.21-.2.56-.25.74-.72-.94.36-1.88.34-2.55,1.08,0,0,0,.06-.07.06-1.28.28-2.57,1.07-3.85.64a7.92,7.92,0,0,0-3.3-.35c-.12,0-.35,0-.37-.06-.29-.82-.83-.34-1.27-.26a19.2,19.2,0,0,1-3.79-.08c-.28,0-.57-.28-.84-.47a1.39,1.39,0,0,0-1.31-.18c-2.72.89-5.47,1.67-8.2,2.54s-5.45,1.49-8.16,2.25c-1.5.42-3,.91-4.45,1.36a1.8,1.8,0,0,0,.49.94,55.93,55.93,0,0,1,5.49,9.48,35.76,35.76,0,0,1,2,5.81,4.15,4.15,0,0,1,.11.48c.11.74.11.75-.65.88a43.39,43.39,0,0,1-11.15.48c-1.73-.13-3.45-.34-5.16-.62a4,4,0,0,0-1.58,0c-2.37.54-4.67,1.28-7,2-4,1.17-7.95,2.42-11.94,3.58-1.2.35-2.43.66-3.64,1s-2.39.77-3.61,1.11c-.92.26-1.84.54-2.74.87-.26.1-.55.28-.85.07l-.2-.21a12.35,12.35,0,0,1,2.2-1.39c1.74-1,3.54-2,5.38-2.82,1.58-.73,3.09-1.61,4.62-2.44s2.87-1.58,4.25-2.47a16.88,16.88,0,0,1,3.22-2c.08,0,.14-.12.2-.19s-.05-.17-.08-.17c-1.22-.14-2.22-.89-3.4-1.17a16.42,16.42,0,0,1-2.11-1,2.67,2.67,0,0,1-.45-.22,3.58,3.58,0,0,0-3.42-.14,115,115,0,0,1-13.61,4.19c-1.94.44-3.84,1.06-5.77,1.56a4.58,4.58,0,0,1-2.41.27,2.32,2.32,0,0,1,1.08-.57,66.93,66.93,0,0,0,7.86-3.18A10.55,10.55,0,0,0,148,145.4a.93.93,0,0,0,.26-1.28.89.89,0,0,0-1-.46,7,7,0,0,0-1.64.4c-2.33,1-4.72,1.72-7,2.88-2.07,1.05-4.12,2.15-6.13,3.32a2.27,2.27,0,0,1-1.24.25l-9.3,0a3.33,3.33,0,0,0-2.85,2.06c-.19.6-.33,1.22-.49,1.83a2.32,2.32,0,0,0,0,.38,6.44,6.44,0,0,0,1.28-.56,12.92,12.92,0,0,1,2.82-1.24,1.19,1.19,0,0,1,1.4.56c.16.32,0,.5-.24.68a18.25,18.25,0,0,1-2.92,2.19c-2.37,1.26-3.1,1.61-7.09,3.52-.94.37-2,.79-3.16,1.33a3.27,3.27,0,0,1-1.63.36q-6.24-.06-12.49-.09c-.6,0-1.2,0-1.8,0a1.44,1.44,0,0,1-1.62-1.64,4,4,0,0,1,.36-1.53s2.76-8.2,5.25-14.5c7.58-19.14,10.66-25.26,10.66-25.26,1-1.76,1.74-3.61,2.68-5.39.08-.14.35-.73.42-.88l-.61-.34c-.78-.4-1.2-.72-2-1.19a28.55,28.55,0,0,1-3.74-2.84c-.13-.13-.35-.29-.22-.5s.42-.19.63-.1a3,3,0,0,1,.58.38,35.48,35.48,0,0,0,5.15,3.21c.7.36.74.35,1-.33,1.29-3.1,2.79-6.11,4.2-9.15a19.19,19.19,0,0,1,.9,2.32,59.14,59.14,0,0,0,7.9,13.21c1.2,1.55,2.49,3,3.74,4.54-.78,1.43-1.73,2.76-2.42,4.24l.21.16,3.37-3.15c.93.73,1.56,1.77,2.48,2.52l-3.06,3.86a5.48,5.48,0,0,0,1.56.14,1,1,0,0,0,.83-.25c.75-.74,1.7-1.25,2.4-2.05.15,0,.3,0,.26-.2a3.2,3.2,0,0,0-.22-.66l-3.81-9.45c-3.25-8.06-6.48-16.13-9.86-24.14a4.91,4.91,0,0,1,1.66.28c1.85.54,3.69,1.07,5.53,1.65a19.1,19.1,0,0,1,3.07,1.11c.12.42.23.84.37,1.25q2.1,6,4.22,12.08,4.38,12.45,8.77,24.89c.16.46.48.9.31,1.43-.47-.1-.74-.63-1.36-.45a49.06,49.06,0,0,0-7.24,2.76,2.75,2.75,0,0,0-1.32,1.3l5.34-1.94,4.58-1.69c.35.24.69.52,1.06.73a38.4,38.4,0,0,1,5.75,3.59,1.09,1.09,0,0,0,.79.34,5.67,5.67,0,0,0-.58-2.06q-3.93-12.18-7.89-24.35-2.41-7.36-4.86-14.71a3.51,3.51,0,0,1,1.11.43,137.49,137.49,0,0,1,31.67,20,101.67,101.67,0,0,1,12.77,12.64,54.7,54.7,0,0,1,9.94,16.61c.15.79.15.79.67,1.07L196,148.4c0-.16-.05-.33-.08-.49-.16-.91-.78-1.65-1-2.54a9.2,9.2,0,0,0-.65-1.87,60.33,60.33,0,0,0-9.18-14.35,101.88,101.88,0,0,0-17.54-16.43,113.66,113.66,0,0,0-28.66-16.07c-1.5-.55-2.92-1.32-4.42-1.84a101.37,101.37,0,0,0-10.72-3.15c-2-.48-4.1-.88-6.17-1.22-.36-.06-.8-.28-1.1.16l-.67-.13c.08-.7.09-.72.75-.64,1.81.23,3.63.5,5.42.86q.34.07.69.12a.42.42,0,0,0,.5-.25,20.77,20.77,0,0,1,2.5-3.54,40.08,40.08,0,0,1,4-5.1,6.67,6.67,0,0,1,.73-.67,1.09,1.09,0,0,1,1.22-.08c.33.15.48.37.35.71a10.11,10.11,0,0,1-1.06,2.46c-.88,1.25-1.73,2.52-2.6,3.77a14.52,14.52,0,0,0-1.19,2.19c-.25.53-.23.54.12,1.26a3.39,3.39,0,0,0,1.08-1.12,25.29,25.29,0,0,1,2.24-2.5,13.29,13.29,0,0,1,2.61-1.59c.16-.1.34-.13.45,0,.36.44.69.89,1,1.35.16.23,0,.46-.1.65-.31.51-.64,1-1,1.52-.6.92-1.19,1.85-1.8,2.76-.23.35-.14.58.21.69.75.26,1.51.49,2.28.71a.62.62,0,0,0,.38,0,18.15,18.15,0,0,1,2.93-.61,2.15,2.15,0,0,0,1.34-.76,17.92,17.92,0,0,1,3-2.69c.43-.32.86-.76,1.56-.55a22.39,22.39,0,0,1-1.76,3c.79.13,1.47-.31,2.19-.22l-.39.55a71.39,71.39,0,0,1-8,1.59,1.88,1.88,0,0,0,.92.5c2,.81,4,1.59,6,2.44a4.2,4.2,0,0,0,2,.35,15.88,15.88,0,0,1,4.46.19c.09,0,.17.11.26.15,4,1.56,8.11,1.37,12.25.93l.09,0a2.26,2.26,0,0,0,1.31,1,25.81,25.81,0,0,0,3.23,1,5.91,5.91,0,0,0,2,.34,20.67,20.67,0,0,1-1.14,2.66,22.15,22.15,0,0,1-3.53-1.35c-1.08-.53-2.15-1.06-3.19-1.66a7,7,0,0,0-4.63-.75,13.4,13.4,0,0,1-5.16-.24c-.87-.23-1.75-.41-2.63-.6a1.27,1.27,0,0,0-.8,0,2.39,2.39,0,0,0,.88.54,130.94,130.94,0,0,1,13.94,8c2.15,1.41,4.26,2.87,6.29,4.44a1.22,1.22,0,0,0,1.68.1,11.91,11.91,0,0,1,1.52-.75,1.41,1.41,0,0,0,.89-1.32c.06-1.36.2-2.72.32-4.08,0-.36,0-.66-.38-.82a12.43,12.43,0,0,0-2.89-2.1.86.86,0,0,1-.44-1.13,18.28,18.28,0,0,0,.71-3.81,3.34,3.34,0,0,0-1.16-2.73l0,0a.25.25,0,0,0-.23-.21c-.23-.18-.42-.41-.77-.41-.66,0-1.32-.06-2-.09-.07,0-.1.06-.1.14,0,.32.54.14.5.51-.35.12-.65-.07-1-.17-1.05-.33-2.1-.65-3.13-1a3.37,3.37,0,0,0-2.15-.09c-.83.25-1.68.45-2.52.65-.2.06-.43.17-.67-.09.43-.52,1.22-.31,1.66-.79a3.57,3.57,0,0,0-1.47-.36,63.41,63.41,0,0,0-8-1.21c-.07-.18.05-.31.13-.45a12.9,12.9,0,0,1,3,.29c2.29.42,4.58.87,6.87,1.31a2.72,2.72,0,0,0,1,.12,4.65,4.65,0,0,1,2.45.32,10.87,10.87,0,0,0,3.16.34c.45,0,.7-.35,1-.59,1.08-.9,2.11-1.84,3.18-2.73,2.13-1.76,4.36-3.39,6.64-4.94.73-.49.56-.49.56-.49L170,78.32m23.84,24.21,0,0,.05,0c-.05.3.18.53.23.81a2.77,2.77,0,0,0,.39,1.62,1.68,1.68,0,0,1-.5,2,14.47,14.47,0,0,1-6,3.12,5.3,5.3,0,0,1-2.77.12,12.88,12.88,0,0,1-3.86-1.58c-.53-.34-1.13-.58-1.67-.9s-.53,0-.66.3.16.6.4.82a30.46,30.46,0,0,0,4.71,3.53c-.28.64-.65,1.22-.87,1.89a2.82,2.82,0,0,1-1.36,1.51,32.65,32.65,0,0,0-4.28,2.92c-.73.62-.71.72,0,1.39,1.57,1.48,3.12,3,4.61,4.57.39.41.72,1,1.2,1.17s1.13-.27,1.68-.46c2.3-.79,4.57-1.66,6.91-2.32a18.13,18.13,0,0,1,2.54-.51.79.79,0,0,1,1,.55.75.75,0,0,1-.45,1,33.33,33.33,0,0,1-4.29,1.87c-1.71.55-3.37,1.25-5.09,1.76-.42.12-.39.38-.14.67s.64.77.95,1.16c.87,1.09.63.89,1.9.55l.19-.08c4.53-1.56,9-3.35,13.46-5a23.76,23.76,0,0,1,6.25-1.66c.25,0,.54,0,.74-.29a13.42,13.42,0,0,0-2.86-5c-1.63-1.89-3.4-3.65-5-5.59l.39-1c1.62,1.59,3.06,3.35,4.65,5a11.18,11.18,0,0,1,2.22,3.35c1,2,2,4.08,3,6.11.11.24.18.48.52.54a8.13,8.13,0,0,0,4.71-.1c.3-.12.61-.29.86-.12s-.12.48,0,.76a4,4,0,0,0,2-.22,34.38,34.38,0,0,0-4.06-4c-2.22-1.74-4.47-3.47-6.81-5.07a5.22,5.22,0,0,1-.95-.87q-4.81-5.34-9.66-10.67c-.16-.18-.27-.47-.6-.44a.77.77,0,0,0,.05,1.21c.58.59,1.11,1.24,1.66,1.86l-.33,1.09c-.68-.57-1.2-1.29-1.82-1.92s-.54-.59-1.17,0a2,2,0,0,1-.06-.87c.41-.28.36-.68.25-1.07a5.94,5.94,0,0,0-.95-2C194.65,103.54,194.22,103,193.8,102.53ZM173.39,76.2a5.21,5.21,0,0,1-2.3-.75c-.09-.06-.2-.19-.29,0s.09.13.14.2A22.73,22.73,0,0,0,173,78c1.72,1.91,3.45,3.8,5.18,5.69.65.72.6.58,1.34.29a15.09,15.09,0,0,1,1.73-.67,4.45,4.45,0,0,1,1.32-.16,2.47,2.47,0,0,1,1.78.63.86.86,0,0,1,.17.79,6.08,6.08,0,0,1-1.3,1c-.69.33-1,.5-1.69.86-.48.23-.38.45-.12.75s.29.36.45.54l4.84,5.31c.15.16.26.41.59.32a4.64,4.64,0,0,0-.05-2.34c-.52-2.22-1.46-4.38-1.16-6.74a.61.61,0,0,0-.19-.55,28.31,28.31,0,0,0-2.66-2.14,26.74,26.74,0,0,0-3.14-1.52,1,1,0,0,1-.72-.75,4.79,4.79,0,0,0,1.82-.42,2,2,0,0,0,1.38-2.06,9.28,9.28,0,0,0,0-1.29,2.17,2.17,0,0,0-1.48-2A46,46,0,0,0,176.41,72a5.51,5.51,0,0,1-2-.84c-2.48-1.86-5.25-3.28-7.76-5.1-.19-.13-.36-.29-.63-.15a2.5,2.5,0,0,0-1.34,1.28.56.56,0,0,0,.21.75c1,.84,2,1.73,3,2.62a14.09,14.09,0,0,0,4.3,2.85c.12.34.26.68.37,1C172.78,75,173.28,75.53,173.39,76.2Zm16,11.75-.14,0s0,0,0,.06.13.05.16,0c-.21.11-.14.27-.1.43a14.13,14.13,0,0,0,.7,2.08,6.45,6.45,0,0,1,.52,3.41c-.15,1.16-.22,2.33-.45,3.47a1.2,1.2,0,0,0,.53,1.34,27.8,27.8,0,0,1,4.18,4.29,9.88,9.88,0,0,1,1.78,2.94,4.82,4.82,0,0,0,.34-.43,35.1,35.1,0,0,0,3.84-9A73.78,73.78,0,0,0,202,89.08a9.14,9.14,0,0,0-1.64-6.62c-.14-.2-.22-.5-.61-.46,0,.58.38,1,.49,1.57a7,7,0,0,1,.23,1.58c0,.52,0,1,0,1.56a23,23,0,0,0-2.31-7,6.21,6.21,0,0,0-4.25-3.21c-2-.59-4.17-.81-6.17-1.59-.76-.28-1.57-.42-2.47-.65.27.69,1,.79,1.24,1.45-1.56-.36-2.4-1.78-3.79-2.28-.09.48.19.68.31.93a3.35,3.35,0,0,1,.42,1.82c-.07.77,0,1.55-.13,2.28A1.39,1.39,0,0,0,184,80c1.49,1.11,3.06,2.12,4.49,3.34a8.41,8.41,0,0,0,1.41,1.25c.89.45,1.77.92,2.66,1.39.22.11.51.14.61.5-1.31.07-2.44-.59-3.72-.73.1,1.11,1,1.77,1.3,2.76C190.06,88.64,189.83,88.1,189.41,88Zm-7.93,15.2a10.06,10.06,0,0,0,3.9-2.61,6.17,6.17,0,0,0,1.74-4,.65.65,0,0,0-.21-.62,75.32,75.32,0,0,0-6.56-5.67,2.08,2.08,0,0,0-1.78-.36,18.72,18.72,0,0,0-2.61,1,.91.91,0,0,0-.66,1.07c0,.23,0,.46,0,.7a11.76,11.76,0,0,1-.51,4,40.43,40.43,0,0,0-1.27,4.62,47.68,47.68,0,0,0-.33,6,20.89,20.89,0,0,1-1.44,7.3c-.19.4,0,.53.24.72l2.52,2.12c.17.13.3.38.55.29.57-2.43.6-4.91,1.08-7.32a57.55,57.55,0,0,0,1-10.63,9.4,9.4,0,0,1,.12-1.19c0-.17.12-.32.33-.29a.33.33,0,0,1,.27.26,2.73,2.73,0,0,1,.06.5,34.23,34.23,0,0,1,.12,6.48c0,.4,0,.8,0,1.2a12.36,12.36,0,0,0,1.92-5.44,27.42,27.42,0,0,0-.35-6.77,6.88,6.88,0,0,1-.1-.9c0-.16,0-.34.22-.39a.41.41,0,0,1,.51.2,8,8,0,0,1,.26,1,1.8,1.8,0,0,0,.34.71c.22.3.44-.37.72.1a3.55,3.55,0,0,0-.21,2.63,20,20,0,0,1,.16,4.09C181.53,102.29,181.51,102.71,181.48,103.15Zm-7.07-13c-1.23.85-2.57,1.71-3.84,2.49a32.92,32.92,0,0,0-3.07,1.85c.57.1.89.18,1.22.21,1.6.14,3.17.41,4.74.69,1,.19,1,.2,1.09-.86s.12-1.86.17-2.79c0-.37.06-.72.45-.92,1.48-.75,2.67-1.62,4.53-1.49L178.34,88A20.52,20.52,0,0,0,174.41,90.2Zm-5.42,5c0,.12,0,.2,0,.25a5.64,5.64,0,0,1,1,4.34,4.14,4.14,0,0,0,0,1.49,2.13,2.13,0,0,0,.84,1.42c.52.33,1.07.62,1.59.92a.79.79,0,0,0,.18-.55,26.82,26.82,0,0,1,1.19-5.54c.51-1.58.51-1.6-1.13-1.85A30.76,30.76,0,0,0,169,95.18ZM164.55,64a4.27,4.27,0,0,1-.72-1.91c-.06-.26-.14-.61-.49-.43a1.67,1.67,0,0,1-1.7-.16c-.37-.22-.68-.14-.8.25a1.25,1.25,0,0,1-.79.82.39.39,0,0,0-.25.38c0,.29-.11.58-.15.88a4.64,4.64,0,0,0-.12,1.47c.08.4.71.39,1,.72a5.69,5.69,0,0,0,.85.69,1,1,0,0,0,.85.32A3.22,3.22,0,0,1,164.55,64Zm37.88,21.15a8.72,8.72,0,0,1,.2,2,3.44,3.44,0,0,0,1.21,3c.3.31.57.66.87,1a4.2,4.2,0,0,0,.7.56c.22.13.48.31.73.08s.08-.5,0-.72c-.7-1.21-1.4-2.42-2.12-3.61A13.79,13.79,0,0,0,202.43,85.12Zm-29.14,63.37c-.57-.26-1-.46-1.47-.2-1.61.94-3.31,1.7-4.94,2.6a1.11,1.11,0,0,0-.67,1.14Zm-37-19.17H138C137.17,128.31,137.17,128.31,136.24,129.32Zm91.06-3.39.08,0s0,0-.06-.06l-.08,0Z"/><path class="cls-2" d="M115.81,90.47l.67.13v.46c.09.47.45.49.82.55a28.29,28.29,0,0,1,4.57.94c3.38,8,6.61,16.08,9.86,24.14l3.81,9.45a3.2,3.2,0,0,1,.22.66c0,.17-.11.21-.26.2a10.7,10.7,0,0,0-1.73-1.7c-.92-.75-1.55-1.79-2.48-2.52a4.76,4.76,0,0,0-1.16-1.25c-1.25-1.51-2.54-3-3.74-4.54a59.14,59.14,0,0,1-7.9-13.21,19.19,19.19,0,0,0-.9-2.32,45,45,0,0,1-1.7-7.33A16,16,0,0,1,115.81,90.47Z"/><path class="cls-1" d="M209.47,42.82c.27-.35.69-.36,1.07-.44,4.36-1,8.73-1.84,13.16-2.39a58.92,58.92,0,0,0,11.19-2.56,22.18,22.18,0,0,0,8-4.65,5,5,0,0,0,0-7.77,10.07,10.07,0,0,0-7.21-2.66,29.47,29.47,0,0,0-6.42.89c-1.81.45-3.61.93-5.42,1.4a122.5,122.5,0,0,0-13,4.36l-3.26,1.24a2.11,2.11,0,0,1-1.87,0c2.79-1.61,5.88-2.5,8.83-3.71a110.76,110.76,0,0,1,14.63-4.6,25.21,25.21,0,0,1,9.63-.56A11.75,11.75,0,0,1,246,25.39a4.1,4.1,0,0,1,.89,3.74A6.56,6.56,0,0,1,244.72,33a29.51,29.51,0,0,1-10.66,5.95,81.74,81.74,0,0,1-11.6,2.28c-4.08.65-8.19,1-12.26,1.78C210,43,209.68,43.14,209.47,42.82Z"/><path class="cls-1" d="M65.11,56.4a.69.69,0,0,1,.63.22,3.35,3.35,0,0,0,1.4.86,17.22,17.22,0,0,1,4.37,3.44c1.55,1.52,3.15,3,4.75,4.43,3.2,2.93,6.17,6.08,9.18,9.2,1.55,1.61,3.11,3.2,4.55,4.91a2.52,2.52,0,0,1,.27.3c.15.26.63.4.34.81a1,1,0,0,1-1.27,0,35.49,35.49,0,0,0-3.61-3.22c-1.15-1-2.32-2-3.44-3.12a31.69,31.69,0,0,0-2.73-2.33c-4.39-3.37-8.44-7.15-12.77-10.59-.79-.62-1.56-1.25-2.34-1.88a2.15,2.15,0,0,1-.83-1.21A1.45,1.45,0,0,1,65.11,56.4Z"/><path class="cls-1" d="M232.85,50.42a4.49,4.49,0,0,1,2,.35c.77.4.82.89.16,1.45a5.35,5.35,0,0,1-1.61.74,31.38,31.38,0,0,1-5.72,1.54c-4.27.71-8.46,1.82-12.67,2.78-1.56.35-3.12.71-4.68,1-.37.08-.94.31-1.09-.07s.44-.55.76-.72a48.26,48.26,0,0,1,8.37-3.23c4.14-1.35,8.29-2.67,12.56-3.61A7.74,7.74,0,0,1,232.85,50.42Z"/><path class="cls-1" d="M79.5,84.2a3.3,3.3,0,0,0,2.9.36,4.25,4.25,0,0,0-1.24-1.07c-1-.61-2-1.25-3-1.82a68.44,68.44,0,0,0-7.59-4A20,20,0,0,0,62.14,76a4.69,4.69,0,0,0-1,.11c-.39.11-.64.64-.38.94a2.37,2.37,0,0,0,1.46.8S64.77,78,79.5,84.2Z"/><path class="cls-1" d="M199.12,20.5l.6,0c1.41.17,1.89,1.13,1.15,2.33a6.9,6.9,0,0,1-1.44,1.65c-2.23,1.89-4.44,3.8-6.83,5.48-1.83,1.29-3.78,2.39-5.68,3.56-2.36,1.44-4.61,3-6.86,4.62a5.88,5.88,0,0,0-.7.71,6.27,6.27,0,0,1-.66.6c-.19.15-.45.25-.64.07s-.07-.44.06-.62c1-1.42,2-2.87,3-4.25a67.77,67.77,0,0,1,6.19-6.82,40.17,40.17,0,0,1,4.31-3.5c1.33-1,2.73-1.86,4.09-2.79A6.8,6.8,0,0,1,199.12,20.5Zm-17,15.14c1.86-1.17,3.62-2.36,5.46-3.4a65.78,65.78,0,0,0,10.77-7.92,11.45,11.45,0,0,0,1-1,2.9,2.9,0,0,0,.56-.94c.3-.83-.17-1.42-1-1.25a6.23,6.23,0,0,0-2,.71,42.83,42.83,0,0,0-8.71,6.49c-2.11,2.06-3.88,4.4-5.8,6.61A.92.92,0,0,0,182.08,35.64Z"/><path class="cls-1" d="M148.78,30.61a6.64,6.64,0,0,1-.83,2.26,24,24,0,0,1-2.3,3A35.65,35.65,0,0,0,141.1,42a1.68,1.68,0,0,1-.36.47.69.69,0,0,1-.75.09c-.29-.13-.22-.38-.19-.6a4,4,0,0,1,.52-1.83c.29-.44.23-1,.42-1.51a32.3,32.3,0,0,1,2.68-5.86c.38-.61.73-1.23,1.15-1.82a7.74,7.74,0,0,1,1.54-1.49,2.15,2.15,0,0,1,1.78-.37C148.54,29.25,148.82,29.68,148.78,30.61Zm-1.49-.78a5.44,5.44,0,0,0-2.14,1.82c-1.7,2.07-2.49,4.56-3.35,7.23.82-1,1.5-1.84,2.2-2.67a35.58,35.58,0,0,0,2.66-3.48,5,5,0,0,0,.82-2.12A.78.78,0,0,0,147.29,29.83Z"/><path class="cls-1" d="M184.67,55.42a42.58,42.58,0,0,1,6.72-3.3c2-.72,3.81-1.72,5.8-2.39.88-.3,1.75-.61,2.63-.89a14.76,14.76,0,0,1,1.46-.35c.42-.08,1.05-.23,1.16.2.15.59-.58.51-.93.63-2.72.91-5.37,2-8,3.13-2.44,1.08-4.93,2.06-7.41,3A1.87,1.87,0,0,1,184.67,55.42Z"/><path class="cls-1" d="M116.23,30.47a47.88,47.88,0,0,1-.26,5.08c0,.34,0,.79-.52.8s-.6-.32-.68-.71a26.08,26.08,0,0,1-.41-8.72c.11-.88.31-1.16.83-1.15s.74.27.88,1.12A25.17,25.17,0,0,1,116.23,30.47Z"/><path class="cls-1" d="M88.41,57.09a2.25,2.25,0,0,1,1.23.73c.92,1,1.85,1.91,2.76,2.88,1.42,1.5,2.85,3,4.22,4.52a13.4,13.4,0,0,1,2.2,2.92,4.65,4.65,0,0,0,.71.84.18.18,0,0,1,0,.26.33.33,0,0,1-.26.08,1.6,1.6,0,0,1-.75-.47,22.78,22.78,0,0,0-1.93-2.11c-.94-1.06-1.93-2.09-2.82-3.2a11.52,11.52,0,0,0-1.28-1.24c-1.27-1.18-2.29-2.59-3.5-3.82a3.69,3.69,0,0,0-.88-.79c-.13-.06-.16-.31-.08-.46S88.23,57.08,88.41,57.09Z"/><path class="cls-2" d="M170,78.32l.11-1.57c-1.34-2.23-2.91-3.4-4.33-5-.57-.64-1.08-1.08-1.64-1.73-.09-.11-.38-.23-.1-.44h0c-.07.12-.15.13-.24,0s-.32-.3-.48-.45c-.55-.26-1.09-.54-1.65-.79-.22-.1-.46-.27-.72-.07Z"/><path class="cls-1" d="M229.16,122a.64.64,0,0,1-.33.48c-.74.55-1.45,1.14-2.24,1.62-1,.59-2,1.07-3,1.63-.73.41-1.64.24-2.31.79-.07,0-.18,0-.25-.11s0-.19.1-.27a5.7,5.7,0,0,1,1.68-1.45A28.32,28.32,0,0,1,227.9,122a2.53,2.53,0,0,1,1-.21A.28.28,0,0,1,229.16,122Zm-2,.73a22.65,22.65,0,0,0-4.63,2.82c.77,0,4.9-2.63,5-2.68s.14-.16.33-.35A2.46,2.46,0,0,0,227.14,122.74Z"/><path class="cls-1" d="M86.79,113.16A2,2,0,0,1,88.4,113a13.09,13.09,0,0,0,2.17.35c1.75.19,3.48.53,5.22.86a10.6,10.6,0,0,0,2.74.44c.25,0,.5.1.49.38s-.28.33-.51.35a4,4,0,0,1-1.19-.12c-3.29-.7-6.63-1.11-9.93-1.72A.72.72,0,0,1,86.79,113.16Z"/><path class="cls-2" d="M201.59,97.37c-.06-.23.09-.37.23-.51l4.31-4.38c.06-.06.17-.07.26-.11a11.86,11.86,0,0,1-4.09,4.71A1.13,1.13,0,0,1,201.59,97.37Z"/><path class="cls-2" d="M190.32,71.84A16.29,16.29,0,0,1,188.39,73h0l-.06,0a9.14,9.14,0,0,1-1.47.73,2.54,2.54,0,0,1-1,.06c0-.6.38-.88.89-1.05A18,18,0,0,1,190.32,71.84Z"/><path class="cls-2" d="M148.7,92c-.08.14-.2.27-.13.45a25.58,25.58,0,0,0-5.1.25l.39-.55A17.44,17.44,0,0,1,148.7,92Z"/><path class="cls-2" d="M206.38,92.39c0-.23.16-.33.28-.47A.54.54,0,0,1,206.38,92.39Z"/><path class="cls-1" d="M148.69,158.51c-.09.1-.18.22-.31.09s0-.22.11-.3Z"/><path class="cls-3" d="M189.41,87.94c.42.16.65.7,1.3.55-.27-1-1.2-1.65-1.3-2.76,1.28.14,2.41.8,3.72.73-.1-.36-.39-.39-.61-.5-.89-.47-1.77-.94-2.66-1.39a8.41,8.41,0,0,1-1.41-1.25c-1.43-1.22-3-2.23-4.49-3.34a1.39,1.39,0,0,1-.69-1.57c.14-.73.06-1.51.13-2.28a3.35,3.35,0,0,0-.42-1.82c-.12-.25-.4-.45-.31-.93,1.39.5,2.23,1.92,3.79,2.28-.27-.66-1-.76-1.24-1.45.9.23,1.71.37,2.47.65,2,.78,4.13,1,6.17,1.59a6.21,6.21,0,0,1,4.25,3.21,23,23,0,0,1,2.31,7c0-.52,0-1,0-1.56a7,7,0,0,0-.23-1.58c-.11-.53-.49-1-.49-1.57.39,0,.47.26.61.46A9.14,9.14,0,0,1,202,89.08a73.78,73.78,0,0,1-1.18,7.39,35.1,35.1,0,0,1-3.84,9,4.82,4.82,0,0,1-.34.43,9.88,9.88,0,0,0-1.78-2.94,27.8,27.8,0,0,0-4.18-4.29,1.2,1.2,0,0,1-.53-1.34c.23-1.14.3-2.31.45-3.47a6.45,6.45,0,0,0-.52-3.41,14.13,14.13,0,0,1-.7-2.08c0-.16-.11-.32.1-.43Z"/><path class="cls-2" d="M145.79,135.24c.17-.53-.15-1-.31-1.43q-4.38-12.45-8.77-24.89-2.11-6-4.22-12.08c-.14-.41-.25-.83-.37-1.25a22.46,22.46,0,0,1,3.28,1.17,40.59,40.59,0,0,1,4.66,2q2.43,7.35,4.86,14.71,4,12.16,7.89,24.35a5.67,5.67,0,0,1,.58,2.06,1.09,1.09,0,0,1-.79-.34,38.4,38.4,0,0,0-5.75-3.59c-.37-.21-.71-.49-1.06-.73Z"/><path class="cls-3" d="M181.48,103.15c0-.44.05-.86.08-1.27a20,20,0,0,0-.16-4.09,3.55,3.55,0,0,1,.21-2.63c-.28-.47-.5.2-.72-.1a1.8,1.8,0,0,1-.34-.71,8,8,0,0,0-.26-1,.41.41,0,0,0-.51-.2c-.22,0-.23.23-.22.39a6.88,6.88,0,0,0,.1.9,27.42,27.42,0,0,1,.35,6.77,12.36,12.36,0,0,1-1.92,5.44c0-.4,0-.8,0-1.2A34.23,34.23,0,0,0,178,99a2.73,2.73,0,0,0-.06-.5.33.33,0,0,0-.27-.26c-.21,0-.31.12-.33.29a9.4,9.4,0,0,0-.12,1.19,57.55,57.55,0,0,1-1,10.63c-.48,2.41-.51,4.89-1.08,7.32-.25.09-.38-.16-.55-.29L172,115.27c-.24-.19-.43-.32-.24-.72a20.89,20.89,0,0,0,1.44-7.3,47.68,47.68,0,0,1,.33-6,40.43,40.43,0,0,1,1.27-4.62,11.76,11.76,0,0,0,.51-4c0-.24,0-.47,0-.7a.91.91,0,0,1,.66-1.07,18.72,18.72,0,0,1,2.61-1,2.08,2.08,0,0,1,1.78.36,75.32,75.32,0,0,1,6.56,5.67.65.65,0,0,1,.21.62,6.17,6.17,0,0,1-1.74,4A10.06,10.06,0,0,1,181.48,103.15Z"/><path class="cls-3" d="M140.06,98.76a40.59,40.59,0,0,0-4.66-2,22.46,22.46,0,0,0-3.28-1.17,19.1,19.1,0,0,0-3.07-1.11c-1.84-.58-3.68-1.11-5.53-1.65a4.91,4.91,0,0,0-1.66-.28,28.29,28.29,0,0,0-4.57-.94c-.37-.06-.73-.08-.82-.55V90.6c.3-.44.74-.22,1.1-.16,2.07.34,4.12.74,6.17,1.22a101.37,101.37,0,0,1,10.72,3.15c1.5.52,2.92,1.29,4.42,1.84a113.66,113.66,0,0,1,28.66,16.07,101.88,101.88,0,0,1,17.54,16.43,60.33,60.33,0,0,1,9.18,14.35,9.2,9.2,0,0,1,.65,1.87c.18.89.8,1.63,1,2.54,0,.16.05.33.08.49l-.41,0a54.7,54.7,0,0,0-9.94-16.61,101.67,101.67,0,0,0-12.77-12.64,137.49,137.49,0,0,0-31.67-20A3.51,3.51,0,0,0,140.06,98.76Z"/><path class="cls-3" d="M143.47,92.73a25.58,25.58,0,0,1,5.1-.25,63.41,63.41,0,0,1,8,1.21,3.57,3.57,0,0,1,1.47.36c-.44.48-1.23.27-1.66.79.24.26.47.15.67.09.84-.2,1.69-.4,2.52-.65a3.37,3.37,0,0,1,2.15.09c1,.36,2.08.68,3.13,1,.31.1.61.29,1,.17,0-.37-.49-.19-.5-.51,0-.08,0-.14.1-.14.67,0,1.33.08,2,.09.35,0,.54.23.77.41,0,.12.06.23.23.21l0,0a5.88,5.88,0,0,1-.27,5.61,5.92,5.92,0,0,1-2-.34,25.81,25.81,0,0,1-3.23-1,2.26,2.26,0,0,1-1.31-1c-.1-.36.08-.55.4-.68a5.35,5.35,0,0,1,1.37-.21c.38,0,.8.07,1.13-.26-1.48-.67-7-1.24-8-.77l1.21.29a3.33,3.33,0,0,1,1.11.43.58.58,0,0,1,.24.3c0,.2-.16.28-.31.33a5.29,5.29,0,0,1-2.27.2,17.49,17.49,0,0,1-4.48-1.32,12.47,12.47,0,0,0-3.31-1.08,1.51,1.51,0,0,0-1.2.11c.77.72,1.81.88,2.65,1.62h-1.13a15.88,15.88,0,0,0-4.46-.19,4.2,4.2,0,0,1-2-.35c-2-.85-4-1.63-6-2.44a1.88,1.88,0,0,1-.92-.5A71.39,71.39,0,0,0,143.47,92.73Z"/><path class="cls-3" d="M172.21,73.38a14.09,14.09,0,0,1-4.3-2.85c-1-.89-2-1.78-3-2.62a.56.56,0,0,1-.21-.75A2.5,2.5,0,0,1,166,65.88c.27-.14.44,0,.63.15,2.51,1.82,5.28,3.24,7.76,5.1a5.51,5.51,0,0,0,2,.84,46,46,0,0,1,4.74,1.55,2.17,2.17,0,0,1,1.48,2,9.28,9.28,0,0,1,0,1.29,8.13,8.13,0,0,1-.52,1.07c-.53.68-.77.76-1.6.48a17.08,17.08,0,0,1-5.64-2.86c-.18-.16-.49-.23-.46-.6a13.17,13.17,0,0,0,2.21.19,1.34,1.34,0,0,0-.7-.39,9.68,9.68,0,0,1-2-.89A3.06,3.06,0,0,0,172.21,73.38Z"/><path class="cls-3" d="M199.13,108.81c-.55-.62-1.08-1.27-1.66-1.86a.77.77,0,0,1-.05-1.21c.33,0,.44.26.6.44q4.84,5.32,9.66,10.67a5.22,5.22,0,0,0,.95.87c2.34,1.6,4.59,3.33,6.81,5.07a34.38,34.38,0,0,1,4.06,4,4,4,0,0,1-2,.22c-.14-.28.2-.46,0-.76s-.56,0-.86.12a8.13,8.13,0,0,1-4.71.1c-.34-.06-.41-.3-.52-.54-1-2-2-4.06-3-6.11a11.18,11.18,0,0,0-2.22-3.35c-1.59-1.6-3-3.36-4.65-5A24.77,24.77,0,0,0,199.13,108.81Z"/><path class="cls-2" d="M195.81,108a13.88,13.88,0,0,1-4.57,4.35,7,7,0,0,1-3.83.89,11.71,11.71,0,0,1-3.28-.78,30.46,30.46,0,0,1-4.71-3.53c-.24-.22-.56-.4-.4-.82s.26-.52.66-.3,1.14.56,1.67.9a12.88,12.88,0,0,0,3.86,1.58,5.3,5.3,0,0,0,2.77-.12,14.47,14.47,0,0,0,6-3.12,1.68,1.68,0,0,0,.5-2,2.77,2.77,0,0,1-.39-1.62,6.72,6.72,0,0,1,1.17,2.17c.18.53.35,1.06.52,1.58A2,2,0,0,0,195.81,108Z"/><path class="cls-3" d="M165.81,71.93c-.57-.64-2-2.14-2.53-2.79-.09-.11.58-.19.72.24.66-.2,1,.49,1.34.86,1.08,1.14,2.12,2.31,3.17,3.47l18.17,20.07c.13.15.26.29.39.45a.35.35,0,0,1,0,.53c-.21.21-.36,0-.5-.09-.75-.71-1.54-1.38-2.23-2.15q-6.94-7.67-13.84-15.37"/><path class="cls-3" d="M169,95.18a30.76,30.76,0,0,1,3.72.48c1.64.25,1.64.27,1.13,1.85a26.82,26.82,0,0,0-1.19,5.54.79.79,0,0,1-.18.55c-.52-.3-1.07-.59-1.59-.92a2.13,2.13,0,0,1-.84-1.42,4.14,4.14,0,0,1,0-1.49,5.64,5.64,0,0,0-1-4.34C169,95.38,169,95.3,169,95.18Z"/><path class="cls-2" d="M148.91,97.8H150c-.84-.74-1.88-.9-2.65-1.62a1.51,1.51,0,0,1,1.2-.11,12.47,12.47,0,0,1,3.31,1.08,17.49,17.49,0,0,0,4.48,1.32,5.29,5.29,0,0,0,2.27-.2c.15,0,.34-.13.31-.33a.58.58,0,0,0-.24-.3,3.33,3.33,0,0,0-1.11-.43l-1.21-.29c1-.47,6.53.1,8,.77-.33.33-.75.22-1.13.26a5.35,5.35,0,0,0-1.37.21c-.32.13-.5.32-.4.68l-.09,0c-4.14.44-8.26.63-12.25-.93C149.08,97.91,149,97.85,148.91,97.8Z"/><path class="cls-3" d="M186.88,73.73a9.14,9.14,0,0,0,1.47-.73l.06,0h0c1-.17,2-.63,3-.86a1.57,1.57,0,0,1,1.75.62,18.4,18.4,0,0,1,1.7,3.22c-.28.23-.51.11-.73.07a64.4,64.4,0,0,1-7-1.75C186.8,74.19,186.48,74.11,186.88,73.73Z"/><path class="cls-3" d="M164.55,64a3.22,3.22,0,0,0-2.32,3,1,1,0,0,1-.85-.32,5.69,5.69,0,0,1-.85-.69c-.29-.33-.92-.32-1-.72a4.64,4.64,0,0,1,.12-1.47c0-.3.12-.59.15-.88a.39.39,0,0,1,.25-.38,1.25,1.25,0,0,0,.79-.82c.12-.39.43-.47.8-.25a1.67,1.67,0,0,0,1.7.16c.35-.18.43.17.49.43A4.27,4.27,0,0,0,164.55,64Z"/><path class="cls-2" d="M179.41,79.33a3.29,3.29,0,0,0-1-.45,31,31,0,0,1-4.85-2.52c0-.1-.08-.18-.2-.18l0,0c-.11-.67-.61-1.17-.81-1.8-.11-.34-.25-.68-.37-1a3.06,3.06,0,0,1,1.69.47,9.68,9.68,0,0,0,2,.89,1.34,1.34,0,0,1,.7.39,13.17,13.17,0,0,1-2.21-.19c0,.37.28.44.46.6a17.08,17.08,0,0,0,5.64,2.86c.83.28,1.07.2,1.6-.48a8.13,8.13,0,0,0,.52-1.07,2,2,0,0,1-1.38,2.06A4.79,4.79,0,0,1,179.41,79.33Z"/><path class="cls-2" d="M172.15,105.36c-1.73-.51-3.51-.85-5.2-1.5a20.67,20.67,0,0,0,1.14-2.66,5.86,5.86,0,0,0,.28-5.61,3.34,3.34,0,0,1,1.16,2.73,18.28,18.28,0,0,1-.71,3.81.86.86,0,0,0,.44,1.13A12.43,12.43,0,0,1,172.15,105.36Z"/><path class="cls-3" d="M202.43,85.12A13.79,13.79,0,0,1,204,87.34c.72,1.19,1.42,2.4,2.12,3.61.13.22.31.49,0,.72s-.51,0-.73-.08a4.2,4.2,0,0,1-.7-.56c-.3-.3-.57-.65-.87-1a3.44,3.44,0,0,1-1.21-3A8.72,8.72,0,0,0,202.43,85.12Z"/><path class="cls-3" d="M165.78,64.73a.23.23,0,0,0,0,.35c.17.17.21.38,0,.46a2.71,2.71,0,0,0-1.84,2.58c-1.32,0-1.28-.85-1.16-1.7,0-.2.1-.39.38-.32s.24-.13.12-.23-.11-.42,0-.6a3.24,3.24,0,0,1,.49-.49c.68-.56.9-.55,1.63,0,.1.07.23.3.37,0Z"/><path class="cls-2" d="M199.13,108.81a24.77,24.77,0,0,1,2.45,2.67l-.39,1a22.78,22.78,0,0,1-2.39-2.62Z"/><path class="cls-4" d="M195.75,107.1c-.17-.52-.34-1-.52-1.58a6.72,6.72,0,0,0-1.17-2.17c-.05-.28-.28-.51-.23-.81h0c.42.51.85,1,1.25,1.54a5.94,5.94,0,0,1,.95,2C196.11,106.42,196.16,106.82,195.75,107.1Z"/><path class="cls-4" d="M195.55,148.42l.41,0,.26,1.09C195.7,149.21,195.7,149.21,195.55,148.42Z"/><path class="cls-3" d="M189.43,87.91c0,.1-.08.13-.16,0s0,0,0-.06l.14,0Z"/><polygon class="cls-4" points="193.83 102.54 193.78 102.58 193.8 102.53 193.83 102.54"/><path class="cls-2" d="M168.39,95.61c-.17,0-.2-.09-.23-.21A.25.25,0,0,1,168.39,95.61Z"/><path class="cls-1" d="M116.48,91.09v0Z"/><path class="cls-1" d="M188.41,73l-.06,0Z"/></svg>