<svg id="frames" xmlns="http://www.w3.org/2000/svg" viewBox="0 0 384 216"><defs><style>.cls-1{fill:#0f1b33;}.cls-2{fill:#fd0101;}.cls-3{fill:#f5f3f4;}.cls-4{fill:#d6d7d0;}</style></defs><path class="cls-1" d="M228.39,79.25c2.66-.06,5.33-.07,8,0l.9,0c5.53,0,11.06-.1,16.59,0,3.86.06,7.73,0,11.58.16a26.79,26.79,0,0,1,17.37,7.07,25.82,25.82,0,0,1,8.28,15.11A26.26,26.26,0,0,1,284.87,124a26.55,26.55,0,0,1-16,9,30.05,30.05,0,0,1-5.27.42H249.79c-.23,0-.47,0-.7,0-.49,0-.62.22-.63.67,0,1.53-.07,3.06-.07,4.59q0,10.84,0,21.69c0,.23,0,.47,0,.7a1.24,1.24,0,0,1-1.3,1.34,20.82,20.82,0,0,1-2.09,0c-1.1,0-2.2-.07-3.3-.11.41-.15.8-.33,1.21-.46a12.36,12.36,0,0,0,2.2-.89,1.52,1.52,0,0,0,.74-.63c.17-.36.09-.45-.46-.51a16.59,16.59,0,0,0-4.75-1.76c-5.34-1.55-10.58-3.37-15.82-5.21-4.9-1.72-9.84-3.32-14.72-5.09-4.12-1.5-8.23-3-12.42-4.36,0-.25.19-.22.36-.17,3.15,1,6.32,2,9.44,3.08,4.1,1.44,8.19,2.95,12.32,4.33l5.19,1.77c1,.32,1,.3,1-.75s-.08-2.13-.05-3.19a5.47,5.47,0,0,0-.87-3.69,1,1,0,0,1,0-.2c.25-.47.09-1,.23-1.49,1.07,1.5,1.84,3.16,2.8,4.72a4.23,4.23,0,0,1,.57,1.58c.2,1.31.46,2.62.67,3.94a1,1,0,0,0,.78.88c1.5.46,3,1,4.47,1.44a5.75,5.75,0,0,0,1.47.41,6.23,6.23,0,0,0-1-1.9,64.61,64.61,0,0,0-5-6,5.9,5.9,0,0,1-1.09-1.15c-1-1.77-2-3.47-3.07-5.2L219,130.38a1.92,1.92,0,0,0-.52-.71c-.67.59-.67.59-.3,1.26,1,1.77,2.11,3.47,3,5.29-.23.5,0,1.05-.18,1.56-.1-.13-.21-.25-.3-.39-1.08-1.84-2.15-3.68-3.23-5.51-.42-.71-.66-.73-1.27-.14a4.7,4.7,0,0,1-1.15.93c-.06-.3.14-.47.3-.67s.53-.41.54-.78a.32.32,0,0,0,.3-.23l0,0a8.43,8.43,0,0,0,1.86-1.91,2.32,2.32,0,0,0,.13-2.38,14.2,14.2,0,0,0-.67,1.43,3.36,3.36,0,0,1-.91,1.51,13.34,13.34,0,0,1-1.58,1.52,10.4,10.4,0,0,1-7.51,1.7c-2-.32-2-.3-3.7.8-.08,0-.15.13-.23.19-1.18.62-2.33,1.3-3.57,1.81a47.89,47.89,0,0,0-7.29,2.94,1.6,1.6,0,0,0-.86.8c-.22.52-.47,1-.71,1.54-1.31-.33-2.56-.83-3.83-1.24.06-.21.16-.23.26-.23a8.72,8.72,0,0,0,4.94-1.94c4.14-3,8.24-6.1,12.19-9.37,2.54-2.1,5.27-4,7.51-6.4,0,0,.12,0,.26,0,.16.71-.36,1.3-.4,2,.42.13.51-.18.67-.36a11.46,11.46,0,0,0,2.28-4.18,1.63,1.63,0,0,1,1.53-1.25c0,1.18-.77,2.15-.86,3.34a7.66,7.66,0,0,0,2.75-2.77,1,1,0,0,0,0-.59,12.79,12.79,0,0,0-1-2.83,3.88,3.88,0,0,0-2.06-2,.5.5,0,0,1,0-.43,41.94,41.94,0,0,0,4.74.83c-.83.4-1.78.29-2.75.67.65.55,1.47.53,2,1-.47.18-.9-.24-1.35.09.17.47.36.92.52,1.39a13.14,13.14,0,0,1,.36,7.27c-.13.55-.08.89.52,1.17,1.24.58,1.22.63,1.78-.69a2,2,0,0,0,.42-1.13,26.86,26.86,0,0,1,2-3.81,19.76,19.76,0,0,0,2.3-5.61,14.82,14.82,0,0,0-.59-10.06c-.71-1.54-1.27-3.15-1.89-4.73a7.4,7.4,0,0,0-1-1.74,28.67,28.67,0,0,0-4.08-4.38,2.13,2.13,0,0,0-.81-.54l.1.59-.17.16c-.5-.66-1-1.32-1.51-2a.7.7,0,0,0-.69-.36,7.57,7.57,0,0,1,.44,1.66,5.12,5.12,0,0,1-.56,2.41c-.17.31-.19.59.17.74,1,.43,1,1.2.8,2.08-.06.26-.1.52-.16.78-.49,2.14-.69,1.82,1,3.71.37.43.79.82,1.17,1.24s.69.48.9.85c-.2.25-.42.1-.6.15a2.58,2.58,0,0,0-1.11-.38,1.72,1.72,0,0,0-.91-.41.37.37,0,0,0-.46-.14l-.3-.09a.55.55,0,0,0-.53-.15.86.86,0,0,0-.53-.21c-.06-.17-.18-.18-.3-.08s0,.11.07.11a1.79,1.79,0,0,0,.35,1.18.45.45,0,0,0,.19.48.75.75,0,0,0,.2.52c0,.3,0,.6-.38.64l-1.32-.66a.14.14,0,0,0-.18-.15c-.08,0-.16.09,0,.18a1.77,1.77,0,0,0-.13.88.46.46,0,0,0-.08.52.69.69,0,0,0-.08.52.74.74,0,0,0-.15.71,1.91,1.91,0,0,0,0,1.57l0,1c-.18.52-.53,1-.17,1.59.28.27.42.54,0,.83a17.14,17.14,0,0,0-2,3.32,3.34,3.34,0,0,1-1.08,1.27,42,42,0,0,0-7.69,7.14q-4,4.56-8.26,8.81a11.56,11.56,0,0,1-4.11,2.71,24.7,24.7,0,0,1-7,1.47,8,8,0,0,1-3.06-.27c-3.51-1.15-6.95-2.5-10.48-3.6a24.09,24.09,0,0,1-3.67-1.26c.14-1.79.07-1.37-1.43-1.14a1.43,1.43,0,0,0-.27.09c-.24.1-.21.3-.21.5a33.51,33.51,0,0,1-3.79-1.18,33.74,33.74,0,0,1,4.19-1.05c2.78-.41,5.6-.66,8.36-1.29a16.13,16.13,0,0,0,5.8-2.5c.31-.21.25-.34,0-.47a4.32,4.32,0,0,1,.94-.52c1.43-.67,2.91-1.19,4.37-1.79a11.58,11.58,0,0,0,4.28.77,24.6,24.6,0,0,1,4.84.56c.06.43.14.86.16,1.29.11,1.75-.17,3-2.24,3.7,0,0,0,.06-.05.15l4.5,1.26a.51.51,0,0,0,.56-.11,3,3,0,0,0,.88-1.14c-.19-.28-.48-.28-.72-.37-.66-.25-1.31-.5-2-.73-.42-.14-.59-.36-.46-.82a6.88,6.88,0,0,0-.26-3.84,7.7,7.7,0,0,0-1.92-3.32c-.4-.45-.68-1-1.49-1-1.69.1-3.38.11-5.07.27-2.79.28-5.42,1.35-8.22,1.53a13.2,13.2,0,0,0-1.37.26,6.18,6.18,0,0,1-1.48.24c-.22-.54-.66-.46-1.1-.38a30.9,30.9,0,0,0-4.22,1.13l-2.44.84c0-.8,0-1.6,0-2.39,0-6.87,0-13.74-.05-20.6q-.07-7.25,0-14.5c0-1.93,0-3.86.16-5.79a1,1,0,0,1,.78-1,2.75,2.75,0,0,1,1-.08q9.84,0,19.7,0,7.84,0,15.69.16c1.6,0,3.2.08,4.79.19a19.07,19.07,0,0,1,5.9,1.46,30.72,30.72,0,0,1,9.31,5.52,35.24,35.24,0,0,1,3.08,3.27l1.57,3,.17,0Q227.94,85.94,228.39,79.25ZM207.71,86c-.19-.11-.42-.35-.56-.05s.18.27.36.32.1.3.31.27a6.1,6.1,0,0,0-3.33-.28,1.21,1.21,0,0,1-1.1-.37,13.7,13.7,0,0,1,2.41-.13,1.42,1.42,0,0,0,1.3.17,1.71,1.71,0,0,0-1.23-.69.84.84,0,0,0-.53-.17A1,1,0,0,0,205,85a22,22,0,0,0-5.56-.07l-1.44,0-1.8-.32a.46.46,0,0,0-.39-.1s-.15-.1-.14-.13c.09-.35.29-.7-.24-.92-.12,0,.06-.22.07-.34,0-.68-.14-1-.71-1.16,0-.19,0-.47-.25-.47-.64,0-1.25-.44-1.9-.09a1.3,1.3,0,0,0-.92.42l-.29.11a.44.44,0,0,0-.44.33,2.64,2.64,0,0,1-.76.5c-.61.22-.28.49,0,.76a1.41,1.41,0,0,0,.48.74.5.5,0,0,0,.32.44h0a.48.48,0,0,0,.23.42,1.72,1.72,0,0,1,1,1.17,1.11,1.11,0,0,0,1,.75c.11-.47-.14-1,.26-1.39.31.1.61.37,1,.26a.48.48,0,0,0,.4.09.56.56,0,0,0,.58.09l.46.09a39.3,39.3,0,0,0,1.76.22.37.37,0,0,0,.4.08,12.85,12.85,0,0,1,1.61.92,3.47,3.47,0,0,0,1.26.73.47.47,0,0,0,.53.21,1.28,1.28,0,0,0,1.16-.06c.61.05,1.11-.36,1.71-.35,0,.19.1.38.14.58a9.37,9.37,0,0,0,.67,2.38c.33.65.37.65-.26,1a11.4,11.4,0,0,0-2,1.34,2.71,2.71,0,0,0-.84,1.62c.53-.23.55-.76.93-1,.64-.41,1.25-.87,1.89-1.3.91-.61,1.28-.62,2.09.09a33.35,33.35,0,0,0,4.6,3.14,1.92,1.92,0,0,0,2.87-.69,3.25,3.25,0,0,0,.94-3.27,3.6,3.6,0,0,0-1.72-2,1.09,1.09,0,0,0-.64-.57,1.17,1.17,0,0,0-.56-.44A11.76,11.76,0,0,0,207.71,86Zm-4.49,12.89A2.89,2.89,0,0,0,201,98.7c2.14,3.65,4.2,7.25,6.41,11a7.42,7.42,0,0,0,.47-4.18c0-.45,0-.94-.71-1-.28,0-.35-.37-.48-.59a4.09,4.09,0,0,0-1.93-1.53c-.09-.76-.15-1.52-.26-2.27S204.17,99,203.22,98.93Zm-10-11.3c-.31,0-.6-.27-.94-.16-.09.33.13.52.26.73q1.2,2.13,2.42,4.24l3.41,6.07-9.59.15c-.74,0-.76,0-.76.77,0,2,0,4.07,0,6.1,0,2.9,0,5.79,0,8.69,0,.78,0,.77.77.76,3.89,0,7.79-.11,11.69-.14a6.89,6.89,0,0,0,4.94-2c.8-.77.79-.77.24-1.75l-3.18-5.65c.19-.42.06-.89.2-1.31.18.27.38.53.55.82q2.63,4.53,5.26,9.06c.11.2.14.53.53.5a2.52,2.52,0,0,0-.29-2.08c-2.91-4.92-5.77-9.86-8.66-14.79-1.79-3.07-3.62-6.12-5.38-9.21A1.25,1.25,0,0,0,193.2,87.63ZM255,115.08v.13h5.1a5.29,5.29,0,0,0,1.58-.18,8.86,8.86,0,0,0,6.49-7.26,5.63,5.63,0,0,0-.32-3.43,10.46,10.46,0,0,0-4.48-4.95,5.63,5.63,0,0,0-2.76-.75c-3.77,0-7.54,0-11.3,0-.72,0-.74,0-.74.71q-.06,7.44-.1,14.89c0,.79,0,.82.83.83C251.2,115.09,253.1,115.08,255,115.08Zm-29.25,25.35V122.76a21.18,21.18,0,0,0-1.95,2,46,46,0,0,1-4.35,3.66c-.62.45-.62.61-.25,1.23l6,10.15A1.27,1.27,0,0,0,225.75,140.43Zm-34.53-20.69a14.14,14.14,0,0,0,1.9,1.89,5.68,5.68,0,0,0,2.76,1.29,39.71,39.71,0,0,0,5.87.35.75.75,0,0,0,.67-.34,14.19,14.19,0,0,1,1.65-1.73c.19-.17.52-.32.43-.6a.8.8,0,0,0-.72-.42.65.65,0,0,1-.2,0,63.88,63.88,0,0,0-11.22-.84A1.61,1.61,0,0,0,191.22,119.74Zm18-20.31a6.5,6.5,0,0,1,0-1.71,1.11,1.11,0,0,0-.72-1.18,6.24,6.24,0,0,1-2.29-1.72c-.2-.24-.4-.52-.83-.32s-.71.45-.6,1a5.26,5.26,0,0,1,0,.89c0,.84.16,1,1,1,.44.06.92-.16,1.35.13-.06.35-.13.67-.18,1-.1.71-.08.84.6,1a1.47,1.47,0,0,1,1.16,1.31,12.1,12.1,0,0,0,.63,2.1c1.07-1.62,1.67-3.11,1.07-5C209.94,98.45,209.91,99.18,209.24,99.43Zm-17,34.18c-.07-.06-.12-.13-.17-.14l-3.77-.1c-.31,0-.39.19-.39.46,0,.56,0,1.12,0,1.69s.08.71.69.5a11.18,11.18,0,0,0,3.53-2.17C192.22,133.8,192.23,133.69,192.27,133.61Zm28.22-8-1.31-.14c-.32,0-.55.07-.41.44a5.71,5.71,0,0,0,.49,1.42A5,5,0,0,0,220.49,125.63Zm-8.46-1.7.07.07a.75.75,0,0,0,.06-.13s0-.05-.06-.07Zm3.73-2.62-.06-.12s-.06,0-.06.06a.45.45,0,0,0,.06.12Z"/><path class="cls-1" d="M150.73,90.4q5.36,17.25,10.63,34.53c0,.1,0,.2.07.3a17.78,17.78,0,0,0-1.59.92c-.38.27,0,.32.19.42-.05,0-.08.11-.13.14l-4.19,2.53a.58.58,0,0,1-.57,0c-.27-.11-.55-.22-.84-.31-5.29-1.67-10.57-3.41-15.9-5a2.28,2.28,0,0,1-1-.42,3.69,3.69,0,0,0-.09-.58q-2.17-7.47-4.36-14.94c-.08-.28,0-.67-.5-.87-1.44,4.86-3,9.62-4.71,14.35-.16.09-.3.34-.5.14a.78.78,0,0,0-.63-.23,35.55,35.55,0,0,1-3.56-.28,20.51,20.51,0,0,0-5-.21,6.08,6.08,0,0,0-2.4.64c-.31.16-.77.26-.71.79l0,0a1.43,1.43,0,0,0-1.24,1.39,6.07,6.07,0,0,0,1.56,4.67A39.27,39.27,0,0,0,126,136.59a51.82,51.82,0,0,0,7.32,3.2c3.15,1.16,6.36,2.19,9.45,3.52,2,.86,4.11,1.57,6.17,2.35.2.08.42.23.65,0,0-.33-.22-.55-.39-.79l-9.88-14.43c-1.18-1.73-2.39-3.45-3.58-5.18a55.59,55.59,0,0,1,7.81,2.21,1.18,1.18,0,0,0,.31.82l11.63,19.12a1.75,1.75,0,0,0,1,.81c1.42.48,2.82,1,4.23,1.51.17.06.36.22.58,0-.11-.26-.21-.53-.35-.8l-7.3-14.21c-.81-1.6-1.61-3.21-2.42-4.82.23.06.46.1.68.17,6.54,2,13.09,4.09,19.62,6.18q12.3,3.94,24.59,8c5.75,1.89,11.54,3.67,17.25,5.72s11.37,4.16,17.09,6.18c2.94,1,5.94,1.92,9,2.71,1.61.41,3.22.81,4.84,1.18a1.34,1.34,0,0,1-.65.2c-1.67.3-3.36.5-5,.71-2.74.35-5.48.75-8.24.86a78.87,78.87,0,0,1-10.08-.15c-1.92-.17-3.85-.26-5.76-.49-3.66-.45-7.31-1-11-1.49-4.9-.69-9.79-1.51-14.63-2.59-3.67-.82-7.32-1.74-11-2.57a49.8,49.8,0,0,0-5.3-.94,1.26,1.26,0,0,0,.36.19c3.08,1.08,6.25,1.86,9.4,2.72,1.8.5,3.61.94,5.41,1.41,0,1-.07,2.06-.12,3.09,0,.85-.37,1.17-1.24,1.22-.2,0-.4,0-.6,0h-36c-.87,0-1-.11-1.28-.95-.47-1.42-.92-2.85-1.38-4.27-.55-1.68-1.1-3.35-1.66-5-.31-.94-.32-.93-1.35-.94H121c-.2,0-.4,0-.6,0-.48,0-.71.14-.84.61-.39,1.42-.84,2.81-1.27,4.21-.37,1.24-.76,2.48-1,3.76,0,.09,0,.19-.08.28-.63,1.94-.9,2.12-2.91,2.14-2.47,0-4.93,0-7.39.08-3.53.13-7,.18-10.58.22-.83,0-1.67,0-2.49.08-1.08.09-1.54-.67-1.21-1.67,1.58-4.8,3.09-9.63,4.62-14.46q3.94-12.48,7.86-25c.21-.66.43-1.33.65-2l0,0c.06-.19.11-.39.17-.58v0l.15-.44c1-2.34,1.88-4.76,2.82-7.14a1.72,1.72,0,0,0,.13-.48c0-.26-.18-.32-.39-.35-1.19-.81-2.51-1.37-3.75-2.08a9.81,9.81,0,0,1-1-.55,1,1,0,0,1-.39-1.45c.35-.48.87-.53,1.49-.1,1.21.82,2.4,1.66,3.61,2.49a4.51,4.51,0,0,0,.44.22c.33.46.55.38.74-.12.48-1.27,1-2.54,1.46-3.81.28-.75.27-.75-.52-1.15-1.08-.79-2.27-1.39-3.4-2.09-1.45-.89-2.91-1.75-4.37-2.62a11.06,11.06,0,0,1-1.54-1.1c-.65-.58-.72-1-.3-1.64a1.42,1.42,0,0,1,1.85-.74,10,10,0,0,1,1.94,1.2l5.51,4.15a2.75,2.75,0,0,0,.91.59,1.34,1.34,0,0,0,1,.64c1-2.67,2.05-5.31,3.06-7.95L121.16,79c.36,0,.73,0,1.09,0l23.07,0a4.08,4.08,0,0,1,.7,0,1.54,1.54,0,0,1,1.27.81Z"/><path class="cls-2" d="M187.75,157.89c-1.8-.47-3.61-.91-5.41-1.41-3.15-.86-6.32-1.64-9.4-2.72a1.26,1.26,0,0,1-.36-.19,49.8,49.8,0,0,1,5.3.94c3.67.83,7.32,1.75,11,2.57,4.84,1.08,9.73,1.9,14.63,2.59,3.66.52,7.31,1,11,1.49,1.91.23,3.84.32,5.76.49a78.87,78.87,0,0,0,10.08.15c2.76-.11,5.5-.51,8.24-.86,1.68-.21,3.37-.41,5-.71a1.34,1.34,0,0,0,.65-.2c.26,0,.51.07.76.12s.35-.08.38-.31c.55.06.63.15.46.51a1.52,1.52,0,0,1-.74.63,12.36,12.36,0,0,1-2.2.89c-.41.13-.8.31-1.21.46a20.88,20.88,0,0,0-2.81.67,58.62,58.62,0,0,1-13.8,1.11,95.83,95.83,0,0,1-13.19-1.32c-3.82-.57-7.65-1.07-11.41-2-2.68-.64-5.36-1.33-8-2C190.88,158.5,189.31,158.21,187.75,157.89Z"/><path class="cls-2" d="M121.16,79l-5.78,15.12c-1,2.64-2,5.28-3.06,7.95a1.34,1.34,0,0,1-1-.64c1.58-4.41,2.86-8.91,4.22-13.38.84-2.74,1.78-5.43,2.69-8.13.27-.8.43-.92,1.31-.94C120.1,79,120.63,79,121.16,79Z"/><path class="cls-2" d="M228.39,79.25q-.46,6.69-.92,13.38l-.17,0-1.57-3c.09-2.29.19-4.58.27-6.87a10.44,10.44,0,0,0,0-1.58c-.14-1.3.32-2.19,1.82-2Z"/><path class="cls-2" d="M160,126.57c-.16-.1-.57-.15-.19-.42a17.78,17.78,0,0,1,1.59-.92c1.37-.55,2.7-1.19,4-1.84l2.44-.84a30.9,30.9,0,0,1,4.22-1.13c.44-.08.88-.16,1.1.38a1.37,1.37,0,0,1-.65.2,50.37,50.37,0,0,0-9.66,3.18C161.92,125.6,161,126.2,160,126.57Z"/><path class="cls-2" d="M110.75,103.71c.79.4.8.4.52,1.15-.49,1.27-1,2.54-1.46,3.81-.19.5-.41.58-.74.12Z"/><path class="cls-2" d="M108.62,110.26c.21,0,.41.09.39.35a1.72,1.72,0,0,1-.13.48c-.94,2.38-1.79,4.8-2.82,7.14l2.19-7C108.35,110.87,108.49,110.56,108.62,110.26Z"/><path class="cls-2" d="M105.73,119.28l0,0Z"/><path class="cls-2" d="M105.91,118.67v0Z"/><path class="cls-3" d="M160,126.57c1-.37,1.89-1,2.87-1.39a50.37,50.37,0,0,1,9.66-3.18,1.37,1.37,0,0,0,.65-.2,6.18,6.18,0,0,0,1.48-.24,13.2,13.2,0,0,1,1.37-.26c2.8-.18,5.43-1.25,8.22-1.53,1.69-.16,3.38-.17,5.07-.27.81,0,1.09.51,1.49,1,.39.77.8,1.53,1.16,2.31a2.38,2.38,0,0,1,.36,1.62,24.6,24.6,0,0,0-4.84-.56,11.58,11.58,0,0,1-4.28-.77c-.26-.35-.08-.6.16-.87s.58-.41.65-.91l-4.37.5c.12.43.61.42.66.82-4.12.77-7.8,3-12.11,3.59a1.35,1.35,0,0,0,1.12.26,44,44,0,0,0,4.87-.39,22.24,22.24,0,0,0,3.71-.69c.3.13.36.26,0,.47a16.13,16.13,0,0,1-5.8,2.5c-2.76.63-5.58.88-8.36,1.29a33.74,33.74,0,0,0-4.19,1.05,33.51,33.51,0,0,0,3.79,1.18,4.43,4.43,0,0,0,1.91.55,24.09,24.09,0,0,0,3.67,1.26c3.53,1.1,7,2.45,10.48,3.6a8,8,0,0,0,3.06.27,24.7,24.7,0,0,0,7-1.47,11.56,11.56,0,0,0,4.11-2.71q4.31-4.25,8.26-8.81a42,42,0,0,1,7.69-7.14,3.34,3.34,0,0,0,1.08-1.27,17.14,17.14,0,0,1,2-3.32,14,14,0,0,1,2.74.18,3.88,3.88,0,0,1,2.06,2,12.79,12.79,0,0,1,1,2.83,1,1,0,0,1,0,.59,7.66,7.66,0,0,1-2.75,2.77c.09-1.19.85-2.16.86-3.34a1.63,1.63,0,0,0-1.53,1.25,11.46,11.46,0,0,1-2.28,4.18c-.16.18-.25.49-.67.36,0-.65.56-1.24.4-2-.14,0-.22,0-.26,0-2.24,2.44-5,4.3-7.51,6.4-4,3.27-8.05,6.35-12.19,9.37a8.72,8.72,0,0,1-4.94,1.94c-.1,0-.2,0-.26.23,1.27.41,2.52.91,3.83,1.24.37.3.86.29,1.26.51a.6.6,0,0,0,.39.29c1,.26,2,.72,3,1.05a6.83,6.83,0,0,0,1.87.61c4.19,1.32,8.3,2.86,12.42,4.36,4.88,1.77,9.82,3.37,14.72,5.09,5.24,1.84,10.48,3.66,15.82,5.21a16.59,16.59,0,0,1,4.75,1.76c0,.23-.13.35-.38.31s-.5-.08-.76-.12c-1.62-.37-3.23-.77-4.84-1.18-3-.79-6-1.67-9-2.71-5.72-2-11.39-4.14-17.09-6.18s-11.5-3.83-17.25-5.72q-12.28-4-24.59-8c-6.53-2.09-13.08-4.13-19.62-6.18-.22-.07-.45-.11-.68-.17q-3.78-1.3-7.64-2.41a55.59,55.59,0,0,0-7.81-2.21c-1.54-.41-3.07-.85-4.61-1.22-5.23-1.25-10.5-2-15.88-1.12-.15,0-.34.11-.45-.06s.17-.32.2-.51l0,0a13.56,13.56,0,0,1,3.61-1c1.49-.08,3-.24,4.45-.26a35.55,35.55,0,0,0,3.56.28.78.78,0,0,1,.63.23c.2.2.34,0,.5-.14a2,2,0,0,0,.76.22,22.24,22.24,0,0,1,3.88.7c1.66.42,3.35.75,5,1.12a2.28,2.28,0,0,0,1,.42c5.33,1.54,10.61,3.28,15.9,5,.29.09.57.2.84.31a.58.58,0,0,0,.57,0l4.19-2.53S160,126.61,160,126.57Z"/><path class="cls-3" d="M212.63,112c-.36-.57,0-1.07.17-1.59a.7.7,0,0,0,0-1,1.91,1.91,0,0,1,0-1.57.58.58,0,0,0,.15-.71.69.69,0,0,1,.08-.52.4.4,0,0,0,.08-.52,1.77,1.77,0,0,1,.13-.88l.22,0,1.32.66c.19.22.41.27.57,0s.08-.5-.19-.67a.75.75,0,0,1-.2-.52.37.37,0,0,0-.19-.48,1.79,1.79,0,0,1-.35-1.18l.23,0a.86.86,0,0,1,.53.21.38.38,0,0,0,.53.15l.3.09a.37.37,0,0,0,.46.14,1.72,1.72,0,0,1,.91.41,1.19,1.19,0,0,0,1.11.38c.18,0,.4.1.6-.15-.21-.37-.63-.54-.9-.85s-.8-.81-1.17-1.24c-1.68-1.89-1.48-1.57-1-3.71.06-.26.1-.52.16-.78.21-.88.19-1.65-.8-2.08-.36-.15-.34-.43-.17-.74a5.12,5.12,0,0,0,.56-2.41,7.57,7.57,0,0,0-.44-1.66.7.7,0,0,1,.69.36c.51.65,1,1.31,1.51,2,.05.09.06.28.22.16s0-.22,0-.32l-.1-.59a2.13,2.13,0,0,1,.81.54,28.67,28.67,0,0,1,4.08,4.38,7.4,7.4,0,0,1,1,1.74c.62,1.58,1.18,3.19,1.89,4.73a14.82,14.82,0,0,1,.59,10.06,19.76,19.76,0,0,1-2.3,5.61,26.86,26.86,0,0,0-2,3.81,1.24,1.24,0,0,0-.42,1.13c-.56,1.32-.54,1.27-1.78.69-.6-.28-.65-.62-.52-1.17a13.14,13.14,0,0,0-.36-7.27c-.16-.47-.35-.92-.52-1.39.45-.33.88.09,1.35-.09-.57-.48-1.39-.46-2-1,1-.38,1.92-.27,2.75-.67a41.94,41.94,0,0,1-4.74-.83A5.43,5.43,0,0,0,212.63,112ZM218,93.54l-.11-.14s-.09.08-.08.13,0,.17.13.15S218,93.59,218,93.54Z"/><path class="cls-3" d="M205.8,85.8a13.7,13.7,0,0,0-2.41.13,1.21,1.21,0,0,0,1.1.37,6,6,0,0,1,3.33.29h0l.07,0a1.89,1.89,0,0,1,1,.18,15.94,15.94,0,0,1,2.51,1.43c.33.21.6.55,1,.54a1.17,1.17,0,0,1,.56.44.6.6,0,0,0,.64.57,3.6,3.6,0,0,1,1.72,2,3.25,3.25,0,0,1-.94,3.27.78.78,0,0,1-.44-.17,24.39,24.39,0,0,0-6.8-4.95c-.17-.08-.4-.16-.29-.44.39-.17.88.07,1.42-.32a5.4,5.4,0,0,1-2.34-1,2.51,2.51,0,0,0-1.72-.41,2.08,2.08,0,0,0-1.66.44,1.28,1.28,0,0,1-1.16.06.4.4,0,0,0-.53-.21,3.47,3.47,0,0,1-1.26-.73,12.85,12.85,0,0,0-1.61-.92c-.1-.19-.23-.27-.4-.08a1.45,1.45,0,0,1-.8-.09c-.28-.33-.62-.25-1-.13L195.4,86a.35.35,0,0,0-.58-.09.48.48,0,0,1-.4-.09c-.35-.31-.46-.53,0-.88s1-.21,1.34-.52a.46.46,0,0,1,.39.1,1.52,1.52,0,0,0,1.8.32l1.44,0A.82.82,0,0,0,200,85a25.19,25.19,0,0,1,4.07.15,2.65,2.65,0,0,0,1.28,0,.84.84,0,0,1,.53.17Z"/><path class="cls-3" d="M221.2,136.22c-.91-1.82-2-3.52-3-5.29-.37-.67-.37-.67.3-1.26a1.92,1.92,0,0,1,.52.71l6.77,11.41c1,1.73,2.12,3.43,3.07,5.2a5.9,5.9,0,0,0,1.09,1.15,64.61,64.61,0,0,1,5,6,6.23,6.23,0,0,1,1,1.9,5.75,5.75,0,0,1-1.47-.41c-1.49-.48-3-1-4.47-1.44a1,1,0,0,1-.78-.88c-.21-1.32-.47-2.63-.67-3.94a4.23,4.23,0,0,0-.57-1.58c-1-1.56-1.73-3.22-2.8-4.72-.61-1.31-1.41-2.53-2.14-3.78A29.88,29.88,0,0,0,221.2,136.22Z"/><path class="cls-3" d="M191.22,119.74a1.61,1.61,0,0,1,1.14-.42,63.88,63.88,0,0,1,11.22.84.65.65,0,0,0,.2,0,.8.8,0,0,1,.72.42c.09.28-.24.43-.43.6a14.19,14.19,0,0,0-1.65,1.73.75.75,0,0,1-.67.34,39.71,39.71,0,0,1-5.87-.35,5.68,5.68,0,0,1-2.76-1.29A14.14,14.14,0,0,1,191.22,119.74Z"/><path class="cls-2" d="M204.24,87.77a2.51,2.51,0,0,1,1.72.41,5.4,5.4,0,0,0,2.34,1c-.54.39-1,.15-1.42.32-.11.28.12.36.29.44a24.39,24.39,0,0,1,6.8,4.95.78.78,0,0,0,.44.17,1.92,1.92,0,0,1-2.87.69,33.35,33.35,0,0,1-4.6-3.14c-.81-.71-1.18-.7-2.09-.09-.64.43-1.25.89-1.89,1.3-.38.24-.4.77-.93,1a2.71,2.71,0,0,1,.84-1.62,11.4,11.4,0,0,1,2-1.34c.63-.35.59-.35.26-1a9.37,9.37,0,0,1-.67-2.38c0-.2-.1-.39-.14-.58S204.28,87.79,204.24,87.77Z"/><path class="cls-3" d="M193.2,87.63a1.25,1.25,0,0,1,1.43.76c1.76,3.09,3.59,6.14,5.38,9.21,2.89,4.93,5.75,9.87,8.66,14.79a2.52,2.52,0,0,1,.29,2.08c-.39,0-.42-.3-.53-.5q-2.64-4.53-5.26-9.06c-.17-.29-.37-.55-.55-.82a2.43,2.43,0,0,0-.39-.81l-4.86-8.38Z"/><path class="cls-2" d="M177.93,125.37a22.24,22.24,0,0,1-3.71.69,44,44,0,0,1-4.87.39,1.35,1.35,0,0,1-1.12-.26c4.31-.62,8-2.82,12.11-3.59-.05-.4-.54-.39-.66-.82l4.37-.5c-.07.5-.43.66-.65.91s-.42.52-.16.87c-1.46.6-2.94,1.12-4.37,1.79A4.32,4.32,0,0,0,177.93,125.37Z"/><path class="cls-2" d="M215.07,132.67l-.06.08c-1.58,1.85-3.69,2.2-6,2.08a25.5,25.5,0,0,1-5.47-1c.08-.06.15-.14.23-.19,1.69-1.1,1.69-1.12,3.7-.8a10.4,10.4,0,0,0,7.51-1.7,13.34,13.34,0,0,0,1.58-1.52c.07.52-.41.86-.41,1.35l0,0-.3.23c0,.37-.34.53-.54.78S215,132.37,215.07,132.67Z"/><path class="cls-3" d="M209.24,99.43c.67-.25.7-1,1.21-1.4.6,1.84,0,3.33-1.07,5a12.1,12.1,0,0,1-.63-2.1,1.47,1.47,0,0,0-1.16-1.31c-.68-.18-.7-.31-.6-1,0-.33.12-.65.18-1-.43-.29-.91-.07-1.35-.13-.82-.09-.95-.2-1-1a5.26,5.26,0,0,0,0-.89c-.11-.54.16-.78.6-1s.63.08.83.32a6.24,6.24,0,0,0,2.29,1.72,1.11,1.11,0,0,1,.72,1.18A6.5,6.5,0,0,0,209.24,99.43Z"/><path class="cls-2" d="M193.2,87.63l4.17,7.27,4.86,8.38a2.43,2.43,0,0,1,.39.81c-.14.42,0,.89-.2,1.31-1.22-1.89-2.24-3.88-3.39-5.8-.22-.37-.45-.73-.68-1.09l-3.41-6.07q-1.22-2.11-2.42-4.24c-.13-.21-.35-.4-.26-.73C192.6,87.36,192.89,87.58,193.2,87.63Z"/><path class="cls-2" d="M192.36,124.39a2.38,2.38,0,0,0-.36-1.62c-.36-.78-.77-1.54-1.16-2.31a7.7,7.7,0,0,1,1.92,3.32,6.88,6.88,0,0,1,.26,3.84c-.13.46,0,.68.46.82.66.23,1.31.48,2,.73.24.09.53.09.72.37a3,3,0,0,1-.88,1.14.51.51,0,0,1-.56.11l-4.5-1.26c0-.09,0-.14.05-.15,2.07-.65,2.35-1.95,2.24-3.7C192.5,125.25,192.42,124.82,192.36,124.39Z"/><path class="cls-3" d="M195.79,84.44c-.39.31-.92.21-1.34.52s-.38.57,0,.88c-.38.11-.68-.16-1-.26-.4.42-.15.92-.26,1.39a1.11,1.11,0,0,1-1-.75,1.72,1.72,0,0,0-1-1.17.48.48,0,0,1-.23-.42c.5,0,.68-.33.87-.69A2.22,2.22,0,0,1,194,82.73c.74,0,.74,0,.8-.84.57.21.75.48.71,1.16,0,.12-.19.29-.07.34.53.22.33.57.24.92C195.64,84.34,195.74,84.4,195.79,84.44Z"/><path class="cls-2" d="M221.2,136.22a29.88,29.88,0,0,1,1.88,3.11c.73,1.25,1.53,2.47,2.14,3.78-.14.49,0,1-.23,1.49a12.15,12.15,0,0,1-1.34-2.18c-.88-1.55-1.87-3-2.63-4.64C221.16,137.27,221,136.72,221.2,136.22Z"/><path class="cls-2" d="M200,135.68c-1.72,1-3.5,1.92-5.29,2.79-.36.17-.71.36-1.07.54a2.11,2.11,0,0,0-1.24,2.46c-.4-.22-.89-.21-1.26-.51.24-.51.49-1,.71-1.54a1.6,1.6,0,0,1,.86-.8A47.89,47.89,0,0,1,200,135.68Z"/><path class="cls-3" d="M194.77,81.89c-.06.81-.06.83-.8.84a2.22,2.22,0,0,0-2.13,1.21c-.19.36-.37.73-.87.69h0a.35.35,0,0,0-.32-.44,1.41,1.41,0,0,1-.48-.74l0-.76a2.64,2.64,0,0,0,.76-.5.38.38,0,0,0,.44-.33l.29-.11a.89.89,0,0,0,.92-.42c.65-.35,1.26.09,1.9.09C194.73,81.42,194.76,81.7,194.77,81.89Z"/><path class="cls-3" d="M216.19,131c0-.49.48-.83.41-1.35a3.36,3.36,0,0,0,.91-1.51,14.2,14.2,0,0,1,.67-1.43,2.32,2.32,0,0,1-.13,2.38A8.43,8.43,0,0,1,216.19,131Z"/><path class="cls-2" d="M204.8,102.34c-.53.21-.64-.16-.71-.53-.13-.58-.21-1.16-.32-1.74a2.26,2.26,0,0,0-.55-1.14c.95.1,1.2.3,1.32,1.14S204.71,101.58,204.8,102.34Z"/><path class="cls-3" d="M205.34,85.11a2.65,2.65,0,0,1-1.28,0A25.19,25.19,0,0,0,200,85a.82.82,0,0,1-.57-.13A22,22,0,0,1,205,85,1,1,0,0,1,205.34,85.11Z"/><path class="cls-3" d="M212.43,88.78c-.44,0-.71-.33-1-.54a15.94,15.94,0,0,0-2.51-1.43,1.89,1.89,0,0,0-1-.18l-.08,0-.05-.08h0c-.21,0-.27-.12-.31-.28l.2-.27A11.76,11.76,0,0,1,212.43,88.78Z"/><path class="cls-3" d="M220.49,125.63a5,5,0,0,1-1.23,1.72,5.71,5.71,0,0,1-.49-1.42c-.14-.37.09-.47.41-.44Z"/><path class="cls-1" d="M212.63,112a5.43,5.43,0,0,1,2.77.58.5.5,0,0,0,0,.43,14,14,0,0,0-2.74-.18C213.05,112.53,212.91,112.26,212.63,112Z"/><path class="cls-3" d="M198,84.86a1.52,1.52,0,0,1-1.8-.32Z"/><path class="cls-3" d="M204.24,87.77s.06,0,0,.09c-.6,0-1.1.4-1.71.35A2.08,2.08,0,0,1,204.24,87.77Z"/><path class="cls-3" d="M205.8,85.8l.07-.52a1.71,1.71,0,0,1,1.23.69A1.42,1.42,0,0,1,205.8,85.8Z"/><path class="cls-3" d="M215.16,105.18c.27.17.37.41.19.67s-.38.19-.57,0C215.2,105.78,215.18,105.48,215.16,105.18Z"/><path class="cls-3" d="M212.83,109.39a.7.7,0,0,1,0,1Z"/><path class="cls-3" d="M218.49,104.35a1.19,1.19,0,0,1-1.11-.38A2.58,2.58,0,0,1,218.49,104.35Z"/><path class="cls-4" d="M221.26,124.31a1.24,1.24,0,0,1,.42-1.13A2,2,0,0,1,221.26,124.31Z"/><path class="cls-3" d="M190.21,82.69l0,.76C189.93,83.18,189.6,82.91,190.21,82.69Z"/><path class="cls-3" d="M195.86,86.11c.34-.12.68-.2,1,.13A1.45,1.45,0,0,1,195.86,86.11Z"/><path class="cls-3" d="M192.62,81.33a.89.89,0,0,1-.92.42A1.3,1.3,0,0,1,192.62,81.33Z"/><path class="cls-3" d="M213.63,89.79a.6.6,0,0,1-.64-.57A1.09,1.09,0,0,1,213.63,89.79Z"/><path class="cls-3" d="M213,107.11a.58.58,0,0,1-.15.71A.74.74,0,0,1,213,107.11Z"/><path class="cls-3" d="M194.82,85.93a.35.35,0,0,1,.58.09A.56.56,0,0,1,194.82,85.93Z"/><path class="cls-3" d="M197.62,86.33c.17-.19.3-.11.4.08A.37.37,0,0,1,197.62,86.33Z"/><path class="cls-3" d="M214.77,104.18a.37.37,0,0,1,.19.48A.45.45,0,0,1,214.77,104.18Z"/><path class="cls-3" d="M216.47,103.56a.37.37,0,0,1-.46-.14A.37.37,0,0,1,216.47,103.56Z"/><path class="cls-3" d="M190.65,84.19a.35.35,0,0,1,.32.44A.5.5,0,0,1,190.65,84.19Z"/><path class="cls-1" d="M213.46,105.16l-.22,0c-.12-.09,0-.16,0-.18A.14.14,0,0,1,213.46,105.16Z"/><path class="cls-3" d="M191.41,81.86a.38.38,0,0,1-.44.33A.44.44,0,0,1,191.41,81.86Z"/><path class="cls-3" d="M213.11,106.07a.4.4,0,0,1-.08.52A.46.46,0,0,1,213.11,106.07Z"/><path class="cls-1" d="M214.65,103l-.23,0c-.09,0-.13-.06-.07-.11S214.59,102.8,214.65,103Z"/><path class="cls-3" d="M200.89,88.06a.4.4,0,0,1,.53.21A.47.47,0,0,1,200.89,88.06Z"/><path class="cls-3" d="M215.71,103.33a.38.38,0,0,1-.53-.15A.55.55,0,0,1,215.71,103.33Z"/><path class="cls-3" d="M207.51,86.31c-.18,0-.47-.11-.36-.32s.37-.06.56.05Z"/><path class="cls-1" d="M212,123.93l.07-.13s.07,0,.06.07a.75.75,0,0,1-.06.13Z"/><path class="cls-4" d="M215.91,131.22l.3-.23A.32.32,0,0,1,215.91,131.22Z"/><path class="cls-1" d="M215.76,121.31l-.06.06a.45.45,0,0,1-.06-.12s0,0,.06-.06Z"/><path class="cls-2" d="M115,122.39c0,.19-.34.28-.2.51s.3.08.45.06c5.38-.88,10.65-.13,15.88,1.12,1.54.37,3.07.81,4.61,1.22,1.19,1.73,2.4,3.45,3.58,5.18l9.88,14.43c.17.24.41.46.39.79-.23.19-.45,0-.65,0-2.06-.78-4.15-1.49-6.17-2.35-3.09-1.33-6.3-2.36-9.45-3.52a51.82,51.82,0,0,1-7.32-3.2,39.27,39.27,0,0,1-10.68-8.14,6.07,6.07,0,0,1-1.56-4.67A1.43,1.43,0,0,1,115,122.39Z"/><path class="cls-2" d="M143.56,127.51q3.85,1.11,7.64,2.41c.81,1.61,1.61,3.22,2.42,4.82l7.3,14.21c.14.27.24.54.35.8-.22.24-.41.08-.58,0-1.41-.5-2.81-1-4.23-1.51a1.75,1.75,0,0,1-1-.81l-11.63-19.12A1.18,1.18,0,0,1,143.56,127.51Z"/><path class="cls-2" d="M123.05,121.19c-1.49,0-3,.18-4.45.26a13.56,13.56,0,0,0-3.61,1c-.06-.53.4-.63.71-.79a6.08,6.08,0,0,1,2.4-.64A20.51,20.51,0,0,1,123.05,121.19Z"/><path class="cls-1" d="M218,93.54s0,.14-.06.14-.13-.08-.13-.15,0-.09.08-.13Z"/><path class="cls-1" d="M217.71,92.9c.06.1.2.22,0,.32s-.17-.07-.22-.16Z"/><polygon class="cls-1" points="207.79 86.59 207.84 86.67 207.92 86.63 207.85 86.59 207.79 86.59"/><path class="cls-1" d="M195.78,83.84c-.63-.75-1.13-.75-2.3-.67a1,1,0,0,0-.84.62c-.14.37.36.42.41.71-.05.06-.09.16-.13.16-1-.1-.9,0-1,1.3-.32-.38-.87-.16-1-.78.49,0,.55-.55.73-.94a2.53,2.53,0,0,1,3.1-1.54c.28-.31.07-.67.14-1,.67.22.85.46.73,1.27C195.56,83.31,195.78,83.5,195.78,83.84Z"/><path class="cls-1" d="M195.75,84.46c.37-.06,1.56.36,2,.06-.47-.13-1.18,0-1.65-.18-.29-.08-.23-.24-.13-.43A3,3,0,0,0,193.69,85a2,2,0,0,0-.35,1.49c.15-.19.24-.83.53-.67A2.37,2.37,0,0,1,195.75,84.46Z"/></svg>