<svg id="frames" xmlns="http://www.w3.org/2000/svg" viewBox="0 0 384 216"><defs><style>.cls-1{fill:#fff;}</style></defs><path class="cls-1" d="M207.25,128.9c-.63-.84-1.15-1.56-1.67-2.27-.14-.19-.27-.38-.39-.58s-.45-.52-.22-.81.63-.07.91.07a1.82,1.82,0,0,1,.58.53c1.36,1.76,2.8,3.46,4,5.35.59.94,1.48,1.61,2.13,2.5a19.37,19.37,0,0,0,4,3.88,19.94,19.94,0,0,1,2.56,2.79,54,54,0,0,1,3.48,4.36,2.09,2.09,0,0,0,1.87.91,8.82,8.82,0,0,1,3.38.77,2.26,2.26,0,0,1,.72.52.89.89,0,0,1,0,1.46,7.14,7.14,0,0,1-2.74,1.4,9,9,0,0,1-3.52.61,59.57,59.57,0,0,0-6.68.24,60,60,0,0,0-14.78,2.61c-3.58,1.14-7.19,2.2-10.72,3.53a58.18,58.18,0,0,0-5.63,2.56c-.75.38-1.49.74-2.24,1.1-.12.06-.26.11-.36,0a.29.29,0,0,1,0-.36,3.76,3.76,0,0,1,.57-.56c2.24-1.55,4.49-3.1,6.81-4.54,1.33-.83,1.31-.86.39-2.18a38,38,0,0,1-4.84-9.71c-.88-2.69-1.88-5.34-2.51-8.1-.39-1.72-.82-3.43-1.23-5.14a1.06,1.06,0,0,1-.06-.19c-.28-1.56.36-2.38,2-2.4,2.46,0,4.94-.11,7.39,0,2.19.13,4.37.31,6.56.5,1.72.14,3.43.34,5.15.48,1.56.13,3.09.44,4.64.66A3.59,3.59,0,0,0,207.25,128.9Z"/><path class="cls-1" d="M233.55,153c2.51,0,4.44,0,6.38,0a29.38,29.38,0,0,1,5.83.69,7.32,7.32,0,0,1,2.2.91,2.07,2.07,0,0,1,.47.37,1.39,1.39,0,0,1-.45,2.48,9,9,0,0,1-3.19.7,41.33,41.33,0,0,1-11.19-1.07c-3.73-.84-7.49-1.56-11.24-2.27a19.18,19.18,0,0,0-4.08-.26c-.34,0-.88.13-.92-.34s.51-.36.84-.42a58.48,58.48,0,0,1,7.24-.65C228.34,153,231.23,153.14,233.55,153Z"/><path class="cls-1" d="M242,117.34a.82.82,0,0,0,.1.26,4.69,4.69,0,0,1,.91,2.89,1.53,1.53,0,0,0,.38,1c1.64,1.83,3.28,3.66,4.9,5.51,1.13,1.3,2.24,2.62,3.35,3.94.14.16.46.33.19.56s-.52,0-.68-.19a22.75,22.75,0,0,0-1.76-1.91,35,35,0,0,0-3.2-3.13c-1.33-1.16-2.55-2.43-3.79-3.68-.11-.11-.19-.27-.45-.26a2.89,2.89,0,0,0-.06,1.34,19.33,19.33,0,0,0,1.15,5.63,2.14,2.14,0,0,1,.13.48c0,.31-.23.48-.53.36s-.4-.42-.52-.69a24.92,24.92,0,0,1-1.85-6.09,12.61,12.61,0,0,0-1.09-3.31c-.76-1.59-1.57-3.15-2.2-4.8a2.41,2.41,0,0,0-.71-1,22.92,22.92,0,0,1-2.93-3.51.79.79,0,0,1-.09-.91,6.81,6.81,0,0,1,1.19-1.71,1.59,1.59,0,0,1,2.1-.26,8,8,0,0,1,2.14,1.92,30.36,30.36,0,0,1,2.72,3.82,32.87,32.87,0,0,0,1.51,3c.17.23,0,.43-.24.51S242.15,117.1,242,117.34Z"/><path class="cls-1" d="M196.18,124.59a8.24,8.24,0,0,1-2.74-.45c-.71-.17-1.41-.38-2.12-.58-.22-.06-.49-.13-.39-.45s.3-.21.51-.17c.75.14,1.53.18,2.26.34,2.84.66,5.3-.25,7.66-1.7a40.5,40.5,0,0,1,3.72-2.31,2.28,2.28,0,0,1,1.35-.24c.5.08.59.37.24.75a14.62,14.62,0,0,1-2.19,1.73,17.71,17.71,0,0,1-7.1,3A8,8,0,0,1,196.18,124.59Z"/><path class="cls-1" d="M231.77,139.14c0,.29,0,.5-.23.58a.66.66,0,0,1-.81-.2,13.42,13.42,0,0,1-.94-1.42,65,65,0,0,0-6.63-9.43,26.56,26.56,0,0,0-2.83-3.08,7.54,7.54,0,0,1-.55-.58.34.34,0,0,1-.05-.45.38.38,0,0,1,.46-.1,4.29,4.29,0,0,1,1.2.87,50.76,50.76,0,0,1,4,4.43c1.73,2.15,3.36,4.37,4.87,6.67.46.7.87,1.42,1.28,2.14A2.94,2.94,0,0,1,231.77,139.14Z"/></svg>