<svg id="frames" xmlns="http://www.w3.org/2000/svg" viewBox="0 0 384 216"><defs><style>.cls-1{fill:#0e1b32;}.cls-2{fill:#fd0101;}.cls-3{fill:#f5f6f7;}.cls-4{fill:#d6d7d0;}.cls-5{fill:#0f1b33;}</style></defs><path class="cls-1" d="M165.45,123c0-2.79,0-5.59,0-8.39.06-9.89-.21-19.78-.11-29.68,0-1.63.08-3.26.16-4.89a1,1,0,0,1,.72-1,2.82,2.82,0,0,1,1.08-.1q9.86,0,19.69,0,7.85,0,15.69.16a49.11,49.11,0,0,1,5.68.29,29.89,29.89,0,0,1,15.73,8.28c.57.6,1.09,1.25,1.63,1.88.17.21.21.55.63.67.25-3.73.5-7.4.75-11.07,3.1-.06,6.19-.07,9.29,0h.9c5.53,0,11.07-.1,16.6,0,3.86.07,7.73,0,11.59.16a26.73,26.73,0,0,1,17.36,7.09,25.81,25.81,0,0,1,8.26,15A26.34,26.34,0,0,1,284.85,124a26.65,26.65,0,0,1-16.05,9,28.8,28.8,0,0,1-5.16.4H249c-.44,0-.59.22-.57.62,0,.14,0,.27,0,.4-.18,8.6,0,17.19-.08,25.79,0,.27,0,.53,0,.8a1.27,1.27,0,0,1-1.36,1.39c-.76,0-1.53,0-2.3,0-1.36,0-2.73-.07-4.09-.11a10.07,10.07,0,0,1,1.77-.63,12.5,12.5,0,0,0,2.28-.92,1.35,1.35,0,0,0,.72-.65c.16-.35,0-.45-.49-.47a10.23,10.23,0,0,0-2.92-1.25l-2.49-.71c-4.85-1.41-9.62-3.08-14.39-4.75-3.58-1.25-7.18-2.41-10.76-3.66-5.45-1.92-10.88-3.88-16.31-5.82a5.63,5.63,0,0,1-1.64-.68,2.31,2.31,0,0,1,1,.17c3,1,6,1.93,9,2.95,4,1.37,7.89,2.87,11.87,4.19,2.25.74,4.47,1.53,6.71,2.29,1,.34,1,.32,1-.78,0-1.33-.06-2.67-.07-4a3,3,0,0,0-.4-1.42,7.2,7.2,0,0,1-.94-1.75c.07-.5.15-1,.22-1.51.89,1.29,1.57,2.71,2.4,4a7,7,0,0,1,1.09,3.07c.12,1,.39,2,.52,3.05a1.09,1.09,0,0,0,.92,1c1.66.51,3.3,1.07,4.94,1.6.28.09.55.28.86.1a1.76,1.76,0,0,0-.42-.88,51,51,0,0,0-6.27-7.63c-.13-.14-.34-.21-.43-.41a39.27,39.27,0,0,0-2.41-4.1q-3.74-6.37-7.53-12.72c-.13-.21-.18-.51-.5-.56-.56.65-.57.65-.18,1.33,1,1.74,2,3.47,3,5.2-.22.52,0,1.08-.17,1.6-.11-.16-.25-.3-.35-.47l-3.12-5.33c-.5-.87-.63-.89-1.39-.2a5.09,5.09,0,0,1-1.09.87c0-.59.55-.84.79-1.27.12,0,.2-.09.2-.22v0a11.37,11.37,0,0,0,1.92-2c.67-.81.5-1.63.22-2.67a22.21,22.21,0,0,1-1.32,2.84,21.05,21.05,0,0,1-1.86,1.8,10.32,10.32,0,0,1-7.5,1.7c-2.13-.34-2.13-.32-3.92,1-1.19.62-2.33,1.3-3.57,1.81a9.09,9.09,0,0,0-2.17.73c-1.58.64-3.14,1.3-4.7,2a2.23,2.23,0,0,0-1.29,1c-.23.52-.48,1-.72,1.54-1.35-.35-2.64-.85-4-1.3a.35.35,0,0,1,.38-.18,8.3,8.3,0,0,0,4.7-1.76c2.71-1.92,5.37-3.94,8-6,1.84-1.42,3.59-3,5.44-4.38a50.25,50.25,0,0,0,6.5-5.6s.11,0,.22-.08c.27.79-.38,1.43-.44,2.16.41.06.49-.24.66-.42a12,12,0,0,0,2.42-4.44c.25-.76.75-1,1.55-1.11-.2,1.22-.76,2.25-1,3.38.12,0,.2,0,.24,0a8.5,8.5,0,0,0,2.51-2.66.84.84,0,0,0,.06-.77,12.41,12.41,0,0,0-.94-2.73,3.71,3.71,0,0,0-2.11-2.11.57.57,0,0,1,.08-.42,40.44,40.44,0,0,0,4.9.8c-1,.44-2,.25-3,.77l2.1.88a1.27,1.27,0,0,1-.63.05c-.23,0-.46-.13-.67,0s0,.39.09.56a13,13,0,0,1,.8,7.63,3,3,0,0,0-.14,1.27c.06.48.83.27.82.81-.31.26-.75-.08-1.06.27l.53,1.7c.16-.1.26-.13.31-.2a15.35,15.35,0,0,0,1.3-2,4.38,4.38,0,0,0,.67-1.33,18,18,0,0,1,2.06-4.31,21.31,21.31,0,0,0,3-9.43,10,10,0,0,0-.43-4.24c-.83-2.49-1.87-4.91-2.83-7.35a5.93,5.93,0,0,0-1-1.53,27.69,27.69,0,0,0-3.45-3.73c-.25-.22-.5-.69-.88-.43s.11.59.11.91a1.45,1.45,0,0,1-.07.24c-.24-.38-.45-.7-.64-1A11.78,11.78,0,0,0,215.63,91c-.11-.12-.23-.26-.42-.17s-.12.28-.07.43a4.5,4.5,0,0,1-.65,3.82,3.86,3.86,0,0,0,.57.39,1.28,1.28,0,0,1,.73,1.65c-.17.71-.27,1.44-.46,2.14a1.71,1.71,0,0,0,.4,1.75,26.81,26.81,0,0,0,2.56,2.66c.14.12.37.2.19.55-1.56-.25-2.92-1.29-4.59-1.42.18,1,.72,1.84.94,2.87A4.45,4.45,0,0,1,213,105a.15.15,0,0,0-.19-.16c-.09,0-.17.09-.05.2l-.49,2.82a1.14,1.14,0,0,0,0,1.09,5,5,0,0,1,0,1.34.53.53,0,0,0-.17.54.84.84,0,0,0,0,1c.25.38.66.14,1,.27s.49.1.28.44a1.41,1.41,0,0,0-1.84.9c-.43.9-1,1.73-1.43,2.63a3,3,0,0,1-.95,1.12c-1.15.9-2.35,1.73-3.46,2.7a58.09,58.09,0,0,0-4.33,4.55c-2.66,2.89-5.28,5.83-8.08,8.58a11.58,11.58,0,0,1-4.15,2.83,25.24,25.24,0,0,1-7.49,1.54,9.28,9.28,0,0,1-3.42-.53c-3.4-1.15-6.76-2.44-10.2-3.5-.92-.28-1.82-.62-2.73-.93,0-.07,0-.13,0-.2,0-1.76.15-1.48-1.47-1.23-.58.09-.62.37-.5.82a26.94,26.94,0,0,1-4-1.3,28.46,28.46,0,0,1,4.17-1.09c2.67-.38,5.35-.63,8-1.22a16.78,16.78,0,0,0,5.93-2.52c.28-.19.3-.32,0-.49a3,3,0,0,1,.86-.49c1.43-.69,2.94-1.21,4.41-1.81a11.83,11.83,0,0,0,4.29.76,23.28,23.28,0,0,1,4.84.58c.06.52.16,1,.18,1.58a2.9,2.9,0,0,1-2.16,3.36c-.05,0-.08.09-.16.19,1.37.38,2.72.7,4,1.14a1.09,1.09,0,0,0,1.45-.43c.16-.24.44-.41.43-.81-.85-.32-1.71-.66-2.58-.95a.68.68,0,0,1-.52-1,7.42,7.42,0,0,0-.38-4,4.63,4.63,0,0,0-1.22-2.13v0a.35.35,0,0,0-.22-.41v0a.56.56,0,0,0-.4-.54,1.89,1.89,0,0,0-2.09-.94c-.89.08-1.79,0-2.69.09-3.77.19-7.36,1.47-11.09,1.89-.23,0-.45.1-.68.14s-.73.1-1.09.15a.65.65,0,0,0-.8-.42c-.36.07-.72.13-1.07.21A49.1,49.1,0,0,0,165.45,123Zm28.92-41.19c-.07-.28-.08-.62-.46-.66a3.38,3.38,0,0,0-2.49.22,4.74,4.74,0,0,0-1.19.84c-.2.26-.74.11-.75.54a1.78,1.78,0,0,0,.47,1c.2.3.44.57.67.86,0,.08,0,.22.11.25a1.8,1.8,0,0,1,1,1.15.94.94,0,0,0,1.09.72c-.35-2,1.17-2.48,2.63-3a1.2,1.2,0,0,1-.42-1.17C195,82.2,195,81.68,194.37,81.84Zm10,20.31c-.09-.79-.15-1.58-.28-2.35s-.4-1-1.28-1a3.27,3.27,0,0,0-2.11-.11c2.22,3.79,4.36,7.51,6.63,11.34a7.89,7.89,0,0,0,.47-5.35c-.06-.3-.26-.36-.52-.32-.53.08-.76-.22-1-.65A4,4,0,0,0,204.34,102.15Zm-2.18,1.75c.15.22.32.43.45.66,1.74,3,3.47,6,5.22,9a1.64,1.64,0,0,0,.63.81,2.24,2.24,0,0,0-.19-2q-7.07-12.06-14.1-24.13a1.26,1.26,0,0,0-1.43-.76c-.31,0-.59-.29-.94-.13,0,.42.25.69.42,1,1.14,2,2.31,4,3.45,6,.78,1.38,1.65,2.72,2.32,4.17l-9,.14c-1,0-1-.24-1,1v8.9c0,1.9,0,3.8,0,5.7,0,.69,0,.69.64.69,4.06,0,8.13-.08,12.2-.17a6.74,6.74,0,0,0,4.77-2.21.62.62,0,0,0,.07-.88c-.27-.42-.51-.86-.75-1.3-1-1.75-2.06-3.43-2.92-5.23Zm2.46-19a1.12,1.12,0,0,0-.74-.11c-.22-.18-.5-.12-.76-.14-2-.12-3.94,0-5.91,0a1.37,1.37,0,0,0-.75-.09.42.42,0,0,0-.48-.13,2.27,2.27,0,0,0-2.52.56c-.27.33-.22.53.18.64a9.27,9.27,0,0,0,1.47.27A8.33,8.33,0,0,1,200,87.67a2.39,2.39,0,0,0,2.45.34,3.5,3.5,0,0,1,1.43-.35A8.32,8.32,0,0,0,205,91.13a2.91,2.91,0,0,1-1,.68,6.63,6.63,0,0,0-1.81,1.39,1.54,1.54,0,0,0-.5,1.39,8.6,8.6,0,0,1,2.73-2.34c.93-.58,1.2-.6,2,.1a32.91,32.91,0,0,0,4.69,3.2c1.08.66,2,.4,2.78-.72a2.07,2.07,0,0,1,.17-.24,2.91,2.91,0,0,0-.06-4.31c-.49-.45-1-.88-1.52-1.3a14.9,14.9,0,0,0-4.92-3,3.7,3.7,0,0,0-1.43-.6.79.79,0,0,0-.56-.23A1.17,1.17,0,0,0,204.62,84.86ZM255,115.09v.12h5.1a4.7,4.7,0,0,0,1.49-.15,8.86,8.86,0,0,0,6.58-7.29,5.63,5.63,0,0,0-.34-3.43,10.58,10.58,0,0,0-4.39-4.91,5.8,5.8,0,0,0-2.86-.78c-3.76,0-7.53,0-11.29,0-.71,0-.74,0-.73.72.07,4.93-.12,9.86-.1,14.79,0,.9,0,.92.95.93C251.28,115.1,253.15,115.09,255,115.09Zm-29.26,7.75c-.14,0-.22,0-.26.08a34.53,34.53,0,0,1-6.56,5.8c-.38.25-.35.46-.14.81l6.54,11.09c.09.15.14.39.42.32Zm-35-3.3a10.87,10.87,0,0,0,2.17,2.12,5.28,5.28,0,0,0,2.34,1,37.11,37.11,0,0,0,6.05.38.71.71,0,0,0,.53-.22c.67-.7,1.36-1.37,2-2.08.33-.35.25-.56-.21-.71-.13,0-.26,0-.39-.08a66.93,66.93,0,0,0-11.31-.86A1.7,1.7,0,0,0,190.78,119.54Zm16-22.34c-.09.42-.14.72-.2,1-.15.9-.16,1,.71,1.22a1.36,1.36,0,0,1,1,1.11,8.22,8.22,0,0,0,.71,2.22c1-1.6,1.65-3.07,1-4.9-.52.37-.51,1.13-1.2,1.38a5.4,5.4,0,0,1,0-1.61,1.18,1.18,0,0,0-.73-1.28,6.06,6.06,0,0,1-2.29-1.72c-.21-.24-.41-.53-.83-.3s-.68.37-.6.89a5.27,5.27,0,0,1,0,1.19.66.66,0,0,0,.7.78C205.61,97.22,206.14,97.2,206.76,97.2ZM188,135.79a7.47,7.47,0,0,0,3.73-2.36c-1.24,0-2.38,0-3.52,0-.26,0-.28.24-.28.44A10.79,10.79,0,0,0,188,135.79Zm23.48-12s-.06,0-.06.06a.67.67,0,0,0,.06.12s.06,0,0,0A.29.29,0,0,0,211.49,123.8Zm5.94-31.33.07.13s.07,0,.06-.07a.75.75,0,0,0-.06-.13Z"/><path class="cls-1" d="M150.81,90.7c3.62,11.35,7,22.77,10.53,34.16-.63.35-1.27.69-1.9,1-.48.27-.11.36.12.48,0,0,0,0-.06.07-1.33,1-2.89,1.64-4.25,2.6-.25.18-.51.05-.76,0-4.55-1.48-9.08-3-13.67-4.33a22.15,22.15,0,0,1-3.4-1.11c0-.13,0-.27,0-.39q-2.22-7.62-4.46-15.24c-.07-.23,0-.54-.38-.72a3.24,3.24,0,0,0-.35.89c-.87,2.62-1.59,5.29-2.53,7.89-.65,1.79-1.22,3.6-1.83,5.39-1.78,0-3.55-.24-5.33-.41a19.85,19.85,0,0,0-4.87-.2,6.62,6.62,0,0,0-2.31.59c-1.53.73-2.34,2-2,3.39a7.77,7.77,0,0,0,1.9,3.86,41.29,41.29,0,0,0,9.74,7.41,48.78,48.78,0,0,0,7.92,3.53c2.67,1,5.35,1.88,8,2.92,2.35.94,4.69,1.89,7.06,2.76a3.52,3.52,0,0,0,1.5.39c-.17-.27-.27-.44-.38-.6q-5-7.2-9.88-14.42l-3.81-5.5a51.22,51.22,0,0,1,7.68,2.16,7.94,7.94,0,0,0,.34.72q5.87,9.65,11.73,19.28a1.71,1.71,0,0,0,1,.79c1.35.46,2.69,1,4,1.45.2.07.41.24.66.07.07-.33-.14-.57-.27-.82-2.44-4.77-4.9-9.53-7.34-14.31-.8-1.57-1.67-3.1-2.37-4.72.23.05.46.08.68.15,6.6,2.08,13.21,4.18,19.81,6.25,8.87,2.77,17.67,5.73,26.5,8.61,4.78,1.55,9.58,3.07,14.32,4.73,6,2.09,11.9,4.32,17.86,6.44,2.82,1,5.69,1.87,8.59,2.62,1.74.44,3.49.85,5.23,1.27a1.55,1.55,0,0,1-.75.24c-1.6.31-3.23.47-4.84.68-2.81.37-5.62.77-8.45.88a83.8,83.8,0,0,1-10.39-.17c-1.75-.15-3.51-.25-5.26-.47-3.34-.41-6.66-.89-10-1.35a201.38,201.38,0,0,1-21.38-4.06c-3.5-.86-7-1.69-10.6-2.22a7,7,0,0,0,1.68.67c2.76.78,5.52,1.56,8.28,2.32,1.9.51,3.8,1,5.71,1.48,0,1.07-.07,2.13-.12,3.2,0,.79-.37,1.12-1.17,1.17-.2,0-.4,0-.6,0h-35.7c-1.32,0-1.34,0-1.74-1.28-1-3-2-6-2.95-9-.29-.87-.31-.89-1.18-.89h-23.8c-.79,0-.79,0-1,.77-.75,2.59-1.66,5.14-2.26,7.77a7.93,7.93,0,0,1-.63,1.57,1.46,1.46,0,0,1-1.44.89c-1.26,0-2.53,0-3.79.06-3.26.08-6.53.08-9.79.13-2.49,0-5,.12-7.48.18-.24,0-.47,0-.7,0a1,1,0,0,1-1-1.23,5.16,5.16,0,0,1,.2-.67q5.46-17.19,10.92-34.38c1.62-5.11,3.22-10.23,4.86-15.33.18-.54,0-.71-.4-.91-.92-.48-1.83-1-2.74-1.46a1.86,1.86,0,0,1-.83-.69.93.93,0,0,1,1.26-1.29c.54.33,1,.72,1.56,1.08L109,108.7a6.05,6.05,0,0,0,.61-1.63c.31-.92.57-1.85.9-2.75a.79.79,0,0,0-.43-1.13c-2.07-1.2-4.12-2.46-6.18-3.69a9.8,9.8,0,0,1-1.54-1.1c-.66-.57-.73-1-.32-1.64a1.4,1.4,0,0,1,1.84-.74,9.6,9.6,0,0,1,1.63,1c1.74,1.29,3.46,2.6,5.2,3.9l.54.38a9,9,0,0,0,1.12-2.94c.35-1,.61-2,.91-2.94.36,0,.32-.39.4-.6.45-1.11.87-2.23,1.29-3.35l4.74-12.39c.43,0,.87-.06,1.3-.06h24.38c1.39,0,1.71.28,2.21,1.55Z"/><path class="cls-2" d="M187.75,157.82c-1.91-.49-3.81-1-5.71-1.48-2.76-.76-5.52-1.54-8.28-2.32a7,7,0,0,1-1.68-.67c3.6.53,7.1,1.36,10.6,2.22a201.38,201.38,0,0,0,21.38,4.06c3.33.46,6.65.94,10,1.35,1.75.22,3.51.32,5.26.47a83.8,83.8,0,0,0,10.39.17c2.83-.11,5.64-.51,8.45-.88,1.61-.21,3.24-.37,4.84-.68a1.55,1.55,0,0,0,.75-.24l.76.13c.25.05.35-.09.41-.29.54,0,.65.12.49.47a1.35,1.35,0,0,1-.72.65,12.5,12.5,0,0,1-2.28.92,10.07,10.07,0,0,0-1.77.63,14,14,0,0,0-2.24.49,58.31,58.31,0,0,1-13.7,1.11,97.38,97.38,0,0,1-13.2-1.31c-3.88-.58-7.77-1.09-11.59-2-2.62-.63-5.23-1.32-7.86-1.91A41.82,41.82,0,0,0,187.75,157.82Z"/><path class="cls-2" d="M119.75,79.05,115,91.44c-.42,1.12-.84,2.24-1.29,3.35-.08.21,0,.55-.4.6,1-3.3,2-6.59,3.06-9.87.58-1.84,1.23-3.65,1.85-5.47C118.55,79.1,118.68,79,119.75,79.05Z"/><path class="cls-2" d="M159.56,126.39c-.23-.12-.6-.21-.12-.48.63-.36,1.27-.7,1.9-1l4.11-1.83a49.1,49.1,0,0,1,5.43-1.63c.35-.08.71-.14,1.07-.21a.65.65,0,0,1,.8.42,2.28,2.28,0,0,1-.36.15,47.67,47.67,0,0,0-9.4,3C161.83,125.27,160.7,125.84,159.56,126.39Z"/><path class="cls-2" d="M227.09,79.25c-.25,3.67-.5,7.34-.75,11.07-.42-.12-.46-.46-.63-.67a5.08,5.08,0,0,0,.11-1.29c.06-2,.11-4,.2-6,0-.51-.05-1-.07-1.49A1.38,1.38,0,0,1,227.09,79.25Z"/><path class="cls-3" d="M159.56,126.39c1.14-.55,2.27-1.12,3.43-1.62a47.67,47.67,0,0,1,9.4-3,2.28,2.28,0,0,0,.36-.15c.36,0,.73-.09,1.09-.15s.45-.12.68-.14c3.73-.42,7.32-1.7,11.09-1.89.9-.05,1.8,0,2.69-.09a1.89,1.89,0,0,1,2.09.94c.07.23.12.47.4.54v0a.3.3,0,0,0,.22.41v0a5.44,5.44,0,0,0,.58,1.44,2.59,2.59,0,0,1,.34,1.59,23.28,23.28,0,0,0-4.84-.58,11.83,11.83,0,0,1-4.29-.76.56.56,0,0,1,.1-.8,3,3,0,0,0,.77-.94c-1.54,0-3,.33-4.43.44.13.44.61.46.63.85-4.12.77-7.78,2.95-11.9,3.64a1.15,1.15,0,0,0,1,.21c1.66-.11,3.33-.16,5-.42a21.31,21.31,0,0,0,3.63-.68c.29.17.27.3,0,.49a16.78,16.78,0,0,1-5.93,2.52c-2.64.59-5.32.84-8,1.22a28.46,28.46,0,0,0-4.17,1.09,26.94,26.94,0,0,0,4,1.3,4.83,4.83,0,0,0,2,.61c.91.31,1.81.65,2.73.93,3.44,1.06,6.8,2.35,10.2,3.5a9.28,9.28,0,0,0,3.42.53,25.24,25.24,0,0,0,7.49-1.54,11.58,11.58,0,0,0,4.15-2.83c2.8-2.75,5.42-5.69,8.08-8.58a58.09,58.09,0,0,1,4.33-4.55c1.11-1,2.31-1.8,3.46-2.7a3,3,0,0,0,.95-1.12c.44-.9,1-1.73,1.43-2.63a1.41,1.41,0,0,1,1.84-.9,3.9,3.9,0,0,0,1.47.3,3.71,3.71,0,0,1,2.11,2.11,12.41,12.41,0,0,1,.94,2.73.84.84,0,0,1-.06.77,8.5,8.5,0,0,1-2.51,2.66s-.12,0-.24,0c.26-1.13.82-2.16,1-3.38-.8.12-1.3.35-1.55,1.11a12,12,0,0,1-2.42,4.44c-.17.18-.25.48-.66.42.06-.73.71-1.37.44-2.16-.11,0-.18,0-.22.08a50.25,50.25,0,0,1-6.5,5.6c-1.85,1.42-3.6,3-5.44,4.38-2.64,2-5.3,4.05-8,6a8.3,8.3,0,0,1-4.7,1.76.35.35,0,0,0-.38.18c1.32.45,2.61,1,4,1.3.27.37.78.31,1.09.6,1.41.47,2.79,1.05,4.24,1.41l.39,0v0a5.63,5.63,0,0,0,1.64.68c5.43,1.94,10.86,3.9,16.31,5.82,3.58,1.25,7.18,2.41,10.76,3.66,4.77,1.67,9.54,3.34,14.39,4.75l2.49.71a10.23,10.23,0,0,1,2.92,1.25c-.06.2-.16.34-.41.29l-.76-.13c-1.74-.42-3.49-.83-5.23-1.27-2.9-.75-5.77-1.61-8.59-2.62-6-2.12-11.88-4.35-17.86-6.44-4.74-1.66-9.54-3.18-14.32-4.73-8.83-2.88-17.63-5.84-26.5-8.61-6.6-2.07-13.21-4.17-19.81-6.25-.22-.07-.45-.1-.68-.15-2.56-.91-5.16-1.72-7.77-2.46a51.22,51.22,0,0,0-7.68-2.16,76.84,76.84,0,0,0-10.41-2.35,35.8,35.8,0,0,0-10.59,0c.06-.48.35-.54.57-.66a8.11,8.11,0,0,1,3-.87c1.52-.14,3-.27,4.57-.29,1.78.17,3.55.36,5.33.41a1.66,1.66,0,0,0,.37.14c2.63.4,5.2,1.07,7.78,1.69a4.53,4.53,0,0,0,1.45.35,22.15,22.15,0,0,0,3.4,1.11c4.59,1.34,9.12,2.85,13.67,4.33.25.08.51.21.76,0,1.36-1,2.92-1.6,4.25-2.6C159.53,126.44,159.54,126.41,159.56,126.39Z"/><path class="cls-3" d="M212.33,110.28a5,5,0,0,0,0-1.34,1.63,1.63,0,0,0,0-1.09l.49-2.82.24,0a4.45,4.45,0,0,0,1.81.66c-.22-1-.76-1.86-.94-2.87,1.67.13,3,1.17,4.59,1.42.18-.35,0-.43-.19-.55a26.81,26.81,0,0,1-2.56-2.66,1.71,1.71,0,0,1-.4-1.75c.19-.7.29-1.43.46-2.14a1.28,1.28,0,0,0-.73-1.65,3.86,3.86,0,0,1-.57-.39,4.5,4.5,0,0,0,.65-3.82c0-.15-.12-.33.07-.43s.31,0,.42.17a11.78,11.78,0,0,1,1.29,1.77c.19.34.4.66.64,1a1.45,1.45,0,0,0,.07-.24c0-.32-.44-.68-.11-.91s.63.21.88.43a27.69,27.69,0,0,1,3.45,3.73,5.93,5.93,0,0,1,1,1.53c1,2.44,2,4.86,2.83,7.35a10,10,0,0,1,.43,4.24,21.31,21.31,0,0,1-3,9.43,18,18,0,0,0-2.06,4.31,4.38,4.38,0,0,1-.67,1.33,1.35,1.35,0,0,1-1-.24,2.12,2.12,0,0,0-.89-.36,3,3,0,0,1,.14-1.27,13,13,0,0,0-.8-7.63c-.07-.17-.21-.35-.09-.56s.44-.06.67,0a1.27,1.27,0,0,0,.63-.05l-2.1-.88c1-.52,2-.33,3-.77a40.44,40.44,0,0,1-4.9-.8,5.16,5.16,0,0,0-2.81-.59.84.84,0,0,1,0-1A.39.39,0,0,0,212.33,110.28Z"/><path class="cls-3" d="M205.61,85.19a.79.79,0,0,1,.56.23v.35a7.46,7.46,0,0,0-3.12,0,1.41,1.41,0,0,0,1.35.27,3.52,3.52,0,0,1,2.41.24c.62.45.69.42.79-.29a14.9,14.9,0,0,1,4.92,3c.52.42,1,.85,1.52,1.3a2.91,2.91,0,0,1,.06,4.31,2.07,2.07,0,0,0-.17.24,8.38,8.38,0,0,1-1.78-1.41,20.25,20.25,0,0,0-5.3-3.64c-.19-.08-.46-.14-.43-.49.39-.19.87,0,1.27-.31a6,6,0,0,1-2.24-1,1.77,1.77,0,0,0-1.6-.3,3.5,3.5,0,0,0-1.43.35,2.39,2.39,0,0,1-2.45-.34,8.33,8.33,0,0,0-4.86-1.77,9.27,9.27,0,0,1-1.47-.27c-.4-.11-.45-.31-.18-.64a2.27,2.27,0,0,1,2.52-.56.34.34,0,0,0,.48.13,1.37,1.37,0,0,1,.75.09c.25.24.56.18.85.18,1.09,0,2.18,0,3.26,0a12.16,12.16,0,0,0,2.56,0,1.12,1.12,0,0,1,.74.11A1.42,1.42,0,0,0,205.61,85.19Z"/><path class="cls-3" d="M220.74,136c-1-1.73-2-3.46-3-5.2-.39-.68-.38-.68.18-1.33.32.05.37.35.5.56q3.78,6.36,7.53,12.72a39.27,39.27,0,0,1,2.41,4.1c.09.2.3.27.43.41a51,51,0,0,1,6.27,7.63,1.76,1.76,0,0,1,.42.88c-.31.18-.58,0-.86-.1-1.64-.53-3.28-1.09-4.94-1.6a1.09,1.09,0,0,1-.92-1c-.13-1-.4-2-.52-3.05a7,7,0,0,0-1.09-3.07c-.83-1.32-1.51-2.74-2.4-4C223.52,140.57,222.17,138.27,220.74,136Z"/><path class="cls-3" d="M190.78,119.54a1.7,1.7,0,0,1,1.19-.41,66.93,66.93,0,0,1,11.31.86c.13,0,.26,0,.39.08.46.15.54.36.21.71-.65.71-1.34,1.38-2,2.08a.71.71,0,0,1-.53.22,37.11,37.11,0,0,1-6.05-.38,5.28,5.28,0,0,1-2.34-1A10.87,10.87,0,0,1,190.78,119.54Z"/><path class="cls-2" d="M203.85,87.66a1.77,1.77,0,0,1,1.6.3,6,6,0,0,0,2.24,1c-.4.33-.88.12-1.27.31,0,.35.24.41.43.49a20.25,20.25,0,0,1,5.3,3.64,8.38,8.38,0,0,0,1.78,1.41c-.79,1.12-1.7,1.38-2.78.72a32.91,32.91,0,0,1-4.69-3.2c-.8-.7-1.07-.68-2-.1a8.6,8.6,0,0,0-2.73,2.34,1.54,1.54,0,0,1,.5-1.39A6.63,6.63,0,0,1,204,91.81a2.91,2.91,0,0,0,1-.68A8.32,8.32,0,0,1,203.85,87.66Z"/><path class="cls-3" d="M192.74,87.44a1.26,1.26,0,0,1,1.43.76q7,12.09,14.1,24.13a2.24,2.24,0,0,1,.19,2,1.64,1.64,0,0,1-.63-.81c-1.75-3-3.48-6-5.22-9-.13-.23-.3-.44-.45-.66s-.21-.48-.34-.71q-2.48-4.27-5-8.56C195.48,92.24,194.12,89.84,192.74,87.44Z"/><path class="cls-2" d="M177.51,125.18a21.31,21.31,0,0,1-3.63.68c-1.64.26-3.31.31-5,.42a1.15,1.15,0,0,1-1-.21c4.12-.69,7.78-2.87,11.9-3.64,0-.39-.5-.41-.63-.85,1.46-.11,2.89-.39,4.43-.44a3,3,0,0,1-.77.94.56.56,0,0,0-.1.8c-1.47.6-3,1.12-4.41,1.81A3,3,0,0,0,177.51,125.18Z"/><path class="cls-2" d="M214.62,132.48a.56.56,0,0,0-.05.08c-1.56,1.8-3.62,2.2-5.86,2.1a25,25,0,0,1-5.57-1c1.79-1.31,1.79-1.33,3.92-1a10.32,10.32,0,0,0,7.5-1.7,21.05,21.05,0,0,0,1.86-1.8c-.1.69-.71,1.15-.82,1.83v0l-.2.22C215.17,131.64,214.62,131.89,214.62,132.48Z"/><path class="cls-3" d="M206.76,97.2c-.62,0-1.15,0-1.67,0a.66.66,0,0,1-.7-.78,5.27,5.27,0,0,0,0-1.19c-.08-.52.22-.69.6-.89s.62.06.83.3a6.06,6.06,0,0,0,2.29,1.72,1.18,1.18,0,0,1,.73,1.28,5.4,5.4,0,0,0,0,1.61c.69-.25.68-1,1.2-1.38.63,1.83,0,3.3-1,4.9a8.22,8.22,0,0,1-.71-2.22,1.36,1.36,0,0,0-1-1.11c-.87-.27-.86-.32-.71-1.22C206.62,97.92,206.67,97.62,206.76,97.2Z"/><path class="cls-2" d="M192.74,87.44c1.38,2.4,2.74,4.8,4.12,7.19q2.47,4.29,5,8.56c.13.23.23.47.34.71-.06.43-.13.87-.19,1.3-1.09-1.6-1.94-3.34-2.94-5a10.89,10.89,0,0,0-1-1.7c-.67-1.45-1.54-2.79-2.32-4.17-1.14-2-2.31-4-3.45-6-.17-.31-.45-.58-.42-1C192.15,87.15,192.43,87.41,192.74,87.44Z"/><path class="cls-2" d="M191.91,124.22a2.59,2.59,0,0,0-.34-1.59,5.44,5.44,0,0,1-.58-1.44,4.63,4.63,0,0,1,1.22,2.13,7.42,7.42,0,0,1,.38,4,.68.68,0,0,0,.52,1c.87.29,1.73.63,2.58.95,0,.4-.27.57-.43.81a1.09,1.09,0,0,1-1.45.43c-1.32-.44-2.67-.76-4-1.14.08-.1.11-.18.16-.19a2.9,2.9,0,0,0,2.16-3.36C192.07,125.27,192,124.74,191.91,124.22Z"/><path class="cls-2" d="M220.74,136c1.43,2.26,2.78,4.56,4,6.92-.07.5-.15,1-.22,1.51a13.59,13.59,0,0,1-1.4-2.27c-.86-1.52-1.84-3-2.58-4.56C220.7,137.09,220.52,136.53,220.74,136Z"/><path class="cls-3" d="M194.37,81.84c.65-.16.66.36.61.7a1.2,1.2,0,0,0,.42,1.17c-1.46.53-3,1-2.63,3a.94.94,0,0,1-1.09-.72,1.8,1.8,0,0,0-1-1.15c-.06,0-.08-.17-.11-.25.43-.06.58-.44.72-.75a2.08,2.08,0,0,1,2.3-1.3C194.23,82.61,194.4,82.36,194.37,81.84Z"/><path class="cls-3" d="M194.37,81.84c0,.52-.14.77-.73.71a2.08,2.08,0,0,0-2.3,1.3c-.14.31-.29.69-.72.75-.23-.29-.47-.56-.67-.86a1.78,1.78,0,0,1-.47-1c0-.43.55-.28.75-.54a4.74,4.74,0,0,1,1.19-.84,3.38,3.38,0,0,1,2.49-.22C194.29,81.22,194.3,81.56,194.37,81.84Z"/><path class="cls-2" d="M199.57,135.49c-1.6.94-3.24,1.79-4.91,2.59l-.62.31c-1.89.92-1.92,1-2.26,3-.31-.29-.82-.23-1.09-.6.24-.52.49-1,.72-1.54a2.23,2.23,0,0,1,1.29-1c1.56-.69,3.12-1.35,4.7-2A9.09,9.09,0,0,1,199.57,135.49Z"/><path class="cls-3" d="M215.6,131c.11-.68.72-1.14.82-1.83a22.21,22.21,0,0,0,1.32-2.84c.28,1,.45,1.86-.22,2.67A11.37,11.37,0,0,1,215.6,131Z"/><path class="cls-3" d="M218.46,124.39a2.12,2.12,0,0,1,.89.36,1.35,1.35,0,0,0,1,.24,15.35,15.35,0,0,1-1.3,2c-.05.07-.15.1-.31.2l-.53-1.7c.31-.35.75,0,1.06-.27C219.29,124.66,218.52,124.87,218.46,124.39Z"/><path class="cls-2" d="M204.34,102.15c-.54.21-.64-.17-.72-.54-.12-.59-.21-1.18-.33-1.77a1.92,1.92,0,0,0-.51-1.06c.88,0,1.15.24,1.28,1S204.25,101.36,204.34,102.15Z"/><path class="cls-3" d="M203.88,84.75a12.16,12.16,0,0,1-2.56,0c-1.08.06-2.17,0-3.26,0-.29,0-.6.06-.85-.18,2-.05,3.94-.16,5.91,0C203.38,84.63,203.66,84.57,203.88,84.75Z"/><path class="cls-1" d="M212.18,111.81a5.16,5.16,0,0,1,2.81.59.57.57,0,0,0-.08.42,3.9,3.9,0,0,1-1.47-.3c.21-.34-.07-.36-.28-.44S212.43,112.19,212.18,111.81Z"/><path class="cls-3" d="M207.6,86c-.1.71-.17.74-.79.29-.08-.33-.43-.35-.64-.54v-.35A3.7,3.7,0,0,1,207.6,86Z"/><path class="cls-3" d="M205.61,85.19a1.42,1.42,0,0,1-1-.33A1.17,1.17,0,0,1,205.61,85.19Z"/><path class="cls-1" d="M212.29,107.85a1.63,1.63,0,0,1,0,1.09A1.14,1.14,0,0,1,212.29,107.85Z"/><path class="cls-1" d="M212.33,110.28a.39.39,0,0,1-.17.54A.53.53,0,0,1,212.33,110.28Z"/><path class="cls-3" d="M196.46,84.56a.34.34,0,0,1-.48-.13A.42.42,0,0,1,196.46,84.56Z"/><path class="cls-4" d="M213,105l-.24,0c-.12-.11,0-.18.05-.2A.15.15,0,0,1,213,105Z"/><path class="cls-2" d="M190.79,120.82c-.28-.07-.33-.31-.4-.54A.56.56,0,0,1,190.79,120.82Z"/><path class="cls-2" d="M191,121.21a.3.3,0,0,1-.22-.41A.35.35,0,0,1,191,121.21Z"/><path class="cls-4" d="M215.41,131.21l.2-.22C215.61,131.12,215.53,131.18,215.41,131.21Z"/><path class="cls-3" d="M211.49,123.8a.29.29,0,0,1,0,.13s0,0,0,0a.67.67,0,0,1-.06-.12S211.47,123.82,211.49,123.8Z"/><path class="cls-3" d="M217.43,92.47l.07-.07a.75.75,0,0,1,.06.13s0,0-.06.07Z"/><path class="cls-2" d="M122.49,121c-1.53,0-3,.15-4.57.29a8.11,8.11,0,0,0-3,.87c-.22.12-.51.18-.57.66a35.8,35.8,0,0,1,10.59,0,76.84,76.84,0,0,1,10.41,2.35l3.81,5.5q4.94,7.22,9.88,14.42c.11.16.21.33.38.6a3.52,3.52,0,0,1-1.5-.39c-2.37-.87-4.71-1.82-7.06-2.76-2.63-1-5.31-2-8-2.92a48.78,48.78,0,0,1-7.92-3.53,41.29,41.29,0,0,1-9.74-7.41,7.77,7.77,0,0,1-1.9-3.86c-.3-1.4.51-2.66,2-3.39a6.62,6.62,0,0,1,2.31-.59A19.85,19.85,0,0,1,122.49,121Z"/><path class="cls-2" d="M143,127.29c2.61.74,5.21,1.55,7.77,2.46.7,1.62,1.57,3.15,2.37,4.72,2.44,4.78,4.9,9.54,7.34,14.31.13.25.34.49.27.82-.25.17-.46,0-.66-.07-1.35-.48-2.69-1-4-1.45a1.71,1.71,0,0,1-1-.79q-5.85-9.64-11.73-19.28A7.94,7.94,0,0,1,143,127.29Z"/><path class="cls-1" d="M196,142.79c.14-.18.28-.27.39,0Z"/><path class="cls-1" d="M206.17,85.77c.21.19.56.21.64.54a3.52,3.52,0,0,0-2.41-.24,1.41,1.41,0,0,1-1.35-.27A7.46,7.46,0,0,1,206.17,85.77Z"/><path class="cls-5" d="M195.28,83.64c-.63-.75-1.12-.75-2.3-.67a1,1,0,0,0-.84.62c-.14.37.36.42.42.71-.06.06-.1.16-.14.16-1-.1-.89,0-1,1.3-.32-.38-.87-.16-1-.78.49,0,.55-.55.73-.94a2.52,2.52,0,0,1,3.1-1.54c.29-.32.07-.67.15-1,.66.22.84.46.72,1.27C195.06,83.11,195.28,83.3,195.28,83.64Z"/><path class="cls-5" d="M195.25,84.26c.37-.06,1.56.36,2,.06-.47-.13-1.17,0-1.65-.18-.29-.08-.23-.24-.13-.43a3,3,0,0,0-2.24,1.07,1.91,1.91,0,0,0-.34,1.49c.14-.19.24-.83.52-.67A2.37,2.37,0,0,1,195.25,84.26Z"/></svg>