<svg id="frames" xmlns="http://www.w3.org/2000/svg" viewBox="0 0 384 216"><defs><style>.cls-1{fill:#f8f9f9;}.cls-2{fill:#0e1b33;}.cls-3{fill:#fc0102;}.cls-4{fill:#d6d7d0;}</style></defs><path class="cls-1" d="M.71,0l-.2.2C.47,0,.53,0,.71,0Z"/><path class="cls-1" d="M.51,215.79l.2.2C.53,216,.47,216,.51,215.79Z"/><path class="cls-2" d="M166,120.48q0-3.45,0-6.9c0-9.4-.22-18.79-.14-28.19,0-1.77.12-3.53.19-5.29a1,1,0,0,1,.79-1,2.75,2.75,0,0,1,1-.08c10.06,0,20.12,0,30.18.16,3,0,6.06,0,9.08.18a18,18,0,0,1,4.9.89,31.45,31.45,0,0,1,11.2,6.19,26.08,26.08,0,0,1,2.95,3.15c.29-.22.21-.5.22-.74.08-2.26.16-4.53.22-6.79,0-.37-.08-.73-.09-1.09,0-1,.35-1.78,1.6-1.77,8.86,0,17.72,0,26.58.06,3.73,0,7.46,0,11.19.19a26.66,26.66,0,0,1,17.39,7A25.89,25.89,0,0,1,291.43,101a26.29,26.29,0,0,1-4.25,20.63A26.72,26.72,0,0,1,273.5,132a26.33,26.33,0,0,1-8.62,1.47H249.49c-.38,0-.56.16-.54.54a1.34,1.34,0,0,1,0,.2c0,2.76-.18,5.52-.15,8.28.07,6,0,11.93,0,17.9,0,.23,0,.47,0,.7a1.24,1.24,0,0,1-1.37,1.37c-.73,0-1.46,0-2.19,0-4-.14-8,0-12-.07-.5,0-1,0-1.49,0a19.84,19.84,0,0,1,2.74-.55,41.39,41.39,0,0,0,7.09-2.05,2.86,2.86,0,0,0,1.11-.66.61.61,0,0,0,.21-.63c-.12-.3-.39-.18-.6-.12a54.18,54.18,0,0,1-6.69,1.08c-2.61.33-5.22.69-7.85.83a80.49,80.49,0,0,1-11-.16c-1.75-.14-3.51-.25-5.26-.48-3.33-.42-6.65-.9-10-1.37a200.59,200.59,0,0,1-20.76-4c-2-.51-4.07-1-6.12-1.48a36.15,36.15,0,0,0-4.74-.83,9,9,0,0,0,1.38.55c4.05,1.24,8.11,2.39,12.22,3.41,1.55.39,3.13.67,4.65,1.17,0,1.26,0,2.53-.06,3.79,0,1-.37,1.34-1.42,1.36H150.66c-1.3,0-1.31,0-1.72-1.3-1-3-2-6-2.94-9-.28-.83-.32-.86-1.21-.86-7.93,0-15.86,0-23.79,0-.55,0-.82.14-1,.71-.7,2.6-1.65,5.13-2.23,7.77,0,.1-.06.19-.09.29-.64,2.05-.9,2.23-3,2.24-2.43,0-4.86,0-7.29.09-3.52.12-7,.19-10.57.2-.83,0-1.67.08-2.5.08-1.2,0-1.56-.49-1.19-1.65,1.31-4.16,2.64-8.31,4-12.47,2.66-8.42,5.29-16.84,8-25.25,1.3-4,2.51-8.14,3.86-12.19.74-2.2,1.47-4.42,2.19-6.63.24-.75.23-.76-.44-1.19a3.91,3.91,0,0,1-1.37-1.28,1.06,1.06,0,0,1,.11-1.46,1.25,1.25,0,0,1,1.57-.51c.42.18.81.42,1.21.63.32-.14.27-.46.34-.69,1.18-3.65,2.42-7.27,3.47-11,.82-2.89,1.8-5.72,2.75-8.56.36-1.07.44-1.16,1.54-1.16q12.94,0,25.89,0c1.19,0,1.53.16,2,1.61.64,1.79,1.18,3.61,1.74,5.43q5.52,18,11,35.91c0,.13.08.26.11.39-1.3.71-2.71,1.18-4,2-.18.11-.41.16-.47.43l.41.15c-1,.9-2.4,1.36-3.5,2.21.19.36.53.36.8.46.87.32,1.76.58,2.63.9a2.28,2.28,0,0,0,1.46,0,16.89,16.89,0,0,1,2.42-.54c1.88-.24,3.76-.46,5.63-.78a26.74,26.74,0,0,0,5.49-1.37,15.49,15.49,0,0,0,2.82-1.55c-.22-.23-.44-.14-.62-.22a5.51,5.51,0,0,1,1.31-.7c1.53-.73,3.12-1.31,4.69-1.94a8.68,8.68,0,0,0,2.4.63c.7,0,1.4.07,2.09.14a22.75,22.75,0,0,1,4.65.57c0,.33.1.66.13,1,.19,2.44-.24,3.17-2.35,4.12l4.66,1.29a.48.48,0,0,0,.47-.11,2.68,2.68,0,0,0,.91-1.25l-2.77-1a.54.54,0,0,1-.4-.76,7.13,7.13,0,0,0-.25-3.83A7.9,7.9,0,0,0,188,119v0a.2.2,0,0,0-.19-.2c-.41-.45-.67-1-1.48-1a38,38,0,0,0-9.57,1.15,13.15,13.15,0,0,1-2.63.51c-1.33.08-2.59.54-3.92.64-.23-.5-.63-.49-1.08-.38ZM188.41,85a1.35,1.35,0,0,0,1,1.6c0,.08,0,.14.09.15s.09,0,.09,0c.14-.32,0-.64,0-1s.15-.58.63-.36a3,3,0,0,0,1.79.39.86.86,0,0,0,.61.1.82.82,0,0,0,.76.09l.75.06a.42.42,0,0,0,.48.14l1.82,1.11a2.58,2.58,0,0,0,1.14.52c.29.34.68.25,1,.18a3.53,3.53,0,0,0,1.46-.56l.75-.15a14,14,0,0,0,.54,2.23.75.75,0,0,1-.37,1.08,6.11,6.11,0,0,0-1.28,1.1,2.26,2.26,0,0,0-.67,1.4c.34-.09.39-.36.55-.51a5.44,5.44,0,0,1,2.21-1.6.8.8,0,0,1,.81.12,42.61,42.61,0,0,0,6,3.48c1.06.55,1.7.32,2.36-.77a4.53,4.53,0,0,0,1-3.41,1.47,1.47,0,0,0-.93-1.58,3,3,0,0,1-.65-.45,22.71,22.71,0,0,0-4.39-2.7c-.87-.34-1.79-.59-2.64-1a3.37,3.37,0,0,0-1.52-.34.35.35,0,0,0-.47-.11c-.14,0-.29.35-.43.35-.69-.16-1.39.24-2.08.27s-1.48-.42-2.17-.12c-.26,0-.49-.39-.74-.31a12.65,12.65,0,0,0-2.13.16,1.07,1.07,0,0,0-.6-.13c-.11-.06-.21-.24-.33-.28-.45-.16-1-.27-.81-.94,0,0-.1-.06-.15-.09a2.82,2.82,0,0,0-2.62-.39l.07-.35a2.73,2.73,0,0,1,1.74,0c.38.11.49-.09.34-.44.3.06.17.57.55.57.17-.84-.43-1.26-.88-1.75a.72.72,0,0,0-.59-.09,2.09,2.09,0,0,0-2.46.28.86.86,0,0,0-.7.49.73.73,0,0,0-.43.34c-.44,0-.64.17-.46.61a2.11,2.11,0,0,0,.42.78.39.39,0,0,0,.25.43,1.14,1.14,0,0,0,.37.61C187.53,84.83,188.11,84.75,188.41,85Zm24.07,45.28a15,15,0,0,0,2.55-2.79c.77-1,.83-1.56.14-2.82-.21.55-.4,1-.58,1.52a7.2,7.2,0,0,1-.74,1.53c-.14.14-.3.26-.43.41a9.2,9.2,0,0,1-5.25,3,10.17,10.17,0,0,1-4.46,0c-1.28-.28-2.12.3-3.12,1.14l3.81.88c-1,.12-2,.08-3,.14-1.51.09-3.08,0-4.47.77a49.35,49.35,0,0,0-7.21,2.9,1.68,1.68,0,0,0-1,1.14,2.75,2.75,0,0,1-.38.66,1.48,1.48,0,0,0,1.07.46c.46.19.91.4,1.38.57,4.35,1.55,8.72,3,13.06,4.6q9.67,3.48,19.37,6.86c.33.11.65.33,1,.22a1.73,1.73,0,0,0,.05-1c-.06-.86-.19-1.72-.2-2.58a4.8,4.8,0,0,0-.72-2.34,13.05,13.05,0,0,1-1.43-2.62,8.59,8.59,0,0,0,.22-1.51,2.28,2.28,0,0,1,.55.82c.74,1.27,1.44,2.55,2.19,3.81a4.63,4.63,0,0,1,.65,1.76c.2,1.28.44,2.56.65,3.84a1.1,1.1,0,0,0,.82,1c1.87.61,3.72,1.26,5.58,1.89.19.06.4.25.64,0a5.71,5.71,0,0,0-.83-1.35,32.15,32.15,0,0,0-5-6.29,12.42,12.42,0,0,1-2.08-2.65q-4.65-8-9.34-15.93c-.11-.19-.16-.46-.44-.49-.78.81-.77.8-.24,1.72,1,1.67,2,3.29,2.88,5-.25.51,0,1.06-.18,1.57-1-1.42-1.77-3-2.69-4.49-.42-.68-.42-.67-1.16-.43a13.33,13.33,0,0,1-3.06.77A7.75,7.75,0,0,0,212.48,130.27Zm-12.9-27.82a4.09,4.09,0,0,1,.65,1c1.73,3,3.45,5.93,5.19,8.89.11.2.14.53.49.5a1.44,1.44,0,0,0-.11-1.59c-.36-.55-.6-1.19-.93-1.76q-6.18-10.62-12.35-21.23c-.37-.64-.79-1-1.53-.76a2.58,2.58,0,0,0-1.16-.22c.4.8.71,1.53,1.1,2.21,1.56,2.75,3.16,5.48,4.73,8.22.15.26.26.54.39.81l-6.39.12c-1.21,0-1.15-.21-1.16,1.19,0,3.46.07,6.92-.06,10.39-.05,1.36,0,2.73,0,4.09,0,.53.19.73.7.67a4.17,4.17,0,0,1,.5,0c3.66,0,7.32-.12,11-.11a8.39,8.39,0,0,0,3.47-.79c.81-.37.82-.39.38-1.15-.9-1.56-1.82-3.1-2.7-4.67s-1.75-2.83-2.44-4.35C199.57,103.45,199.44,102.93,199.58,102.45Zm2.19-1.76c-.1-.79-.16-1.59-.28-2.37s-.3-.84-1.16-1a3.22,3.22,0,0,1,.35,1.13,7.81,7.81,0,0,0-1.79.16l7.13,12,.18-.1a1.81,1.81,0,0,0,.05-.39,9.43,9.43,0,0,1,.59-3.72,1.56,1.56,0,0,0,.1-.88c-.23-1.13-.41-2.27-.54-3.52a3.6,3.6,0,0,1-1.75.82c-.3,0-.66,0-.77-.3a3,3,0,0,0-1.33-1.41C202.3,101,202.17,100.62,201.77,100.69Zm-64.18,21.73c0-.17-.05-.33-.09-.49l-4.2-14.45a1.6,1.6,0,0,0-.17-.35c-.34.28-.35.68-.46,1-1,2.94-1.77,5.92-2.82,8.84a20,20,0,0,0-1,3.22,9.92,9.92,0,0,1-2.6-.28,8.46,8.46,0,0,0-2.81-.6,36.56,36.56,0,0,0-6.77-.5,5.56,5.56,0,0,0-4.12,1.71,1.76,1.76,0,0,0-.55,1.24,6.09,6.09,0,0,0,1.33,4.17,30.84,30.84,0,0,0,5.2,4.95,49.76,49.76,0,0,0,11.3,6.33c3.66,1.41,7.39,2.67,11,4.26,1.88.84,3.83,1.54,5.75,2.3.23.09.47.29.75.1a1.15,1.15,0,0,0-.29-.62c-3-4.79-6.07-9.57-9.23-14.27l-3.94-5.78c2.22.46,4.41,1.05,6.6,1.64.34.1.67.26,1,.39a2,2,0,0,0,.45,1.09c1,1.72,2,3.44,3,5.17q4,7,8,14a2.13,2.13,0,0,0,1.24,1.06c1.29.44,2.56.95,3.84,1.42.2.07.41.27.69.05-.08-.2-.14-.42-.23-.63q-3.47-7.26-6.94-14.51c-.83-1.74-1.67-3.47-2.51-5.21a4.17,4.17,0,0,1,1.15.31c2.05.7,4.09,1.43,6.14,2.1,5.35,1.76,10.66,3.61,16.07,5.14,4.2,1.19,8.27,2.74,12.4,4.14,3.47,1.18,6.95,2.32,10.41,3.5,5.07,1.74,10.16,3.42,15.18,5.29,6,2.24,11.86,4.76,17.93,6.77a96.62,96.62,0,0,0,9.73,3,6.94,6.94,0,0,0,2.87-.08,9.46,9.46,0,0,0-1.37-.57c-5.6-1.92-11.28-3.59-16.84-5.61-8.6-3.11-17.24-6.1-25.83-9.24-4.93-1.81-9.87-3.57-14.89-5.12-5.76-1.78-11.37-4-17.18-5.68-.18-.05-.29-.15-.19-.36l.18-.06c.36,0,.72.43,1,.15s.09-.7.11-1,0-.53,0-.8-.13-.54-.53-.48-1,.1-1.58.16-.7.36-.49.8A3.58,3.58,0,0,0,164,131c-.76.16-1.37-.29-2-.51-3.12-1-6.26-2-9.35-3.14s-6-2-9-3.11C141.62,123.54,139.59,123,137.59,122.42Zm51.82,10.42a.56.56,0,0,0-.45.33.15.15,0,0,0-.15.1,2.49,2.49,0,0,0-1.05.7.13.13,0,0,0-.15.07l-2.55,1-3.24.72a.9.9,0,0,0-.75.09,2.84,2.84,0,0,0-1.47.26c1.76.44,3.43,1.11,5.19,1.52a.5.5,0,0,0,.63,0,1.67,1.67,0,0,0,1.18-.35,8.42,8.42,0,0,0,2.31-1.09c.24-.17.49-.34.72-.52,1.15-.9,2.25-1.88,3.47-2.68,1.53-1,3-2.06,4.45-3.19,2.12-1.66,4.13-3.46,6.3-5.05a35.82,35.82,0,0,0,5.23-4.61.24.24,0,0,1,.38,0,3.86,3.86,0,0,1-.57,1.93c-.11.23-.32.45,0,.7,0-.08,0-.29-.19-.17l.2.17a.57.57,0,0,1,.12-.26,13,13,0,0,0,3.06-5.2c.24-.77.78-1,1.53-1.11a8.88,8.88,0,0,1-.48,1.78,6.54,6.54,0,0,0-.51,1.74,8,8,0,0,0,2.59-2.55,1.14,1.14,0,0,0,.18-1.11,14,14,0,0,0-.89-2.55,4,4,0,0,0-4.21-2.54,1.07,1.07,0,0,0-1,.64c-.54,1-1.13,2-1.64,3a3.41,3.41,0,0,1-.94,1.13c-1.94,1.6-4.15,2.9-5.81,4.85-1.33,1.57-2.68,3.13-4.1,4.63C194.3,127.77,192,130.42,189.41,132.84Zm28.4-9.23a3.07,3.07,0,0,0,.61-1c.66-1.5,1.4-2.95,2.14-4.4a25.88,25.88,0,0,0,2.55-6.59A14.69,14.69,0,0,0,223,104c-.79-2.44-1.8-4.79-2.81-7.15a13.07,13.07,0,0,0-4.69-5.68c-.26-.18-.49-.45-.93-.39,0,.54.54.9.42,1.56-.88-1.2-1.35-2.65-2.9-3.44a6.84,6.84,0,0,1,0,3.84c-.23.78-.25.82.46,1.25a1.12,1.12,0,0,1,.6,1.32c-.15.85-.18,1.72-.35,2.56a2,2,0,0,0,.59,1.89c.86,1,1.72,1.9,2.66,2.84-1.65-.1-3-1.14-4.73-1.32.18,1,.75,1.87.94,2.88a6,6,0,0,1-2.12-.79c0,1.62-.81,3-.34,4.61a1.59,1.59,0,0,1-.11.88c-.06.23-.14.45-.18.68-.14.72,0,.87.7,1,.52.08,1.06.13,1.57.26a22.44,22.44,0,0,0,3.73.67c.55,0,1.11.14,1.89.24-1.08.47-2.06.3-3,.73.7.51,1.52.54,2.16,1-.53.11-1-.21-1.5,0a13.51,13.51,0,0,1,1,8.17,1,1,0,0,0-.11.76c-.18.33-.17.6.22.77l.87.4c0,.27-.2.29-.42.28s-.64-.16-1,.11a10.07,10.07,0,0,0,.61,1.83A8.68,8.68,0,0,0,217.81,123.61ZM249,107.48c-.08,1.89-.08,4.35-.07,6.82,0,.73,0,.74.69.75l11.1.16a4.65,4.65,0,0,0,1.38-.16,8.84,8.84,0,0,0,5.69-4.68,7.14,7.14,0,0,0-.93-8.38,12.14,12.14,0,0,0-2.41-2.23A6.22,6.22,0,0,0,261,98.65c-3.73,0-7.46,0-11.19,0-.78,0-.79,0-.79.87C249,102,249,104.44,249,107.48Zm-22.89,37.21a.61.61,0,0,0,.17-.52q0-10.63-.1-21.27s0,0-.07-.05l-.11,0a36,36,0,0,1-5.73,5.23,21.5,21.5,0,0,1-2.54,1.58c-.33.17-.46.36-.23.7.09.14.16.29.25.43q3.89,6.63,7.79,13.25C225.7,144.24,225.77,144.55,226.13,144.69Zm-38-26.66a14.91,14.91,0,0,0,1.75,1.79,5.92,5.92,0,0,0,3.5,1.52c1.26.12,2.53.19,3.79.28a3,3,0,0,0,3.07-1.27,6.14,6.14,0,0,1,.85-.84c.17-.18.45-.31.39-.63C198.73,117.76,191.52,117.32,188.15,118Zm16-22.25c-.06.32-.1.58-.15.84-.17,1-.19,1.06.76,1.37a1.26,1.26,0,0,1,.91,1.06c.16.72.38,1.42.6,2.2,1.19-1.32,1.83-3.6,1-4.82-.43.37-.41,1.14-1.11,1.3,0-.56,0-1.09,0-1.61a1.13,1.13,0,0,0-.75-1.25,6,6,0,0,1-2.29-1.73c-.22-.26-.43-.49-.84-.26s-.63.33-.56.81a7,7,0,0,1,0,1.3c0,.46.23.65.64.73A13,13,0,0,0,204.15,95.78Z"/><path class="cls-3" d="M188.22,157c-1.52-.5-3.1-.78-4.65-1.17-4.11-1-8.17-2.17-12.22-3.41a9,9,0,0,1-1.38-.55,36.15,36.15,0,0,1,4.74.83c2,.45,4.08,1,6.12,1.48a200.59,200.59,0,0,0,20.76,4c3.33.47,6.65.95,10,1.37,1.75.23,3.51.34,5.26.48a80.49,80.49,0,0,0,11,.16c2.63-.14,5.24-.5,7.85-.83a54.18,54.18,0,0,0,6.69-1.08c.21-.06.48-.18.6.12a.61.61,0,0,1-.21.63,2.86,2.86,0,0,1-1.11.66,41.39,41.39,0,0,1-7.09,2.05,19.84,19.84,0,0,0-2.74.55,102.61,102.61,0,0,1-14.67,0c-3.08-.28-6.13-.83-9.19-1.23a132.11,132.11,0,0,1-17.28-3.57A8.86,8.86,0,0,0,188.22,157Z"/><path class="cls-2" d="M244.22,11.46a34.76,34.76,0,0,1,6.34,1.14A29.1,29.1,0,0,1,260,17a15.57,15.57,0,0,1,4.19,4.37,9.78,9.78,0,0,1,.29,10.43,13.26,13.26,0,0,1-2.58,3.29,22.57,22.57,0,0,1-6.58,4.29c-.63.27-.64.26-1.18,0a3.23,3.23,0,0,1,1.19-.71,20.89,20.89,0,0,0,6.57-5,11,11,0,0,0,2.89-6.55,10.11,10.11,0,0,0-2.68-7.41c-3-3.44-6.88-5.27-11.14-6.48a40.48,40.48,0,0,0-5.68-1.13A1.09,1.09,0,0,1,244.22,11.46Z"/><path class="cls-2" d="M57.15,51.59c-.46.11-.77-.2-1.08-.41C54.3,50,52.42,49,50.58,47.92a2.76,2.76,0,0,1-1.08-.87c-.27-.42-.19-.65.28-.8a1,1,0,0,1,.68,0,3.2,3.2,0,0,1,.95.54c1.81,1.62,3.78,3,5.63,4.61A.64.64,0,0,1,57.15,51.59Z"/><path class="cls-3" d="M157.07,124.9l-.41-.15c.06-.27.29-.32.47-.43,1.26-.79,2.67-1.26,4-2l4.88-1.87,3.15-.72c.45-.11.85-.12,1.08.38-.22.07-.44.15-.66.2a48.21,48.21,0,0,0-11.67,4.17C157.62,124.65,157.34,124.77,157.07,124.9Z"/><path class="cls-2" d="M92.24,74.88c-.11.22-.3.23-.48.08a11,11,0,0,1-1.21-1c-.79-.81-1.54-1.66-2.31-2.49a1.69,1.69,0,0,1-.49-1.07.48.48,0,0,1,.74-.47,2,2,0,0,1,.76.64c1,1.32,1.9,2.65,2.85,4A.46.46,0,0,1,92.24,74.88ZM89,71.45c0-.08.08-.18,0-.24s-.11,0-.17,0c.24-.37-.22-.47-.29-.73l-.06.06.08-.06c-.25.38.06.53.3.71l.18.21s.1.18.14,0Z"/><path class="cls-2" d="M224,67a15.9,15.9,0,0,1-5.33,4.37.69.69,0,0,1-.48.11.44.44,0,0,1-.23-.15c-.07-.1,0-.19.08-.25.25-.22.49-.45.75-.65,1.3-1,2.59-2.08,3.9-3.08A1.3,1.3,0,0,1,224,67Z"/><path class="cls-2" d="M211.36,14.54a10.73,10.73,0,0,1,5.15-1.76,1.66,1.66,0,0,1,.49.07c.41.13.46.45.12.73a2.85,2.85,0,0,1-.51.3,10.94,10.94,0,0,1-4.64,1A.59.59,0,0,1,211.36,14.54Zm4.92-1.35a7.94,7.94,0,0,0-3.39,1.14A5.39,5.39,0,0,0,216.28,13.19Z"/><path class="cls-2" d="M272.12,65.55a19.73,19.73,0,0,1-6.26,2.68C267,66.87,270.52,65.32,272.12,65.55Z"/><path class="cls-2" d="M82.75,51.07c-.08.2-.2.28-.33.22a2.17,2.17,0,0,1-.78-.41A19.75,19.75,0,0,1,79.2,48a3.07,3.07,0,0,1-.31-.63.36.36,0,0,1,.18-.42.33.33,0,0,1,.45,0,2.32,2.32,0,0,1,.35.35q1.34,1.68,2.65,3.37C82.61,50.82,82.68,51,82.75,51.07Z"/><path class="cls-2" d="M43.17,75.15c.93-.56,5.07-.44,6.29.18-.74.27-1.4-.11-2.07-.06a16.16,16.16,0,0,1-2.2,0C44.53,75.29,43.82,75.64,43.17,75.15Z"/><path class="cls-2" d="M247.09,52.43c.29-.3.56-.32.67-.22.5.48,1.09.33,1.67.36a3.05,3.05,0,0,1,2.13,1C249.79,54.2,248.5,53.28,247.09,52.43Zm2.1.53a1.22,1.22,0,0,0,1.17.39A1.52,1.52,0,0,0,249.19,53Z"/><path class="cls-2" d="M291.79,86.25v1.09c0,.18-.07.33-.27.35a.31.31,0,0,1-.37-.25c-.06-.26-.1-.52-.14-.78-.07-.53-.16-1-.21-1.57,0-.28.09-.56.41-.58s.41.22.45.46c0,.42.07.85.1,1.28Z"/><path class="cls-2" d="M158.62,18.69a.65.65,0,0,1-.27.39,6.7,6.7,0,0,1-1.6,1c-.18.08-.41.22-.54.05a.74.74,0,0,1-.1-.65,2.93,2.93,0,0,1,2.36-1A.26.26,0,0,1,158.62,18.69Z"/><path class="cls-2" d="M217.37,44.13a29.6,29.6,0,0,1-4,.8A6.37,6.37,0,0,1,217.37,44.13Z"/><path class="cls-2" d="M159,73.74a.3.3,0,0,1-.14-.48A4.38,4.38,0,0,1,160.08,72c.13-.09.24,0,.32.1s.24.21.14.34a3.71,3.71,0,0,1-1.47,1.28A.4.4,0,0,1,159,73.74Z"/><path class="cls-2" d="M118.58,6.18c0,.53-.21,1-.5,1a3.13,3.13,0,0,1-.85-.77c0-.44.5-1,.87-.94S118.57,5.69,118.58,6.18Z"/><path class="cls-2" d="M146.25,63.28a3.79,3.79,0,0,1,1.57-1.79.38.38,0,0,1,.46,0c.16.16.05.33-.05.44A3,3,0,0,1,146.25,63.28Z"/><path class="cls-2" d="M248.74,69.49a3.57,3.57,0,0,1-2.33,1.19A2.63,2.63,0,0,1,248.74,69.49Z"/><path class="cls-3" d="M133.86,123.21,137.8,129c3.16,4.7,6.2,9.48,9.23,14.27a1.15,1.15,0,0,1,.29.62c-.28.19-.52,0-.75-.1-1.92-.76-3.87-1.46-5.75-2.3-3.6-1.59-7.33-2.85-11-4.26a49.76,49.76,0,0,1-11.3-6.33,30.84,30.84,0,0,1-5.2-4.95,6.09,6.09,0,0,1-1.33-4.17,1.76,1.76,0,0,1,.55-1.24,5.56,5.56,0,0,1,4.12-1.71,36.56,36.56,0,0,1,6.77.5,8.46,8.46,0,0,1,2.81.6,80.75,80.75,0,0,0-9.58-.36,4.65,4.65,0,0,0-1.78.24c-.31.13-.65.26-.64.83a3.31,3.31,0,0,1,1.64-.23,50.47,50.47,0,0,1,8.76.6A76.65,76.65,0,0,1,133.86,123.21Z"/><path class="cls-1" d="M216,121.66a13.51,13.51,0,0,0-1-8.17c.53-.24,1,.08,1.5,0-.64-.48-1.46-.51-2.16-1,1-.43,2-.26,3-.73-.78-.1-1.34-.2-1.89-.24a22.44,22.44,0,0,1-3.73-.67c-.51-.13-1-.18-1.57-.26-.72-.11-.84-.26-.7-1,0-.23.12-.45.18-.68a1.59,1.59,0,0,0,.11-.88c-.47-1.57.36-3,.34-4.61a6,6,0,0,0,2.12.79c-.19-1-.76-1.85-.94-2.88,1.7.18,3.08,1.22,4.73,1.32-.94-.94-1.8-1.89-2.66-2.84a2,2,0,0,1-.59-1.89c.17-.84.2-1.71.35-2.56a1.12,1.12,0,0,0-.6-1.32c-.71-.43-.69-.47-.46-1.25a6.84,6.84,0,0,0,0-3.84c1.55.79,2,2.24,2.9,3.44.12-.66-.43-1-.42-1.56.44-.06.67.21.93.39a13.07,13.07,0,0,1,4.69,5.68c1,2.36,2,4.71,2.81,7.15a14.69,14.69,0,0,1,.1,7.59,25.88,25.88,0,0,1-2.55,6.59c-.74,1.45-1.48,2.9-2.14,4.4a3.07,3.07,0,0,1-.61,1l-.79,0-.87-.4c-.39-.17-.4-.44-.22-.77S216.19,121.94,216,121.66Z"/><path class="cls-1" d="M187.61,134a.13.13,0,0,1,.15-.07,1,1,0,0,0,1.05-.7.15.15,0,0,1,.15-.1.36.36,0,0,0,.45-.33c2.57-2.42,4.89-5.07,7.32-7.63,1.42-1.5,2.77-3.06,4.1-4.63,1.66-2,3.87-3.25,5.81-4.85a3.41,3.41,0,0,0,.94-1.13c.51-1,1.1-2,1.64-3a1.07,1.07,0,0,1,1-.64,4,4,0,0,1,4.21,2.54,14,14,0,0,1,.89,2.55,1.14,1.14,0,0,1-.18,1.11,8,8,0,0,1-2.59,2.55,6.54,6.54,0,0,1,.51-1.74,8.88,8.88,0,0,0,.48-1.78c-.75.15-1.29.34-1.53,1.11a13,13,0,0,1-3.06,5.2.57.57,0,0,0-.12.26h0c-.28-.26-.07-.48,0-.71a3.86,3.86,0,0,0,.57-1.93.24.24,0,0,0-.38,0,35.82,35.82,0,0,1-5.23,4.61c-2.17,1.59-4.18,3.39-6.3,5.05-1.43,1.13-2.92,2.19-4.45,3.19-1.22.8-2.32,1.78-3.47,2.68-.23.18-.48.35-.72.52a3.29,3.29,0,0,0-2.31,1.09,1.67,1.67,0,0,1-1.18.35c-.19-.32-.4-.3-.63,0-1.76-.41-3.43-1.08-5.19-1.52a2.84,2.84,0,0,1,1.47-.26.6.6,0,0,0,.75-.09l3.24-.72A2.78,2.78,0,0,0,187.61,134Z"/><path class="cls-1" d="M133.86,123.21a76.65,76.65,0,0,0-9.21-2.21,50.47,50.47,0,0,0-8.76-.6,3.31,3.31,0,0,0-1.64.23c0-.57.33-.7.64-.83a4.65,4.65,0,0,1,1.78-.24,80.75,80.75,0,0,1,9.58.36,9.92,9.92,0,0,0,2.6.28c1.45.39,2.92.73,4.37,1.17a14.38,14.38,0,0,1,2.75.69,3,3,0,0,0,1.62.36c2,.62,4,1.12,6,1.84,3,1.08,6,2,9,3.11s6.23,2.09,9.35,3.14c.66.22,1.27.67,2,.51l0,0a.39.39,0,0,0,.62.22l0,0c-.1.21,0,.31.19.36,5.81,1.66,11.42,3.9,17.18,5.68,5,1.55,10,3.31,14.89,5.12,8.59,3.14,17.23,6.13,25.83,9.24,5.56,2,11.24,3.69,16.84,5.61a9.46,9.46,0,0,1,1.37.57,6.94,6.94,0,0,1-2.87.08,96.62,96.62,0,0,1-9.73-3c-6.07-2-12-4.53-17.93-6.77-5-1.87-10.11-3.55-15.18-5.29-3.46-1.18-6.94-2.32-10.41-3.5-4.13-1.4-8.2-3-12.4-4.14-5.41-1.53-10.72-3.38-16.07-5.14-2.05-.67-4.09-1.4-6.14-2.1a4.17,4.17,0,0,0-1.15-.31,8.33,8.33,0,0,0-2.05-.72c-1.82-.61-3.64-1.21-5.5-1.68-.34-.13-.67-.29-1-.39C138.27,124.26,136.08,123.67,133.86,123.21Z"/><path class="cls-1" d="M157.07,124.9c.27-.13.55-.25.81-.39a48.21,48.21,0,0,1,11.67-4.17c.22,0,.44-.13.66-.2,1.33-.1,2.59-.56,3.92-.64a13.15,13.15,0,0,0,2.63-.51,38,38,0,0,1,9.57-1.15c.81,0,1.07.53,1.48,1,0,.11,0,.21.19.2v0c.21.77.71,1.4,1,2.14a2.66,2.66,0,0,1,.36,1.61,22.75,22.75,0,0,0-4.65-.57c-.69-.07-1.39-.09-2.09-.14a8.68,8.68,0,0,1-2.4-.63c-.26-.36,0-.61.18-.87s.59-.43.66-.92l-4.35.49c0,.48.64.42.62.91a16.4,16.4,0,0,0-4.76,1.34c-1.18.48-2.38.86-3.58,1.26-1,.34-2.06.53-3.09.82-.28.08-.65.09-.77.52a90.53,90.53,0,0,0,9.09-.91c.18.08.4,0,.62.22a15.49,15.49,0,0,1-2.82,1.55,26.74,26.74,0,0,1-5.49,1.37c-1.87.32-3.75.54-5.63.78a16.89,16.89,0,0,0-2.42.54,2.28,2.28,0,0,1-1.46,0c-.87-.32-1.76-.58-2.63-.9-.27-.1-.61-.1-.8-.46C154.67,126.26,156,125.8,157.07,124.9Z"/><path class="cls-3" d="M141.47,125.24c1.86.47,3.68,1.07,5.5,1.68a8.33,8.33,0,0,1,2.05.72c.84,1.74,1.68,3.47,2.51,5.21q3.48,7.26,6.94,14.51c.09.21.15.43.23.63-.28.22-.49,0-.69-.05-1.28-.47-2.55-1-3.84-1.42a2.13,2.13,0,0,1-1.24-1.06q-4-7-8-14c-1-1.73-2-3.45-3-5.17A2,2,0,0,1,141.47,125.24Z"/><path class="cls-1" d="M193.65,84.48c.7.1,1.25-.09,2.34,0a1.82,1.82,0,0,1,.77-.05,31,31,0,0,1,3.75-.18h.56a3.35,3.35,0,0,1,2.33.49c.85.39,1.77.64,2.64,1a22.71,22.71,0,0,1,4.39,2.7,3,3,0,0,0,.65.45A1.47,1.47,0,0,1,212,90.4a4.53,4.53,0,0,1-1,3.41c-.73-.56-1.46-1.14-2.21-1.69a17.59,17.59,0,0,0-4.5-2.7c-.32-.12-.72-.16-.88-.55.37-.36.94-.09,1.47-.51a5.76,5.76,0,0,1-2.45-.87,1.74,1.74,0,0,0-1.62-.21l-.75.15a11.54,11.54,0,0,1-2.47.38,2.58,2.58,0,0,1-1.14-.52l-1.82-1.11a.34.34,0,0,0-.48-.14l-.75-.06a.55.55,0,0,0-.76-.09.86.86,0,0,1-.61-.1c-.36-.32-.87-.22-1.27-.45s-.39-.41-.1-.6a2.35,2.35,0,0,1,1.75-.51M205,85.88c-1.63-1.08-3.34-.84-5.15-.64a1.59,1.59,0,0,0,1.46.37,5.53,5.53,0,0,1,2.74.19C204.28,85.87,204.54,86.09,205,85.88Z"/><path class="cls-1" d="M218.16,134.57c-.87-1.72-1.92-3.34-2.88-5-.53-.92-.54-.91.24-1.72.28,0,.33.3.44.49q4.68,7.95,9.34,15.93a12.42,12.42,0,0,0,2.08,2.65,32.15,32.15,0,0,1,5,6.29,5.71,5.71,0,0,1,.83,1.35c-.24.23-.45,0-.64,0-1.86-.63-3.71-1.28-5.58-1.89a1.1,1.1,0,0,1-.82-1c-.21-1.28-.45-2.56-.65-3.84a4.63,4.63,0,0,0-.65-1.76c-.75-1.26-1.45-2.54-2.19-3.81a2.28,2.28,0,0,0-.55-.82C220.94,139.07,219.58,136.81,218.16,134.57Z"/><path class="cls-1" d="M188.15,118c3.37-.71,10.58-.27,13.35.85.06.32-.22.45-.39.63a6.14,6.14,0,0,0-.85.84,3,3,0,0,1-3.07,1.27c-1.26-.09-2.53-.16-3.79-.28a5.92,5.92,0,0,1-3.5-1.52A14.91,14.91,0,0,1,188.15,118Z"/><path class="cls-3" d="M200.8,87.28a1.74,1.74,0,0,1,1.62.21,5.76,5.76,0,0,0,2.45.87c-.53.42-1.1.15-1.47.51.16.39.56.43.88.55a17.59,17.59,0,0,1,4.5,2.7c.75.55,1.48,1.13,2.21,1.69-.66,1.09-1.3,1.32-2.36.77a42.61,42.61,0,0,1-6-3.48.8.8,0,0,0-.81-.12,5.44,5.44,0,0,0-2.21,1.6c-.16.15-.21.42-.55.51a2.26,2.26,0,0,1,.67-1.4,6.11,6.11,0,0,1,1.28-1.1.75.75,0,0,0,.37-1.08A14,14,0,0,1,200.8,87.28Z"/><path class="cls-1" d="M191,87.5c.74-.2,1.16.12,1.53.76q6.15,10.62,12.35,21.23c.33.57.57,1.21.93,1.76a1.44,1.44,0,0,1,.11,1.59c-.35,0-.38-.3-.49-.5-1.74-3-3.46-5.92-5.19-8.89a4.09,4.09,0,0,0-.65-1,3.87,3.87,0,0,0-.54-1Q195,94.44,191,87.5Z"/><path class="cls-3" d="M174.2,124.05a90.53,90.53,0,0,1-9.09.91c.12-.43.49-.44.77-.52,1-.29,2.07-.48,3.09-.82,1.2-.4,2.4-.78,3.58-1.26a16.4,16.4,0,0,1,4.76-1.34c0-.49-.61-.43-.62-.91l4.35-.49c-.07.49-.43.66-.66.92s-.44.51-.18.87c-1.57.63-3.16,1.21-4.69,1.94A5.51,5.51,0,0,0,174.2,124.05Z"/><path class="cls-3" d="M211.07,132c-1.53,1.27-3.37,1.18-5.19,1.18-.49,0-1,0-1.48,0l-3.81-.88c1-.84,1.84-1.42,3.12-1.14a10.17,10.17,0,0,0,4.46,0,9.2,9.2,0,0,0,5.25-3c.13-.15.29-.27.43-.41a17.46,17.46,0,0,1-1.37,2.56A7.75,7.75,0,0,1,211.07,132Z"/><path class="cls-1" d="M204.15,95.78a13,13,0,0,1-1.7-.06c-.41-.08-.66-.27-.64-.73a7,7,0,0,0,0-1.3c-.07-.48.23-.62.56-.81s.62,0,.84.26a6,6,0,0,0,2.29,1.73,1.13,1.13,0,0,1,.75,1.25c0,.52,0,1,0,1.61.7-.16.68-.93,1.11-1.3.78,1.22.14,3.5-1,4.82-.22-.78-.44-1.48-.6-2.2a1.26,1.26,0,0,0-.91-1.06c-.95-.31-.93-.35-.76-1.37C204.05,96.36,204.09,96.1,204.15,95.78Z"/><path class="cls-3" d="M191,87.5q4,6.94,8,13.9a3.87,3.87,0,0,1,.54,1c-.14.48,0,1-.24,1.45-.85-1.13-1.45-2.42-2.2-3.63a12.75,12.75,0,0,0-1.09-1.75c-.13-.27-.24-.55-.39-.81-1.57-2.74-3.17-5.47-4.73-8.22-.39-.68-.7-1.41-1.1-2.21A2.58,2.58,0,0,1,191,87.5Z"/><path class="cls-3" d="M189.34,122.75a2.66,2.66,0,0,0-.36-1.61c-.28-.74-.78-1.37-1-2.14a7.9,7.9,0,0,1,1.75,3.18A7.13,7.13,0,0,1,190,126a.54.54,0,0,0,.4.76l2.77,1a2.68,2.68,0,0,1-.91,1.25.48.48,0,0,1-.47.11l-4.66-1.29c2.11-1,2.54-1.68,2.35-4.12C189.44,123.41,189.38,123.08,189.34,122.75Z"/><path class="cls-3" d="M218.16,134.57c1.42,2.24,2.78,4.5,4,6.85a8.59,8.59,0,0,1-.22,1.51,1.05,1.05,0,0,1-.37-.46q-1.71-2.92-3.4-5.87a3.19,3.19,0,0,1-.2-.46C218.12,135.63,217.91,135.08,218.16,134.57Z"/><path class="cls-1" d="M187,83.18a2.11,2.11,0,0,1-.42-.78c-.18-.44,0-.62.46-.61.27,0,.4-.08.43-.34a.86.86,0,0,1,.7-.49,6.62,6.62,0,0,1,2.46-.28.72.72,0,0,1,.59.09A4.41,4.41,0,0,0,191.5,82c.15.35,0,.55-.34.44a2.73,2.73,0,0,0-1.74,0c-.53-.08-.61.4-.85.67s-.41,1-1,1.14a1.14,1.14,0,0,1-.37-.61A.35.35,0,0,0,187,83.18Z"/><path class="cls-3" d="M197,134c-1.81,1.09-3.71,2-5.61,3-.35.17-.69.38-1,.58a1.61,1.61,0,0,0-.9,1.63,1.48,1.48,0,0,1-1.07-.46,2.75,2.75,0,0,0,.38-.66,1.68,1.68,0,0,1,1-1.14A49.35,49.35,0,0,1,197,134Z"/><path class="cls-1" d="M189.35,82.76a2.82,2.82,0,0,1,2.62.39c-.11.34-.42.37-.69.48a2.61,2.61,0,0,0-1.88,3,1.35,1.35,0,0,1-1-1.6c.08-1,.08-1,1.16-1,0,0,0,0,.11-.1C189.44,83.57,188.74,83.32,189.35,82.76Z"/><path class="cls-1" d="M212.48,130.27a17.46,17.46,0,0,0,1.37-2.56,7.2,7.2,0,0,0,.74-1.53c.18-.49.37-1,.58-1.52.69,1.26.63,1.8-.14,2.82A15,15,0,0,1,212.48,130.27Z"/><path class="cls-2" d="M189.4,86.59a2.61,2.61,0,0,1,1.88-3c.27-.11.58-.14.69-.48.05,0,.16.07.15.09-.14.67.36.78.81.94a1.57,1.57,0,0,1,.33.19,3.09,3.09,0,0,1-.86-.14,2.35,2.35,0,0,0-1.75.51c-.29.19-.21.43.1.6s.91.13,1.27.45a3,3,0,0,1-1.79-.39c-.48-.22-.56,0-.63.36s.12.64,0,1c0,0-.06,0-.09,0S189.38,86.67,189.4,86.59Z"/><path class="cls-3" d="M201.77,100.69c-.49.25-.66,0-.72-.44a5.85,5.85,0,0,0-.38-1.8,3,3,0,0,0-.34-1.13c.86.16,1,.3,1.16,1S201.67,99.9,201.77,100.69Z"/><path class="cls-1" d="M217,123.59l.79,0a8.68,8.68,0,0,1-1.58,2.2,10.07,10.07,0,0,1-.61-1.83c.34-.27.67-.13,1-.11S217,123.86,217,123.59Z"/><path class="cls-2" d="M189.35,82.76c-.61.56.09.81.33,1.13-.07.07-.09.1-.11.1-1.08,0-1.08,0-1.16,1-.3-.24-.88-.16-.84-.77.59-.15.66-.76,1-1.14s.32-.75.85-.67Z"/><path class="cls-2" d="M191.5,82a4.41,4.41,0,0,1-.33-1.18c.45.49,1.05.91.88,1.75C191.67,82.52,191.8,82,191.5,82Z"/><path class="cls-1" d="M187.61,134a2.78,2.78,0,0,1-2.55,1Z"/><path class="cls-2" d="M197.58,87.81a11.54,11.54,0,0,0,2.47-.38,3.53,3.53,0,0,1-1.46.56C198.26,88.06,197.87,88.15,197.58,87.81Z"/><path class="cls-1" d="M190.58,80.68a6.62,6.62,0,0,0-2.46.28A2.09,2.09,0,0,1,190.58,80.68Z"/><path class="cls-1" d="M186.6,137.35a3.29,3.29,0,0,1,2.31-1.09A8.42,8.42,0,0,1,186.6,137.35Z"/><path class="cls-1" d="M188.81,133.27a1,1,0,0,1-1.05.7A2.49,2.49,0,0,1,188.81,133.27Z"/><path class="cls-1" d="M192.63,85.89a.55.55,0,0,1,.76.09A.82.82,0,0,1,192.63,85.89Z"/><path class="cls-1" d="M184.79,137.66c.23-.26.44-.28.63,0A.5.5,0,0,1,184.79,137.66Z"/><path class="cls-4" d="M216,121.66c.15.28.19.54-.11.76A1,1,0,0,1,216,121.66Z"/><path class="cls-1" d="M181.82,135.79a.6.6,0,0,1-.75.09A.9.9,0,0,1,181.82,135.79Z"/><path class="cls-1" d="M187,83.18a.35.35,0,0,1,.25.43A.39.39,0,0,1,187,83.18Z"/><path class="cls-1" d="M189.41,132.84a.36.36,0,0,1-.45.33A.56.56,0,0,1,189.41,132.84Z"/><path class="cls-2" d="M187.42,81.45c0,.26-.16.39-.43.34A.73.73,0,0,1,187.42,81.45Z"/><path class="cls-1" d="M194.14,86a.34.34,0,0,1,.48.14A.42.42,0,0,1,194.14,86Z"/><path class="cls-1" d="M208.86,122.79l-.2-.17c.23-.12.15.09.19.18Z"/><path class="cls-3" d="M188,119c-.15,0-.18-.09-.19-.2A.2.2,0,0,1,188,119Z"/><path class="cls-4" d="M88.84,71.22c-.23-.18-.54-.33-.29-.71h0c.07.26.53.36.29.73Z"/><path class="cls-4" d="M89,71.45l.17,0c0,.19-.09,0-.14,0Z"/><path class="cls-4" d="M89,71.43l-.19-.21,0,0c.06,0,.13,0,.17,0s.06.16,0,.24Z"/><path class="cls-4" d="M88.55,70.51l-.08.06.06-.06Z"/><path class="cls-4" d="M249.19,53a1.52,1.52,0,0,1,1.17.39A1.22,1.22,0,0,1,249.19,53Z"/><path class="cls-2" d="M164,131c.26-.08.49-.09.62.22A.39.39,0,0,1,164,131Z"/><path class="cls-2" d="M205,85.88c-.42.21-.68,0-1-.08a5.53,5.53,0,0,0-2.74-.19,1.59,1.59,0,0,1-1.46-.37C201.62,85,203.33,84.8,205,85.88Z"/></svg>