<svg id="frames" xmlns="http://www.w3.org/2000/svg" viewBox="0 0 384 216"><defs><style>.cls-1{fill:#142037;}.cls-2{fill:#fd0a0a;}.cls-3{fill:#fdfdfc;}.cls-4{fill:#d6d7d0;}</style></defs><path class="cls-1" d="M279.1,128.62a.91.91,0,0,1,.21-.62,20.05,20.05,0,0,0,3.23-5.94l1.78-4.66a36.75,36.75,0,0,0,1.46-7.33,31,31,0,0,0-.06-6.88,24,24,0,0,0-1.26-5.31,8.18,8.18,0,0,1-.21-5,1.77,1.77,0,0,1,1.45-1.34c.26,0,.52-.1.79-.13a2.37,2.37,0,0,1,2.62,1.36,16.5,16.5,0,0,1,2.28,7.23,45.4,45.4,0,0,1,.22,9.68,11.36,11.36,0,0,1-.72,3,49,49,0,0,1-2.39,5.86,24.89,24.89,0,0,1-4.33,6.14,38.89,38.89,0,0,1-3.39,3.15A7,7,0,0,1,279.1,128.62Z"/><path class="cls-1" d="M266.42,128.52a2.45,2.45,0,0,1,.95-.78,19,19,0,0,0,4.41-3.11,20.54,20.54,0,0,0,3.7-4.57,25,25,0,0,0,3.1-8.47c.3-1.54.59-3.07,1-4.59a3.59,3.59,0,0,1,.65-1.33,2,2,0,0,1,3.38.41,6.37,6.37,0,0,1,.54,3,15.24,15.24,0,0,1-2,7.15,36.23,36.23,0,0,1-6.3,8.22,16.6,16.6,0,0,1-4.43,2.73,31.49,31.49,0,0,1-4.12,1.35A1.12,1.12,0,0,1,266.42,128.52Z"/><path class="cls-2" d="M285.19,170a16.6,16.6,0,0,0,2.27,1.42c2,1.18,4.07,2.33,6.1,3.51.86.51,1.72,1,2.62,1.42.2.1.47.19.37.49s-.32.31-.56.33a2,2,0,0,1-.89-.07,21.15,21.15,0,0,1-2.49-.89,25.06,25.06,0,0,1-2.44-1.07c-2.83-1.81-5.91-3.18-8.82-4.83a1.47,1.47,0,0,0-.72-.32,36,36,0,0,0-3.69-2.07,32.32,32.32,0,0,1-4.06-2.4,39.11,39.11,0,0,1-3.44-2.11,37,37,0,0,1-3.61-3c-.19-.2-.55-.39-.41-.73s.54-.34.87-.36a3.17,3.17,0,0,1,1.54.33,40.84,40.84,0,0,1,3.81,2.15c3.48,2.14,7,4.26,10.48,6.39a.58.58,0,0,0,.19,0A24.16,24.16,0,0,0,285.19,170Z"/><path class="cls-3" d="M246.12,141.25a.43.43,0,0,0,.5.1c2.1-.66,4.3-.85,6.44-1.33a33.63,33.63,0,0,1,7-.8,1,1,0,0,0,.91-.48,9.24,9.24,0,0,1,.61-.79,2.9,2.9,0,0,1,.89-.78,1.25,1.25,0,0,1,1.32,0c.32.39.07.75-.08,1.12a22.26,22.26,0,0,1-2.37,3.56c-1.1,1.61-2.4,3.1-3.42,4.78a1.88,1.88,0,0,1-.18.24.63.63,0,0,1-.89.16c-.32-.21-.23-.52-.08-.8L258,144.1c.35-.61.71-1.21,1-1.82.12-.23.38-.48.2-.73s-.55-.18-.83-.11a6.81,6.81,0,0,1-1.68.13c-.67,0-1.34,0-2,0a50.19,50.19,0,0,0-5.06.35c-1.06.09-2.12.19-3.18.26a4,4,0,0,0-3,1.12c-.45.52-1.17.75-1.65,1.27a.32.32,0,0,1-.52,0,.3.3,0,0,1,.06-.45c.57-.5,1-1.17,1.56-1.66a31.93,31.93,0,0,0,2.51-2.43,5.61,5.61,0,0,1,1.61-1.16c.31-.16.71-.46,1-.09s-.14.72-.41,1-.42.33-.62.5A3.34,3.34,0,0,0,246.12,141.25Z"/><path class="cls-1" d="M288.55,183.51c-.22.43-.66.39-1,.44a5,5,0,0,1-2.07-.26,28.63,28.63,0,0,1-4.58-1.53c-1.68-.83-3.46-1.5-5.06-2.46-1.07-.64-2.14-1.32-3.23-1.92a47.74,47.74,0,0,1-4.43-3.27,10.14,10.14,0,0,1-2.48-3c-.39-.6-.19-.94.52-1.12a1.87,1.87,0,0,1,1.7.35,8.37,8.37,0,0,1,.87.82,24.13,24.13,0,0,0,3.2,2.86,65.06,65.06,0,0,0,12.15,7.48,12.38,12.38,0,0,0,4.06,1.35A.44.44,0,0,1,288.55,183.51Z"/><path class="cls-3" d="M265,130.77a22,22,0,0,0-1.69-3.27c-1.36-2.52-2.79-5-4.21-7.49a15.17,15.17,0,0,1-1.52-3.14c-.12-.39-.27-.76.13-1.09a1.22,1.22,0,0,1,1.39-.2,2.21,2.21,0,0,1,1,1.17c.61,1.37,1.21,2.74,1.81,4.11q2.17,5,4.33,10c.23.52.44,1.05.69,1.56s0,.62-.37.71a2.7,2.7,0,0,1-2.11-.42c-2.63-1.62-5.25-3.27-7.88-4.91-.14-.09-.32-.17-.31-.35s.26-.25.44-.31a1.11,1.11,0,0,1,.87.13c1.67.83,3.32,1.7,5,2.49a7.37,7.37,0,0,0,2.33,1.07c0,.07.09.08.11,0S265,130.79,265,130.77Z"/><path class="cls-1" d="M280.7,89.66c0,.08,0,.25,0,.41a.37.37,0,0,1-.32.33.41.41,0,0,1-.44-.17,2.63,2.63,0,0,1-.22-.55,11.66,11.66,0,0,0-2.26-4,34.1,34.1,0,0,0-4.37-4.62,8.4,8.4,0,0,1-1.87-2.44,3.65,3.65,0,0,1-.34-.82c-.25-.9.11-1.32,1-1.31a2.26,2.26,0,0,1,1.14.33,15.86,15.86,0,0,1,5.49,5.67c.34.6.62,1.24.94,1.85A14.27,14.27,0,0,1,280.7,89.66Z"/><path class="cls-1" d="M291.85,151.91a6,6,0,0,1,1.89.14c.27.07.62.16.63.53s-.28.51-.55.64a5.52,5.52,0,0,1-1.33.4c-3.9.73-7.79,1.5-11.61,2.55-1.42.39-2.82.81-4.22,1.23a2.7,2.7,0,0,1-1.86,0c-.48-.2-.54-.44-.14-.78a4.13,4.13,0,0,1,1.18-.65,75.4,75.4,0,0,1,14.32-4C290.71,152,291.28,152,291.85,151.91Z"/><path class="cls-3" d="M285.19,170a24.16,24.16,0,0,1-2.88-1.77c3.43,0,6.86,0,10.28,0a35.63,35.63,0,0,0,4.26-.35,3.82,3.82,0,0,1,1.39,0c.22.06.48.15.47.44s-.22.33-.41.38a13,13,0,0,1-1.84.45,32.85,32.85,0,0,1-3.95.41c-2.13,0-4.24.34-6.37.24A1.18,1.18,0,0,0,285.19,170Z"/><path class="cls-3" d="M276.94,167.9a36,36,0,0,1,3.69,2.07c-1.37,0-2.73.05-4.09,0a32.63,32.63,0,0,1-6.6-.8,5,5,0,0,1-1.4-.52c-.19-.11-.46-.2-.43-.49a.63.63,0,0,1,.54-.52,5.57,5.57,0,0,1,1.47-.23,47.39,47.39,0,0,1,4.75.45A6.54,6.54,0,0,0,276.94,167.9Z"/><path class="cls-1" d="M299,74.09c.16,0,.36,0,.56.06.62.16.75.51.33,1a6.21,6.21,0,0,1-1.95,1.5,74.33,74.33,0,0,1-7.11,3.07,2.37,2.37,0,0,1-1.18.13c-.13,0-.27,0-.31-.21a.33.33,0,0,1,.18-.4,13.18,13.18,0,0,0,1.44-1c2.15-1.53,4.23-3.18,6.83-3.94A5.09,5.09,0,0,1,299,74.09Z"/><path class="cls-1" d="M159.49,72.85a20,20,0,0,1,3.25-1.66,32.83,32.83,0,0,1,3.06-1.27,7.63,7.63,0,0,1,3-.46c.22,0,.5,0,.56.28s-.24.41-.41.5a19,19,0,0,1-2.09.89q-2.91,1-5.9,1.75A1.91,1.91,0,0,1,159.49,72.85Z"/><path class="cls-1" d="M252.72,73.69c1.21-.92,2.39-1.59,3.54-2.31a16,16,0,0,1,1.67-1.16,3.29,3.29,0,0,1,1.79-.39c.24,0,.55.1.62.39s-.16.43-.35.56a14.53,14.53,0,0,1-1.57,1,37.8,37.8,0,0,1-4.23,1.84A2,2,0,0,1,252.72,73.69Z"/><path class="cls-1" d="M216.11,65.52a2.61,2.61,0,0,1-1.27,1.59c-1.64,1-3.22,2.09-4.84,3.13a4.68,4.68,0,0,1-.45.19c-.13.06-.25.08-.31-.08a.22.22,0,0,1,.07-.27l.38-.29c1.47-1.14,2.57-2.66,4-3.88a3.62,3.62,0,0,1,1.6-.94C215.73,64.87,216.13,65.13,216.11,65.52Z"/><path class="cls-1" d="M270.57,105.65a.42.42,0,0,1-.4-.24.5.5,0,0,1,.16-.62c.5-.48,1-1,1.5-1.45,1-.86,1.89-1.85,2.85-2.76a1,1,0,0,1,1-.36c.21.06.36.2.24.44a4.53,4.53,0,0,1-.34.61,15.6,15.6,0,0,1-4.15,4.07A1.49,1.49,0,0,1,270.57,105.65Z"/><path class="cls-3" d="M255.73,147.61a.93.93,0,0,1,.74.39,10,10,0,0,1,1.67,3.48.49.49,0,0,1-.25.6.47.47,0,0,1-.55-.09,2.44,2.44,0,0,1-.42-.43c-.58-.93-1.15-1.87-1.71-2.81a1,1,0,0,1-.15-.37C255,147.91,255.21,147.61,255.73,147.61Z"/><path class="cls-2" d="M107.77,110.76a.53.53,0,0,1-.76.16c-.65-.27-1.33-.45-2-.72a6.32,6.32,0,0,0-1.59-.47,2.73,2.73,0,0,1-1.41-.65.77.77,0,0,1-.25-.81c.11-.38.48-.26.76-.27a.57.57,0,0,1,.29,0A20.69,20.69,0,0,1,107.77,110.76Z"/><path class="cls-1" d="M165.54,83.25a14.35,14.35,0,0,1,1.76-1.66A24.06,24.06,0,0,1,170,79.7a2.17,2.17,0,0,1,1.21-.33c.35,0,.45.27.23.55a2,2,0,0,1-.43.4,50.63,50.63,0,0,1-4.51,2.88A.83.83,0,0,1,165.54,83.25Z"/><path class="cls-1" d="M167.91,102.05a2.74,2.74,0,0,1,1.24-1,21.29,21.29,0,0,1,4.41-1.45c.35-.06.84-.22,1,.17s-.41.5-.71.65a13.94,13.94,0,0,1-2.6,1,11.83,11.83,0,0,0-2.37.74A.9.9,0,0,1,167.91,102.05Z"/><path class="cls-1" d="M200.16,88.38a.31.31,0,0,1-.19.32,31.34,31.34,0,0,1-3.06,1.55.65.65,0,0,1-.2,0,.45.45,0,0,1-.43-.18c-.09-.19.09-.33.21-.41.74-.45,1.5-.89,2.26-1.31a1.52,1.52,0,0,1,1-.28A.5.5,0,0,1,200.16,88.38Z"/><path class="cls-1" d="M191.78,104.86c.95-.66,1.91-1.33,2.87-2a4.59,4.59,0,0,1,.79-.34c.19-.07.4-.15.52.09a.44.44,0,0,1-.08.47,1,1,0,0,1-.45.38A27.25,27.25,0,0,1,191.78,104.86Z"/><path class="cls-1" d="M140.57,64.86a1.3,1.3,0,0,1-.19.31,17.08,17.08,0,0,1-2.26,2.07,1.09,1.09,0,0,1-.35.15.29.29,0,0,1-.35-.11.32.32,0,0,1,0-.28,1.49,1.49,0,0,1,.37-.45,3.42,3.42,0,0,0,.89-1,2.27,2.27,0,0,1,1.33-1C140.25,64.49,140.52,64.49,140.57,64.86Z"/><path class="cls-1" d="M225.29,77.12c1.24-.77,2.24-1.55,3.71-1.52a1.78,1.78,0,0,1-1.33,1.07A3.57,3.57,0,0,1,225.29,77.12Z"/><path class="cls-1" d="M190.4,80.11a9,9,0,0,1-3.48,1.34C188.11,80.26,189.32,79.8,190.4,80.11Z"/><path class="cls-2" d="M138,106.91c.94-.19,1-.2,1.23.47a2.23,2.23,0,0,1,.34,1.44C138.54,108.52,138.45,107.59,138,106.91Z"/><path class="cls-1" d="M183.48,74.16c-.75.52-1.2,1.3-2.26,1.25C181.92,74.37,182.53,74,183.48,74.16Z"/><path class="cls-1" d="M279,128.67s0,.05,0,.07-.09,0-.12,0a.14.14,0,0,1,.07-.06Z"/><path class="cls-4" d="M265,130.77s.06,0,.06.06-.06.06-.11,0Z"/></svg>