<svg id="frames" xmlns="http://www.w3.org/2000/svg" viewBox="0 0 384 216"><defs><style>.cls-1{fill:#f8f9f9;}.cls-2{fill:#19253b;}.cls-3{fill:#fc0e0d;}</style></defs><path class="cls-1" d="M264.15,141.62a1.54,1.54,0,0,1,.92.31,26.26,26.26,0,0,1,4.56,3.38,27.67,27.67,0,0,1,5,6,19.31,19.31,0,0,1,2.77,7.73c.18,1.49.22,3,.28,4.47a23.71,23.71,0,0,1-.39,5,31.43,31.43,0,0,0-.18,8,24.51,24.51,0,0,0,2,6.86,3.19,3.19,0,0,0,3.08,2.37c.4,0,.78.16,1.18.23a.49.49,0,0,1,.42.37l-7.28.11a126.72,126.72,0,0,1-14.05-.22,57.58,57.58,0,0,1-10.19-1.82,114.57,114.57,0,0,1-13.22-4.67c.1-.14.2-.27.4-.23.38.08.77.15,1.15.26,3.15,1,6.34,1.86,9.56,2.64a56.55,56.55,0,0,0,7.46,1.2c2.11.22,4.23.3,6.35.42,1.41.09,2.82.39,4.24.48a5.4,5.4,0,0,0,.8.07c2-.1,4,.25,6,.2,1,.24,2,.23,3.12.42-.6-1.11-1.1-2.08-1.63-3a10.68,10.68,0,0,1-1.25-3.77,27.64,27.64,0,0,1-.26-4.17c0-3.17.11-6.33.35-9.48a27.27,27.27,0,0,0-.71-8,16,16,0,0,0-2.3-5.81c-1.09-1.59-2.21-3.17-3.42-4.67a24.33,24.33,0,0,0-2.9-3A11.92,11.92,0,0,1,264.15,141.62Z"/><path class="cls-2" d="M239.05,179.77a114.57,114.57,0,0,0,13.22,4.67,57.58,57.58,0,0,0,10.19,1.82,126.72,126.72,0,0,0,14.05.22l7.28-.11a6,6,0,0,1,1.84.33c-1.34.59-2.74.64-4,1.12a3.21,3.21,0,0,0-1.34.23.74.74,0,0,0,.29.53,31.53,31.53,0,0,0,3.56,3.47,14.62,14.62,0,0,0,2.48,1.79c.68.63,1.52,1,2.19,1.69.46.44,1,.81,1.48,1.21a.36.36,0,0,1,.1.52c-.16.21-.31,0-.42,0-.89-.71-2-1.09-2.87-1.8-.36-.29-.86-.29-1.25-.57-.76-.55-1.55-1.06-2.34-1.56-.59-.36-1.23-.64-1.81-1a7.07,7.07,0,0,1-1.49-1.3c-.57-.64-1.42-1.05-1.92-1.72a1.67,1.67,0,0,0-1.88-.61,45.65,45.65,0,0,1-10.77.08,119.17,119.17,0,0,1-18-3.43,41.34,41.34,0,0,1-4.74-1.49c-.89-.34-1.69-.9-2.61-1.17A21.52,21.52,0,0,1,235,180c-1.78-1.1-3.6-2.16-5.4-3.23-.19-.12-.38-.26-.58-.37s-.37-.24-.3-.45.36-.23.59-.18a10.14,10.14,0,0,1,2.26.74q2.52,1.2,5,2.36A13.07,13.07,0,0,0,239.05,179.77Z"/><path class="cls-2" d="M264.15,141.62a11.92,11.92,0,0,0,1.83,1.65,24.33,24.33,0,0,1,2.9,3c1.21,1.5,2.33,3.08,3.42,4.67a16,16,0,0,1,2.3,5.81,27.27,27.27,0,0,1,.71,8c-.24,3.15-.34,6.31-.35,9.48a27.64,27.64,0,0,0,.26,4.17,10.68,10.68,0,0,0,1.25,3.77c.53,1,1,1.92,1.63,3-1.16-.19-2.15-.18-3.12-.42a26.52,26.52,0,0,1-2.25-9.1,19.9,19.9,0,0,1,.12-2.89,93.18,93.18,0,0,0,0-10.57c0-1.5-.14-3-.29-4.48a22.15,22.15,0,0,0-1.86-5.9,18.88,18.88,0,0,0-2.41-3.79,27.13,27.13,0,0,0-2.88-3.37,19.55,19.55,0,0,0-2-1.7,26,26,0,0,1-2.76-2.38.41.41,0,0,1-.1-.45A11.56,11.56,0,0,1,264.15,141.62Z"/><path class="cls-3" d="M271,180.69a1,1,0,0,1-1.31-.37,18.15,18.15,0,0,0-3.81-3.35,15.37,15.37,0,0,1-2.53-2.24,42,42,0,0,1-5.43-7,3.68,3.68,0,0,0-.39-.58c-2.62-3.16-4.78-6.65-7.28-9.9a26.13,26.13,0,0,1-1.61-2.51c-.1-.16-.22-.38,0-.53a.39.39,0,0,1,.46.09,8.68,8.68,0,0,1,1,.85,83,83,0,0,1,6.84,8.58c.45.66.95,1.28,1.45,1.9a40.15,40.15,0,0,1,2.44,3.52,38.43,38.43,0,0,0,5.54,6.66l3.49,3.44A6.73,6.73,0,0,1,271,180.69Z"/><path class="cls-1" d="M286.59,193.84a14.62,14.62,0,0,1-2.48-1.79,31.53,31.53,0,0,1-3.56-3.47.74.74,0,0,1-.29-.53,3.21,3.21,0,0,1,1.34-.23,18.88,18.88,0,0,0,1.75,2.23,30.8,30.8,0,0,0,2.74,3A1.25,1.25,0,0,1,286.59,193.84Z"/></svg>