<svg id="frames" xmlns="http://www.w3.org/2000/svg" viewBox="0 0 384 216"><defs><style>.cls-1{fill:#132037;}.cls-2{fill:#f9f9f9;}.cls-3{fill:#fb0e0d;}</style></defs><path class="cls-1" d="M254.19,178.16A42,42,0,0,1,265,181a21.09,21.09,0,0,1,2,.88,2,2,0,0,1,.95.86c.29.53.18.8-.41.91a6.76,6.76,0,0,1-1.19.12c-2.2,0-4.4.06-6.59-.07-.53,0-1.07,0-1.66,0a1.82,1.82,0,0,0,.93.48,55,55,0,0,0,10.7,2.85,14.82,14.82,0,0,1,1.75.41,2.09,2.09,0,0,1,.78.41.32.32,0,0,1-.15.59,7,7,0,0,1-1.29.13,54.64,54.64,0,0,1-6.88-.41,100.69,100.69,0,0,1-12.31-2.06c-1.07-.24-2.14-.56-3.21-.79a17.39,17.39,0,0,1-3.83-1.27c-.54-.26-1.27-.19-1.78-.49a34.19,34.19,0,0,0-3.6-1.38,89.15,89.15,0,0,1-9.27-4.38c-.91-.56-1.92-.92-2.79-1.58a5.94,5.94,0,0,0-2-1,3.3,3.3,0,0,1-1-.6,9.09,9.09,0,0,0-1.95-1.21,19.24,19.24,0,0,1-2.15-1.34c-1.49-1-3-2-4.47-3s-3-1.84-4.51-2.76a1.91,1.91,0,0,1-.48-.35c-.12-.14-.23-.34,0-.51.95.56,1.92,1.08,2.83,1.69a29.41,29.41,0,0,0,3,1.75c1.18.6,2.38,1.17,3.53,1.83a76.06,76.06,0,0,0,12,5.72,29.05,29.05,0,0,0,9.46,1.83C245.67,178.28,249.93,177.93,254.19,178.16Z"/><path class="cls-1" d="M275.19,153.46a29.34,29.34,0,0,1,1.66,3.65,19.16,19.16,0,0,1,1,6.26,30,30,0,0,1-.71,6.74,35.3,35.3,0,0,0-.71,7.74,9.8,9.8,0,0,0,1.2,4c.49,1.06,1,2.1,1.52,3.15.12.26.32.54,0,.8s-.6.1-.88-.13a1.53,1.53,0,0,1-.55-.69,5.7,5.7,0,0,0-1-1.58c-.71-1-1.23-2.13-1.87-3.18-.53-.86-1-1.75-1.59-2.59a9.1,9.1,0,0,1-1.51-4,13.51,13.51,0,0,1-.09-3.48,48.22,48.22,0,0,0-.2-10.47c-.06-.56-.12-1.13-.16-1.69-.22-3-1.47-5.57-2.75-8.18a7,7,0,0,0-1.21-1.45,40.83,40.83,0,0,0-5.2-4.81,73.44,73.44,0,0,1-10.81-10.34,34.72,34.72,0,0,1-2.71-3.64c-.55-.88-1.14-1.74-1.62-2.67a2.4,2.4,0,0,1-.34-1.13c0-.26.18-.32.42-.25.1.24.2.49.32.72a34.36,34.36,0,0,0,8.64,10.5c2.57,2.22,5.38,4.13,8.15,6.09a42.36,42.36,0,0,1,9.54,8.88A6.68,6.68,0,0,0,275.19,153.46Z"/><path class="cls-2" d="M254.19,178.16c-4.26-.23-8.52.12-12.79.05a29.05,29.05,0,0,1-9.46-1.83,76.06,76.06,0,0,1-12-5.72c-1.15-.66-2.35-1.23-3.53-1.83a29.41,29.41,0,0,1-3-1.75c-.91-.61-1.88-1.13-2.83-1.69a7.58,7.58,0,0,0-1.75-1.1c-.86-.5-1.76-.93-2.63-1.4l-.36-.18c-.28-.15-.55-.34-.35-.7s.46-.19.71-.08c1.2.56,2.43,1.08,3.6,1.72,1.54.85,3.07,1.71,4.65,2.51a17.07,17.07,0,0,1,2.09,1.16,49.53,49.53,0,0,0,10.6,5c1.64.63,3.31,1.21,5,1.78a14,14,0,0,0,2.79.73,29.11,29.11,0,0,1,3,.76,39.81,39.81,0,0,0,6.85,1.22c2,.12,4,.36,6,.57,1,.11,2,.28,3.05.42C254,177.86,254.12,178,254.19,178.16Z"/><path class="cls-3" d="M237.77,141a3,3,0,0,1,1.47.78,59.39,59.39,0,0,1,5,5.15,192.4,192.4,0,0,1,14.34,18.93c1.16,1.67,2.29,3.36,3.42,5.05.2.3.37.63.54.95s.19.46-.09.61a.59.59,0,0,1-.81-.09c-.16-.21-.27-.46-.42-.68-3.37-4.71-6.77-9.41-10.42-13.91q-1.68-2.06-3.43-4.07c-.92-1.06-1.79-2.2-2.72-3.25-1.13-1.29-2.24-2.59-3.39-3.87A28.56,28.56,0,0,1,239,144a23.64,23.64,0,0,0-1.81-2.08c-.15-.17-.43-.3-.3-.57s.39-.22.6-.3A1.34,1.34,0,0,1,237.77,141Z"/><path class="cls-2" d="M275.19,153.46a6.68,6.68,0,0,1-1.4-1.78,42.36,42.36,0,0,0-9.54-8.88c-2.77-2-5.58-3.87-8.15-6.09a34.36,34.36,0,0,1-8.64-10.5c-.12-.23-.22-.48-.32-.72.16-.5.43-.54.81-.22a21.34,21.34,0,0,1,1.76,2,52.27,52.27,0,0,0,6.22,6.58c1.2,1,2.34,2.06,3.5,3.1a33.49,33.49,0,0,0,3.89,2.78,47.13,47.13,0,0,1,4.52,3.59,34.89,34.89,0,0,1,7,8.89A2,2,0,0,1,275.19,153.46Z"/><path class="cls-2" d="M181.7,160.6c.17,0,.31,0,.44.05.37.09.48.36.23.65a2.71,2.71,0,0,1-.61.51c-2.19,1.39-4.29,2.92-6.6,4.1a3.3,3.3,0,0,0-.79.6,1.67,1.67,0,0,1-.67.41.32.32,0,0,1-.37,0,.34.34,0,0,1,0-.45.9.9,0,0,1,.2-.23c1.91-1.48,3.55-3.29,5.6-4.61A7.93,7.93,0,0,1,181.7,160.6Z"/><path class="cls-2" d="M193.9,161.46a.86.86,0,0,1,.59-.75,37.82,37.82,0,0,1,7-2.77c.55-.13,1.11-.22,1.66-.3a1.72,1.72,0,0,1,.59.08c.15,0,.32.13.31.33a.38.38,0,0,1-.22.3,5.24,5.24,0,0,1-1.19.52c-2,.56-3.95,1.14-5.93,1.68a8.44,8.44,0,0,0-1.29.51A3.07,3.07,0,0,1,193.9,161.46Z"/></svg>