<svg id="frames" xmlns="http://www.w3.org/2000/svg" viewBox="0 0 384 216"><defs><style>.cls-1{fill:#fdfdfd;}.cls-2{fill:#162239;}.cls-3{fill:#fd0908;}.cls-4{fill:#f9f9fa;}</style></defs><path class="cls-1" d="M177.64,91.79c4.82,1,11.19,2.78,15.39,5.37a1.38,1.38,0,0,0,.93.27c-.32,1.3-.64,2.62-1,3.92-.11.45-.29.89-.4,1.34s-.47.65-1,.49c-.13,0-.26-.06-.39-.09a50.51,50.51,0,0,0-8.9-1.2,6.8,6.8,0,0,1-2.72-.53,2.37,2.37,0,0,0-2,0,23.34,23.34,0,0,1-4.18,1.32c-.45.11-.89.26-1.34.41-3.23,1-6.39,2.29-9.54,3.56-1.48.6-3,1-4.63,1.55,0-1.78-.48-3.45.18-5.12.27-.7,0-1.13-.68-1.06-.87.09-1.73.28-2.59.44-.09,0-.09.09,0,.18s.67-.26.79.23c.05.18,0,.4.23.47a.64.64,0,0,0,.62-.24c.19-.19.33-.51.72-.36-.12,1.34-.26,2.66-.37,4,0,.4-.16.91.1,1.16s.22.72,0,1.14a2.72,2.72,0,0,0,.51,0c2.11-.72,4.27-1.28,6.36-2.06,3-1.15,6.12-2.25,9.17-3.42.57-.22,1.16-.09,1.72-.36.75-.36,1.57-.56,2.32-.91a3.18,3.18,0,0,1,3,.23,2.7,2.7,0,0,0,1.31.32,28.64,28.64,0,0,1,4.33.45c0,.37-.26.51-.41.71a6.4,6.4,0,0,0-1.13,1.87.89.89,0,0,1-1.09.7,6.19,6.19,0,0,0-1.59.17,17.37,17.37,0,0,1-6.06,0,6.42,6.42,0,0,0-3.25.22c-1.17.39-2.34.78-3.52,1.13-2.36.71-4.82,1.07-7.06,2.15a12.21,12.21,0,0,1-3.74,1c-1,.13-2.05.25-3.07.42a.78.78,0,0,1-.91-.37,5.89,5.89,0,0,1-.81-5.6c.35-.93.7-1.87,1-2.82.07-.22.27-.46.09-.74-.34.07-.45.38-.59.62-.45.75-.87,1.5-1.3,2.26a5.78,5.78,0,0,0-.71,3.36,7.1,7.1,0,0,0,.83,3.06,1.79,1.79,0,0,1,.27.74,9.6,9.6,0,0,0,.62,1.9,1,1,0,0,0,1.23.79,7.44,7.44,0,0,0,3.56-1.14,9.63,9.63,0,0,1,3.46-1.73c1.19-.31,2.36-.7,3.54-1.06a8.88,8.88,0,0,1,3.5.61,7.7,7.7,0,0,0,5.08-.13,9.54,9.54,0,0,0,3.5-2.22,28.88,28.88,0,0,1,6.28,2.84,1.49,1.49,0,0,0,1.19,1.58,11.74,11.74,0,0,1,1.09.49,55.55,55.55,0,0,1,5.44,2.9l-.82.37a79.41,79.41,0,0,1-26.09,5.86,89.47,89.47,0,0,1-22-1.38c-10.36-2-20.18-5.37-29-11.4h0c-.27-.16-.34-.25-.55-.37a8.07,8.07,0,0,1-1-1,2.79,2.79,0,0,1-.36-1.17,1.66,1.66,0,0,1,.5-1.5c14.93-11.64,24.82-16.22,52-15.67A114.14,114.14,0,0,1,177.64,91.79Zm2.5,13a6.28,6.28,0,0,0-3-.16.88.88,0,0,0-.52.27c-.09.11-.14.22,0,.34a3.09,3.09,0,0,0,2.06.45C179.14,105.39,179.64,105.08,180.14,104.77Z"/><path class="cls-2" d="M199.06,94.16a5.34,5.34,0,0,1,1.47,1,18.73,18.73,0,0,1,3,3.44.87.87,0,0,0,.5.38,18.61,18.61,0,0,0,.58-2.9.46.46,0,0,0,.23-.42,2.81,2.81,0,0,0-.65-2.13c-.84-1-1.61-2.05-2.53-3s-1.53-2-.93-3.33c0,0,0-.09-.09-.16-.31,0-.31.42-.59.47a1.51,1.51,0,0,1-.17-.1,39.73,39.73,0,0,1-4.65-5.71c-.17-.3-.33-.5-.69-.31l0-.44.47-.43c.27,0,.55-.21.81,0,.46.5.94,1,1.37,1.51.63.75,1.23,1.53,1.84,2.3a12.68,12.68,0,0,0,1.4,2c.13.17.3.26.49.07s.2-.3,0-.42a21.28,21.28,0,0,1-1.48-1.67c0-.16-.11-.34.14-.39a.6.6,0,0,1,.6.28c.34.41.69.81,1,1.22.2.25.39.32.67.11a5.88,5.88,0,0,1,1.62-.71,6.94,6.94,0,0,0-3.09-2.48,12.43,12.43,0,0,1-2.92-1.73.88.88,0,0,1,.57-.47,6.94,6.94,0,0,0,2.16-1.56,9.19,9.19,0,0,1,2.52-2.08.29.29,0,0,0,.21-.29c0-.18-.11-.43.19-.47s.33.16.45.33c.27.37.85.34,1,0a2,2,0,0,0,0-.69c0-.15,0-.28.18-.28a.37.37,0,0,1,.26.09.67.67,0,0,1,.2.33c.05.51.36.46.71.38a8.34,8.34,0,0,1,1.47-.3c.5,0,.62-.26.57-.69,0-.24-.21-.55.25-.57.37.37.41,1,.88,1.29a.56.56,0,0,1,.14.45c-.09.7.32,1.34.23,2-.05.4.24.67.41,1a31.42,31.42,0,0,1,1.56,3.06c-.13.15-.28.2-.4,0a6.5,6.5,0,0,1-.43-.78c-.62-1.2-1.24-2.39-2-3.53-.22-.34-.42-.5-.78-.22-.31-.29-.53-.15-.69.16a1.66,1.66,0,0,0-.08,1,1.88,1.88,0,0,1-1.77-.37c-.69-.61-1.2-.56-1.67.24A16.56,16.56,0,0,1,201.28,82a2.21,2.21,0,0,0,.29.2,7.79,7.79,0,0,1,2.87,2.39c.62.77,1.26,1.68,2.45,1.71a2,2,0,0,0,1.45.15L208,86c-.54-.62-.53-.94.1-1.48.28-.23.59-.41.89-.62a5.14,5.14,0,0,0,.45,1.73.88.88,0,0,0,.93.6,3.53,3.53,0,0,1,2.64,1,.75.75,0,0,0,1.07,0,2.22,2.22,0,0,0,.88-2.19,12,12,0,0,0-.67-2.55c.63-.15.85.35,1,.75a35.54,35.54,0,0,1,1.47,3.56,3.73,3.73,0,0,0,.71,1.42,27,27,0,0,1,2.47,3.72,6.31,6.31,0,0,0,1.45,1.33,24.14,24.14,0,0,1,2.79,2.84,5.24,5.24,0,0,1,1,1.93,3.88,3.88,0,0,1,.08.39c.2,1.18.34,2.37.63,3.52a9.42,9.42,0,0,0,.86,1.89,13.19,13.19,0,0,1,1.46,4.8,1.85,1.85,0,0,0,.05,1,3.52,3.52,0,0,0,.08,1.21l0,3.2a1.3,1.3,0,0,1-.92,1c0-.36-.24-.2-.41-.17a1.64,1.64,0,0,1-1.69-.57,43.57,43.57,0,0,1-4-5.07c-.43-.66-.41-.71.23-1.17a4.75,4.75,0,0,0,1.59-1.45,1,1,0,0,0-.86.34,39.87,39.87,0,0,1-7.25,4.5c-1.14.57-1.95,1.6-3.08,2.19a.32.32,0,0,0-.16.23c0,.17.12.21.25.24a28.36,28.36,0,0,0-2.8,2.79,8.84,8.84,0,0,1-2.36,1.94c-.27-.22-.49,0-.73.09a11.74,11.74,0,0,1-2.25.78,10.6,10.6,0,0,1-6.69-1,61.76,61.76,0,0,1-8.91-5.09c-1.49-1-3.15-1.74-4.55-2.88-.21-.17-.4,0-.41.2s0,.73.06,1.09a28.84,28.84,0,0,0-6.28-2.83c.07-.3-.15-.31-.35-.35a9.48,9.48,0,0,0-2.38-.15s-.06.09-.1.15l.63.29a1.26,1.26,0,0,1-.18.27,7.76,7.76,0,0,1-6.09,1.57c-.79-.1-1.57-.26-2.36-.38a3.43,3.43,0,0,0-1.77.24l.52.1c-1.18.35-2.35.75-3.54,1a9.71,9.71,0,0,0-3.46,1.73,7.46,7.46,0,0,1-3.56,1.15,1.06,1.06,0,0,1-1.23-.8,9.72,9.72,0,0,1-.62-1.89,1.88,1.88,0,0,0-.27-.75,7,7,0,0,1-.83-3,5.81,5.81,0,0,1,.71-3.37c.43-.76.85-1.51,1.3-2.25.14-.25.25-.55.59-.63.18.29,0,.52-.09.75-.32.94-.67,1.88-1,2.82a5.87,5.87,0,0,0,.81,5.59.78.78,0,0,0,.91.38c1-.18,2.05-.29,3.07-.43a11.94,11.94,0,0,0,3.74-1c2.24-1.08,4.71-1.44,7.06-2.14,1.19-.35,2.35-.74,3.52-1.13a6.31,6.31,0,0,1,3.25-.23,17.19,17.19,0,0,0,6.07,0,6.54,6.54,0,0,1,1.58-.17.88.88,0,0,0,1.09-.69,6.82,6.82,0,0,1,1.13-1.88c.15-.2.42-.33.42-.71a27.52,27.52,0,0,0-4.34-.44,2.83,2.83,0,0,1-1.31-.33,3.18,3.18,0,0,0-3-.22c-.75.34-1.57.54-2.32.91-.55.27-1.15.13-1.72.35-3,1.17-6.12,2.27-9.17,3.42-2.09.79-4.25,1.35-6.36,2.06a2.51,2.51,0,0,1-.51.05c.22-.43.41-.75,0-1.14-.26-.25-.13-.77-.1-1.17.11-1.31.25-2.63.38-4-.4-.15-.54.17-.73.36a.64.64,0,0,1-.62.23c-.26-.06-.18-.29-.22-.47-.13-.49-.58-.1-.79-.23s-.12-.16,0-.18c.86-.16,1.72-.35,2.59-.44.65-.06,1,.37.68,1.06-.66,1.68-.18,3.35-.18,5.13,1.63-.52,3.16-1,4.63-1.55,3.15-1.28,6.32-2.51,9.55-3.57.44-.15.88-.3,1.33-.41a23.31,23.31,0,0,0,4.18-1.31,2.33,2.33,0,0,1,2,0,7,7,0,0,0,2.72.52,51.47,51.47,0,0,1,8.9,1.2l.39.1c.48.15.82.06,1-.5s.29-.88.4-1.33c.33-1.31.65-2.62,1-3.93a4.58,4.58,0,0,1,1.36-1.93c.49,0-.5,1.43-.58,1.71-.51,1.79-.77,3.64-1.42,5.4a5.29,5.29,0,0,0-.15.57.27.27,0,0,0,.13.34.3.3,0,0,0,.42-.13,3.66,3.66,0,0,0,.18-.46,46.31,46.31,0,0,0,1.6-5.55c0-.1,0-.2.06-.29,0-.42.45-.48.71-.61s.36.23.51.39c.37.39.4,1,.76,1.39,1,1,2,2.06,3,3.15a6.07,6.07,0,0,1,2.4-2.21,17.76,17.76,0,0,0-3.23-3.78,4.91,4.91,0,0,0-2.67-.76Zm7.47,5.39c-.63,2.22-1,4.3-1.61,6.29-.11.35.07.47.33.61a11.55,11.55,0,0,1,3,2.25c.29.34.52.29.83,0A25.89,25.89,0,0,0,212.3,106c1.44-1.55,2.67-3.24,4-4.9a11.84,11.84,0,0,0,1.62-2.74c.29-.71.62-1.4,1-2.09.09-.18.15-.48.49-.37a5,5,0,0,1-.1,1.68c-.29,1.27-.63,2.52-.86,3.8A5.82,5.82,0,0,1,216,105.2a6,6,0,0,0-.62.51c-.92.93-1.83,1.87-2.74,2.8a20.05,20.05,0,0,0,6.21-1.63,2,2,0,0,0,.7-.55c1.06-1.39,2.56-2.32,3.72-3.6.06-.06.13,0,.26.11a31.17,31.17,0,0,1,.93,5.51,8.81,8.81,0,0,0,1.3-1.46A1.64,1.64,0,0,0,226,105a45.07,45.07,0,0,1-2.35-5.71,18.29,18.29,0,0,0-1.8-3.89A9.29,9.29,0,0,0,218,91.92c-.18-.11-.39-.28-.64-.08l.09.26c.06.14.27.27.11.43s-.38.08-.53-.06-.51-.53-.79-.77-.5-.62-1-.7a5.3,5.3,0,0,0,.29,1.38,16.56,16.56,0,0,1,.48,3.05,4.08,4.08,0,0,1-.64,2.56c-.87,1.38-1.95,2.62-2.71,4.07,0,.09-.16.11-.32.06-.1-.25.06-.48.16-.71l2-4.59A5.07,5.07,0,0,0,215,94.6c-.07-1.57-.6-3.07-.8-4.62a.35.35,0,0,0-.09-.17,15.11,15.11,0,0,0-2.67-2.69c-.17-.12-.37-.32-.6-.06.62,1.91-.14,5.49-1.26,5.87-.05-.33.16-.57.26-.83a12.51,12.51,0,0,0,.77-3.4,2.08,2.08,0,0,0-.46-1.59.51.51,0,0,0-.59-.22,6.84,6.84,0,0,1-2.47,0,3.81,3.81,0,0,1-2.7-1.13.56.56,0,0,0-.72-.15,4.07,4.07,0,0,0-1.82,1.51.67.67,0,0,0,.09,1,36.61,36.61,0,0,1,4.47,5.75c1.08,1.52,1.35,3.31,2,5a7.14,7.14,0,0,1,.2,1.41c-.7-.24-.82-1-1.42-1.36-.12,1.24.46,2.39,0,3.52C206.71,101.58,206.93,100.64,206.53,99.55Zm.71,10a9.73,9.73,0,0,0-2.69-2.29.77.77,0,0,0-.45-.19,8.72,8.72,0,0,1-2.52-.53c-1-.17-2-.38-3-.63-3.71-1-7.45-1.75-11.21-2.46a1,1,0,0,0-1,.37,8.63,8.63,0,0,0-1.41,2.51c-.15.4-.1.6.36.68a9.88,9.88,0,0,1,1.64.43c4,1.45,7.94,2.89,11.89,4.4a5.64,5.64,0,0,0,2.81.36A9.16,9.16,0,0,0,207.24,109.55Zm19.35-.27a1.61,1.61,0,0,0-.71.55c-.95.88-.95.89-.45,2.12.09.2.12.48.45.43s.34-.27.39-.51A13.69,13.69,0,0,0,226.59,109.28ZM207.07,98.72l.05,0v-.06Z"/><path class="cls-2" d="M113.19,110.39c8.78,6,18.6,9.41,29,11.39a89.5,89.5,0,0,0,22,1.39,79.74,79.74,0,0,0,26.1-5.87c.27-.11.54-.25.81-.37.79.09,1.29.69,1.93,1-1.59,1.81-3.82,2.57-5.9,3.55-1.71.8-3.52,1.35-5.29,2a1.35,1.35,0,0,0-1,.41l1,.53c.71.56,1.58.84,2.25,1.46a23.6,23.6,0,0,1,6,7.65,6.05,6.05,0,0,0,.68,1.22,54.37,54.37,0,0,0,6.38,7.27A27.37,27.37,0,0,0,205,147a70,70,0,0,0,7.48,2.67c.22.07.44.11.67.17,0,.12.3.29,0,.34-.49.06-1,.07-1.48.1a8.55,8.55,0,0,1-2.52-.67c-.88-.38-1.87-.5-2.77-.88a11.81,11.81,0,0,0-2.05-.94,24.86,24.86,0,0,1-3.54-1.61,12.32,12.32,0,0,1-3.37-2.31c-.5-.36-.88-.65-1.43-1.06s-.73-.74-1.32-1.35a12.59,12.59,0,0,1-1.18-1.46c-.12-.2-.29-.26-.41-.43s-.4-.46-.64-.75-.23-.37-.34-.51a1.33,1.33,0,0,1-.23-.3c-.15-.22-.24-.32-.37-.49-.33-.54-.68-.89-1-1.37a14.36,14.36,0,0,1-1.26-2.24,9.84,9.84,0,0,0-1.81-2.7,2.17,2.17,0,0,0-.37-.49c-.16-.2-.24-.31-.42-.51s-.23-.31-.38-.49c-.37-.43-.7-.79-1.2-1.32a4.15,4.15,0,0,0-.61-.66,7.1,7.1,0,0,0-.55-.55,2.28,2.28,0,0,0-.46-.4,11.78,11.78,0,0,0-2.36-1.62,3.66,3.66,0,0,0-3.62-.52,52.79,52.79,0,0,1-6.25,1.26.23.23,0,0,0-.28.07h-.39c-2.13,0-4.27-.12-6.39,0a81.38,81.38,0,0,1-10.59-.25A92.16,92.16,0,0,1,131.69,121a62.53,62.53,0,0,1-16.92-8.46,1.89,1.89,0,0,0-.35-.17c-.07-.18-.24-.17-.39-.17l-.13-.24c0-.09,0-.13-.1-.14A2.34,2.34,0,0,1,113.19,110.39Z"/><path class="cls-3" d="M97.63,74.2c.18-1.15.47-2.27.63-3.43a5.43,5.43,0,0,1,.73-2,28.72,28.72,0,0,1,2.92-4.51,17.13,17.13,0,0,1,5.47-4.19,30.85,30.85,0,0,1,6.45-2.19c1.39-.34,2.78-.68,4.18-1a4.86,4.86,0,0,1,2.08-.07c.23,0,.48.12.53.39a.48.48,0,0,1-.38.52c-1.28.43-2.55.85-3.84,1.24a27.29,27.29,0,0,0-8,3.45,16.12,16.12,0,0,0-5.64,7.2A18.15,18.15,0,0,0,101.42,76a2.4,2.4,0,0,0,0,1.19,4.54,4.54,0,0,0,0,1.8,3.26,3.26,0,0,0,.06,1.39,28.79,28.79,0,0,0,.67,5.24,120.73,120.73,0,0,0,3.19,12.86,80.5,80.5,0,0,0,5.28,13.77,27.45,27.45,0,0,0,1.58,2.53c.32.48.19.71-.38.77-1,.11-1.42-.59-1.89-1.21a42.85,42.85,0,0,1-5.7-11.22c-.76-2-1.59-4-2.22-6.1a11.15,11.15,0,0,0-.5-2,16.56,16.56,0,0,1-1.1-3.48,94,94,0,0,1-2.69-12.87c-.15-1.36,0-2.73-.08-4.09A.39.39,0,0,0,97.63,74.2Z"/><path class="cls-2" d="M231.81,129.7a4.69,4.69,0,0,0-.64-2.57c-1.91-3.57-3.8-7.17-5.69-10.76a1.85,1.85,0,0,1-.38-.9.93.93,0,0,1,.59-.08c.15.54.34.78.49,1.26a4.56,4.56,0,0,0,.24.55c2.21,4,4.32,8.15,6.45,12.25.83,1.59,1.7,3.17,2.55,4.76.14.26.26.55.61.6.16,0,.34.07.48-.06s.07-.3,0-.45c-.19-.39-.38-.78-.59-1.16-1.74-3.19-3.51-6.35-5.2-9.57-1.34-2.54-2.86-5-4.11-7.59a.38.38,0,0,0-.38-.26l-.54-.33a6,6,0,0,1,1.55-.41c-.12.13-.3.25-.1.45.9,1.7,1.78,3.4,2.7,5.09,1,1.92,2.11,3.82,3.15,5.75,1.5,2.77,3.26,6.08,4.74,8.86-.08.09-.49-.22-.35-.23a13.35,13.35,0,0,0,1.72.21c.08.06,1,.2,1.49.3.92.28,1.47.43,1.71.48,1,.25,1.48.42,2.14.59a7.7,7.7,0,0,1,1,.35c.66.21,1.19.42,1.94.7.28.14.5.19.71.3a14.76,14.76,0,0,0,1.89.74c.08,0,.15.05.24.1,1.61.54,2.55,1,3.76,1.3a9.92,9.92,0,0,0,1.39.25c.25.06.42.07.61.1a7.4,7.4,0,0,1,.8.39c.3.19.26.41-.06.58a2,2,0,0,1-1.06.17l-1.48-.06-.4-.11-3.61-1.06-.39-.13a12.48,12.48,0,0,0-2-.75,3.7,3.7,0,0,1-1.4-.62,3,3,0,0,0-1.56-.52,10.1,10.1,0,0,0-1.43-.26,18.13,18.13,0,0,0-3.15-.86l-.77-.22a3.88,3.88,0,0,0-.76-.12,3.76,3.76,0,0,0-.85-.09,5.3,5.3,0,0,0-1.19-.08c-.26,0-.4,0-.65-.06a1.51,1.51,0,0,1-1.08-.3c-.11-.16.24-.52,0-.61"/><path class="cls-3" d="M114.43,112.33a1.79,1.79,0,0,1,.34.22A62.53,62.53,0,0,0,131.69,121a92.16,92.16,0,0,0,21.84,4.66,81.38,81.38,0,0,0,10.59.25c2.12-.08,5-.06,7.15,0l-.66.2a2.22,2.22,0,0,0-.36.06c-1.67.11-3.31.48-5,.55-.49,0-1,.09-1.47.14a11.81,11.81,0,0,0-1.51.17,9.4,9.4,0,0,0-1.29-.13c-.45,0-.95-.17-1.31.28a3,3,0,0,0-.32-.07,3.4,3.4,0,0,0-1-.19,12.06,12.06,0,0,0-2.4-.09c-.3,0-.42,0-.8,0-.87-.09-1.27-.11-2-.16-.23,0-.31,0-.6,0-1.29-.15-1.82-.2-3-.35l-.4-.06-1-.14c-.23,0-.35,0-.6-.1-1.14-.2-1.79-.27-3-.49a2.57,2.57,0,0,1-.4-.07l-2.6-.54a2.34,2.34,0,0,1-.4-.1c-1.9-.44-3.78-1-5.7-1.38a27.59,27.59,0,0,1-4.6-1.45,56.47,56.47,0,0,1-5.62-2.21,32.62,32.62,0,0,1-3.27-1.54c-1.27-.85-2.64-1.5-4-2.27a16.39,16.39,0,0,1-3.66-3.12,8.58,8.58,0,0,1-1-1.43,3.85,3.85,0,0,0,.54.63A4.56,4.56,0,0,0,114.43,112.33Z"/><path class="cls-2" d="M214.6,143.08a38,38,0,0,1,4.4.22,27.64,27.64,0,0,1,4.24.9,12.36,12.36,0,0,0,2.35.46c.87-.57-3.2-1.84-3.2-1.84a26.34,26.34,0,0,0-5.17-.35,20.44,20.44,0,0,1-13.46-4.5c-1.24-1-2.52-2-3.77-3a8.68,8.68,0,0,1-1.64-1.73,53.85,53.85,0,0,0-7.23-7.86c-.86-.81-1.88-1.46-2.72-2.31-.23-.23-.52-.53-1-.19l.4.36a53.09,53.09,0,0,1,8.75,9.41,14.69,14.69,0,0,0,3.82,3.76,9.32,9.32,0,0,1,1.62,1.2,24.08,24.08,0,0,0,2.2,1.84,7.24,7.24,0,0,0,1.61,1.09c.9.41,1.16.56,2,1a12.12,12.12,0,0,0,1.89.75A17.12,17.12,0,0,0,214.6,143.08Z"/><path class="cls-3" d="M225.48,115.38a.85.85,0,0,0,.36-.07l.23-.08c.43-.16.73-.12,1.16-.25a1,1,0,0,0,.53-.23l-.29,0a1.4,1.4,0,0,0-.53.07,1.64,1.64,0,0,1-1.69-.57,43.57,43.57,0,0,1-4-5.07c-.43-.66-.41-.71.23-1.17a4.75,4.75,0,0,0,1.59-1.45,1,1,0,0,0-.86.34,39.87,39.87,0,0,1-7.25,4.5c-1.14.57-1.95,1.6-3.08,2.19a.32.32,0,0,0-.16.23c0,.17.12.21.25.24,2.14-1.34,4.45-2.4,6.54-3.83.51-.35.54-.33.88.25a10.39,10.39,0,0,0,1,1.35c.8.94,1.71,1.76,2.59,2.62a11,11,0,0,1,1,.79,3.64,3.64,0,0,1,.61,1l7.22,13.48.09-2.13"/><path class="cls-4" d="M199,84.4c-.61-.77-1.21-1.55-1.84-2.3-.43-.52-.91-1-1.37-1.51,0-.17-.73.11-.81,0a9.28,9.28,0,0,1,2.17-2.1,33.91,33.91,0,0,1,7.9-4.11,11.93,11.93,0,0,1,1.74-.7c.75-.16,1,0,1.39.72-.46,0-.28.33-.25.57.05.43-.07.67-.57.69a8.34,8.34,0,0,0-1.47.3c-.35.08-.66.13-.71-.38a.67.67,0,0,0-.2-.33.37.37,0,0,0-.26-.09c-.18,0-.19.13-.18.28a2,2,0,0,1,0,.69c-.12.38-.7.41-1,0-.12-.17-.21-.36-.45-.33s-.18.29-.19.47a.29.29,0,0,1-.21.29,9.19,9.19,0,0,0-2.52,2.08,6.94,6.94,0,0,1-2.16,1.56.88.88,0,0,0-.57.47,12.43,12.43,0,0,0,2.92,1.73,6.94,6.94,0,0,1,3.09,2.48,5.88,5.88,0,0,0-1.62.71c-.28.21-.47.14-.67-.11-.33-.41-.68-.81-1-1.22a.6.6,0,0,0-.6-.28c-.25,0-.17.23-.14.39Z"/><path class="cls-2" d="M159.69,127.15c.36-.45.86-.27,1.31-.28a9.4,9.4,0,0,1,1.29.13,3.69,3.69,0,0,0,1.49.65,24,24,0,0,1,8.49,6.48c1.06,1.28,2.11,2.58,3.15,3.87,1.44,1.79,2.7,3.72,4.25,5.43,2.26,2.48,4.81,4.68,7.29,6.94a16.94,16.94,0,0,0,2.46,2v.42a3.22,3.22,0,0,1-1.35-.69c-.66-.44-1.16-1.05-1.82-1.49a18.87,18.87,0,0,1-2.09-1.92c0-.05-.08-.11-.13-.15-1.15-.77-2-1.9-3.14-2.7a9.46,9.46,0,0,1-1.77-1.75c-.9-1.05-1.73-2.16-2.58-3.26q-2.66-3.45-5.56-6.7a24.79,24.79,0,0,0-4.24-3.69,11.46,11.46,0,0,0-2.18-1.26c-.91-.37-1.74-.91-2.62-1.36A11,11,0,0,0,159.69,127.15Z"/><path class="cls-3" d="M193,118c-.64-.36-1.14-1-1.93-1a55.55,55.55,0,0,0-5.44-2.9c-.36-.16-.71-.36-1.09-.49a1.5,1.5,0,0,1-1.19-1.58c0-.36-.07-.73-.06-1.09s.2-.37.41-.2c1.4,1.14,3.06,1.87,4.55,2.88a61.76,61.76,0,0,0,8.91,5.09,10.6,10.6,0,0,0,6.69,1,11.74,11.74,0,0,0,2.25-.78c.24-.11.46-.31.73-.09a6.38,6.38,0,0,1-4,1.45,16.09,16.09,0,0,1-7.12-1.15C194.75,118.72,193.86,118.34,193,118Z"/><path class="cls-4" d="M197.8,94.6a2.93,2.93,0,0,1,1.88.81,17.76,17.76,0,0,1,3.23,3.78,6.07,6.07,0,0,0-2.4,2.21c-1-1.09-2-2.11-3-3.15-.36-.39-.39-1-.76-1.39-.15-.16-.27-.5-.51-.39s-.66.19-.71.61c0,.09,0,.19-.06.29a46.31,46.31,0,0,1-1.6,5.55,3.66,3.66,0,0,1-.18.46.3.3,0,0,1-.42.13.27.27,0,0,1-.13-.34,5.29,5.29,0,0,1,.15-.57c.65-1.76.91-3.61,1.42-5.4a7,7,0,0,1,.15-.87,2.36,2.36,0,0,1,.33-.74,1.46,1.46,0,0,1,.44-.35,2.58,2.58,0,0,1,.74-.4,1.73,1.73,0,0,1,.65-.19Z"/><path class="cls-4" d="M207.83,77.69c.36-.28.56-.12.78.22.73,1.14,1.35,2.33,2,3.53a6.5,6.5,0,0,0,.43.78c.12.18.27.13.4,0a5.42,5.42,0,0,1,1.92-.19.92.92,0,0,1,.91.44,12,12,0,0,1,.67,2.55,2.22,2.22,0,0,1-.88,2.19.75.75,0,0,1-1.07,0,3.53,3.53,0,0,0-2.64-1,.88.88,0,0,1-.93-.6,5.14,5.14,0,0,1-.45-1.73,5.08,5.08,0,0,1,1.28-.92c.12-.07.33-.17.08-.35l-.9-1.72Z"/><path class="cls-3" d="M204.64,96.09s.28-.25.29-.42a2.85,2.85,0,0,0-.71-2.13c-.84-1-1.61-2.05-2.53-3s-1.53-2-.93-3.33c0,0,0-.09-.09-.16-.31,0-.31.42-.59.47a1.51,1.51,0,0,1-.17-.1,39.73,39.73,0,0,1-4.65-5.71c-.17-.3-.33-.5-.69-.31a1.25,1.25,0,0,0,.05.3,3.88,3.88,0,0,0,.23.89s.41.85.52,1a49.73,49.73,0,0,0,3.6,4.83c.57.68.35.68.75,1.25s.55.73.89,1.18A23.6,23.6,0,0,0,203,93.56a5.33,5.33,0,0,1,1.16,1.28A3,3,0,0,1,204.64,96.09Z"/><path class="cls-2" d="M106.11,116.8a1.92,1.92,0,0,1-1.27.15c-3.65-.77-7.37-1.13-11-1.74-.72-.12-1.44-.29-2.16-.41-.24,0-.36-.13-.37-.37s.15-.36.34-.42a2.82,2.82,0,0,1,1.29,0q2.92.42,5.83.88c1.61.26,3.22.57,4.82.85a23.64,23.64,0,0,1,2.5.68Z"/><path class="cls-1" d="M261.77,153c-2.23.14-4.27-.73-6.39-1.18a.92.92,0,0,1-.28-.09.47.47,0,0,1-.25-.58.38.38,0,0,1,.46-.28,19.1,19.1,0,0,1,6.45,1.46.91.91,0,0,1,.17.09c.17.1.41.17.34.41S262,153,261.77,153Z"/><path class="cls-1" d="M277.65,159.42a13.34,13.34,0,0,1,3.49.77c.18.09.36.18.53.28a.33.33,0,0,1,.21.31c0,.2-.19.25-.33.32a.82.82,0,0,1-.49,0c-1.38-.34-2.69-.93-4.09-1.18a.3.3,0,0,1-.25-.27.25.25,0,0,1,.26-.24Z"/><path class="cls-3" d="M165,110.87l-.52-.1a3.43,3.43,0,0,1,1.77-.24c.79.12,1.57.28,2.36.38a7.76,7.76,0,0,0,6.09-1.57,1.26,1.26,0,0,0,.18-.27l-.63-.29c0-.06.07-.14.1-.15a9.48,9.48,0,0,1,2.38.15c.2,0,.42,0,.35.35a9.65,9.65,0,0,1-3.5,2.21,7.73,7.73,0,0,1-5.07.14A9,9,0,0,0,165,110.87Z"/><path class="cls-2" d="M180.1,104.77c-.5.3-1,.62-1.51.89a3.09,3.09,0,0,1-2.06-.44c-.12-.12-.07-.23,0-.34a.78.78,0,0,1,.52-.27A6,6,0,0,1,180.1,104.77Z"/><path class="cls-4" d="M206.53,99.55c.4,1.09.18,2,.62,2.85.48-1.13-.1-2.28,0-3.52.6.36.72,1.12,1.42,1.36a7.14,7.14,0,0,0-.2-1.41c-.63-1.67-.9-3.46-2-5a36.61,36.61,0,0,0-4.47-5.75.67.67,0,0,1-.09-1,4.07,4.07,0,0,1,1.82-1.51.56.56,0,0,1,.72.15,3.81,3.81,0,0,0,2.7,1.13,6.84,6.84,0,0,0,2.47,0,.51.51,0,0,1,.59.22,2.08,2.08,0,0,1,.46,1.59,12.51,12.51,0,0,1-.77,3.4c-.1.26-.31.5-.26.83,1.12-.38,1.88-4,1.26-5.87.23-.26.43-.06.6.06a15.11,15.11,0,0,1,2.67,2.69.35.35,0,0,1,.09.17c.2,1.55.73,3,.8,4.62a5.07,5.07,0,0,1-.53,2.22l-2,4.59c-.1.23-.26.46-.16.71.16,0,.28,0,.32-.06.76-1.45,1.84-2.69,2.71-4.07a4.08,4.08,0,0,0,.64-2.56,16.56,16.56,0,0,0-.48-3.05,5.3,5.3,0,0,1-.29-1.38c.47.08.68.45,1,.7s.52.53.79.77.36.23.53.06,0-.29-.11-.43l-.09-.26c.25-.2.46,0,.64.08a9.29,9.29,0,0,1,3.88,3.47,18.29,18.29,0,0,1,1.8,3.89A45.07,45.07,0,0,0,226,105a1.64,1.64,0,0,1-.26,1.9,8.81,8.81,0,0,1-1.3,1.46,31.17,31.17,0,0,0-.93-5.51c-.13-.16-.2-.17-.26-.11-1.16,1.28-2.66,2.21-3.72,3.6a2,2,0,0,1-.7.55,20.05,20.05,0,0,1-6.21,1.63c.91-.93,1.82-1.87,2.74-2.8a6,6,0,0,1,.62-.51,5.82,5.82,0,0,0,2.38-3.79c.23-1.28.57-2.53.86-3.8a5,5,0,0,0,.1-1.68c-.34-.11-.4.19-.49.37-.34.69-.67,1.38-1,2.09a11.84,11.84,0,0,1-1.62,2.74c-1.29,1.66-2.52,3.35-4,4.9a25.89,25.89,0,0,1-3.19,2.72c-.31.24-.54.29-.83,0a11.55,11.55,0,0,0-3-2.25c-.26-.14-.44-.26-.33-.61C205.56,103.85,205.9,101.77,206.53,99.55Z"/><path class="cls-4" d="M207.24,109.55a9.16,9.16,0,0,1-5.64,2.65,5.64,5.64,0,0,1-2.81-.36c-3.95-1.51-7.92-3-11.89-4.4a9.88,9.88,0,0,0-1.64-.43c-.46-.08-.51-.28-.36-.68a8.63,8.63,0,0,1,1.41-2.51,1,1,0,0,1,1-.37c3.76.71,7.5,1.5,11.21,2.46,1,.25,2,.46,3,.63a8.72,8.72,0,0,0,2.52.53.77.77,0,0,1,.45.19A9.73,9.73,0,0,1,207.24,109.55Z"/><path class="cls-3" d="M208.74,81.81l-1.68-3a1.66,1.66,0,0,1,.08-1c.16-.31.38-.45.69-.16l1.57,3.19Z"/><path class="cls-3" d="M206.89,86.26c-.18-1.37.71-2.05,1.71-2.67.28-.17.53-.38.79-.57a3,3,0,0,0,.91-.42c.25.18,0,.28-.08.35a5.08,5.08,0,0,0-1.28.92c-.3.21-.61.39-.89.62-.63.54-.64.86-.1,1.48l.39.44A2,2,0,0,1,206.89,86.26Z"/><path class="cls-1" d="M226.59,109.28a13.69,13.69,0,0,1-.32,2.59c-.05.24-.11.47-.39.51s-.36-.23-.45-.43c-.5-1.23-.5-1.24.45-2.12A1.61,1.61,0,0,1,226.59,109.28Z"/><path class="cls-4" d="M199,84.4h.45a21.28,21.28,0,0,0,1.48,1.67c.16.12.1.29,0,.42s-.36.1-.49-.07A12.68,12.68,0,0,1,199,84.4Z"/><polygon class="cls-4" points="207.07 98.72 207.13 98.69 207.12 98.75 207.07 98.72"/><path class="cls-1" d="M226.24,115.18c1.25,2.6,3.13,5.85,4.47,8.39,1.69,3.22,3.46,6.38,5.2,9.57.21.38.4.77.59,1.16.08.15.15.31,0,.45s-.32.08-.48.06c-.35-.05-.47-.34-.61-.6-.85-1.59-1.72-3.17-2.55-4.76-2.13-4.1-4.24-8.2-6.45-12.25-.1-.17-.87-1.64-.94-1.82"/><path class="cls-2" d="M210.3,82.6a3,3,0,0,1-.91.42l-.65-1.21.66-.93Z"/><path class="cls-2" d="M196.58,94.75a5.75,5.75,0,0,1,2.48-.59"/></svg>