<svg id="frames" xmlns="http://www.w3.org/2000/svg" viewBox="0 0 384 216"><defs><style>.cls-1{fill:#0f1b33;}.cls-2{fill:#fd0101;}.cls-3{fill:#f5f5f6;}.cls-4{fill:#d6d7d0;}</style></defs><path class="cls-1" d="M165.45,124.27c0-.43,0-.87,0-1.3,0-7.5,0-15,0-22.5q-.08-7.39-.05-14.8c0-1.86,0-3.72.16-5.59a1,1,0,0,1,.79-1,2.75,2.75,0,0,1,1-.08c6.56,0,13.13,0,19.69,0q7.85,0,15.7.16c1.59,0,3.19.08,4.79.19a19.36,19.36,0,0,1,5.89,1.46,30.86,30.86,0,0,1,9.39,5.59,39.42,39.42,0,0,1,3,3.19c.52,1,1,2,1.57,3.06a15.81,15.81,0,0,0,.36-2.78q.38-5.33.73-10.66c2.67-.06,5.33-.07,8,0,.3,0,.6,0,.9,0,5.53,0,11.06-.1,16.59,0,3.86.06,7.73,0,11.59.15a26.83,26.83,0,0,1,17.36,7.09,25.82,25.82,0,0,1,8.25,15A26.29,26.29,0,0,1,284.85,124a26.62,26.62,0,0,1-16,9,29.76,29.76,0,0,1-5.16.41q-7,0-13.9,0H249a.44.44,0,0,0-.49.5v.5c-.17,7.83-.05,15.66-.08,23.48,0,1,0,2,0,3s-.44,1.5-1.44,1.52a15.49,15.49,0,0,1-2.89-.07c.71-.32,1.43-.63,2.14-1a1.26,1.26,0,0,0,.72-.64c.17-.46,0-.62-.47-.49a10.51,10.51,0,0,0-3-1.28c-1.54-.43-3.07-.88-4.6-1.35-7.73-2.39-15.32-5.22-23-7.78-4.64-1.56-9.22-3.29-13.82-4.94L196.44,143c.34-.23.65,0,.95.1,3.51,1.14,7,2.26,10.52,3.47,4,1.38,8,2.91,12.05,4.24,1.77.59,3.52,1.21,5.29,1.8.61.19.69.11.71-.53,0-.2,0-.4,0-.6q0-3.24-.07-6.49c.27-.07.29-.29.31-.52l.06-1c1.16,1.75,2.08,3.63,3.15,5.43a2.33,2.33,0,0,1,.22.87c.23,1.34.5,2.68.7,4a1,1,0,0,0,.84,1c1.72.53,3.42,1.11,5.13,1.66.23.07.48.27.73,0,0-.27-.15-.44-.27-.64a48.92,48.92,0,0,0-5.58-7,12.76,12.76,0,0,1-1.77-2.23c-3.1-5.28-6.25-10.53-9.39-15.78-.14-.24-.21-.57-.55-.64-.56.66-.56.66-.16,1.36,1,1.74,2.08,3.4,2.95,5.2l-.14,1.6c-.13-.19-.28-.37-.4-.56-1.05-1.78-2.08-3.57-3.13-5.34-.45-.78-.57-.8-1.26-.2a5.5,5.5,0,0,1-1.16.94c-.07-.61.63-.77.73-1.28a.35.35,0,0,0,.31-.22l0,0a12,12,0,0,0,1.94-2.08c.63-.78.37-1.53.16-2.52-.61,1.06-.75,2.12-1.44,2.89-.18.22-.51.35-.44.72v0c-.6.12-.84.71-1.3,1a10.48,10.48,0,0,1-7.61,1.7c-2.05-.34-2.06-.31-3.76.94l-.07.07c-1.2.59-2.35,1.3-3.6,1.82a9.35,9.35,0,0,0-2.17.71q-2.35,1-4.68,2a2.23,2.23,0,0,0-1.29,1c-.23.51-.48,1-.73,1.53-1.31-.32-2.56-.83-4-1.28a1.84,1.84,0,0,1,.43-.16,9.87,9.87,0,0,0,5.1-2.08c1.83-1.34,3.63-2.71,5.45-4.05,3.75-2.77,7.25-5.86,11-8.67a16.26,16.26,0,0,0,3-2.92.54.54,0,0,1,.46.08,6.59,6.59,0,0,0-.2.88c0,.26-.43.59,0,.76s.46-.29.64-.5a13.18,13.18,0,0,0,2.17-4.13c.29-.76.51-.88,1.45-.86a29.33,29.33,0,0,1-1.12,3.46,8.12,8.12,0,0,0,3-3c.1-.14,0-.31-.05-.47-.29-.87-.52-1.75-.86-2.61a4,4,0,0,0-4.17-2.72,1.14,1.14,0,0,0-1.13.65c-.51,1-1.11,1.91-1.59,2.89a3.27,3.27,0,0,1-1,1.2,34.51,34.51,0,0,0-6,5.26c-1.66,1.91-3.35,3.79-5.1,5.62s-3.22,3.44-5,5.06a11.74,11.74,0,0,1-3.91,2.67,24,24,0,0,1-7.49,1.56,8.59,8.59,0,0,1-3.51-.55c-1.93-.73-3.89-1.39-5.85-2q-3.93-1.31-7.88-2.56c-.41-.13-.75-.22-.7-.78s-.32-.36-.56-.25c-1.43.67-2.54-.29-3.76-.66a26.61,26.61,0,0,1,6.74-1.45,37.16,37.16,0,0,0,8.2-1.71,19.14,19.14,0,0,0,3.14-1.73c.28-.16.15-.31,0-.45a2.84,2.84,0,0,1,1-.52l4.31-1.78a9.41,9.41,0,0,0,3.19.7,33.59,33.59,0,0,1,5.92.62c.07.53.18,1.06.21,1.59a2.9,2.9,0,0,1-2.17,3.38s0,.1-.1.2l4.42,1.24a.57.57,0,0,0,.64-.15c.24-.27.49-.54.72-.83s.09-.42-.19-.51c-.7-.24-1.39-.47-2.08-.73-.85-.33-.83-.34-.72-1.22a8.42,8.42,0,0,0-2-6.58l0,0a.41.41,0,0,0-.29-.34c-.41-.52-.77-1-1.59-1-1.73.1-3.45.12-5.17.3-2.69.27-5.22,1.32-7.92,1.48a13.2,13.2,0,0,0-1.37.26,7,7,0,0,1-1.57.25c-.2-.46-.57-.5-1-.39-1,.23-1.93.44-2.88.7C168.7,123,167.1,123.68,165.45,124.27Zm47.72-.32a3.21,3.21,0,0,0-.72,1.16,2,2,0,0,0,.94-.92c0-.07.08-.17.06-.22S213.27,123.89,213.17,124Zm-21-38.73h0c0,.09.05.24.12.26a1.72,1.72,0,0,1,.93,1.17,1,1,0,0,0,1.08.69,2.06,2.06,0,0,1,.59-2,7.15,7.15,0,0,1,2-1c0-.31-.22-.36-.35-.5s.14-.41,0-.63a4.37,4.37,0,0,0-.2-.67,2.46,2.46,0,0,0-3.1-.6.88.88,0,0,0-.46.23.36.36,0,0,0-.46.22.85.85,0,0,0-.54.49l-.54.26h-.06l0,.06c-.3,0-.27.24-.18.41a1.69,1.69,0,0,0,.58.84.61.61,0,0,0,.26.37A.5.5,0,0,0,192.16,85.22Zm13.69,17.53c-.08-.78-.14-1.56-.26-2.34s-.4-1-1.26-1a4.75,4.75,0,0,0-2.52-.77c2,3.39,3.87,6.69,5.92,9.9a7.69,7.69,0,0,0,0-3.87C207.55,103.59,206.7,103.17,205.85,102.75ZM194.25,88c-.32-.06-.61-.29-1-.15a2.05,2.05,0,0,0,.36.81c.64,1.12,1.3,2.24,1.93,3.37,1.2,2.15,2.5,4.23,3.61,6.43-3.49,0-7,.11-10.48.14-.5,0-.75.11-.7.65,0,.3,0,.6,0,.9q0,7,0,14c0,.81,0,.8.83.79l11.58-.14a7,7,0,0,0,5.63-2.73c.6-.74.59-.74.14-1.55-.87-1.58-1.84-3.09-2.63-4.71l.17-1.37c.18.27.37.54.54.83l5.27,9.07c.12.2.17.5.51.55a2,2,0,0,0-.15-1.9q-7.09-12.11-14.16-24.22A1.25,1.25,0,0,0,194.25,88Zm9.13,6.74a25.36,25.36,0,0,1,2.72-2c.85-.47,1.11-.5,1.85.15a33.15,33.15,0,0,0,4.68,3.21,1.94,1.94,0,0,0,2.87-.71l.31-.43c.29,0,.44,0,.35.37s-.06.46.25.51c.31.32.76.48,1,.89a.4.4,0,0,0,0,.41l-.27,1.72a.38.38,0,0,0-.13.48,2.15,2.15,0,0,0-.19,1.41c-.08.2,0,.31.18.37a.67.67,0,0,0,.31.41.39.39,0,0,0,.29.36c.71,1,1.71,1.77,2.59,2.78a2.66,2.66,0,0,1-1.68-.36,20.61,20.61,0,0,0-2.53-.91c-.15,0-.32-.14-.46,0s0,.31,0,.46c.27.74.55,1.48.85,2.27-.83.11-1.36-.47-2.09-.65-.14.8-.26,1.58-.42,2.35a3.54,3.54,0,0,0-.1,1.58,3,3,0,0,1-.12,1.86,2.5,2.5,0,0,0-.1.49c-.05.57.05.69.62.77a12,12,0,0,1,1.57.26,26.57,26.57,0,0,0,5,.81c.16,0,.34,0,.44.22-.84.33-1.77.23-2.6.55,0,0-.13,0-.14,0s.06.12.14.11l.21.21c0,.14,0,.21.18.14a4.09,4.09,0,0,1,1.5.53.83.83,0,0,1-.63,0c-.68-.06-.81.09-.6.76.05.15.15.29.19.45a24.94,24.94,0,0,1,.79,2.68,12.58,12.58,0,0,1-.12,4.37c-.23,1.22-.23,1.23.8,1.82.22.13.37.39.74.39a13.84,13.84,0,0,0,.92-1.8,18.55,18.55,0,0,1,1.84-3.87,21.83,21.83,0,0,0,3-8.58,12.31,12.31,0,0,0-.61-6.37c-.77-2-1.53-4-2.31-6a7.58,7.58,0,0,0-1-1.82,29.32,29.32,0,0,0-3.86-4.17c-.23-.2-.44-.48-.83-.48-.07.54.41.92.28,1.53a11.13,11.13,0,0,0-.74-1.22c-.58-.7-.89-1.63-1.77-2.07-.26-.14-.52.27-.78,0a21,21,0,0,0-3.07-2.56.32.32,0,0,0-.37-.25l-.21-.15a.32.32,0,0,0-.39-.24l-.23-.15a4.34,4.34,0,0,0-2-1,.85.85,0,0,0-.57-.22,3.28,3.28,0,0,0-1.4-.59,5.09,5.09,0,0,0-2.37-.69,34.44,34.44,0,0,0-4.19-.06,11.47,11.47,0,0,1-3.95-.36,2.1,2.1,0,0,0-2.13.77c-.23.23-.22.5.17.58s1,.23,1.47.28a8.36,8.36,0,0,1,4.88,1.76,2.41,2.41,0,0,0,2.46.35,3.73,3.73,0,0,1,1.44-.36,9.2,9.2,0,0,0,.79,3c.3.54.2.74-.25,1a9.78,9.78,0,0,0-2.16,1.57c-.29.3-.53.59-.36,1-.14,0-.17,0-.08.11S203.41,94.85,203.38,94.78Zm51.56,20.29v.13h5.2a5.42,5.42,0,0,0,1.39-.13,8.73,8.73,0,0,0,5.88-4.88,6.91,6.91,0,0,0,.4-5.89,10.37,10.37,0,0,0-4.31-4.85,6,6,0,0,0-3.05-.82c-3.7,0-7.4,0-11.1,0-.77,0-.78,0-.79.77q-.06,7.39-.1,14.79c0,.84,0,.88.89.89C251.21,115.09,253.08,115.07,254.94,115.07ZM225.55,139l.19,0V122.67a33.19,33.19,0,0,1-3.32,3.22.87.87,0,0,0-.19.23,17.67,17.67,0,0,1-1.94,2.77.87.87,0,0,0,0,1.16c1,1.65,2,3.32,3,5C224,136.34,224.78,137.67,225.55,139Zm-33.23-18.79a13.79,13.79,0,0,0,2,2,5.46,5.46,0,0,0,2.51,1.13,38.45,38.45,0,0,0,6,.37.58.58,0,0,0,.46-.14l2.16-2.21c.24-.25.19-.48-.14-.62a2.59,2.59,0,0,0-.48-.12,66.07,66.07,0,0,0-11.41-.87A1.32,1.32,0,0,0,192.32,120.19Zm15.93-22.37c-.08.43-.14.78-.2,1.13-.11.69-.07.86.59,1a1.57,1.57,0,0,1,1.2,1.4,5,5,0,0,0,.67,1.93c1-1.54,1.61-3,1-4.85-.53.34-.47,1.18-1.2,1.28a6.19,6.19,0,0,1,0-1.61A1.15,1.15,0,0,0,209.6,97a6.09,6.09,0,0,1-2.3-1.72c-.2-.24-.39-.53-.82-.31s-.71.45-.6,1a6.51,6.51,0,0,1,0,1c0,.71.15.86.88.91C207.25,97.85,207.71,97.82,208.25,97.82Zm-14.41,36c-.14-.13-.18-.2-.23-.2-1.72-.22-3.45-.14-5.17-.21-.4,0-.52.18-.52.54,0,.83,0,1.67,0,2.5,0,.39.17.56.56.43s1.08-.32,1.6-.54A13.77,13.77,0,0,0,193.84,133.77Zm26.44-6a4.17,4.17,0,0,0,1.14-1.51.19.19,0,0,0-.16-.29c-.46,0-1-.28-1.35,0s.12.71.15,1.08A4.75,4.75,0,0,0,220.28,127.8Z"/><path class="cls-1" d="M151.26,92.16c3.41,10.94,6.75,21.9,10.11,32.86.11.35.2.71.3,1.06-.25.14-.5.28-.73.44-.44.3-.08.36.14.47-1,.86-2.29,1.34-3.38,2.1a2.44,2.44,0,0,1-2.46.29c-5.59-1.84-11.2-3.65-16.87-5.25a2.32,2.32,0,0,1-.92-.37,3.59,3.59,0,0,0-.22-1q-.82-2.72-1.62-5.45c-.91-3.13-1.79-6.26-2.71-9.38-.07-.24,0-.62-.43-.72-.09.24-.18.46-.25.68-1.33,4.43-2.79,8.82-4.35,13.17-.08.24-.21.49-.05.76l-1.24,0a.43.43,0,0,0-.4-.06l-.89-.1a30.42,30.42,0,0,0-5.88-.35,7.42,7.42,0,0,0-2.51.58c-1.56.7-2.4,1.93-2.11,3.35a7.34,7.34,0,0,0,1.65,3.66,40.6,40.6,0,0,0,9.85,7.61,47.92,47.92,0,0,0,8.11,3.63c2.66,1,5.34,1.89,8,2.93,2.36.94,4.7,1.89,7.08,2.77a4.72,4.72,0,0,0,1.35.39,1.43,1.43,0,0,0-.37-.76c-4-5.86-8-11.74-12.05-17.55a16.27,16.27,0,0,1-1.51-2.24,43.83,43.83,0,0,1,7.64,2.17c.13.27.25.55.4.81q5.82,9.56,11.63,19.12a1.9,1.9,0,0,0,1.05.86c1.36.46,2.7,1,4,1.44.2.08.41.26.68,0-.11-.26-.21-.54-.34-.8q-2.94-5.73-5.89-11.47c-1.09-2.13-2.2-4.26-3.28-6.4-.14-.27-.54-.55-.19-1,.28-.17.51,0,.75.11,7.27,2.28,14.55,4.54,21.81,6.87,8.15,2.61,16.28,5.28,24.41,7.94,4.68,1.53,9.38,3,14,4.65,6,2.09,11.88,4.33,17.85,6.44,2.95,1,5.95,1.94,9,2.71,1.61.42,3.22.83,4.84,1.18a2.3,2.3,0,0,1-.85.24c-1.93.38-3.9.51-5.84.81a87.23,87.23,0,0,1-23.11.08c-2.94-.33-5.87-.8-8.8-1.19a206.06,206.06,0,0,1-23.64-4.49c-3.13-.79-6.28-1.45-9.61-2a20.08,20.08,0,0,0,3.89,1.32c3.46,1,6.94,1.88,10.42,2.82-.05,1-.08,1.93-.13,2.9s-.36,1.19-1.21,1.24c-.23,0-.46,0-.7,0h-36c-.77,0-.94-.12-1.17-.83-.74-2.24-1.46-4.49-2.19-6.74-.32-1-.66-2-1-2.94a.84.84,0,0,0-1-.68h-23.6a4.17,4.17,0,0,1-.5,0,.7.7,0,0,0-.85.61c-.37,1.34-.81,2.67-1.21,4s-.8,2.54-1.07,3.85a2.46,2.46,0,0,1-.07.29c-.62,2-.91,2.23-3,2.24-2.43,0-4.86,0-7.29.09-3.53.12-7,.18-10.58.21-.86,0-1.73.09-2.59.07-1.09,0-1.45-.5-1.13-1.54.89-2.83,1.79-5.65,2.68-8.48q4.9-15.48,9.79-31c.17-.54.36-1.08.54-1.61v0l.15-.54h0l0,0c0-.19.11-.38.16-.58l0,0c0-.14.09-.27.14-.41,1.11-2.32,1.86-4.78,2.81-7.17,1.8-4.51,3.5-9.06,5.24-13.6q3.52-9.23,7.06-18.46c.33,0,.66,0,1,0q11.6,0,23.2,0c1.31,0,1.78.17,2.32,1.67Z"/><path class="cls-2" d="M187.75,158.05c-3.48-.94-7-1.86-10.42-2.82a20.08,20.08,0,0,1-3.89-1.32c3.33.53,6.48,1.19,9.61,2a206.06,206.06,0,0,0,23.64,4.49c2.93.39,5.86.86,8.8,1.19a87.23,87.23,0,0,0,23.11-.08c1.94-.3,3.91-.43,5.84-.81a2.3,2.3,0,0,0,.85-.24c.25,0,.5.07.75.12s.36-.07.4-.29c.46-.13.64,0,.47.49a1.26,1.26,0,0,1-.72.64c-.71.33-1.43.64-2.14,1-1.42.23-2.76.76-4.16,1.08a58.93,58.93,0,0,1-13.71,1.1A97.54,97.54,0,0,1,213,163.22c-3.88-.58-7.78-1.1-11.61-2-2.62-.63-5.23-1.31-7.86-1.92C191.59,158.84,189.66,158.46,187.75,158.05Z"/><path class="cls-2" d="M121.15,79q-3.53,9.24-7.06,18.46c-1.74,4.54-3.44,9.09-5.24,13.6-.95,2.39-1.7,4.85-2.81,7.17,1.21-4.39,2.82-8.66,4.17-13q3.08-9.92,6.18-19.81c.59-1.88,1.27-3.72,1.88-5.59a1.05,1.05,0,0,1,1.08-.84A12,12,0,0,1,121.15,79Z"/><path class="cls-2" d="M228.39,79.23q-.36,5.34-.73,10.66a15.81,15.81,0,0,1-.36,2.78c-.53-1-1.05-2-1.57-3.06.09-2.88.32-5.76.22-8.65,0-1.3.52-1.94,1.65-1.78C227.86,79.21,228.13,79.22,228.39,79.23Z"/><path class="cls-1" d="M100.75,99.13c-.44.11-.73-.16-1-.33q-5.28-3.14-10.54-6.29a5.7,5.7,0,0,1-.81-.58c-.45-.39-.5-.68-.21-1.12a.86.86,0,0,1,1.2-.36,7.05,7.05,0,0,1,1.1.7q4.91,3.69,9.79,7.4C100.45,98.7,100.71,98.81,100.75,99.13Z"/><path class="cls-2" d="M161.08,127c-.22-.11-.58-.17-.14-.47.23-.16.48-.3.73-.44l3.78-1.81c1.65-.59,3.25-1.3,5-1.75.95-.26,1.92-.47,2.88-.7.43-.11.8-.07,1,.39l-.49.22a.46.46,0,0,0-.48.12.36.36,0,0,0-.33.06.3.3,0,0,0-.33.08,44.48,44.48,0,0,0-6.87,2.15C164.14,125.4,162.67,126.32,161.08,127Z"/><path class="cls-1" d="M97.87,102.05a3.62,3.62,0,0,1-1.19-.5L90.33,98.2a1.76,1.76,0,0,1-.65-.45.55.55,0,0,1-.06-.73.54.54,0,0,1,.71-.18,1.67,1.67,0,0,1,.33.21l6.75,4.62C97.55,101.76,97.66,101.88,97.87,102.05Z"/><path class="cls-2" d="M105.9,118.65l0,0Z"/><polygon class="cls-2" points="105.72 119.28 105.67 119.3 105.67 119.29 105.72 119.28"/><path class="cls-2" d="M105.52,119.83v0Z"/><path class="cls-3" d="M161.08,127c1.59-.67,3.06-1.59,4.7-2.15a44.48,44.48,0,0,1,6.87-2.15.28.28,0,0,0,.33-.08.36.36,0,0,1,.33-.06.43.43,0,0,0,.48-.12l.49-.22a7,7,0,0,0,1.57-.25,13.2,13.2,0,0,1,1.37-.26c2.7-.16,5.23-1.21,7.92-1.48,1.72-.18,3.44-.2,5.17-.3.82,0,1.18.43,1.59,1,0,.15.07.33.29.34l0,0a16.63,16.63,0,0,0,.91,2,2.48,2.48,0,0,1,.33,1.59,33.59,33.59,0,0,0-5.92-.62,9.41,9.41,0,0,1-3.19-.7.56.56,0,0,1,.1-.8c.24-.26.57-.45.71-.8a13.75,13.75,0,0,0-4.32.44c.1.3.57.34.62.82a7.88,7.88,0,0,0-2,.32c-3.19,1-6.26,2.43-9.57,3.09-.12,0-.35,0-.28.35.26,0,.52,0,.77,0,1.69-.12,3.39-.16,5.07-.43a22.09,22.09,0,0,0,3.61-.68c.19.14.32.29,0,.45a19.14,19.14,0,0,1-3.14,1.73,37.16,37.16,0,0,1-8.2,1.71,26.61,26.61,0,0,0-6.74,1.45c1.22.37,2.33,1.33,3.76.66.24-.11.6-.2.56.25s.29.65.7.78q3.94,1.26,7.88,2.56c2,.66,3.92,1.32,5.85,2a8.59,8.59,0,0,0,3.51.55,24,24,0,0,0,7.49-1.56,11.74,11.74,0,0,0,3.91-2.67c1.73-1.62,3.32-3.36,5-5.06s3.44-3.71,5.1-5.62a34.51,34.51,0,0,1,6-5.26,3.27,3.27,0,0,0,1-1.2c.48-1,1.08-1.92,1.59-2.89a1.14,1.14,0,0,1,1.13-.65,4,4,0,0,1,4.17,2.72c.34.86.57,1.74.86,2.61.05.16.15.33.05.47a8.12,8.12,0,0,1-3,3,29.33,29.33,0,0,0,1.12-3.46c-.94,0-1.16.1-1.45.86a13.18,13.18,0,0,1-2.17,4.13c-.18.21-.31.65-.64.5s0-.5,0-.76a6.59,6.59,0,0,1,.2-.88c-.09-.41-.25-.41-.46-.08a16.26,16.26,0,0,1-3,2.92c-3.71,2.81-7.21,5.9-11,8.67-1.82,1.34-3.62,2.71-5.45,4.05a9.87,9.87,0,0,1-5.1,2.08,1.84,1.84,0,0,0-.43.16c1.41.45,2.66,1,4,1.28l1.16.59a14.59,14.59,0,0,0,3.08,1l5.55,1.95c4.6,1.65,9.18,3.38,13.82,4.94,7.68,2.56,15.27,5.39,23,7.78,1.53.47,3.06.92,4.6,1.35a10.51,10.51,0,0,1,3,1.28c0,.22-.15.34-.4.29s-.5-.08-.75-.12c-1.62-.35-3.23-.76-4.84-1.18-3-.77-6-1.67-9-2.71-6-2.11-11.88-4.35-17.85-6.44-4.65-1.63-9.35-3.12-14-4.65-8.13-2.66-16.26-5.33-24.41-7.94-7.26-2.33-14.54-4.59-21.81-6.87-.24-.08-.47-.28-.75-.11v0c0-.23-.18-.19-.33-.2a22.57,22.57,0,0,0-3.1-1c-1.55-.48-3.07-1.06-4.67-1.41a44,44,0,0,0-7.63-2.17c-2.29-.69-4.61-1.29-6.95-1.76a49,49,0,0,0-7-1,35.43,35.43,0,0,0-7.11.39c.06-.48.36-.53.58-.65a8.89,8.89,0,0,1,3.54-.92,26.77,26.77,0,0,1,5.37-.12l.89.1a.23.23,0,0,0,.4.06l1.24,0c.09,0,.17.13.26.13a15,15,0,0,1,3.83.56c1.85.38,3.69.81,5.54,1.22a2.32,2.32,0,0,0,.92.37c5.67,1.6,11.28,3.41,16.87,5.25a2.44,2.44,0,0,0,2.46-.29C158.79,128.33,160.05,127.85,161.08,127Z"/><path class="cls-3" d="M216.59,91.16c.88.44,1.19,1.37,1.77,2.07a11.13,11.13,0,0,1,.74,1.22c.13-.61-.35-1-.28-1.53.39,0,.6.28.83.48a29.32,29.32,0,0,1,3.86,4.17,7.58,7.58,0,0,1,1,1.82c.78,2,1.54,4,2.31,6a12.31,12.31,0,0,1,.61,6.37,21.83,21.83,0,0,1-3,8.58,18.55,18.55,0,0,0-1.84,3.87,13.84,13.84,0,0,1-.92,1.8c-.37,0-.52-.26-.74-.39-1-.59-1-.6-.8-1.82a12.58,12.58,0,0,0,.12-4.37,24.94,24.94,0,0,0-.79-2.68c0-.16-.14-.3-.19-.45-.21-.67-.08-.82.6-.76a.83.83,0,0,0,.63,0,4.09,4.09,0,0,0-1.5-.53c0-.1-.09-.13-.18-.14l-.21-.21a.12.12,0,0,0,0-.14c.83-.32,1.76-.22,2.6-.55-.1-.23-.28-.21-.44-.22a26.57,26.57,0,0,1-5-.81,12,12,0,0,0-1.57-.26c-.57-.08-.67-.2-.62-.77a2.5,2.5,0,0,1,.1-.49,3,3,0,0,0,.12-1.86,3.54,3.54,0,0,1,.1-1.58c.16-.77.28-1.55.42-2.35.73.18,1.26.76,2.09.65-.3-.79-.58-1.53-.85-2.27,0-.15-.16-.31,0-.46s.31-.07.46,0a20.61,20.61,0,0,1,2.53.91,2.66,2.66,0,0,0,1.68.36c-.88-1-1.88-1.77-2.59-2.78a.31.31,0,0,0-.29-.36.67.67,0,0,1-.31-.41.36.36,0,0,0-.18-.37,2.15,2.15,0,0,1,.19-1.41.4.4,0,0,0,.13-.48l.27-1.72c.21-.14.19-.28,0-.41-.23-.41-.68-.57-1-.89a1.58,1.58,0,0,1,.12-.77A4.56,4.56,0,0,0,216.59,91.16Z"/><path class="cls-3" d="M212.74,88.6a21,21,0,0,1,3.07,2.56,3.6,3.6,0,0,1,0,3.84c-.1.14-.21.28-.31.43a10.56,10.56,0,0,1-2.17-1.71,19.08,19.08,0,0,0-4.66-3.19,1.24,1.24,0,0,1-.79-.6c.44-.25.93,0,1.54-.33a6.91,6.91,0,0,1-2.53-1.08,1.65,1.65,0,0,0-1.51-.27,3.73,3.73,0,0,0-1.44.36,2.41,2.41,0,0,1-2.46-.35,8.36,8.36,0,0,0-4.88-1.76c-.49,0-1-.18-1.47-.28s-.4-.35-.17-.58a2.1,2.1,0,0,1,2.13-.77,11.47,11.47,0,0,0,3.95.36,34.44,34.44,0,0,1,4.19.06,5.09,5.09,0,0,1,2.37.69c-.29.24-.63.14-1,.14l-1.79,0c-.15,0-.35,0-.37.24s.17.26.31.33a2.19,2.19,0,0,0,1.08.11,5.21,5.21,0,0,1,2.54.24c.6.27.55-.14.59-.5a.85.85,0,0,1,.57.22,5.45,5.45,0,0,0,2,1l.23.15a.31.31,0,0,0,.39.24l.21.15A.31.31,0,0,0,212.74,88.6Z"/><path class="cls-3" d="M222.25,136.64c-.87-1.8-2-3.46-2.95-5.2-.4-.7-.4-.7.16-1.36.34.07.41.4.55.64,3.14,5.25,6.29,10.5,9.39,15.78a12.76,12.76,0,0,0,1.77,2.23,48.92,48.92,0,0,1,5.58,7c.12.2.29.37.27.64-.25.23-.5,0-.73,0-1.71-.55-3.41-1.13-5.13-1.66a1,1,0,0,1-.84-1c-.2-1.35-.47-2.69-.7-4a2.33,2.33,0,0,0-.22-.87c-1.07-1.8-2-3.68-3.15-5.43-.91-1.58-1.8-3.17-2.74-4.74A10.83,10.83,0,0,0,222.25,136.64Z"/><path class="cls-3" d="M192.32,120.19a1.32,1.32,0,0,1,1.11-.46,66.07,66.07,0,0,1,11.41.87,2.59,2.59,0,0,1,.48.12c.33.14.38.37.14.62l-2.16,2.21a.58.58,0,0,1-.46.14,38.45,38.45,0,0,1-6-.37,5.46,5.46,0,0,1-2.51-1.13A13.79,13.79,0,0,1,192.32,120.19Z"/><path class="cls-2" d="M205.38,88.25a1.65,1.65,0,0,1,1.51.27,6.91,6.91,0,0,0,2.53,1.08c-.61.29-1.1.08-1.54.33a1.24,1.24,0,0,0,.79.6,19.08,19.08,0,0,1,4.66,3.19,10.56,10.56,0,0,0,2.17,1.71,1.94,1.94,0,0,1-2.87.71A33.15,33.15,0,0,1,208,92.93c-.74-.65-1-.62-1.85-.15a25.36,25.36,0,0,0-2.72,2l0,0c-.17-.45.07-.74.36-1a9.78,9.78,0,0,1,2.16-1.57c.45-.25.55-.45.25-1A9.2,9.2,0,0,1,205.38,88.25Z"/><path class="cls-3" d="M194.25,88a1.25,1.25,0,0,1,1.43.75q7,12.12,14.16,24.22a2,2,0,0,1,.15,1.9c-.34,0-.39-.35-.51-.55l-5.27-9.07c-.17-.29-.36-.56-.54-.83s-.28-.6-.45-.89l-3.75-6.47Z"/><path class="cls-2" d="M179,125.78a22.09,22.09,0,0,1-3.61.68c-1.68.27-3.38.31-5.07.43-.25,0-.51,0-.77,0-.07-.33.16-.33.28-.35,3.31-.66,6.38-2.06,9.57-3.09a7.88,7.88,0,0,1,2-.32c0-.48-.52-.52-.62-.82a13.75,13.75,0,0,1,4.32-.44c-.14.35-.47.54-.71.8a.56.56,0,0,0-.1.8L180,125.26A2.84,2.84,0,0,0,179,125.78Z"/><path class="cls-2" d="M216.16,133.08l-.06.08c-1.59,1.82-3.68,2.22-5.95,2.1a25.59,25.59,0,0,1-5.48-1l.07-.07c1.7-1.25,1.71-1.28,3.76-.94a10.48,10.48,0,0,0,7.61-1.7c.46-.29.7-.88,1.3-1,.18.4-.34.63-.23,1l0,0-.31.22C216.79,132.31,216.09,132.47,216.16,133.08Z"/><path class="cls-3" d="M208.25,97.82c-.54,0-1,0-1.45,0-.73,0-.85-.2-.88-.91a6.51,6.51,0,0,0,0-1c-.11-.54.16-.77.6-1s.62.07.82.31A6.09,6.09,0,0,0,209.6,97a1.15,1.15,0,0,1,.72,1.18,6.19,6.19,0,0,0,0,1.61c.73-.1.67-.94,1.2-1.28.61,1.81,0,3.31-1,4.85a5,5,0,0,1-.67-1.93,1.57,1.57,0,0,0-1.2-1.4c-.66-.17-.7-.34-.59-1C208.11,98.6,208.17,98.25,208.25,97.82Z"/><path class="cls-2" d="M194.25,88l5.22,9.06,3.75,6.47c.17.29.3.59.45.89-.06.46-.12.91-.17,1.37-1.2-1.82-2.19-3.77-3.3-5.64a11.28,11.28,0,0,0-1-1.69c-1.11-2.2-2.41-4.28-3.61-6.43-.63-1.13-1.29-2.25-1.93-3.37a2.05,2.05,0,0,1-.36-.81C193.64,87.75,193.93,88,194.25,88Z"/><path class="cls-2" d="M193.41,124.8a2.48,2.48,0,0,0-.33-1.59,16.63,16.63,0,0,1-.91-2,8.42,8.42,0,0,1,2,6.58c-.11.88-.13.89.72,1.22.69.26,1.38.49,2.08.73.28.09.39.26.19.51s-.48.56-.72.83a.57.57,0,0,1-.64.15L191.35,130c.05-.1.06-.18.1-.2a2.9,2.9,0,0,0,2.17-3.38C193.59,125.86,193.48,125.33,193.41,124.8Z"/><path class="cls-3" d="M193.27,81.91a2.46,2.46,0,0,1,3.1.6,4.37,4.37,0,0,1,.2.67c.09.22-.24.41,0,.63s.37.19.35.5a7.15,7.15,0,0,0-2,1,2.06,2.06,0,0,0-.59,2,1,1,0,0,1-1.08-.69,1.72,1.72,0,0,0-.93-1.17c-.07,0-.08-.17-.12-.26.58-.13.67-.7.91-1.1A2.24,2.24,0,0,1,195.14,83a1.47,1.47,0,0,1,.29,0c.27,0,.35-.13.33-.36a.75.75,0,0,0-.64-.75A5.48,5.48,0,0,0,193.27,81.91Z"/><path class="cls-2" d="M222.25,136.64a10.83,10.83,0,0,1,1.26,2c.94,1.57,1.83,3.16,2.74,4.74l-.06,1c0,.23,0,.45-.31.52q-1.65-2.86-3.28-5.75a3.54,3.54,0,0,1-.49-1C222.16,137.71,222.21,137.17,222.25,136.64Z"/><path class="cls-2" d="M201.07,136.12q-2.41,1.4-4.93,2.59c-.27.13-.53.29-.8.39a2.71,2.71,0,0,0-2,2.87l-1.16-.59c.25-.51.5-1,.73-1.53a2.23,2.23,0,0,1,1.29-1q2.33-1,4.68-2A9.35,9.35,0,0,1,201.07,136.12Z"/><path class="cls-3" d="M193.27,81.91a5.48,5.48,0,0,1,1.85.06.75.75,0,0,1,.64.75c0,.23-.06.39-.33.36a1.47,1.47,0,0,0-.29,0,2.24,2.24,0,0,0-2.07,1.08c-.24.4-.33,1-.91,1.1h0a.35.35,0,0,0-.32-.44.61.61,0,0,1-.26-.37c0-.47-.39-.8-.4-1.25l0-.06h.06c.27.09.46,0,.54-.26a.85.85,0,0,1,.54-.49.37.37,0,0,0,.46-.22A.88.88,0,0,1,193.27,81.91Z"/><path class="cls-3" d="M217.18,131.6c-.11-.38.41-.61.23-1v0c.39-.09.42-.4.44-.72.69-.77.83-1.83,1.44-2.89.21,1,.47,1.74-.16,2.52A12,12,0,0,1,217.18,131.6Z"/><path class="cls-2" d="M205.85,102.75c-.46.24-.59-.08-.67-.43s-.13-.85-.22-1.27a3.55,3.55,0,0,0-.63-1.65c.86,0,1.14.23,1.26,1S205.77,102,205.85,102.75Z"/><path class="cls-1" d="M209,86.57c0,.36,0,.77-.59.5a5.21,5.21,0,0,0-2.54-.24,2.19,2.19,0,0,1-1.08-.11c-.14-.07-.32-.13-.31-.33s.22-.23.37-.24l1.79,0c.33,0,.67.1,1-.14A3.28,3.28,0,0,1,209,86.57Z"/><path class="cls-1" d="M215.81,95a3.6,3.6,0,0,0,0-3.84c.26.27.52-.14.78,0a4.56,4.56,0,0,1-.06,4,1.58,1.58,0,0,0-.12.77c-.31,0-.33-.26-.25-.51S216.1,95,215.81,95Z"/><path class="cls-3" d="M220.28,127.8a4.75,4.75,0,0,1-.22-.71c0-.37-.51-.8-.15-1.08s.89,0,1.35,0a.19.19,0,0,1,.16.29A4.17,4.17,0,0,1,220.28,127.8Z"/><path class="cls-3" d="M211.54,87.81a5.45,5.45,0,0,1-2-1A4.34,4.34,0,0,1,211.54,87.81Z"/><path class="cls-3" d="M213.39,124.19a2,2,0,0,1-.94.92,3.21,3.21,0,0,1,.72-1.16Z"/><path class="cls-3" d="M191.18,83.16c0,.45.41.78.4,1.25a1.69,1.69,0,0,1-.58-.84C190.91,83.4,190.88,83.19,191.18,83.16Z"/><path class="cls-3" d="M213.17,122.22c.21-.33.37-.33.46.08A.54.54,0,0,0,213.17,122.22Z"/><path class="cls-3" d="M217.31,101.57a.31.31,0,0,1,.29.36A.39.39,0,0,1,217.31,101.57Z"/><path class="cls-3" d="M216.82,100.79a.36.36,0,0,1,.18.37C216.82,101.1,216.74,101,216.82,100.79Z"/><path class="cls-3" d="M212.74,88.6a.31.31,0,0,1-.37-.25A.32.32,0,0,1,212.74,88.6Z"/><path class="cls-2" d="M217.84,129.89c0,.32-.05.63-.44.72C217.33,130.24,217.66,130.11,217.84,129.89Z"/><path class="cls-3" d="M191.81,82.85c-.08.29-.27.35-.54.26Z"/><path class="cls-3" d="M212.16,88.2a.31.31,0,0,1-.39-.24A.32.32,0,0,1,212.16,88.2Z"/><path class="cls-3" d="M217.4,96.77c.2.13.22.27,0,.41A.4.4,0,0,1,217.4,96.77Z"/><path class="cls-3" d="M217.14,98.9a.4.4,0,0,1-.13.48A.38.38,0,0,1,217.14,98.9Z"/><path class="cls-3" d="M191.84,84.78a.35.35,0,0,1,.32.44A.5.5,0,0,1,191.84,84.78Z"/><path class="cls-3" d="M192.81,82.14a.37.37,0,0,1-.46.22A.36.36,0,0,1,192.81,82.14Z"/><path class="cls-2" d="M192.19,121.21c-.22,0-.24-.19-.29-.34A.41.41,0,0,1,192.19,121.21Z"/><path class="cls-4" d="M218.81,114.78c.09,0,.16,0,.18.14C218.84,115,218.8,114.92,218.81,114.78Z"/><path class="cls-3" d="M213.39,124.19l-.22-.24c.1-.06.21-.13.28,0S213.41,124.12,213.39,124.19Z"/><path class="cls-4" d="M218.6,114.43a.12.12,0,0,1,0,.14c-.08,0-.16,0-.14-.11S218.55,114.44,218.6,114.43Z"/><path class="cls-2" d="M203.38,94.78c0,.07,0,.15-.06.13s-.06-.15.08-.11Z"/><path class="cls-4" d="M216.89,131.8l.31-.22A.35.35,0,0,1,216.89,131.8Z"/><path class="cls-2" d="M125.29,121.73a26.77,26.77,0,0,0-5.37.12,8.89,8.89,0,0,0-3.54.92c-.22.12-.52.17-.58.65a35.43,35.43,0,0,1,7.11-.39,49,49,0,0,1,7,1c2.34.47,4.66,1.07,6.95,1.76a15.35,15.35,0,0,0,1.5,2.24c4.08,5.81,8.06,11.69,12.05,17.55a1.43,1.43,0,0,1,.37.76,4.72,4.72,0,0,1-1.35-.39c-2.38-.88-4.72-1.83-7.08-2.77-2.63-1-5.31-2-8-2.93a47.92,47.92,0,0,1-8.11-3.63,40.6,40.6,0,0,1-9.85-7.61,7.34,7.34,0,0,1-1.65-3.66c-.29-1.42.55-2.65,2.11-3.35a7.42,7.42,0,0,1,2.51-.58A30.42,30.42,0,0,1,125.29,121.73Z"/><path class="cls-2" d="M144.51,127.92c1.6.35,3.12.93,4.67,1.41a22.57,22.57,0,0,1,3.1,1c.07.13.1.33.33.2v0c-.35.4,0,.68.19,1,1.08,2.14,2.19,4.27,3.28,6.4q3,5.73,5.89,11.47c.13.26.23.54.34.8-.27.25-.48.07-.68,0-1.35-.47-2.69-1-4-1.44a1.9,1.9,0,0,1-1.05-.86q-5.81-9.57-11.63-19.12C144.76,128.47,144.64,128.19,144.51,127.92Z"/><path class="cls-4" d="M126.58,121.89a.23.23,0,0,1-.4-.06A.43.43,0,0,1,126.58,121.89Z"/><path class="cls-4" d="M173.79,122.43a.43.43,0,0,1-.48.12A.46.46,0,0,1,173.79,122.43Z"/><path class="cls-4" d="M173,122.61a.28.28,0,0,1-.33.08A.3.3,0,0,1,173,122.61Z"/><path class="cls-1" d="M152.61,130.57c-.23.13-.26-.07-.33-.2C152.43,130.38,152.6,130.34,152.61,130.57Z"/><path class="cls-1" d="M196.87,84.22c-.63-.75-1.13-.75-2.3-.68a1,1,0,0,0-.84.63c-.14.37.36.42.41.71,0,.06-.09.16-.13.16-1-.1-.9-.05-1,1.3-.32-.38-.87-.16-1-.78.49,0,.55-.55.73-.94a2.52,2.52,0,0,1,3.1-1.54c.28-.32.07-.68.14-1,.67.22.85.46.73,1.27C196.65,83.69,196.87,83.88,196.87,84.22Z"/><path class="cls-1" d="M196.84,84.84c.37-.06,1.56.36,2,.06-.47-.13-1.18-.05-1.65-.18-.29-.08-.23-.25-.13-.43a3,3,0,0,0-2.24,1.07,1.91,1.91,0,0,0-.35,1.49c.15-.19.24-.83.53-.67A2.37,2.37,0,0,1,196.84,84.84Z"/></svg>