<svg id="frames" xmlns="http://www.w3.org/2000/svg" viewBox="0 0 384 216"><defs><style>.cls-1{fill:#fff;}.cls-2{fill:#1e2a40;}.cls-3{fill:#fc0c0c;}.cls-4{fill:#d6d7d0;}</style></defs><path class="cls-1" d="M226.41,153.64a.56.56,0,0,0-.52-.24c-1.09,0-2.19,0-3.28,0a56.51,56.51,0,0,1-5.67-.17c-.32,0-.66-.06-1-.07-3.22,0-6.44,0-9.67,0a44.29,44.29,0,0,0-5.63.52c-1.22.17-2.46.06-3.68.11a3.71,3.71,0,0,0-1.87.12,2.36,2.36,0,0,1-1.9-.26A73.48,73.48,0,0,1,183,145.13a126,126,0,0,1-23.47-33.38A57.59,57.59,0,0,1,155.15,100a1.88,1.88,0,0,1-.09-1.14,30.62,30.62,0,0,1,3.46-.1,54.4,54.4,0,0,1,11.64,1.75,107.49,107.49,0,0,1,32.4,14.31c.25.16.54.27.68.54s-.16.3-.29.39a6.7,6.7,0,0,1-3.32,1.26c-2.35.24-4.71.41-7.07.61a26.16,26.16,0,0,0-8.46,2.23c-.19.08-.36.32-.62.14,1.05-2.88,2.63-4.75,4.31-5l-.34,1c-.07.22-.16.44-.22.66a.34.34,0,0,0,.23.47c.19,0,.3-.09.37-.25.24-.52.49-1,.74-1.53a.44.44,0,0,0,0-.47,2.76,2.76,0,0,0-1.85-.54c-1.5.82-3,1.68-3.67,3.37a18.38,18.38,0,0,1-1.29,2.59,6.23,6.23,0,0,0-.77,1.73,1.27,1.27,0,0,0,.31,1.3,9.33,9.33,0,0,0,.78.76,2,2,0,0,0,2.32.27,16.17,16.17,0,0,1,2.6-1,6.6,6.6,0,0,1,4.12-.16c1.34.4,2.67.78,4,1.19a6.09,6.09,0,0,0,4.66-.41,11.12,11.12,0,0,0,1.31-.72.76.76,0,0,1,1.13.13c.32.34.69.63,1,1a67.84,67.84,0,0,1,6.27,7.27,21.06,21.06,0,0,0,5.18,5.22,5.85,5.85,0,0,1,1.13,1,13.18,13.18,0,0,0,2.12,2,18,18,0,0,1,4,4c.29.4.61.79.92,1.18a1.7,1.7,0,0,0,.4.44.92.92,0,0,0,1,0c.28-.2.09-.49,0-.73a7.54,7.54,0,0,0-1.15-2,25.73,25.73,0,0,0-5.17-5.25,3.75,3.75,0,0,0-2-1.13c-.17,0-.34-.19-.49-.32a24.56,24.56,0,0,1-5.05-5.23,54.62,54.62,0,0,0-4.94-5.89c-.14-.15-.27-.3-.41-.44a.47.47,0,0,1-.12-.55,12.81,12.81,0,0,1,3-4.69c.77-.68.93-.68,1.83-.12.37.23.73.48,1.09.7,1,.65,2,1.41,3.09,2h0a.24.24,0,0,0,.23.2v0a6.08,6.08,0,0,0,1.17.92c2.74,2,5.36,4.16,7.93,6.38a19.81,19.81,0,0,1,4,4.79c2,3.39,4,6.82,5.9,10.3.32.57.65,1,1.39.82a1.24,1.24,0,0,0,.34.18,8.87,8.87,0,0,1,3.84,1.24s.13,0,.19,0c.29.22.51.49.81.69.7.49,1.39,1,2.09,1.52s.77,1,.38,1.44a5.47,5.47,0,0,1-3.09,2.16,3.1,3.1,0,0,0-1,.4h0l0,.06h-.07a.62.62,0,0,0-.48,0,15.4,15.4,0,0,1-4.1.6c-.23,0-.47,0-.56.3Z"/><path class="cls-2" d="M214,121.61c-1.09-.56-2.05-1.32-3.09-2-.36-.22-.72-.47-1.09-.7-.9-.56-1.06-.56-1.83.12a12.81,12.81,0,0,0-3,4.69.47.47,0,0,0,.12.55c.14.14.27.29.41.44a54.62,54.62,0,0,1,4.94,5.89,24.56,24.56,0,0,0,5.05,5.23c.15.13.32.31.49.32a3.75,3.75,0,0,1,2,1.13,25.73,25.73,0,0,1,5.17,5.25,7.54,7.54,0,0,1,1.15,2c.08.24.27.53,0,.73a.92.92,0,0,1-1,0,1.7,1.7,0,0,1-.4-.44c-.31-.39-.63-.78-.92-1.18a18,18,0,0,0-4-4,13.18,13.18,0,0,1-2.12-2,5.85,5.85,0,0,0-1.13-1,21.06,21.06,0,0,1-5.18-5.22,67.84,67.84,0,0,0-6.27-7.27c-.32-.33-.69-.62-1-1a.76.76,0,0,0-1.13-.13,11.12,11.12,0,0,1-1.31.72,6.09,6.09,0,0,1-4.66.41c-1.33-.41-2.66-.79-4-1.19a6.6,6.6,0,0,0-4.12.16,16.17,16.17,0,0,0-2.6,1,2,2,0,0,1-2.32-.27,9.33,9.33,0,0,1-.78-.76,1.27,1.27,0,0,1-.31-1.3,6.23,6.23,0,0,1,.77-1.73,18.38,18.38,0,0,0,1.29-2.59c.68-1.69,2.17-2.55,3.67-3.37a2.76,2.76,0,0,1,1.85.54.44.44,0,0,1,0,.47c-.25.51-.5,1-.74,1.53-.07.16-.18.29-.37.25a.34.34,0,0,1-.23-.47c.06-.22.15-.44.22-.66l.34-1c-1.68.28-3.26,2.15-4.31,5,.26.18.43-.06.62-.14a26.16,26.16,0,0,1,8.46-2.23c2.36-.2,4.72-.37,7.07-.61a6.7,6.7,0,0,0,3.32-1.26c.13-.09.29-.18.29-.39s-.43-.38-.68-.54a107.49,107.49,0,0,0-32.4-14.31,54.4,54.4,0,0,0-11.64-1.75,30.62,30.62,0,0,0-3.46.1,1.88,1.88,0,0,0,.09,1.14,57.59,57.59,0,0,0,4.42,11.77A126,126,0,0,0,183,145.13a73.48,73.48,0,0,0,10.16,8.55,2.36,2.36,0,0,0,1.9.26,3.71,3.71,0,0,1,1.87-.12c-.58.45-1.35.54-2.05,1A4.75,4.75,0,0,0,198,156a57.74,57.74,0,0,1,21.08,2.77,11.33,11.33,0,0,1,2,.83,3.44,3.44,0,0,1,1.32,1.19.72.72,0,0,1-.32,1.16,4.3,4.3,0,0,1-1.84.41,12.2,12.2,0,0,1-3.85-.49c-3.37-1-6.73-1.91-10.17-2.57-1.64-.31-3.28-.58-4.92-.87a.65.65,0,0,0-.64.1,8.16,8.16,0,0,0,1.9,1.07c1.93.83,3.88,1.61,5.75,2.56a36.83,36.83,0,0,0,3.78,1.59,16.63,16.63,0,0,1,3.18,1.67c2,1.3,4,2.57,6,3.84a1.45,1.45,0,0,0,1.19.37c.33-.08.62.22.91.37a73.93,73.93,0,0,1,14.14,10.06c1.34,1.2,2.65,2.44,4,3.65a2.41,2.41,0,0,0,.84.63c.14-.44-.12-.77-.26-1.09a19.32,19.32,0,0,0-3.33-5.08,32.22,32.22,0,0,0-10.28-7.65,34.51,34.51,0,0,0-7.35-2.84c-.24,0-.55,0-.76-.47.64.06,1.21.1,1.77.17a4.67,4.67,0,0,1,1,.21c6.33,2.16,12.12,5.2,16.49,10.47a19.68,19.68,0,0,1,3.07,4.88,4.54,4.54,0,0,1,.43,1.43c0,.5-.19.69-.67.54a7.78,7.78,0,0,1-1.86-1.2c-1.11-.75-1.86-1.87-3-2.6-.54-.35-.87-1-1.41-1.37-.8-.53-1.43-1.24-2.19-1.82-1.19-.9-2.31-1.91-3.51-2.81a63.19,63.19,0,0,0-7.62-4.94c-.32-.18-.59-.38-1-.16s-.77-.05-1.12-.25c-1.25-.7-2.5-1.4-3.74-2.12a45.28,45.28,0,0,0-6.84-3.29c-1.81-.67-3.56-1.5-5.3-2.32a4.69,4.69,0,0,0-1.78-.63c-.46,0-.73-.44-1.13-.6a20.6,20.6,0,0,1-4.16-2.37c-.14-.09-.33-.14-.42-.27-.37-.54-1.45.21-1.51-.85l-1.65-1.12-1.58-1.06c-.55-.37-1.1-.74-1.65-1.13s-1.1-.75-1.61-1.17c-1.35-1.08-2.77-2.1-4-3.3-1.73-1.7-3.5-3.35-5.14-5.14-.81-.9-1.62-1.83-2.47-2.7a31.22,31.22,0,0,1-2.2-2.65c-1.49-1.92-3-3.86-4.43-5.78-1.7-2.19-3.16-4.55-4.77-6.8-1-1.46-1.79-3.07-2.83-4.52a22.7,22.7,0,0,1-1.57-2.78c-.83-1.6-1.8-3.12-2.62-4.72-.59-1.16-1-2.44-1.56-3.59s-.93-2.23-1.44-3.33a34.85,34.85,0,0,1-1.82-6c-.17-.67-.33-1.36-.45-2-.2-1.09-.11-1.24,1-1.48a20.32,20.32,0,0,1,5.28-.32,62.41,62.41,0,0,1,18.22,3.82,107.86,107.86,0,0,1,16.71,7.39,93.29,93.29,0,0,1,9.19,5.58c.19.13.35.32.61.31v0a1.24,1.24,0,0,0,1,.62l0,0,.32.16a83.15,83.15,0,0,1,7.47,5.74A1.4,1.4,0,0,1,214,121.61Zm-30.68-1.52a7.12,7.12,0,0,0-1.26,2.17c-.21.56.18.85.5,1.19s.59.17.89,0a12.25,12.25,0,0,1,2.64-.89,8.28,8.28,0,0,1,4.83-.1c1.2.35,2.4.66,3.59,1.05,2.11.69,4.06-.13,5.88-1.22.2-.12.23-.22.11-.47-.23-.49.09-.87.63-.75a1.62,1.62,0,0,1,.62.3c.59.44,1.16.9,1.75,1.33.2.15.33.43.66.38a9.52,9.52,0,0,1,4.13-5,21.9,21.9,0,0,0-3.24-1.58,1.14,1.14,0,0,0-1.19.1c-.72.48-1.49.89-2.24,1.31-.45.25-.9.47-1.38,0-.19-.18-.45-.06-.67,0-.54,0-1.07.08-1.6.1a40.31,40.31,0,0,0-13.4,2.49A.86.86,0,0,1,183.32,120.09Zm14.82,36.7a3.55,3.55,0,0,0,2,1.07c.57,0,1.12.15,1.68.23a103.11,103.11,0,0,1,14.43,3.15,11.23,11.23,0,0,0,4,.54c.5,0,1.15,0,1.29-.55s-.42-.92-.86-1.21a4,4,0,0,0-.81-.38c-.47-.17-.95-.31-1.43-.46A63.11,63.11,0,0,0,205.28,157,65.88,65.88,0,0,0,198.14,156.79Z"/><path class="cls-2" d="M226.41,153.64l6.57-.13a5.38,5.38,0,0,0,.69.07c4.16,0,8.32-.05,12.47-.39,1.31-.1,1.32-.1.71-1.28-2.45-4.69-4.92-9.37-7.34-14.08-1.67-3.25-3.29-6.54-4.9-9.82-.23-.48-.44-.64-1-.44-.81.29-1.61.61-2.39,1-1.46.71-2.74,1.71-4.19,2.51A53.75,53.75,0,0,1,234.6,145c-.74.19-1.07-.25-1.39-.82-1.88-3.48-3.86-6.91-5.9-10.3a19.81,19.81,0,0,0-4-4.79c-2.57-2.22-5.19-4.37-7.93-6.38a6.08,6.08,0,0,1-1.17-.92,1.54,1.54,0,0,0,.3,0c.33,0,.72.07.88-.29s-.27-.49-.38-.75a4.88,4.88,0,0,1,1.47,1,.67.67,0,0,0,1,0,3,3,0,0,0,1.41-2.19,2.48,2.48,0,0,1,.23-.64c.38-1,.9-1.86,1.2-2.87a11.07,11.07,0,0,1,1.33-2.52.94.94,0,0,0,0-1.1,59.73,59.73,0,0,1-3.3-6.66,22.17,22.17,0,0,1-.94-3,2.51,2.51,0,0,1,.91-2.56,1.42,1.42,0,0,1,1.52-.16,5.52,5.52,0,0,0,2,.3,4.91,4.91,0,0,1,2.63.81,4,4,0,0,1,1.35,2c.14.32-.12.57-.33.78a.49.49,0,0,0,0,.82,18.76,18.76,0,0,1,1.38,1.71,4.17,4.17,0,0,0,2.76,1.62c.3.06.53,0,.67-.26,0-.06.08-.11.11-.17.34-.56.61-1.2,1.32-1.39a5.49,5.49,0,0,1,2.87-.08,10.69,10.69,0,0,1,4.79,2.74.71.71,0,0,1,.18,1,18.61,18.61,0,0,1-1.39,2.31,1.23,1.23,0,0,1-1.5.64,3.87,3.87,0,0,0,1.57,1.24,30.3,30.3,0,0,1,6.35,4.8,8.72,8.72,0,0,1,1.74,3,26.33,26.33,0,0,0,3.26,5.44,75,75,0,0,0,9.27,10.15,6.16,6.16,0,0,1,.82,1.46.88.88,0,0,1-1.08-.27,36.74,36.74,0,0,0-4.27-4.19,16.73,16.73,0,0,1-1.89-1.78c-2-2.21-4.16-4.33-6-6.67a24.68,24.68,0,0,1-2.6-4.25,2.25,2.25,0,0,0-.51-.85c0-.07-.07-.2-.18-.11s0,.18,0,.27a64.72,64.72,0,0,0,1.39,11.18,18.24,18.24,0,0,1,.52,4.46,33.29,33.29,0,0,1-.13,3.87c-.06.46,0,.77.47.94a2.84,2.84,0,0,1,.68.42.91.91,0,0,1,.39,1,.16.16,0,0,1,0,.1c-.65,1.53-.18,2.85.58,4.23a36.4,36.4,0,0,1,2.47,5c.19.52.57.52,1,.5a41.85,41.85,0,0,1,7,.11,37.53,37.53,0,0,1,9.17,2.2,4,4,0,0,1,2.4,1.74,13,13,0,0,0-3.53-1.41A48.82,48.82,0,0,0,255.16,154c-1.16,0-2.33-.05-3.49-.13a37,37,0,0,0-4.59.07c-4.37.27-8.73,1-13.13.79l-4.46-.28c-.66,0-1.32-.11-2-.2A1.32,1.32,0,0,1,226.41,153.64Zm17.15-13.25c.18-1.61-.2-3.25.18-4.86a1,1,0,0,0-.07-.39c-.13-.65-.25-1.3-.42-1.95a47.93,47.93,0,0,1-1.57-10.85,23.72,23.72,0,0,0-.44-3.56,1.5,1.5,0,0,0-.52-.93c-1.23-1-2.41-2.12-3.7-3a11.15,11.15,0,0,1-3.85-4.1,3,3,0,0,0-2.64-1.69,7.13,7.13,0,0,1-6-3.22,23.8,23.8,0,0,0-3.3-4,7,7,0,0,0-1.23-1c-1.13-.68-1.16-.31-1.61.69-.15.32.06.58.16.85,1.35,3.52,3.27,6.77,4.74,10.23a9.93,9.93,0,0,1,.85,2.53c0,.27.13.54-.17.71a.83.83,0,0,1-.94-.09c-.19-.14-.12-.48-.43-.55-.51,1.37-1.08,2.73-1.51,4.12a5.28,5.28,0,0,1-3,3.42c-.05,0-.07.11-.13.2,1,.81,2,1.6,2.9,2.43,1.69,1.5,3.37,3,5,4.56.31.29.52.31.84,0a19,19,0,0,1,7.37-3.42c1.81-.45,3.58-1.06,5.41-1.41a1.14,1.14,0,0,1,1.14.16c-1.45.64-2.91.91-4.25,1.45,0,.12,0,.16,0,.18l.55.71a13.38,13.38,0,0,1,2.78,5.68.77.77,0,0,0,.45.62,1.13,1.13,0,0,1,.69,1.19c0,.33.09.66.12,1a5,5,0,0,0,1.25,3,13.2,13.2,0,0,1,.9,1.31,2.67,2.67,0,0,1,.17.66c0,.33-.5.12-.54.45,1,.69,1,2.1,2.06,2.82a2.66,2.66,0,0,0,.09-.27c.34-1.49.35-1.49-1-2.33a.77.77,0,0,1-.37-.55C243.6,140.92,243.59,140.65,243.56,140.39Zm-6.85-27.33c.52-1,1.11-1.88,1.52-2.86a1,1,0,0,0-.3-1.31,10.11,10.11,0,0,0-3.29-1.82c-1.55-.57-2.31-.26-3.18,1.25a6.44,6.44,0,0,1,1.81.78,6,6,0,0,1,1.73,2A3.7,3.7,0,0,0,236.71,113.06Zm8.09,32.37a1.59,1.59,0,0,0,.08.33q1.65,3.3,3.31,6.6a3.32,3.32,0,0,0,.33.5.27.27,0,0,0,.36,0c.14-.09.11-.24,0-.36-.19-.35-.4-.69-.59-1-1-1.82-1.9-3.66-2.76-5.54C245.44,145.69,245.37,145.3,244.8,145.43ZM222,101l2.36,2.42c.09.1.2.17.33.07a.22.22,0,0,0,0-.27C224.14,102.2,223.66,101,222,101Zm17.75,34.62c.14.1.19.08.19,0,0-.5.06-1.06-.74-1.21A3.36,3.36,0,0,0,239.74,135.66Z"/><path class="cls-1" d="M234,154.69c4.4.19,8.76-.52,13.13-.79a37,37,0,0,1,4.59-.07c1.16.08,2.33.12,3.49.13a48.82,48.82,0,0,1,10.34,1.53A13,13,0,0,1,269,156.9c.28.32.6.62.85,1a1.1,1.1,0,0,1-.25,1.71,6.06,6.06,0,0,1-4.21,1.42,7.89,7.89,0,0,1-2.27-.17,1.27,1.27,0,0,0-.88.05c-1.16-.23-2.32-.48-3.49-.68-2.06-.34-4.13-.64-6.19-.95,0-.22-.07-.38-.31-.38s-.27.14-.29.31l-.46,0c.12-.42-.16-.5-.48-.56-1.31-.26-2.61-.52-3.91-.8a72.62,72.62,0,0,0-7.48-1.15l-5.94-.63a5,5,0,0,1-1.58-.45,1.68,1.68,0,0,1,1.27-.34C233.74,155.18,234,155.13,234,154.69Z"/><path class="cls-3" d="M215,120.78c.11.26.52.42.38.75s-.55.29-.88.29a1.54,1.54,0,0,1-.3,0v0a.28.28,0,0,0-.23-.2h0a1.4,1.4,0,0,0-.22-.32,83.15,83.15,0,0,0-7.47-5.74l-.32-.16,0,0c-.27-.32-.49-.72-1-.62v0c.09-.47-.35-.49-.58-.65-2.06-1.46-4.22-2.77-6.29-4.21q-8.72-6-17.88-11.28c-8.18-4.69-16.54-9.06-25-13.2-1.45-.71-2.83-1.54-4.33-2.16-2.8-1.17-5.52-2.52-8.22-3.92-.28-.15-.64-.2-.82-.61a1.44,1.44,0,0,1,1.61-.14l4.62,2c3.06,1.36,6.12,2.71,9.16,4.11,2.11,1,4.19,2,6.27,3,3.14,1.55,6.29,3.1,9.4,4.72q5.43,2.82,10.64,6c5.44,3.31,10.74,6.84,16,10.43,4.34,3,8.64,6,12.68,9.37.76.64,1.51,1.31,2.26,2h0l.2.17a.58.58,0,0,0,.14.13l0,0,.21.23Z"/><path class="cls-2" d="M295.78,187.33a12,12,0,0,1-3-.33,20.83,20.83,0,0,1-4.92-1.66,21.7,21.7,0,0,1-5.42-3.12c-.59-.52-1.17-1.05-1.76-1.56a18.84,18.84,0,0,0-2.8-1.85c-1-.59-2-1.06-3.05-1.62a32.23,32.23,0,0,0-3.09-1.26c-1.77-.75-3.61-1.38-5.33-2.24a42.1,42.1,0,0,0-7-2.47c-.67-.2-1.35-.37-2-.63s-1.82-.53-1.8-1.49,1.17-1.14,1.95-1.42a11.91,11.91,0,0,1,2.85-.5c1.69-.14,3.39-.14,5.09-.15a20.27,20.27,0,0,0,3.89-.22,5.15,5.15,0,0,0,.68-.15c.22-.06.52-.1.56-.35s-.28-.42-.51-.51a21.24,21.24,0,0,0-4-1.08A114.29,114.29,0,0,0,251.76,163c-1.36-.06-2.73,0-4.09,0a6,6,0,0,1-2-.29c.07-.41.32-.27.48-.25a17.38,17.38,0,0,0,2.5,0,59.49,59.49,0,0,1,11.84.85c1.85.27,3.69.62,5.53,1a36.14,36.14,0,0,1,4.12,1.08c.55.19,1.36.31,1.28,1s-.88.7-1.46.81a26.58,26.58,0,0,1-4.88.33,40.15,40.15,0,0,0-5.48.27,7.93,7.93,0,0,0-2.66.78c-.66.35-.68.73-.09,1.21a4.63,4.63,0,0,0,1.8.8,71.31,71.31,0,0,1,11.68,4.19c1.93.84,3.88,1.66,5.81,2.53a21.57,21.57,0,0,1,6,3.88,22.91,22.91,0,0,0,7.49,4.4,17.66,17.66,0,0,0,5.76,1.47C295.5,187.08,295.68,187.07,295.78,187.33Z"/><path class="cls-2" d="M270.51,189.47a2,2,0,0,1-1.49-.16,3.29,3.29,0,0,0-1.32-.41,15.41,15.41,0,0,1-3.57-1.24,52.74,52.74,0,0,1-5.92-2.71c-1-.56-1.94-1.2-2.94-1.7a21,21,0,0,0-3-1.7c-.54-.16-.87-.69-1.35-1-1.17-.7-2.2-1.61-3.3-2.41a10.24,10.24,0,0,1-1.71-2c-.79-1-1.48-2-2.19-3.08a18.07,18.07,0,0,0-4.19-4.53,1.64,1.64,0,0,1-.75-.84,1.1,1.1,0,0,1,1.11.18,13.82,13.82,0,0,1,4.35,3.62c.94,1.26,1.87,2.52,2.77,3.79a20.18,20.18,0,0,0,5.54,5.28A103.89,103.89,0,0,0,262,186a24.22,24.22,0,0,0,2.53,1.31c1.71.6,3.43,1.16,5.14,1.74A1.75,1.75,0,0,1,270.51,189.47Z"/><path class="cls-2" d="M185.25,152.18c0-.27,0-.5.23-.58s.36.11.43.3a11.58,11.58,0,0,0,2.59,3.64,40.11,40.11,0,0,0,9.57,7.31c3.8,2.18,7.75,4.08,11.61,6.16a84.58,84.58,0,0,1,19.87,15.48,20.49,20.49,0,0,1,2.27,2.89c.15.22.25.47.38.7a.31.31,0,0,1-.07.44c-.13.08-.25-.05-.33-.15s-.27-.38-.39-.58a22.1,22.1,0,0,0-4.93-5.66c-.95-.81-1.79-1.74-2.81-2.49s-1.69-1.42-2.51-2.16c-1.28-1.15-2.82-1.94-4.07-3.1a32.27,32.27,0,0,0-4.1-2.8,19.5,19.5,0,0,0-3.21-1.75,4.68,4.68,0,0,1-1.6-1,2.64,2.64,0,0,0-1-.53c-2.14-.8-4.09-2-6.15-3-.48-.23-.78-.72-1.31-.86a32,32,0,0,1-2.87-1.43,13.68,13.68,0,0,1-1.22-.77,26.29,26.29,0,0,1-4.44-3.12,25.71,25.71,0,0,0-2.2-1.83,5.45,5.45,0,0,1-1.13-1.12c-.73-.84-1.44-1.7-2.16-2.56A3.57,3.57,0,0,1,185.25,152.18Z"/><path class="cls-2" d="M252.59,159.24c2.06.31,4.13.61,6.19.95,1.17.2,2.33.45,3.49.68a7.55,7.55,0,0,0-1.84,0c-2.1-.13-4.17-.48-6.25-.75a60.67,60.67,0,0,0-12-.51c-.56,0-1.12.14-1.68.21a.72.72,0,0,1-.85-.29,6.19,6.19,0,0,1,1.57-.35,48.7,48.7,0,0,1,8.19-.1,10.42,10.42,0,0,0,2.09.06l.46,0A.5.5,0,0,0,252.59,159.24Z"/><path class="cls-2" d="M214.49,120.3h0Z"/><path class="cls-2" d="M214.83,120.6a.58.58,0,0,1-.14-.13A.18.18,0,0,1,214.83,120.6Z"/><path class="cls-2" d="M215,120.8l-.21-.23C214.92,120.61,215,120.66,215,120.8Z"/><path class="cls-2" d="M239,146.39a10.64,10.64,0,0,1,3.84,1.55,4.19,4.19,0,0,1,.77.62c.95.92.88,1.83-.25,2.52a9.71,9.71,0,0,1-5.14,1.52,3.1,3.1,0,0,1,1-.4,5.47,5.47,0,0,0,3.09-2.16c.39-.45.24-1-.38-1.44s-1.39-1-2.09-1.52C239.48,146.88,239.26,146.61,239,146.39Z"/><path class="cls-2" d="M214,121.6a.28.28,0,0,1,.23.2A.24.24,0,0,1,214,121.6Z"/><polygon class="cls-2" points="238.21 152.6 238.15 152.59 238.12 152.66 238.19 152.66 238.21 152.6"/><path class="cls-1" d="M183.32,120.09a.86.86,0,0,0,1.25.39A40.31,40.31,0,0,1,198,118c.53,0,1.06-.07,1.6-.1.22,0,.48-.14.67,0,.48.44.93.22,1.38,0,.75-.42,1.52-.83,2.24-1.31a1.14,1.14,0,0,1,1.19-.1,21.9,21.9,0,0,1,3.24,1.58,9.52,9.52,0,0,0-4.13,5c-.33,0-.46-.23-.66-.38-.59-.43-1.16-.89-1.75-1.33a1.62,1.62,0,0,0-.62-.3c-.54-.12-.86.26-.63.75.12.25.09.35-.11.47-1.82,1.09-3.77,1.91-5.88,1.22-1.19-.39-2.39-.7-3.59-1.05a8.28,8.28,0,0,0-4.83.1,12.25,12.25,0,0,0-2.64.89c-.3.17-.58.33-.89,0s-.71-.63-.5-1.19A7.12,7.12,0,0,1,183.32,120.09Z"/><path class="cls-4" d="M206,115.39l.32.16Z"/><path class="cls-1" d="M243.2,140.4a13.2,13.2,0,0,0-.9-1.31,5,5,0,0,1-1.25-3c0-.34-.12-.67-.12-1a1.13,1.13,0,0,0-.69-1.19.77.77,0,0,1-.45-.62,13.38,13.38,0,0,0-2.78-5.68l-.55-.71s0-.06,0-.18c1.34-.54,2.8-.81,4.25-1.45a1.14,1.14,0,0,0-1.14-.16c-1.83.35-3.6,1-5.41,1.41a19,19,0,0,0-7.37,3.42c-.32.26-.53.24-.84,0-1.66-1.53-3.34-3.06-5-4.56-.94-.83-1.93-1.62-2.9-2.43.06-.09.08-.17.13-.2a5.28,5.28,0,0,0,3-3.42c.43-1.39,1-2.75,1.51-4.12.31.07.24.41.43.55a.83.83,0,0,0,.94.09c.3-.17.2-.44.17-.71a9.93,9.93,0,0,0-.85-2.53c-1.47-3.46-3.39-6.71-4.74-10.23-.1-.27-.31-.53-.16-.85.45-1,.48-1.37,1.61-.69a7,7,0,0,1,1.23,1,23.8,23.8,0,0,1,3.3,4,7.13,7.13,0,0,0,6,3.22,3,3,0,0,1,2.64,1.69,11.15,11.15,0,0,0,3.85,4.1c1.29.92,2.47,2,3.7,3a1.5,1.5,0,0,1,.52.93,23.72,23.72,0,0,1,.44,3.56,47.93,47.93,0,0,0,1.57,10.85c.17.65.29,1.3.42,1.95a1,1,0,0,1,.07.39c-.38,1.61,0,3.25-.18,4.86Zm-20-13.64a1.8,1.8,0,0,0,1.11-.47,65.68,65.68,0,0,0,7.48-6.76,26.3,26.3,0,0,0,2.66-3.11,3.49,3.49,0,0,0,.61-1.14c.06-.24.09-.48-.2-.59s-.44,0-.53.29a5.21,5.21,0,0,1-1.05,1.57c-3.12,3.5-6.07,7.17-9.91,10A1.9,1.9,0,0,0,223.23,126.76Z"/><path class="cls-1" d="M236.71,113.06a3.7,3.7,0,0,1-1.71-1.94,6,6,0,0,0-1.73-2,6.44,6.44,0,0,0-1.81-.78c.87-1.51,1.63-1.82,3.18-1.25a10.11,10.11,0,0,1,3.29,1.82,1,1,0,0,1,.3,1.31C237.82,111.18,237.23,112.06,236.71,113.06Z"/><path class="cls-4" d="M244.8,145.43c.57-.13.64.26.77.54.86,1.88,1.78,3.72,2.76,5.54.19.35.4.69.59,1,.07.12.1.27,0,.36a.27.27,0,0,1-.36,0,3.32,3.32,0,0,1-.33-.5q-1.66-3.3-3.31-6.6A1.59,1.59,0,0,1,244.8,145.43Z"/><path class="cls-1" d="M243.2,140.4h.36c0,.26,0,.53.08.79a.77.77,0,0,0,.37.55c1.32.84,1.31.84,1,2.33a2.66,2.66,0,0,1-.09.27c-1-.72-1.07-2.13-2.06-2.82,0-.33.55-.12.54-.45A2.67,2.67,0,0,0,243.2,140.4Z"/><path class="cls-4" d="M222,101c1.67,0,2.15,1.16,2.74,2.22a.22.22,0,0,1,0,.27c-.13.1-.24,0-.33-.07Z"/><path class="cls-1" d="M252.59,159.24a.5.5,0,0,1-.6-.07c0-.17.1-.31.29-.31S252.59,159,252.59,159.24Z"/><path class="cls-2" d="M223.23,126.76a1.9,1.9,0,0,1,.17-.25c3.84-2.79,6.79-6.46,9.91-10a5.21,5.21,0,0,0,1.05-1.57c.09-.26.26-.39.53-.29s.26.35.2.59a3.49,3.49,0,0,1-.61,1.14,26.3,26.3,0,0,1-2.66,3.11,65.68,65.68,0,0,1-7.48,6.76A1.8,1.8,0,0,1,223.23,126.76Z"/></svg>