<svg id="frames" xmlns="http://www.w3.org/2000/svg" viewBox="0 0 384 216"><defs><style>.cls-1{fill:#0f1c34;}.cls-2{fill:#f90203;}.cls-3{fill:#f9fafa;}.cls-4{fill:#d6d7d0;}</style></defs><path class="cls-1" d="M120.24,82.25a25.16,25.16,0,0,0,1.41-2.48,1,1,0,0,1,.92-.77c2.66,0,5.32,0,8,0,.11.55-.42.86-.39,1.4.68.09,1-.51,1.26-.87,1.14-1.43,2.18-2.94,3.28-4.4.49-.65,1.08-1.23,1.54-1.92a1.23,1.23,0,0,1,1.46-.22,1.32,1.32,0,0,1,.74,1.38,3.18,3.18,0,0,1-.65,1.33,39.3,39.3,0,0,1-2.54,3c.14.37.41.23.61.23l9.6,0c1,0,1.15.18,1.59,1.15a1,1,0,0,1-.2,1.14c-.86,1.07-1.86,2-2.65,3.13l-.6.9c.3.26.42,0,.54-.1,1.31-1.18,2.63-2.36,3.9-3.58a9.53,9.53,0,0,0,1-.83.45.45,0,0,1,.69,0c.22.22.38.49.12.79-.41.44-.82.88-1.24,1.3a.87.87,0,0,0-.33,1c.61,2,1.19,4,2,6.16l1.39-1.4a2.12,2.12,0,0,1,.7-.56.76.76,0,0,1,.91.18.62.62,0,0,1,0,.9c-.15.18-.29.37-.45.53-.42.43-.83.87-1.29,1.26a1.42,1.42,0,0,0-.52,1.74c.45,1.27.81,2.58,1.22,3.86.2.61.38.65.9.33a35.41,35.41,0,0,0,3.34-2.5A11.22,11.22,0,0,1,160.19,92a3.58,3.58,0,0,1,.78-.15,1.25,1.25,0,0,1,1.2.57,1.16,1.16,0,0,1-.27,1.37,6.86,6.86,0,0,1-2.05,1.55c-1.51.71-2.75,1.83-4.2,2.67a25,25,0,0,0,6.16.22,4.4,4.4,0,0,1,3-.4c.44,0,.59-.21.57-.62s0-.73,0-1.1c0-3.37,0-6.73,0-10.1a1.88,1.88,0,0,1,1-1.87,14,14,0,0,0,2-1.74c.66-.54,1.35-1.05,2-1.59a1.25,1.25,0,0,0,.51-.58,2.44,2.44,0,0,1,.82.71c.92,1,1.84,2.08,2.77,3.11.14.16.22.42.6.38l.27-1.4c.25.26.52.5.76.78l10.91,12.34,1.39,1.58c.29.34.59.38,1,0-.4-.49-.79-1-1.2-1.45L179.14,86c-3.19-3.61-6.41-7.21-9.55-10.87a4.92,4.92,0,0,0-2.71-1.92,4.83,4.83,0,0,0-1.64.28,1.44,1.44,0,0,1-1.44-.82.57.57,0,0,0-.67-.29c-.45.08-.65-.16-.94-.51a2.72,2.72,0,0,1-.64-2.56c.13-.49.07-.51-.6-1.22a1.46,1.46,0,0,0,.44-2.11c-.24-.44.14-.56.32-.68a5.81,5.81,0,0,1,1.17-.5c.57-.18.93.21,1.26.56s.73.86,1.1,1.29a8.94,8.94,0,0,0,4.55,2.79c2.57.67,5.11,1.43,7.65,2.18a4,4,0,0,1,1.34.64,7.79,7.79,0,0,0,3.67,1.37c1.54.28,3,.92,4.54,1.1.2,0,.4,0,.6.06a1.31,1.31,0,0,0,1.23,0c.78-.26,1.55-.53,2.34-.77a4.74,4.74,0,0,0,1.6-.73,2.51,2.51,0,0,1,1.82.88,7,7,0,0,1,1.23,2,2.28,2.28,0,0,0,1.36,1.32A29.16,29.16,0,0,1,200.33,79a2.42,2.42,0,0,0,1.15.26c.37,0,.74,0,1.1,0,.67,0,1.4.32,2,0a10.31,10.31,0,0,0,2-1.5,4.11,4.11,0,0,1,2.62-1.19c.89,0,1.46.19,1.61.7s-.16,1.09-.9,1.51a9.79,9.79,0,0,0-1.23.89c.42.13.73.25,1.06.32A29.83,29.83,0,0,1,215.87,82a28.16,28.16,0,0,1,5.74,3.52c.16.12.33.23.48.36s.43.16.69,0c1.82-1.29,3.65-2.57,5.5-3.82a3.76,3.76,0,0,1,2.82-.66c1,.18,1.32.75.9,1.71a9.27,9.27,0,0,1-1.92,2.4,2.48,2.48,0,0,0-.75,1,3.1,3.1,0,0,0,1.2-.51,51.81,51.81,0,0,1,5.34-2.88,38.6,38.6,0,0,1,3.94-1.44,7.05,7.05,0,0,1,2.78-.26,2.29,2.29,0,0,1,2,1.33,1.65,1.65,0,0,1,.05,1.53A5.62,5.62,0,0,1,243,86.36a49.57,49.57,0,0,1-5.65,3.77c-2.39,1.45-4.7,3-7,4.57-3.49,2.32-7,4.66-10.5,6.92-1.91,1.21-3.66,2.67-5.59,3.85-3,1.83-5.88,3.89-9,5.54-.51.27-1,.63-1.54,1,.43.14.65-.11.9-.21l7.71-3.29a4.41,4.41,0,0,1,2.15-.36,2.52,2.52,0,0,1,.77.16c.67.27.73.62.2,1.09a4.73,4.73,0,0,1-1.2.72l-4.32,2.06a1.45,1.45,0,0,0-.71.49,14.71,14.71,0,0,0,3.25-1.18c2.9-1.34,5.77-2.75,8.68-4.08a15.69,15.69,0,0,1,6.35-1.61,4,4,0,0,1,1.57.25.84.84,0,0,1,.38,1.44,10.36,10.36,0,0,1-2.88,2.44c-3.24,2-6.5,4.06-9.75,6.08a5.68,5.68,0,0,0-1.5,1.14,6.85,6.85,0,0,0,1.75-.47c4-1.13,7.94-2.52,11.89-3.83.85-.28,1.71-.55,2.56-.84a14,14,0,0,0,1.4-.55c.29-.13.78-.26.7-.6s-.64-.43-1-.38a16.55,16.55,0,0,0-1.85.43c-1.83.51-3.65,1-5.48,1.57a.93.93,0,0,1-.72,0,3,3,0,0,1,1.23-.78c3.38-1.66,6.77-3.29,10.15-5,2.25-1.11,4.48-2.28,6.72-3.43a11.61,11.61,0,0,1,2.67-1.12,3.52,3.52,0,0,1,.79-.13c.46,0,1-.06,1.19.49A1.32,1.32,0,0,1,247,104a3.68,3.68,0,0,1-1.28.92c-1.12.51-2.24,1-3.38,1.47-1.6.66-3.11,1.49-4.73,2.35a1.11,1.11,0,0,0,.82-.14c1.69-.62,3.36-1.26,5.06-1.87a10.33,10.33,0,0,1,3-.61c.74,0,.94.15,1.17.83s.12.84-.44,1.28a7.7,7.7,0,0,1-1.32.9c-2.55,1.27-5.13,2.49-7.72,3.68-3.71,1.7-7.4,3.45-11.1,5.19-.06,0-.09.09-.31.32a21.51,21.51,0,0,0,2.47-.83,5.46,5.46,0,0,1,2.42-.51,1.74,1.74,0,0,1,1.07.45,1.25,1.25,0,0,1-.06,2.12c-1.19.87-2.22,1.92-3.42,2.76a47.45,47.45,0,0,1-8.15,4.89.46.46,0,0,0-.32.34c.69.52,1.08,1.38,2,1.8a.78.78,0,0,0,1-.05c.85-.62,1.68-1.26,2.55-1.84,1.23-.83,2.49-1.6,3.72-2.42,1.64-1.1,3.25-2.24,4.9-3.33,1.06-.7,2.18-1.32,3.26-2s1.89-1.28,2.85-1.91c1.31-.87,2.64-1.69,3.93-2.59s2.55-1.83,3.77-2.83a6.42,6.42,0,0,1,1.38-.85,9.86,9.86,0,0,1,3.78-1.28,5.58,5.58,0,0,1,2.83.46,1.15,1.15,0,0,1,.72,1.55,3,3,0,0,1-1.19,1.79q-2.38,1.73-4.87,3.3c-1.89,1.18-3.77,2.38-5.65,3.58a5.38,5.38,0,0,0-.5.42,35.28,35.28,0,0,0,3.72-1.53,21.09,21.09,0,0,1,4.37-1.5,3.55,3.55,0,0,1,2.68.43,1.07,1.07,0,0,1,0,1.93c-.6.41-1.26.73-1.87,1.13a87.07,87.07,0,0,1-9.07,4.77c-5.59,2.8-11.32,5.28-17.13,7.56a7.78,7.78,0,0,1-3.23.9c-.3,0-.55.21-.82.31a8,8,0,0,1-5.06.66,1.8,1.8,0,0,1-.76-.4,7.53,7.53,0,0,1-1.67-2.06c-.46-.85-1.08-1.6-1.55-2.44-.22-.4-.47-.43-.9-.21a13.42,13.42,0,0,1-2.16.74,36.62,36.62,0,0,1-7.47,1.49,15.93,15.93,0,0,1-2.29.16c-2.17,0-4.31.33-6.47.33a.55.55,0,0,0,.26.46,66.78,66.78,0,0,1,5.63,5.53c.55.62.58.61,1.35.27a24,24,0,0,1,4.74-1.73,1.4,1.4,0,0,1,1.57.53c.29.37.24.65,0,.86a6.67,6.67,0,0,1-1.56,1.05,19.88,19.88,0,0,1-2.5.85,3.27,3.27,0,0,0-1.4.58c0,.3.28.46.44.65a40.32,40.32,0,0,1,4.17,6,29.11,29.11,0,0,1,2.34,5.37,1.77,1.77,0,0,1,.08.79l-4,0c-2.33,0-4.66,0-7-.23-5.91-.5-11.7-1.77-17.52-2.79-.14,0-.35,0-.3-.27.13-.11.25,0,.37,0a25,25,0,0,0,2.92,1,15.26,15.26,0,0,1,2.58.75,6.65,6.65,0,0,1,0,1.89c0,1.8,0,3.6,0,5.4,0,1.59-.16,1.72-1.72,1.72h-29.1c-2.3,0-4.6,0-6.9,0-1.09,0-1.35-.14-1.61-1.14-.53-2.05-1.33-4-2-6a27.72,27.72,0,0,0-1.06-3.19c-.37-.81-.33-.83-1.16-.83h-18.7c-1.67,0-3.33,0-5,0a.82.82,0,0,0-1,.73c-.23.92-.59,1.81-.77,2.89.69-.44,1.28-.79,1.84-1.19a6.26,6.26,0,0,1,2-.87,1.76,1.76,0,0,1,.4-.07c.54,0,1.13,0,1.42.48s-.11,1-.47,1.41a8.79,8.79,0,0,1-2.25,1.58,28.47,28.47,0,0,1-3.46,1.92,1.57,1.57,0,0,0-.95,1.18q-.27,1-.6,1.89c-.3.84-.58,1-1.46,1.06l-4.69.07c-3.07,0-6.13.07-9.19.13-2.36,0-4.73.11-7.09.17h-.7c-.89,0-1.2-.43-1-1.29.14-.61.31-1.22.48-1.82.82-2.8,1.68-5.59,2.66-8.34.37-1.05.58-2.16,1-3.2.68-1.64,1-3.39,1.58-5,1-2.91,1.89-5.86,2.82-8.79.35-1.09.72-2.18,1-3.29.17-.68.62-1.22.76-1.9a15.56,15.56,0,0,1,.45-1.88c.9-2.7,1.71-5.42,2.6-8.13.39-1.18.82-2.37,1.13-3.55C106.94,115.14,113.43,95.14,120.24,82.25Zm89.09,70.35a10.75,10.75,0,0,0-1.44-2.93c-.48-.86-.76-1.16-1.14-1.78a73.08,73.08,0,0,0-6.23-7.9,31.28,31.28,0,0,0-5.31-5.1c-2.49-1.84-4.77-3.95-7.2-5.87a160.33,160.33,0,0,0-33.19-20.61c-3.13-1.42-6.24-2.86-9.41-4.16a85.68,85.68,0,0,0-9.77-3.18,57.85,57.85,0,0,0-9.57-2c-2.2-.21-4.4-.19-6.59-.23-1.62,0-2-.16-1.57,1.93a1.33,1.33,0,0,0,0,.19,4.23,4.23,0,0,0,.17,1.58,25,25,0,0,0,1.56,4.83,44.56,44.56,0,0,0,7,11c1,1.2,2.06,2.35,3.09,3.53-.29.48-.58,1-.86,1.45s-.51.93-.76,1.39c-.52,1-.52,1-.52,1.56l3-3.53c1.15,1,2.29,2,3.34,3.16l-3.1,3.25,2.65,0a22.92,22.92,0,0,1,1.77-2.06,11.84,11.84,0,0,1,2,1.64c-.15.17-.39.27-.43.58l1.11-.05-.36-.44c-.1-.31-.2-.63-.32-.94l-4.2-10.24L126.29,101a17.5,17.5,0,0,1,2.18.23,50.22,50.22,0,0,1,7.18,2.06,2.36,2.36,0,0,0,.27,1.25c.77,2.16,1.55,4.33,2.33,6.49q4.29,11.94,8.58,23.89a2.53,2.53,0,0,0,1.09,1.36c2,1.23,4,2.4,6,3.56.19.1.36.27.6.21a1.35,1.35,0,0,0-.15-.82l-5.1-15.79q-2.73-8.46-5.44-16.94c.31.11.63.21.94.34,4.18,1.74,8.24,3.76,12.25,5.87,12.94,6.82,25.57,14.46,37,23.62a69,69,0,0,1,12.28,12.16,8,8,0,0,0,1.26,1.52m-.21-47.2a.9.9,0,0,0-.53.65,16.73,16.73,0,0,1-1.18,2.83,1.1,1.1,0,0,0-.2.86c.74-.64,1.4-1.23,2.1-1.78a.75.75,0,0,0,.28-.87l-.49-1.69c0-.1,0-.22.06-.28A24.59,24.59,0,0,0,211,97.19a2.64,2.64,0,0,0,.38-1.71,22.26,22.26,0,0,1-3.15,4.91A3.35,3.35,0,0,0,207.34,102.83Zm-31.74-2a1,1,0,0,0-.25-.72c-.18-.06-.24-.23-.3-.38a2.17,2.17,0,0,0-2.16-1.42c-1.66-.07-3.32-.19-5-.27-.29,0-.63-.12-.9.14.19.35.66.23.82.64a2.43,2.43,0,0,1-1.21-.07c-.69-.14-1.37-.29-2.06-.42a2.48,2.48,0,0,0-1.91.29,2.6,2.6,0,0,1-1.54.35c-2.36-.06-4.71-.15-7.07-.24l.42-.63a29.72,29.72,0,0,0-6.79.37l-.58.88a30.38,30.38,0,0,0-6.42,2,2.44,2.44,0,0,0,.34.21c1.84.58,3.64,1.26,5.46,1.89a7.28,7.28,0,0,0,3.4.54,21.09,21.09,0,0,1,3.18,0,49,49,0,0,1,5.55.43,7.56,7.56,0,0,0,1.84.18c.36,0,.72,0,1.08,0a32.57,32.57,0,0,0,6.3-1.62c2.57.47,5.09,1.22,7.71,1.44-.06.39-.11.79-.18,1.18a3.78,3.78,0,0,1-1.78,3,2.4,2.4,0,0,0,.3.22l5.08,2.53c.14.07.31.11.46.18.53.2.71-.21.92-.53s-.08-.55-.31-.71c-.67-.48-1.35-1-2-1.42a2.91,2.91,0,0,1-1.37-2.51c0-1.3-.26-2.58-.38-3.87a2.27,2.27,0,0,0-.65-1.6Zm13-20.61c.19-.3.51-.57.27-1a4.66,4.66,0,0,0-.47-2.32,1.47,1.47,0,0,0-.82-.82L183,74.31a4.08,4.08,0,0,0-1.37-.38c-.23.22.23.36-.08.58a17.46,17.46,0,0,1-2.87-1.7,6.73,6.73,0,0,0-2-1l-6.6-2c-1.36-.4-1.36-.39-1.66,1,0,.1,0,.2-.05.3-.24,1.33-.24,1.33,1,2l.34.2a19.92,19.92,0,0,0,7.51,2.58c.31.35.85.26,1.22.58-.57.56-1.36.6-1.94,1a11.28,11.28,0,0,1-2.64-.43,15,15,0,0,0-2.6-1.15c.65,1.06,1.48,1.71,2,2.56a1,1,0,0,0,.89.49c1.52,0,3,.09,4.57,0,1.39.73,2.5,1.91,3.95,2.56l-2.95,2.22c-1.2.9-1.13.67-.14,1.79.54.62.55.61,1.31.21l5.58-2.85a8.42,8.42,0,0,0,2.15.87c-.1-.47-.44-.56-.7-.72-.73-.45-.74-.54-.23-1.2s.92-1,.94-1.7Zm28.89,52.19h0c0,.08-.14.14-.07.26a9,9,0,0,0,.9,1.54,2.45,2.45,0,0,0,2.35,1,9.68,9.68,0,0,0,3.44-1.58c.29-.05.44,0,.59-.15.4-.19.3-.45.1-.72a16.47,16.47,0,0,0-1.85-2.23,58.78,58.78,0,0,0-9.39-7.54,11.44,11.44,0,0,1-2.21-1.84c-2.71-2.85-5.44-5.67-8.16-8.5l-.49-.5c-.15-.14-.3-.29-.5-.07s-.23.34-.08.54.26.3.39.45a12.94,12.94,0,0,1,1.27,1.4l-.23,1.53c.61.5,1.83,1.89,2.39,2.45l.53.54c.09-.36.24-1,.34-1.35a1.56,1.56,0,0,1,.25.17c1.45,1.5,2.9,3,4.36,4.51a2.72,2.72,0,0,1,.44.66c1.1,2,2.16,4,3.32,6A16,16,0,0,0,217.47,132.39ZM187.13,113.5a1.19,1.19,0,0,0-.41.71.48.48,0,0,0,.5-.33c.23-.14.39-.35.6-.5a11,11,0,0,0,3.42-3.84,20.64,20.64,0,0,0,1.56-5.65c0-.18,0-.41.26-.44a.28.28,0,0,1,.22.29,16.34,16.34,0,0,1-.64,6.41c-.28.73-.19.89.59.86a3.86,3.86,0,0,0,3.18-1.37c.44-.55.85-1.1,1.26-1.67a2,2,0,0,0,.15-2.31c-1.11-2-2.17-4.06-3.45-6a3.11,3.11,0,0,0-1.73-1.26,6.77,6.77,0,0,0-2.87,0,1.46,1.46,0,0,0-1.36,1.13,21,21,0,0,1-3.14,6.1c-2.12,3-4.14,6-6.55,8.81a38.6,38.6,0,0,1-3.56,3.69c.9.77,1.87,1.29,2.75,1.93a.42.42,0,0,0,.62,0c1.46-1.5,3.21-2.7,4.6-4.29a53,53,0,0,0,5.89-7.68,10.74,10.74,0,0,1,.75-1.06,1.56,1.56,0,0,1,.33-.35.33.33,0,0,1,.38,0,.27.27,0,0,1,.12.34c-.07.16-.13.31-.2.46a45.42,45.42,0,0,1-2.86,5.27C187.39,113,187.12,113.17,187.13,113.5Zm12.34-4.24c-.35.68-.68,1.38-1.06,2a5.91,5.91,0,0,1-4.86,3.21,6.48,6.48,0,0,0-1,.17,7.53,7.53,0,0,1-3.17.06c-.22,0-.47-.16-.68,0a11.93,11.93,0,0,0-2.18,1.47c.53.31,1,.57,1.43.86a9.49,9.49,0,0,0,6.72,1.26,2.87,2.87,0,0,0,1.2-.45,11,11,0,0,0,2.69-2.36,1.76,1.76,0,0,0,.52-1,42.22,42.22,0,0,0,3.32-4.34,24.5,24.5,0,0,0,3.24-6.26,22.54,22.54,0,0,0,.13-15.43c.1-.4-.18-.7-.29-1a1.94,1.94,0,0,0,.12,1,24.4,24.4,0,0,1-.11,4c-.18-2.52-.52-5-.9-7.52a5.77,5.77,0,0,0-2.86-4.25,26.73,26.73,0,0,0-9.41-3.59c.57,1.14,1.86,1.51,2.44,2.52-.18.2-.31.13-.4,0a18.2,18.2,0,0,1-2.91-2.71,3.91,3.91,0,0,0-.69-.72,1.14,1.14,0,0,0-1.62,0,.34.34,0,0,0-.11.51,5.64,5.64,0,0,1,.68,3.46.63.63,0,0,0,.34.71,21.42,21.42,0,0,1,4.22,3.49,4.5,4.5,0,0,0,1.87,1.3c1.13.38,2.21.92,3.37,1.23.15,0,.41,0,.41.3a2.3,2.3,0,0,1-1.18.17,20.72,20.72,0,0,0-2.49.2c-.55.11-.67.38-.35.84s.55.58.81.88a9,9,0,0,1,1.48,1.61,7.91,7.91,0,0,0-3.21-.24c-.91.11-1.05.24-.91,1.12.19,1.15.38,2.3.62,3.44a7.19,7.19,0,0,1,.08,3.06,1.15,1.15,0,0,0,.26,1.08,51.84,51.84,0,0,1,3.52,6,3.22,3.22,0,0,1,.38,1.13,3.43,3.43,0,0,0,1.42,2.3,6.7,6.7,0,0,1,1.43,1.34c-.38.17-.56-.06-.76-.22-.37-.28-.73-.58-1.09-.88S199.56,109,199.47,109.26ZM175.09,98.52a14,14,0,0,1,1.68,3.55,4.53,4.53,0,0,0,2.52,2.81,8.85,8.85,0,0,0,4.92.29,1.32,1.32,0,0,0,.78-.57,12.14,12.14,0,0,0,1.35-2.31c.18-.38.18-.55-.25-.75-1.16-.51-2.38-.82-3.55-1.28-2.17-.86-4.52-1.07-6.72-1.82A.9.9,0,0,0,175.09,98.52Zm-9.71,7c-3.44,1.24-6.82.49-10.25.08a2.41,2.41,0,0,0,1.5,2.29c2.64,1.17,5.19,2.56,7.72,4a2.14,2.14,0,0,0,1,.44Zm.47-33.38c-.54-1.71-.55-1.79.28-3.5.12-.26.08-.34-.09-.47a16.1,16.1,0,0,1-2-2.2c-.61-.73-.59-.72-1.47-.41-.4.13-.49.35-.45.74a1.93,1.93,0,0,1,0,1.09,1.21,1.21,0,0,0,0,1,5.45,5.45,0,0,1,.16,1c.08.33-.17,1,.66.79.06,0,.19.16.26.27s.29.52.46.77A1.9,1.9,0,0,0,165.85,72.17Zm24.53,2.91a9.72,9.72,0,0,0,4.87,1.63A8,8,0,0,0,194,74.57a1.15,1.15,0,0,0-1.6-.53A12.64,12.64,0,0,0,190.38,75.08Zm16.81,14.53a9.06,9.06,0,0,0,3,6.43,1,1,0,0,0,.09-1.27c-.39-.72-.75-1.48-1.18-2.18C208.51,91.58,207.84,90.6,207.19,89.61ZM167.6,72.36c.19-.88.37-1.69.53-2.5a.48.48,0,0,0-.19-.52c-1-.78-1.38-.67-1.76.51l0,.09c-.11.35-.3.72.26.87,0,0,.22.11,0,.17-.62.18-.17.49-.08.73C166.54,72.24,167.05,72.25,167.6,72.36Zm9.87,15.09c-1-1.28-1-1.28-2.12-.35-.28.23-.57.46-.84.7s-.42.24-.28.61C175.42,88.58,176.31,87.74,177.47,87.45Z"/><path class="cls-1" d="M209.39,44.77a2.16,2.16,0,0,1,1.1-.54c3.37-.93,6.79-1.66,10.2-2.43,4.23-.95,8.46-1.84,12.68-2.81a43.41,43.41,0,0,0,7.43-2.62,14,14,0,0,0,5.33-4.28,5.53,5.53,0,0,0-.32-7.64,9,9,0,0,0-6.62-3.25,44,44,0,0,0-13.27,1.24,101.36,101.36,0,0,0-15.87,5.69c-1.39.66-2.8,1.27-4.21,1.87-.17.08-.27.15-.4,0s.09-.4.19-.45c1.86-1,3.64-2.07,5.53-3A99.7,99.7,0,0,1,225.51,21,30.87,30.87,0,0,1,232,19.84c1.83-.16,3.65-.3,5.49-.33a18.62,18.62,0,0,1,7,.93,11.32,11.32,0,0,1,5.73,4.43A5.74,5.74,0,0,1,250,32a16,16,0,0,1-7.82,5.72,85.42,85.42,0,0,1-15.62,3.66c-5,.73-9.89,1.85-14.79,3A5.06,5.06,0,0,1,209.39,44.77Z"/><path class="cls-1" d="M211.16,57.75a3.33,3.33,0,0,1,1.52-.92,44.55,44.55,0,0,0,5.69-2.12,48.88,48.88,0,0,1,9.88-3.39q3.08-.68,6.2-1a12.28,12.28,0,0,1,2.1,0,3.28,3.28,0,0,1,1.43.38c.51.28.56.5.1.88a5.63,5.63,0,0,1-1.35.83,26.73,26.73,0,0,1-4.66,1.26c-.45.11-.92.16-1.36.3s-.9,0-.82.7c0,.24-.46.31-.75.38-1.59.39-3.19.7-4.8,1-2.39.41-4.78.83-7.17,1.3A20.74,20.74,0,0,1,211.16,57.75Z"/><path class="cls-1" d="M79.19,71c-1.31-1.1-2.61-2.19-4-3.24s-2.68-2-4-3C70.13,64,69.05,63.15,68,62.3c-.88-.7-1.73-1.44-2.6-2.14A15.37,15.37,0,0,1,62,57a1,1,0,0,1,.46-1.56,2.92,2.92,0,0,1,2.4.38,26.56,26.56,0,0,1,3.23,2.34A92.6,92.6,0,0,1,78,67.49a57.85,57.85,0,0,0,5.65,5.64,2.34,2.34,0,0,1,.88,1.37c-.48.18-.52-.09-1.06-.34"/><path class="cls-1" d="M203.13,19a2.62,2.62,0,0,1,1.26.26.52.52,0,0,1,.25.82,3.28,3.28,0,0,1-.87.95,38,38,0,0,1-4,2.88c-1.95,1.27-3.91,2.54-5.85,3.84-1.34.9-2.79,1.61-4.16,2.45q-3.7,2.29-7.18,4.9a7.72,7.72,0,0,0-2.13,1.86.28.28,0,0,1-.36.09c-.2-.09-.15-.26-.09-.42a1.41,1.41,0,0,1,.26-.42c1.22-1.46,2.48-2.91,3.75-4.33,2-2.24,4.09-4.44,6.3-6.48a20.64,20.64,0,0,1,5.42-3.72c1.08-.49,2.1-1.14,3.2-1.62A12.2,12.2,0,0,1,203.13,19ZM183.81,33.17A46.3,46.3,0,0,1,189,29.56c3.92-2.14,7.52-4.78,11.27-7.18.81-.52,1.56-1.14,2.32-1.74.27-.21.6-.42.63-.85-.35-.18-.67,0-1,.06A12,12,0,0,0,199,21c-1,.52-1.94,1-2.92,1.53a25.7,25.7,0,0,0-3.43,2.21c-2.06,1.48-3.7,3.42-5.7,5A19.3,19.3,0,0,0,183.81,33.17Z"/><path class="cls-1" d="M217.75,105.23a31.06,31.06,0,0,1,3.21-2.1c2.31-1.44,4.57-3,6.92-4.36,1.74-1,3.45-2.07,5.18-3.1a17.85,17.85,0,0,1,4.12-2.12,3.43,3.43,0,0,1,2.52,0,1,1,0,0,1,.5,1.69,3.72,3.72,0,0,1-1.73,1.45c-5.69,2.34-11.36,4.72-17.06,7a27.87,27.87,0,0,1-3.64,1.45Z"/><path class="cls-1" d="M219.6,143.84a4.48,4.48,0,0,1,1.94-1.36c1.21-.59,2.27-1.4,3.48-2a36.91,36.91,0,0,0,3.27-1.89c1.54-.93,3.09-1.85,4.61-2.83.47-.3,1-.58,1.44-.84a2.22,2.22,0,0,1,2.12.05.87.87,0,0,1,.29,1.48,5.09,5.09,0,0,1-2,1.39c-2.47,1-4.93,2-7.41,3-2.19.85-4.3,1.87-6.47,2.77C220.48,143.78,220.16,144.05,219.6,143.84Z"/><path class="cls-1" d="M71.06,79.45a45.42,45.42,0,0,0-6.69-2.88,14.74,14.74,0,0,0-6.23-1.14c-.39,0-1,0-1,.41s.43.66.79.9a12.35,12.35,0,0,0,2.84,1c1,.19,1.87.46,2.8.71s2,.66,3,1a54.25,54.25,0,0,1,8,3.06,1.52,1.52,0,0,0,1.28.08c-.22-.42-.59-.51-.89-.68"/><path class="cls-1" d="M114.46,23.6c.1-3,.18-5.26.27-7.55a6.54,6.54,0,0,1,.08-.89c0-.34,0-.77.51-.81a1.12,1.12,0,0,1,1.12.65,2.2,2.2,0,0,1,.08,1.08c-.22,3.32-.45,6.64-.67,10-.09,1.42-.16,2.85-.24,4.28,0,.36-.08.67-.54.69s-.59-.09-.6-.49c0-.2,0-.4,0-.6Z"/><path class="cls-1" d="M142.85,33.84c.48-.85.82-1.77,1.34-2.61a25,25,0,0,1,1.76-2.7c.21-.26.4-.53.59-.8a3.51,3.51,0,0,1,2.68-1.55c1,0,1.23.39.74,1.16a30.46,30.46,0,0,1-3.32,4.49c-1.21,1.29-2.47,2.53-3.7,3.79a1.85,1.85,0,0,1-.28.28c-.25.19-.83.22-.74,0A11.08,11.08,0,0,1,142.85,33.84Zm5.55-6.63c-.87.74-.54.2-2.44,2.58a18.69,18.69,0,0,0-1.49,2.93,36,36,0,0,0,3-3.65,5.34,5.34,0,0,0,1.13-1.83"/><path class="cls-2" d="M165.24,73.48a4.83,4.83,0,0,1,1.64-.28,1.62,1.62,0,0,0,.45.64c1.55,1.75,3.11,3.48,4.65,5.23,1.14,1.3,2.35,2.54,3.4,3.93l-.27,1.4c-.38,0-.46-.22-.6-.38-.93-1-1.85-2.07-2.77-3.11a2.44,2.44,0,0,0-.82-.71,22.24,22.24,0,0,0-2.7-3.27C167.26,75.75,166.24,74.63,165.24,73.48Z"/><path class="cls-2" d="M199.64,154.51c2.32.19,4.65.22,7,.23,1.33,0,2.67-.3,4-.29a2.48,2.48,0,0,1,0,1.37c-1.58.05-3.17-.18-4.75-.13a95.87,95.87,0,0,1-17.28-2.41,2.26,2.26,0,0,0-.89-.09,39.6,39.6,0,0,1-5.05-1.38"/><path class="cls-1" d="M85.48,55.38a1.73,1.73,0,0,1,2,.46c3,2.84,5.92,5.83,8.8,8.83l.76.78c.09.1.19.2.12.35s-.27.17-.43.17a.87.87,0,0,1-.6-.32c-1.71-1.81-3.71-3.3-5.37-5.17a24.67,24.67,0,0,0-3-2.78A26.55,26.55,0,0,1,85.48,55.38Z"/><path class="cls-1" d="M225.66,146.1a3,3,0,0,1,.93-.84,36,36,0,0,0,3.3-2,36.1,36.1,0,0,0,3.14-1.92,2.94,2.94,0,0,1,1.66-.55c.23,0,.49,0,.6.24a.73.73,0,0,1-.07.83,3,3,0,0,1-.87.64c-1.8.89-3.62,1.75-5.46,2.54-.79.34-1.55.72-2.33,1.08A.84.84,0,0,1,225.66,146.1Z"/><path class="cls-1" d="M205,47.88a.48.48,0,0,1-.41.24A62.31,62.31,0,0,0,191,52.85a2,2,0,0,1-.82.33.37.37,0,0,1-.35-.14.31.31,0,0,1,.13-.43,15.82,15.82,0,0,1,1.77-.94,79.67,79.67,0,0,1,10.92-3.79,5.66,5.66,0,0,1,2-.26A.4.4,0,0,1,205,47.88Z"/><path class="cls-1" d="M232.26,120.76a32.12,32.12,0,0,1,5.4-4.05,24.7,24.7,0,0,1,2.2-1.22,2.82,2.82,0,0,1,1.54-.32c.35.06.46.3.22.56a5.14,5.14,0,0,1-.89.79c-2,1.4-4.22,2.56-6.33,3.84A3.13,3.13,0,0,1,232.26,120.76Zm8.6-5.05c-.34-.47-5,2.38-7.11,4.38C235.62,119.18,241,116,240.86,115.71Z"/><path class="cls-2" d="M192.76,73.31a4.74,4.74,0,0,1-1.6.73c-.79.24-1.56.51-2.34.77a1.31,1.31,0,0,1-1.23,0c.28-.48.83-.47,1.26-.63A15.33,15.33,0,0,1,192.76,73.31Z"/><polygon class="cls-1" points="217.77 105.21 217.8 105.23 217.75 105.23 217.77 105.21"/><path class="cls-3" d="M205.79,88.4a22.54,22.54,0,0,1-.13,15.43,24.5,24.5,0,0,1-3.24,6.26,42.22,42.22,0,0,1-3.32,4.34l.33-1.13a5.85,5.85,0,0,0,0-4c.09-.22.18-.46.48-.21s.72.6,1.09.88c.2.16.38.39.76.22a6.7,6.7,0,0,0-1.43-1.34,3.43,3.43,0,0,1-1.42-2.3,3.22,3.22,0,0,0-.38-1.13,51.84,51.84,0,0,0-3.52-6,1.15,1.15,0,0,1-.26-1.08,7.19,7.19,0,0,0-.08-3.06c-.24-1.14-.43-2.29-.62-3.44-.14-.88,0-1,.91-1.12a7.91,7.91,0,0,1,3.21.24,9,9,0,0,0-1.48-1.61c-.26-.3-.58-.56-.81-.88s-.2-.73.35-.84a20.72,20.72,0,0,1,2.49-.2,2.3,2.3,0,0,0,1.18-.17c0-.29-.26-.26-.41-.3-1.16-.31-2.24-.85-3.37-1.23a4.5,4.5,0,0,1-1.87-1.3,21.42,21.42,0,0,0-4.22-3.49.63.63,0,0,1-.34-.71,5.64,5.64,0,0,0-.68-3.46.34.34,0,0,1,.11-.51,1.14,1.14,0,0,1,1.62,0,3.91,3.91,0,0,1,.69.72,18.2,18.2,0,0,0,2.91,2.71c.09.09.22.16.4,0-.58-1-1.87-1.38-2.44-2.52a26.73,26.73,0,0,1,9.41,3.59,5.77,5.77,0,0,1,2.86,4.25c.38,2.49.72,5,.9,7.52a24.4,24.4,0,0,0,.11-4h.17Z"/><path class="cls-3" d="M209.44,152.74a20.65,20.65,0,0,0-2.69-4.85,73.08,73.08,0,0,0-6.23-7.9,31.28,31.28,0,0,0-5.31-5.1c-2.49-1.84-4.77-3.95-7.2-5.87a160.33,160.33,0,0,0-33.19-20.61c-3.13-1.42-6.24-2.86-9.41-4.16a85.68,85.68,0,0,0-9.77-3.18,57.85,57.85,0,0,0-9.57-2c-2.2-.21-4.4-.19-6.59-.23-1.62,0-2-.16-1.57,1.93a1.33,1.33,0,0,0,0,.19c1.14-.17,2.27-.36,3.42-.49a6.16,6.16,0,0,1,1.28.08,27.88,27.88,0,0,1,3.63.44,17.5,17.5,0,0,1,2.18.23,50.22,50.22,0,0,1,7.18,2.06,9.25,9.25,0,0,1,2.07.66c1.87.74,3.73,1.51,5.59,2.27a5.21,5.21,0,0,1,.52.28c.31.11.63.21.94.34,4.18,1.74,8.24,3.76,12.25,5.87a228.14,228.14,0,0,1,36.63,23.86,83,83,0,0,1,12.64,11.92C208.38,151.09,209.44,152.74,209.44,152.74Z"/><path class="cls-2" d="M135.65,103.31a9.25,9.25,0,0,1,2.07.66c1.87.74,3.73,1.51,5.59,2.27a5.21,5.21,0,0,1,.52.28q2.71,8.48,5.44,16.94l5.1,15.79a1.35,1.35,0,0,1,.15.82c-.24.06-.41-.11-.6-.21-2-1.16-4-2.33-6-3.56a2.53,2.53,0,0,1-1.09-1.36q-4.28-11.94-8.58-23.89c-.78-2.16-1.56-4.33-2.33-6.49A2.36,2.36,0,0,1,135.65,103.31Z"/><path class="cls-2" d="M118,101c1.14-.17,2.27-.36,3.42-.49a6.16,6.16,0,0,1,1.28.08,27.88,27.88,0,0,1,3.63.44l6.79,16.62,4.2,10.24c.12.31.22.63.32.94l-.32-.09a11.84,11.84,0,0,0-2-1.64,4.68,4.68,0,0,0-1.32-1.15c-1.05-1.11-2.19-2.15-3.34-3.16a2.29,2.29,0,0,0-.85-.87c-1-1.18-2.08-2.33-3.09-3.53a44.56,44.56,0,0,1-7-11,25,25,0,0,1-1.56-4.83A4.23,4.23,0,0,1,118,101Z"/><path class="cls-3" d="M187.13,113.5c0-.33.26-.52.41-.76a45.42,45.42,0,0,0,2.86-5.27c.07-.15.13-.3.2-.46a.27.27,0,0,0-.12-.34.33.33,0,0,0-.38,0,1.56,1.56,0,0,0-.33.35,10.74,10.74,0,0,0-.75,1.06,53,53,0,0,1-5.89,7.68c-1.39,1.59-3.14,2.79-4.6,4.29a.42.42,0,0,1-.62,0c-.88-.64-1.85-1.16-2.75-1.93a38.6,38.6,0,0,0,3.56-3.69c2.41-2.77,4.43-5.83,6.55-8.81a21,21,0,0,0,3.14-6.1,1.46,1.46,0,0,1,1.36-1.13,6.77,6.77,0,0,1,2.87,0,3.11,3.11,0,0,1,1.73,1.26c1.28,1.91,2.34,4,3.45,6a2,2,0,0,1-.15,2.31c-.41.57-.82,1.12-1.26,1.67a3.86,3.86,0,0,1-3.18,1.37c-.78,0-.87-.13-.59-.86a16.34,16.34,0,0,0,.64-6.41.28.28,0,0,0-.22-.29c-.29,0-.22.26-.26.44a20.64,20.64,0,0,1-1.56,5.65,11,11,0,0,1-3.42,3.84c-.21.15-.37.36-.6.5Z"/><path class="cls-3" d="M154,98.71c2.36.09,4.71.18,7.07.24a2.6,2.6,0,0,0,1.54-.35,2.48,2.48,0,0,1,1.91-.29c.69.13,1.37.28,2.06.42a2.43,2.43,0,0,0,1.21.07c-.16-.41-.63-.29-.82-.64.27-.26.61-.16.9-.14,1.66.08,3.32.2,5,.27a2.17,2.17,0,0,1,2.16,1.42c.06.15.12.32.3.38a.66.66,0,0,0,.25.72h0a3.1,3.1,0,0,0,.16,1,4.05,4.05,0,0,1-.21,2.57c-2.62-.22-5.14-1-7.71-1.44l-.19-.23c-.57-.82-.41-1.33.54-1.65l1.13-.35a11.16,11.16,0,0,0-2.2,0c-2,.25-3.95.87-6,.13a.37.37,0,0,0,.27.38l1.65.69c.21.09.49.14.48.44s-.26.43-.52.53a3.26,3.26,0,0,1-1.58.11l-3-.44a30,30,0,0,0-5.76-.45c-.24,0-.51,0-.72.31a42.57,42.57,0,0,1,6.84,1.6l-.23.38a49,49,0,0,0-5.55-.43,21.09,21.09,0,0,0-3.18,0,7.28,7.28,0,0,1-3.4-.54c-1.82-.63-3.62-1.31-5.46-1.89a2.44,2.44,0,0,1-.34-.21,30.38,30.38,0,0,1,6.42-2A39.47,39.47,0,0,1,154,98.71Z"/><path class="cls-3" d="M177.14,75.94a19.92,19.92,0,0,1-7.51-2.58l-.34-.2c-1.21-.67-1.21-.67-1-2,0-.1,0-.2.05-.3.3-1.43.3-1.44,1.66-1l6.6,2a6.73,6.73,0,0,1,2,1,17.46,17.46,0,0,0,2.87,1.7c.31-.22-.15-.36.08-.58a4.08,4.08,0,0,1,1.37.38l4.57,1.75a1.47,1.47,0,0,1,.82.82,4.66,4.66,0,0,1,.47,2.32,1.75,1.75,0,0,0-.27,1v0a5.88,5.88,0,0,1-3.14-.23,48.35,48.35,0,0,1-5-2.14c-.3-.17-.82-.17-.8-.62s.43-.64.8-.81a9.25,9.25,0,0,1,.93-.32c.17-.06.42,0,.39-.41a9,9,0,0,1-1.64,0c-.6,0-1.2,0-1.79-.13s-1-.52-1.72-.4C176.88,75.45,177.2,75.59,177.14,75.94Z"/><path class="cls-3" d="M215.18,129c-1.16-2-2.22-4-3.32-6a2.72,2.72,0,0,0-.44-.66c-1.46-1.5-2.91-3-4.36-4.51a1.56,1.56,0,0,0-.25-.17,30.22,30.22,0,0,0-3-3.17,12.94,12.94,0,0,0-1.27-1.4c-.13-.15-.27-.29-.39-.45s-.05-.38.08-.54.35-.07.5.07l.49.5c2.72,2.83,5.45,5.65,8.16,8.5a11.44,11.44,0,0,0,2.21,1.84,58.78,58.78,0,0,1,9.39,7.54,16.47,16.47,0,0,1,1.85,2.23.59.59,0,0,1-.15.91l-1.16.71a8.64,8.64,0,0,1-2.82.83,2.45,2.45,0,0,1-2.35-1,10.38,10.38,0,0,1-1-1.49"/><path class="cls-3" d="M175.09,98.52a.9.9,0,0,1,.73-.08c2.2.75,4.55,1,6.72,1.82,1.17.46,2.39.77,3.55,1.28.43.2.43.37.25.75A12.14,12.14,0,0,1,185,104.6a1.32,1.32,0,0,1-.78.57,8.85,8.85,0,0,1-4.92-.29,4.53,4.53,0,0,1-2.52-2.81A14,14,0,0,0,175.09,98.52Z"/><path class="cls-2" d="M199.47,109.26a5.85,5.85,0,0,1,0,4l-.33,1.13a1.76,1.76,0,0,1-.52,1,11,11,0,0,1-2.69,2.36,2.87,2.87,0,0,1-1.2.45A9.49,9.49,0,0,1,188,117c-.44-.29-.9-.55-1.43-.86a11.93,11.93,0,0,1,2.18-1.47c.21-.12.46,0,.68,0a7.53,7.53,0,0,0,3.17-.06,6.48,6.48,0,0,1,1-.17,5.91,5.91,0,0,0,4.86-3.21C198.79,110.64,199.12,109.94,199.47,109.26Z"/><path class="cls-2" d="M177.14,75.94c.06-.35-.26-.49-.55-.78.75-.12,1.19.33,1.72.4s1.19.1,1.79.13a9,9,0,0,0,1.64,0c0,.39-.22.35-.39.41a9.25,9.25,0,0,0-.93.32c-.37.17-.79.39-.8.81s.5.45.8.62a48.35,48.35,0,0,0,5,2.14,5.88,5.88,0,0,0,3.14.23c0,.73-.54,1.18-.94,1.7s-.5.75.23,1.2c.26.16.6.25.7.72a8.42,8.42,0,0,1-2.15-.87c-.05-.16-.11-.34-.3-.36a32.55,32.55,0,0,1-3.5-1c-1.45-.65-2.56-1.83-3.95-2.56a9.5,9.5,0,0,0-2.26-1.46c.58-.42,1.37-.46,1.94-1C178,76.2,177.45,76.29,177.14,75.94Z"/><path class="cls-2" d="M158.83,104a42.57,42.57,0,0,0-6.84-1.6c.21-.35.48-.3.72-.31a30,30,0,0,1,5.76.45l3,.44a3.26,3.26,0,0,0,1.58-.11c.26-.1.51-.23.52-.53s-.27-.35-.48-.44l-1.65-.69a.37.37,0,0,1-.27-.38c2,.74,4,.12,6-.13a11.16,11.16,0,0,1,2.2,0l-1.13.35c-.95.32-1.11.83-.54,1.65l.19.23a32.57,32.57,0,0,1-6.3,1.62c-.36,0-.72,0-1.08,0,0-.11.17-.26-.06-.3C159.87,104.15,159.35,104.07,158.83,104Z"/><path class="cls-3" d="M175.38,83c-1-1.39-2.26-2.63-3.4-3.93-1.54-1.75-3.1-3.48-4.65-5.23a1.62,1.62,0,0,1-.45-.64,4.92,4.92,0,0,1,2.71,1.92c3.14,3.66,6.36,7.26,9.55,10.87l9.06,10.25c.41.47.8,1,1.2,1.45-.37.39-.67.35-1,0l-1.39-1.58L176.14,83.78C175.9,83.5,175.63,83.26,175.38,83Z"/><path class="cls-2" d="M175.53,104.32a4.05,4.05,0,0,0,.21-2.57,3.1,3.1,0,0,1-.16-1,2.27,2.27,0,0,1,.65,1.6c.12,1.29.35,2.57.38,3.87a2.91,2.91,0,0,0,1.37,2.51c.69.46,1.37.94,2,1.42.23.16.56.33.31.71s-.39.73-.92.53c-.15-.07-.32-.11-.46-.18l-5.08-2.53a2.4,2.4,0,0,1-.3-.22,3.78,3.78,0,0,0,1.78-3C175.42,105.11,175.47,104.71,175.53,104.32Z"/><path class="cls-3" d="M165.85,72.17a1.9,1.9,0,0,1-2.21-.9c-.17-.25-.3-.52-.46-.77s-.2-.29-.26-.27c-.83.25-.58-.46-.66-.79a5.45,5.45,0,0,0-.16-1,1.21,1.21,0,0,1,0-1,1.93,1.93,0,0,0,0-1.09c0-.39,0-.61.45-.74.88-.31.86-.32,1.47.41a16.1,16.1,0,0,0,2,2.2c.17.13.21.21.09.47C165.3,70.38,165.31,70.46,165.85,72.17Z"/><path class="cls-3" d="M190.38,75.08a12.64,12.64,0,0,1,2-1,1.15,1.15,0,0,1,1.6.53,8,8,0,0,1,1.23,2.14A9.72,9.72,0,0,1,190.38,75.08Z"/><path class="cls-3" d="M207.19,89.61c.65,1,1.32,2,1.94,3,.43.7.79,1.46,1.18,2.18a1,1,0,0,1-.09,1.27A9.06,9.06,0,0,1,207.19,89.61Z"/><path class="cls-2" d="M154,98.71a39.47,39.47,0,0,0-6.95.62l.58-.88a29.72,29.72,0,0,1,6.79-.37Z"/><path class="cls-2" d="M203.78,114.45a30.22,30.22,0,0,1,3,3.17c-.1.38-.25,1-.34,1.35l-.53-.54c-.56-.56-1.78-2-2.39-2.45Z"/><path class="cls-2" d="M207.34,102.83a3.35,3.35,0,0,1,.88-2.44,22.26,22.26,0,0,0,3.15-4.91,2.64,2.64,0,0,1-.38,1.71,24.59,24.59,0,0,1-3.61,5.36c0,.06,0,.18-.06.28Z"/><path class="cls-3" d="M167.6,72.36c-.55-.11-1.06-.12-1.26-.65-.09-.24-.54-.55.08-.73.21-.06,0-.16,0-.17-.56-.15-.37-.52-.26-.87l0-.09c.38-1.18.76-1.29,1.76-.51a.48.48,0,0,1,.19.52C168,70.67,167.79,71.48,167.6,72.36Z"/><path class="cls-4" d="M158.83,104c.52.08,1,.16,1.55.26.23,0,.08.19.06.3a7.56,7.56,0,0,1-1.84-.18Z"/><path class="cls-4" d="M205.79,88.4h-.17a1.94,1.94,0,0,1-.12-1C205.61,87.7,205.89,88,205.79,88.4Z"/><path class="cls-4" d="M187.13,113.5l.09.38a.48.48,0,0,1-.5.33A1.19,1.19,0,0,1,187.13,113.5Z"/><path class="cls-2" d="M188.58,80.2a1.75,1.75,0,0,1,.27-1C189.09,79.63,188.77,79.9,188.58,80.2Z"/><path class="cls-2" d="M175.6,100.81a.66.66,0,0,1-.25-.72A1,1,0,0,1,175.6,100.81Z"/></svg>