<svg id="frames" xmlns="http://www.w3.org/2000/svg" viewBox="0 0 384 216"><defs><style>.cls-1{fill:#131f36;}.cls-2{fill:#fc0404;}.cls-3{fill:#b1b3b2;}.cls-4{fill:#f9f9fa;}.cls-5{fill:#d6d7d0;}.cls-6{fill:#d0d2cc;}</style></defs><path class="cls-1" d="M190.4,69.15l.2,0c.35.11.7.21,1.05.33a1.92,1.92,0,0,1,1.28,1.41,13,13,0,0,1,.48,2,2.45,2.45,0,0,0,.63,1.43c.63.69,1.19,1.45,1.86,2.08a47.15,47.15,0,0,1,4.42,5.26,17.4,17.4,0,0,0,3.59,3.58,5.15,5.15,0,0,1,2,2.73c.11.34.2.63-.07.92-.38-.08-.49.28-.67.47a75.73,75.73,0,0,1-5.5,5.69.41.41,0,0,0-.16.43A3.45,3.45,0,0,0,198,98.05a21.66,21.66,0,0,1-3.05,6.33,12.25,12.25,0,0,1-1.15,1.25c-.72.82-.76,1-.15,1.89,2.23,3.23,4.39,6.51,6.68,9.71,1.11,1.56,2.24,3.1,3.49,4.54A6.47,6.47,0,0,0,208.2,124a3.52,3.52,0,0,0,.42.09l.58.11a2.35,2.35,0,0,0,.42.1l1.38.29c.19,0,.25.06.42.09a13,13,0,0,0,3.81.67,21.86,21.86,0,0,1,6,1.28,35,35,0,0,1,7.57,3.58.57.57,0,0,0,.61.38l4,2.2,0,.19a3.4,3.4,0,0,1-1.4-.26c-1.34-.67-2.66-1.39-4-2.1a69.54,69.54,0,0,0-7-3.07,13.77,13.77,0,0,0-5.66-.79,12.08,12.08,0,0,1-3.64-.5c-1-.29-2.09-.45-3.09-.75a9.25,9.25,0,0,1-2.55-.82,30.35,30.35,0,0,0-3.22-1.27,18.56,18.56,0,0,1-1.73-1.06c-.94-.55-1.59-1.5-2.68-1.8a1.7,1.7,0,0,1-.5-.32c-1.67-1.15-3.54-2-5.21-3.14-.84-.56-1.76-1-2.62-1.48a38.43,38.43,0,0,0-3.52-1.75c-.24-.11-.5-.18-.58-.51a1.1,1.1,0,0,1,1,0,26.91,26.91,0,0,1,3.94,1.89c1.84,1,3.62,2.07,5.44,3.08.43.24.82.48,1.29.7.25.06.38.18.76.27l-.5-.69c-.88-1.3-1.77-2.59-2.64-3.9-1-1.5-2-3-3-4.53a.39.39,0,0,0-.23-.44l-1-1.51c.09-.19.41-.26.3-.6-.46-.1-.81.2-1.19.37a12,12,0,0,1-4.46,1.4,8.6,8.6,0,0,1-7.18-3,5.27,5.27,0,0,1-1.45-4.29,1.49,1.49,0,0,0-.08-1c-.14.72-.26,1.31-.39,1.89-.29,1.37-.65,2.73-.87,4.1a33.27,33.27,0,0,0-.15,6l.05.28a28.75,28.75,0,0,0-.51,4.8,1.53,1.53,0,0,0-.06,1,2.11,2.11,0,0,0,.27,1.71c.89,1.8,2,3.47,3,5.19a50.54,50.54,0,0,1,2.71,5.28c.81,1.87,1.63,3.74,2.4,5.62a58.92,58.92,0,0,1,1.74,5.8c-7.2,1.62-13.79,2.16-25-.94-1.47-.4-2.87-1.05-4.3-1.58a17.71,17.71,0,0,1-2.45-1.26c0-.11,0-.24-.2-.23v0c.14-.43-.11-.78-.24-1.15L137.93,95c-.6-1.69-1.28-3.36-1.76-5.09a15.54,15.54,0,0,1,2.6,1.25,101.91,101.91,0,0,1,24.55,19.68,85.58,85.58,0,0,1,12.85,17.52A47.83,47.83,0,0,1,181,140.86c.35,1.63-.06,1.46,1.74,1.32,1.31-.1,1.26-.1.92-1.4a53,53,0,0,0-3.78-9.65,82.81,82.81,0,0,0-11-16.84,95.71,95.71,0,0,0-30-24.29,62.9,62.9,0,0,0-8.54-3.63c-.82-.28-1.68-.35-2.48-.61s-1.67-.6-2.52-.84a17.19,17.19,0,0,0-2.66-.45,17.34,17.34,0,0,0-4.41-.64,3.42,3.42,0,0,0-1-.06l-.36-.34a40.73,40.73,0,0,1,11.61,1.65c2,.55,4,1.31,6,1.92,0,0,2.26.93,3.33,1.43L140.6,88c1.44-.22,2.89-.4,4.35-.5a24.86,24.86,0,0,1,8.94,1.17c1.55.47,3.06,1.08,4.65,1.43a4,4,0,0,0,1.09.14,45.06,45.06,0,0,1,7.16.19c.26.14.48.22.43-.23-.37-2,1.15-2.8,2.4-3.69a3.15,3.15,0,0,1,3.3-.18,38.88,38.88,0,0,1,3.81,1.93c.37.23.75.43,1.12.64a3.64,3.64,0,0,0,1.05.68c.09.07.19.21.31,0s0-.23-.11-.32a4,4,0,0,0-.88-1.17c-.67-1.17-1.54-2.19-2.29-3.3l-.7-1.07a6.7,6.7,0,0,1,1.22.63c.27.13.53.29.82.07,2,2.67,3.9,5.41,5.81,8.18.51-.58,0-.92-.2-1.27q-4.59-6.42-9-13a2.07,2.07,0,0,0-1.68-1.07,7.15,7.15,0,0,0-2.09-.79c-.8-.45-1.6-.88-2.4-1.34a3.49,3.49,0,0,1-1-.87c.32-.2.77.16,1,.25a22.1,22.1,0,0,0,4.08,1.08,5.74,5.74,0,0,0,3.23.18c-1-.72-2.32-.68-3.09-1.77a2.14,2.14,0,0,1,1.17.25,11.33,11.33,0,0,0,2.22.58c.25,0,.54.15.72-.15A14.68,14.68,0,0,1,177.72,73a3.63,3.63,0,0,0-1.53-.59c-1.08-.2-2.13-.52-3.19-.78a1.53,1.53,0,0,1-1.08-.78,8.7,8.7,0,0,0-1.86-2.2,21.16,21.16,0,0,1-3.1-3.38,3.67,3.67,0,0,0-.5-.62,1.24,1.24,0,0,0-1.64,0c-.69.46-.8.71-.54,1.38.51,1.34,1,2.67,1.56,4-.19.68.11,1.4-.15,2.11-.44-.34-.43-1-.9-1.2h0a2.43,2.43,0,0,0-.61-1.42v0c0-.17,0-.34-.21-.42v0a1.4,1.4,0,0,0-.41-1v0c0-.18,0-.35-.21-.42v0a1.27,1.27,0,0,0-.41-1v0c0-.18,0-.34-.21-.42v0c0-.18,0-.34-.2-.42v0a.47.47,0,0,0-.23-.47c-.29-.52-.32-1.24-1.19-1.26-.26,0-.1-.57-.42-.72a.47.47,0,0,0-.34-.13,2,2,0,0,1-.47-.06c-.21-.1-.09-.39-.2-.57a3.71,3.71,0,0,0-.38-1.22,1.5,1.5,0,0,1-.16-.38.66.66,0,0,1,.36-.74,18.7,18.7,0,0,1,3.07-1.53,2.17,2.17,0,0,1,1.54.11,2.23,2.23,0,0,1,1.57,1.76c.11.46.56.85.21,1.37.49.75.43,1.7,1,2.42a60.28,60.28,0,0,0,4.08,4.52,4.71,4.71,0,0,1,.68.73,4.61,4.61,0,0,0,3.61,2,20.42,20.42,0,0,1,5.4,1.32,2,2,0,0,0,.76.21c1.23,0,1.46-.18,1.74-1.49a5,5,0,0,1,1.8-1.65c.2-.12.38-.26.57-.4l.35-.15A10.28,10.28,0,0,1,190.4,69.15Zm-1.74,30-.25-.27a1.53,1.53,0,0,0-.95-.77c.29.4.33,1,.91,1.16l0,0c.09.12.13.36.34.22S188.77,99.25,188.66,99.15Zm.77.83a3.37,3.37,0,0,0-.21-.31c-.12-.14-.29-.34-.47-.2s-.06.39.11.55l.3.24c.09,0,.17.15.3,0S189.45,100.08,189.43,100Zm-28.34-4.73.49.08a16.94,16.94,0,0,0,3.55.55,1.05,1.05,0,0,0,1.09-.66,12.14,12.14,0,0,0,1.12-3.3c.11-.72.12-.73-.58-.82a34.76,34.76,0,0,0-4.89-.17c-.16,0-.4-.05-.46.11-.18.53-.52.25-.78.16a13.15,13.15,0,0,0-5.2-.76,1.76,1.76,0,0,1-1.08-.16c.38-.56,1.07-.06,1.46-.57-1.85-.48-3.64-.81-5.43-1.19a16.86,16.86,0,0,0-4.37-.26l-3,.17a12.74,12.74,0,0,0-3.43.92,27.08,27.08,0,0,0,4.49,2.13,45.78,45.78,0,0,1,5.33,1.69A13.63,13.63,0,0,0,155.72,95a6.88,6.88,0,0,1,2.15.41,11.87,11.87,0,0,0,2.44.42C160.86,95.94,161,95.67,161.09,95.25ZM163.36,99a2.79,2.79,0,0,0-1.71-.88c-1.93-.58-4-.88-5.72-1.92a3.2,3.2,0,0,0-1.83-.37,8.78,8.78,0,0,1-2.93-.43c-.38-.12-.78-.18-1.16-.26-.2-.18-.46-.15-.73-.21a1.25,1.25,0,0,0,.71.49l2.66,1.94a97.53,97.53,0,0,1,16,14.89c.25.28.44.64.85.79a2.14,2.14,0,0,0,.21-1,54.65,54.65,0,0,0-.47-8.86.93.93,0,0,0-.39-.66c.44-.52,0-1,0-1.57s-.24-.62-.62-.8c-.91-.44-1.78-.95-2.71-1.45.6-1.08,1.43-2,1.48-3.23-.69.53-1,1.38-1.56,2A12,12,0,0,1,163.36,99ZM186.2,85.4l-.1-.11s0,.09,0,.12.09,0,.12,0c-.3.31,0,.55.11.78,1.09,2.79,2.34,5.52,3.55,8.26a1.87,1.87,0,0,1,.34,1.25c-.88-.56-.93-1.72-1.89-2.26a10.54,10.54,0,0,1-.72,3.3c-.15.36.06.55.28.77.67.7,1.34,1.39,2,2.1.38.41.74.85,1.1,1.29.1.12.23.27,0,.42a.31.31,0,0,1-.44-.07,5.73,5.73,0,0,0-.39-.45c-.18-.17-.33-.55-.62-.32s0,.48.17.67a12.56,12.56,0,0,1,2.22,4.1c.05.2,0,.49.3.58a14,14,0,0,0,4.51-6.57c.72-2.29,1.24-4.64,1.8-7a23.79,23.79,0,0,0,.56-5.64,11.08,11.08,0,0,0-1.67-5.55,46.92,46.92,0,0,1,.39,5.79,11.15,11.15,0,0,1-.63-3,13.37,13.37,0,0,0-2.38-6.48A9.12,9.12,0,0,1,194,76a4,4,0,0,0-3.4-2.32,23.25,23.25,0,0,0-8.15.18,4.64,4.64,0,0,1-3.22-.25.89.89,0,0,0-1.2.3,5.64,5.64,0,0,0-1.18,2.93,1.07,1.07,0,0,0,.65,1.28c1.37.7,2.79,1.27,4.2,1.86a30.21,30.21,0,0,1,6.73,3.47c.28.21.63.35.82.76-.85,0-1.61-.4-2.48-.12a22,22,0,0,1,1.49,2.64C187.34,86.37,186.92,85.64,186.2,85.4ZM172,116.17l.19-.45a15.38,15.38,0,0,0,.72-4.31c.14-1.86.23-3.73.2-5.59,0-1.39-.08-2.79,0-4.19a5.61,5.61,0,0,1,.06-.59.39.39,0,0,1,.41-.36.41.41,0,0,1,.41.36c0,.27.05.53.08.8.19,1.71.1,3.45.42,5.23a1.71,1.71,0,0,0,.17-.31c.47-2.29,1.22-4.5,1.82-6.75a5.9,5.9,0,0,0-.89-5.13c-.87-1.23-1.79-2.41-2.73-3.57-.27-.33-.93-.66-.58-1.11s.87,0,1.27.22a29.05,29.05,0,0,1,4.87,2.73,17.73,17.73,0,0,0,1.79,1c.58-1.61.38-2.58-.84-3.56a27.48,27.48,0,0,0-7.5-4.09.92.92,0,0,0-.78,0,9.89,9.89,0,0,0-2.85,2,.73.73,0,0,0-.24.8c.22.73.36,1.5.64,2.2s0,1.56.25,2.33a19,19,0,0,1,.72,4c.12,2.6.37,5.18.55,7.77a39.08,39.08,0,0,1,.12,7.57,1.15,1.15,0,0,0,.15.77A10.3,10.3,0,0,0,172,116.17Zm2.52-37.95c3.16,4.35,6.15,8.64,9.16,13a3.2,3.2,0,0,0,.54-1.93,9.41,9.41,0,0,0-.29-1.67,15.75,15.75,0,0,1-.69-4.61,1.41,1.41,0,0,0-1-1.61c-.34-.12-.67-.29-1-.38a13.15,13.15,0,0,1-2.83-1.22c-.67-.37-1.33-.76-2-1.11A3.84,3.84,0,0,0,174.48,78.22Zm18.08-4.71c-.26-.89-.48-1.69-.74-2.48a1.82,1.82,0,0,0-1.63-1.4,8.18,8.18,0,0,0-4.68,1.1.75.75,0,0,0-.44.81,1.37,1.37,0,0,0,1.37,1.27A29.47,29.47,0,0,1,192.56,73.51Zm-3.15,29.56c-.54-2.45-5.59-9-7.9-10.22a7.66,7.66,0,0,1-.26,1.67.82.82,0,0,0,.31,1,17.19,17.19,0,0,1,1.74,1.78c1.76,2.16,4,3.82,5.94,5.77C189.27,103.07,189.35,103.06,189.41,103.07Zm15.7-15.27a11.75,11.75,0,0,0-2.15-2,13.72,13.72,0,0,1-2.4-2.23l-1.25-1.43a.47.47,0,0,0,0,.43,10.09,10.09,0,0,1,.68,4.1,1.27,1.27,0,0,0,.71,1.28,6.82,6.82,0,0,1,1.75,1.18c-.32.44-1,.68-.73,1.49Zm-3.82,32.32c-2.69-4.52-5.6-8.88-8.47-13.28-1,.57-1,.66-.56,1.23L200,119.2A2.12,2.12,0,0,0,201.29,120.12ZM165.21,61.59a10,10,0,0,1-.62-1.7s-.05,0-.08-.06c-.74-.31-1.45-.79-2.27-.18a9.51,9.51,0,0,1-1,.65.37.37,0,0,0-.12.64c.4.48.82,1,1.23,1.44a.39.39,0,0,0,.52.13,2.63,2.63,0,0,1,1.53-.3C164.83,62.22,165,61.91,165.21,61.59Zm.7,2.51a4.43,4.43,0,0,0-.77-1.21,1.34,1.34,0,0,0-1.34-.42c-.42.23.23.6-.12.87-.33.07-.33-.46-.73-.44a6.51,6.51,0,0,0,.92,2A3.37,3.37,0,0,1,165.91,64.1Zm31.36,16.6,0,0v-.06Z"/><path class="cls-1" d="M136.83,133.3a39.46,39.46,0,0,1,5-1.34c.14-.36-.14-.44-.3-.58-1.7-1.43-3.36-2.91-4.94-4.48-.28-.28-.53-.58-.8-.88,0-.17,0-.37-.25-.42v0c.11-.37-.13-.64-.26-.94Q129.53,111,123.7,97.32c-1.84-4.35-3.76-8.67-5.5-13.06l.19-.06,4.21.6c.32.08.63.17,1,.24a19.71,19.71,0,0,1,3.9,1.18c.14.4.28.82.43,1.22q9.19,23.32,18.37,46.65a2.37,2.37,0,0,1,.34,1.13c-.31.09-.49-.16-.68-.31-.66-.51-1.3-1-1.93-1.57a1,1,0,0,0-.9-.21,10.92,10.92,0,0,0-3.5,1.69A14.71,14.71,0,0,1,136.83,133.3Z"/><path class="cls-1" d="M132.53,134.36s-3.53,1.37-4.69,1.86a161.54,161.54,0,0,0-22.3,12.1,3.77,3.77,0,0,1-2.34.66h-.4c-.74-.25-1-.72-.57-1.26,0,0,3.15-6.16,10.63-13.72a44.1,44.1,0,0,0,4-4.44.92.92,0,0,1,.31-.24c.24-.64.14-.85-.34-1.22s-.67.07-1,.11c0,.12-.11.16-.21.19-.07.33-.36.44-.6.6-1.21,1.12-2.41,2.24-3.68,3.29l0,0c-5.15,5.21-13.57,16.8-16.77,25.86,0,0,0,1.5.63,2,1.26,1,2.7.2,4.27-.61,3-1.49,4.32-2.42,8.38-4.54a77.36,77.36,0,0,1,11.54-5.14c2.22-.77,8.54-4,8.54-4,2.58-.95,5.09-2.08,7.7-3,2.36-.79,4.74-1.52,7-2.44a2.74,2.74,0,0,0,.33-.19c-.37-.45-1-.4-1.36-.74l-2.49.47c-.2.24-.47.14-.73.21-7.06,2-15.38,4.92-15.38,4.92a15.78,15.78,0,0,1-4.39,1.32c-.34,0-.68,0-.75-.42s.22-.78.62-1a21.22,21.22,0,0,1,2.57-1.59c2-1,4-2.2,5.52-3l2.19-1.19a13.8,13.8,0,0,1,1.81-.76c1.81-.79,3.64-1.52,5.46-2.28a23.54,23.54,0,0,0-3.5-2"/><path class="cls-2" d="M136,136.32a23.54,23.54,0,0,0-3.5-2A.62.62,0,0,0,132,134c-1-.73-2.27-1.1-3.19-2-.22-.22-.59-.27-.87-.44-.57-.37-1.1-.82-1.65-1.23-2-1.47-4.06-2.87-6.1-4.29a4.88,4.88,0,0,0-1-.69,2.82,2.82,0,0,0-1.14-.89c-.76-.47-1.26-1.22-2-1.67a4.64,4.64,0,0,1-1.28-1.15c-.29-.48-.46-.64-.26-1.17a2.31,2.31,0,0,1,3,.07,16.89,16.89,0,0,0,2.49,1.79,8.19,8.19,0,0,0,1.64,1.15.85.85,0,0,0,.55.37c3.78,2.67,7.57,5.32,11.55,7.68a31,31,0,0,0,3.13,1.76,14.71,14.71,0,0,0,2.75,1.52,3.84,3.84,0,0,0,.91.59c2.23,1.26,4.51,2.4,6.83,3.47s4.64,2.26,7,3.25c2.72,1.42,5.54,2.61,8.36,3.8a145.29,145.29,0,0,0,27.71,8.27c4.27.85,8.57,1.6,12.89,2.22.28.05.6,0,.82.28-.27.41-.65.28-1,.24-5.59-.71-11.14-1.58-16.66-2.69a4,4,0,0,0-.5-.05.32.32,0,0,0-.36-.07c-2.86-.61-5.72-1.21-8.58-1.85-1.85-.41-3.67-1-5.53-1.32-1.18-.23-2.27-.87-3.51-.83-1.54-.77-3.34-.77-4.83-1.67a8.7,8.7,0,0,0-1.61-.44,42.14,42.14,0,0,1-4.15-1.65c-1-.53-2.26-.76-3.27-1.32s-2.32-.72-3.26-1.55a1.55,1.55,0,0,0-.82-.34.89.89,0,0,1-.38-.08c-.94-.81-2.22-.9-3.24-1.6a15.13,15.13,0,0,0-2.59-1.16,10.93,10.93,0,0,0-2.22-1.1,1,1,0,0,0-.57-.27,9,9,0,0,0-1.83-.94,17.28,17.28,0,0,0-3-1.53Z"/><path class="cls-2" d="M127.76,116.87l0,0a66,66,0,0,0,5.17,6.12c.72.78,1.43,1.57,2.16,2.33a4.88,4.88,0,0,0,.78.73,3.74,3.74,0,0,0-.5-1.34Q129.53,111,123.7,97.32c-1.84-4.35-3.76-8.67-5.5-13.06V84.2h0l-.75,0c-.23,0-.31-.17-.26-.4l-.36-.34c-.29,0-.42.21-.58.38a.37.37,0,0,1-.07.36,24.72,24.72,0,0,0,0,4.06,23.93,23.93,0,0,0,.88,5.76c.39,1.6,1.24,4.79,1.78,6.35.67,1.92,1.52,3.76,2.38,5.61,0,0,1,2.36,1.8,3.76a44.94,44.94,0,0,0,3.45,5.51l1.29,1.65"/><path class="cls-1" d="M198.46,44.79a1.89,1.89,0,0,1,1-.56,87.9,87.9,0,0,1,10.83-2.82c3-.64,6-1.13,8.9-1.84,4-1,8-1.44,11.91-2.58a25.32,25.32,0,0,0,5.32-2,8.46,8.46,0,0,0,4.43-5.86,3.33,3.33,0,0,0-2.45-4.28,14.31,14.31,0,0,0-6.91-.4,93.11,93.11,0,0,0-27.41,8.76,6,6,0,0,1-2.25.76,2.4,2.4,0,0,0-.83.31,118.41,118.41,0,0,0-10.62,5.78c-.27.17-.63.57-.85.24s.3-.51.54-.66c2.27-1.47,4.55-2.9,6.9-4.23s4.72-2.38,7.13-3.47c1.86-.84,3.69-1.75,5.54-2.61,1.54-.72,3.13-1.34,4.68-2a64.57,64.57,0,0,1,14.82-4.51,27.59,27.59,0,0,1,7.25-.58,17.45,17.45,0,0,1,6.25,1.57,4.24,4.24,0,0,1,2.44,5.2,9.93,9.93,0,0,1-4.72,6.27,26.2,26.2,0,0,1-9.15,3.15c-5.66,1.08-11.37,1.9-17,3-4.44.88-8.9,1.72-13.25,3-.51.15-1,.33-1.51.49A1,1,0,0,1,198.46,44.79Z"/><path class="cls-1" d="M98.38,88.51a7.91,7.91,0,0,1-1.87-1.32c-6.92-6-14-11.82-20.83-17.89C73.83,67.67,72,66,70.1,64.45a22.59,22.59,0,0,1-3.62-4.07A4.37,4.37,0,0,1,65.93,59l0-.64a1.4,1.4,0,0,1,.68-.47h1a26.5,26.5,0,0,1,4.67,3.57c1.44,1.24,2.76,2.61,4.22,3.82A55.7,55.7,0,0,1,82,70.67c1.45,1.57,2.89,3.14,4.41,4.62,3.8,3.69,7.41,7.57,11.16,11.3.45.45.88.92,1.32,1.37.22.22.18.4-.07.56Z"/><path class="cls-1" d="M203.62,60.62a42.32,42.32,0,0,1,5.22-2.54,135.62,135.62,0,0,1,14.79-5.78A23,23,0,0,1,229.76,51a6.71,6.71,0,0,1,2.44.34c.28.1.6.21.63.57s-.24.44-.45.6a12.75,12.75,0,0,1-2.79,1.45,61.51,61.51,0,0,1-7.12,2.42c-2.26.63-4.53,1.22-6.8,1.82-1.82.48-3.66.9-5.46,1.42a17.31,17.31,0,0,1-4.44.88,3.53,3.53,0,0,0-.86.26A1.43,1.43,0,0,1,203.62,60.62Z"/><path class="cls-1" d="M197.67,21.73a5.17,5.17,0,0,1,.64.06,1.42,1.42,0,0,1,1.06,2.3,9.39,9.39,0,0,1-2.43,2.74A23.89,23.89,0,0,1,195,28.26c-3.06,2-6.05,4.15-8.9,6.44a101.15,101.15,0,0,0-9,7.71,11,11,0,0,1-2.39,2.06c-.14.08-.27.24-.44.15s-.12-.35-.11-.54a.77.77,0,0,1,.24-.52,29.08,29.08,0,0,0,2-2.56c1.32-1.56,2.48-3.24,3.85-4.75a47.54,47.54,0,0,0,3.36-4,47.69,47.69,0,0,1,4.31-4.78,28.47,28.47,0,0,1,3.17-2.6,27.07,27.07,0,0,1,3.5-2.3A6,6,0,0,1,197.67,21.73ZM181.24,37.42s.07,0,.07-.07c1.25-1,2.47-2.11,3.76-3.09,2.76-2.1,5.52-4.19,8.4-6.12a29.2,29.2,0,0,0,3.38-2.8,5.68,5.68,0,0,0,1.21-1.58.72.72,0,0,0-.05-.92.65.65,0,0,0-.83-.1c-.45.21-.91.4-1.34.65A37,37,0,0,0,190,27.61a78.9,78.9,0,0,0-7.85,8.09c-.39.45-.94.77-1.14,1.37-.05,0-.07,0-.07.07a3.69,3.69,0,0,0-1.1,1.4A4.06,4.06,0,0,0,181.24,37.42Z"/><path class="cls-1" d="M75.4,83a1.51,1.51,0,0,0-1.05-.46,3.67,3.67,0,0,1-1.08-.39L73,82a2.78,2.78,0,0,0-1.22-.62A9.58,9.58,0,0,1,69.07,80c-.68-.48-1.47-.83-2.17-1.31-.29-.19-.58-.38-.49-.77s.44-.49.78-.52a2.34,2.34,0,0,1,.79,0,29.23,29.23,0,0,1,8.34,3.18c2,1.17,4.1,2.22,6.15,3.31a48.61,48.61,0,0,1,6.74,4.47,2.09,2.09,0,0,1,.22.2c.13.15.32.3.18.52a.47.47,0,0,1-.61.16,1.28,1.28,0,0,1-.35-.18,19.59,19.59,0,0,0-4.24-2.19c-1.33-.57-2.67-1.13-4-1.74a12.07,12.07,0,0,0-3.07-1.3,1.25,1.25,0,0,1-.59-.33,1.41,1.41,0,0,0-1.1-.4Z"/><path class="cls-1" d="M145.49,33.78c.71,0,1,.41,1,1.14-.14.36-.32.86-.54,1.34a35.18,35.18,0,0,1-2.42,4.22c-1.47,2.33-3,4.63-4.45,7a15.64,15.64,0,0,0-1.3,3.1c-.21.59-.54.66-1,.28a.33.33,0,0,1-.13-.34c.54-2.28,1.1-4.56,1.59-6.85.2-1,.62-1.85.85-2.79a15.9,15.9,0,0,1,1-3.06,6.89,6.89,0,0,1,1.69-2.36S144,33.77,145.49,33.78Zm-.74,1.31c-2.72,1.71-6.13,8-5.83,10.74C140.86,42.17,143.26,38.89,144.75,35.09Z"/><path class="cls-1" d="M114.41,37.4c-.09-3.78-.28-7.56-.15-11.35,0-1.12.09-2.25.15-3.38,0-.4.06-.82.51-1a.89.89,0,0,1,1.14.31l.11.82A18.53,18.53,0,0,0,116,26c0,2.34-.07,4.68.13,7,0,.3,0,.49,0,.81a26.56,26.56,0,0,0,.15,3.78c0,.25,0,.4.06.62.06.89.11,1.79.17,2.69s-.08,1-.73,1-1-.12-1-.82c-.12-1.08-.24-2.17-.35-3.26A1.55,1.55,0,0,1,114.41,37.4Z"/><path class="cls-1" d="M91,60a2,2,0,0,1,1.63.72c.85.85,1.66,1.73,2.49,2.59,3.31,3.41,6.47,7,9.66,10.5a7.88,7.88,0,0,1,.7.83c.18.29.08.52-.28.56a1.16,1.16,0,0,1-1.09-.35,61.59,61.59,0,0,0-4.63-4.79c-1.07-1.08-2-2.35-3.11-3.36-1.89-1.64-3.37-3.65-5.17-5.37a5.13,5.13,0,0,0-.8-.74.36.36,0,0,1-.18-.42c.07-.21.27-.15.42-.17Z"/><path class="cls-1" d="M81.87,111.79a61.26,61.26,0,0,1,6.29,1.09c3,.59,6.06,1.26,9.08,1.93.34.08,1,.07.86.59s-.63.22-1,.19c-1.69-.13-3.35-.52-5-.8-3-.5-6.08-.84-9.06-1.59a6,6,0,0,1-2.4-.74c-.16-.12-.4-.16-.34-.42s.28-.24.47-.25C81.14,111.78,81.5,111.79,81.87,111.79Z"/><path class="cls-1" d="M199.1,49.65a14.31,14.31,0,0,1-2.72,1.27A98,98,0,0,0,181,58.87a5.37,5.37,0,0,0-.73.52,1.56,1.56,0,0,1-1,.38c-.19,0-.43,0-.52-.19s.1-.38.31-.53a89.71,89.71,0,0,1,16.29-8.7,12.79,12.79,0,0,1,2.57-.81A1.58,1.58,0,0,1,199.1,49.65Z"/><path class="cls-1" d="M154.8,78.92a10.14,10.14,0,0,1,.48-1.55c.38-1.07.75-1.62,1.09-2.54.34-.66.45-.82.9-1.72a9.12,9.12,0,0,0,.58-.91,3.08,3.08,0,0,1,2.07-1.37c.75-.14,1,.21.7.89a9,9,0,0,1-.67,1.22,38.29,38.29,0,0,1-3.54,4.94,15.06,15.06,0,0,0-.89,1.31.45.45,0,0,1-.61.17C154.73,79.27,154.77,79.08,154.8,78.92Z"/><path class="cls-2" d="M177.27,84.47c-.29.22-.55.06-.82-.07a6.7,6.7,0,0,0-1.22-.63c-1.14-1.3-2-2.78-3-4.18-.71-1-1.38-2-2.07-3a7.15,7.15,0,0,1,2.09.79c.26.38.51.77.78,1.15Z"/><path class="cls-1" d="M110.92,110.86c0,.17-.19.19-.31.18a1.14,1.14,0,0,1-.79-.39c-.53-.62-1.29-1-1.86-1.53a20.69,20.69,0,0,0-2.72-2.06c-.7-.47-1.34-1-2.07-1.46s-1.41-1.12-2.17-1.62c-.51-.33-.87-.88-1.51-1-.06,0-.15-.06-.16-.11-.06-.27-.46-.5-.23-.78s.5-.06.72.09c.79.54,1.59,1.09,2.36,1.66,2.62,1.94,5.23,3.9,7.76,6,.28.23.55.48.81.74A.38.38,0,0,1,110.92,110.86Z"/><path class="cls-1" d="M209.18,83.63c2.24,1.74,4.55,3.37,6.72,5.18a53.08,53.08,0,0,1,4.5,4.11c.18.18.63.35.32.69s-.65.09-.91-.2-.78-.9-1.22-1.3a47.17,47.17,0,0,0-4.72-3.85c-.55-.38-1-.92-1.55-1.36-1.09-.91-2.1-1.92-3.14-2.89Z"/><path class="cls-2" d="M166.79,74.43c-.67-.41-4.15-7.56-4.41-8.89.08,0,.28.13.64.93a35.47,35.47,0,0,0,2.75,5.4,5.13,5.13,0,0,1,.07-1.78c.59.43.76,1.14,1.12,1.73a4,4,0,0,0,2.36,1.85,1.49,1.49,0,0,1,.93.45c-.64.11-1.27-.25-1.94.21,1.2.65,2.45.78,3.53,1.35a22.1,22.1,0,0,1-4.08-1.08c-.26-.09-.49-.29-.77-.23"/><path class="cls-2" d="M199.51,95.54a.41.41,0,0,1,.16-.43,75.73,75.73,0,0,0,5.5-5.69c.18-.19.29-.55.67-.47-.25.86-1,1.39-1.46,2.08a23.68,23.68,0,0,1-4.1,4.15A1.7,1.7,0,0,1,199.51,95.54Z"/><path class="cls-2" d="M186.46,69.52c-.19.13-1.19.58-1.39.7a5,5,0,0,0-1.8,1.65,1,1,0,0,1,.53-1.15A8.91,8.91,0,0,1,186.46,69.52Z"/><path class="cls-3" d="M67.62,57.91h-1C67,57.5,67.17,57.5,67.62,57.91Z"/><path class="cls-3" d="M65.9,58.38l0,.64C65.54,58.82,65.52,58.61,65.9,58.38Z"/><path class="cls-3" d="M98.38,88.51h.44C98.67,88.8,98.52,88.8,98.38,88.51Z"/><path class="cls-3" d="M185.61,154.13a.32.32,0,0,1,.36.07C185.81,154.41,185.7,154.34,185.61,154.13Z"/><path class="cls-3" d="M73,82l.27.16A.2.2,0,0,1,73,82Z"/><path class="cls-3" d="M75.4,83l.26.15A.2.2,0,0,1,75.4,83Z"/><path class="cls-3" d="M137,87.6l.21-.2Z"/><path class="cls-3" d="M187.43,110.8l.15-.11Z"/><polygon class="cls-1" points="127.76 116.87 127.72 116.84 127.72 116.89 127.76 116.87"/><path class="cls-4" d="M186.2,85.4c.72.24,1.14,1,2.07,1.32a22,22,0,0,0-1.49-2.64c.87-.28,1.63.14,2.48.12-.19-.41-.54-.55-.82-.76A30.21,30.21,0,0,0,181.71,80c-1.41-.59-2.83-1.16-4.2-1.86a1.07,1.07,0,0,1-.65-1.28A5.64,5.64,0,0,1,178,73.9a.89.89,0,0,1,1.2-.3,4.64,4.64,0,0,0,3.22.25,23.25,23.25,0,0,1,8.15-.18A4,4,0,0,1,194,76a9.12,9.12,0,0,0,.82,1.38,13.37,13.37,0,0,1,2.38,6.48,11.15,11.15,0,0,0,.63,3,46.92,46.92,0,0,0-.39-5.79,11.08,11.08,0,0,1,1.67,5.55,23.79,23.79,0,0,1-.56,5.64c-.56,2.33-1.08,4.68-1.8,7a14,14,0,0,1-4.51,6.57c-.29-.09-.25-.38-.3-.58a12.56,12.56,0,0,0-2.22-4.1c-.13-.19-.47-.43-.17-.67s.44.15.62.32a5.73,5.73,0,0,1,.39.45.31.31,0,0,0,.44.07c.2-.15.07-.3,0-.42-.36-.44-.72-.88-1.1-1.29-.66-.71-1.33-1.4-2-2.1-.22-.22-.43-.41-.28-.77a10.54,10.54,0,0,0,.72-3.3c1,.54,1,1.7,1.89,2.26a1.87,1.87,0,0,0-.34-1.25c-1.21-2.74-2.46-5.47-3.55-8.26-.1-.23-.41-.47-.11-.78Z"/><path class="cls-2" d="M153.39,138.82c-.12.1-.24.05-.36,0l-5.9-3.11a3,3,0,0,1-.4-.3.18.18,0,0,0-.15-.2v0a2.37,2.37,0,0,0-.34-1.13q-9.18-23.32-18.37-46.65c-.15-.4-.29-.82-.43-1.22.56.18.86.24,1.26.4s.86.38,1.39.59c2.05.81,4.08,1.68,6.07,2.65.48,1.73,1.16,3.4,1.76,5.09l15.22,42.72C153.28,138,153.53,138.39,153.39,138.82Z"/><path class="cls-4" d="M172,116.17a10.3,10.3,0,0,1-1.57-2.18,1.15,1.15,0,0,1-.15-.77,39.08,39.08,0,0,0-.12-7.57c-.18-2.59-.43-5.17-.55-7.77a19,19,0,0,0-.72-4c-.21-.77.07-1.56-.25-2.33s-.42-1.47-.64-2.2a.73.73,0,0,1,.24-.8,9.89,9.89,0,0,1,2.85-2,.92.92,0,0,1,.78,0,27.48,27.48,0,0,1,7.5,4.09c1.22,1,1.42,2,.84,3.56a17.73,17.73,0,0,1-1.79-1,29.05,29.05,0,0,0-4.87-2.73c-.4-.17-1-.59-1.27-.22s.31.78.58,1.11c.94,1.16,1.86,2.34,2.73,3.57a5.9,5.9,0,0,1,.89,5.13c-.6,2.25-1.35,4.46-1.82,6.75a1.71,1.71,0,0,1-.17.31c-.32-1.78-.23-3.52-.42-5.23,0-.27,0-.53-.08-.8a.41.41,0,0,0-.41-.36.39.39,0,0,0-.41.36,5.61,5.61,0,0,0-.06.59c-.08,1.4,0,2.8,0,4.19,0,1.86-.06,3.73-.2,5.59a15.38,15.38,0,0,1-.72,4.31Z"/><path class="cls-4" d="M136.17,89.86c-2-1-4-1.84-6.07-2.65l-1.24-.49a9.71,9.71,0,0,0-1.41-.5,19.71,19.71,0,0,0-3.9-1.18c-.32-.07-.63-.16-1-.24v-.33a17.19,17.19,0,0,1,2.66.45c.85.24,1.68.56,2.52.84s1.66.33,2.48.61A62.9,62.9,0,0,1,138.81,90a95.71,95.71,0,0,1,30,24.29,82.81,82.81,0,0,1,11,16.84,53,53,0,0,1,3.78,9.65c.34,1.3.39,1.3-.92,1.4-1.8.14-1.39.31-1.74-1.32a47.83,47.83,0,0,0-4.83-12.55,85.58,85.58,0,0,0-12.85-17.52,101.91,101.91,0,0,0-24.55-19.68A15.54,15.54,0,0,0,136.17,89.86Z"/><path class="cls-4" d="M149.4,93.17a45.78,45.78,0,0,0-5.33-1.69,27.08,27.08,0,0,1-4.49-2.13,12.74,12.74,0,0,1,3.43-.92l3-.17a16.86,16.86,0,0,1,4.37.26c1.79.38,3.58.71,5.43,1.19-.39.51-1.08,0-1.46.57a1.76,1.76,0,0,0,1.08.16,13.15,13.15,0,0,1,5.2.76c.26.09.6.37.78-.16.06-.16.3-.1.46-.11a34.76,34.76,0,0,1,4.89.17c.7.09.69.1.58.82a12.14,12.14,0,0,1-1.12,3.3,1.05,1.05,0,0,1-1.09.66,16.94,16.94,0,0,1-3.55-.55l-.49-.08c-.33-.24-.52-.46,0-.67a2.64,2.64,0,0,0,1.24-.56,10.88,10.88,0,0,0-1.14-.15,8.25,8.25,0,0,1-1.79-.11,18,18,0,0,1-4.16-1.37c-.2-.1-.4-.27-.66-.08.15.71.9,1.11,1,1.88a9.09,9.09,0,0,1-4.11-.91,21.56,21.56,0,0,1-2.67-1.55,1.25,1.25,0,0,0-.52-.28.28.28,0,0,0-.33.14.22.22,0,0,0,.05.27c.21.21.44.41.66.61S149.31,92.8,149.4,93.17Z"/><path class="cls-4" d="M171.84,75.68c-1.08-.57-2.33-.7-3.53-1.35.67-.46,1.3-.1,1.94-.21a1.49,1.49,0,0,0-.93-.45A4,4,0,0,1,167,71.82a6.81,6.81,0,0,1-1.12-1.73c-.52-1.33-1.05-2.66-1.56-4-.26-.67-.15-.92.54-1.38a1.24,1.24,0,0,1,1.64,0,3.67,3.67,0,0,1,.5.62,21.16,21.16,0,0,0,3.1,3.38,8.7,8.7,0,0,1,1.86,2.2,1.53,1.53,0,0,0,1.08.78c1.06.26,2.11.58,3.19.78a3.63,3.63,0,0,1,1.53.59,14.68,14.68,0,0,0-1.63,1.73c-.18.3-.47.2-.72.15a11.33,11.33,0,0,1-2.22-.58,2.14,2.14,0,0,0-1.17-.25c.77,1.09,2.08,1,3.09,1.77A5.74,5.74,0,0,1,171.84,75.68Z"/><path class="cls-2" d="M149.4,93.17c-.09-.37-.44-.48-.68-.7s-.45-.4-.66-.61a.22.22,0,0,1-.05-.27.28.28,0,0,1,.33-.14,1.25,1.25,0,0,1,.52.28,21.56,21.56,0,0,0,2.67,1.55,9.09,9.09,0,0,0,4.11.91c-.12-.77-.87-1.17-1-1.88.26-.19.46,0,.66.08a18,18,0,0,0,4.16,1.37,8.25,8.25,0,0,0,1.79.11,10.88,10.88,0,0,1,1.14.15,2.64,2.64,0,0,1-1.24.56c-.56.21-.37.43,0,.67-.09.42-.23.69-.78.62a11.87,11.87,0,0,1-2.44-.42,6.88,6.88,0,0,0-2.15-.41A13.63,13.63,0,0,1,149.4,93.17Z"/><path class="cls-4" d="M192.56,73.51a29.47,29.47,0,0,0-6.12-.7,1.37,1.37,0,0,1-1.37-1.27.75.75,0,0,1,.44-.81,8.18,8.18,0,0,1,4.68-1.1,1.82,1.82,0,0,1,1.63,1.4C192.08,71.82,192.3,72.62,192.56,73.51Z"/><path class="cls-4" d="M189.41,103.07c-.06,0-.14,0-.17,0-2-2-4.18-3.61-5.94-5.77a17.19,17.19,0,0,0-1.74-1.78.82.82,0,0,1-.31-1,7.66,7.66,0,0,0,.26-1.67C183.82,94.06,188.87,100.62,189.41,103.07Z"/><path class="cls-4" d="M205.11,87.8l-3.4,2.87c-.25-.81.41-1,.73-1.49A6.82,6.82,0,0,0,200.69,88a1.27,1.27,0,0,1-.71-1.28,10.09,10.09,0,0,0-.68-4.1.47.47,0,0,1,0-.43l1.25,1.43a13.72,13.72,0,0,0,2.4,2.23A11.75,11.75,0,0,1,205.11,87.8Z"/><path class="cls-4" d="M201.29,120.12a2.12,2.12,0,0,1-1.3-.92l-7.73-11.13c-.4-.57-.49-.66.56-1.23C195.69,111.24,198.6,115.6,201.29,120.12Z"/><path class="cls-2" d="M168.82,102.5c-1.46-.73-2.92-1.47-4.38-2.19A1.7,1.7,0,0,1,163.36,99a12,12,0,0,0,2.06-1.56c.59-.6.87-1.45,1.56-2,0,1.26-.88,2.15-1.48,3.23.93.5,1.8,1,2.71,1.45.38.18.62.38.62.8S169.26,102,168.82,102.5Z"/><path class="cls-5" d="M177.27,84.47l-4.28-6c-.27-.38-.52-.77-.78-1.15a2.07,2.07,0,0,1,1.68,1.07q4.4,6.54,9,13c.25.35.71.69.2,1.27C181.17,89.88,179.26,87.14,177.27,84.47Z"/><path class="cls-4" d="M165.21,61.59c-.18.32-.38.63-.81.62a2.63,2.63,0,0,0-1.53.3.39.39,0,0,1-.52-.13c-.41-.48-.83-1-1.23-1.44a.37.37,0,0,1,.12-.64,9.51,9.51,0,0,0,1-.65c.82-.61,1.53-.13,2.27.18,0,0,.07,0,.08.06A10,10,0,0,0,165.21,61.59Z"/><path class="cls-4" d="M165.91,64.1a3.37,3.37,0,0,0-2,.76,6.51,6.51,0,0,1-.92-2c.4,0,.4.51.73.44.35-.27-.3-.64.12-.87a1.34,1.34,0,0,1,1.34.42A4.43,4.43,0,0,1,165.91,64.1Z"/><path class="cls-4" d="M122.61,84.47v.33l-4.21-.6a.17.17,0,0,0-.18,0h0v-.37A17.34,17.34,0,0,1,122.61,84.47Z"/><path class="cls-3" d="M188.37,99.27c-.58-.18-.62-.76-.91-1.16a1.53,1.53,0,0,1,.95.77Z"/><path class="cls-4" d="M118.2,83.83v.37l-.75,0c-.23,0-.31-.17-.26-.4A3.42,3.42,0,0,1,118.2,83.83Z"/><path class="cls-6" d="M189.16,100.26l-.3-.24c-.17-.16-.34-.36-.11-.55s.35.06.47.2a3.37,3.37,0,0,1,.21.31Z"/><path class="cls-6" d="M188.66,99.15c.11.1.31.21.08.36s-.25-.1-.34-.22Z"/><path class="cls-6" d="M188.37,99.27l0-.39.25.27-.26.14Z"/><path class="cls-2" d="M153.58,139c-.11,0-.27,0-.2-.23C153.55,138.79,153.56,138.92,153.58,139Z"/><path class="cls-4" d="M189.16,100.26l.27-.28c0,.1.15.17,0,.3S189.25,100.28,189.16,100.26Z"/><polygon class="cls-4" points="197.27 80.7 197.32 80.68 197.31 80.74 197.27 80.7"/><path class="cls-4" d="M186.21,85.37c0,.08-.09.1-.12,0s0-.08,0-.12l.1.11Z"/><path class="cls-3" d="M118.21,84.2a.17.17,0,0,1,.18,0l-.19.06Z"/><path class="cls-1" d="M146.58,135.2a.18.18,0,0,1,.15.2C146.65,135.36,146.49,135.37,146.58,135.2Z"/><path class="cls-2" d="M178.33,108.3c-.37-.3-.77-.59-1.16-.89a.48.48,0,0,0-.44-.31c-.14,0-.15.17-.12.3l-.63,4.42c-.08.35,0,.47-.1.71s-.06.32-.08.44,0,.17-.08.43a25.73,25.73,0,0,1,.1-6.27c.22-1.37.58-2.73.87-4.1.13-.58.25-1.17.39-1.89a1.49,1.49,0,0,1,.08,1,5.27,5.27,0,0,0,1.45,4.29,8.6,8.6,0,0,0,7.18,3,12,12,0,0,0,4.46-1.4c.38-.17.73-.47,1.19-.37.11.34-.14.45-.3.6-1.51,1.45-2.5,2.2-3.56,2.44a11.2,11.2,0,0,1-5.1.06A17.39,17.39,0,0,1,178.33,108.3Z"/></svg>