<svg id="frames" xmlns="http://www.w3.org/2000/svg" viewBox="0 0 384 216"><defs><style>.cls-1{fill:#0f1b33;}.cls-2{fill:#fd0101;}.cls-3{fill:#f3f2f3;}.cls-4{fill:#d6d7d0;}</style></defs><path class="cls-1" d="M165.45,122.43c0-.24,0-.47,0-.7l-.09-36.1c0-1.83,0-3.66.17-5.49.05-.64.23-.92.84-1.06a4,4,0,0,1,1-.07c10,0,19.93,0,29.89.15,3.1,0,6.2,0,9.29.18a18.46,18.46,0,0,1,5,.91,31.25,31.25,0,0,1,11.11,6.14,25.11,25.11,0,0,1,2.63,2.73c.12.15.18.37.52.38,0-1.22.1-2.43.1-3.64,0-1.7.21-3.39.08-5.1-.07-1,.49-1.57,1.59-1.57,7.4,0,14.8,0,22.2,0,2.83,0,5.66,0,8.49.06.86,0,1.75,0,2.61,0,6.41.08,10.94.58,16,3.06a26.53,26.53,0,0,1,14.65,22.18,26.34,26.34,0,0,1-3.65,15.39,27.44,27.44,0,0,1-23.48,13.52h-15.1c-.7,0-.73.05-.75.73,0,1.53-.08,3.06-.08,4.59q0,10.76,0,21.49v.7c0,1-.46,1.44-1.48,1.49-.5,0-1,0-1.5,0l-6.69-.1a7.06,7.06,0,0,1,1.58-.55,18.41,18.41,0,0,0,3.62-1.31c.33-.18.65-.37.73-.75s-.14-.51-.5-.37a10.25,10.25,0,0,0-2.92-1.26c-2.17-.62-4.36-1.21-6.5-1.91-3.34-1.09-6.65-2.27-10-3.41-3.6-1.22-7.21-2.39-10.78-3.66-5.65-2-11.27-4.08-16.94-6a10.14,10.14,0,0,1-2.63-1.11c5.47,1.77,11,3.52,16.36,5.47,4.75,1.71,9.55,3.31,14.33,5,.77.26.83.22.82-.64,0-1-.08-2.06-.08-3.09a3.39,3.39,0,0,0-.49-1.7,20.5,20.5,0,0,1-1.58-2.87,8.28,8.28,0,0,0,.23-1.48c.89,1.28,1.56,2.7,2.4,4a6.7,6.7,0,0,1,1.07,3c.12,1,.4,2.09.53,3.15a1.12,1.12,0,0,0,.92,1c1.65.51,3.29,1.07,4.93,1.59.27.09.54.3.87.09a1.44,1.44,0,0,0-.36-.79,48.75,48.75,0,0,0-5.48-6.84,13.69,13.69,0,0,1-1.82-2.32c-3.06-5.23-6.18-10.42-9.29-15.62-.15-.26-.24-.62-.6-.71-.52.37-.54.74-.22,1.28,1,1.75,2.11,3.47,3,5.28-.25.49,0,1-.19,1.54a2.21,2.21,0,0,1-.5-.73c-1-1.71-2-3.43-3-5.14-.42-.71-.59-.74-1.21-.22a5.87,5.87,0,0,1-1.23,1c0-.64.59-.87.93-1.28.72-.77,1.45-1.53,2.1-2.37a2.22,2.22,0,0,0,.08-2.28,22.42,22.42,0,0,1-1.39,2.72,15.56,15.56,0,0,1-1.88,1.76,10,10,0,0,1-7.38,1.66c-.49-.07-1-.11-1.48-.18a1.52,1.52,0,0,0-1.13.26c-.42.32-.86.61-1.29.91l-3.61,1.82a14.61,14.61,0,0,0-3.15,1.13c-1.22.5-2.44,1-3.64,1.54a2.35,2.35,0,0,0-1.37,1.07c-.22.51-.47,1-.71,1.53a12.44,12.44,0,0,1-2-.63c-.66-.21-1.3-.44-2-.67a10.6,10.6,0,0,0,5.37-2.14c1.86-1.34,3.68-2.74,5.52-4.1,3.75-2.76,7.25-5.84,11-8.66a17.38,17.38,0,0,0,3.14-3l.38.12-.06.47-1.12,2.46c.46-.44.86-.65,1-1.09a.27.27,0,0,0,.18-.23h0a7.07,7.07,0,0,0,1.65-2.52.41.41,0,0,0,.21-.46.73.73,0,0,0,.21-.5.47.47,0,0,0,.19-.5.75.75,0,0,0,.2-.52A.43.43,0,0,0,214,118c.26-.3.67-.34,1-.59.25.07.37.19.29.48a4.54,4.54,0,0,0-.08.55,1.37,1.37,0,0,0-.24.71,8.69,8.69,0,0,0-.77,2c.32-.21.56-.27.63-.53a7.36,7.36,0,0,0,2-2,1.5,1.5,0,0,0,.27-1.58c-.27-.78-.48-1.59-.83-2.35a4.1,4.1,0,0,0-4.25-2.49,1.05,1.05,0,0,0-1,.57c-.53,1-1.12,1.89-1.6,2.88a3.37,3.37,0,0,1-1.14,1.34,39.94,39.94,0,0,0-4.81,4c-.9.92-1.71,1.91-2.57,2.86-2.19,2.38-4.37,4.76-6.59,7.11a20.88,20.88,0,0,1-4.07,3.67c-.33.2-.61.52-1.06.44s-.06-.31.06-.41a8.91,8.91,0,0,0,1.55-1.24h-2.56a.27.27,0,0,0-.3.31,3.59,3.59,0,0,0,.13,1.55c.33-.15.6-.29.87-.4s.25,0,.24.19c-.15.35-.51.4-.8.51A23.49,23.49,0,0,1,181,137a6.81,6.81,0,0,1-2.38-.13c-4.41-1.49-8.78-3.1-13.22-4.5,0-.53,0-1.05,0-1.58s-.18-.52-.55-.45l-.48.07c-1.15.2-1.15.2-1,1.32-.2,0-.45.08-.59,0a20.62,20.62,0,0,0-3.46-1.22c-.22-.08-.52-.07-.66-.39a31.25,31.25,0,0,1,6.56-1.36,37.11,37.11,0,0,0,8.4-1.73,17.41,17.41,0,0,0,3.14-1.73c.39-.24.12-.34-.14-.41.31-.17.63-.36,1-.52,1.43-.69,2.93-1.21,4.41-1.81a8.62,8.62,0,0,0,2.8.66c.86,0,1.72.08,2.58.16a18.2,18.2,0,0,1,3.75.51c0,.26.1.52.12.79.23,2.46-.12,3.34-2.2,4.28.15.22.4.2.62.26,1.05.3,2.11.57,3.17.87s1.37.2,2-.73c.2-.31.14-.47-.2-.58-.72-.25-1.44-.5-2.15-.78s-.76-.3-.61-1.07a7.45,7.45,0,0,0-.47-4.1,6.83,6.83,0,0,0-1.73-2.85c-.43-.41-.64-1-1.48-1-1.76.1-3.52,0-5.27.32s-3.59.67-5.38,1.09-3.67.57-5.5.9a.77.77,0,0,0-.91-.42l-1.07.22C168.47,121.43,167,122,165.45,122.43Zm29-39s.14-.05.15-.09-.1-.12-.19-.11h0a.75.75,0,0,1-.13-.7c.11-.71-.06-.92-.67-1.11a.5.5,0,0,0-.17-.4c-.27-.35-.63-.19-1-.17a1.53,1.53,0,0,0-1.24,0c-.9.27-1.51,1-2.35,1.39-.23.1-.13.33,0,.51a7.61,7.61,0,0,0,1,1.46c.12.54.71.52,1,.85a1.32,1.32,0,0,0,.62,1.14c.37.33.46.33.54,0v-.83c.14-.19.27-.34.56-.18a2.34,2.34,0,0,0,1.33.28.49.49,0,0,0,.39.07.69.69,0,0,0,.61.09,1,1,0,0,0,.6.09,8.47,8.47,0,0,1,2.59.8.17.17,0,0,0,.16.09.5.5,0,0,0,.44.32.12.12,0,0,0,.14.09.54.54,0,0,0,.46.32l.25.14a2,2,0,0,0,1.88.32,9.31,9.31,0,0,1,1.73-.43,13.85,13.85,0,0,0,.82,3c.28.58.31.67-.26,1a9,9,0,0,0-2,1.36,2.54,2.54,0,0,0-.85,1.74,9.47,9.47,0,0,1,3-2.53c.9-.49,1.06-.52,1.84.15a32.81,32.81,0,0,0,4.87,3.3,1.85,1.85,0,0,0,2.63-.85,2.93,2.93,0,0,0,.05-4.5.52.52,0,0,0-.43-.36,3.54,3.54,0,0,0-1-.84.52.52,0,0,0-.43-.36.51.51,0,0,0-.34-.26,1,1,0,0,0-.66-.52.11.11,0,0,0-.13-.08c-.1-.24-.32-.33-.51-.45a29,29,0,0,0-5.61-2.57,4.62,4.62,0,0,0-1.28-.2c-2.16-.23-4.32,0-6.48,0a.47.47,0,0,0-.4-.06l-1.41-.41c-.29-.08-.23-.25-.13-.43Zm9.14,18.41c-.09-.79-.15-1.59-.28-2.37s-.47-1-1.29-1a5.7,5.7,0,0,0-1.84,0c.44,1.19,6.41,11.31,7,11.83a8,8,0,0,0,.54-6.2c-.08-.32-.29-.36-.61-.31-1.11.19-1,.13-1.66-.67A3.66,3.66,0,0,0,203.57,101.84Zm-2.17,1.77c.17.25.35.49.5.74l5.31,9.16c.11.18.14.46.49.5a2.25,2.25,0,0,0-.18-2Q200.44,100,193.41,87.9a1.25,1.25,0,0,0-1.43-.75,2.35,2.35,0,0,0-1-.21.89.89,0,0,0,.22.61c1.05,1.84,2.12,3.68,3.16,5.53s2.1,3.53,3,5.38c-1.86,0-3.73,0-5.59.11-1.07.05-2.13.07-3.2.06-.43,0-.61.16-.57.59,0,.16,0,.33,0,.5,0,3.53.05,7.06-.05,10.59,0,1.34,0,2.67,0,4,0,.53.18.73.7.67a4,4,0,0,1,.49,0c3.84,0,7.67-.1,11.5-.13a7,7,0,0,0,3.66-1.17c1.34-.82,1.3-.89.55-2.25-1.22-2.18-2.55-4.3-3.68-6.52Zm58.66,11.6a5.74,5.74,0,0,0,1.49-.13,8.8,8.8,0,0,0,5.88-4.88,7.11,7.11,0,0,0-1-8.21,12.73,12.73,0,0,0-1.77-1.75,7,7,0,0,0-4.61-1.61c-3.43,0-6.87,0-10.3,0a4.21,4.21,0,0,1-.5,0c-.51-.06-.74.16-.69.68,0,.2,0,.4,0,.6,0,2.66.06,5.33,0,8-.06,2.07-.08,4.13-.08,6.19,0,1,0,1,1,1H255m-36.08,9.74c-.06.27-.26.25-.46.24a1.49,1.49,0,0,0-1,.08L218,127a12,12,0,0,0,1.48-2.12,4.37,4.37,0,0,0,.77-1.5,17.42,17.42,0,0,1,2-4.13,21.41,21.41,0,0,0,3-9.1,10.82,10.82,0,0,0-.38-4.73c-.82-2.53-1.88-5-2.87-7.45a5.43,5.43,0,0,0-.78-1.27A23,23,0,0,0,216.65,92c-.06-.06-.11-.16-.18-.17s-.13.11-.12.2a.67.67,0,0,0,.24.4c-.13.35.39.58.19,1-.5-.53-.71-1.22-1.2-1.74s-.64-1.2-1.37-1.44c0,.12-.07.19-.05.24a4,4,0,0,1-.13,3.74c-.26.53-.1.8.36,1a1.16,1.16,0,0,1,.65,1.4,17,17,0,0,1-.47,2.25,1.83,1.83,0,0,0,.47,1.92c.37.38.72.79,1.07,1.18.55.61,1.11,1.2,1.72,1.79-1.68-.06-3.05-1.15-4.72-1.3.17,1,.78,1.88.91,2.9a9.64,9.64,0,0,1-2-.72c-.19,1.07-.39,2.08-.55,3.1a2.22,2.22,0,0,0,.05.89,2.93,2.93,0,0,1-.08,1.66,3.09,3.09,0,0,0-.16.78.49.49,0,0,0,.49.61c1.44.09,2.79.63,4.21.81l3.11.38c-.95.53-2,.26-2.88.75.65.51,1.43.52,2,1l-.66,0c-.22,0-.46-.1-.67.06,0,0,0,.06,0,.09a2.38,2.38,0,0,0,.11.38,13.36,13.36,0,0,1,.83,7.73C217.53,124.42,217.33,124,218.88,124.79Zm6.87-2.1c-.17.1-.24.12-.28.17a33,33,0,0,1-6.91,6c-.52.33-.51.35-.12,1q3.36,5.73,6.72,11.46c.15.24.22.55.59.71Zm-35.69-3.48a7.55,7.55,0,0,0,4.91,3.28,50,50,0,0,0,5.47.29.71.71,0,0,0,.56-.14c.71-.74,1.45-1.46,2.16-2.21.28-.31.19-.51-.22-.65a1.7,1.7,0,0,0-.39-.09,68.32,68.32,0,0,0-11.42-.88A1.41,1.41,0,0,0,190.06,119.21Zm15.79-22.29c.15.33,0,.58,0,.83-.17,1-.18,1.06.83,1.43a1.18,1.18,0,0,1,.8.91c.18.74.4,1.47.61,2.23a4.32,4.32,0,0,0,1.1-4.73c-.46.34-.42,1.15-1.13,1.28,0-.57,0-1.1,0-1.62a1.09,1.09,0,0,0-.7-1.19,6.27,6.27,0,0,1-2.37-1.8.6.6,0,0,0-.85-.21c-.35.19-.61.37-.53.84s0,.73,0,1.09c0,.72.14.86.87.93A12.38,12.38,0,0,0,205.85,96.92Z"/><path class="cls-1" d="M152,94.37c3,9.69,6,19.42,9,29.13l.24.76-1,.56c-.49.26-1,.49-1.48.79s-.09.36.15.45l-.06.08c-1.34,1-2.89,1.66-4.27,2.59-.29.2-.57.06-.86,0-2.59-.85-5.18-1.72-7.78-2.55-2.79-.88-5.6-1.72-8.4-2.57a1.18,1.18,0,0,0,0-.2q-2.25-7.71-4.5-15.42c-.07-.23,0-.54-.38-.72a3,3,0,0,0-.35.89c-.45,1.43-.93,2.85-1.33,4.29l-2.62,8.87-5.74-.53-.79-.09a20.19,20.19,0,0,0-5.38-.11,5.5,5.5,0,0,0-3.1,1.48,2,2,0,0,0-.72,1.47,6.48,6.48,0,0,0,1.54,4.4A39.38,39.38,0,0,0,124.53,136a48.83,48.83,0,0,0,7.21,3.2c3.32,1.23,6.68,2.31,9.93,3.7,2,.86,4.11,1.58,6.16,2.35.21.08.41.25.66.1a1.44,1.44,0,0,0-.41-.78q-5.37-7.84-10.74-15.67c-.91-1.35-2-2.62-2.76-4a52,52,0,0,1,7.64,2.18,3.57,3.57,0,0,0,.5,1c1,1.68,2,3.36,3.06,5l8.47,13.91a1.78,1.78,0,0,0,.95.82c1.39.48,2.76,1,4.14,1.48.2.07.42.26.65,0a5.91,5.91,0,0,0-.24-.61Q156.38,142,153,135.41c-1-2-2.11-3.94-3-6,1.14.34,2.3.67,3.44,1,12.27,3.89,24.57,7.71,36.8,11.76,6.69,2.22,13.43,4.33,20.1,6.62,6.33,2.18,12.58,4.56,18.88,6.8,2.86,1,5.75,1.89,8.69,2.63l5.13,1.27c-.33.08-.65.16-1,.22-1.56.3-3.15.47-4.74.67a87.58,87.58,0,0,1-9.84.93,81.15,81.15,0,0,1-8.68-.22c-1.85-.17-3.71-.26-5.56-.49-3.56-.45-7.11-1-10.67-1.46-6.37-.85-12.68-2-18.93-3.52-3.53-.83-7-1.8-10.63-2.35a1.61,1.61,0,0,0-.92,0c0,.11,0,.16,0,.16,3,.85,5.94,1.71,8.93,2.52,2.21.6,4.44,1.14,6.67,1.7,0,1.13,0,2.27-.08,3.4,0,.73-.38,1.06-1.12,1.12-.2,0-.4,0-.6,0h-35.8c-1.25,0-1.29,0-1.68-1.23q-1.47-4.56-3-9.12c-.26-.81-.3-.84-1.12-.84-8,0-15.93,0-23.9,0a.83.83,0,0,0-1,.74c-.71,2.6-1.63,5.14-2.24,7.77a9,9,0,0,1-.58,1.49,1.6,1.6,0,0,1-1.66,1c-2.49,0-5,0-7.49.08-3.79.11-7.59.18-11.38.22-.76,0-1.53.07-2.29.07-1.3,0-1.64-.46-1.25-1.68,1.13-3.59,2.28-7.17,3.42-10.76q4.52-14.3,9-28.59,1.64-5.14,3.25-10.29c.33-1,.52-.85-.61-1.51-.46-.27-.92-.55-1.36-.85-.66-.45-.88-1-.58-1.38s.86-.45,1.51,0a9.49,9.49,0,0,0,2,1.13c.48-1.49.94-2.95,1.42-4.4.13-.42-.13-.59-.43-.78L105.05,100a7.54,7.54,0,0,1-1-.71c-.86-.78-1-1.39-.5-2.06s1.29-.91,2.26-.25c1.25.83,2.45,1.72,3.67,2.6.64.47,1.27,1,1.88,1.42.33-.11.34-.36.41-.57q2.48-8,5-16c.46-1.46,1-2.9,1.47-4.36.31-.9.45-1,1.45-1,2.9,0,5.8,0,8.7,0l16.9,0c.1,0,.2,0,.3,0a1.85,1.85,0,0,1,2,1.37Z"/><path class="cls-2" d="M187.71,157.67c-2.23-.56-4.46-1.1-6.67-1.7-3-.81-6-1.67-8.93-2.52,0,0,0,0,0-.16a1.61,1.61,0,0,1,.92,0c3.59.55,7.1,1.52,10.63,2.35,6.25,1.47,12.56,2.67,18.93,3.52,3.56.48,7.11,1,10.67,1.46,1.85.23,3.71.32,5.56.49a81.15,81.15,0,0,0,8.68.22,87.58,87.58,0,0,0,9.84-.93c1.59-.2,3.18-.37,4.74-.67.33-.06.65-.14,1-.22l.69.08c.22,0,.39,0,.43-.27.36-.14.61-.1.5.37s-.4.57-.73.75a18.41,18.41,0,0,1-3.62,1.31,7.06,7.06,0,0,0-1.58.55c-2.13.38-4.25.84-6.41,1a77.74,77.74,0,0,1-17.45-.45c-4.45-.65-8.91-1.19-13.32-2.08-3.53-.72-7-1.68-10.5-2.49C189.94,158.08,188.82,157.89,187.71,157.67Z"/><path class="cls-2" d="M158.82,126.06c-.24-.09-.62-.16-.15-.45s1-.53,1.48-.79l1-.56,4.26-1.83c1.53-.45,3-1,4.58-1.32l1.07-.22a.77.77,0,0,1,.91.42,4.26,4.26,0,0,1-.47.15,48.3,48.3,0,0,0-9.39,3C161,125,159.93,125.53,158.82,126.06Z"/><path class="cls-1" d="M268.68,20.43a4.49,4.49,0,0,1,.89,3C269.18,22.45,269,21.41,268.68,20.43Z"/><path class="cls-1" d="M46.57,44.45c0,.07,0,.12-.08.12a.68.68,0,0,1-.89-.39c0-.06,0-.25.08-.26C46.16,43.81,46.38,44.12,46.57,44.45Z"/><path class="cls-1" d="M40,74.93a1.84,1.84,0,0,1,1.46,0A1.28,1.28,0,0,1,40,74.93Z"/><path class="cls-3" d="M158.82,126.06c1.11-.53,2.21-1.09,3.33-1.57a48.3,48.3,0,0,1,9.39-3,4.26,4.26,0,0,0,.47-.15c1.83-.33,3.71-.48,5.5-.9s3.57-.8,5.38-1.09,3.51-.22,5.27-.32c.84,0,1.05.59,1.48,1,.38.76.79,1.52,1.14,2.3a2.27,2.27,0,0,1,.35,1.61,18.2,18.2,0,0,0-3.75-.51c-.86-.08-1.72-.13-2.58-.16a8.62,8.62,0,0,1-2.8-.66c-.25-.36-.07-.61.18-.88a1.86,1.86,0,0,0,.65-.9l-4.32.48c0,.48.67.41.57.91a22.87,22.87,0,0,0-6,1.83c-1.94.74-4,1.19-5.93,1.87a39.12,39.12,0,0,0,9.47-1c.26.07.53.17.14.41a17.41,17.41,0,0,1-3.14,1.73,37.11,37.11,0,0,1-8.4,1.73,31.25,31.25,0,0,0-6.56,1.36c.14.32.44.31.66.39a20.62,20.62,0,0,1,3.46,1.22c.14.09.39,0,.59,0a10.79,10.79,0,0,0,2,.64c4.44,1.4,8.81,3,13.22,4.5A6.81,6.81,0,0,0,181,137a23.49,23.49,0,0,0,7.4-1.49c.29-.11.65-.16.8-.51h0c.45.08.73-.24,1.06-.44a20.88,20.88,0,0,0,4.07-3.67c2.22-2.35,4.4-4.73,6.59-7.11.86-1,1.67-1.94,2.57-2.86a39.94,39.94,0,0,1,4.81-4,3.37,3.37,0,0,0,1.14-1.34c.48-1,1.07-1.92,1.6-2.88a1.05,1.05,0,0,1,1-.57,4.1,4.1,0,0,1,4.25,2.49c.35.76.56,1.57.83,2.35a1.5,1.5,0,0,1-.27,1.58,7.36,7.36,0,0,1-2,2c-.17-.16-.13-.33-.06-.53a2,2,0,0,0,.2-1,1.37,1.37,0,0,1,.24-.71.93.93,0,0,0,.33-.78c0-.35-.17-.58-.54-.25s-.71.29-1,.59a.37.37,0,0,0-.19.48.75.75,0,0,1-.2.52.39.39,0,0,0-.19.5.73.73,0,0,1-.21.5.36.36,0,0,0-.21.46,7.07,7.07,0,0,1-1.65,2.52c-.29-.36.09-.77-.08-1.14l.06-.47a.18.18,0,0,0-.1-.3c-.14,0-.24,0-.28.18a17.38,17.38,0,0,1-3.14,3c-3.71,2.82-7.21,5.9-11,8.66-1.84,1.36-3.66,2.76-5.52,4.1a10.6,10.6,0,0,1-5.37,2.14c.65.23,1.29.46,2,.67a12.44,12.44,0,0,0,2,.63c.35.14.63.45,1,.48a10.12,10.12,0,0,0,2.92,1l.55,0v0a10.14,10.14,0,0,0,2.63,1.11c5.67,1.95,11.29,4,16.94,6,3.57,1.27,7.18,2.44,10.78,3.66,3.32,1.14,6.63,2.32,10,3.41,2.14.7,4.33,1.29,6.5,1.91a10.25,10.25,0,0,1,2.92,1.26c0,.27-.21.3-.43.27l-.69-.08-5.13-1.27c-2.94-.74-5.83-1.62-8.69-2.63-6.3-2.24-12.55-4.62-18.88-6.8-6.67-2.29-13.41-4.4-20.1-6.62-12.23-4-24.53-7.87-36.8-11.76-1.14-.36-2.3-.69-3.44-1-.75-.26-1.5-.54-2.26-.76-1.84-.55-3.64-1.24-5.51-1.67a52,52,0,0,0-7.64-2.18A80.83,80.83,0,0,0,125,122.6a36,36,0,0,0-9.84-.29,5.3,5.3,0,0,1-1.53.15c-.07-.37.19-.44.39-.54a7.61,7.61,0,0,1,2.93-.92,40,40,0,0,1,5.58-.24l5.74.53,6.35,1.51c1,.23,1.91.52,2.87.78,2.8.85,5.61,1.69,8.4,2.57,2.6.83,5.19,1.7,7.78,2.55.29.09.57.23.86,0,1.38-.93,2.93-1.59,4.27-2.59Z"/><path class="cls-3" d="M216.65,92a23,23,0,0,1,4.56,4.68,5.43,5.43,0,0,1,.78,1.27c1,2.47,2,4.92,2.87,7.45a10.82,10.82,0,0,1,.38,4.73,21.41,21.41,0,0,1-3,9.1,17.42,17.42,0,0,0-2,4.13,4.37,4.37,0,0,1-.77,1.5l-.61-.06c-1.55-.77-1.35-.37-1-2a13.36,13.36,0,0,0-.83-7.73,2.38,2.38,0,0,1-.11-.38s0-.06,0-.09c.21-.16.45-.07.67-.06l.66,0c-.61-.48-1.39-.49-2-1,.89-.49,1.93-.22,2.88-.75l-3.11-.38c-1.42-.18-2.77-.72-4.21-.81a.49.49,0,0,1-.49-.61,3.09,3.09,0,0,1,.16-.78,2.93,2.93,0,0,0,.08-1.66,2.22,2.22,0,0,1-.05-.89c.16-1,.36-2,.55-3.1a9.64,9.64,0,0,0,2,.72c-.13-1-.74-1.86-.91-2.9,1.67.15,3,1.24,4.72,1.3-.61-.59-1.17-1.18-1.72-1.79-.35-.39-.7-.8-1.07-1.18a1.83,1.83,0,0,1-.47-1.92,17,17,0,0,0,.47-2.25,1.16,1.16,0,0,0-.65-1.4c-.46-.22-.62-.49-.36-1a4,4,0,0,0,.13-3.74s0-.12.05-.24c.73.24.92,1,1.37,1.44s.7,1.21,1.2,1.74c.2-.39-.32-.62-.19-1Z"/><path class="cls-3" d="M213.22,90a2.93,2.93,0,0,1-.05,4.5,9.82,9.82,0,0,1-2.1-1.64,19.37,19.37,0,0,0-4.75-3.26c-.25-.11-.58-.17-.69-.51.35-.39.94,0,1.35-.43a4.43,4.43,0,0,1-1.83-.7,3.58,3.58,0,0,0-2-.72,1.61,1.61,0,0,0-.58,0,5.58,5.58,0,0,1-3.08.26l-.25-.14a.37.37,0,0,0-.46-.32.12.12,0,0,1-.14-.09.37.37,0,0,0-.44-.32.17.17,0,0,1-.16-.09,2.44,2.44,0,0,0-2.59-.8,1,1,0,0,1-.6-.09.36.36,0,0,0-.61-.09.49.49,0,0,1-.39-.07c-.17-.42-.7-.14-.92-.46a1.67,1.67,0,0,1,2-.84c.37.1.72.39,1.12.1a.47.47,0,0,1,.4.06.61.61,0,0,0,.61.25h1.19c1.58,0,3.17,0,4.75,0,.5,0,1.1-.06,1.29.64l-2,.15c0-.1-.11-.15-.21-.1s-.08.1-.07.14.17.16.3.14a2.26,2.26,0,0,0,1.05.22,8.46,8.46,0,0,1,2.75,0l0,0c0,.25.32.15.38.33s.15.28.28.24c1-.36,1.73.4,2.54.77.35.16.63.48,1.07.45a.11.11,0,0,1,.13.08.57.57,0,0,0,.66.52.51.51,0,0,1,.34.26.38.38,0,0,0,.43.36,3.54,3.54,0,0,1,1,.84A.39.39,0,0,0,213.22,90Z"/><path class="cls-3" d="M220,135.74c-.92-1.81-2-3.53-3-5.28-.32-.54-.3-.91.22-1.28.36.09.45.45.6.71,3.11,5.2,6.23,10.39,9.29,15.62a13.69,13.69,0,0,0,1.82,2.32,48.75,48.75,0,0,1,5.48,6.84,1.44,1.44,0,0,1,.36.79c-.33.21-.6,0-.87-.09-1.64-.52-3.28-1.08-4.93-1.59a1.12,1.12,0,0,1-.92-1c-.13-1.06-.41-2.1-.53-3.15a6.7,6.7,0,0,0-1.07-3c-.84-1.32-1.51-2.74-2.4-4Q222.13,139.11,220,135.74Z"/><path class="cls-3" d="M190.06,119.21a1.41,1.41,0,0,1,1.07-.4,68.32,68.32,0,0,1,11.42.88,1.7,1.7,0,0,1,.39.09c.41.14.5.34.22.65-.71.75-1.45,1.47-2.16,2.21a.71.71,0,0,1-.56.14,50,50,0,0,1-5.47-.29A7.55,7.55,0,0,1,190.06,119.21Z"/><path class="cls-2" d="M203.12,87.23a3.58,3.58,0,0,1,2,.72,4.43,4.43,0,0,0,1.83.7c-.41.44-1,0-1.35.43.11.34.44.4.69.51a19.37,19.37,0,0,1,4.75,3.26,9.82,9.82,0,0,0,2.1,1.64,1.85,1.85,0,0,1-2.63.85,32.81,32.81,0,0,1-4.87-3.3c-.78-.67-.94-.64-1.84-.15a9.47,9.47,0,0,0-3,2.53,2.54,2.54,0,0,1,.85-1.74,9,9,0,0,1,2-1.36c.57-.29.54-.38.26-1a13.85,13.85,0,0,1-.82-3A.2.2,0,0,0,203.12,87.23Z"/><path class="cls-3" d="M192,87.15a1.25,1.25,0,0,1,1.43.75q7,12.09,14.11,24.14a2.25,2.25,0,0,1,.18,2c-.35,0-.38-.32-.49-.5l-5.31-9.16c-.15-.25-.33-.49-.5-.74a2.21,2.21,0,0,0-.39-.8c-1.63-2.82-3.28-5.64-4.91-8.47Q194,90.76,192,87.15Z"/><path class="cls-2" d="M176.64,124.91a39.12,39.12,0,0,1-9.47,1c2-.68,4-1.13,5.93-1.87a22.87,22.87,0,0,1,6-1.83c.1-.5-.57-.43-.57-.91l4.32-.48a1.86,1.86,0,0,1-.65.9c-.25.27-.43.52-.18.88-1.48.6-3,1.12-4.41,1.81C177.27,124.55,177,124.74,176.64,124.91Z"/><path class="cls-2" d="M213.84,132.18l-.06.08c-1.53,1.8-3.58,2.19-5.79,2.09a23.07,23.07,0,0,1-5.59-1c.43-.3.87-.59,1.29-.91a1.52,1.52,0,0,1,1.13-.26c.49.07,1,.11,1.48.18a10,10,0,0,0,7.38-1.66,15.56,15.56,0,0,0,1.88-1.76,1.91,1.91,0,0,1-.41,1,1.76,1.76,0,0,0-.38,1C214.43,131.31,213.86,131.54,213.84,132.18Z"/><path class="cls-3" d="M205.85,96.92a12.38,12.38,0,0,1-1.36,0c-.73-.07-.84-.21-.87-.93,0-.36,0-.74,0-1.09s.18-.65.53-.84a.6.6,0,0,1,.85.21,6.27,6.27,0,0,0,2.37,1.8,1.09,1.09,0,0,1,.7,1.19c0,.52,0,1,0,1.62.71-.13.67-.94,1.13-1.28a4.32,4.32,0,0,1-1.1,4.73c-.21-.76-.43-1.49-.61-2.23a1.18,1.18,0,0,0-.8-.91c-1-.37-1-.39-.83-1.43C205.85,97.5,206,97.25,205.85,96.92Z"/><path class="cls-2" d="M192,87.15q2.06,3.6,4.12,7.19c1.63,2.83,3.28,5.65,4.91,8.47a2.21,2.21,0,0,1,.39.8l-.21,1.29c-1.17-1.8-2.15-3.7-3.24-5.54-.18-.3-.39-.6-.59-.9-.91-1.85-2-3.59-3-5.38s-2.11-3.69-3.16-5.53a.89.89,0,0,1-.22-.61A2.35,2.35,0,0,1,192,87.15Z"/><path class="cls-2" d="M191.13,123.91a2.27,2.27,0,0,0-.35-1.61c-.35-.78-.76-1.54-1.14-2.3a6.83,6.83,0,0,1,1.73,2.85,7.45,7.45,0,0,1,.47,4.1c-.15.77-.13.79.61,1.07s1.43.53,2.15.78c.34.11.4.27.2.58-.59.93-.87,1-2,.73s-2.12-.57-3.17-.87c-.22-.06-.47,0-.62-.26,2.08-.94,2.43-1.82,2.2-4.28C191.23,124.43,191.17,124.17,191.13,123.91Z"/><path class="cls-2" d="M220,135.74q2.15,3.36,4,6.89a8.28,8.28,0,0,1-.23,1.48,11.65,11.65,0,0,1-1.35-2.18c-.88-1.55-1.86-3-2.63-4.65C219.93,136.78,219.73,136.23,220,135.74Z"/><path class="cls-3" d="M189.76,84.22a7.61,7.61,0,0,1-1-1.46c-.09-.18-.19-.41,0-.51.84-.37,1.45-1.12,2.35-1.39a1.53,1.53,0,0,1,1.24,0c.29.28.64.16,1,.17a.5.5,0,0,1,.17.4c-.07.27.13.59-.14.87a2.33,2.33,0,0,0-2.84,1.34C190.4,84,190.21,84.26,189.76,84.22Z"/><path class="cls-2" d="M198.79,135.2c-1.68,1-3.41,1.84-5.14,2.7l-1.16.58a2.14,2.14,0,0,0-1.37,1.91,1.9,1.9,0,0,1-.17.56c-.4,0-.68-.34-1-.48.24-.51.49-1,.71-1.53a2.35,2.35,0,0,1,1.37-1.07c1.2-.55,2.42-1,3.64-1.54A14.61,14.61,0,0,1,198.79,135.2Z"/><path class="cls-3" d="M204.22,85.26c-.19-.7-.79-.63-1.29-.64-1.58,0-3.17,0-4.75,0H197a.61.61,0,0,1-.61-.25c2.16,0,4.32-.22,6.48,0a4.62,4.62,0,0,1,1.28.2,29,29,0,0,1,5.61,2.57c.19.12.41.21.51.45-.44,0-.72-.29-1.07-.45-.81-.37-1.5-1.13-2.54-.77-.13,0-.22-.12-.28-.24l-.38-.33,0,0C205.47,85.47,204.78,85.57,204.22,85.26Z"/><path class="cls-3" d="M191.38,86.21a1.32,1.32,0,0,1-.62-1.14c.1-1.17.1-1.17,1-1.09,0,0,.07-.08.12-.14-.05-.25-.51-.29-.38-.62s.46-.35.75-.38a3.11,3.11,0,0,1,2.11.38h0l0,.2h0a3,3,0,0,0-2.24,1.07c-.2.22-.47.49-.27.87v.83Z"/><path class="cls-1" d="M194.35,83.22a3.11,3.11,0,0,0-2.11-.38c-.29,0-.63.07-.75.38s.33.37.38.62c-.05.06-.09.15-.12.14-.89-.08-.89-.08-1,1.09-.29-.33-.88-.31-1-.85.45,0,.64-.26.81-.6a2.33,2.33,0,0,1,2.84-1.34c.27-.28.07-.6.14-.87.61.19.78.4.67,1.11A.75.75,0,0,0,194.35,83.22Z"/><path class="cls-3" d="M214.77,130.9a1.76,1.76,0,0,1,.38-1,1.91,1.91,0,0,0,.41-1,22.42,22.42,0,0,0,1.39-2.72,2.22,2.22,0,0,1-.08,2.28C216.22,129.37,215.49,130.13,214.77,130.9Z"/><path class="cls-2" d="M203.57,101.84c-.54.25-.63-.15-.71-.51-.12-.55-.18-1.12-.3-1.67a1.8,1.8,0,0,0-.56-1.14c.82-.06,1.17.17,1.29,1S203.48,101.05,203.57,101.84Z"/><path class="cls-1" d="M191.93,85.38c-.2-.38.07-.65.27-.87a3,3,0,0,1,2.24-1.07c-.1.18-.16.35.13.43l1.41.41c-.4.29-.75,0-1.12-.1a1.67,1.67,0,0,0-2,.84c.22.32.75,0,.92.46a2.34,2.34,0,0,1-1.33-.28C192.2,85,192.07,85.19,191.93,85.38Z"/><path class="cls-3" d="M218.88,124.79l.61.06A12,12,0,0,1,218,127l-.58-1.86a1.49,1.49,0,0,1,1-.08C218.62,125,218.82,125.06,218.88,124.79Z"/><path class="cls-3" d="M211.29,121.82c.17.37-.21.78.08,1.14h0c-.27-.09-.31,0-.18.23-.15.44-.55.65-1,1.09Z"/><path class="cls-3" d="M203.12,87.23a.2.2,0,0,1-.05.15,9.31,9.31,0,0,0-1.73.43,2,2,0,0,1-1.88-.32,5.58,5.58,0,0,0,3.08-.26A1.61,1.61,0,0,1,203.12,87.23Z"/><path class="cls-3" d="M195.42,85.73a2.44,2.44,0,0,1,2.59.8A8.47,8.47,0,0,0,195.42,85.73Z"/><path class="cls-3" d="M215,119.13a2,2,0,0,1-.2,1c-.07.2-.11.37.06.53-.07.26-.31.32-.63.53A8.69,8.69,0,0,1,215,119.13Z"/><path class="cls-3" d="M215,117.39c.37-.33.54-.1.54.25a.93.93,0,0,1-.33.78,4.54,4.54,0,0,1,.08-.55C215.36,117.58,215.24,117.46,215,117.39Z"/><path class="cls-3" d="M193.38,81c-.33,0-.68.11-1-.17C192.75,80.82,193.11,80.66,193.38,81Z"/><path class="cls-3" d="M191.38,86.21h.54C191.84,86.54,191.75,86.54,191.38,86.21Z"/><path class="cls-3" d="M211.05,88.17a.57.57,0,0,1-.66-.52A1,1,0,0,1,211.05,88.17Z"/><path class="cls-3" d="M194.21,85.55a.36.36,0,0,1,.61.09A.69.69,0,0,1,194.21,85.55Z"/><path class="cls-3" d="M211,121.23c0-.15.14-.23.28-.18a.18.18,0,0,1,.1.3Z"/><path class="cls-3" d="M213.22,90a.39.39,0,0,1-.43-.36A.52.52,0,0,1,213.22,90Z"/><path class="cls-3" d="M211.82,88.79a.38.38,0,0,1-.43-.36A.52.52,0,0,1,211.82,88.79Z"/><path class="cls-3" d="M213.83,118.46A.37.37,0,0,1,214,118,.43.43,0,0,1,213.83,118.46Z"/><path class="cls-3" d="M198.75,87a.37.37,0,0,1,.46.32A.54.54,0,0,1,198.75,87Z"/><path class="cls-3" d="M213.44,119.48a.39.39,0,0,1,.19-.5A.47.47,0,0,1,213.44,119.48Z"/><path class="cls-3" d="M198.17,86.62a.37.37,0,0,1,.44.32A.5.5,0,0,1,198.17,86.62Z"/><path class="cls-3" d="M213,120.44a.36.36,0,0,1,.21-.46A.41.41,0,0,1,213,120.44Z"/><path class="cls-3" d="M216.65,92l-.06.43a.67.67,0,0,1-.24-.4c0-.09,0-.22.12-.2S216.59,91.93,216.65,92Z"/><path class="cls-3" d="M211.18,123.19c-.13-.22-.09-.32.18-.23A.27.27,0,0,1,211.18,123.19Z"/><path class="cls-4" d="M194.43,83.43l0-.2c.09,0,.19,0,.19.11S194.48,83.4,194.43,83.43Z"/><path class="cls-2" d="M122.49,120.76a40,40,0,0,0-5.58.24,7.61,7.61,0,0,0-2.93.92c-.2.1-.46.17-.39.54a5.3,5.3,0,0,0,1.53-.15,36,36,0,0,1,9.84.29,80.83,80.83,0,0,1,9.62,2.23c.81,1.42,1.85,2.69,2.76,4q5.35,7.84,10.74,15.67a1.44,1.44,0,0,1,.41.78c-.25.15-.45,0-.66-.1-2.05-.77-4.14-1.49-6.16-2.35-3.25-1.39-6.61-2.47-9.93-3.7a48.83,48.83,0,0,1-7.21-3.2A39.38,39.38,0,0,1,114,127.91a6.48,6.48,0,0,1-1.54-4.4,2,2,0,0,1,.72-1.47,5.5,5.5,0,0,1,3.1-1.48,20.19,20.19,0,0,1,5.38.11Z"/><path class="cls-2" d="M142.22,127c1.87.43,3.67,1.12,5.51,1.67.76.22,1.51.5,2.26.76.91,2,2,4,3,6q3.36,6.59,6.74,13.16a5.91,5.91,0,0,1,.24.61c-.23.31-.45.12-.65,0-1.38-.49-2.75-1-4.14-1.48a1.78,1.78,0,0,1-.95-.82L145.78,133c-1-1.68-2-3.36-3.06-5A3.57,3.57,0,0,1,142.22,127Z"/><path class="cls-1" d="M193.87,142a.47.47,0,0,1,.55,0Z"/><path class="cls-1" d="M204.22,85.26c.56.31,1.25.21,1.8.55a8.46,8.46,0,0,0-2.75,0,2.26,2.26,0,0,1-1.05-.22.17.17,0,0,0,0-.18Z"/><path class="cls-3" d="M202.2,85.41a.17.17,0,0,1,0,.18c-.13,0-.25,0-.3-.14s0-.13.07-.14S202.16,85.31,202.2,85.41Z"/><path class="cls-1" d="M206,85.78l.38.33C206.31,85.93,206,86,206,85.78Z"/></svg>