<svg id="frames" xmlns="http://www.w3.org/2000/svg" viewBox="0 0 384 216"><defs><style>.cls-1{fill:#19253c;}.cls-2{fill:#424c5c;}</style></defs><path class="cls-1" d="M279.2,80.17a2.35,2.35,0,0,1,1.77,1,14.41,14.41,0,0,1,2,3c.29.56.57,1.13.85,1.69.07.16.12.33,0,.46a.44.44,0,0,1-.55,0A1.1,1.1,0,0,1,283,86a28.66,28.66,0,0,0-3.48-3.4,5,5,0,0,1-1.09-1.29C278,80.6,278.33,80.13,279.2,80.17Z"/><path class="cls-2" d="M280.8,96.76a.26.26,0,0,1-.15.3.42.42,0,0,1-.47,0,2.41,2.41,0,0,1-.58-1.52c0-.18.14-.29.32-.31s.47,0,.55.31S280.68,96.32,280.8,96.76Z"/><path class="cls-2" d="M304.6,72.32c-.05.06-.09.16-.17.19-.52.21-1,.41-1.57.6a.27.27,0,0,1-.33-.15.19.19,0,0,1,.09-.25,4.07,4.07,0,0,1,1.62-.68A.3.3,0,0,1,304.6,72.32Z"/><path class="cls-2" d="M265.6,73.22a3.27,3.27,0,0,1-2,0,.16.16,0,0,1-.09-.24.36.36,0,0,1,.22-.16A3.26,3.26,0,0,1,265.6,73.22Z"/><path class="cls-2" d="M171.31,69.32c-.2,0-.37,0-.42-.21s.09-.26.21-.31a2.64,2.64,0,0,1,.66-.2c.32,0,.82-.13.86.25s-.46.29-.75.35Z"/></svg>