<svg id="frames" xmlns="http://www.w3.org/2000/svg" viewBox="0 0 384 216"><defs><style>.cls-1{fill:#0f1b33;}.cls-2{fill:#fc0101;}.cls-3{fill:#fafafa;}.cls-4{fill:#d6d7d0;}</style></defs><path class="cls-1" d="M93,159.22l25.24-79.4a1,1,0,0,1,1-.8,3,3,0,0,1,.6,0h25.59c1.14,0,1.38.15,1.72,1.22q3.16,10,6.3,20c1,3.31,2,6.62,3.05,9.93a47.87,47.87,0,0,0-4.72,1.89,1,1,0,0,1,.69.13c-1.84,1-3.8,1.76-5.72,2.87l6.18,2.24a2.52,2.52,0,0,0,1.28.13,39.85,39.85,0,0,1,5.47-.49,11.18,11.18,0,0,0,4.33-1.07,2,2,0,0,0,1-.79l-2-.12a7.44,7.44,0,0,1,1.9-.57c2.65-.6,5.35-1,8-1.47.33,0,.67,0,1,.06a30.13,30.13,0,0,0,7.35,0c-.13,1.64-1.2,2.74-2.32,3.83a1.74,1.74,0,0,0,.87.3,38.08,38.08,0,0,1,5.06,1.12c1.16.35,1.37.23,2-.9a2.08,2.08,0,0,0-1-.35l-2.26-.43c-1.26-.25-1.39-.37-1.41-1.62s-.1-2.79-.19-4.18a4.9,4.9,0,0,0-2.65-4,.77.77,0,0,0-.85-.07c-.44-.14-.84.19-1.26.16a17.58,17.58,0,0,0-5.28.91,6.89,6.89,0,0,1-2.25.32,2.53,2.53,0,0,0-1.85.58,11.61,11.61,0,0,1-3.29,1.38.48.48,0,0,1-.48,0c-.37-.29-.76-.13-1.15-.08a6.7,6.7,0,0,1-1.48.15c-.49-.23-1.08-.1-1.56-.39l4.56-.6c.2,0,.39-.06.59-.09s.55-.21.52-.59c0-.2,0-.4,0-.6q0-7.7,0-15.4v-.4c0-.83-.12-.89-.83-.46-1.71,1-3.57,1.79-5.25,2.88-.23.15-.56.42-.79.09s.1-.56.33-.74c1.34-1.09,2.55-2.33,3.89-3.43a13.68,13.68,0,0,0,2.24-1.93,1.51,1.51,0,0,0,.41-1q0-3.6,0-7.2c0-1,.17-1.25,1.25-1.29a17.37,17.37,0,0,1,2.5,0c1.8.21,3.59.07,5.39.13.26,0,.53-.1.78.07-.45,1-1.23,2-1.31,3.18,0,.32-.07.32.39.29.06,0,.15,0,.18,0,.41.54,1.15.67,1.52,1.26.12.19.23.49.61.44A4.29,4.29,0,0,1,177,83a1.26,1.26,0,0,1,1.19-1,.25.25,0,0,1-.1.26,2.11,2.11,0,0,0-.71,1.33c-.14.62.1.87.71.77,1-.16,1.1-.29,1.23-1.28a1,1,0,0,1,.26-.71c.14-.11.16,0,.23.07s-.05.26-.07.39c-.2,1.2-.2,1.2,1,1.39a22.92,22.92,0,0,1,5.81,1.68,14.85,14.85,0,0,0,3.62,1,7.21,7.21,0,0,0,1.38.78c2.17,1.21,4.25,2.58,6.47,3.72a13.15,13.15,0,0,0,2.74,1.15c.33.08.69.21,1,0,.55-.46,1.25-.77,1.6-1.45a2.75,2.75,0,0,0,1.32-2,1.89,1.89,0,0,0-1.14-2.18c-.69-.34-1.39-.63-2.1-.92a30,30,0,0,0-7-2.06l-.82-.25a8,8,0,0,0-3.6-1.37c-2.24-.29-4.49-.52-6.75-.65A5.09,5.09,0,0,0,180,82a.7.7,0,0,0-.94-.3c-.29.09-.55.36-.91.25.36-.68.33-.66-.21-1.42-.33-.48-.88-.79-1.09-1.38-.11-.32-.38-.27-.66-.16s-.45.53-.82.22c-.07-.56.35-.62.73-.7s.86-.33,1.09.12.65.49,1.08.48h.1c7.93,0,15.87,0,23.8.09a35.94,35.94,0,0,1,5.86.41,32.18,32.18,0,0,1,6.92,2,27.72,27.72,0,0,1,6.88,4.08,22.59,22.59,0,0,1,3.51,3.54c.18.23.31.52.63.64.24-.3.12-.64.12-1q0-4.05,0-8.1a7.09,7.09,0,0,1,0-.8c.07-.67.26-.85.94-.88s1.14,0,1.7,0c2,0,4.07,0,6.1,0,5.83.17,11.67,0,17.5.1,4.29.06,8.59,0,12.88.09a27,27,0,0,1,10.91,2.67,28.25,28.25,0,0,1,7.25,5,21.56,21.56,0,0,1,3.09,3.64,30.52,30.52,0,0,1,2.77,4.8,1.08,1.08,0,0,0,.36.57c0-.55,0-1.14,0-1.72a1.79,1.79,0,0,1,1.21-1.67,1.31,1.31,0,0,1,1.73,1.15,20,20,0,0,1,.14,2.19,55.36,55.36,0,0,1-1.67,15.86,29.3,29.3,0,0,1-6.64,12.6,27.63,27.63,0,0,1-9.16,6.65,27.23,27.23,0,0,1-10.75,2.3c-2.37,0-4.73,0-7.1,0a5.44,5.44,0,0,0-2.58.6l-2.24,1.1a1,1,0,0,1-.56.19c-.19,0-.42,0-.53-.2s0-.38.15-.53a5.63,5.63,0,0,1,1-.94c-.17-.33-.44-.2-.64-.2h-3c-.38,0-.56.15-.55.53,0,.1,0,.2,0,.3,0,2.73-.15,5.46-.11,8.19.08,5.94,0,11.87,0,17.8,0,.23,0,.47,0,.7a1.34,1.34,0,0,1-1.47,1.48c-1.33,0-2.66-.05-4-.05h-15.2c-1.2,0-1.63.35-1.59-1.61.08-3.3.07-6.6.1-9.9a1,1,0,0,0-.11-.63,9.88,9.88,0,0,1-3,0,1.41,1.41,0,0,1-1.18-.85c-.64-1.35-1.31-2.69-1.87-4.07-1-2.56-2.34-5-3.21-7.64a5,5,0,0,0-.86-1.34l-3.57-4.69c.15-.45.31-.9.47-1.36,1.74,2.23,3.49,4.45,5.22,6.69a3,3,0,0,1,.38.81c.62,1.61,1.24,3.23,1.87,4.84a67.25,67.25,0,0,0,2.92,6.34c.16.33.32.65.76.7,2.17.27,4.26.14,6.05-1.32.52-.42.53-.55.15-1.15a23.32,23.32,0,0,0-2.75-3.28,52,52,0,0,0-7.13-6.38,15.45,15.45,0,0,1-2.91-2.86q-4.22-5.46-8.46-10.88c-.59-.77-1.19-1.52-1.79-2.28-.12-.16-.26-.32-.48-.11s-.31.28-.18.51.27.38.4.57l2.63,3.51a2.63,2.63,0,0,0,.6,2.89,30.71,30.71,0,0,1,2,2.58,29.86,29.86,0,0,1-6.79,1.55c-3.07.39-6.17.39-9.26.56-1.92.11-3.86-.1-5.79-.16-.66,0-1.33,0-2,0,0,.33.28.37.46.47,6.66,3.57,13.25,7.29,19.66,11.29a136,136,0,0,1,13,9.13,5.55,5.55,0,0,1,1.57,1.86l-1.32,0a29,29,0,0,0-3.28-2.78,116.68,116.68,0,0,0-15.69-10.65c-4.23-2.46-8.53-4.83-12.79-7.23s-8.56-4.76-13-6.76c-4.22-1.9-8.46-3.75-12.63-5.78-3.23-1.57-6.65-2.72-10-4.06a122.72,122.72,0,0,0-13.46-4.74c-4.6-1.26-9.18-2.57-13.88-3.39a52.07,52.07,0,0,0-12.83-.89,8.1,8.1,0,0,0-1,.11c-.84.18-1.17.59-1.23,1.53a1.56,1.56,0,0,0-.55,2.17,6,6,0,0,0,.65,1.12c1.2,1.6,2.74,2.9,4,4.46a1.06,1.06,0,0,0,.23.19c3.44,2.61,6.63,5.55,10.24,8l-.54,1.38c-.15.39,0,.53.41.52l3.16,0c.39.2.78.39,1.15.61q4.15,2.48,8.4,4.82a1.61,1.61,0,0,0,1.11.35c-4-7.57-7.75-15.13-11.84-22.52,1.64.3,3.23.77,4.83,1.23a43.58,43.58,0,0,1,4.75,1.49c1,2.33,2,4.66,3,7,2.4,5.52,4.82,11,7.22,16.56a2.38,2.38,0,0,0,1.25,1.34c1.83.86,3.65,1.78,5.47,2.66.19.09.38.31.62.1a2.58,2.58,0,0,0-.3-1q-2.59-6.54-5.19-13.08c-1.42-3.59-2.88-7.16-4-10.87a4.1,4.1,0,0,1,1.14.36,338.26,338.26,0,0,1,32.56,14.22c3.31,1.64,6.54,3.45,9.89,5a98.44,98.44,0,0,1,10.36,5.6c5.42,3.33,10.71,6.85,16.14,10.17a33.42,33.42,0,0,1,4.16,2.92c-.32.05-.65.12-1,.16a53.37,53.37,0,0,1-7.47.41,151,151,0,0,1-25.8-2.64c-.73-.13-1.47-.23-2.2-.35l0,.2c1.35.46,2.77.67,4.14,1.08-.15,1.89-.11,3.79-.1,5.69,0,1.11-.51,1.46-1.51,1.46q-18.13,0-36.29,0c-1,0-1.21-.12-1.53-1.12l-2.52-7.86a12.43,12.43,0,0,0-.53-1.44c-.34-.74-.3-.77-1.1-.77H120.58c-1.06,0-.91.09-1.15.86-.92,3-1.87,6-2.84,9-.33,1-.51,1.15-1.56,1.16l-6.29.08c-4.19.06-8.38.12-12.58.22-.89,0-1.79.1-2.69.07s-1.23-.42-1-1.28M199.4,81.65c.19-.09.42-.11.52-.37-2-.27-3.7.5-5.45,1.49a1.47,1.47,0,0,0,1.44.15c.67-.28,1.35-.54,2-.8,1.26.3,2.46.77,3.69,1.16A4.86,4.86,0,0,0,199.4,81.65ZM207.18,116a.81.81,0,0,0-.43-.65c-.08.31.16.61,0,.86-.2.63-.41,1.26-.61,1.89a6.54,6.54,0,0,1-3,3.33,4.43,4.43,0,0,1-3.37.44,6.29,6.29,0,0,1-2.9-1c-.18-.13-.39-.28-.63-.09l-2.62,2.06,1.21,1a5.64,5.64,0,0,0,3.57,1.36,10.14,10.14,0,0,0,5.27-1.31,4,4,0,0,0,1.51-1.41,27.45,27.45,0,0,0,1.46-2.73.66.66,0,0,0,.44-.21,17.24,17.24,0,0,0,2.41-2.82,5.64,5.64,0,0,0-1.68-1.43,5.61,5.61,0,0,0,.67,1.61c0,.13.07.27-.06.36a.3.3,0,0,1-.44-.07A6.84,6.84,0,0,0,207.18,116ZM178.37,85.63a4.75,4.75,0,0,0-1.65.1c1.47,2.12,3,4,4.54,5.94s2.9,3.9,4.62,5.79l.46-1.49c1.54,1.78,2.93,3.7,4.39,5.55s2.75,3.51,4.12,5.26c.11.14.22.41.46.24a.43.43,0,0,0,.1-.62c-.15-.22-.32-.43-.48-.63q-5.62-7.14-11.24-14.27c-1.42-1.81-2.85-3.6-4.27-5.41C179.15,85.74,178.9,85.37,178.37,85.63Zm15.62,23c.33-.3.21-.53,0-.84-1.81-2.27-3.59-4.55-5.4-6.82-.12-.15-.19-.46-.55-.33,0,1.86,0,3.72,0,5.59,0,.52.2.7.68.74a11.31,11.31,0,0,1,2.44.53c.13,0,.46,0,.29.34a1.21,1.21,0,0,1-.77-.1,18.54,18.54,0,0,0-3.14-.52c-1.19-.12-2.38-.25-3.57-.36a15.94,15.94,0,0,0-3.59,0,12.4,12.4,0,0,1,2.81,3.2,14,14,0,0,0,1.77,1.76,1.46,1.46,0,0,0,.8.38,10.24,10.24,0,0,0,5.21-.22,3.49,3.49,0,0,0,2.21-1.7C193.4,109.7,194,109.31,194,108.63Zm-12.05,19c.19-.14.36-.29.56-.41a48,48,0,0,0,7.61-5.43,52.26,52.26,0,0,0,7.9-8.84l.53-.72c.11-.15.25-.25.42-.15a.27.27,0,0,1,.08.35c-.07.22-.15.45-.23.66a20.85,20.85,0,0,1-2,3.59,16.69,16.69,0,0,0-1.29,1.86c-.48.17-.49.68-.74,1a2.66,2.66,0,0,0,.93-.76c.2-.33.6-.39.86-.64a19.44,19.44,0,0,0,5.19-8.06c.09-.26,0-.73.43-.66s.15.51.13.78a31.25,31.25,0,0,1-.84,3.69c-.06.27-.28.55,0,.83a8.84,8.84,0,0,0,2.92-1.67c1.37-1.15,1.34-1.18,1-3a9.31,9.31,0,0,0-2.07-4.15,1.63,1.63,0,0,0-.52-.46c-.87-.41-1.75-.81-2.64-1.18a2.46,2.46,0,0,0-3,1.16c-.77,1.4-1.56,2.78-2.4,4.14a30.21,30.21,0,0,1-4.76,5.76c-3.1,3-6,6.27-9.32,9a11.32,11.32,0,0,1-4.68,2.53c-.11,0-.26,0-.31.27.58.28,1.16.58,1.76.86a36.7,36.7,0,0,0,3.42,1.61c.57.25,1,.8,1.61.88a.76.76,0,0,0,.05-.71,1.25,1.25,0,0,1,.76-1.52c1.6-.9,3.17-1.84,4.82-2.64a9.8,9.8,0,0,0,2-1.16c-1.66.63-3.3,1.32-4.95,2A16.23,16.23,0,0,1,181.94,127.62Zm77-28.83c-.15-.1-.18-.13-.2-.13-3.17,0-6.33,0-9.49,0-.57,0-.67.23-.66.72,0,2.09,0,4.19,0,6.29,0,1.23,0,2.46-.07,3.69-.09,1.8,0,3.6,0,5.4,0,.43.16.59.59.59s.93.07,1.39.08c2.16,0,4.33,0,6.49.07a15.78,15.78,0,0,0,4.29-.08,9.07,9.07,0,0,0,6.8-6,3,3,0,0,0,.27-1.82,5,5,0,0,0-1.54.6l-5.89,3c-.27.13-.54.38-1,.06,1-.9,2.21-1.29,3.29-2.13-.45.09-.76.15-1.08.23l-5.23,1.18c-.33.08-.69.25-1-.09.13-.37.45-.52.73-.69,3.38-2.13,6.61-4.49,9.94-6.69l.34-.22c.25-.16.25-.35.09-.58a9.65,9.65,0,0,0-1.65-1.73,1.16,1.16,0,0,0-1.1-.26,37.69,37.69,0,0,0-4.45,1.14c-1.69.6-3.43,1.09-5.15,1.6a3,3,0,0,1-2,.06C254.76,101.56,256.73,100.1,258.91,98.79ZM205.19,86.86a3.27,3.27,0,0,1,.26,2.64,36.1,36.1,0,0,1-1.2,3.5,1.21,1.21,0,0,0,.45,1.53A22.51,22.51,0,0,1,206.48,96c.24.21.6.49.43.82s-.59.1-.9,0a9.85,9.85,0,0,0-1.77-.48A31.3,31.3,0,0,1,206.12,99c-.51.33-.9,0-1.3-.07s-.55,0-.5.41a4.83,4.83,0,0,1-.75,3.14c-.18.32-.31.67-.47,1s-.25.73-.06,1c.48.57.81,1.32,1.68,1.46.66.1,1.32.25,2.05.4-.45.44-1,.13-1.4.37.27.41.93.38,1,.95-.4.23-.71-.36-1.13-.12a9.9,9.9,0,0,1,.74,2.6c.17.91.38,1.82.46,2.75a1.06,1.06,0,0,0,.34.9,27.44,27.44,0,0,1,2.92,2.56,13,13,0,0,0,1.85-3.58c.72-2.12,1.39-4.25,2.08-6.37a17.69,17.69,0,0,0,.85-3.59c.19-2,.46-3.91-.36-5.81a11.88,11.88,0,0,0-1.07-2.14q-1.47-2.2-3-4.37a3.41,3.41,0,0,0-1-1c-.16.18-.07.34-.06.5s.33.58,0,.7-.37-.35-.51-.58c-.3-.48-.58-1-.86-1.46A3.88,3.88,0,0,0,205.19,86.86Zm20.92,54.58a2.19,2.19,0,0,0,.16-1.08c.19-2.46,0-4.92.08-7.38.15-3.33,0-6.67,0-10,0-.2,0-.4,0-.6a.28.28,0,0,0-.22-.29c-.13,0-.24,0-.31.18a12.86,12.86,0,0,1-2.24,2.53,29.84,29.84,0,0,1-7.85,5.24c-.25.12-.6.15-.7.54.72.93,1.47,1.86,2.18,2.83a16.64,16.64,0,0,0,3.83,3.89C222.82,138.53,224.4,140,226.11,141.44ZM190.23,98.69,196,106l.33-.43c.56-.81,1-1.76,2.05-2.07.17,0,.22-.23.27-.39a6.62,6.62,0,0,0,.52-3.78c-.23-.88-.15-.9-1.06-.89-2.06,0-4.11.06-6.17.11C191.41,98.58,190.92,98.64,190.23,98.69Zm-24.82,18.18c-.91.26-1.73.55-2.57.7a26.63,26.63,0,0,1-2.68.21l-.9,0c-.18,0-.39.07-.35.26.13.55.3,1.09.48,1.63.13.36.51.4.8.53l4.32,1.84a1.4,1.4,0,0,0,.9.23Zm-32.84-10.09-.2,0c-.36,1.2-.71,2.4-1.07,3.6-.09.3,0,.42.32.48l2.25.49Zm60.71-16.63a11.81,11.81,0,0,1,.63,2.82c0,.2.07.43.34.42s.32-.28.3-.51c0-.44-.12-.86-.13-1.3A1.46,1.46,0,0,0,193.28,90.15Zm5.84,3.66c.53-.76.53-.76-.27-.93A2,2,0,0,0,199.12,93.81Zm-16.37,59.87c.06,0,.12.1.17.1s.39.14.35-.08S182.94,153.54,182.75,153.68Z"/><path class="cls-1" d="M221.58,43.84a2.48,2.48,0,0,1,1.29-.48,138.76,138.76,0,0,0,15.43-4,63.36,63.36,0,0,0,6.6-2.26c1.23-.54,2.34-1.3,3.5-1.95a13.89,13.89,0,0,0,2.27-1.49c.92-.79,2-1.47,2.25-2.87a11.71,11.71,0,0,0,.54-2.46,10.53,10.53,0,0,0-.86-2.95c-.38-.93-1.16-1.58-1.55-2.48-.22-.51-.78-.72-1.1-1.14a8.72,8.72,0,0,0-2.61-2,2.69,2.69,0,0,0-.54-.26,18.69,18.69,0,0,0-7.86-1,87.56,87.56,0,0,0-13.56,2.43c-1,.23-2,.42-3,.7A34.63,34.63,0,0,0,215.68,24a6,6,0,0,0-.75.48,2.4,2.4,0,0,1-1.3.43c-.23,0-.5,0-.59-.25s.13-.35.26-.5a8,8,0,0,1,3.12-2c4.3-1.93,8.88-2.89,13.41-4a48.7,48.7,0,0,1,12.09-1.3,19.81,19.81,0,0,1,7,1.39,10.63,10.63,0,0,1,5.26,4.28A14.84,14.84,0,0,1,256,25.92a8.4,8.4,0,0,1,0,4.53,6.38,6.38,0,0,1-2.64,3.73,32,32,0,0,1-10.38,5c-6.71,1.86-13.47,3.53-20.33,4.72A1.76,1.76,0,0,1,221.58,43.84Z"/><path class="cls-2" d="M187.75,155.06c-1.37-.41-2.79-.62-4.14-1.08l0-.2c.73.12,1.47.22,2.2.35a151,151,0,0,0,25.8,2.64,53.37,53.37,0,0,0,7.47-.41c.33,0,.66-.11,1-.16a4,4,0,0,0,1.51-.11l1.32,0c.09.79-.1,1.11-.87,1.41a14.9,14.9,0,0,1-4.28.88,79.84,79.84,0,0,1-11.47,0,91.42,91.42,0,0,1-13.38-2.16c-1.55-.33-3.07-.75-4.61-1.12A5.73,5.73,0,0,0,187.75,155.06Z"/><path class="cls-1" d="M207.71,15.57a2,2,0,0,1,.54.09.71.71,0,0,1,.49,1.09,5.12,5.12,0,0,1-1.47,1.74,33.78,33.78,0,0,1-3.33,2.09c-3.58,2.33-7.5,4.05-11.23,6.11-1.5.82-2.94,1.76-4.4,2.64-.14.09-.25.24-.4.28s-.55.11-.71-.15.05-.39.18-.52c.82-.82,1.43-1.81,2.33-2.58a34.28,34.28,0,0,0,3.22-3.27,11.51,11.51,0,0,1,1.79-1.35,27.7,27.7,0,0,1,2.48-1.82,33.92,33.92,0,0,1,8-3.93A8.64,8.64,0,0,1,207.71,15.57Zm-16.59,11,0,0,.69-.33c4.29-2.5,8.77-4.65,13-7.31a13.12,13.12,0,0,0,2.13-1.49,1.28,1.28,0,0,0,.58-1.07,2.76,2.76,0,0,0-1.14.19,26,26,0,0,0-3.07,1.19A41.14,41.14,0,0,0,191.69,26Z"/><path class="cls-1" d="M57.79,51.59a8.27,8.27,0,0,1,2.1.85,29.75,29.75,0,0,1,5.89,4.4c2.44,2.12,4.81,4.31,7.16,6.54a11.48,11.48,0,0,1,.94,1,.45.45,0,0,1,0,.63c-.25.29-.44,0-.6-.08-1.07-.77-2.18-1.49-3.25-2.26-1.94-1.39-3.84-2.84-5.83-4.17-1.26-.84-2.49-1.73-3.76-2.55A19.75,19.75,0,0,1,57,53.13,1,1,0,0,1,56.72,52C56.89,51.67,57.29,51.62,57.79,51.59Z"/><path class="cls-1" d="M223.49,54.1a1.78,1.78,0,0,1,1-.77,58.48,58.48,0,0,1,14.77-3.28,9.73,9.73,0,0,1,3.76.16c.33.1.67.17.76.54s-.21.68-.5.92a3.94,3.94,0,0,1-1.62.71,28.75,28.75,0,0,1-5.55.6q-4.94.27-9.85.78a12.83,12.83,0,0,0-1.46.34A2.08,2.08,0,0,1,223.49,54.1Z"/><path class="cls-1" d="M93.27,76.4a1.83,1.83,0,0,1,1,.55A18.21,18.21,0,0,1,97,79.63c1.59,1.93,2.92,4.05,4.33,6.11a6.27,6.27,0,0,1,.51,1c.08.18.14.39-.07.54s-.43.06-.6-.14a5.11,5.11,0,0,0-.75-.79,30.43,30.43,0,0,1-4.31-4.1,32.45,32.45,0,0,1-3.38-4,2,2,0,0,1-.31-.81A.77.77,0,0,1,93.27,76.4Z"/><path class="cls-1" d="M252.52,75.69a4.44,4.44,0,0,1,1.83-1.46c1.68-1,3.14-2.2,4.76-3.24a17.14,17.14,0,0,1,4.06-2.41,6.54,6.54,0,0,1,.86-.26c.41-.06.86,0,1.06.35a1.09,1.09,0,0,1-.19,1.2,5.54,5.54,0,0,1-1.4,1.1,72.12,72.12,0,0,1-8.07,4c-.8.36-1.7.5-2.5.89C252.82,75.92,252.66,75.9,252.52,75.69Z"/><path class="cls-1" d="M219.05,69.79a1,1,0,0,1,.87,1.21,2.44,2.44,0,0,1-1,1.18c-1.06.66-2.12,1.31-3.16,2a56.12,56.12,0,0,1-5.46,2.93,2.26,2.26,0,0,1-.44.22c-.21.05-.47.2-.62-.08s.08-.39.22-.51c1-.84,2-1.63,2.92-2.5s2-1.67,3-2.53a9.44,9.44,0,0,1,3.37-1.87A1.55,1.55,0,0,1,219.05,69.79Z"/><path class="cls-1" d="M53,74.51a32.4,32.4,0,0,1,10.85,2.38c.17.07.42.13.37.39s-.28.21-.48.22a3.9,3.9,0,0,1-1.18,0,41.56,41.56,0,0,0-7-.94c-1.9-.08-3.73-.67-5.62-.76-.23,0-.34-.19-.49-.3a.3.3,0,0,1,0-.55,3,3,0,0,1,1.33-.39C51.56,74.5,52.29,74.51,53,74.51Z"/><path class="cls-1" d="M234.75,78.22a14.14,14.14,0,0,1,2.55-2.31c.64-.5,1.23-1.06,1.86-1.57.91-.72,1.81-1.46,2.77-2.11a6.6,6.6,0,0,1,1.71-.76.92.92,0,0,1,1.06.36c.25.35.07.68-.12,1a3.48,3.48,0,0,1-1,1.08,31.47,31.47,0,0,1-5.31,3.2,13.84,13.84,0,0,0-1.55.86A2.78,2.78,0,0,1,234.75,78.22Z"/><path class="cls-1" d="M114.79,17c0-1.66.14-3.32.28-5a6.78,6.78,0,0,1,.24-1.27.94.94,0,0,1,1.11-.56.39.39,0,0,1,.31.35,2.91,2.91,0,0,1,0,.59A91.26,91.26,0,0,0,116.1,22c0,.2,0,.4,0,.6a.62.62,0,0,1-.65.61c-.46,0-.41-.33-.45-.62A41.43,41.43,0,0,1,114.79,17Z"/><path class="cls-1" d="M152.3,23.62a4.64,4.64,0,0,1-.67,1.31,23,23,0,0,1-2.57,2.91A41.09,41.09,0,0,0,145.88,31c-.17.2-.36.34-.58.16s-.09-.41,0-.54c.92-1.07,1.09-2.53,1.85-3.66a11.29,11.29,0,0,1,3.35-3.53,1.51,1.51,0,0,1,1.41-.22A.49.49,0,0,1,152.3,23.62Z"/><path class="cls-1" d="M288.75,91c.15-1.06.29-2,.36-3a23.24,23.24,0,0,0-.23-5.07,6.59,6.59,0,0,1-.1-1.09c0-.88.59-1.22,1.38-.82a1.9,1.9,0,0,1,1,1.48,5.22,5.22,0,0,1,0,1.89,26.51,26.51,0,0,1-1.87,6A.8.8,0,0,1,288.75,91Z"/><path class="cls-1" d="M83.88,52.52a1.18,1.18,0,0,1,1,.54c1.23,1.31,2.44,2.63,3.67,3.94l2.91,3.14c.13.14.35.27.21.5a.45.45,0,0,1-.63.12,3.25,3.25,0,0,1-1-.66c-1.8-2.09-3.9-3.88-5.81-5.87-.23-.24-.48-.46-.71-.71s-.42-.38-.26-.68A.72.72,0,0,1,83.88,52.52Z"/><path class="cls-1" d="M153.61,87.91c-.34,0-.37-.18-.27-.45a3.7,3.7,0,0,1,.9-1.3,19.29,19.29,0,0,1,4.55-3.75c.05,0,.1-.11.16-.12.32,0,.66-.46,1,0s-.07.62-.28.86a25.94,25.94,0,0,1-2.83,2.5c-.67.53-1.31,1.11-2,1.69A1.83,1.83,0,0,1,153.61,87.91Z"/><path class="cls-1" d="M138.57,71.58a5.21,5.21,0,0,1,1.05-1.86c.9-1.48,2.08-2.75,3.08-4.15a.61.61,0,0,1,.28-.27c.38-.12.76-.52,1.19-.12s.19.8,0,1.18a9.57,9.57,0,0,1-2.33,2.7c-.9.78-1.85,1.51-2.71,2.33-.15.15-.28.42-.56.18Z"/><path class="cls-1" d="M210.31,46.5a.83.83,0,0,1-.73.47,80.31,80.31,0,0,0-8.3,1.7,34.86,34.86,0,0,0-4.81,1.3c-.19.08-.28.07-.39-.09s0-.31.14-.38a8.22,8.22,0,0,1,.83-.3c3.77-1.1,7.6-2,11.45-2.76C209.08,46.32,209.72,46.07,210.31,46.5Z"/><path class="cls-2" d="M212.13,131.43a30.71,30.71,0,0,0-2-2.58,2.63,2.63,0,0,1-.6-2.89q1.76,2.07,3.32,4.29c-.16.46-.32.91-.47,1.36Z"/><path class="cls-1" d="M150.3,80.32c-.19,0-.33,0-.41-.11a.35.35,0,0,1,.05-.45,2.9,2.9,0,0,1,.34-.36c1-.79,1.95-1.61,3-2.33.4-.27.65-.75,1.17-.86a2.86,2.86,0,0,0,.44-.2.37.37,0,0,1,.45.12.33.33,0,0,1,0,.45,10.79,10.79,0,0,1-1.1,1.14c-.93.75-1.89,1.45-2.84,2.17A2.15,2.15,0,0,1,150.3,80.32Z"/><path class="cls-2" d="M159.87,109.81c.48.29,1.07.16,1.56.39-.15,0-.31.1-.47.13a31.39,31.39,0,0,0-8.56,1.89,1,1,0,0,0-.69-.13,47.87,47.87,0,0,1,4.72-1.89Z"/><path class="cls-1" d="M138.55,71.57c.15.08.11.18,0,.27a.08.08,0,0,1-.08,0c-.11-.13,0-.2.07-.27Z"/><path class="cls-2" d="M126.37,127.34c-3.61-2.4-6.8-5.34-10.24-8a1.06,1.06,0,0,1-.23-.19c-1.24-1.56-2.78-2.86-4-4.46a6,6,0,0,1-.65-1.12,1.56,1.56,0,0,1,.55-2.17l.78-.15a21.58,21.58,0,0,1,3.94-.52,40.27,40.27,0,0,1,8.19.89,32.06,32.06,0,0,1,3.49.8c4.09,7.39,7.86,15,11.84,22.52a1.61,1.61,0,0,1-1.11-.35q-4.24-2.34-8.4-4.82c-.37-.22-.76-.41-1.15-.61A21.47,21.47,0,0,0,126.37,127.34Z"/><path class="cls-3" d="M128.22,112.47a32.06,32.06,0,0,0-3.49-.8,40.27,40.27,0,0,0-8.19-.89,21.58,21.58,0,0,0-3.94.52l-.78.15c.06-.94.39-1.35,1.23-1.53a8.1,8.1,0,0,1,1-.11,52.07,52.07,0,0,1,12.83.89c4.7.82,9.28,2.13,13.88,3.39a122.72,122.72,0,0,1,13.46,4.74c3.34,1.34,6.76,2.49,10,4.06,4.17,2,8.41,3.88,12.63,5.78,4.47,2,8.77,4.35,13,6.76s8.56,4.77,12.79,7.23a116.68,116.68,0,0,1,15.69,10.65,29,29,0,0,1,3.28,2.78,4,4,0,0,1-1.51.11,33.42,33.42,0,0,0-4.16-2.92c-5.43-3.32-10.72-6.84-16.14-10.17a98.44,98.44,0,0,0-10.36-5.6c-3.35-1.55-6.58-3.36-9.89-5A338.26,338.26,0,0,0,147,118.29a4.1,4.1,0,0,0-1.14-.36c-1.78-.79-3.65-1.34-5.5-2a14.83,14.83,0,0,0-2.56-.77,43.58,43.58,0,0,0-4.75-1.49C131.45,113.24,129.86,112.77,128.22,112.47Z"/><path class="cls-3" d="M205.19,86.86a3.88,3.88,0,0,1,2.47,1.71c.28.49.56,1,.86,1.46.14.23.12.72.51.58s0-.46,0-.7-.1-.32.06-.5a3.41,3.41,0,0,1,1,1q1.52,2.16,3,4.37A11.88,11.88,0,0,1,214.16,97c.82,1.9.55,3.86.36,5.81a17.69,17.69,0,0,1-.85,3.59c-.69,2.12-1.36,4.25-2.08,6.37a13,13,0,0,1-1.85,3.58,27.44,27.44,0,0,0-2.92-2.56,1.06,1.06,0,0,1-.34-.9c-.08-.93-.29-1.84-.46-2.75a9.9,9.9,0,0,0-.74-2.6c.42-.24.73.35,1.13.12-.11-.57-.77-.54-1-.95.43-.24.95.07,1.4-.37-.73-.15-1.39-.3-2.05-.4-.87-.14-1.2-.89-1.68-1.46-.19-.22-.09-.64.06-1s.29-.68.47-1a4.83,4.83,0,0,0,.75-3.14c0-.37.16-.45.5-.41s.79.4,1.3.07a31.3,31.3,0,0,0-1.88-2.67,9.85,9.85,0,0,1,1.77.48c.31.07.7.34.9,0s-.19-.61-.43-.82a22.51,22.51,0,0,0-1.78-1.45,1.21,1.21,0,0,1-.45-1.53,36.1,36.1,0,0,0,1.2-3.5A3.27,3.27,0,0,0,205.19,86.86Z"/><path class="cls-3" d="M195.56,118.53a16.69,16.69,0,0,1,1.29-1.86,20.85,20.85,0,0,0,2-3.59c.08-.21.16-.44.23-.66a.27.27,0,0,0-.08-.35c-.17-.1-.31,0-.42.15l-.53.72a52.26,52.26,0,0,1-7.9,8.84,48,48,0,0,1-7.61,5.43c-.2.12-.37.27-.56.41-1.11.51-1.11.51-1.07,1.67,0,.13,0,.26,0,.39a36.7,36.7,0,0,1-3.42-1.61c-.6-.28-1.18-.58-1.76-.86,0-.25.2-.25.31-.27a11.32,11.32,0,0,0,4.68-2.53c3.36-2.77,6.22-6,9.32-9a30.21,30.21,0,0,0,4.76-5.76c.84-1.36,1.63-2.74,2.4-4.14a2.46,2.46,0,0,1,3-1.16c.89.37,1.77.77,2.64,1.18a1.63,1.63,0,0,1,.52.46,9.31,9.31,0,0,1,2.07,4.15c.32,1.77.35,1.8-1,3a8.84,8.84,0,0,1-2.92,1.67c-.24-.28,0-.56,0-.83a31.25,31.25,0,0,0,.84-3.69c0-.27.23-.7-.13-.78s-.34.4-.43.66a19.44,19.44,0,0,1-5.19,8.06c-.26.25-.66.31-.86.64Z"/><path class="cls-2" d="M137.8,115.19a14.83,14.83,0,0,1,2.56.77c1.85.63,3.72,1.18,5.5,2,1.1,3.71,2.56,7.28,4,10.87q2.61,6.54,5.19,13.08a2.58,2.58,0,0,1,.3,1c-.24.21-.43,0-.62-.1-1.82-.88-3.64-1.8-5.47-2.66a2.38,2.38,0,0,1-1.25-1.34c-2.4-5.52-4.82-11-7.22-16.56C139.77,119.85,138.79,117.52,137.8,115.19Z"/><path class="cls-3" d="M152.4,112.22a31.39,31.39,0,0,1,8.56-1.89c.16,0,.32-.09.47-.13a6.7,6.7,0,0,0,1.48-.15c.39,0,.78-.21,1.15.08a.48.48,0,0,0,.48,0,11.61,11.61,0,0,0,3.29-1.38,2.53,2.53,0,0,1,1.85-.58,6.89,6.89,0,0,0,2.25-.32,17.58,17.58,0,0,1,5.28-.91c.42,0,.82-.3,1.26-.16a1,1,0,0,0,.24.17,5,5,0,0,1,2.53,6.09,30.13,30.13,0,0,1-7.35,0c-.32,0-.66,0-1-.06-.26-.19-.58-.1-.87-.15s-.5-.23-.27-.6.77-.71,1.22-1.27a16.31,16.31,0,0,0-6.35.87c-.09,0-.1.08,0,.16.16.24.56.08.74.4a3.07,3.07,0,0,1-1.55.63c-1.63.14-3.26.25-4.87.46a21.39,21.39,0,0,0-4.89,1c-.44.16-1.18.32-1.05.84s.86.33,1.34.29c2.23-.16,4.42-.59,6.66-.55l2,.12a2,2,0,0,1-1,.79,11.18,11.18,0,0,1-4.33,1.07,39.85,39.85,0,0,0-5.47.49,2.52,2.52,0,0,1-1.28-.13l-6.18-2.24C148.6,114,150.56,113.21,152.4,112.22Z"/><path class="cls-3" d="M194.41,83.87a30,30,0,0,1,7,2.06c.71.29,1.41.58,2.1.92A1.89,1.89,0,0,1,204.65,89a2.75,2.75,0,0,1-1.32,2A10.72,10.72,0,0,1,199,89.57a9.36,9.36,0,0,0-1.37-.61,19.85,19.85,0,0,1-2.75-1.42c-.14-.07-.31-.17-.3-.36s.22-.32.4-.37a3,3,0,0,1,.6-.06,2.06,2.06,0,0,0,1.09-.28,8.16,8.16,0,0,0-3.26,0,15.58,15.58,0,0,1-3.26.43,14.85,14.85,0,0,1-3.62-1,22.92,22.92,0,0,0-5.81-1.68c-1.17-.19-1.17-.19-1-1.39,0-.13,0-.26.07-.39h0c.2-.07.4-.13.2-.41l0,0a5.09,5.09,0,0,1,3.2-.43c2.26.13,4.51.36,6.75.65a8,8,0,0,1,3.6,1.37V84a9.87,9.87,0,0,0-2.92.14,1.7,1.7,0,0,0,1.06.14,4.15,4.15,0,0,1,2.69.49.64.64,0,0,0,.76,0,1.27,1.27,0,0,0-.77-.54Z"/><path class="cls-3" d="M212.89,130.25q-1.56-2.22-3.32-4.29l-2.63-3.51c-.13-.19-.28-.37-.4-.57s0-.37.18-.51.36-.05.48.11c.6.76,1.2,1.51,1.79,2.28q4.23,5.43,8.46,10.88a15.45,15.45,0,0,0,2.91,2.86,52,52,0,0,1,7.13,6.38,23.32,23.32,0,0,1,2.75,3.28c.38.6.37.73-.15,1.15-1.79,1.46-3.88,1.59-6.05,1.32-.44,0-.6-.37-.76-.7a67.25,67.25,0,0,1-2.92-6.34c-.63-1.61-1.25-3.23-1.87-4.84a3,3,0,0,0-.38-.81C216.38,134.7,214.63,132.48,212.89,130.25Z"/><path class="cls-3" d="M194,108.63c0,.68-.59,1.07-.86,1.62a3.49,3.49,0,0,1-2.21,1.7,10.24,10.24,0,0,1-5.21.22,1.46,1.46,0,0,1-.8-.38,14,14,0,0,1-1.77-1.76,12.4,12.4,0,0,0-2.81-3.2,15.94,15.94,0,0,1,3.59,0c1.19.11,2.38.24,3.57.36a18.54,18.54,0,0,1,3.14.52,1.21,1.21,0,0,0,.77.1v0c.22.24.47.41.82.2h0a1.3,1.3,0,0,0,1.23.41h0a.45.45,0,0,0,.63.21Z"/><path class="cls-2" d="M206.59,119.73a27.45,27.45,0,0,1-1.46,2.73,4,4,0,0,1-1.51,1.41,10.14,10.14,0,0,1-5.27,1.31,5.64,5.64,0,0,1-3.57-1.36l-1.21-1,2.62-2.06c.24-.19.45,0,.63.09a6.29,6.29,0,0,0,2.9,1,4.43,4.43,0,0,0,3.37-.44,6.54,6.54,0,0,0,3-3.33c.2-.63.41-1.26.61-1.89l0,0h.05Z"/><path class="cls-2" d="M163,115c-2.24,0-4.43.39-6.66.55-.48,0-1.21.21-1.34-.29s.61-.68,1.05-.84a21.39,21.39,0,0,1,4.89-1c1.61-.21,3.24-.32,4.87-.46a3.07,3.07,0,0,0,1.55-.63c-.18-.32-.58-.16-.74-.4-.07-.08-.06-.14,0-.16a16.31,16.31,0,0,1,6.35-.87c-.45.56-.94.81-1.22,1.27s-.16.52.27.6.61,0,.87.15c-2.67.52-5.37.87-8,1.47A7.44,7.44,0,0,0,163,115Z"/><path class="cls-2" d="M190.17,86.85a15.58,15.58,0,0,0,3.26-.43,8.16,8.16,0,0,1,3.26,0,2.06,2.06,0,0,1-1.09.28,3,3,0,0,0-.6.06c-.18,0-.4.12-.4.37s.16.29.3.36A19.85,19.85,0,0,0,197.65,89a9.36,9.36,0,0,1,1.37.61A10.72,10.72,0,0,0,203.33,91c-.35.68-1.05,1-1.6,1.45-.28.23-.64.1-1,0A13.15,13.15,0,0,1,198,91.35c-2.22-1.14-4.3-2.51-6.47-3.72A7.21,7.21,0,0,1,190.17,86.85Z"/><path class="cls-2" d="M186.34,96l-.46,1.49c-1.72-1.89-3.09-3.9-4.62-5.79s-3.07-3.82-4.54-5.94a4.75,4.75,0,0,1,1.65-.1,4.32,4.32,0,0,0,.33.5c1.47,1.89,3,3.76,4.42,5.65C184.2,93.17,185.35,94.51,186.34,96Z"/><path class="cls-2" d="M181.24,113.06a5,5,0,0,0-2.53-6.09,1,1,0,0,1-.24-.17.77.77,0,0,1,.85.07,4.9,4.9,0,0,1,2.65,4c.09,1.39.17,2.79.19,4.18s.15,1.37,1.41,1.62l2.26.43a2.08,2.08,0,0,1,1,.35c-.63,1.13-.84,1.25-2,.9a38.08,38.08,0,0,0-5.06-1.12,1.74,1.74,0,0,1-.87-.3C180,115.8,181.11,114.7,181.24,113.06Z"/><path class="cls-3" d="M186.34,96c-1-1.46-2.14-2.8-3.22-4.19-1.46-1.89-3-3.76-4.42-5.65a4.32,4.32,0,0,1-.33-.5c.53-.26.78.11,1,.46,1.42,1.81,2.85,3.6,4.27,5.41q5.63,7.13,11.24,14.27c.16.2.33.41.48.63a.43.43,0,0,1-.1.62c-.24.17-.35-.1-.46-.24-1.37-1.75-2.73-3.52-4.12-5.26S187.88,97.75,186.34,96Z"/><path class="cls-3" d="M178.22,82A1.26,1.26,0,0,0,177,83a4.29,4.29,0,0,0-.21,1.47c-.38,0-.49-.25-.61-.44-.37-.59-1.11-.72-1.52-1.26,0,0-.12,0-.18,0-.46,0-.41,0-.39-.29.08-1.21.86-2.13,1.31-3.18l0,0c.37.31.56-.13.82-.22s.55-.16.66.16c.21.59.76.9,1.09,1.38.54.76.57.74.21,1.43Z"/><path class="cls-2" d="M180.86,129.68c0-.13,0-.26,0-.39,0-1.16,0-1.16,1.07-1.67a16.23,16.23,0,0,0,3.18-1.12c1.65-.65,3.29-1.34,4.95-2a9.8,9.8,0,0,1-2,1.16c-1.65.8-3.22,1.74-4.82,2.64a1.25,1.25,0,0,0-.76,1.52.76.76,0,0,1-.05.71C181.83,130.48,181.43,129.93,180.86,129.68Z"/><path class="cls-3" d="M206.59,119.73c.08-1.16.15-2.33.22-3.5l.37-.23a6.84,6.84,0,0,1,.75,1.17.3.3,0,0,0,.44.07c.13-.09.1-.23.06-.36a5.61,5.61,0,0,1-.67-1.61,5.64,5.64,0,0,1,1.68,1.43,17.24,17.24,0,0,1-2.41,2.82A.66.66,0,0,1,206.59,119.73Z"/><path class="cls-3" d="M179.84,82.4c-.07,0-.09-.18-.23-.07a1,1,0,0,0-.26.71c-.13,1-.26,1.12-1.23,1.28-.61.1-.85-.15-.71-.77a2.11,2.11,0,0,1,.71-1.33.25.25,0,0,0,.1-.26l0,0c.36.1.62-.17.91-.26a.7.7,0,0,1,.94.3l0,0c-.19,0-.29,0-.35.23s.1.12.15.18Z"/><path class="cls-2" d="M197.94,82.12c-.68.26-1.36.52-2,.8a1.47,1.47,0,0,1-1.44-.15c1.75-1,3.42-1.76,5.45-1.49-.1.26-.33.28-.52.37A3.48,3.48,0,0,0,197.94,82.12Z"/><path class="cls-2" d="M193.28,90.15a1.46,1.46,0,0,1,1.14,1.43c0,.44.09.86.13,1.3,0,.23,0,.5-.3.51s-.32-.22-.34-.42A11.81,11.81,0,0,0,193.28,90.15Z"/><path class="cls-3" d="M197.94,82.12a3.48,3.48,0,0,1,1.46-.47,4.86,4.86,0,0,1,2.23,1.63C200.4,82.89,199.2,82.42,197.94,82.12Z"/><path class="cls-3" d="M199.12,93.81a2,2,0,0,1-.27-.93C199.65,93.05,199.65,93.05,199.12,93.81Z"/><path class="cls-4" d="M195.56,118.53l.19.25a2.66,2.66,0,0,1-.93.76C195.07,119.21,195.08,118.7,195.56,118.53Z"/><path class="cls-3" d="M207.18,116l-.37.23h-.05l0,0c.19-.25-.05-.55,0-.86A.81.81,0,0,1,207.18,116Z"/><path class="cls-4" d="M194.41,83.87v.32a1.21,1.21,0,0,1-.82-.23v-.34Z"/><path class="cls-2" d="M182.75,153.68c.19-.14.5-.13.52,0s-.22.09-.35.08S182.81,153.72,182.75,153.68Z"/><path class="cls-1" d="M193.58,84a1.21,1.21,0,0,0,.82.23,1.27,1.27,0,0,1,.77.54.64.64,0,0,1-.76,0,4.15,4.15,0,0,0-2.69-.49,1.7,1.7,0,0,1-1.06-.14A9.87,9.87,0,0,1,193.58,84Z"/><path class="cls-1" d="M179.82,82.41c0-.06-.21,0-.15-.18s.16-.27.35-.23C180.22,82.28,180,82.34,179.82,82.41Z"/><path class="cls-1" d="M192.18,108a1.08,1.08,0,0,1,1.23.41A1.3,1.3,0,0,1,192.18,108Z"/><path class="cls-1" d="M191.39,107.82c.36-.3.6-.11.82.2C191.86,108.23,191.61,108.06,191.39,107.82Z"/><path class="cls-1" d="M193.38,108.41c.29-.16.5-.11.63.21A.45.45,0,0,1,193.38,108.41Z"/></svg>