<svg id="frames" xmlns="http://www.w3.org/2000/svg" viewBox="0 0 384 216"><defs><style>.cls-1{fill:#0f1b33;}.cls-2{fill:#fc0102;}.cls-3{fill:#f5f3f4;}.cls-4{fill:#d6d7d0;}</style></defs><path class="cls-1" d="M165.45,123.17c0-.17,0-.33,0-.5.1-12.4-.16-24.79-.1-37.19,0-1.8,0-3.59.16-5.39a1,1,0,0,1,.79-1,3,3,0,0,1,1-.07q9.85,0,19.7,0,7.84,0,15.69.16c1.6,0,3.19.08,4.79.19a19.08,19.08,0,0,1,5.89,1.46,30.72,30.72,0,0,1,9.31,5.52,35.24,35.24,0,0,1,3.08,3.27l.78,1.42.2,0q.42-5.88.83-11.76c3-.06,5.92-.08,8.89,0h.6c5.53,0,11.06-.1,16.59,0,4,.07,7.93,0,11.89.16a26.66,26.66,0,0,1,17.34,7.11,25.94,25.94,0,0,1,8.39,16.12A26.23,26.23,0,0,1,284.9,124a26.6,26.6,0,0,1-16,9,30.05,30.05,0,0,1-5.36.43H248.93a.41.41,0,0,0-.45.43c0,.13,0,.26,0,.39-.05,2.73-.15,5.47-.12,8.19.07,6,0,11.93,0,17.9,0,.23,0,.46,0,.7a1.28,1.28,0,0,1-1.37,1.38c-.7,0-1.4,0-2.1,0-1.33,0-2.66-.07-4-.11.53-.18,1-.39,1.59-.55a14.76,14.76,0,0,0,2.3-.93,1.38,1.38,0,0,0,.72-.65c.15-.35.05-.46-.49-.47a9.69,9.69,0,0,0-3-1.29c-2.46-.7-4.9-1.43-7.34-2.21-3.45-1.09-6.84-2.33-10.27-3.5s-6.8-2.29-10.19-3.48q-8.36-2.94-16.68-5.93a6.87,6.87,0,0,1-2.15-.94c4,1.28,7.94,2.5,11.88,3.87s7.64,2.76,11.49,4.05c2.11.71,4.22,1.45,6.33,2.16.78.26.85.2.85-.63,0-1.07-.09-2.13-.05-3.2a5.13,5.13,0,0,0-1-3.56,2.48,2.48,0,0,1-.24-.55c.06-.53.12-1.06.19-1.6,1.14,1.72,2.08,3.56,3.12,5.34a2.29,2.29,0,0,1,.23.86c.25,1.41.52,2.81.73,4.23a.79.79,0,0,0,.65.73c1.78.55,3.54,1.15,5.32,1.72.19.06.4.24.63,0,.07-.42-.21-.7-.4-1a52.25,52.25,0,0,0-5.37-6.67,8.2,8.2,0,0,1-1.28-1.37c-.69-1.25-1.44-2.46-2.16-3.68q-3.87-6.52-7.76-13c-.13-.22-.21-.51-.51-.58-.56.66-.57.66-.18,1.34l3,5.2c-.17.53,0,1.1-.15,1.64-.48-.79-1-1.57-1.45-2.37-.74-1.25-1.46-2.51-2.2-3.76-.29-.49-.57-.51-1-.11a6.07,6.07,0,0,1-1.29,1.08c0-.62.59-.86.8-1.33.15,0,.19-.12.23-.23l0,0a12.7,12.7,0,0,0,1.69-1.67c.79-.84.74-1.74.41-3a23.11,23.11,0,0,1-1.36,3,16,16,0,0,1-1.82,1.68,10.25,10.25,0,0,1-7.29,1.76c-.6-.08-1.19-.14-1.78-.23a1.2,1.2,0,0,0-.94.22c-.46.33-.93.64-1.39,1-1.19.59-2.33,1.29-3.56,1.8a12.58,12.58,0,0,0-2.53.86c-1.41.57-2.81,1.16-4.2,1.78a2.47,2.47,0,0,0-1.46,1.12c-.23.51-.48,1-.73,1.52-1.35-.33-2.63-.85-4.12-1.34.31-.06.43-.1.55-.11a8.58,8.58,0,0,0,4.69-1.77c2.71-1.92,5.35-4,8-6,2.1-1.58,4-3.38,6.14-4.93a38.72,38.72,0,0,0,5.64-4.9c.12-.13.22-.25.43-.17.16.59-.24,1.08-.31,1.63-.09.13-.24.28,0,.41s.23,0,.3-.17a3.57,3.57,0,0,0,.28-.27,13.33,13.33,0,0,0,2.43-4.45c.29-.79.58-1,1.53-.92l-1.07,3.26a5,5,0,0,0,2.29-1.94,1.9,1.9,0,0,0,.33-2.07c-.28-.61-.41-1.3-.69-1.93-1-2.3-2.2-2.71-4.38-2.67a.94.94,0,0,0-.85.57c-.54,1-1.12,1.9-1.6,2.89a3.3,3.3,0,0,1-1.07,1.27,43.36,43.36,0,0,0-7.12,6.49,117.93,117.93,0,0,1-9.64,10.11,11.41,11.41,0,0,1-4,2.32,24.29,24.29,0,0,1-5.65,1.18,10.72,10.72,0,0,1-4.52-.48c-3.36-1.19-6.7-2.42-10.1-3.49a20.07,20.07,0,0,1-2.92-1c.07-2,.21-1.58-1.56-1.31-.46.07-.46.36-.39.71a9.88,9.88,0,0,1-1.91-.54,8.75,8.75,0,0,1-2-.74,32.12,32.12,0,0,1,4.09-1c2.76-.42,5.54-.66,8.27-1.28a16.84,16.84,0,0,0,5.9-2.53c.37-.26.1-.35-.09-.47a4.13,4.13,0,0,1,.88-.47c1.44-.69,2.95-1.21,4.41-1.82a10,10,0,0,0,3.2.69,33.72,33.72,0,0,1,5.93.63,9.63,9.63,0,0,1,.19,2.28,2.76,2.76,0,0,1-2,2.65c-.1,0-.26,0-.27.17,0,0,.05.06.08.07,1.28.36,2.56.7,3.84,1.07,1,.29,1.09.27,1.74-.58.41-.53.4-.58-.22-.8l-2.24-.82a.55.55,0,0,1-.41-.76,6.68,6.68,0,0,0-.2-3.63,7.8,7.8,0,0,0-2-3.58c-.4-.41-.61-1-1.39-1a48.63,48.63,0,0,0-6.15.43c-1.61.26-3.17.74-4.76,1-1.75.31-3.53.57-5.3.84a.73.73,0,0,0-.9-.42l-1.07.21A50.63,50.63,0,0,0,165.45,123.17ZM217.7,92.54c-.06-.15-.11-.3-.31-.29-.06-.16-.16-.21-.27-.06s-.17.28-.37.27a3.81,3.81,0,0,0-1.79-1.9,4.37,4.37,0,0,1,.06,3.89c-.3.7-.32.74.35,1.16A1.18,1.18,0,0,1,216,97a20.68,20.68,0,0,1-.49,2.34,1.74,1.74,0,0,0,.4,1.76,27.84,27.84,0,0,0,2.55,2.66c.14.12.39.18.23.52-1.58-.17-2.93-1.28-4.62-1.37.19,1,.73,1.84,1,2.85a5.63,5.63,0,0,1-2-.75,4.09,4.09,0,0,0-.25,1.3,7,7,0,0,0-.21,3.35,2,2,0,0,1-.13.88c0,.26-.16.51-.19.77-.07.59,0,.7.61.79a12,12,0,0,1,1.57.26,28.24,28.24,0,0,0,4.92.82.76.76,0,0,1,.6.2c-.93.35-1.94.26-2.89.59.55.73,1.45.56,2.15,1-.52.15-.91-.11-1.31,0a1.22,1.22,0,0,0,.22,1c-.06.14,0,.19.14.19l.07.41c-.08.14,0,.2.12.21l.06.38c-.06.18-.11.35.16.41l.19.58a.33.33,0,0,0,.06.4,1.79,1.79,0,0,0,.12.8c0,1,0,2,0,3l-.07.39a1.15,1.15,0,0,0-.15.81l-.07.39a.44.44,0,0,0,.19.72c.21.12.54.13.5.5-.24.3-.65,0-.91.25-.1.31.12.56.2.83a1.94,1.94,0,0,0,.36.93,9.43,9.43,0,0,0,1.43-2,4,4,0,0,0,.77-1.49,20.17,20.17,0,0,1,2.11-4.39,20.55,20.55,0,0,0,2.4-6,14.43,14.43,0,0,0-.62-9.65c-.56-1.21-1-2.46-1.46-3.71-1.12-3.17-3.35-5.45-5.9-7.47Zm-25.95-6.85c0,.4.29.66.48,1s.28.13.44.12.19-.16.18-.29c-.11-1.46.82-2.07,2-2.49.22-.08.5-.08.68-.34-.91-.86-2-.62-3.06-.63a2.68,2.68,0,0,1,1.73-.24c.16,0,.34.07.45-.09.23-.34-.25-1.38-.66-1.48a3.69,3.69,0,0,0-2.86.45,11.23,11.23,0,0,1-1.5,1.09,3.73,3.73,0,0,0,.89,1.63c.15.21.26.47.52.59S191.62,85.35,191.75,85.69Zm18.63,13.9a.52.52,0,0,0-.07-.57,1.47,1.47,0,0,0-.1-.8c.09-.13,0-.29-.08-.31s-.25.13-.24.31c-.33.31-.34.94-1,1,0-.54,0-1,.08-1.52a1.19,1.19,0,0,0-.78-1.34A5.74,5.74,0,0,1,206,94.72c-.23-.27-.45-.57-.91-.31s-.64.42-.54.92a4,4,0,0,1,0,1.09.7.7,0,0,0,.75.84c.51,0,1,0,1.59,0-.06.38-.1.64-.15.9-.18,1-.19,1,.77,1.37a1.2,1.2,0,0,1,.88,1,5.1,5.1,0,0,0,.49,1.7c-.05.2,0,.44.16.5s.31-.17.42-.33a.78.78,0,0,0,.05-.18A5.8,5.8,0,0,0,210.38,99.59Zm-5.9,2.62c-.08-.76-.15-1.51-.25-2.26s-.36-1-1.31-1.13a3.07,3.07,0,0,0-2.13-.14l6.45,11.06a1.47,1.47,0,0,0,.57-1,8.9,8.9,0,0,0,.05-3.67c-.06-.4-.17-.7-.67-.65s-.58-.34-.78-.66A4,4,0,0,0,204.48,102.21ZM192.85,87.49a3.37,3.37,0,0,0-1.09-.2c.48.84.89,1.58,1.31,2.31l5.06,8.91c-3.06,0-6.12.11-9.18.15-.95,0-.95,0-.95,1v6.49c0,2.7,0,5.39,0,8.09,0,.77,0,.76.77.75,3.86,0,7.73-.13,11.59-.13a8.22,8.22,0,0,0,3.71-1,6.21,6.21,0,0,0,1.61-1.33.55.55,0,0,0,.11-.79c-.11-.17-.21-.35-.3-.52-1.09-2-2.31-3.89-3.33-5.92l.2-1.34c.15.22.31.43.44.66l5.21,9c.16.28.24.62.63.83a2.11,2.11,0,0,0-.15-2q-7.06-12-14.1-24.11A1.33,1.33,0,0,0,192.85,87.49Zm3.43-1.41a.41.41,0,0,0,.51.08,4,4,0,0,1,1.77.57q.66.42,1.32.87a2.84,2.84,0,0,0,2.79.44,3.06,3.06,0,0,1,1.33-.32c.09.42.14.86.26,1.27a4.6,4.6,0,0,0,.65,1.85c.32.38.21.55-.17.74a7.73,7.73,0,0,0-2.34,1.66,1.52,1.52,0,0,0-.5,1.39,8.63,8.63,0,0,1,3-2.45,1.27,1.27,0,0,1,1.69.2,28.31,28.31,0,0,0,4.58,3.17,2,2,0,0,0,3-.67l.26-.3a3.06,3.06,0,0,0-.4-4.43c-.79-.55-1.49-1.23-2.24-1.84a15.12,15.12,0,0,0-3.51-2.08c-.22-.1-.53-.36-.71-.07s-.44.22-.67.13a4.39,4.39,0,0,0-2.46-.13,1.17,1.17,0,0,1-1.18-.29c1.14-.43,2.28,0,3.42-.11a4.44,4.44,0,0,0-2.45-1,26.61,26.61,0,0,0-4-.12,13.66,13.66,0,0,1-4.55-.34,1.9,1.9,0,0,0-2.22,1.27A13,13,0,0,0,196.28,86.08ZM255,98.64c-1.87,0-3.73,0-5.6,0-.82,0-.83,0-.83.82,0,2.27,0,4.53,0,6.8,0,2.59-.07,5.19-.09,7.79,0,1.19,0,1,1,1h.1l10.7.11a4.29,4.29,0,0,0,1.38-.17,8.9,8.9,0,0,0,6.49-7.26,6.08,6.08,0,0,0-.72-4.25,11.85,11.85,0,0,0-2.46-3,7.12,7.12,0,0,0-5-1.9C258.33,98.65,256.67,98.64,255,98.64ZM225.75,140.9v-18a.3.3,0,0,0-.32.12,34,34,0,0,1-6.43,5.67c-.46.31-.28.55-.08.89,2,3.42,4,6.84,6,10.25A3.45,3.45,0,0,0,225.75,140.9Zm-30.61-21.64c-1-.11-2-.05-3-.07a1.48,1.48,0,0,0-.69.09c-.44.2-.5.36-.17.72a17.42,17.42,0,0,0,1.58,1.52,5.88,5.88,0,0,0,3.16,1.33c1.49.17,3,.26,4.47.31a2.18,2.18,0,0,0,2.21-.94,7.44,7.44,0,0,1,1.19-1.19c.18-.18.47-.33.35-.65s-.38-.24-.6-.3-.33,0-.49-.07A50.26,50.26,0,0,0,195.14,119.26ZM191.9,133.7l-.06-.26-3.53-.06c-.31,0-.37.21-.37.46,0,.5,0,1,0,1.49s.09.68.64.47A11.53,11.53,0,0,0,191.9,133.7Zm19.86-9.77-.07-.13s-.06,0-.06.07a1.39,1.39,0,0,0,.06.13Z"/><path class="cls-1" d="M151.42,92.65c3.35,10.76,6.64,21.55,10,32.33-.31.18-.64.35-.94.54s-.69.23-.94.5.06.33.23.42a3,3,0,0,1-.88.63c-1,.61-2.09,1.17-3.1,1.82a1.16,1.16,0,0,1-1.28.14,5.17,5.17,0,0,0-.75-.27c-4.72-1.48-9.4-3.06-14.16-4.42a8.69,8.69,0,0,1-2.15-.74,5.58,5.58,0,0,0-.1-.59q-2.17-7.47-4.36-14.93c-.08-.28,0-.67-.48-.86-.36,1.15-.73,2.25-1.06,3.36-1.12,3.7-2.37,7.35-3.71,11l-6.19-.53a11.68,11.68,0,0,0-4.41,0,4.87,4.87,0,0,0-2,.67c-.19.11-.51.21-.35.57h0c-.28-.19-.36,0-.41.22h0a1.29,1.29,0,0,0-1,1.41,5.88,5.88,0,0,0,1.38,4.24c.83.91,1.68,1.81,2.59,2.63a43.24,43.24,0,0,0,12.4,7.72c2.73,1.16,5.56,2,8.33,3.08,3.18,1.19,6.33,2.46,9.5,3.69.54.22,1.1.39,1.7.6a1.32,1.32,0,0,0-.42-1l-9.59-14c-1.28-1.87-2.57-3.72-3.86-5.59a46.39,46.39,0,0,1,7.68,2.18c.13.27.25.55.4.8q5.81,9.56,11.62,19.1a1.86,1.86,0,0,0,1,.87c1.35.46,2.69,1,4,1.45.21.07.42.24.66.05a1.54,1.54,0,0,0-.29-.83l-7.34-14.3c-.8-1.56-1.59-3.14-2.38-4.71.22.05.45.09.67.16l12.28,3.87q7.28,2.28,14.56,4.58c1.81.57,3.6,1.19,5.4,1.79l5.41,1.77c1.8.59,3.59,1.21,5.4,1.76s3.55,1.18,5.33,1.75c4.06,1.29,8.11,2.59,12.13,4,6,2.12,12,4.37,18,6.5,2.88,1,5.82,1.9,8.78,2.66,1.71.44,3.41.88,5.13,1.25l-1.07.25c-1.83.36-3.69.48-5.53.76a86.31,86.31,0,0,1-21.9.27c-3.38-.34-6.72-.91-10.09-1.34a214.64,214.64,0,0,1-25.65-5c-2.39-.6-4.81-1-7.43-1.48a4.53,4.53,0,0,0,1.45.62c2.79.8,5.57,1.59,8.37,2.35,1.86.51,3.73,1,5.6,1.47,0,1-.07,2.06-.12,3.09s-.36,1.22-1.3,1.26H150.14c-1.3,0-1.32,0-1.73-1.3-1-3-1.95-6-2.94-9-.29-.87-.31-.88-1.2-.88H120.48c-.78,0-.78,0-1,.78-.75,2.59-1.65,5.14-2.26,7.77a6.88,6.88,0,0,1-.63,1.57,1.46,1.46,0,0,1-1.44.88c-1.33,0-2.66.05-4,.07-3.26,0-6.53,0-9.79.14-2.43.09-4.86,0-7.28.16a4.09,4.09,0,0,1-.7,0,1,1,0,0,1-.94-1.24c0-.23.13-.45.2-.67q5.46-17.19,10.92-34.37,2.41-7.62,4.82-15.24c.2-.65.34-.61-.46-1L105,108.25a2.19,2.19,0,0,1-.79-.59.89.89,0,0,1,0-1.19.87.87,0,0,1,1.25-.19c.81.52,1.58,1.1,2.38,1.65,1.29.89,1.29.88,1.76-.64.31-1,.6-2,1-3a.78.78,0,0,0-.42-1.12c-2.15-1.26-4.29-2.56-6.43-3.85a9.83,9.83,0,0,1-1.55-1.09c-.72-.61-.8-1-.35-1.71a1.39,1.39,0,0,1,1.86-.7,9.22,9.22,0,0,1,1.54.92c1.79,1.33,3.57,2.68,5.36,4a2.27,2.27,0,0,0,.83.53c.52.1.44-.37.52-.6q2.66-6.83,5.27-13.68c1-2.67,2-5.35,3-8,.4,0,.79-.05,1.19-.05,8,0,16,0,24,0,1.4,0,1.77.24,2.28,1.59Z"/><path class="cls-2" d="M187.75,157.85c-1.87-.49-3.74-1-5.6-1.47-2.8-.76-5.58-1.55-8.37-2.35a4.53,4.53,0,0,1-1.45-.62c2.62.45,5,.88,7.43,1.48a214.64,214.64,0,0,0,25.65,5c3.37.43,6.71,1,10.09,1.34a86.31,86.31,0,0,0,21.9-.27c1.84-.28,3.7-.4,5.53-.76l1.07-.25.65.1c.23,0,.37,0,.4-.28.54,0,.64.12.49.47a1.38,1.38,0,0,1-.72.65,14.76,14.76,0,0,1-2.3.93c-.54.16-1.06.37-1.59.55a19.77,19.77,0,0,0-2.53.59A59.15,59.15,0,0,1,224.8,164a92.67,92.67,0,0,1-13.2-1.32c-2.83-.44-5.67-.78-8.48-1.34-3.72-.74-7.38-1.75-11.08-2.6A39.31,39.31,0,0,0,187.75,157.85Z"/><path class="cls-2" d="M120.21,79c-1,2.67-2,5.35-3,8q-2.62,6.84-5.27,13.68c-.08.23,0,.7-.52.6,1.2-3.21,2.13-6.5,3.13-9.77,1.18-3.88,2.38-7.75,3.73-11.57C118.58,79,118.72,79,120.21,79Z"/><path class="cls-2" d="M227.54,79.25q-.42,5.88-.83,11.76l-.2,0-.78-1.42L226,83a16.69,16.69,0,0,0,0-2C225.85,79.73,226.38,79.2,227.54,79.25Z"/><path class="cls-2" d="M159.73,126.44c-.17-.09-.56-.06-.23-.42s.64-.3.94-.5.63-.36.94-.54l4.07-1.81a50.63,50.63,0,0,1,5.5-1.7l1.07-.21a.73.73,0,0,1,.9.42,6.61,6.61,0,0,1-.76.22,50,50,0,0,0-9.38,3.07C161.74,125.41,160.8,126.05,159.73,126.44Z"/><path class="cls-3" d="M159.73,126.44c1.07-.39,2-1,3.05-1.47a50,50,0,0,1,9.38-3.07,6.61,6.61,0,0,0,.76-.22c1.77-.27,3.55-.53,5.3-.84,1.59-.29,3.15-.77,4.76-1a48.63,48.63,0,0,1,6.15-.43c.78,0,1,.54,1.39.94.41.82.84,1.62,1.23,2.45a2,2,0,0,1,.29,1.49,33.72,33.72,0,0,0-5.93-.63,10,10,0,0,1-3.2-.69c-.24-.36,0-.6.19-.87s.6-.41.6-.91l-4.25.49c-.06.47.64.42.53.91a23.51,23.51,0,0,0-6,1.83c-1.94.73-4,1.2-5.93,1.87a3.62,3.62,0,0,0,1.17.1,62.33,62.33,0,0,0,6.53-.7,8.13,8.13,0,0,0,1.83-.43c.19.12.46.21.09.47a16.84,16.84,0,0,1-5.9,2.53c-2.73.62-5.51.86-8.27,1.28a32.12,32.12,0,0,0-4.09,1,8.75,8.75,0,0,0,2,.74,9.88,9.88,0,0,0,1.91.54,4.09,4.09,0,0,0,1.95.6,20.07,20.07,0,0,0,2.92,1c3.4,1.07,6.74,2.3,10.1,3.49a10.72,10.72,0,0,0,4.52.48,24.29,24.29,0,0,0,5.65-1.18,11.41,11.41,0,0,0,4-2.32,117.93,117.93,0,0,0,9.64-10.11,43.36,43.36,0,0,1,7.12-6.49,3.3,3.3,0,0,0,1.07-1.27c.48-1,1.06-1.92,1.6-2.89a.94.94,0,0,1,.85-.57c2.18,0,3.39.37,4.38,2.67.28.63.41,1.32.69,1.93a1.9,1.9,0,0,1-.33,2.07,5,5,0,0,1-2.29,1.94l1.07-3.26c-.95,0-1.24.13-1.53.92a13.33,13.33,0,0,1-2.43,4.45,3.57,3.57,0,0,1-.28.27l-.26-.24c.07-.55.47-1,.31-1.63-.21-.08-.31,0-.43.17a38.72,38.72,0,0,1-5.64,4.9c-2.12,1.55-4,3.35-6.14,4.93-2.65,2-5.29,4-8,6a8.58,8.58,0,0,1-4.69,1.77c-.12,0-.24.05-.55.11,1.49.49,2.77,1,4.12,1.34a4.23,4.23,0,0,0,1.12.52,6.14,6.14,0,0,0,2.74.84,1.83,1.83,0,0,0,.73.22v0a6.87,6.87,0,0,0,2.15.94q8.33,3,16.68,5.93c3.39,1.19,6.79,2.32,10.19,3.48s6.82,2.41,10.27,3.5c2.44.78,4.88,1.51,7.34,2.21a9.69,9.69,0,0,1,3,1.29c0,.24-.17.31-.4.28l-.65-.1c-1.72-.37-3.42-.81-5.13-1.25-3-.76-5.9-1.64-8.78-2.66-6-2.13-12-4.38-18-6.5-4-1.42-8.07-2.72-12.13-4-1.78-.57-3.54-1.2-5.33-1.75s-3.6-1.17-5.4-1.76l-5.41-1.77c-1.8-.6-3.59-1.22-5.4-1.79q-7.28-2.31-14.56-4.58L151.56,130c-.22-.07-.45-.11-.67-.16-1.6-.63-3.27-1.07-4.9-1.6a21.62,21.62,0,0,0-2.85-.83,46.39,46.39,0,0,0-7.68-2.18c-.09,0-.17-.1-.26-.13A81.61,81.61,0,0,0,125,122.84a32.41,32.41,0,0,0-7.56-.28c-.86.1-1.72.13-2.57.3-.43.09-.38-.21-.41-.45h0a.29.29,0,0,0,.41-.22h0a1.51,1.51,0,0,0,.38-.07,9.82,9.82,0,0,1,3.13-.8,21.56,21.56,0,0,0,3.21-.33l6.19.53c2,.38,3.89.78,5.84,1.14,1.31.24,2.55.76,3.87.92a8.69,8.69,0,0,0,2.15.74c4.76,1.36,9.44,2.94,14.16,4.42a5.17,5.17,0,0,1,.75.27,1.16,1.16,0,0,0,1.28-.14c1-.65,2.06-1.21,3.1-1.82A3,3,0,0,0,159.73,126.44Z"/><path class="cls-3" d="M218.86,122.81l.07-.39a4.52,4.52,0,0,0,0-3,1.79,1.79,0,0,1-.12-.8c.2-.17.11-.29-.06-.4l-.19-.58c.26-.26.08-.34-.16-.41l-.06-.38a.19.19,0,0,0-.12-.21l-.07-.41a.18.18,0,0,0-.14-.19,1.22,1.22,0,0,1-.22-1c.4-.13.79.13,1.31,0-.7-.45-1.6-.28-2.15-1,.95-.33,2-.24,2.89-.59a.76.76,0,0,0-.6-.2,28.24,28.24,0,0,1-4.92-.82,12,12,0,0,0-1.57-.26c-.58-.09-.68-.2-.61-.79,0-.26.14-.51.19-.77a2,2,0,0,0,.13-.88,7,7,0,0,1,.21-3.35A4.09,4.09,0,0,1,213,105a5.63,5.63,0,0,0,2,.75c-.22-1-.76-1.83-1-2.85,1.69.09,3,1.2,4.62,1.37.16-.34-.09-.4-.23-.52a27.84,27.84,0,0,1-2.55-2.66,1.74,1.74,0,0,1-.4-1.76A20.68,20.68,0,0,0,216,97a1.18,1.18,0,0,0-.6-1.34c-.67-.42-.65-.46-.35-1.16a4.37,4.37,0,0,0-.06-3.89,3.81,3.81,0,0,1,1.79,1.9c.23.43.46.86.71,1.28.08.15.22.28.4.17s.09-.22.06-.35c-.08-.35-.3-.67-.21-1,2.55,2,4.78,4.3,5.9,7.47.44,1.25.9,2.5,1.46,3.71a14.43,14.43,0,0,1,.62,9.65,20.55,20.55,0,0,1-2.4,6,20.17,20.17,0,0,0-2.11,4.39,4,4,0,0,1-.77,1.49,3.32,3.32,0,0,1-1.77-1.19l.07-.39C219.07,123.41,219.05,123.13,218.86,122.81Z"/><path class="cls-3" d="M204,87.72a3.06,3.06,0,0,0-1.33.32,2.84,2.84,0,0,1-2.79-.44q-.66-.45-1.32-.87a4,4,0,0,0-1.77-.57.4.4,0,0,0-.51-.08,13,13,0,0,1-2.84-.48,1.9,1.9,0,0,1,2.22-1.27,13.66,13.66,0,0,0,4.55.34,26.61,26.61,0,0,1,4,.12,4.44,4.44,0,0,1,2.45,1c-1.14.07-2.28-.32-3.42.11a1.17,1.17,0,0,0,1.18.29,4.39,4.39,0,0,1,2.46.13c.23.09.45.2.67-.13s.49,0,.71.07a15.12,15.12,0,0,1,3.51,2.08c.75.61,1.45,1.29,2.24,1.84a3.06,3.06,0,0,1,.4,4.43l-.26.3a1.34,1.34,0,0,1-.67-.39c-2.06-1.77-4-3.64-6.59-4.72a.28.28,0,0,1-.18-.4c.34-.23.82,0,1.2-.35a4.46,4.46,0,0,1-2.3-1A1.69,1.69,0,0,0,204,87.72Z"/><path class="cls-3" d="M220.88,136.07l-3-5.2c-.39-.68-.38-.68.18-1.34.3.07.38.36.51.58q3.89,6.51,7.76,13c.72,1.22,1.47,2.43,2.16,3.68a8.2,8.2,0,0,0,1.28,1.37,52.25,52.25,0,0,1,5.37,6.67c.19.29.47.57.4,1-.23.19-.44,0-.63,0-1.78-.57-3.54-1.17-5.32-1.72a.79.79,0,0,1-.65-.73c-.21-1.42-.48-2.82-.73-4.23a2.29,2.29,0,0,0-.23-.86c-1-1.78-2-3.62-3.12-5.34C223.63,140.59,222.3,138.3,220.88,136.07Z"/><path class="cls-3" d="M195.14,119.26a50.26,50.26,0,0,1,8,.75c.16,0,.33,0,.49.07s.5,0,.6.3-.17.47-.35.65a7.44,7.44,0,0,0-1.19,1.19,2.18,2.18,0,0,1-2.21.94c-1.49,0-3-.14-4.47-.31a5.88,5.88,0,0,1-3.16-1.33,17.42,17.42,0,0,1-1.58-1.52c-.33-.36-.27-.52.17-.72a1.48,1.48,0,0,1,.69-.09C193.12,119.21,194.16,119.15,195.14,119.26Z"/><path class="cls-2" d="M204,87.72a1.69,1.69,0,0,1,1.6.31,4.46,4.46,0,0,0,2.3,1c-.38.35-.86.12-1.2.35a.28.28,0,0,0,.18.4c2.55,1.08,4.53,3,6.59,4.72a1.34,1.34,0,0,0,.67.39,2,2,0,0,1-3,.67,28.31,28.31,0,0,1-4.58-3.17,1.27,1.27,0,0,0-1.69-.2,8.63,8.63,0,0,0-3,2.45,1.52,1.52,0,0,1,.5-1.39,7.73,7.73,0,0,1,2.34-1.66c.38-.19.49-.36.17-.74a4.6,4.6,0,0,1-.65-1.85C204.14,88.58,204.09,88.14,204,87.72Z"/><path class="cls-3" d="M192.85,87.49a1.33,1.33,0,0,1,1.5.83q7,12.08,14.1,24.11a2.11,2.11,0,0,1,.15,2c-.39-.21-.47-.55-.63-.83l-5.21-9c-.13-.23-.29-.44-.44-.66l-4.19-7.33Z"/><path class="cls-2" d="M177.62,125.23a8.13,8.13,0,0,1-1.83.43,62.33,62.33,0,0,1-6.53.7,3.62,3.62,0,0,1-1.17-.1c2-.67,4-1.14,5.93-1.87a23.51,23.51,0,0,1,6-1.83c.11-.49-.59-.44-.53-.91l4.25-.49c0,.5-.38.66-.6.91s-.43.51-.19.87c-1.46.61-3,1.13-4.41,1.82A4.13,4.13,0,0,0,177.62,125.23Z"/><path class="cls-2" d="M214.78,132.55c-1.55,1.85-3.64,2.28-5.91,2.17a23.92,23.92,0,0,1-5.56-1c.46-.32.93-.63,1.39-1a1.2,1.2,0,0,1,.94-.22c.59.09,1.18.15,1.78.23a10.25,10.25,0,0,0,7.29-1.76,16,16,0,0,0,1.82-1.68c-.16.59-.62,1-.74,1.65l0,0c-.13,0-.18.12-.23.23C215.37,131.69,214.76,131.93,214.78,132.55Z"/><path class="cls-3" d="M210.21,98.22a1.47,1.47,0,0,1,.1.8.36.36,0,0,0,.07.57,5.8,5.8,0,0,1-.88,2.59h-.63a5.1,5.1,0,0,1-.49-1.7,1.2,1.2,0,0,0-.88-1c-1-.32-.95-.36-.77-1.37.05-.26.09-.52.15-.9-.56,0-1.08,0-1.59,0a.7.7,0,0,1-.75-.84,4,4,0,0,0,0-1.09c-.1-.5.15-.71.54-.92s.68,0,.91.31a5.74,5.74,0,0,0,2.21,1.66,1.19,1.19,0,0,1,.78,1.34c0,.49-.06,1-.08,1.52.68-.08.69-.71,1-1Z"/><path class="cls-2" d="M192.85,87.49l5.28,9.13,4.19,7.33c-.07.44-.13.89-.2,1.34-1.13-1.72-2.07-3.56-3.12-5.33l-.87-1.45-5.06-8.91c-.42-.73-.83-1.47-1.31-2.31A3.37,3.37,0,0,1,192.85,87.49Z"/><path class="cls-3" d="M191,85c-.26-.12-.37-.38-.52-.59a3.73,3.73,0,0,1-.89-1.63,11.23,11.23,0,0,0,1.5-1.09,3.69,3.69,0,0,1,2.86-.45c.41.1.89,1.14.66,1.48-.11.16-.29.13-.45.09a2.68,2.68,0,0,0-1.73.24c1.05,0,2.15-.23,3.06.63-.18.26-.46.26-.68.34-1.18.42-2.11,1-2,2.49,0,.13,0,.27-.18.29s-.34.06-.44-.12-.48-.57-.48-1a1.37,1.37,0,0,0,0-.29c-.16-1.16-.17-1.15,1-1,0,0,.07-.08.13-.16l-.9-.79A3.61,3.61,0,0,0,191,85Z"/><path class="cls-2" d="M192,124.26a2,2,0,0,0-.29-1.49c-.39-.83-.82-1.63-1.23-2.45a7.89,7.89,0,0,1,2,3.59,6.68,6.68,0,0,1,.2,3.63.55.55,0,0,0,.41.76l2.24.82c.62.22.63.27.22.8-.65.85-.71.87-1.74.58-1.28-.37-2.56-.71-3.84-1.07,0,0-.05,0-.08-.07,0-.18.17-.14.27-.17a2.76,2.76,0,0,0,2-2.65A9.63,9.63,0,0,0,192,124.26Z"/><path class="cls-2" d="M220.88,136.07c1.42,2.23,2.75,4.52,4,6.85-.07.54-.13,1.07-.19,1.6a14.51,14.51,0,0,1-1.39-2.27c-.86-1.51-1.82-3-2.58-4.54C220.86,137.17,220.71,136.6,220.88,136.07Z"/><path class="cls-2" d="M199.75,135.55c-1.6.92-3.25,1.79-4.92,2.59a6.82,6.82,0,0,1-.72.35,2.87,2.87,0,0,0-2.16,2.86,4.23,4.23,0,0,1-1.12-.52c.25-.51.5-1,.73-1.52a2.47,2.47,0,0,1,1.46-1.12c1.39-.62,2.79-1.21,4.2-1.78A12.58,12.58,0,0,1,199.75,135.55Z"/><path class="cls-3" d="M215.79,131c.12-.6.58-1.06.74-1.65a23.11,23.11,0,0,0,1.36-3c.33,1.21.38,2.11-.41,3A12.7,12.7,0,0,1,215.79,131Z"/><path class="cls-3" d="M218.64,124a3.32,3.32,0,0,0,1.77,1.19,9.43,9.43,0,0,1-1.43,2,1.94,1.94,0,0,1-.36-.93c-.08-.27-.3-.52-.2-.83.26-.28.67,0,.91-.25,0-.37-.29-.38-.5-.5A.44.44,0,0,1,218.64,124Zm.88,1.34.07-.07-.07-.07-.07.1Z"/><path class="cls-2" d="M204.48,102.21c-.53.24-.62-.14-.69-.51-.13-.61-.24-1.22-.35-1.83a2.09,2.09,0,0,0-.52-1.05c1,.09,1.18.27,1.31,1.13S204.4,101.45,204.48,102.21Z"/><path class="cls-3" d="M191,85a3.61,3.61,0,0,1,.94-1.55l.9.79c-.06.08-.1.17-.13.16-1.15-.13-1.14-.14-1,1a1.37,1.37,0,0,1,0,.29C191.62,85.35,191.28,85.22,191,85Z"/><path class="cls-1" d="M217.71,92.51c-.09.38.13.7.21,1,0,.13.06.28-.06.35s-.32,0-.4-.17c-.25-.42-.48-.85-.71-1.28.2,0,.27-.13.37-.27s.21-.1.27.06.15.26.31.29Z"/><path class="cls-3" d="M219,119.38a4.52,4.52,0,0,1,0,3C219,121.41,219,120.39,219,119.38Z"/><path class="cls-3" d="M208.87,102.19h.63a.78.78,0,0,1-.05.18c-.11.16-.21.4-.42.33S208.82,102.39,208.87,102.19Z"/><path class="cls-3" d="M218.86,122.81c.19.32.21.6-.15.81A1.15,1.15,0,0,1,218.86,122.81Z"/><path class="cls-3" d="M210.21,98.22h-.32c0-.18.06-.34.24-.31S210.3,98.09,210.21,98.22Z"/><path class="cls-3" d="M210.38,99.59a.36.36,0,0,1-.07-.57A.52.52,0,0,1,210.38,99.59Z"/><path class="cls-3" d="M218.45,117.19c.24.07.42.15.16.41C218.34,117.54,218.39,117.37,218.45,117.19Z"/><path class="cls-3" d="M218.8,118.18c.17.11.26.23.06.4A.33.33,0,0,1,218.8,118.18Z"/><path class="cls-3" d="M196.28,86.08a.4.4,0,0,1,.51.08A.41.41,0,0,1,196.28,86.08Z"/><path class="cls-1" d="M217.7,92.54c-.16,0-.23-.17-.31-.29C217.59,92.24,217.64,92.39,217.7,92.54Z"/><path class="cls-3" d="M218.27,116.6a.19.19,0,0,1,.12.21C218.26,116.8,218.19,116.74,218.27,116.6Z"/><path class="cls-3" d="M218.06,116a.18.18,0,0,1,.14.19C218.07,116.19,218,116.14,218.06,116Z"/><path class="cls-3" d="M212.11,123.53c-.07.12-.17.25-.3.17s-.05-.28,0-.41Z"/><path class="cls-3" d="M211.76,123.93l-.07.07a1.39,1.39,0,0,1-.06-.13s0-.05.06-.07Z"/><path class="cls-4" d="M215.58,131.22c0-.11.1-.21.23-.23C215.77,131.1,215.73,131.22,215.58,131.22Z"/><path class="cls-2" d="M114.42,122.41c0,.24,0,.54.41.45.85-.17,1.71-.2,2.57-.3a32.41,32.41,0,0,1,7.56.28,81.61,81.61,0,0,1,10.24,2.23c.09,0,.17.09.26.13,1.29,1.87,2.58,3.72,3.86,5.59l9.59,14a1.32,1.32,0,0,1,.42,1c-.6-.21-1.16-.38-1.7-.6-3.17-1.23-6.32-2.5-9.5-3.69-2.77-1-5.6-1.92-8.33-3.08a43.24,43.24,0,0,1-12.4-7.72c-.91-.82-1.76-1.72-2.59-2.63a5.88,5.88,0,0,1-1.38-4.24A1.29,1.29,0,0,1,114.42,122.41Z"/><path class="cls-2" d="M143.14,127.38a21.62,21.62,0,0,1,2.85.83c1.63.53,3.3,1,4.9,1.6.79,1.57,1.58,3.15,2.38,4.71l7.34,14.3a1.54,1.54,0,0,1,.29.83c-.24.19-.45,0-.66-.05-1.35-.48-2.69-1-4-1.45a1.86,1.86,0,0,1-1-.87q-5.79-9.56-11.62-19.1C143.39,127.93,143.27,127.65,143.14,127.38Z"/><path class="cls-2" d="M121.51,121a21.56,21.56,0,0,1-3.21.33,9.82,9.82,0,0,0-3.13.8,1.51,1.51,0,0,1-.38.07c-.16-.36.16-.46.35-.57a4.87,4.87,0,0,1,2-.67A11.68,11.68,0,0,1,121.51,121Z"/><path class="cls-2" d="M114.81,122.2a.29.29,0,0,1-.41.22C114.45,122.19,114.53,122,114.81,122.2Z"/><path class="cls-1" d="M194.69,142.19c.2.2.53,0,.73.22A1.83,1.83,0,0,1,194.69,142.19Z"/><path class="cls-3" d="M219.52,125.35l-.07,0,.07-.1.07.07Z"/><path class="cls-1" d="M195.59,83.7c-.63-.75-1.13-.75-2.3-.68a1,1,0,0,0-.84.63c-.15.37.36.42.41.71-.05.06-.1.16-.13.16-1-.1-.9,0-1,1.3-.32-.38-.88-.16-1-.78.48,0,.54-.55.73-.94a2.51,2.51,0,0,1,3.09-1.54c.29-.32.08-.68.15-1,.66.22.85.46.73,1.27C195.37,83.17,195.59,83.36,195.59,83.7Z"/><path class="cls-1" d="M195.55,84.32c.38-.06,1.57.35,2,.06-.47-.14-1.18,0-1.65-.18-.29-.08-.23-.25-.14-.44a3,3,0,0,0-2.23,1.08,1.87,1.87,0,0,0-.35,1.49c.15-.19.24-.83.53-.68A2.37,2.37,0,0,1,195.55,84.32Z"/></svg>