<svg id="frames" xmlns="http://www.w3.org/2000/svg" viewBox="0 0 384 216"><defs><style>.cls-1{fill:#132037;}.cls-2{fill:#fd0b0b;}.cls-3{fill:#fdfbfb;}</style></defs><path class="cls-1" d="M289.11,110.52c-.24-.26-.11-.57-.09-.85a19.52,19.52,0,0,0-.61-5.84A39.19,39.19,0,0,0,284.5,93.6a32.74,32.74,0,0,1-1.94-4,4.65,4.65,0,0,1-.39-2.24,1.67,1.67,0,0,1,2.17-1.58,3.07,3.07,0,0,1,1.8,1.18,10.22,10.22,0,0,1,1.78,3,37.07,37.07,0,0,1,2.34,10.8,43.07,43.07,0,0,1-.74,8.85,6.32,6.32,0,0,1-.24.85S289.18,110.48,289.11,110.52Z"/><path class="cls-2" d="M286,170.18a25.64,25.64,0,0,0,2.93,1.69c4.23,2.38,8.52,4.66,12.93,6.72.28.13.78.17.71.56s-.59.32-.94.33a3.2,3.2,0,0,1-1.26-.27,123.19,123.19,0,0,1-16.68-7.66,14.07,14.07,0,0,1-2.91-2.06,2.92,2.92,0,0,1-.42-.44c-.28-.38-.18-.68.29-.82a3.61,3.61,0,0,1,1.95.14c-.23.29-.61.2-.9.35s-.47.14-.49.42.26.27.36.43.39.14.61.17A17.56,17.56,0,0,1,286,170.18Z"/><path class="cls-3" d="M286,170.18a17.56,17.56,0,0,0-3.82-.44c-.22,0-.44.09-.61-.17s-.38-.2-.36-.43.29-.32.49-.42.67-.06.9-.35a55,55,0,0,0,6.67-.11,44.54,44.54,0,0,0,5.54-.65c3.15-.78,6.38-1.34,9.33-2.84a2.14,2.14,0,0,1,1.24-.32.58.58,0,0,1,.49.29c.1.23-.08.38-.24.49s-.62.4-.92.61a21.07,21.07,0,0,1-9.32,3.57c-1.31.19-2.63.28-3.95.41-1.6.15-3.19.16-4.79.18A.9.9,0,0,0,286,170.18Z"/><path class="cls-1" d="M280.5,113.25c.11-1,.17-1.88.31-2.77a21.18,21.18,0,0,0-.32-6.74,14,14,0,0,1-.31-2.88c0-.44,0-.89.53-1.06a1.15,1.15,0,0,1,1.37.55,5.57,5.57,0,0,1,.69,2.68,19,19,0,0,1-.78,6.71c-.33,1-.63,2-.95,2.94C281,112.9,280.94,113.15,280.5,113.25Z"/><path class="cls-3" d="M261,120c-.05.12-.07.24-.14.29a.27.27,0,0,1-.35-.09,1.68,1.68,0,0,1-.3-.4,63.21,63.21,0,0,0-3.49-6c-.33-.58-.62-1.18-.91-1.77a1.72,1.72,0,0,1-.18-.57c-.06-.58.3-.88.86-.71a1.42,1.42,0,0,1,.84.79,31.79,31.79,0,0,1,1.79,3.78c.5,1.23,1,2.45,1.53,3.68C260.78,119.28,260.89,119.63,261,120Z"/><path class="cls-1" d="M266.59,73.19a7.74,7.74,0,0,1,5,2.33,15,15,0,0,1,1.1,1.29c.13.16.28.34.13.53s-.43.12-.64,0a2.34,2.34,0,0,1-.41-.29,21.75,21.75,0,0,0-5.15-3l-.19-.08c-.22-.16-.67-.19-.57-.57S266.33,73.23,266.59,73.19Z"/><path class="cls-1" d="M302.8,73.11a.82.82,0,0,1-.25.43,3.56,3.56,0,0,1-1.16.75c-1.52.69-3.12,1.18-4.59,2a.58.58,0,0,1-.48.08c-.16-.06-.32-.18-.16-.36a4.3,4.3,0,0,1,.57-.56,17.33,17.33,0,0,1,4.6-2.57,1.66,1.66,0,0,1,1.18-.09A.37.37,0,0,1,302.8,73.11Z"/><path class="cls-3" d="M266,132.06a5.27,5.27,0,0,1,.68.25c.77.39,1.52.8,2.29,1.19a3.31,3.31,0,0,1,.93.73c.13.15.28.3.14.52a.44.44,0,0,1-.53.16,5.86,5.86,0,0,1-1.55-.65,19.66,19.66,0,0,1-2.29-1.56c-.13-.11-.23-.24-.15-.42S265.78,132.06,266,132.06Z"/><path class="cls-1" d="M165.83,70.5a19.31,19.31,0,0,1,4-1.29,1.4,1.4,0,0,1,.5,0,.36.36,0,0,1,.23.15c.07.14,0,.25-.15.32a2.34,2.34,0,0,1-.44.24,14.63,14.63,0,0,1-3.88.79S166,70.64,165.83,70.5Z"/><path class="cls-1" d="M262,69.08a9.09,9.09,0,0,1-4.15,2.07C258.93,69.86,260.94,68.83,262,69.08Z"/><path class="cls-3" d="M249.37,138a.73.73,0,0,1-.3.56l-2.54,2.21a1.76,1.76,0,0,1-.77.42.4.4,0,0,1-.45-.12.33.33,0,0,1,.1-.45,36.89,36.89,0,0,0,2.8-2.66.93.93,0,0,1,.8-.29A.38.38,0,0,1,249.37,138Z"/><path class="cls-3" d="M265.14,135.4a2.14,2.14,0,0,1-.21.36c-.66.92-1.31,1.83-2,2.74a1.94,1.94,0,0,1-.36.34.42.42,0,0,1-.55,0c-.2-.15-.16-.34,0-.52.73-1.07,1.46-2.13,2.2-3.19a.54.54,0,0,1,.7-.22A.45.45,0,0,1,265.14,135.4Z"/><path class="cls-1" d="M214.14,66.65a6.83,6.83,0,0,1,2.26-2.09,1,1,0,0,1,.67-.17c.23,0,.43.17.23.38A6.73,6.73,0,0,1,214.14,66.65Z"/><path class="cls-1" d="M172.35,100.66c-.34,0-.51,0-.56-.2a.28.28,0,0,1,.18-.32,7,7,0,0,1,2.89-.6c.16,0,.35.06.37.26s-.18.25-.33.28Z"/><path class="cls-3" d="M268.78,126.68c-.3-.05-.33-.27-.24-.51a9.92,9.92,0,0,1,1.18-2.61,2.62,2.62,0,0,1,.23-.32.42.42,0,0,1,.61-.08.37.37,0,0,1,.06.53,13.36,13.36,0,0,1-1,1.83c-.19.28-.31.59-.47.88A.43.43,0,0,1,268.78,126.68Z"/><path class="cls-2" d="M103.74,108.5c-.13.28-.26.3-.39.28l-2.72-.57c-.13,0-.26-.09-.25-.25s.14-.2.27-.23a.78.78,0,0,1,.3,0A19.73,19.73,0,0,1,103.74,108.5Z"/><path class="cls-1" d="M171.75,79.33a3.54,3.54,0,0,1-2.12,1.14A2.43,2.43,0,0,1,171.75,79.33Z"/><path class="cls-1" d="M189.23,80.35a3.71,3.71,0,0,1,2.19-.68C190.75,80.11,190.11,80.64,189.23,80.35Z"/><path class="cls-3" d="M256.09,148.45c-.84-.39-1.23-1.17-1.8-1.79a.33.33,0,0,1,.08-.45.37.37,0,0,1,.53,0A3.77,3.77,0,0,1,256.09,148.45Z"/><path class="cls-1" d="M141.17,64.17A3.78,3.78,0,0,1,140,65.28a.29.29,0,0,1-.27,0,.29.29,0,0,1-.09-.25,1.75,1.75,0,0,1,.74-.89A.57.57,0,0,1,141.17,64.17Z"/><path class="cls-1" d="M227.57,76.12a2.81,2.81,0,0,1,1.86-.7A1.79,1.79,0,0,1,227.57,76.12Z"/><path class="cls-1" d="M195.49,102.94a2.85,2.85,0,0,1,1.84-.73A2.81,2.81,0,0,1,195.49,102.94Z"/></svg>