<svg id="frames" xmlns="http://www.w3.org/2000/svg" viewBox="0 0 384 216"><defs><style>.cls-1{fill:#0f1b33;}.cls-2{fill:#fa0202;}.cls-3{fill:#f7f4f5;}.cls-4{fill:#d6d7d0;}</style></defs><path class="cls-1" d="M165.46,124.16c0-.44,0-.87,0-1.3,0-7.47,0-14.93-.05-22.39q-.07-7.6,0-15.19c0-1.74.06-3.46.16-5.19a1,1,0,0,1,.8-1,3,3,0,0,1,1-.07q9.84,0,19.69,0,7.84,0,15.69.16c1.6,0,3.2.08,4.79.19a19.36,19.36,0,0,1,5.89,1.46,30.67,30.67,0,0,1,9.39,5.59,39.52,39.52,0,0,1,3,3.19,33.72,33.72,0,0,1,3.68,10.67,3.9,3.9,0,0,0,.17-1c.18-2.45.35-4.91.52-7.36L231,79.25c1.8-.06,3.59-.07,5.39,0,.3,0,.6,0,.9,0,5.53,0,11.06-.1,16.59,0,3.87.06,7.73,0,11.59.16a26.71,26.71,0,0,1,17.36,7.07,25.83,25.83,0,0,1,8.29,15.11A26.27,26.27,0,0,1,284.87,124a26.6,26.6,0,0,1-16,9,30,30,0,0,1-5.26.42h-14.4c-.67,0-.7.05-.72.76,0,1.47-.08,2.93-.08,4.4q0,10.89,0,21.78a7.09,7.09,0,0,1,0,.8,1.21,1.21,0,0,1-1.2,1.23,15.38,15.38,0,0,1-3.39-.07c.77-.34,1.53-.67,2.28-1a1.23,1.23,0,0,0,.72-.66c.15-.36.05-.45-.51-.44a9.56,9.56,0,0,0-2.82-1.23c-1.61-.45-3.21-.91-4.8-1.4-7.69-2.38-15.24-5.19-22.87-7.75-4.66-1.56-9.27-3.3-13.9-5l-5.45-1.9c.33-.3.64,0,.92.08,3.47,1.12,7,2.2,10.4,3.42,5.42,1.93,10.85,3.85,16.29,5.69.35.12.7.25,1,.35.83.25.86.23.86-.6,0-.36,0-.73,0-1.09l.33-4.23a1.55,1.55,0,0,0,0-.88,2.89,2.89,0,0,1,0-2.2c1.1,1.67,2,3.47,3,5.17a2.65,2.65,0,0,1,.25.86c.23,1.35.49,2.69.69,4a1.1,1.1,0,0,0,.87,1c1.72.52,3.43,1.1,5.14,1.66.24.07.48.25.75.07a1.83,1.83,0,0,0-.4-.8,48.13,48.13,0,0,0-5.48-6.85,13.85,13.85,0,0,1-1.83-2.32c-3.09-5.29-6.25-10.54-9.39-15.8-.13-.22-.19-.52-.51-.57-.55.67-.55.67-.17,1.35,1,1.73,2,3.47,3,5.2-.21.52,0,1.08-.16,1.6a1.32,1.32,0,0,1-.4-.56l-3.12-5.33c-.45-.75-.6-.77-1.28-.18A4.85,4.85,0,0,1,216,133c0-.58.53-.84.8-1.25a12.92,12.92,0,0,0,2-2.14c.71-.81.57-1.64.27-2.68a27.24,27.24,0,0,1-1.32,2.8c-.22.21-.42.43-.65.62a11.24,11.24,0,0,1-1.54,1.38,10.62,10.62,0,0,1-7.36,1.48c-2-.3-2-.25-3.65.93a.22.22,0,0,0-.06.07c-1.2.61-2.36,1.32-3.61,1.82a16.8,16.8,0,0,0-3,1.06c-1.23.5-2.46,1-3.67,1.57a2.48,2.48,0,0,0-1.42,1c-.27.53-.51,1.08-.76,1.62-.69-.22-1.4-.41-2.08-.66a10.55,10.55,0,0,1-2.1-.81,8.75,8.75,0,0,0,5.45-1.88c2.91-2.1,5.8-4.23,8.61-6.47,2.55-2,5.08-4.08,7.65-6.08a27.94,27.94,0,0,0,3.62-3.43l.19,0,0,.57a14.76,14.76,0,0,1-1.25,2.57,4.13,4.13,0,0,0,1.59-1.78l.2-.24a.38.38,0,0,0,.33-.37,3.14,3.14,0,0,0,.7-1.16.36.36,0,0,0,.2-.45.74.74,0,0,0,.22-.5.46.46,0,0,0,.21-.5.67.67,0,0,0,.19-.5.46.46,0,0,0,.19-.5,1.54,1.54,0,0,1,1.5-.9c-.16,1.11-.66,2-.89,3-.08.12-.2.26,0,.37s.21-.06.28-.14a8,8,0,0,0,2.32-2.44,1,1,0,0,0,.13-.85,15.83,15.83,0,0,0-.94-2.74,4,4,0,0,0-3.65-2.49,1.64,1.64,0,0,0-1.78,1,14.68,14.68,0,0,1-1.87,3.28,31.61,31.61,0,0,1-3.05,2.4,16.92,16.92,0,0,0-2.88,2.59,26.44,26.44,0,0,1-2.21,2.51,128,128,0,0,1-8.94,9.4,11,11,0,0,1-3,2.05,22.63,22.63,0,0,1-7.95,1.72,6.27,6.27,0,0,1-2.28-.15c-5-1.68-9.86-3.5-14.87-5-.34-.1-.61-.24-.56-.68s-.25-.52-.63-.4-.72.41-1.14.31a13.82,13.82,0,0,1-2.94-1c1.16-.3,2.11-.58,3.08-.8,1.85-.42,3.76-.52,5.63-.81a32.71,32.71,0,0,0,6.61-1.54,19.18,19.18,0,0,0,3-1.71c.31-.19,0-.31-.14-.38a3.42,3.42,0,0,1,.85-.49c1.45-.69,3-1.23,4.46-1.84a11.62,11.62,0,0,0,4.29.76,23.11,23.11,0,0,1,4.83.58,7.92,7.92,0,0,1,.15,2.57,2.68,2.68,0,0,1-1.75,2.25c-.18.08-.44,0-.61.29l4.48,1.25a.65.65,0,0,0,.66-.07,2.7,2.7,0,0,0,.92-1.25l-2.78-1A.55.55,0,0,1,194,128a6.18,6.18,0,0,0-.06-3,9.68,9.68,0,0,0-.31-1.12,7.16,7.16,0,0,0-1.82-3.12,1.85,1.85,0,0,0-2.09-.93c-.86.08-1.73,0-2.59.09-3.8.16-7.41,1.49-11.17,1.88-.1,0-.19.07-.29.08a8.17,8.17,0,0,1-1.47.23.69.69,0,0,0-.81-.44l-1,.19A45.29,45.29,0,0,0,165.46,124.16Zm25.61-40.37a.49.49,0,0,0,.29.47.12.12,0,0,0,.09.13,39.53,39.53,0,0,1,.58.8,5.74,5.74,0,0,1,1.23,1.69.63.63,0,0,0,.84.36c.08-.44-.16-.94.28-1.37a1.25,1.25,0,0,0,1,.36.93.93,0,0,0,.59.12.67.67,0,0,0,.61.08.77.77,0,0,0,.59.11.6.6,0,0,0,.59.07,5.29,5.29,0,0,1,2.81,1.14c.24.18.49.34.74.5a2.44,2.44,0,0,0,2.63.19.54.54,0,0,0,.55-.15l.7-.07a8.37,8.37,0,0,0,1.15,3.49,23.48,23.48,0,0,1-2,1.36c-1,.83-1.22,1.14-1.25,2.12A8,8,0,0,1,206,92.75c1-.53,1-.56,1.91.21a32.85,32.85,0,0,0,4.61,3.14,1.88,1.88,0,0,0,2.79-.7.19.19,0,0,1,.14-.09h0a.38.38,0,0,1,.36-.13c.17,0,.22.07.2.22,0,.34.14.48.44.54l.64.45.22.39,0,.43a2,2,0,0,0-.13,1l-.08.39A.43.43,0,0,0,217,99l-.11.39a.39.39,0,0,0-.09.41,1.14,1.14,0,0,0-.07,1,.43.43,0,0,0,.28.48.49.49,0,0,0,.26.32,1.75,1.75,0,0,0,.75.86,7.84,7.84,0,0,0,1.56,1.59c0,.21.42.27.22.64-1.53-.28-2.88-1.21-4.54-1.43.16,1,.75,1.86.91,2.84-.47.11-.77-.22-1.14-.19l-.3-.14c-.1-.21-.24-.42-.5-.34s-.16.24-.08.4l0,.39a1.85,1.85,0,0,0-.16,1l-.06.39a2.17,2.17,0,0,0-.26,1.6,5.3,5.3,0,0,1-.06,2.21.45.45,0,0,0-.07.39c-.09.79-.08.81.56.7.82.13,1.63.29,2.44.49a10.11,10.11,0,0,0,2.94.43.36.36,0,0,0,.42.08,5.48,5.48,0,0,0,1.34.12l-.07.3-2.34.36c-.16,0-.35,0-.37.14s.2.25.37.28l1.69.63c0,.13,0,.19.14.19-.51,0-1-.25-1.55-.06a1.31,1.31,0,0,0,.06.34,13.09,13.09,0,0,1,.8,8.37c0,.16,0,.33-.08.49-.07.41.18.53.51.58.12.23.51.2.5.55-.29.17-.58,0-.87,0s-.38.11-.31.36c.15.49.33,1,.52,1.55a8,8,0,0,0,1.52-2.11,4.21,4.21,0,0,0,.73-1.41,18.17,18.17,0,0,1,2-4.22,21.1,21.1,0,0,0,3-9.11,11.08,11.08,0,0,0-.49-5c-.82-2.32-1.77-4.59-2.67-6.88a5.4,5.4,0,0,0-.74-1.3,28,28,0,0,0-3.89-4.26l-.31-.25a.32.32,0,0,0-.37,0c-.13.09-.1.22-.08.35s.24.47.11.82a17,17,0,0,0-1.76-2.56c-.27-.49-.54-1-1.25-.61-.07,0-.23-.1-.35-.15a6,6,0,0,0-1.21-1,.45.45,0,0,0-.39-.35,1.33,1.33,0,0,0-.58-.47.48.48,0,0,0-.42-.33.54.54,0,0,0-.36-.28.49.49,0,0,0-.44-.31.12.12,0,0,0-.14-.09.47.47,0,0,0-.46-.3.14.14,0,0,0-.16-.09c-.09-.1-.16-.22-.27-.27a41,41,0,0,0-4.71-2.07.91.91,0,0,0-.67-.08,16.08,16.08,0,0,1-1.87-.22l-5.53,0-1.25-.27c-.13-.18-.57-.14-.49-.37.15-.4,0-.53-.25-.79s0-.61,0-.94c-.05-.49-.46-.47-.72-.67,0-.28-.15-.41-.42-.42l-.68,0a1.31,1.31,0,0,0-1.6.28l-.32.14a.43.43,0,0,0-.49.25.91.91,0,0,0-.52.5c-.23.13-.59,0-.71.36S190.93,83.62,191.07,83.79Zm13.05,15.5a4.27,4.27,0,0,0-2.41-.63l5.85,10a.46.46,0,0,0,.36-.45,8.9,8.9,0,0,0-.17-3.56,3.14,3.14,0,0,0-2-1.94c-.08-.73-.15-1.46-.25-2.18C205.35,99.59,205.13,99.41,204.12,99.29ZM194.12,88c-.31-.06-.6-.3-1-.1a2.49,2.49,0,0,0,.45,1c1.5,2.62,3,5.24,4.5,7.87a10.52,10.52,0,0,1,.94,1.75l-10.19.15c-.85,0-.86,0-.86.88v7c0,2.6,0,5.2,0,7.8,0,.65,0,.65.68.64,3.9,0,7.8-.11,11.7-.14a7,7,0,0,0,5.58-2.64c.61-.74.6-.73.15-1.55-.89-1.64-1.91-3.2-2.72-4.89l.21-1.28c.17.25.35.49.5.75q2.63,4.53,5.26,9.06c.12.2.17.5.54.55a2.16,2.16,0,0,0-.17-1.9q-7.12-12.12-14.2-24.27A1.21,1.21,0,0,0,194.12,88Zm31.66,51.4a2.77,2.77,0,0,0,.9,1.42c.59-8.38,1.16-16.6,1.74-24.83-.82,2.29-1.75,4.49-2.67,6.7a22.63,22.63,0,0,1-1.86,1.93,24,24,0,0,0-3.71,4.16.94.94,0,0,0-.06,1.24c1.33,2.18,2.6,4.41,3.92,6.6A19,19,0,0,0,225.78,139.4ZM255,115.08v.13h5.1a5,5,0,0,0,1.39-.11,8.72,8.72,0,0,0,6.1-5.17,6.83,6.83,0,0,0,.32-5.53,10.27,10.27,0,0,0-4.53-5,5.91,5.91,0,0,0-2.87-.72c-3.7,0-7.4,0-11.1,0-.77,0-.79,0-.79.76q-.06,7.39-.1,14.79c0,.85,0,.88.88.89C251.22,115.1,253.09,115.08,255,115.08Zm-62.8,5a11.59,11.59,0,0,0,1.58,1.62,5.9,5.9,0,0,0,3.06,1.55,39.79,39.79,0,0,0,5.87.35.6.6,0,0,0,.47-.11c.74-.76,1.49-1.52,2.22-2.29.21-.22.11-.44-.15-.56a2.4,2.4,0,0,0-.48-.11,67.09,67.09,0,0,0-11.41-.89A1.6,1.6,0,0,0,192.15,120.11Zm18-20.31c0-.61,0-1.1,0-1.59a1.2,1.2,0,0,0-.79-1.34,5.82,5.82,0,0,1-2.21-1.66c-.23-.28-.45-.55-.92-.3s-.61.45-.52.93a8.2,8.2,0,0,1,0,1c0,.73.13.87.85.93.48,0,1,0,1.48,0-.07.44-.13.77-.19,1.09-.12.76-.1.88.64,1.09a1.44,1.44,0,0,1,1.1,1.24,6.7,6.7,0,0,0,.63,2c1-1,1.78-3.34,1-4.72C210.87,98.79,210.84,99.47,210.17,99.8Zm-16.55,34c-.1-.14-.11-.18-.14-.18a42.58,42.58,0,0,0-5-.23c-.43,0-.5.22-.49.56,0,.77,0,1.53,0,2.29,0,.6.08.65.64.5A12.56,12.56,0,0,0,193.62,133.78ZM219,93.13,218.9,93s-.07,0-.06.07a.75.75,0,0,0,.06.13Z"/><path class="cls-1" d="M150.66,90.19c3.71,11.7,7.25,23.45,10.83,35.2.06.19.1.38.15.58-.32.3-.8.36-1.14.74l.47.23c-.3.21-.59.44-.9.62-1,.6-2,1.13-3,1.78a1.26,1.26,0,0,1-1.45.14,3.85,3.85,0,0,0-.57-.2c-5.25-1.66-10.49-3.39-15.79-4.91a7.12,7.12,0,0,1-1.79-.6A7.34,7.34,0,0,0,137,122q-2-7-4.1-14.07c-.07-.23,0-.62-.47-.72-1.48,4.92-3.06,9.79-4.83,14.59a30.82,30.82,0,0,1-3.46-.27,21.76,21.76,0,0,0-5.47-.18,5.52,5.52,0,0,0-3.37,1.57,1.8,1.8,0,0,0-.66,1.29,5.91,5.91,0,0,0,1.27,4.18,29.59,29.59,0,0,0,5.41,5,51.69,51.69,0,0,0,12,6.36c3.29,1.19,6.62,2.26,9.84,3.63,2.24,1,4.51,1.82,6.81,2.62.2.06.41.25.61,0a1.43,1.43,0,0,0-.37-.71L141,131.91c-1.43-2.09-2.88-4.16-4.33-6.24a49.18,49.18,0,0,1,7.74,2.2,2.26,2.26,0,0,0,.42.9l11.59,19a1.75,1.75,0,0,0,1,.81c1.32.45,2.63.94,3.95,1.41.24.09.48.27.76.11.11-.29-.08-.51-.2-.73q-3.63-7.11-7.29-14.23c-.83-1.63-1.74-3.22-2.47-4.9.23.05.46.1.68.17,10.87,3.49,21.8,6.79,32.64,10.37,8.94,3,17.93,5.8,26.84,8.82,6.37,2.16,12.65,4.59,19,6.83,3,1.07,6.08,2,9.17,2.77,1.58.41,3.17.76,4.74,1.17-.26.06-.51.14-.77.18-1.54.29-3.1.43-4.64.66A80.11,80.11,0,0,1,221,162c-1.85-.16-3.71-.25-5.56-.48q-5.83-.72-11.66-1.57c-4.51-.66-9-1.42-13.45-2.4-3.42-.75-6.81-1.6-10.21-2.4-2.16-.5-4.34-.89-6.57-1.27.15.23.36.24.54.31a42.29,42.29,0,0,0,5,1.51c2.89.79,5.79,1.56,8.68,2.33,0,1-.08,1.93-.13,2.9s-.36,1.23-1.28,1.27H150.17c-1.34,0-1.35,0-1.75-1.27-1-3-2-6-2.94-9-.3-.89-.31-.9-1.28-.9H120.61c-.91,0-.91,0-1.16.85-.75,2.59-1.65,5.13-2.25,7.77a2.78,2.78,0,0,1-.12.38c-.85,2.2-1.11,2-2.8,2-2.5,0-5,0-7.5.08q-5.23.19-10.47.21c-.9,0-1.8.08-2.69.07s-1.38-.51-1.1-1.49c.24-.82.5-1.64.75-2.46.47-.09.42-.54.54-.84q8.07-21,16.12-41.94c.44-1.15.87-2.31,1.32-3.45.14-.34.12-.58-.23-.74a19.2,19.2,0,0,0-2.41-1.18,34.2,34.2,0,0,0-3.3-1.83c-1-.54-1.93-1-2.89-1.55a1.88,1.88,0,0,1-.82-.71.85.85,0,0,1,.11-1.09.89.89,0,0,1,1.09-.21,3.1,3.1,0,0,1,.58.39q2.41,1.67,4.84,3.32a1.78,1.78,0,0,0,.77.43,17.36,17.36,0,0,0,2.33,1.67c.31.24.48.06.59-.23l1.68-4.37a.53.53,0,0,0-.24-.75,21.27,21.27,0,0,0-2.67-1.51,2.54,2.54,0,0,0-.81-.57L101.14,98A11.24,11.24,0,0,1,99.6,97c-.7-.61-.78-1-.33-1.72a1.39,1.39,0,0,1,1.86-.68,9.48,9.48,0,0,1,1.61,1c2.54,1.88,5.05,3.79,7.58,5.69a2.43,2.43,0,0,0,.91.59,12.19,12.19,0,0,0,3.12,2.25c.08-.21.18-.42.26-.64Q118,94.72,121.29,86c.89-2.33,1.85-4.62,2.63-7,.84,0,1.67,0,2.5,0l19,0c1.4,0,1.74.26,2.23,1.52Z"/><path class="cls-2" d="M187.76,158c-2.89-.77-5.79-1.54-8.68-2.33a42.29,42.29,0,0,1-5-1.51c-.18-.07-.39-.08-.54-.31,2.23.38,4.41.77,6.57,1.27,3.4.8,6.79,1.65,10.21,2.4,4.45,1,8.94,1.74,13.45,2.4q5.82.86,11.66,1.57c1.85.23,3.71.32,5.56.48a80.11,80.11,0,0,0,18.82-.75c1.54-.23,3.1-.37,4.64-.66.26,0,.51-.12.77-.18s.46,0,.68.07.37,0,.42-.26c.56,0,.66.08.51.44a1.23,1.23,0,0,1-.72.66c-.75.35-1.51.68-2.28,1-1.42.23-2.76.75-4.16,1.07A59.19,59.19,0,0,1,226,164.47a97.3,97.3,0,0,1-13.42-1.34c-3.45-.53-6.93-.95-10.34-1.75-2.92-.68-5.82-1.43-8.74-2.11C191.61,158.82,189.68,158.44,187.76,158Z"/><path class="cls-2" d="M123.92,79c-.78,2.37-1.74,4.66-2.63,7q-3.33,8.71-6.68,17.41c-.08.22-.18.43-.26.64a12.19,12.19,0,0,1-3.12-2.25c1.93-5.38,3.41-10.91,5.17-16.35.6-1.87,1.26-3.71,1.88-5.58a1.11,1.11,0,0,1,1.16-.88C120.93,79,122.43,78.92,123.92,79Z"/><path class="cls-2" d="M108.61,110.27a19.2,19.2,0,0,1,2.41,1.18c.35.16.37.4.23.74-.45,1.14-.88,2.3-1.32,3.45q-8.06,21-16.12,41.94c-.12.3-.07.75-.54.84q4.86-15.33,9.73-30.66,2.63-8.28,5.25-16.57C108.35,110.88,108.49,110.57,108.61,110.27Z"/><path class="cls-2" d="M231,79.25l-.87,12.64c-.17,2.45-.34,4.91-.52,7.36a3.9,3.9,0,0,1-.17,1,33.72,33.72,0,0,0-3.68-10.67c.09-2.88.33-5.76.21-8.65,0-1.1.42-1.92,1.65-1.8S229.85,79.13,231,79.25Z"/><path class="cls-2" d="M110.68,103.83a21.27,21.27,0,0,1,2.67,1.51.53.53,0,0,1,.24.75l-1.68,4.37c-.11.29-.28.47-.59.23A17.36,17.36,0,0,1,109,109Q109.83,106.43,110.68,103.83Z"/><path class="cls-2" d="M161,126.94l-.47-.23c.34-.38.82-.44,1.14-.74l3.82-1.81a45.29,45.29,0,0,1,6.91-2.24l1-.19a.69.69,0,0,1,.81.44,2.9,2.9,0,0,1-.86.24,53.61,53.61,0,0,0-5.66,1.62A61.56,61.56,0,0,0,161,126.94Z"/><path class="cls-3" d="M161,126.94a61.56,61.56,0,0,1,6.66-2.91,53.61,53.61,0,0,1,5.66-1.62,2.9,2.9,0,0,0,.86-.24,8.17,8.17,0,0,0,1.47-.23c.1,0,.19-.07.29-.08,3.76-.39,7.37-1.72,11.17-1.88.86,0,1.73,0,2.59-.09a1.85,1.85,0,0,1,2.09.93c.4.81.83,1.62,1.21,2.44a2.11,2.11,0,0,1,.3,1.51,23.11,23.11,0,0,0-4.83-.58,11.62,11.62,0,0,1-4.29-.76c-.25-.36-.06-.6.18-.87s.6-.41.62-.91l-4.36.49c.1.43.58.43.66.89a23.84,23.84,0,0,0-5.95,1.83c-1.94.75-4,1.2-6,1.87a37.94,37.94,0,0,0,9.51-1c.18.07.45.19.14.38a19.18,19.18,0,0,1-3,1.71,32.71,32.71,0,0,1-6.61,1.54c-1.87.29-3.78.39-5.63.81-1,.22-1.92.5-3.08.8a13.82,13.82,0,0,0,2.94,1c.42.1.76-.19,1.14-.31s.69-.12.63.4.22.58.56.68c5,1.49,9.92,3.31,14.87,5a6.27,6.27,0,0,0,2.28.15,22.63,22.63,0,0,0,7.95-1.72,11,11,0,0,0,3-2.05,128,128,0,0,0,8.94-9.4,26.44,26.44,0,0,0,2.21-2.51,16.92,16.92,0,0,1,2.88-2.59,31.61,31.61,0,0,0,3.05-2.4A14.68,14.68,0,0,0,213,114a1.64,1.64,0,0,1,1.78-1,4,4,0,0,1,3.65,2.49,15.83,15.83,0,0,1,.94,2.74,1,1,0,0,1-.13.85,8,8,0,0,1-2.32,2.44l-.26-.23c.23-1,.73-1.9.89-3a1.54,1.54,0,0,0-1.5.9.37.37,0,0,0-.19.5.67.67,0,0,1-.19.5.38.38,0,0,0-.21.5.74.74,0,0,1-.22.5.36.36,0,0,0-.2.45,3.14,3.14,0,0,1-.7,1.16.34.34,0,0,0-.33.37l-.2.24c-.21,0-.36-.11-.29-.36s.1-.3-.05-.43l0-.57c0-.09-.11-.1-.19,0a27.94,27.94,0,0,1-3.62,3.43c-2.57,2-5.1,4.06-7.65,6.08-2.81,2.24-5.7,4.37-8.61,6.47a8.75,8.75,0,0,1-5.45,1.88,10.55,10.55,0,0,0,2.1.81c.68.25,1.39.44,2.08.66.34.28.83.21,1.14.55a26.09,26.09,0,0,0,3.23,1.09l5.45,1.9c4.63,1.66,9.24,3.4,13.9,5,7.63,2.56,15.18,5.37,22.87,7.75,1.59.49,3.19.95,4.8,1.4a9.56,9.56,0,0,1,2.82,1.23c-.05.23-.18.31-.42.26s-.45,0-.68-.07c-1.57-.41-3.16-.76-4.74-1.17-3.09-.81-6.16-1.7-9.17-2.77-6.34-2.24-12.62-4.67-19-6.83-8.91-3-17.9-5.86-26.84-8.82-10.84-3.58-21.77-6.88-32.64-10.37-.22-.07-.45-.12-.68-.17-.4-.15-.8-.31-1.21-.42-2.18-.64-4.3-1.45-6.51-2a49.18,49.18,0,0,0-7.74-2.2,81.72,81.72,0,0,0-10.39-2.34,36.5,36.5,0,0,0-10.54,0c0-.39.18-.46.34-.55a6.86,6.86,0,0,1,2.24-.82,40.76,40.76,0,0,1,5.84-.42,30.82,30.82,0,0,0,3.46.27,1.07,1.07,0,0,0,.36.14,23.37,23.37,0,0,1,5.74,1l3.75.83a7.12,7.12,0,0,0,1.79.6c5.3,1.52,10.54,3.25,15.79,4.91a3.85,3.85,0,0,1,.57.2,1.26,1.26,0,0,0,1.45-.14c1-.65,2-1.18,3-1.78C160.38,127.38,160.67,127.15,161,126.94Z"/><path class="cls-3" d="M220.43,115.34l-1.69-.63v-.42l2.34-.36c.16,0,.36.08.37-.16s-.16-.17-.3-.14a5.48,5.48,0,0,1-1.34-.12c-.09-.26-.22-.32-.42-.08a10.11,10.11,0,0,1-2.94-.43c-.81-.2-1.62-.36-2.44-.49l-.56-.7a.45.45,0,0,1,.07-.39,1.63,1.63,0,0,0,.39-1.71,2.91,2.91,0,0,1,0-1.55.53.53,0,0,0-.07-.55l.06-.39c.43-.28.34-.63.16-1l0-.39.58-.06.3.14a1.28,1.28,0,0,0,.1.17c.36.26.78.51,1.18.2s0-.68-.09-1c-.14-.52-.53-1-.44-1.66a14.13,14.13,0,0,1,2.4.85,5,5,0,0,0,1.41.47c.26.07.57.1.7-.19s-.15-.52-.41-.66a1,1,0,0,0-.3,0,7.84,7.84,0,0,1-1.56-1.59.86.86,0,0,0-.75-.86.49.49,0,0,1-.26-.32.38.38,0,0,0-.28-.48,1.14,1.14,0,0,1,.07-1c.19-.1.28-.23.09-.41L217,99c.2-.1.29-.22.09-.41l.08-.39c.38-.29.33-.64.13-1l0-.43c.19-.27,0-.35-.22-.39l-.64-.45a2.27,2.27,0,0,1,.13-1.06,4.08,4.08,0,0,0,.32-2.6.34.34,0,0,1,.33-.48A17,17,0,0,1,219,94.36c.13-.35-.07-.57-.11-.82s-.05-.26.08-.35a.32.32,0,0,1,.37,0l.31.25a28,28,0,0,1,3.89,4.26,5.4,5.4,0,0,1,.74,1.3c.9,2.29,1.85,4.56,2.67,6.88a11.08,11.08,0,0,1,.49,5,21.1,21.1,0,0,1-3,9.11,18.17,18.17,0,0,0-2,4.22,4.21,4.21,0,0,1-.73,1.41c-.49,0-.84-.48-1.36-.39-.33,0-.58-.17-.51-.58,0-.16,0-.33.08-.49a13.09,13.09,0,0,0-.8-8.37,1.31,1.31,0,0,1-.06-.34c.54-.19,1,.11,1.55.06.07.13.18.21.3.1s0-.24-.08-.32A.34.34,0,0,0,220.43,115.34Z"/><path class="cls-3" d="M204.78,85.28a1.63,1.63,0,0,1,1,.09c.19.32.55.28.84.41s.61.2.76.52a7.29,7.29,0,0,0-3,.07,1.47,1.47,0,0,0,1,.3,6.74,6.74,0,0,1,3,.14l0,0,.21.24c.05.09.17.19.22.13.37-.35.69-.18,1.06,0a4.34,4.34,0,0,0,1.55.65.14.14,0,0,1,.16.09c0,.26.21.33.46.3a.12.12,0,0,1,.14.09.35.35,0,0,0,.44.31.54.54,0,0,1,.36.28.35.35,0,0,0,.42.33,1.33,1.33,0,0,1,.58.47.36.36,0,0,0,.39.35,6,6,0,0,1,1.21,1A3.51,3.51,0,0,1,216,94c-.1.31-.17.63-.25.94a.19.19,0,0,0,0,.3h0a.36.36,0,0,0-.35.13h0a.19.19,0,0,0-.14.09,18.37,18.37,0,0,1-2.23-1.81,18.66,18.66,0,0,0-4.49-3.08,1.67,1.67,0,0,1-.89-.58c.43-.34,1,0,1.52-.45a4.94,4.94,0,0,1-2.3-.91,1.88,1.88,0,0,0-1.69-.35l-.7.07a.39.39,0,0,0-.55.15,2.44,2.44,0,0,1-2.63-.19c-.25-.16-.5-.32-.74-.5a5.29,5.29,0,0,0-2.81-1.14.35.35,0,0,0-.59-.07.77.77,0,0,1-.59-.11.36.36,0,0,0-.61-.08.93.93,0,0,1-.59-.12c-.54-.44-.53-.53,0-.92s1.13-.27,1.69-.4l1.25.27c.08.06.15.17.23.17A45.36,45.36,0,0,0,204.78,85.28Z"/><path class="cls-3" d="M222.12,136.57c-1-1.73-2-3.47-3-5.2-.38-.68-.38-.68.17-1.35.32,0,.38.35.51.57,3.14,5.26,6.3,10.51,9.39,15.8a13.85,13.85,0,0,0,1.83,2.32,48.13,48.13,0,0,1,5.48,6.85,1.83,1.83,0,0,1,.4.8c-.27.18-.51,0-.75-.07-1.71-.56-3.42-1.14-5.14-1.66a1.1,1.1,0,0,1-.87-1c-.2-1.35-.46-2.69-.69-4a2.65,2.65,0,0,0-.25-.86c-1-1.7-1.91-3.5-3-5.17-.55-1-1.07-1.91-1.63-2.85C223.76,139.3,223,137.88,222.12,136.57Z"/><path class="cls-3" d="M192.15,120.11a1.6,1.6,0,0,1,1.16-.44,67.09,67.09,0,0,1,11.41.89,2.4,2.4,0,0,1,.48.11c.26.12.36.34.15.56-.73.77-1.48,1.53-2.22,2.29a.6.6,0,0,1-.47.11,39.79,39.79,0,0,1-5.87-.35,5.9,5.9,0,0,1-3.06-1.55A11.59,11.59,0,0,1,192.15,120.11Z"/><path class="cls-2" d="M225.78,139.4l0-16.71c.92-2.21,1.85-4.41,2.67-6.7-.58,8.23-1.15,16.45-1.74,24.83A2.77,2.77,0,0,1,225.78,139.4Z"/><path class="cls-2" d="M205.23,88.22a1.88,1.88,0,0,1,1.69.35,4.94,4.94,0,0,0,2.3.91c-.52.46-1.09.11-1.52.45a1.67,1.67,0,0,0,.89.58,18.66,18.66,0,0,1,4.49,3.08,18.37,18.37,0,0,0,2.23,1.81,1.88,1.88,0,0,1-2.79.7A32.85,32.85,0,0,1,207.91,93c-.88-.77-.92-.74-1.91-.21a8,8,0,0,0-2.92,2.44c0-1,.25-1.29,1.25-2.12a23.48,23.48,0,0,0,2-1.36A8.37,8.37,0,0,1,205.23,88.22Z"/><path class="cls-3" d="M194.12,88a1.21,1.21,0,0,1,1.37.67q7.06,12.15,14.2,24.27a2.16,2.16,0,0,1,.17,1.9c-.37,0-.42-.35-.54-.55q-2.64-4.53-5.26-9.06c-.15-.26-.33-.5-.5-.75a8.26,8.26,0,0,0-.39-.79c-1.67-2.9-3.36-5.8-5-8.7C196.79,92.67,195.46,90.33,194.12,88Z"/><path class="cls-2" d="M178.84,125.76a37.94,37.94,0,0,1-9.51,1c2-.67,4-1.12,6-1.87a23.84,23.84,0,0,1,5.95-1.83c-.08-.46-.56-.46-.66-.89l4.36-.49c0,.5-.4.65-.62.91s-.43.51-.18.87c-1.49.61-3,1.15-4.46,1.84A3.42,3.42,0,0,0,178.84,125.76Z"/><path class="cls-2" d="M216,133l-1,.94c-1.32,1.2-3,1.26-4.59,1.24a20.84,20.84,0,0,1-5.86-1,.22.22,0,0,1,.06-.07c1.65-1.18,1.66-1.23,3.65-.93a10.62,10.62,0,0,0,7.36-1.48,11.24,11.24,0,0,0,1.54-1.38c.23-.19.43-.41.65-.62-.15.76-.79,1.29-1,2C216.54,132.18,216,132.44,216,133Z"/><path class="cls-3" d="M210.17,99.8c.67-.33.7-1,1.14-1.36.76,1.38,0,3.72-1,4.72a6.7,6.7,0,0,1-.63-2,1.44,1.44,0,0,0-1.1-1.24c-.74-.21-.76-.33-.64-1.09.06-.32.12-.65.19-1.09-.52,0-1,0-1.48,0-.72-.06-.82-.2-.85-.93a8.2,8.2,0,0,0,0-1c-.09-.48.11-.71.52-.93s.69,0,.92.3a5.82,5.82,0,0,0,2.21,1.66,1.2,1.2,0,0,1,.79,1.34C210.14,98.7,210.17,99.19,210.17,99.8Z"/><path class="cls-2" d="M194.12,88c1.34,2.33,2.67,4.67,4,7,1.68,2.9,3.37,5.8,5,8.7a8.26,8.26,0,0,1,.39.79l-.21,1.28c-.9-1.27-1.57-2.68-2.38-4-.65-1.07-1.18-2.22-1.92-3.24a10.52,10.52,0,0,0-.94-1.75c-1.49-2.63-3-5.25-4.5-7.87a2.49,2.49,0,0,1-.45-1C193.52,87.7,193.81,87.94,194.12,88Z"/><path class="cls-2" d="M193.27,124.77a2.11,2.11,0,0,0-.3-1.51c-.38-.82-.81-1.63-1.21-2.44a7.16,7.16,0,0,1,1.82,3.12,9.68,9.68,0,0,1,.31,1.12,6.18,6.18,0,0,1,.06,3,.55.55,0,0,0,.39.77l2.78,1a2.7,2.7,0,0,1-.92,1.25.65.65,0,0,1-.66.07l-4.48-1.25c.17-.27.43-.21.61-.29a2.68,2.68,0,0,0,1.75-2.25A7.92,7.92,0,0,0,193.27,124.77Z"/><path class="cls-3" d="M197.13,84.91c-.56.13-1.17,0-1.69.4s-.56.48,0,.92a1.25,1.25,0,0,1-1-.36c-.44.43-.2.93-.28,1.37a.63.63,0,0,1-.84-.36A5.74,5.74,0,0,0,192,85.19c.55-.16.64-.72.89-1.12a2.22,2.22,0,0,1,2.19-1c.18,0,.37.17.59,0,0-.26-.17-.55-.06-.84.26.2.67.18.72.67,0,.33-.13.71,0,.94s.4.39.25.79C196.56,84.77,197,84.73,197.13,84.91Z"/><path class="cls-2" d="M222.12,136.57c.91,1.31,1.64,2.73,2.46,4.1.56.94,1.08,1.9,1.63,2.85a2.89,2.89,0,0,0,0,2.2,1.55,1.55,0,0,1,0,.88l-.33,4.23c0-1.67-.08-3.33-.08-5a3,3,0,0,0-.44-1.6c-1-1.72-2-3.45-3-5.17a3,3,0,0,1-.43-.9C222.08,137.65,221.91,137.09,222.12,136.57Z"/><path class="cls-2" d="M200.93,136.05c-1.62,1-3.3,1.83-5,2.65-.27.13-.53.28-.8.39a2.69,2.69,0,0,0-1.92,2.8c-.31-.34-.8-.27-1.14-.55.25-.54.49-1.09.76-1.62a2.48,2.48,0,0,1,1.42-1c1.21-.55,2.44-1.07,3.67-1.57A16.8,16.8,0,0,1,200.93,136.05Z"/><path class="cls-3" d="M195.64,82.14c-.11.29.05.58.06.84-.22.21-.41,0-.59,0a2.22,2.22,0,0,0-2.19,1c-.25.4-.34,1-.89,1.12a.51.51,0,0,1-.25-.35.37.37,0,0,0-.33-.45.12.12,0,0,1-.09-.13.36.36,0,0,0-.29-.47c-.14-.17-.31-.32-.17-.57.29,0,.61,0,.71-.36a.91.91,0,0,1,.52-.5.38.38,0,0,0,.49-.25l.32-.14,1.6-.28.68,0C195.49,81.73,195.65,81.86,195.64,82.14Z"/><path class="cls-1" d="M215.79,94.89c.08-.31.15-.63.25-.94a3.51,3.51,0,0,0-.45-2.91c.12,0,.28.19.35.15.71-.37,1,.12,1.25.61a.34.34,0,0,0-.33.48,4.08,4.08,0,0,1-.32,2.6,2.27,2.27,0,0,0-.13,1.06c-.3-.06-.48-.2-.44-.54,0-.15,0-.24-.2-.22h0c.12,0,.26.07.28-.09S216,94.84,215.79,94.89Z"/><path class="cls-3" d="M216.81,131.77c.2-.73.84-1.26,1-2a27.24,27.24,0,0,0,1.32-2.8c.3,1,.44,1.87-.27,2.68A12.92,12.92,0,0,1,216.81,131.77Z"/><path class="cls-3" d="M219.53,104a1,1,0,0,1,.3,0c.26.14.58.3.41.66s-.44.26-.7.19a5,5,0,0,1-1.41-.47,14.13,14.13,0,0,0-2.4-.85c-.09.68.3,1.14.44,1.66.08.33.45.71.09,1s-.82.06-1.18-.2a1.28,1.28,0,0,1-.1-.17c.37,0,.67.3,1.14.19-.16-1-.75-1.81-.91-2.84,1.66.22,3,1.15,4.54,1.43C220,104.31,219.56,104.25,219.53,104Z"/><path class="cls-2" d="M205.72,102.71c-.52.21-.63-.15-.71-.53-.12-.58-.22-1.16-.33-1.75a2.16,2.16,0,0,0-.56-1.14c1,.12,1.23.3,1.35,1.24C205.57,101.25,205.64,102,205.72,102.71Z"/><path class="cls-3" d="M220.31,125.25c.52-.09.87.38,1.36.39a8,8,0,0,1-1.52,2.11c-.19-.57-.37-1.06-.52-1.55-.07-.25.06-.35.31-.36s.58.13.87,0C220.82,125.45,220.43,125.48,220.31,125.25Z"/><path class="cls-3" d="M207.38,86.3c-.15-.32-.47-.39-.76-.52s-.65-.09-.84-.41a.91.91,0,0,1,.67.08,41,41,0,0,1,4.71,2.07c.11,0,.18.17.27.27a4.34,4.34,0,0,1-1.55-.65c-.37-.17-.69-.34-1.06,0,0,.06-.17,0-.22-.13l-.21-.24,0,0C208.14,86.51,207.7,86.53,207.38,86.3Z"/><path class="cls-3" d="M204.78,85.28a45.36,45.36,0,0,1-6.17.07c-.08,0-.15-.11-.23-.17l5.53,0A1.63,1.63,0,0,1,204.78,85.28Z"/><path class="cls-3" d="M213.45,122.61c.15.13.09.28.05.43s.08.33.29.36a4.13,4.13,0,0,1-1.59,1.78A14.76,14.76,0,0,0,213.45,122.61Z"/><path class="cls-3" d="M213.84,107.61a.53.53,0,0,1,.07.55,2.91,2.91,0,0,0,0,1.55,1.63,1.63,0,0,1-.39,1.71,5.3,5.3,0,0,0,.06-2.21A2.17,2.17,0,0,1,213.84,107.61Z"/><path class="cls-3" d="M194.54,81.69l-1.6.28A1.31,1.31,0,0,1,194.54,81.69Z"/><path class="cls-3" d="M217.25,97.21c.2.37.25.72-.13,1A2,2,0,0,1,217.25,97.21Z"/><path class="cls-3" d="M217.22,101.59a.86.86,0,0,1,.75.86A1.75,1.75,0,0,1,217.22,101.59Z"/><path class="cls-3" d="M214.06,106.21c.18.38.27.73-.16,1A1.85,1.85,0,0,1,214.06,106.21Z"/><path class="cls-3" d="M213.45,111.81l.56.7C213.37,112.62,213.36,112.6,213.45,111.81Z"/><path class="cls-1" d="M214.68,105.76l-.58.06c-.08-.16-.09-.35.08-.4S214.58,105.55,214.68,105.76Z"/><path class="cls-3" d="M191.61,82.86c-.1.39-.42.34-.71.36C191,82.87,191.38,83,191.61,82.86Z"/><path class="cls-3" d="M220.43,115.34a.34.34,0,0,1,.36,0c.12.08.2.2.08.32s-.23,0-.3-.1S220.39,115.47,220.43,115.34Z"/><path class="cls-3" d="M197.21,86.54a.35.35,0,0,1,.59.07A.6.6,0,0,1,197.21,86.54Z"/><path class="cls-3" d="M196,86.35a.36.36,0,0,1,.61.08A.67.67,0,0,1,196,86.35Z"/><path class="cls-3" d="M219.39,113.43c.2-.24.33-.18.42.08A.36.36,0,0,1,219.39,113.43Z"/><path class="cls-3" d="M221.15,113.63c.14,0,.3,0,.3.14s-.21.2-.37.16Z"/><path class="cls-3" d="M214.38,90a.36.36,0,0,1-.39-.35A.45.45,0,0,1,214.38,90Z"/><path class="cls-3" d="M215.84,119.68a.37.37,0,0,1,.19-.5A.46.46,0,0,1,215.84,119.68Z"/><path class="cls-3" d="M213.41,89.19a.35.35,0,0,1-.42-.33A.48.48,0,0,1,213.41,89.19Z"/><path class="cls-3" d="M215.44,120.68a.38.38,0,0,1,.21-.5A.46.46,0,0,1,215.44,120.68Z"/><path class="cls-3" d="M212.63,88.58a.35.35,0,0,1-.44-.31A.49.49,0,0,1,212.63,88.58Z"/><path class="cls-3" d="M215,121.63a.36.36,0,0,1,.2-.45A.36.36,0,0,1,215,121.63Z"/><path class="cls-3" d="M204,88.44a.39.39,0,0,1,.55-.15A.54.54,0,0,1,204,88.44Z"/><path class="cls-3" d="M212.05,88.18c-.25,0-.41,0-.46-.3A.47.47,0,0,1,212.05,88.18Z"/><path class="cls-3" d="M214,123.16a.34.34,0,0,1,.33-.37A.38.38,0,0,1,214,123.16Z"/><path class="cls-3" d="M191.45,84.39a.37.37,0,0,1,.33.45A.51.51,0,0,1,191.45,84.39Z"/><path class="cls-3" d="M192.62,82.11a.38.38,0,0,1-.49.25A.43.43,0,0,1,192.62,82.11Z"/><path class="cls-3" d="M191.07,83.79a.36.36,0,0,1,.29.47A.49.49,0,0,1,191.07,83.79Z"/><path class="cls-3" d="M217,98.61c.2.19.11.31-.09.41A.43.43,0,0,1,217,98.61Z"/><path class="cls-3" d="M216.68,100.79a.38.38,0,0,1,.28.48A.43.43,0,0,1,216.68,100.79Z"/><path class="cls-3" d="M216.84,99.41c.19.18.1.31-.09.41A.39.39,0,0,1,216.84,99.41Z"/><path class="cls-3" d="M217.05,96.39c.24,0,.41.12.22.39Z"/><path class="cls-1" d="M218.74,114.29v.42c-.17,0-.4,0-.37-.28S218.58,114.25,218.74,114.29Z"/><path class="cls-4" d="M213.22,122c.08-.07.14-.06.19,0Z"/><path class="cls-2" d="M215.45,95.31h0Z"/><path class="cls-1" d="M219,93.13l-.07.07a.75.75,0,0,1-.06-.13s0,0,.06-.07Z"/><path class="cls-3" d="M216.9,121.52c-.07.08-.17.2-.28.14s-.06-.25,0-.37Z"/><path class="cls-2" d="M124.15,121.57a40.76,40.76,0,0,0-5.84.42,6.86,6.86,0,0,0-2.24.82c-.16.09-.38.16-.34.55a36.5,36.5,0,0,1,10.54,0,81.72,81.72,0,0,1,10.39,2.34c1.45,2.08,2.9,4.15,4.33,6.24l9.2,13.44a1.43,1.43,0,0,1,.37.71c-.2.25-.41.06-.61,0-2.3-.8-4.57-1.66-6.81-2.62-3.22-1.37-6.55-2.44-9.84-3.63a51.69,51.69,0,0,1-12-6.36,29.59,29.59,0,0,1-5.41-5,5.91,5.91,0,0,1-1.27-4.18,1.8,1.8,0,0,1,.66-1.29,5.52,5.52,0,0,1,3.37-1.57A21.76,21.76,0,0,1,124.15,121.57Z"/><path class="cls-2" d="M144.4,127.87c2.21.54,4.33,1.35,6.51,2,.41.11.81.27,1.21.42.73,1.68,1.64,3.27,2.47,4.9q3.65,7.13,7.29,14.23c.12.22.31.44.2.73-.28.16-.52,0-.76-.11-1.32-.47-2.63-1-3.95-1.41a1.75,1.75,0,0,1-1-.81l-11.59-19A2.26,2.26,0,0,1,144.4,127.87Z"/><path class="cls-1" d="M207.38,86.3c.32.23.76.21,1,.51a6.74,6.74,0,0,0-3-.14,1.47,1.47,0,0,1-1-.3A7.29,7.29,0,0,1,207.38,86.3Z"/><path class="cls-1" d="M208.39,86.78l.21.24Z"/><path class="cls-1" d="M215.79,94.89c.18,0,.31,0,.27.21s-.16.14-.28.09A.19.19,0,0,1,215.79,94.89Z"/><path class="cls-1" d="M196.65,84.14c-.63-.75-1.13-.75-2.3-.67a1,1,0,0,0-.84.62c-.14.37.36.42.41.71,0,.06-.09.16-.13.16-1-.1-.9,0-1,1.3-.32-.38-.87-.16-1-.78.49,0,.55-.55.73-.94a2.52,2.52,0,0,1,3.1-1.54c.28-.32.07-.67.14-1,.67.22.85.46.73,1.27C196.43,83.61,196.65,83.8,196.65,84.14Z"/><path class="cls-1" d="M196.62,84.76c.37-.06,1.56.36,2,.06-.47-.13-1.18,0-1.65-.18-.29-.08-.23-.25-.13-.43a3,3,0,0,0-2.24,1.07,1.91,1.91,0,0,0-.35,1.49c.15-.19.24-.83.53-.67A2.37,2.37,0,0,1,196.62,84.76Z"/></svg>