<svg id="frames" xmlns="http://www.w3.org/2000/svg" viewBox="0 0 384 216"><defs><style>.cls-1{fill:#0f1c33;}.cls-2{fill:#fa0808;}.cls-3{fill:#f7f8f8;}.cls-4{fill:#d6d7d0;}</style></defs><path class="cls-1" d="M248.35,139.59l0,11.74V154a2.34,2.34,0,0,0,.14,1.08l-.24.2c-.16-.25-.34-.49-.49-.75q-2.74-4.53-5.48-9c-.15-.25-.24-.55-.53-.69-.78.75-.78.75-.26,1.63l7.25,12.07-4.84.44c-2.41-.95-4.9-1.69-7.36-2.47-10.38-3.28-20.82-6.41-31.24-9.57-5.73-1.73-11.41-3.69-17.26-5a4.18,4.18,0,0,1-1.22-.45,8.14,8.14,0,0,0-2-.84q-20.25-6.22-40.44-12.64a5.93,5.93,0,0,0-2-.28,16,16,0,0,0-3.65.56,1.83,1.83,0,0,0-1.25,1.35,5,5,0,0,1,2.7-.3c1.25.2,2.5.4,3.74.65a136.81,136.81,0,0,1,13.75,3.86q16.22,5.07,32.47,10c6.15,1.84,12.2,4,18.47,5.5,3,.72,6,1.67,8.9,2.65q10.29,3.45,20.78,6.17c1.32.34,2.67.57,4,1-.36,0-.72.1-1.08.13a2.15,2.15,0,0,0-.86.22.51.51,0,0,0-.27.27c0,.17.1.3.26.37a2.87,2.87,0,0,0,1.15.29c.59,0,1.19.07,1.78.06,1.29,0,2.58-.07,3.87-.11a6.65,6.65,0,0,0,2.08.54l-.9-.57c1.35-.11,2.71-.18,4.06-.17.95.31,1.89.65,2.85.92a4.37,4.37,0,0,1,2.27,1.36,12.5,12.5,0,0,0,1.3,1.09,1.13,1.13,0,0,0,1.27.23c.78-.29,1.59-.48,2.37-.77a39.56,39.56,0,0,0,4.45-1.76,5.55,5.55,0,0,1,1.85.77,39.19,39.19,0,0,1-5.92,2.65l-1.73.65a13.58,13.58,0,0,0,1.49,1.67,11.58,11.58,0,0,0,1.46,1.51,9.22,9.22,0,0,1,1,1c.33.37.21.65-.29.78a1.72,1.72,0,0,1-1.58-.4c-1.4-1.14-2.95-2.07-4.42-3.1a1.83,1.83,0,0,0-1.67-.24c-1.9.5-3.82.91-5.74,1.34a9.72,9.72,0,0,1-2.09.16c-6.6,0-13.2-.13-19.78-.55-2.43-.16-4.82-.67-7.22-1.07-3.42-.57-6.78-1.43-10.2-2-4.91-.82-9.66-2.24-14.48-3.4-2.3-.55-4.5-1.46-6.75-2.19-.82-.27-1.65-.54-2.48-.77-.57-.16-.65-.11-.68.46-.05.83,0,1.67-.07,2.5s-.35,1.23-1.28,1.27h-26.7l-.44,0c.07-.33.36-.38.56-.5,2.46-1.41,5-2.76,7.3-4.35.52-.35,1-.74,1.52-1.14.18-.13.4-.29.3-.57s-.34-.31-.57-.36a2.75,2.75,0,0,0-1.47.16,26.53,26.53,0,0,0-6.16,3.26,49,49,0,0,0-4.15,3.13,1.51,1.51,0,0,1-1.08.41c-.95,0-1.91,0-2.88,0,0-.38.25-.44.42-.56l6.12-4.33a15.57,15.57,0,0,1,2.17-1.24c2.21-1.09,4.4-2.22,6.56-3.42a3,3,0,0,0,.91-.59c-.05-.32-.35-.29-.54-.36-3.11-1.1-6.19-2.28-9.2-3.64a1.57,1.57,0,0,0-1.5.07,113.84,113.84,0,0,0-10.26,5.39,2.28,2.28,0,0,1-1,.48,12.08,12.08,0,0,1-.79-2.13c-.33-.83-.31-.85-1.22-.85h-2.6c-.21,0-.46.09-.73-.18l10.93-5.92c0-.39-.28-.42-.47-.52-1.39-.79-2.79-1.55-4.17-2.36a.89.89,0,0,0-1.08,0c-2.6,1.68-5.27,3.21-8,4.73-.48.28-1,.48-1.46.77.7-.49,1.32-1.08,2-1.56,2-1.36,4.09-2.64,6-4.13.28-.22.63-.38.78-.75a5.61,5.61,0,0,0-1.13-.82,29,29,0,0,1-6.47-5.46,1,1,0,0,0-1.05-.35,14.28,14.28,0,0,1-2.52.38c.54-.46,1.07-.94,1.63-1.37a.94.94,0,0,0,.38-1.25,3.21,3.21,0,0,1,1.82-4.46,8.72,8.72,0,0,1,6.2-.8,1.31,1.31,0,0,0,1-.15,42.09,42.09,0,0,0,6.41-4.24,5.62,5.62,0,0,0,1.17-1.36c.34-.56.21-.95-.42-1.16a4.38,4.38,0,0,0-2.46-.1,19,19,0,0,0-4.15,1.72,43.55,43.55,0,0,1-1.69-5c1.06-.62,2-1.38,3.1-2,1.51-.86,3-1.78,4.44-2.68a6.83,6.83,0,0,0,1.7-1.37c.3-.36.23-.58-.2-.74a1.64,1.64,0,0,0-1,0,5,5,0,0,0-1.23.64c-2.49,1.61-4.81,3.44-7.13,5.27a25.9,25.9,0,0,1-1.2-3.4,8.3,8.3,0,0,0,2.2-2.26c.41-.66.23-1.05-.54-1.19a2.26,2.26,0,0,0-1.8.34c-.42.32-.87.6-1.31.89-1.32-.08-1.38,0-1.57,1a45.62,45.62,0,0,0-4.64,3.44C132,117,128.87,119.36,126,122a2.27,2.27,0,0,1-.75-.73c2.64-3.23,5.65-6.11,8.56-9.08.86-.88,1.69-1.8,2.51-2.72.55-.62,1.13-1.21,1.74-1.79a50.33,50.33,0,0,0,6.24-6.73,13.92,13.92,0,0,0,2-3.67c.67-2,.09-3-2-3.47l-.2,0a11.65,11.65,0,0,0-6.44.9c-4.27,1.73-7.54,4.8-10.59,8.14-1.28,1.4-2.39,3-3.74,4.3a50.52,50.52,0,0,0-6,7.18,13.33,13.33,0,0,1-2.7-1.76c.42-.47.85-.94,1.26-1.42,2.77-3.24,5.51-6.52,8.32-9.72A20.92,20.92,0,0,0,127.26,97c.13-.26.42-.52.24-.82s-.62-.34-1-.32a2.06,2.06,0,0,0-1.19.48,7.48,7.48,0,0,0-.88.81A65.79,65.79,0,0,0,117,107c-1,1.67-2,3.4-2.94,5.11a2.83,2.83,0,0,1-.89-.43,4.55,4.55,0,0,0-3.37-.38,1.35,1.35,0,0,0-1,1.84,2.92,2.92,0,0,0,.56,1,8.55,8.55,0,0,0,1.8,1.7c1,.78,2.08,1.52,3.12,2.28l-12,16c-.68.9-1.35,1.8-2.12,2.84a38.08,38.08,0,0,1,1.29-4.32c2.25-7.22,4.47-14.45,6.82-21.63.93-2.85,1.86-5.7,2.83-8.53,1-3,1.89-6,2.84-9.06l4.26-13.42c.31-1,.46-1.09,1.51-1.09h25.9a1.77,1.77,0,0,1,1.86,1.18,9.88,9.88,0,0,1,.89,3.06,1.33,1.33,0,0,0,.08.49,42.89,42.89,0,0,1,2.36,7c4.34,13.72,8.5,27.5,12.65,41.28.31,1,1,1,1.79,1.19a2,2,0,0,0,.11-1q.12-18.25,0-36.5c0-4.17,0-8.34,0-12.5,0-1,.1-2.07.11-3.1a1,1,0,0,1,.72-1,2.87,2.87,0,0,1,1.09-.1l29.6.18c2.46,0,4.93.1,7.39.07a26.76,26.76,0,0,1,13,3.46,25.92,25.92,0,0,1,8.22,6.71s.1.07.16.11c.28-.15.16-.41.16-.62.09-2.27.16-4.53.22-6.8,0-.39-.05-.79-.06-1.19-.05-1.25.38-1.71,1.62-1.71,8.87,0,17.73,0,26.6,0,3.69,0,7.39,0,11.09.14a27,27,0,0,1,12.47,3.44A26.89,26.89,0,0,1,284.84,124a26.72,26.72,0,0,1-16,9,30,30,0,0,1-5.17.41q-5.94,0-11.9,0c-.95,0-.94,0-1.24.87a7.57,7.57,0,0,1-.84,1.8,11.52,11.52,0,0,0-.81,1.7l-.12.06h0a5.68,5.68,0,0,1-1.16,1.08,36.44,36.44,0,0,1-3.86,2.63c-.29.17-.67.28-.84.7a1.41,1.41,0,0,0,1.09,0,10,10,0,0,0,2.07-1C246.85,140.79,247.54,140.11,248.35,139.59Zm-23.77-22.17c-.06-.43.51-.18.55-.51a3,3,0,0,1,.67-1.31c.24-.34-.05-.49-.23-.65A9.81,9.81,0,0,1,224,113.3l-.87-1.24a16.47,16.47,0,0,0-1.75,2c.32.17.6.45.91.39.57-.1.69.26.81.65.2.62.37,1.25.56,1.88-.21.38-.38.08-.52,0-.46-.48-.9-1-1.35-1.47a38.4,38.4,0,0,0-4.6-4.14,2.25,2.25,0,0,0-1.55-.58c-.2,0-.42,0-.53.21s.07.37.21.51l.64.63a128,128,0,0,1,9.2,9.29,1.93,1.93,0,0,0,.35.35c.38.27.73.32,1-.14,1.43,2.35,2.89,4.69,4.28,7.07a1.16,1.16,0,0,0,1.56.63,1.66,1.66,0,0,0-.36-.81c-2-3.4-4.06-6.79-6.08-10.19A1.55,1.55,0,0,0,224.58,117.42Zm-28,18a1,1,0,0,0,.49.38,28.86,28.86,0,0,1-3.17,1.65c-1.46.8-2.63,2-4.15,2.74-.19.09-.42.16-.49.41,1.62.72,2.06.76,3.47.27.5-.18,1-.47,1.45-.65a31.13,31.13,0,0,1,7.38-1.63c1.75-.21,3.52-.23,5.25-.6a3.24,3.24,0,0,0,1.43-.5,14.57,14.57,0,0,0-2.57,0c-1.69.12-3.39.21-5.08.19-.43,0-1,.14-1.2-.44a1.72,1.72,0,0,0,1-.07,11.67,11.67,0,0,1,2.75-.43l3.68-.18a15.8,15.8,0,0,0,4.88-.86,9.2,9.2,0,0,1,3.17-.8c.22,0,.56,0,.57-.36,1.22-.17,2.45-.23,3.66-.45.4-.07.58-.24.61-.63a4,4,0,0,0-1.09-3.11,2.1,2.1,0,0,0-2-.76c-1.15.18-2.3.41-3.45.52a4.78,4.78,0,0,0-2.81,1.1,3.52,3.52,0,0,1-1.52.73l-6,1.45c.19-.24.32-.53-.15-.49s-1.08.35-1.65.38a8.77,8.77,0,0,0-.89,0,45.92,45.92,0,0,1-6,.21c-1.82-.1-3.65-.11-5.48-.14-.72,0-.74,0-.75.7,0,1.86,0,3.73,0,5.59a.55.55,0,0,0,.21.53,31.24,31.24,0,0,0,3-1.64A30.22,30.22,0,0,1,196.63,135.41ZM241.2,111.8a2.24,2.24,0,0,1-1.13.51,2.38,2.38,0,0,0-1.65,2,15.8,15.8,0,0,1,2.18.5.82.82,0,0,0,1.16-.38c.2-.35.43-.68.61-1,.09-.19.18-.41.41-.28s.07.36,0,.52c-.17.32-.38.62-.58.93a2.79,2.79,0,0,0-.31.39c-.28.57-.27.58-.83.38-.25-.08-.5-.18-.76-.25a9.92,9.92,0,0,0-4.81-.32,37.33,37.33,0,0,1-6.3,1.05c-.76,0-1,.36-1,1.27l1,.22a29.61,29.61,0,0,0,6.42.86,32,32,0,0,1,3.79.14,4.11,4.11,0,0,1,1.35.33c.18.08.41.18.36.41s-.27.29-.47.29a11.5,11.5,0,0,0-2.31.29c.4.34.9.26,1.33.4a2.42,2.42,0,0,0,1.91-.24,5.83,5.83,0,0,0,3.32-3.89c.07-.26.17-.51.25-.76a2.3,2.3,0,0,0-1.2-3c-.2-.11-.55-.06-.54-.43a.21.21,0,0,1,.31-.12,3.81,3.81,0,0,1,1.91,1.19c.1.13.14.3.44.17.57-.23.72-.08.66.48,0,.2-.08.39-.12.59-.22,1.08.16,1.47,1.28,1.34a1.44,1.44,0,0,1,1,0c-.26.68-1,.87-1.32,1.48l.21.09c.43.13,1.15,0,1.23.43s-.61.67-1,.92c-.79.49-.86.49-.58,1.41a3,3,0,0,1-.17,2c-.38,1-.74,2-1.14,3a1.2,1.2,0,0,0,.07,1.21,11,11,0,0,1,1.48,3.58,2,2,0,0,0,2,1.82c.29.58-.46.14-.44.41s.56.45.6.83c-.5.31-.8-.22-1.21-.24a4.25,4.25,0,0,0,.15,1.31,2,2,0,0,0,.28,1.25,16.31,16.31,0,0,0,1.32-3.55,13.71,13.71,0,0,0,.87-4.48,38.25,38.25,0,0,0-1.95-12.05,6.49,6.49,0,0,0-1.54-2.66c-.06.26.14.49-.14.59a.34.34,0,0,1-.43-.16,5.83,5.83,0,0,1-.37-.7c-.31-.7-.58-1.42-.93-2.1a3.33,3.33,0,0,0-3.24-1.87,6.08,6.08,0,0,1-2.08-.06,1.36,1.36,0,0,0-1.48,1.64,10.06,10.06,0,0,1,.43,2l1.12-.49a3.11,3.11,0,0,1,1.56-.26c.23,0,.07.19.05.3a2.06,2.06,0,0,0-1.51.54C240.86,111.8,241.1,111.55,241.2,111.8Zm1.06,29.43a9.72,9.72,0,0,0,2.07-4.44,17.32,17.32,0,0,0,.26-6,3.8,3.8,0,0,1,0-.89c0-.21,0-.54.3-.54s.36.26.42.49a6.78,6.78,0,0,1,.16.88c.12,1.2.16,2.4.18,3.6a2.26,2.26,0,0,0,.18,1.15,6.66,6.66,0,0,0,1.6-3.57,1.78,1.78,0,0,0-.06-.69,26.72,26.72,0,0,0-2.35-5.5,1.44,1.44,0,0,0-.92-.72,9.32,9.32,0,0,0-2.46-.36c-1,0-1.22.19-1.39,1.18s-.31,2-.44,3.06a25.66,25.66,0,0,1-1.39,6.11c-1.18,3.08-2.33,6.17-3.26,9.34a16.14,16.14,0,0,1-2.4,5.23,7.42,7.42,0,0,0-.79,1.16,4.08,4.08,0,0,1-1.61,1.58,3,3,0,0,0-1.14.86c1.55.44,3,1,4.57,1.35a14.67,14.67,0,0,0-.13-1.52c-.12-.61.39-.87.61-1.24,0-.18-.13-.18-.21-.22l-.24-.13a.45.45,0,0,1,0-.12l.31-.39a39.53,39.53,0,0,0,8-15.06,4.34,4.34,0,0,1,.14-.48.51.51,0,0,1,.62-.36c.29.05.35.28.35.53a8.53,8.53,0,0,1-.13,1.59,28.76,28.76,0,0,1-1.23,4.09,10.65,10.65,0,0,0-.85,2.09A4.55,4.55,0,0,0,242.26,141.23Zm-21.46-2.64c-.6-.2-1.22-.36-1.79-.61a4.09,4.09,0,0,1-1.92-1.18.58.58,0,0,0-.52-.22,12.17,12.17,0,0,0-1.7-.08,3.3,3.3,0,0,0-1.75.31c-.93.63-2,1.08-2.88,1.77A7,7,0,0,1,206,140c-1.69.08-3.39.09-5.09.2a17.83,17.83,0,0,0-4.89.92c-.53.19-.6.46-.56,1s.42.61.79.73l29,9a.81.81,0,0,0,.75,0c0-3.95-.16-7.94-.11-11.93a7.67,7.67,0,0,1,1.81.53,17.69,17.69,0,0,0,5.58,1,3.22,3.22,0,0,0,1.54-.28.76.76,0,0,0-.73-.34,17.38,17.38,0,0,1-3.7-.83c-.67-.19-1.35-.33-2-.47-2.32-.47-4.7-.43-7-1A2,2,0,0,0,220.8,138.59ZM188,106.84h0c0,2.43,0,4.86,0,7.29,0,.86,0,.86.89.85l11.79-.12a6.73,6.73,0,0,0,1-.07,8.65,8.65,0,0,0,6.4-7.23,9.39,9.39,0,0,0-3.53-8.1,3.31,3.31,0,0,0-1.15-.59,9.19,9.19,0,0,0-3.64-.44l-10.88.19c-.82,0-.84,0-.84.82Zm67-8.22h-5.6c-.78,0-.8,0-.8.76,0,3.93.05,7.86-.11,11.79a2.3,2.3,0,0,0,.47,1.48,7,7,0,0,1,1,1.73,1,1,0,0,0,1.12.72c2.83,0,5.67,0,8.5.14a7.82,7.82,0,0,0,6.57-3c2.84-3.45,3.16-7.43-.26-11-.11-.12-.23-.23-.35-.35a7.43,7.43,0,0,0-5.75-2.32C258.16,98.66,256.56,98.62,255,98.62Zm-35.69,30.7a6.62,6.62,0,0,1,2.66,2.42,8.16,8.16,0,0,0,3.67,2.79,21.34,21.34,0,0,0,8,1.5,7,7,0,0,0,1.88-.25,1.37,1.37,0,0,0,1.11-1.34,5,5,0,0,0-1.32-3.85,1.68,1.68,0,0,0-1.47-.66,28.67,28.67,0,0,1-3.59,0c-1.73-.15-3.44-.43-5.15-.65A23.3,23.3,0,0,0,219.27,129.32Zm-45.41,6.27v.29l3,.93a1,1,0,0,0,.68-.09c2.28-1.1,4.64-2,6.83-3.3a5.91,5.91,0,0,0,.66-.45c.22-.17.44-.37.35-.67s-.39-.33-.65-.39a3.44,3.44,0,0,0-1.39.1C180,132.64,177.08,134.53,173.86,135.59Zm51.94-12.81-.18-.09a41.44,41.44,0,0,1-6.6,5.95,17.65,17.65,0,0,0,2.19,0,35.86,35.86,0,0,1,3.88.17c.49,0,.73-.05.72-.62C225.78,126.37,225.8,124.58,225.8,122.78Zm8.31-13.19a5.06,5.06,0,0,0,1.78-.94,2.1,2.1,0,0,1,1.55-.57,4.91,4.91,0,0,0,2.57-.64c-.45-.59-.85-1.13-1.26-1.64a2,2,0,0,0-1.94-.77,6.74,6.74,0,0,0-2.53.87.78.78,0,0,0-.48.69A14.84,14.84,0,0,0,234.11,109.59Zm-6.58,8.08c-.34-.77.06-1.29.34-1.83-1.1-.38-1.24-.34-1.71.48s-.17,1.19.66,1.3Zm7.25-5.82c.2.55.32,1,.51,1.39.12.24.4.22.6.07s0-.3-.07-.41C235.52,112.58,235.34,112.14,234.78,111.85Z"/><path class="cls-2" d="M114.56,112.5a12.87,12.87,0,0,0,2.7,1.75c.25.54.77.8,1.19,1.17,2.24,2,4.5,3.88,6.75,5.82a2.27,2.27,0,0,0,.75.73c.59.77,1.36,1.37,2,2.08a1.87,1.87,0,0,1,.7,1.19c-1.51-.57-2.81-1.43-4.23-2a1.1,1.1,0,0,0-.66-.37c-2.08-1.13-4.23-2.1-6.39-3.08-1.06-.48-2.07-1.07-3.11-1.58-1-.76-2.1-1.5-3.12-2.28a8.55,8.55,0,0,1-1.8-1.7,2.92,2.92,0,0,1-.56-1,1.35,1.35,0,0,1,1-1.84,4.55,4.55,0,0,1,3.37.38,2.83,2.83,0,0,0,.89.43A.73.73,0,0,0,114.56,112.5Z"/><path class="cls-1" d="M145.33,122.09c-2.4,1.29-4.6,2.9-6.83,4.39-.38-.24-.34-.58-.43-.85-.68-2.26-1.35-4.53-2-6.79-.23-.78-.22-.77.45-1.3,1.49-1.18,3-2.38,4.44-3.57A69.78,69.78,0,0,1,145.33,122.09Z"/><path class="cls-2" d="M268.76,162a5.55,5.55,0,0,0-1.85-.77,12.42,12.42,0,0,0-7.15-1.74c-2.46.19-4.91.39-7.36.67-1.35,0-2.71.06-4.06.17a2.36,2.36,0,0,0-1.18,0c-1.29,0-2.58.09-3.87.11-.59,0-1.19,0-1.78-.06a2.87,2.87,0,0,1-1.15-.29c-.16-.07-.3-.2-.26-.37a.51.51,0,0,1,.27-.27,2.15,2.15,0,0,1,.86-.22c.36,0,.72-.08,1.08-.13a5.86,5.86,0,0,0,1.62-.15l4.84-.44a3.35,3.35,0,0,0,1.26-.13.64.64,0,0,0,.45-.07,20.38,20.38,0,0,0,3.65-.39c1.15-.15,2.3-.34,3.45-.49a9.1,9.1,0,0,1,3.16.26,34.33,34.33,0,0,1,6.63,2.11c.54.25,1.11.43,1.67.65a2.93,2.93,0,0,0,1.2.55,14.52,14.52,0,0,1,3.08,2.21,1.11,1.11,0,0,1-1.21.06c-.75-.29-1.48-.6-2.22-.9A5.07,5.07,0,0,0,268.76,162Z"/><path class="cls-2" d="M145.33,122.09A69.78,69.78,0,0,0,141,114a26.93,26.93,0,0,1-1.18-2.76c.19-1,.25-1.07,1.58-1a14.31,14.31,0,0,1,1.44,2.22,25.9,25.9,0,0,0,1.2,3.4,1.44,1.44,0,0,0,.3.85,43.55,43.55,0,0,0,1.69,5c0,.57.47,1,.35,1.74C145.73,123.11,145.68,122.48,145.33,122.09Z"/><path class="cls-2" d="M248.35,139.59c-.81.52-1.5,1.2-2.34,1.68a10,10,0,0,1-2.07,1,1.41,1.41,0,0,1-1.09,0c.17-.42.55-.53.84-.7a36.44,36.44,0,0,0,3.86-2.63,5.68,5.68,0,0,0,1.16-1.08h0l.12-.06,2.12-1.92c.17-.16.32-.34.49-.49s.5-.32.71-.09-.06.42-.19.58A27.52,27.52,0,0,1,248.9,139C248.71,139.2,248.54,139.4,248.35,139.59Z"/><path class="cls-2" d="M136.05,126a2.08,2.08,0,0,1-1.06-1.2c-.63-1.13-1.19-2.29-1.79-3.44a2.6,2.6,0,0,1-.33-1.13c0-.26-.06-.55.27-.67a.67.67,0,0,1,.87.26,3.25,3.25,0,0,1,.28.52A32.31,32.31,0,0,1,136.05,126Z"/><path class="cls-1" d="M270.24,161a2.93,2.93,0,0,1-1.2-.55,4.3,4.3,0,0,1,1.29-.49.42.42,0,0,1,.44.16c.1.18,0,.3-.16.43S270.36,160.84,270.24,161Z"/><path class="cls-1" d="M250.48,158.3a.64.64,0,0,1-.45.07l-1.75-3.08.24-.2C249.23,156.12,249.86,157.2,250.48,158.3Z"/><path class="cls-1" d="M123.77,122.85a1.1,1.1,0,0,1,.66.37c-.78.71-.78.71-1.4.65A4.23,4.23,0,0,1,123.77,122.85Z"/><path class="cls-3" d="M243.93,158.94a5.86,5.86,0,0,1-1.62.15c-1.3-.43-2.65-.66-4-1q-10.5-2.72-20.78-6.17c-2.93-1-5.89-1.93-8.9-2.65-6.27-1.47-12.32-3.66-18.47-5.5q-16.26-4.89-32.47-10A136.81,136.81,0,0,0,144,129.93c-1.24-.25-2.49-.45-3.74-.65a5,5,0,0,0-2.7.3,1.83,1.83,0,0,1,1.25-1.35,16,16,0,0,1,3.65-.56,5.93,5.93,0,0,1,2,.28q20.18,6.45,40.44,12.64a8.14,8.14,0,0,1,2,.84,4.18,4.18,0,0,0,1.22.45c5.85,1.33,11.53,3.29,17.26,5,10.42,3.16,20.86,6.29,31.24,9.57C239,157.25,241.52,158,243.93,158.94Z"/><path class="cls-3" d="M241.85,141.15a28.76,28.76,0,0,0,1.23-4.09,8.53,8.53,0,0,0,.13-1.59c0-.25-.06-.48-.35-.53a.51.51,0,0,0-.62.36,4.34,4.34,0,0,0-.14.48,39.53,39.53,0,0,1-8,15.06l-.31.39a.45.45,0,0,0,0,.12l.24.13c.08,0,.2,0,.21.22-.22.37-.73.63-.61,1.24a14.67,14.67,0,0,1,.13,1.52c-1.59-.35-3-.91-4.57-1.35a3,3,0,0,1,1.14-.86,4.08,4.08,0,0,0,1.61-1.58,7.42,7.42,0,0,1,.79-1.16,16.14,16.14,0,0,0,2.4-5.23c.93-3.17,2.08-6.26,3.26-9.34a25.66,25.66,0,0,0,1.39-6.11c.13-1,.27-2.05.44-3.06s.36-1.14,1.39-1.18a9.32,9.32,0,0,1,2.46.36,1.44,1.44,0,0,1,.92.72,26.72,26.72,0,0,1,2.35,5.5,1.78,1.78,0,0,1,.06.69,6.66,6.66,0,0,1-1.6,3.57,2.26,2.26,0,0,1-.18-1.15c0-1.2-.06-2.4-.18-3.6a6.78,6.78,0,0,0-.16-.88c-.06-.23-.14-.5-.42-.49s-.28.33-.3.54a3.8,3.8,0,0,0,0,.89,17.32,17.32,0,0,1-.26,6,9.72,9.72,0,0,1-2.07,4.44Z"/><path class="cls-3" d="M202.82,133.4l6-1.46a3.52,3.52,0,0,0,1.52-.73,4.78,4.78,0,0,1,2.81-1.1c1.15-.11,2.3-.34,3.45-.52a2.1,2.1,0,0,1,2,.76,4,4,0,0,1,1.09,3.11c0,.39-.21.56-.61.63-1.21.22-2.44.28-3.66.45-1.07-.62-1.1-.75-.28-1.64.06-.07.14-.14.2-.22.23-.31.07-.49-.22-.6a.84.84,0,0,0-.58.08,23.89,23.89,0,0,1-4.88,1c-.21,0-.47,0-.62.3a3.6,3.6,0,0,0,1.35.49c.32.12.86-.06.92.38s-.5.47-.81.62a9.61,9.61,0,0,1-1.3.48,13.66,13.66,0,0,1-3.36.45,20.65,20.65,0,0,0-5.42.74c-.38.12-.89.08-1,.62.24.58.77.43,1.2.44,1.69,0,3.39-.07,5.08-.19a14.57,14.57,0,0,1,2.57,0,3.24,3.24,0,0,1-1.43.5c-1.73.37-3.5.39-5.25.6a31.13,31.13,0,0,0-7.38,1.63c-.49.18-.95.47-1.45.65-1.41.49-1.85.45-3.47-.27.07-.25.3-.32.49-.41,1.52-.7,2.69-1.94,4.15-2.74a28.86,28.86,0,0,0,3.17-1.65C199,134.93,200.87,134.07,202.82,133.4Z"/><path class="cls-3" d="M249.65,131.37a2,2,0,0,1-2-1.82,11,11,0,0,0-1.48-3.58,1.2,1.2,0,0,1-.07-1.21c.4-1,.76-2,1.14-3a3,3,0,0,0,.17-2c-.28-.92-.21-.92.58-1.41.4-.25,1.11-.41,1-.92s-.8-.3-1.23-.43l-.21-.09c.29-.61,1.06-.8,1.32-1.48a1.44,1.44,0,0,0-1,0c-1.12.13-1.5-.26-1.28-1.34,0-.2.1-.39.12-.59.06-.56-.09-.71-.66-.48-.3.13-.34,0-.44-.17a3.81,3.81,0,0,0-1.91-1.19.21.21,0,0,0-.31.12l0,0c.17-.42-.29-.21-.38-.38a2.07,2.07,0,0,0-.8-.28c0-.11.18-.27-.05-.3a3.11,3.11,0,0,0-1.56.26l-1.12.49a10.06,10.06,0,0,0-.43-2,1.36,1.36,0,0,1,1.48-1.64,6.08,6.08,0,0,0,2.08.06,3.33,3.33,0,0,1,3.24,1.87c.35.68.62,1.4.93,2.1a5.83,5.83,0,0,0,.37.7.34.34,0,0,0,.43.16c.28-.1.08-.33.14-.59a6.49,6.49,0,0,1,1.54,2.66,38.25,38.25,0,0,1,1.95,12.05,13.71,13.71,0,0,1-.87,4.48Z"/><path class="cls-3" d="M219.27,129.32a23.3,23.3,0,0,1,5.78,0c1.71.22,3.42.5,5.15.65a28.67,28.67,0,0,0,3.59,0,1.68,1.68,0,0,1,1.47.66,5,5,0,0,1,1.32,3.85,1.37,1.37,0,0,1-1.11,1.34,7,7,0,0,1-1.88.25,21.34,21.34,0,0,1-8-1.5,8.16,8.16,0,0,1-3.67-2.79A6.62,6.62,0,0,0,219.27,129.32Z"/><path class="cls-3" d="M243.38,111.76c0,.37.34.32.54.43a2.3,2.3,0,0,1,1.2,3c-.08.25-.18.5-.25.76a5.83,5.83,0,0,1-3.32,3.89,2.42,2.42,0,0,1-1.91.24c-.43-.14-.93-.06-1.33-.4a11.5,11.5,0,0,1,2.31-.29c.2,0,.43-.07.47-.29s-.18-.33-.36-.41a4.11,4.11,0,0,0-1.35-.33,32,32,0,0,0-3.79-.14,29.61,29.61,0,0,1-6.42-.86l-1-.22c0-.91.21-1.25,1-1.27a37.33,37.33,0,0,0,6.3-1.05,9.92,9.92,0,0,1,4.81.32c.26.07.51.17.76.25.56.2.55.19.83-.38a2.79,2.79,0,0,1,.31-.39c.2-.31.41-.61.58-.93.08-.16.26-.39,0-.52s-.32.09-.41.28c-.18.35-.41.68-.61,1a.82.82,0,0,1-1.16.38,15.8,15.8,0,0,0-2.18-.5,2.38,2.38,0,0,1,1.65-2,2.24,2.24,0,0,0,1.13-.51h0c.28.18.55-.09.83,0h.78c.2-.06.4.22.61,0Z"/><path class="cls-2" d="M226.52,121.6c-.28.46-.63.41-1,.14a1.93,1.93,0,0,1-.35-.35,128,128,0,0,0-9.2-9.29l-.64-.63c-.14-.14-.33-.29-.21-.51s.33-.2.53-.21a2.25,2.25,0,0,1,1.55.58,38.4,38.4,0,0,1,4.6,4.14c.45.49.89,1,1.35,1.47.14.13.31.43.52,0h0c-.07,0-.24,0-.17.15a3.62,3.62,0,0,0,1.35,1.67v0a.3.3,0,0,0,.22.41l0,0a.66.66,0,0,0,.23.43l0,0,.23.31A5.94,5.94,0,0,1,226.52,121.6Z"/><path class="cls-2" d="M199.44,137.24c.14-.54.65-.5,1-.62a20.65,20.65,0,0,1,5.42-.74,13.66,13.66,0,0,0,3.36-.45,9.61,9.61,0,0,0,1.3-.48c.31-.15.86-.2.81-.62s-.6-.26-.92-.38a3.6,3.6,0,0,1-1.35-.49c.15-.33.41-.28.62-.3a23.89,23.89,0,0,0,4.88-1,.84.84,0,0,1,.58-.08c.29.11.45.29.22.6-.06.08-.14.15-.2.22-.82.89-.79,1,.28,1.64,0,.41-.35.35-.57.36a9.2,9.2,0,0,0-3.17.8,15.8,15.8,0,0,1-4.88.86l-3.68.18a11.67,11.67,0,0,0-2.75.43A1.72,1.72,0,0,1,199.44,137.24Z"/><path class="cls-3" d="M248.28,155.29l1.75,3.08a3.35,3.35,0,0,1-1.26.13l-7.25-12.07c-.52-.88-.52-.88.26-1.63.29.14.38.44.53.69q2.74,4.51,5.48,9C247.94,154.8,248.12,155,248.28,155.29Z"/><path class="cls-3" d="M234.11,109.59a14.84,14.84,0,0,1-.31-3,.78.78,0,0,1,.48-.69,6.74,6.74,0,0,1,2.53-.87,2,2,0,0,1,1.94.77c.41.51.81,1,1.26,1.64a4.91,4.91,0,0,1-2.57.64,2.1,2.1,0,0,0-1.55.57A5.06,5.06,0,0,1,234.11,109.59Z"/><path class="cls-3" d="M226.52,121.6a6.13,6.13,0,0,0-1.1-1.73c0-.14,0-.28-.23-.3l0,0a.34.34,0,0,0-.23-.43l0,0a.4.4,0,0,0-.22-.41v0a.89.89,0,0,0-.28-.58c-.34-.34-.07-.57.08-.83l0,0a1.55,1.55,0,0,1,1.34.88c2,3.4,4.06,6.79,6.08,10.19a1.66,1.66,0,0,1,.36.81,1.16,1.16,0,0,1-1.56-.63C229.41,126.29,228,124,226.52,121.6Z"/><path class="cls-2" d="M225.84,140a7.8,7.8,0,0,0-2-.54,17.48,17.48,0,0,1-3-.82,2,2,0,0,1,.49,0c2.31.54,4.69.5,7,1,.69.14,1.37.28,2,.47a17.38,17.38,0,0,0,3.7.83.76.76,0,0,1,.73.34,3.22,3.22,0,0,1-1.54.28,17.69,17.69,0,0,1-5.58-1A7.67,7.67,0,0,0,225.84,140Z"/><path class="cls-3" d="M223.66,117c-.19-.63-.36-1.26-.56-1.88-.12-.39-.24-.75-.81-.65-.31.06-.59-.22-.91-.39a16.47,16.47,0,0,1,1.75-2l.87,1.24a9.81,9.81,0,0,0,1.57,1.65c.18.16.47.31.23.65a3,3,0,0,0-.67,1.31c0,.33-.61.08-.55.51l0,0-1-.41Z"/><path class="cls-2" d="M196.63,135.41a2.77,2.77,0,0,1,1.22-.8c1.05-.45,2.11-.89,3.18-1.33.57,0,1.09-.34,1.65-.38s.34.25.15.5a60.85,60.85,0,0,0-5.71,2.39A1,1,0,0,1,196.63,135.41Z"/><path class="cls-3" d="M249.65,131.37h.7a16.31,16.31,0,0,1-1.32,3.55,2,2,0,0,1-.28-1.25,4.25,4.25,0,0,1-.15-1.31c.41,0,.71.55,1.21.24,0-.38-.53-.44-.6-.83S249.94,132,249.65,131.37Z"/><path class="cls-3" d="M227.53,117.67l-.71,0c-.83-.11-1.07-.59-.66-1.3s.61-.86,1.71-.48C227.59,116.38,227.19,116.9,227.53,117.67Z"/><path class="cls-3" d="M241.85,141.15l.41.08a4.55,4.55,0,0,1-1.26,2A10.65,10.65,0,0,1,241.85,141.15Z"/><path class="cls-3" d="M242.79,111.79H242c-.26-.32-.42-.32-.82,0h0c-.1-.25-.34,0-.49-.13a1.85,1.85,0,0,1,2.31-.26C242.86,111.48,242.63,111.52,242.79,111.79Z"/><path class="cls-3" d="M234.78,111.85c.56.29.74.73,1,1.05.11.11.24.28.07.41s-.48.17-.6-.07C235.1,112.83,235,112.4,234.78,111.85Z"/><path class="cls-3" d="M247.16,160.32a2.36,2.36,0,0,1,1.18,0l.9.57A6.65,6.65,0,0,1,247.16,160.32Z"/><path class="cls-4" d="M248.71,137.86Z"/><path class="cls-1" d="M242.79,111.79c-.16-.27.07-.31.23-.38.09.17.55,0,.38.38C243.19,112,243,111.73,242.79,111.79Z"/><path class="cls-1" d="M241.18,111.81c.4-.34.56-.34.82,0C241.73,111.72,241.46,112,241.18,111.81Z"/><path class="cls-1" d="M223.62,117l1,.41c-.15.26-.42.49-.08.83a.89.89,0,0,1,.28.58,3.62,3.62,0,0,1-1.35-1.67C223.38,117,223.55,117,223.62,117Z"/><path class="cls-1" d="M225,119.17a.34.34,0,0,1,.23.43A.66.66,0,0,1,225,119.17Z"/><path class="cls-1" d="M224.79,118.78a.4.4,0,0,1,.22.41A.3.3,0,0,1,224.79,118.78Z"/><path class="cls-1" d="M225.19,119.57c.19,0,.21.16.23.3Z"/></svg>