<svg id="frames" xmlns="http://www.w3.org/2000/svg" viewBox="0 0 384 216"><defs><style>.cls-1{fill:#0f1b33;}.cls-2{fill:#fc0101;}.cls-3{fill:#fafbfb;}.cls-4{fill:#d6d7d0;}</style></defs><path class="cls-1" d="M188.72,156.89l-.39-.08c-.6-.1-.63-.08-.64.53,0,1.14,0,2.27-.05,3.4a3,3,0,0,1,0,.6.94.94,0,0,1-.86.83,6.77,6.77,0,0,1-.9,0h-36c-1.06,0-1.26-.1-1.52-1.11-.41-1.58-1-3.09-1.53-4.64s-1-3.19-1.54-4.77a.89.89,0,0,0-1-.68c-3.3,0-6.6,0-9.9,0h-13.6c-1.26,0-1,0-1.37,1-.88,2.64-1.57,5.33-2.4,8,0,.06,0,.13,0,.2-.64,1.75-.78,1.84-2.65,1.86-2.49,0-5,0-7.49.08-3.49.13-7,.19-10.48.2-.86,0-1.73.08-2.59.08-1.27,0-1.55-.38-1.2-1.59L118,80.39c.07-.26.25-.43.29-.71.07-.51.49-.66.94-.67h1.9q12.06,0,24.1,0c1.41,0,2,.12,2.51,1.84,1.29,4.07,2.55,8.16,3.81,12.25q2.52,8.1,5,16.21l2.73,8.93a26.84,26.84,0,0,0-6,2.65c.56.15,1-.08,1.4.12-1.1.55-2.19,1.13-3.3,1.63s-2.23.92-3.49,1.44c1.38.55,2.58,1,3.78,1.53a1.28,1.28,0,0,0,1,0,12.71,12.71,0,0,1,3.44-1c1.62-.14,3.24-.29,4.86-.46a37.61,37.61,0,0,0,5.49-1c.28-.07.65-.08.83-.54h-2.74a5.36,5.36,0,0,1,.57-.17,41.19,41.19,0,0,0,9-2.83,2.34,2.34,0,0,0,1.82.21,7.63,7.63,0,0,1,3.73-.27,20.5,20.5,0,0,0,5.25,0,6.13,6.13,0,0,1-4,4.51c.15.11.21.19.3.22a47.92,47.92,0,0,0,7.59,1.72.74.74,0,0,0,.73-.21,6.94,6.94,0,0,0,.95-1.31l-1.34-.22a20.57,20.57,0,0,1-3.81-.76c-.75-.25-.78-.31-.39-.94a7.72,7.72,0,0,0,1.05-3.1,6,6,0,0,0-1.35-4.37c-.22-.3-.51-.45-.8,0l-2.29.06a28,28,0,0,0-7.77,1.15,4.92,4.92,0,0,1-1.78.22,6.91,6.91,0,0,0-3,.55,10.8,10.8,0,0,1-3.69.76c-.57-.28-1.24-.11-1.81-.39a5.29,5.29,0,0,1,1.36-.27.51.51,0,0,0,.5-.6c0-.26,0-.53,0-.8q0-15.09-.07-30.17c0-1.9.09-3.79.12-5.69a.63.63,0,0,1,.45-.66,2.79,2.79,0,0,1,1.17-.18l17.78.07.2.21c-.69.47-.9,1.29-1.35,1.92a1.8,1.8,0,0,0-.41,1.1c0,.31.48.32.61.6a1.43,1.43,0,0,0,.19.24c.49.53,1,1.09,1.49,1.59s.67.29.77-.29a4.94,4.94,0,0,1,.15-.55,4.19,4.19,0,0,1,1.39-1.9c.8-.62.81-.72.46-1.66L187.85,79l.22-.24c.29.44.74.38,1.17.38,4.33,0,8.67.05,13,.12,1.83,0,3.66.1,5.48.26a22.63,22.63,0,0,1,6.77,1.94,29.23,29.23,0,0,1,8.09,5,28,28,0,0,1,3.09,3.26c.25-.26.15-.54.16-.79.08-2.23.13-4.46.22-6.69a18.2,18.2,0,0,1,0-2.09c.09-.56.43-.69.82-.83a1.65,1.65,0,0,1,.59,0c8.9,0,17.8,0,26.7,0,3.73,0,7.46.1,11.19.17a26.78,26.78,0,0,1,9.75,2.17,27.52,27.52,0,0,1,7.65,4.86,25.51,25.51,0,0,1,6,8A26.67,26.67,0,0,1,287.7,120a25.34,25.34,0,0,1-4,5.29,27.58,27.58,0,0,1-7.27,5.29,39.94,39.94,0,0,1-4.06,1.69,19.9,19.9,0,0,1-3,.66,28.53,28.53,0,0,1-5.46.51H249.22c-.72,0-.74,0-.75.73,0,1.53-.08,3.06-.08,4.6q0,10.85,0,21.69a5.38,5.38,0,0,1,0,.8,1.26,1.26,0,0,1-1.24,1.17c-.77,0-1.54,0-2.3,0-5.5-.14-11,0-16.5-.07a4.55,4.55,0,0,1-2.19-.31c-.52-.25-1.3,0-2,.06a60,60,0,0,1-6.57.11C209.36,162,188.72,156.89,188.72,156.89Zm-1.79-70.57-.1,0c-.39-.08-.89-.26-1.13.06s.16.74.35,1.07c1.27,2.11,2.57,4.2,3.83,6.32,1,1.6,2,3.14,2.88,4.79l-4,.11c-.75,0-.76,0-.77.79,0,1.49,0,3,0,4.49,0,3.17,0,6.33,0,9.5,0,.75,0,.75.76.79a34.28,34.28,0,0,1,3.78.36,27.2,27.2,0,0,0,5.77.33,1.27,1.27,0,0,0,1.09-.37c.47-.56.95-1.11,1.45-1.64a.7.7,0,0,0,.09-1c-.62-.84-1-1.81-1.53-2.69q-2-3.27-4-6.56a6.09,6.09,0,0,1-.77-1.39c.36-.25.41-.7.66-1,.2.31.42.6.6.91L201,110a4.73,4.73,0,0,0,.44.66.36.36,0,0,0,.46,0,.32.32,0,0,0,.18-.41,4.32,4.32,0,0,0-.34-.72Q195,98.23,188.31,86.94A1.08,1.08,0,0,0,186.93,86.32Zm11.21,12.15c-.66.21-1.37-.21-2.11.14l6.1,10a3,3,0,0,0,.16-1.2,7.94,7.94,0,0,1,.42-3.14,10.53,10.53,0,0,0,1.07-3.28c0-.19.37-.36,0-.58s-.52-.29-.78,0a.69.69,0,0,1-.24.18,2,2,0,0,1-1.43.32c-.42-.08-.41-.57-.65-.82a4.3,4.3,0,0,0-1.85-1.34c-.08-.79-.15-1.58-.27-2.36s-.33-.9-1.16-1A7.64,7.64,0,0,1,198.14,98.47ZM211,127.19a3.15,3.15,0,0,0,.54.94,51.19,51.19,0,0,1,2.77,4.47l-.27,1.6a14.75,14.75,0,0,1-1.18-1.84c-.47-.76-.46-.75-1.32-.55a55.87,55.87,0,0,1-8.44,1.4c-.93.07-1.86-.05-2.78.07-3.78.49-7.57.12-11.35,0,1.31-.76,2.71-1.34,4.06-2.22a1.39,1.39,0,0,0-.3,0,52.86,52.86,0,0,0-7.84,3.69,3.36,3.36,0,0,0-1.07,2.73c.1.37.42.41.71.42s.26-.25.27-.45c0-.46.05-.93.05-1.4a1.15,1.15,0,0,1,.66-1.13,15.8,15.8,0,0,1,2.42-1.16c0,1.53,0,3.06,0,4.6,0,.58.11,1,.74,1.08a2.9,2.9,0,0,1,.47.16c8.1,2.87,16.16,5.85,24.29,8.62,1.8.62,3.55,1.34,5.34,2,.8.29,1.62.5,2.45.74a1.27,1.27,0,0,0-.15-.83c-.69-2.06-1.38-4.11-1.86-6.22a9.22,9.22,0,0,0-1.54-3.65,6.83,6.83,0,0,1-.52-1l.12-1.92c1.28,2,2.67,3.93,3.24,6.34a64.72,64.72,0,0,0,2.41,7.07,1.76,1.76,0,0,0,1.2,1.2c2.1.64,4.18,1.32,6.27,2,.12,0,.25.07.34-.09a6,6,0,0,0-.62-1.34,41,41,0,0,0-3.75-5.4,56.71,56.71,0,0,0-4.92-5.36c-.28-.28-.7-.5-.65-1,0-.17.17-.2.29-.1.38.33.76.65,1.11,1,1,1,2,2.11,3.07,3.15.14.15.25.43.55.27l-.17-22.42a30.1,30.1,0,0,1-10.66,8c.47.79.87,1.48,1.29,2.16,1.48,2.45,3,4.89,4.45,7.35.1.17.45.36.1.63-.65-.05-.76-.65-1-1.05-1.53-2.45-3-4.93-4.53-7.38a66.55,66.55,0,0,0-3.77-5.87,25.53,25.53,0,0,0,.91-2.85,24.41,24.41,0,0,0,4.13-6,53.26,53.26,0,0,0,2.58-6.59,9.53,9.53,0,0,0,.67-3.72,31.79,31.79,0,0,0-2-9.32,16.14,16.14,0,0,0-2.21-4,34,34,0,0,0-2.73-2.77c-.15-.15-.27-.39-.59-.33a2.48,2.48,0,0,0,0,.38,3.89,3.89,0,0,0,.12.49.36.36,0,0,1-.36,0c-.72-1.91-.72-1.91-1.31-2.11-.48,3.24-.68,3.74-2.53,6.49a.52.52,0,0,0,0,.7,3,3,0,0,0,.78.76c.8.54,1.6,1.07,2.45,1.53a2.38,2.38,0,0,1,1,.81c-1.27.07-2.21-.68-3.42-.82A26.63,26.63,0,0,1,211.2,102c-1.18-.1-1.89-1-2.87-1.21a.85.85,0,0,0,0,.74,1.74,1.74,0,0,1-.39,2,5.85,5.85,0,0,0-1.58,3.79c0,.8,0,1,.79,1.06a12,12,0,0,1,2.06.73,1.24,1.24,0,0,1,.89,1c.09.48.4.63.84.7a13.88,13.88,0,0,1,2.6.51c-.93.66-2-.07-2.89.35.17.69.89.9,1.16,1.44-.29.28-.51-.16-.78,0,.29,1.49,1.06,2.84,1.22,4.3a22.46,22.46,0,0,1,0,4.49c-.52-.08-.5.34-.53.63a5,5,0,0,1-.56,1.58,7.4,7.4,0,0,1-3.47,3.19,10.61,10.61,0,0,1-8,1c-1.42-.4-2.39.22-3.4,1.24,2.74,1.24,5.45,2,8.38,1.31a11.51,11.51,0,0,0,5.64-3C210.52,127.56,210.76,127.38,211,127.19Zm-11.86-39.4c-.5,1.36.11,2.35,1,3.32a32.12,32.12,0,0,0,4,3.69c1.6,1.24,2.05,1.23,3.77.18a2.43,2.43,0,0,0,.3-.26A7.73,7.73,0,0,0,210,91.09a2.1,2.1,0,0,0-.93-2.42c-.48-.3-.91-.67-1.4-1-1.64-.95-3.27-1.91-4.95-2.79a19.69,19.69,0,0,0-7.24-2.12l-3.08-.33a2.6,2.6,0,0,0-1.93.23c-.14.1-.15,0-.21-.11s-.12,0-.15-.09a1.18,1.18,0,0,0-1.57-.4c-.57.21-1.32,1-1.13,1.31s0,.26-.17.38a.89.89,0,0,0-.3,1.11,3.66,3.66,0,0,0,1.92.28c.17-.09.15-.27.17-.43a6.36,6.36,0,0,1,.35-1.54c.16-.4.37-.75.9-.63.14.43-.42.48-.44.85s-.14.78-.19,1.17c-.08.65-.05.67.58.73a10.14,10.14,0,0,1,3.17.76A14.34,14.34,0,0,0,199.12,87.79Zm-59.39,35.93c.14.27.27.54.42.8,4.13,7.18,8.49,14.24,12.4,21.56a1.74,1.74,0,0,0,.93.84l3.88,1.6a.59.59,0,0,0,.62,0,2.71,2.71,0,0,0-.33-1c-1.38-3.47-3.14-6.77-4.71-10.15-1.69-3.65-3.42-7.29-5.13-10.94.23.06.45.12.67.2,3,1,5.84,2.26,8.79,3.29,6.43,2.27,12.77,4.81,19.21,7,8.8,3.06,17.55,6.26,26.32,9.38,9.08,3.24,18.15,6.49,27.16,9.92a30.78,30.78,0,0,0,4.86,1.44,4.5,4.5,0,0,0,1.1,0,.26.26,0,0,0,.27-.23.3.3,0,0,0-.17-.33,2.83,2.83,0,0,0-.36-.16l-4-1.46c-6.42-2.31-12.82-4.64-19.24-6.93-5.67-2-11.35-4-17-6-5.86-2.08-11.76-4-17.55-6.31-3.6-1.42-7.22-2.76-10.82-4.15q-8.12-3.12-16.21-6.27c-2.79-1.09-5.55-2.28-8.38-3.27a80,80,0,0,0-10-2.78,81.37,81.37,0,0,0-12.59-2.14,21.07,21.07,0,0,0-7.82.68,3.07,3.07,0,0,0-1.54.86c-.13-.18-.14-.45-.42-.54a2.74,2.74,0,0,0-.65,1.82,5.45,5.45,0,0,0,.79,3,9.62,9.62,0,0,0,1.9,2.17c2,1.8,4.24,3.33,6.41,4.92a6.36,6.36,0,0,0,1,.55c1.9,1,3.81,2,5.68,3.13,1.68,1,3.3,2,5,2.87a157,157,0,0,0,15.28,6.68c.21.07.42.22.7.06a2.16,2.16,0,0,0-.48-.94c-2.49-3.91-5.1-7.73-7.73-11.55L131,121.41a19.86,19.86,0,0,1,3.58.77A41.47,41.47,0,0,1,139.73,123.72ZM254.9,115.1v.15c1.7,0,3.4,0,5.1,0a5.62,5.62,0,0,0,1.58-.15,8.77,8.77,0,0,0,5.91-5,7,7,0,0,0,.41-5.71,10.23,10.23,0,0,0-4.24-4.9,6.25,6.25,0,0,0-3.23-.88c-3.66,0-7.33,0-11,0-.86,0-.87,0-.87.88,0,2.76.05,5.52,0,8.29q-.09,3.24-.08,6.48c0,.8,0,.81.84.81C251.18,115.11,253,115.1,254.9,115.1Zm-80.06,19.16c.07.1.09.18.14.2l5.61,2.09a1.36,1.36,0,0,0,1.55-.31,18.4,18.4,0,0,1,3.76-2.6c2.65-1.47,5.19-3.13,7.9-4.49a31,31,0,0,0,7.89-6.05,7.28,7.28,0,0,0,.67-.88,27.42,27.42,0,0,0,2.45-4.68c.12-.28.16-.65.61-.79.14.91-.3,1.74-.22,2.74a7.61,7.61,0,0,0,2.05-3.28c.2-.8.81-1.18,1.3-1.69a.23.23,0,0,1,.27-.08.29.29,0,0,1,.17.33c-.09.42-.19.84-.32,1.25-.26.89-.55,1.79-.86,2.8a9.68,9.68,0,0,0,2.65-2.31,1.22,1.22,0,0,0,.32-1.1,38.74,38.74,0,0,0-1.55-5,1,1,0,0,0-.41-.54,10.74,10.74,0,0,0-3.54-1.27,1.13,1.13,0,0,0-1.3.69c-.44.93-1.07,1.76-1.44,2.74a5.85,5.85,0,0,1-1.34,2c-1.76,1.77-3.41,3.64-5.07,5.51q-3.31,3.74-6.71,7.4a24.8,24.8,0,0,1-6.53,5.21,11.74,11.74,0,0,1-2.21.89A47.46,47.46,0,0,1,174.84,134.26ZM132.68,107.2h-.28c-1.07,3.53-2.14,7.06-3.24,10.59-.15.5.09.54.47.61,2,.36,4,.76,6,1.26.22.06.43.2.72,0ZM185.24,115c.66,1.13,1.23,2.09,1.78,3.06a1.91,1.91,0,0,0,.8.72,8.6,8.6,0,0,0,6.67.51,2.34,2.34,0,0,0,1.35-.59c.69-.83,1.32-1.71,2-2.64A58.83,58.83,0,0,0,185.24,115Zm-19.83,15.76V125.8c0-.2,0-.43-.28-.44a16.33,16.33,0,0,0-3.62.07c.43,1.41.83,2.71,1.22,4a.75.75,0,0,0,.46.49A14.14,14.14,0,0,0,165.41,130.73Zm35.88-36.9c-.06.38-.1.6-.14.83-.2,1.06-.21,1.09.78,1.44a1.22,1.22,0,0,1,.85,1c.18.73.4,1.46.62,2.27a5.49,5.49,0,0,0,1.2-2.25.68.68,0,0,0-.27-1c-.31-.24-.68-.22-1-.37s-.21-.61-.54-.87a28.48,28.48,0,0,1-3.21-3.1c-.17-.18-.29-.45-.66-.43,0,.56,0,1.12,0,1.67s.28.79.77.81S200.7,93.83,201.29,93.83Zm-5-2.64c.2-.25.41-.49.6-.75s.57-.3.57-.7C196.61,89.78,196.42,90,196.29,91.19Z"/><path class="cls-1" d="M256.72,19a12.3,12.3,0,0,1,3.57,4.7c.2.42.1.9.37,1.3a4.48,4.48,0,0,1,.52,2.19,9.82,9.82,0,0,1-1.1,4.33c-.7,1.81-2.24,3-3.63,4.25a11,11,0,0,1-3.88,2.14,4.36,4.36,0,0,0-1,.54c-.22.14-.2.33,0,.45a1.62,1.62,0,0,0,1.36-.08A23.92,23.92,0,0,0,258.09,36a12.05,12.05,0,0,0,4.52-5.55,9.6,9.6,0,0,0-.54-8.19A13.42,13.42,0,0,0,258,17.71a27.35,27.35,0,0,0-17.08-5.2,6.49,6.49,0,0,0-2.43.37,3.08,3.08,0,0,0,1.5.33c3.12.34,6.28.49,9.23,1.74A27.1,27.1,0,0,1,256.72,19Z"/><path class="cls-1" d="M51.22,47c.4-.06.64.2.91.38,2.24,1.5,4.32,3.21,6.48,4.81.58.43,1.18.85,1.77,1.28.13.09.31.19.2.38s-.27.14-.43.11-.26,0-.29,0c-.34-.52-1-.49-1.42-.84A17.28,17.28,0,0,0,55.22,51c-1.12-.55-2.24-1.11-3.38-1.62a3.16,3.16,0,0,1-.91-.59,1.5,1.5,0,0,1-.28-1.38A.46.46,0,0,1,51.22,47Z"/><path class="cls-1" d="M204.37,17.15a6.14,6.14,0,0,1,2.74-1.9c1-.31,2-.81,3-1.16a16.7,16.7,0,0,1,2.51-.61,2.07,2.07,0,0,1,.5,0,.82.82,0,0,1,.77.34c.17.33-.12.56-.34.75a3.62,3.62,0,0,1-1,.76,27.43,27.43,0,0,1-7.82,2C204.65,17.3,204.59,17.24,204.37,17.15ZM207.32,16c2.42-.18,4.94-1.14,5.46-2.11A16.82,16.82,0,0,0,207.32,16Z"/><path class="cls-2" d="M154.72,121c-.41-.2-.84,0-1.4-.12a26.84,26.84,0,0,1,6-2.65l3.4-.73c.29-.06.59-.08.88-.12.57.28,1.24.11,1.81.39a36.7,36.7,0,0,0-7.14,1.83C157.07,120.08,155.9,120.53,154.72,121Z"/><path class="cls-1" d="M94.45,77.89a1.19,1.19,0,0,1-1.3-.45c-.62-.6-1.23-1.2-1.79-1.85a13.06,13.06,0,0,0-1.88-1.91,2.54,2.54,0,0,1-.74-.92c-.13-.28-.57-.57-.16-1a1.29,1.29,0,0,1,1.3-.09,3.33,3.33,0,0,1,.8.74C91.89,74.26,93.09,76.08,94.45,77.89Z"/><path class="cls-1" d="M242.63,51.92c.16-.66.46-.9,1.09-.82a28.1,28.1,0,0,1,4.93,1.19c.09,0,.18.08.27.12a.34.34,0,0,1,.23.3c0,.14-.12.22-.24.28a2.81,2.81,0,0,1-1.66.17,7,7,0,0,1-2.71-.74A3.22,3.22,0,0,0,242.63,51.92Z"/><path class="cls-1" d="M84.91,53.72c-.07.12-.15.23-.29.24a.75.75,0,0,1-.64-.17c-1.44-1.51-3-2.9-4.31-4.54-.15-.19-.43-.4-.15-.68s.57-.13.79.09c.83.85,1.66,1.71,2.48,2.58.63.68,1.24,1.38,1.87,2.07A.77.77,0,0,1,84.91,53.72Z"/><path class="cls-1" d="M291.25,92q-.54-2.69-1.06-5.37a1.29,1.29,0,0,1,0-.39c0-.35-.06-.76.46-.85s.74.23.95.57a1,1,0,0,1,.09.49c0,1.62-.08,3.25-.14,4.88a3.2,3.2,0,0,1-.14.67Z"/><path class="cls-1" d="M53.1,75.48a.81.81,0,0,1-.94.43,53.17,53.17,0,0,0-7.35-.49,1.33,1.33,0,0,1-.4,0c-.27-.09-.25-.28-.08-.44a1.7,1.7,0,0,1,1.33-.31c1.39.1,2.78.22,4.17.33A20.06,20.06,0,0,1,53.1,75.48Z"/><path class="cls-1" d="M217.41,71.31A11,11,0,0,1,220,69.08a3.61,3.61,0,0,0,.69-.51,1.1,1.1,0,0,1,.57-.33c.31-.06.73-.26.92.08s-.2.58-.44.78c-1.1.9-2.36,1.56-3.54,2.35A.53.53,0,0,1,217.41,71.31Z"/><path class="cls-1" d="M243.78,71.68a12,12,0,0,1,2.81-2.07c.33-.16.69-.32,1,0s.07.65-.43,1c-.75.47-1.53.89-2.31,1.32A.83.83,0,0,1,243.78,71.68Z"/><path class="cls-1" d="M155.82,19.37a1.52,1.52,0,0,1,.32,0c.36.09.41.32.18.58a5.19,5.19,0,0,1-1.49,1.1,10.12,10.12,0,0,0-1.75,1.07.28.28,0,0,1-.36.05.27.27,0,0,1-.09-.36A19.12,19.12,0,0,1,154,20.08,2.46,2.46,0,0,1,155.82,19.37Z"/><path class="cls-1" d="M265.42,68.18c.19-.55.68-.65,1-.88a12.7,12.7,0,0,1,3-1.47,4.34,4.34,0,0,1,.47-.16c.23,0,.5,0,.6.21s-.14.34-.28.48a4.57,4.57,0,0,1-1.48.78A9.66,9.66,0,0,1,265.42,68.18Z"/><path class="cls-1" d="M117.61,8c-.23,1-.46,1.94-.71,2.91-.06.25-.21.51-.56.42s-.3-.36-.26-.63c.13-.92.3-1.84.37-2.77,0-.58.4-.51.76-.49S117.65,7.64,117.61,8Z"/><path class="cls-1" d="M287.64,73.26c.82-.31.93-.3,1.11.27a19.37,19.37,0,0,1,.68,2.9c0,.24.06.5-.28.51s-.51-.15-.48-.39a3.18,3.18,0,0,0-.35-1.73C288.07,74.3,287.92,73.75,287.64,73.26Z"/><path class="cls-1" d="M209.53,45.52c2-.76,4.15-.93,6.2-1.54a.31.31,0,0,1,.41.14A28.41,28.41,0,0,1,209.53,45.52Z"/><path class="cls-1" d="M144.24,64.77a10.36,10.36,0,0,1,1.92-2.31.51.51,0,0,1,.39-.21c.22,0,.48-.14.6.15s-.07.37-.21.52a23.77,23.77,0,0,1-1.9,1.72C144.79,64.86,144.55,64.76,144.24,64.77Z"/><path class="cls-1" d="M158.43,74c-.47-.34-.46-.61-.08-.93s.83-.73,1.25-1.11c.43.24.54.54.12.91Z"/><path class="cls-1" d="M185.17,79a3.82,3.82,0,0,1,2.9-.24l-.22.24a.63.63,0,0,0-.56-.13l-2,.31Z"/><path class="cls-1" d="M184.89,79.08l.28-.12.15.18-.23.15Z"/><path class="cls-2" d="M131,121.41l6.9,10.05c2.63,3.82,5.24,7.64,7.73,11.55a2.16,2.16,0,0,1,.48.94c-.28.16-.49,0-.7-.06a157,157,0,0,1-15.28-6.68c-1.73-.85-3.35-1.91-5-2.87-1.87-1.08-3.78-2.1-5.68-3.13a6.36,6.36,0,0,1-1-.55c-2.17-1.59-4.4-3.12-6.41-4.92a9.62,9.62,0,0,1-1.9-2.17,5.45,5.45,0,0,1-.79-3,2.74,2.74,0,0,1,.65-1.82c.28.09.29.36.42.54.22.36.54.29.88.21a14.73,14.73,0,0,1,4.44-.32,77.39,77.39,0,0,1,11.84,1.56A23.34,23.34,0,0,1,131,121.41Z"/><path class="cls-3" d="M212.27,121.9a22.46,22.46,0,0,0,0-4.49c-.16-1.46-.93-2.81-1.22-4.3.27-.18.49.26.78,0-.27-.54-1-.75-1.16-1.44.9-.42,2,.31,2.89-.35a13.88,13.88,0,0,0-2.6-.51c-.44-.07-.75-.22-.84-.7a1.24,1.24,0,0,0-.89-1,12,12,0,0,0-2.06-.73c-.77-.1-.77-.26-.79-1.06a5.85,5.85,0,0,1,1.58-3.79,1.74,1.74,0,0,0,.39-2,.85.85,0,0,1,0-.74c1,.2,1.69,1.11,2.87,1.21a26.63,26.63,0,0,0-2.29-2.78c1.21.14,2.15.89,3.42.82a2.38,2.38,0,0,0-1-.81c-.85-.46-1.65-1-2.45-1.53a3,3,0,0,1-.78-.76.52.52,0,0,1,0-.7c1.85-2.75,2.05-3.25,2.53-6.49.59.2.59.2,1.31,2.11a1.19,1.19,0,0,0,.56,1.09c.19-.46-.1-.77-.2-1.11a3.89,3.89,0,0,1-.12-.49,2.48,2.48,0,0,1,0-.38c.32-.06.44.18.59.33a34,34,0,0,1,2.73,2.77,16.14,16.14,0,0,1,2.21,4,31.79,31.79,0,0,1,2,9.32,9.53,9.53,0,0,1-.67,3.72,53.26,53.26,0,0,1-2.58,6.59,24.41,24.41,0,0,1-4.13,6C212.31,123.09,212.52,122.47,212.27,121.9Z"/><path class="cls-3" d="M174.84,134.26a47.46,47.46,0,0,0,5.84-1.3,11.74,11.74,0,0,0,2.21-.89,24.8,24.8,0,0,0,6.53-5.21q3.41-3.66,6.71-7.4c1.66-1.87,3.31-3.74,5.07-5.51a5.85,5.85,0,0,0,1.34-2c.37-1,1-1.81,1.44-2.74a1.13,1.13,0,0,1,1.3-.69,10.74,10.74,0,0,1,3.54,1.27,1,1,0,0,1,.41.54,38.74,38.74,0,0,1,1.55,5,1.22,1.22,0,0,1-.32,1.1,9.68,9.68,0,0,1-2.65,2.31c.31-1,.6-1.91.86-2.8.13-.41.23-.83.32-1.25a.29.29,0,0,0-.17-.33.23.23,0,0,0-.27.08c-.49.51-1.1.89-1.3,1.69a7.61,7.61,0,0,1-2.05,3.28c-.08-1,.36-1.83.22-2.74-.45.14-.49.51-.61.79a27.42,27.42,0,0,1-2.45,4.68,7.28,7.28,0,0,1-.67.88,31,31,0,0,1-7.89,6.05c-2.71,1.36-5.25,3-7.9,4.49a18.4,18.4,0,0,0-3.76,2.6,1.36,1.36,0,0,1-1.55.31L175,134.46S174.91,134.36,174.84,134.26Z"/><path class="cls-3" d="M131,121.41a23.34,23.34,0,0,0-3.4-.71,77.39,77.39,0,0,0-11.84-1.56,14.73,14.73,0,0,0-4.44.32c-.34.08-.66.15-.88-.21a3.07,3.07,0,0,1,1.54-.86,21.07,21.07,0,0,1,7.82-.68,81.37,81.37,0,0,1,12.59,2.14,80,80,0,0,1,10,2.78c2.83,1,5.59,2.18,8.38,3.27q8.09,3.15,16.21,6.27c3.6,1.39,7.22,2.73,10.82,4.15,5.79,2.28,11.69,4.23,17.55,6.31,5.67,2,11.35,4,17,6,6.42,2.29,12.82,4.62,19.24,6.93l4,1.46a2.83,2.83,0,0,1,.36.16.3.3,0,0,1,.17.33.26.26,0,0,1-.27.23,4.5,4.5,0,0,1-1.1,0,30.78,30.78,0,0,1-4.86-1.44c-9-3.43-18.08-6.68-27.16-9.92-8.77-3.12-17.52-6.32-26.32-9.38-6.44-2.24-12.78-4.78-19.21-7-3-1-5.82-2.29-8.79-3.29-.22-.08-.44-.14-.67-.2a65.7,65.7,0,0,0-8.08-2.75,41.47,41.47,0,0,0-5.13-1.54A19.86,19.86,0,0,0,131,121.41Z"/><path class="cls-3" d="M154.72,121c1.18-.47,2.35-.92,3.53-1.4a36.7,36.7,0,0,1,7.14-1.83,10.8,10.8,0,0,0,3.69-.76,6.91,6.91,0,0,1,3-.55,4.92,4.92,0,0,0,1.78-.22,28,28,0,0,1,7.77-1.15l2.29-.06c.85,1.39,1.61,2.8,1.07,4.51a20.5,20.5,0,0,1-5.25,0,7.63,7.63,0,0,0-3.73.27,2.34,2.34,0,0,1-1.82-.21,2.08,2.08,0,0,1,.13-2,16.56,16.56,0,0,1-2.73,1.18c-1,.23-2,0-2.93.19,0,.44.72.43.54.92s-.66.51-1.07.62c-.22.06-.45.08-.69.12l-4.24.57a37.7,37.7,0,0,0-6,1.36c-.29.1-.63.14-.8.47a.79.79,0,0,0,.8.1c.65-.13,1.32-.13,2-.21,1.82-.21,3.65-.06,5.47-.33h2.74c-.18.46-.55.47-.83.54a37.61,37.61,0,0,1-5.49,1c-1.62.17-3.24.32-4.86.46a12.71,12.71,0,0,0-3.44,1,1.28,1.28,0,0,1-1,0c-1.2-.5-2.4-1-3.78-1.53,1.26-.52,2.39-.94,3.49-1.44S153.62,121.55,154.72,121Z"/><path class="cls-2" d="M139.73,123.72a65.7,65.7,0,0,1,8.08,2.75c1.71,3.65,3.44,7.29,5.13,10.94,1.57,3.38,3.33,6.68,4.71,10.15a2.71,2.71,0,0,1,.33,1,.59.59,0,0,1-.62,0l-3.88-1.6a1.74,1.74,0,0,1-.93-.84c-3.91-7.32-8.27-14.38-12.4-21.56C140,124.26,139.87,124,139.73,123.72Z"/><path class="cls-3" d="M190.23,82.59c.06.06.07.21.21.11a2.6,2.6,0,0,1,1.93-.23l3.08.33a19.69,19.69,0,0,1,7.24,2.12c1.68.88,3.31,1.84,4.95,2.79.49.29.92.66,1.4,1a2.1,2.1,0,0,1,.93,2.42,7.73,7.73,0,0,1-1.74,3.63c-2.07-1.86-4.45-3.35-6.65-5.06.45-.46,1.06-.09,1.58-.61-1.17-.33-2-1.09-3.16-1.28a2,2,0,0,0-.88,0,14.34,14.34,0,0,1-5.75-1.7,10.14,10.14,0,0,0-3.17-.76c-.63-.06-.66-.08-.58-.73,0-.39.17-.78.19-1.17s.58-.42.44-.85Zm7.45,2.51a13.35,13.35,0,0,1,2.46.45c.51.16,1,.27,1.55.38.17,0,.41.13.45-.2C200.66,85.44,199.23,84.85,197.68,85.1Z"/><path class="cls-3" d="M220.77,140.8c-.05.51.37.73.65,1a56.71,56.71,0,0,1,4.92,5.36,41,41,0,0,1,3.75,5.4,6,6,0,0,1,.62,1.34c-.09.16-.22.13-.34.09-2.09-.66-4.17-1.34-6.27-2a1.76,1.76,0,0,1-1.2-1.2,64.72,64.72,0,0,1-2.41-7.07c-.57-2.41-2-4.33-3.24-6.34-.91-1.65-1.89-3.25-3-4.81a51.19,51.19,0,0,0-2.77-4.47,3.15,3.15,0,0,1-.54-.94l.51-.66a66.55,66.55,0,0,1,3.77,5.87c1.52,2.45,3,4.93,4.53,7.38.25.4.36,1,1,1.05Z"/><path class="cls-3" d="M185.24,115A58.83,58.83,0,0,1,197.88,116c-.72.93-1.35,1.81-2,2.64a2.34,2.34,0,0,1-1.35.59,8.6,8.6,0,0,1-6.67-.51,1.91,1.91,0,0,1-.8-.72C186.47,117.06,185.9,116.1,185.24,115Z"/><path class="cls-2" d="M211.49,126.53l-.51.66c-.22.19-.46.37-.68.58a11.51,11.51,0,0,1-5.64,3c-2.93.69-5.64-.07-8.38-1.31,1-1,2-1.64,3.4-1.24a10.61,10.61,0,0,0,8-1,7.4,7.4,0,0,0,3.47-3.19,5,5,0,0,0,.56-1.58c0-.29,0-.71.53-.63.25.57,0,1.19.13,1.78A25.53,25.53,0,0,1,211.49,126.53Z"/><path class="cls-2" d="M199.12,87.79a2,2,0,0,1,.88,0c1.13.19,2,1,3.16,1.28-.52.52-1.13.15-1.58.61,2.2,1.71,4.58,3.2,6.65,5.06a2.43,2.43,0,0,1-.3.26c-1.72,1-2.17,1.06-3.77-.18a32.12,32.12,0,0,1-4-3.69C199.23,90.14,198.62,89.15,199.12,87.79Z"/><path class="cls-2" d="M164.64,122.61c-1.82.27-3.65.12-5.47.33-.66.08-1.33.08-2,.21a.79.79,0,0,1-.8-.1c.17-.33.51-.37.8-.47a37.7,37.7,0,0,1,6-1.36l4.24-.57c.24,0,.47-.06.69-.12.41-.11.9-.14,1.07-.62s-.5-.48-.54-.92c1-.18,2,0,2.93-.19a16.56,16.56,0,0,0,2.73-1.18,2.08,2.08,0,0,0-.13,2,41.19,41.19,0,0,1-9,2.83A5.36,5.36,0,0,0,164.64,122.61Z"/><path class="cls-2" d="M185,119.54c.54-1.71-.22-3.12-1.07-4.51.29-.4.58-.25.8,0a6,6,0,0,1,1.35,4.37,7.72,7.72,0,0,1-1.05,3.1c-.39.63-.36.69.39.94a20.57,20.57,0,0,0,3.81.76l1.34.22a6.94,6.94,0,0,1-.95,1.31.74.74,0,0,1-.73.21,47.92,47.92,0,0,1-7.59-1.72c-.09,0-.15-.11-.3-.22A6.13,6.13,0,0,0,185,119.54Z"/><path class="cls-3" d="M186.93,86.32a1.08,1.08,0,0,1,1.38.62q6.69,11.3,13.42,22.58a4.32,4.32,0,0,1,.34.72.32.32,0,0,1-.18.41.36.36,0,0,1-.46,0A4.73,4.73,0,0,1,201,110l-5.15-8.8c-.18-.31-.4-.6-.6-.91a17.7,17.7,0,0,0-1-1.94C191.86,94.27,189.41,90.29,186.93,86.32Z"/><path class="cls-2" d="M186.93,86.32c2.48,4,4.93,8,7.32,12a17.7,17.7,0,0,1,1,1.94c-.25.32-.3.77-.66,1-.73-.83-1.1-1.89-1.82-2.73-.87-1.65-1.93-3.19-2.88-4.79-1.26-2.12-2.56-4.21-3.83-6.32-.19-.33-.62-.7-.35-1.07s.74-.14,1.13-.06Z"/><path class="cls-3" d="M185.09,79.29l.23-.15,2-.31a.63.63,0,0,1,.56.13l.54,1.38c.35.94.34,1-.46,1.66a4.19,4.19,0,0,0-1.39,1.9,4.94,4.94,0,0,0-.15.55c-.1.58-.35.68-.77.29s-1-1.06-1.49-1.59a1.43,1.43,0,0,1-.19-.24c-.13-.28-.59-.29-.61-.6a1.8,1.8,0,0,1,.41-1.1C184.19,80.58,184.4,79.76,185.09,79.29Z"/><path class="cls-3" d="M201.29,93.83c-.59,0-1.09,0-1.58,0s-.8-.24-.77-.81,0-1.11,0-1.67c.37,0,.49.25.66.43a28.48,28.48,0,0,0,3.21,3.1c.33.26.29.75.54.87s.66.13,1,.37a.68.68,0,0,1,.27,1,5.49,5.49,0,0,1-1.2,2.25c-.22-.81-.44-1.54-.62-2.27a1.22,1.22,0,0,0-.85-1c-1-.35-1-.38-.78-1.44C201.19,94.43,201.23,94.21,201.29,93.83Z"/><path class="cls-2" d="M189,133.32a2.26,2.26,0,0,0-1,.48,15.8,15.8,0,0,0-2.42,1.16,1.15,1.15,0,0,0-.66,1.13c0,.47,0,.94-.05,1.4,0,.2,0,.46-.27.45s-.61-.05-.71-.42a3.36,3.36,0,0,1,1.07-2.73,52.86,52.86,0,0,1,7.84-3.69,1.39,1.39,0,0,1,.3,0C191.66,132,190.26,132.56,189,133.32Z"/><path class="cls-2" d="M214.29,132.6c1.07,1.56,2.05,3.16,3,4.81l-.12,1.92A56,56,0,0,1,214,134.2Z"/><path class="cls-3" d="M190.25,82.58c-.53-.12-.74.23-.9.63a6.36,6.36,0,0,0-.35,1.54c0,.16,0,.34-.17.43a3.66,3.66,0,0,1-1.92-.28.89.89,0,0,1,.3-1.11c.2-.12.38,0,.17-.38s.56-1.1,1.13-1.31a1.18,1.18,0,0,1,1.57.4s.1.06.15.09Z"/><path class="cls-2" d="M198.87,98.78c-.37.21-.59,0-.73-.31a7.64,7.64,0,0,0-.7-3c.83.1,1.05.26,1.16,1S198.79,98,198.87,98.78Z"/><path class="cls-2" d="M196.29,91.19c.13-1.2.32-1.41,1.17-1.45,0,.4-.4.47-.57.7S196.49,90.94,196.29,91.19Z"/><path class="cls-4" d="M212.33,91.84c.1.34.39.65.2,1.11a1.19,1.19,0,0,1-.56-1.09A.36.36,0,0,0,212.33,91.84Z"/><path class="cls-1" d="M197.68,85.1c1.55-.25,3,.34,4.46.63,0,.33-.28.23-.45.2-.52-.11-1-.22-1.55-.38A13.35,13.35,0,0,0,197.68,85.1Z"/></svg>