<svg id="frames" xmlns="http://www.w3.org/2000/svg" viewBox="0 0 384 216"><defs><style>.cls-1{fill:#152138;}.cls-2{fill:#f6f6f7;}.cls-3{fill:#fc0a0a;}</style></defs><path class="cls-1" d="M299.37,202.49a2,2,0,0,1,.4.37,7.66,7.66,0,0,1,.78.76c0,.38-.27.29-.44.25a1.78,1.78,0,0,1-.48-.27,4.54,4.54,0,0,0-.63-.41,24.83,24.83,0,0,0-3.79-1.62,5.75,5.75,0,0,0-.81-.37c-.67-.28-1-.5-1.8-.81-.35-.2-.4-.16-.8-.39a1.35,1.35,0,0,1-.4-.2c-.32-.2-.38-.17-.79-.42l-3.13-1.81a4.33,4.33,0,0,1-.67-.4c-.73-.45-1.15-.76-1.94-1.2-.21-.17-.37-.2-.65-.41a3.79,3.79,0,0,0-.39-.31,23.84,23.84,0,0,1-5.84-4.94,2.83,2.83,0,0,0-2.49-1.12c-.63.05-1.27,0-1.9,0s-.67,0-1.23-.05l-2-.14-.62-.1a4.26,4.26,0,0,0-1.18-.11c-.23,0-.24,0-.43-.06l-2-.34c-.19-.06-.22,0-.42-.1L264.4,188a2.79,2.79,0,0,1-.42-.1l-.38-.09a1.47,1.47,0,0,1-.42-.14,9.89,9.89,0,0,0-2.21-.53c-2-.34-4-.83-6-1.35a6.41,6.41,0,0,1-1-.39,14.24,14.24,0,0,1-1.58-.74c-.18-.14-.1-.25-.12-.43,1.29.13,2.54.53,3.85.57a.68.68,0,0,0,.62.09l1.59.26,3.07.31a70.8,70.8,0,0,0,12.35.41,9.51,9.51,0,0,1,1.6.05,55.72,55.72,0,0,0,8.07.23c1.92-.13,3.85-.22,5.77-.41a38,38,0,0,0,5.52-.78c.31,0,.48-.1.78-.12a2.7,2.7,0,0,1,.43,0l3.4,0c.35,0,.53,0,.8.08l.8.08a.18.18,0,0,1,.06.17l-.09.16a2.55,2.55,0,0,1-.44.11,7.33,7.33,0,0,0-1.53.4c-2.78.83-5.66,1.15-8.48,1.75l-3.12.68c-.14,0-.2,0-.41.11a10.7,10.7,0,0,0-2.79.6,12.11,12.11,0,0,0-2.62.46,2,2,0,0,0,.21.32,35.38,35.38,0,0,0,7.52,6c.78.45,1.51,1,2.24,1.47a20.24,20.24,0,0,0,3.23,2.05l.18.13c.09.09.13.08.23.16,1.27.72,2.35,1.72,3.6,2.46C299,202.24,299.13,202.25,299.37,202.49Z"/><path class="cls-2" d="M294.79,185a38,38,0,0,1-5.52.78c-1.92.19-3.85.28-5.77.41a55.72,55.72,0,0,1-8.07-.23,9.51,9.51,0,0,0-1.6-.05,70.8,70.8,0,0,1-12.35-.41,83.38,83.38,0,0,1-9.08-1.23c.11-.32,3,.29,6.65.58a32.2,32.2,0,0,0,4.16-.21c1.8-.18,3.61-.39,5.41-.54.86-.08,1.72-.06,2.58-.09h.43l2.83,0a16,16,0,0,0,2.83.26c.16-.3,0-.51,0-.73a52.35,52.35,0,0,1-1.3-9.89,71.61,71.61,0,0,1,.33-8.79,16.51,16.51,0,0,0-.59-5.82,7,7,0,0,1-.52-2,.48.48,0,0,1,.44.33,19.43,19.43,0,0,1,1.81,7c.28,3.83.05,7.66.18,11.48a15.56,15.56,0,0,0,2.64,8.35,1.24,1.24,0,0,0,1.14.63c3.43,0,6.86,0,10.29,0,.79,0,1.58-.23,2.38-.17C294.35,184.64,294.67,184.59,294.79,185Z"/><path class="cls-1" d="M275.17,157a7,7,0,0,0,.52,2,16.51,16.51,0,0,1,.59,5.82,71.61,71.61,0,0,0-.33,8.79,52.35,52.35,0,0,0,1.3,9.89c.05.22.2.43,0,.73a16,16,0,0,1-2.83-.26c-.22-.83-.45-1.66-.68-2.49-.06-.38-.09-.4-.15-.73a46.78,46.78,0,0,1,0-8.2,3.34,3.34,0,0,0,.05-.43c.22-1.51.45-3,.54-4.57,0-.16,0-.22.05-.43a18.48,18.48,0,0,0,.36-2.57,5.27,5.27,0,0,0,.05-.63,10,10,0,0,0,0-2.94c0-.31,0-.29,0-.63-.08-.76-.18-1.52-.24-2.27a4.41,4.41,0,0,1,0-1.09c.07-.33.28-.55.63-.23a.2.2,0,0,0,.17.23Z"/><path class="cls-3" d="M273.78,181.53c.23.83.46,1.66.68,2.49l-2.83,0a3.65,3.65,0,0,0-.44-.56c-.36-.41-.88-.78-1.26-1.24-1.36-1.61-2.76-3.18-4.11-4.79a5.17,5.17,0,0,1-.75-1.39c-.07-.31-.05-.42.11-.6a1.53,1.53,0,0,1,1.08.38c2.43,1.63,4.63,3.54,6.95,5.32A3.85,3.85,0,0,1,273.78,181.53Z"/><path class="cls-2" d="M294.78,199.28a20.24,20.24,0,0,1-3.23-2.05c-.73-.51-1.46-1-2.24-1.47a35.38,35.38,0,0,1-7.52-6,2,2,0,0,1-.21-.32,12.11,12.11,0,0,1,2.62-.46c0,.55.49.77.74,1.14a24.33,24.33,0,0,0,4.69,4.71l4.72,3.82C294.56,198.82,294.77,199,294.78,199.28Z"/></svg>