<svg id="frames" xmlns="http://www.w3.org/2000/svg" viewBox="0 0 384 216"><defs><style>.cls-1{fill:#17233a;}.cls-2{fill:#f8f9f9;}</style></defs><path class="cls-1" d="M319.19,182.13a1,1,0,0,1,.55.21.65.65,0,0,1-.16,1.14,3.4,3.4,0,0,1-1.25.32c-.86.07-1.73.18-2.59.18a38,38,0,0,0-10.48,1.88c-2.17.65-4.3,1.43-6.48,2a28.31,28.31,0,0,1-14.62.05c-.06,0-.1-.08-.26-.23a7.92,7.92,0,0,1,1.64-.3c.51-.12,1-.16,1.57-.26a15.83,15.83,0,0,0,1.69-.15,6.11,6.11,0,0,0,1.48-.09,90.6,90.6,0,0,0,12.21-2.42c4.74-1.34,9.54-2.39,14.53-2.1A6,6,0,0,0,319.19,182.13Z"/><path class="cls-2" d="M319.19,182.13a6,6,0,0,1-2.17.25c-5-.29-9.79.76-14.53,2.1a90.6,90.6,0,0,1-12.21,2.42,6.11,6.11,0,0,1-1.48.09c0-.31.28-.43.54-.52,2.9-1,5.62-2.39,8.56-3.26a63.46,63.46,0,0,1,7.94-1.84,27.6,27.6,0,0,1,5.43-.52,33.37,33.37,0,0,1,6.9.76C318.54,181.71,319,181.69,319.19,182.13Z"/><path class="cls-1" d="M306.75,208.63a1.54,1.54,0,0,1-1.59-.21,11.38,11.38,0,0,0-1.73-1c-3.06-1.54-6.1-3.14-9.2-4.58a17.08,17.08,0,0,1-4.09-2.81,12.06,12.06,0,0,1-1.72-2,23.58,23.58,0,0,1-2.36-3.92c-.3-.67-.74-1.29-1.09-2a7.8,7.8,0,0,1-.58-1.66,25.83,25.83,0,0,0,4.7,5.09c1.52,1.3,3.14,2.48,4.75,3.65C298.15,202.36,302.69,205.17,306.75,208.63Z"/><path class="cls-2" d="M306.75,208.63c-4.06-3.46-8.6-6.27-12.91-9.41-1.61-1.17-3.23-2.35-4.75-3.65a25.83,25.83,0,0,1-4.7-5.09c.18-.76.39-.86.93-.41a9.73,9.73,0,0,1,.86.84,45.74,45.74,0,0,0,5.69,4.69c2.82,2,5.57,4.19,8.34,6.32,1.82,1.39,3.59,2.84,5.3,4.38a9.28,9.28,0,0,1,1.5,1.85C307.22,208.46,307,208.55,306.75,208.63Z"/></svg>