<svg id="frames" xmlns="http://www.w3.org/2000/svg" viewBox="0 0 384 216"><defs><style>.cls-1{fill:#0f1b33;}.cls-2{fill:#fc0101;}.cls-3{fill:#f4f2f3;}.cls-4{fill:#d6d7d0;}</style></defs><path class="cls-1" d="M165.46,123.28c0-.44,0-.87,0-1.3,0-7.17,0-14.33-.05-21.5q-.07-7.44,0-14.89c0-1.83,0-3.66.16-5.49a1.06,1.06,0,0,1,.79-1,3,3,0,0,1,1-.07q9.84,0,19.69,0,7.84,0,15.7.16c1.59,0,3.19.08,4.79.19a19.08,19.08,0,0,1,5.89,1.46,30.72,30.72,0,0,1,9.31,5.52,35.24,35.24,0,0,1,3.08,3.27c.39.73.79,1.46,1.18,2.2l.19,0q.42-6.27.86-12.54c2.83-.06,5.66-.08,8.49,0h.6c5.56,0,11.13-.1,16.69,0,3.9.06,7.8,0,11.69.15a26.92,26.92,0,0,1,17.37,7.06,26.93,26.93,0,0,1,3.35,36A26.63,26.63,0,0,1,274,131.62a26.89,26.89,0,0,1-9.55,1.81c-4.83,0-9.66,0-14.5,0h-.7c-.69,0-.72,0-.74.74,0,1.53-.08,3.06-.08,4.59q0,10.89,0,21.79a3.77,3.77,0,0,1,0,.89c-.14.65-.66,1-1.53,1-1.83,0-3.67-.07-5.49-.1.46-.18.91-.38,1.38-.52a13.32,13.32,0,0,0,2.29-.91,1.43,1.43,0,0,0,.71-.66c.16-.35.06-.45-.48-.46a10.37,10.37,0,0,0-2.92-1.26c-2.33-.67-4.65-1.35-7-2.08-3.64-1.15-7.23-2.47-10.85-3.7-3.36-1.15-6.74-2.26-10.1-3.44-5.52-1.94-11-3.92-16.54-5.9-.29-.1-.65-.1-.85-.42a1.63,1.63,0,0,1,.78.13c2.87.94,5.76,1.84,8.62,2.83,4.09,1.4,8.13,3,12.23,4.31,2.18.72,4.35,1.49,6.52,2.22.72.24.81.17.81-.59,0-1.2-.09-2.39-.05-3.59A4.76,4.76,0,0,0,225,145a1.58,1.58,0,0,1-.18-.46c.24-.48.07-1,.21-1.53,1.17,1.7,2.09,3.56,3.13,5.33a2.71,2.71,0,0,1,.22.87c.24,1.34.5,2.68.7,4a1,1,0,0,0,.85.94c1.71.53,3.41,1.11,5.12,1.66.24.08.48.26.8,0a19.88,19.88,0,0,0-1.06-1.78,63,63,0,0,0-5-6,6.29,6.29,0,0,1-1.16-1.21c-.84-1.6-1.86-3.1-2.77-4.66q-3.57-6.07-7.17-12.11c-.12-.2-.18-.51-.51-.54-.51.36-.52.75-.21,1.28,1,1.75,2.12,3.45,3,5.27-.2.51,0,1.05-.17,1.56a20.44,20.44,0,0,1-1.41-2.27c-.71-1.2-1.4-2.41-2.1-3.61-.47-.8-.61-.81-1.31-.14a4.85,4.85,0,0,1-1.15.92c0-.64.67-.87.87-1.39.15,0,.2-.12.24-.24l0,0a7.89,7.89,0,0,0,1.86-1.92,2.19,2.19,0,0,0,.15-2.46,3.26,3.26,0,0,0-.45,1,6.11,6.11,0,0,1-1.13,2.08.32.32,0,0,0-.21.32l0,0c-.62.23-.91.84-1.45,1.18a10.48,10.48,0,0,1-7.41,1.64c-.49-.08-1-.11-1.48-.18a1.46,1.46,0,0,0-1.13.26c-.43.31-.87.6-1.31.9a40.45,40.45,0,0,1-3.66,1.85c-.35.09-.71.17-1,.29-1.83.65-3.61,1.47-5.4,2.23a2.83,2.83,0,0,0-1.92,1.84,4.6,4.6,0,0,1-.44.89,15,15,0,0,1-2-.63c-.64-.21-1.27-.45-1.91-.67a10.22,10.22,0,0,0,5.3-2.11c4.14-3,8.24-6.1,12.2-9.38a76.17,76.17,0,0,0,7.45-6.33c.07-.07.18,0,.31,0,0,.36-.23.72-.16,1.11a2.59,2.59,0,0,0-.59,1.31,1,1,0,0,0,.67-.64l.34-.45c.22,0,.29-.19.32-.37a3.63,3.63,0,0,0,.91-1.35.4.4,0,0,0,.23-.46,6.6,6.6,0,0,0,.79-1.92.43.43,0,0,0,.19-.48c.18-.42.64-.48.95-.73l.52.14c-.17.54-.38,1.07-.52,1.61s-.54,1-.4,1.68a8.12,8.12,0,0,0,2.69-2.85.81.81,0,0,0,0-.68,11,11,0,0,0-.9-2.64c-1.13-2-1.83-2.49-4.22-2.52a1,1,0,0,0-1,.63c-.52,1-1.11,1.9-1.6,2.88a3.18,3.18,0,0,1-1,1.21,40,40,0,0,0-6.58,5.89c-3,3.43-6.08,6.81-9.34,10a11.38,11.38,0,0,1-4,2.72,22.83,22.83,0,0,1-7.3,1.53,8.3,8.3,0,0,1-3-.25c-3.54-1.16-7-2.53-10.58-3.63a23.77,23.77,0,0,1-3.39-1.16c.08-1.78.15-1.51-1.53-1.22l-.1,0c-.37.07-.35.34-.31.62a19.7,19.7,0,0,1-3.62-1.2,20.93,20.93,0,0,1,3.83-1c2.86-.43,5.75-.68,8.57-1.34a16.18,16.18,0,0,0,5.63-2.45c.27-.2.27-.35-.06-.46a10.26,10.26,0,0,1,1-.56l4.27-1.78a7.69,7.69,0,0,0,2.4.64l2.09.14a25,25,0,0,1,4.65.56c.07.52.17,1,.2,1.58a2.91,2.91,0,0,1-2.26,3.39c-.07,0-.08.08,0,.2,1.24.34,2.52.68,3.79,1,1,.29,1.4.15,2-.75.19-.32.11-.46-.23-.58-.78-.26-1.56-.56-2.34-.83a.6.6,0,0,1-.45-.84A8.36,8.36,0,0,0,191,120.8h0a.39.39,0,0,0-.31-.4c-.4-.41-.61-1-1.38-1a35.1,35.1,0,0,0-9.2,1c-2.32.63-4.72.74-7.05,1.28a.73.73,0,0,0-.91-.42l-1.07.22A47.45,47.45,0,0,0,165.46,123.28ZM191.8,85.4a1.51,1.51,0,0,0,.69,1.27c.26.24.5.42.55-.14,0-.16,0-.32,0-.48,0-.4.19-.61.63-.36a1.41,1.41,0,0,0,1,.16.51.51,0,0,0,.4.08,1.17,1.17,0,0,0,.8.13.51.51,0,0,0,.4.06.94.94,0,0,0,.78.1l.66.08a.68.68,0,0,0,.56.18l.33.15a.51.51,0,0,0,.46.28,2.38,2.38,0,0,0,.75.51.5.5,0,0,0,.45.31,1.09,1.09,0,0,0,.68.34.39.39,0,0,0,.52.17,1,1,0,0,0,.79,0,1.47,1.47,0,0,0,1-.26l.94-.17c.1.45.18.91.31,1.36a4.37,4.37,0,0,0,.58,1.67c.34.42.23.61-.18.83a13.69,13.69,0,0,0-2.2,1.52c-.33.28-.55.53-.4,1,.89-.63,1.74-1.26,2.62-1.85a1.27,1.27,0,0,1,1.84.14,32,32,0,0,0,5,3.39,1.8,1.8,0,0,0,2.51-.94c1.64-1.52,1.47-3.53-.43-4.88a.93.93,0,0,0-.6-.53,1.16,1.16,0,0,0-.57-.48.5.5,0,0,0-.43-.34,1.2,1.2,0,0,0-.58-.46.43.43,0,0,0-.42-.3.15.15,0,0,0-.16-.11,2.29,2.29,0,0,0-.27-.27A26.49,26.49,0,0,0,205,84.94a5.09,5.09,0,0,0-1.18-.17c-2.16-.2-4.32,0-6.48,0a.89.89,0,0,0-.6-.09,4.14,4.14,0,0,0-1.19-.38c-.32-.09-.17-.26-.07-.42.26-.34-.06-.35-.25-.43s0-.3,0-.45a.94.94,0,0,0-.71-1.19c0-.17,0-.4-.18-.43a4.42,4.42,0,0,0-2.23-.07,23.41,23.41,0,0,0-2.26,1.37c-.29.14-.14.41,0,.6A6.69,6.69,0,0,0,191.18,85C191.26,85.34,191.64,85.19,191.8,85.4Zm11.28,13.47a2.87,2.87,0,0,0-2.08-.2,117,117,0,0,0,6.49,10.89,7.43,7.43,0,0,0,.41-4.29c-.06-.45-.14-.84-.75-.84-.34,0-.44-.36-.57-.63a5.33,5.33,0,0,0-1.94-1.53c-.08-.75-.15-1.51-.26-2.25S204,99,203.08,98.87Zm-.63,5.13c.2.31.41.6.6.92q2.64,4.53,5.26,9.06c.11.18.14.46.47.45a2.14,2.14,0,0,0-.2-2c-.6-1-1.13-2-1.7-2.92q-6.21-10.59-12.4-21.19a1.24,1.24,0,0,0-1.44-.75,1.54,1.54,0,0,0-1.08-.14c1,1.74,2,3.41,2.9,5.08,1.12,2,2.34,3.94,3.36,6l-9.49.15c-.71,0-.73,0-.73.71q0,7.44,0,14.89c0,.73,0,.73.71.72l11.79-.15a6.92,6.92,0,0,0,4.87-2c.76-.73.75-.73.22-1.66-1.09-2-2.19-3.89-3.28-5.83ZM255,115.08v.13h5.2a5.22,5.22,0,0,0,1.67-.22,8.89,8.89,0,0,0,6.35-7.17,5.7,5.7,0,0,0-.31-3.43,10.49,10.49,0,0,0-4.44-5,6,6,0,0,0-3-.77c-3.7,0-7.4,0-11.1,0-.77,0-.79,0-.79.76q-.06,7.39-.1,14.79c0,.85,0,.88.88.89C251.22,115.1,253.08,115.08,255,115.08ZM217.59,93.26c-.27-.11-.36-.37-.48-.59A11,11,0,0,0,216,91.23c-.12-.15-.26-.37-.48-.24s-.12.33-.08.52a4.32,4.32,0,0,1-.42,3.19c-.33.58-.34.6.28.92.83.44.88.54.76,1.5a17.14,17.14,0,0,1-.47,2.24,1.76,1.76,0,0,0,.41,1.76,27.84,27.84,0,0,0,2.55,2.66c.14.11.39.16.22.54-1.56-.25-2.93-1.26-4.68-1.43l1,2.85a5,5,0,0,1-2.1-.75c-.2,1.24-.39,2.4-.56,3.57a1.43,1.43,0,0,0,.06.5,2.81,2.81,0,0,1-.08,1.67,2.84,2.84,0,0,0-.15.78.47.47,0,0,0,.5.59c1.4.07,2.72.62,4.11.79l3.23.4c-1,.48-2,.32-3,.72.68.52,1.46.55,2.08,1-.5.11-.92-.17-1.37.06a4.15,4.15,0,0,0,.17.5,12.86,12.86,0,0,1,.81,7.72c-.06.29-.09.59-.15.89s0,.41.17.52c.48.27,1,.74,1.46.72s.55-.75.79-1.19a1.86,1.86,0,0,0,.19-.46,17.47,17.47,0,0,1,2-4.23,21.36,21.36,0,0,0,2.79-7.74,12.77,12.77,0,0,0-.6-7.16c-.77-1.91-1.5-3.84-2.25-5.76a7.46,7.46,0,0,0-1-1.82,28.23,28.23,0,0,0-3.87-4.16,2.61,2.61,0,0,0-.91-.65C217.39,92.64,217.82,92.89,217.59,93.26Zm8.16,47.42V122.89a.26.26,0,0,0-.32.1,34.8,34.8,0,0,1-6.25,5.56c-.44.29-.43.56-.16,1,2.11,3.39,4.07,6.87,6.09,10.32A2.07,2.07,0,0,0,225.75,140.68Zm-34.67-21c1.43,1.66,2.94,3.07,5.28,3.27,1.72.14,3.44.27,5.17.25.2,0,.42,0,.56-.14a25,25,0,0,1,2.15-2.22c.25-.24.17-.49-.15-.62a2.57,2.57,0,0,0-.48-.11,68.33,68.33,0,0,0-11.42-.89A1.41,1.41,0,0,0,191.08,119.69Zm18.06-16.86c1.2-1.26,1.86-3.58,1.05-4.8-.4.37-.42,1.06-1.1,1.3,0-.57,0-1.09,0-1.6a1.16,1.16,0,0,0-.74-1.27,6,6,0,0,1-2.29-1.73c-.22-.26-.44-.49-.84-.27s-.68.39-.58.9c.06.36,0,.73,0,1.1,0,.67.14.8.82.87a13.13,13.13,0,0,0,1.4,0,1.27,1.27,0,0,1,0,.81c-.19,1.07-.2,1.1.79,1.45a1.14,1.14,0,0,1,.83.89C208.7,101.23,208.9,102,209.14,102.83Zm-17,30.87-.13-.26-3.66-.07c-.31,0-.41.17-.41.45v1.79c0,.37.18.47.51.36A12.29,12.29,0,0,0,192.14,133.7Zm26.94-6.36a4.29,4.29,0,0,0,1.18-1.74,3.62,3.62,0,0,0-1.7-.11A8.84,8.84,0,0,0,219.08,127.34ZM215.53,91l.07-.07-.13-.06s-.05,0-.07.06Z"/><path class="cls-1" d="M151.42,92.64c3.37,10.57,6.54,21.2,9.78,31.8.07.23.15.45.22.67-.56.3-1.12.59-1.66.91s-.09.37.14.48c-1,.82-2.25,1.3-3.31,2.05a2.74,2.74,0,0,1-2.74.3c-4.74-1.57-9.49-3.12-14.29-4.5a7.43,7.43,0,0,1-2.15-.75,2.52,2.52,0,0,0-.07-.49q-2.19-7.56-4.42-15.11c-.07-.25,0-.63-.44-.75-.11.32-.21.63-.32.94-.85,2.55-1.55,5.16-2.46,7.69-.66,1.85-1.26,3.71-1.88,5.57a1.36,1.36,0,0,1-.39.08c-1.56-.19-3.14-.18-4.7-.44a21.38,21.38,0,0,0-5.18-.12,6.16,6.16,0,0,0-2.18.68c-.19.11-.53.19-.37.56h0a1.64,1.64,0,0,0-1.41,1.58,6.47,6.47,0,0,0,1.75,4.81,40.22,40.22,0,0,0,10.56,8,50.8,50.8,0,0,0,7.41,3.23c3.15,1.15,6.35,2.19,9.44,3.52,1.9.81,3.85,1.49,5.78,2.21.3.11.59.34,1,.2.07-.27-.14-.43-.26-.61q-4.65-6.81-9.3-13.6-2.15-3.13-4.31-6.25a16.6,16.6,0,0,1,2.6.6,40.93,40.93,0,0,1,5.18,1.63,1.81,1.81,0,0,0,.43,1c1,1.68,2,3.36,3.06,5q4.23,6.94,8.47,13.9a1.48,1.48,0,0,0,.78.72l4.61,1.64a.25.25,0,0,0,.31-.12,2.07,2.07,0,0,0-.34-.86l-7.3-14.21c-.8-1.57-1.59-3.15-2.38-4.72.32.08.64.16,1,.26,8.28,2.6,16.58,5.18,24.85,7.83,7.25,2.32,14.49,4.72,21.73,7.09,4.52,1.49,9.06,2.92,13.55,4.49,6.06,2.12,12.07,4.39,18.12,6.54,2.89,1,5.82,1.89,8.79,2.66,1.67.44,3.34.86,5,1.23a2.91,2.91,0,0,1-1,.26c-1.87.35-3.77.48-5.64.78a88,88,0,0,1-22.81.16c-3.11-.33-6.2-.86-9.3-1.27a204.4,204.4,0,0,1-21.69-4,114.07,114.07,0,0,0-11.46-2.42,11,11,0,0,0,2,.75c2.24.63,4.47,1.28,6.72,1.89s4.57,1.19,6.86,1.79c0,1-.07,2.06-.12,3.09,0,.87-.36,1.19-1.22,1.24-.2,0-.4,0-.6,0H149.72c-.76,0-.92-.13-1.16-.85-.73-2.21-1.44-4.43-2.16-6.64-.32-1-.68-2-1-3a.93.93,0,0,0-1.1-.76c-.4,0-.8,0-1.2,0h-22.2c-.23,0-.46,0-.7,0-.4,0-.59.14-.7.53-.69,2.5-1.59,4.94-2.18,7.48a10.13,10.13,0,0,1-.74,2.06,1.53,1.53,0,0,1-1.51.93c-1.24,0-2.47,0-3.7.06-3.19.08-6.39,0-9.59.15-2.19.09-4.39,0-6.58.15-.4,0-.81,0-1.2,0-1.3.13-1.93-.41-1.43-1.88.75-2.17,1.42-4.37,2.11-6.56q4.19-13.2,8.35-26.39l5.31-16.66c.23-.71.24-.72-.41-1.07-1-.55-2.06-1.09-3.08-1.65a3.84,3.84,0,0,1-.84-.53,1,1,0,0,1-.18-1.34.92.92,0,0,1,1.33-.16c.51.33,1,.69,1.48,1a21.38,21.38,0,0,0,2.42,1.58s.09,0,.09,0a40.24,40.24,0,0,0,1.88-4.69c.09-.25-.11-.35-.32-.4-1.08-.79-2.26-1.39-3.39-2.09-1.36-.83-2.74-1.63-4.1-2.47a13.25,13.25,0,0,1-1.45-1c-.71-.58-.78-1-.33-1.71a1.41,1.41,0,0,1,1.87-.68,9.78,9.78,0,0,1,1.86,1.16l4.85,3.65a5.51,5.51,0,0,0,1.31.89c.55.47.55.47.79-.08.09-.21.17-.43.25-.65q2.55-6.61,5.08-13.24c1.07-2.79,2.12-5.6,3.18-8.4.33,0,.66,0,1,0,7.89,0,15.79,0,23.69,0,1.31,0,1.78.17,2.33,1.67Z"/><path class="cls-2" d="M187.75,157.87c-2.29-.6-4.58-1.17-6.86-1.79s-4.48-1.26-6.72-1.89a11,11,0,0,1-2-.75,114.07,114.07,0,0,1,11.46,2.42,204.4,204.4,0,0,0,21.69,4c3.1.41,6.19.94,9.3,1.27a88,88,0,0,0,22.81-.16c1.87-.3,3.77-.43,5.64-.78a2.91,2.91,0,0,0,1-.26l.75.1c.21,0,.37,0,.4-.27.54,0,.64.11.48.46a1.43,1.43,0,0,1-.71.66,13.32,13.32,0,0,1-2.29.91c-.47.14-.92.34-1.38.52a19.18,19.18,0,0,0-2.72.63,58.85,58.85,0,0,1-13.51,1.08,92.74,92.74,0,0,1-13.3-1.31c-3-.47-6.13-.84-9.16-1.48-2.8-.59-5.58-1.27-8.35-2C192.12,158.74,189.94,158.26,187.75,157.87Z"/><path class="cls-2" d="M120.67,79c-1.06,2.8-2.11,5.61-3.18,8.4q-2.53,6.63-5.08,13.24c-.08.22-.16.44-.25.65-.24.55-.24.55-.79.08,1.61-4.51,2.92-9.12,4.31-13.7.8-2.61,1.72-5.18,2.58-7.76.26-.77.43-.9,1.22-.93C119.87,79,120.27,79,120.67,79Z"/><path class="cls-2" d="M228,79.25q-.44,6.27-.86,12.54l-.19,0c-.39-.74-.79-1.47-1.18-2.2.09-2.29.19-4.57.27-6.85a8.34,8.34,0,0,0,0-1.58C225.81,80,226.32,78.86,228,79.25Z"/><path class="cls-2" d="M159.9,126.5c-.23-.11-.62-.2-.14-.48s1.1-.61,1.66-.91l4-1.83a47.45,47.45,0,0,1,5.62-1.74l1.07-.22a.73.73,0,0,1,.91.42c-.19.06-.37.14-.56.18a47.87,47.87,0,0,0-9.28,3C162.09,125.4,161,126,159.9,126.5Z"/><path class="cls-2" d="M110.75,103.69c.21,0,.41.15.32.4a40.24,40.24,0,0,1-1.88,4.69s-.06,0-.09,0Z"/><path class="cls-3" d="M159.9,126.5c1.1-.53,2.19-1.1,3.32-1.58a47.87,47.87,0,0,1,9.28-3c.19,0,.37-.12.56-.18,2.33-.54,4.73-.65,7.05-1.28a35.1,35.1,0,0,1,9.2-1c.77,0,1,.56,1.38,1,.05.17.09.36.31.4h0a21,21,0,0,0,.88,1.94,2.52,2.52,0,0,1,.33,1.59,25,25,0,0,0-4.65-.56l-2.09-.14a7.69,7.69,0,0,1-2.4-.64.6.6,0,0,1,.13-.8,2.54,2.54,0,0,0,.76-1l-4.4.49c0,.44.64.43.62.9a23.5,23.5,0,0,0-6,1.84c-2,.75-4,1.21-6,1.87a39.28,39.28,0,0,0,9.61-1c.33.11.33.26.06.46a16.18,16.18,0,0,1-5.63,2.45c-2.82.66-5.71.91-8.57,1.34a20.93,20.93,0,0,0-3.83,1,19.7,19.7,0,0,0,3.62,1.2,5.26,5.26,0,0,0,1.94.58,23.77,23.77,0,0,0,3.39,1.16c3.56,1.1,7,2.47,10.58,3.63a8.3,8.3,0,0,0,3,.25,22.83,22.83,0,0,0,7.3-1.53,11.38,11.38,0,0,0,4-2.72c3.26-3.19,6.33-6.57,9.34-10a40,40,0,0,1,6.58-5.89,3.18,3.18,0,0,0,1-1.21c.49-1,1.08-1.91,1.6-2.88a1,1,0,0,1,1-.63c2.39,0,3.09.49,4.22,2.52a11,11,0,0,1,.9,2.64.81.81,0,0,1,0,.68,8.12,8.12,0,0,1-2.69,2.85c-.14-.71.26-1.16.4-1.68s.35-1.07.52-1.61c.13-.13.09-.26,0-.32a.31.31,0,0,0-.48.18c-.31.25-.77.31-.95.73a.36.36,0,0,0-.19.48,6.6,6.6,0,0,1-.79,1.92.37.37,0,0,0-.23.46,3.63,3.63,0,0,1-.91,1.35.35.35,0,0,0-.32.37l-.34.45-.08-.67c-.07-.39.18-.75.16-1.11-.13-.1-.24-.12-.31,0a76.17,76.17,0,0,1-7.45,6.33c-4,3.28-8.06,6.36-12.2,9.38a10.22,10.22,0,0,1-5.3,2.11c.64.22,1.27.46,1.91.67a15,15,0,0,0,2,.63c.65.53,1.5.42,2.23.7h0c.1,0,.11.08.13.16a7.45,7.45,0,0,0,2.68,1c.36,0,.64.28,1,.23l0,0c.2.32.56.32.85.42,5.51,2,11,4,16.54,5.9,3.36,1.18,6.74,2.29,10.1,3.44,3.62,1.23,7.21,2.55,10.85,3.7,2.31.73,4.63,1.41,7,2.08a10.37,10.37,0,0,1,2.92,1.26c0,.26-.19.3-.4.27l-.75-.1c-1.69-.37-3.36-.79-5-1.23-3-.77-5.9-1.64-8.79-2.66-6.05-2.15-12.06-4.42-18.12-6.54-4.49-1.57-9-3-13.55-4.49-7.24-2.37-14.48-4.77-21.73-7.09-8.27-2.65-16.57-5.23-24.85-7.83-.32-.1-.64-.18-1-.26-1.69-.55-3.38-1.11-5.08-1.65a16.25,16.25,0,0,0-2.56-.73,40.93,40.93,0,0,0-5.18-1.63,16.6,16.6,0,0,0-2.6-.6c-6.86-2-13.77-3.51-21-2.3-.13-.47.36-.45.35-.74h0c.22.09.39,0,.57-.12a9.86,9.86,0,0,1,2.89-.7c1.42-.16,2.85-.14,4.27-.3,1.56.26,3.14.25,4.7.44a1.36,1.36,0,0,0,.39-.08.91.91,0,0,0,.26.13c2.24.31,4.42.92,6.63,1.39a15.36,15.36,0,0,0,2.7.63,7.43,7.43,0,0,0,2.15.75c4.8,1.38,9.55,2.93,14.29,4.5a2.74,2.74,0,0,0,2.74-.3C157.65,127.8,158.88,127.32,159.9,126.5Z"/><path class="cls-3" d="M217.59,93.26c.23-.37-.2-.62-.11-1a2.61,2.61,0,0,1,.91.65,28.23,28.23,0,0,1,3.87,4.16,7.46,7.46,0,0,1,1,1.82c.75,1.92,1.48,3.85,2.25,5.76a12.77,12.77,0,0,1,.6,7.16,21.36,21.36,0,0,1-2.79,7.74,17.47,17.47,0,0,0-2,4.23,1.86,1.86,0,0,1-.19.46c-.24.44-.36,1.17-.79,1.19s-1-.45-1.46-.72c-.21-.11-.21-.31-.17-.52s.09-.6.15-.89a12.86,12.86,0,0,0-.81-7.72,4.15,4.15,0,0,1-.17-.5c.45-.23.87.05,1.37-.06-.62-.45-1.4-.48-2.08-1,1-.4,2-.24,3-.72l-3.23-.4c-1.39-.17-2.71-.72-4.11-.79a.47.47,0,0,1-.5-.59,2.84,2.84,0,0,1,.15-.78,2.81,2.81,0,0,0,.08-1.67,1.43,1.43,0,0,1-.06-.5c.17-1.17.36-2.33.56-3.57a5,5,0,0,0,2.1.75l-1-2.85c1.75.17,3.12,1.18,4.68,1.43.17-.38-.08-.43-.22-.54a27.84,27.84,0,0,1-2.55-2.66,1.76,1.76,0,0,1-.41-1.76,17.14,17.14,0,0,0,.47-2.24c.12-1,.07-1.06-.76-1.5-.62-.32-.61-.34-.28-.92a4.32,4.32,0,0,0,.42-3.19c0-.19-.15-.4.08-.52s.36.09.48.24a11,11,0,0,1,1.07,1.44C217.23,92.89,217.32,93.15,217.59,93.26Z"/><path class="cls-3" d="M197.66,86.3l-.66-.08a.54.54,0,0,0-.78-.1.51.51,0,0,1-.4-.06.51.51,0,0,0-.8-.13.51.51,0,0,1-.4-.08c-.12-.33-.57-.14-.71-.45a1.8,1.8,0,0,1,2.13-.75c.25.06.49.25.74,0a.89.89,0,0,1,.6.09.56.56,0,0,0,.52.23h1.2c1.59,0,3.19,0,4.78,0,.75,0,1.61,0,2.12.77a8.53,8.53,0,0,0-2.7.09c.74.61,1.48.25,2.16.2s1.47.34,2.23.34a5,5,0,0,1,2.36.93c.32.17.58.44,1,.41a.15.15,0,0,1,.16.11.34.34,0,0,0,.42.3,1.2,1.2,0,0,1,.58.46c0,.25.18.35.43.34a1.16,1.16,0,0,1,.57.48.58.58,0,0,0,.6.53c1.9,1.35,2.07,3.36.43,4.88a8.34,8.34,0,0,1-2.1-1.63,19.65,19.65,0,0,0-4.67-3.2c-.29-.13-.63-.21-.78-.54.38-.38,1,0,1.39-.45a5.25,5.25,0,0,1-2.17-.89,1.93,1.93,0,0,0-1.77-.39l-.94.17a.87.87,0,0,0-1,.26,1,1,0,0,1-.79,0,.43.43,0,0,0-.52-.17,1.09,1.09,0,0,1-.68-.34.37.37,0,0,0-.45-.31,2.38,2.38,0,0,1-.75-.51.36.36,0,0,0-.46-.28l-.33-.15A.38.38,0,0,0,197.66,86.3Z"/><path class="cls-3" d="M221,136.16c-.9-1.82-2-3.52-3-5.27-.31-.53-.3-.92.21-1.28.33,0,.39.34.51.54q3.6,6,7.17,12.11c.91,1.56,1.93,3.06,2.77,4.66a6.29,6.29,0,0,0,1.16,1.21,63,63,0,0,1,5,6,19.88,19.88,0,0,1,1.06,1.78c-.32.22-.56,0-.8,0-1.71-.55-3.41-1.13-5.12-1.66a1,1,0,0,1-.85-.94c-.2-1.35-.46-2.69-.7-4a2.71,2.71,0,0,0-.22-.87c-1-1.77-2-3.63-3.13-5.33-.77-1.58-1.73-3.06-2.61-4.58A14.84,14.84,0,0,0,221,136.16Z"/><path class="cls-3" d="M191.08,119.69a1.41,1.41,0,0,1,1.11-.46,68.33,68.33,0,0,1,11.42.89,2.57,2.57,0,0,1,.48.11c.32.13.4.38.15.62a25,25,0,0,0-2.15,2.22c-.14.17-.36.14-.56.14-1.73,0-3.45-.11-5.17-.25C194,122.76,192.51,121.35,191.08,119.69Z"/><path class="cls-2" d="M204.12,87.78a1.93,1.93,0,0,1,1.77.39,5.25,5.25,0,0,0,2.17.89c-.41.5-1,.07-1.39.45.15.33.49.41.78.54a19.65,19.65,0,0,1,4.67,3.2,8.34,8.34,0,0,0,2.1,1.63,1.8,1.8,0,0,1-2.51.94,32,32,0,0,1-5-3.39,1.27,1.27,0,0,0-1.84-.14c-.88.59-1.73,1.22-2.62,1.85-.15-.45.07-.7.4-1a13.69,13.69,0,0,1,2.2-1.52c.41-.22.52-.41.18-.83a4.37,4.37,0,0,1-.58-1.67C204.3,88.69,204.22,88.23,204.12,87.78Z"/><path class="cls-3" d="M193,87.58a1.24,1.24,0,0,1,1.44.75q6.17,10.61,12.4,21.19c.57,1,1.1,2,1.7,2.92a2.14,2.14,0,0,1,.2,2c-.33,0-.36-.27-.47-.45q-2.62-4.53-5.26-9.06c-.19-.32-.4-.61-.6-.92a2.69,2.69,0,0,0-.44-.88q-2.41-4.19-4.85-8.37C195.79,92.37,194.42,90,193,87.58Z"/><path class="cls-2" d="M177.76,125.33a39.28,39.28,0,0,1-9.61,1c2-.66,4.06-1.12,6-1.87a23.5,23.5,0,0,1,6-1.84c0-.47-.59-.46-.62-.9l4.4-.49a2.54,2.54,0,0,1-.76,1,.6.6,0,0,0-.13.8l-4.27,1.78A10.26,10.26,0,0,0,177.76,125.33Z"/><path class="cls-2" d="M214.9,132.62c-.05,0-.08.11-.13.16-1.53,1.74-3.55,2.09-5.72,2a23.66,23.66,0,0,1-5.6-1c.44-.3.88-.59,1.31-.9a1.46,1.46,0,0,1,1.13-.26c.49.07,1,.1,1.48.18a10.48,10.48,0,0,0,7.41-1.64c.54-.34.83-1,1.45-1.18.22.41-.33.64-.24,1l0,0c-.14,0-.18.14-.24.24C215.57,131.75,214.91,132,214.9,132.62Z"/><path class="cls-3" d="M209.14,102.83c-.24-.87-.44-1.6-.63-2.34a1.14,1.14,0,0,0-.83-.89c-1-.35-1-.38-.79-1.45a1.27,1.27,0,0,0,0-.81,13.13,13.13,0,0,1-1.4,0c-.68-.07-.79-.2-.82-.87,0-.37,0-.74,0-1.1-.1-.51.19-.7.58-.9s.62,0,.84.27a6,6,0,0,0,2.29,1.73,1.16,1.16,0,0,1,.74,1.27c0,.51,0,1,0,1.6.68-.24.7-.93,1.1-1.3C211,99.25,210.34,101.57,209.14,102.83Z"/><path class="cls-2" d="M193,87.58c1.38,2.39,2.75,4.79,4.12,7.17q2.43,4.19,4.85,8.37a2.69,2.69,0,0,1,.44.88l-.18,1.35c-1.14-1.95-2.27-3.9-3.41-5.84a4.59,4.59,0,0,0-.64-1c-1-2.05-2.24-4-3.36-6-.94-1.67-1.91-3.34-2.9-5.08A1.54,1.54,0,0,1,193,87.58Z"/><path class="cls-2" d="M192.2,124.33a2.52,2.52,0,0,0-.33-1.59,21,21,0,0,1-.88-1.94,8.36,8.36,0,0,1,1.89,6.74.6.6,0,0,0,.45.84c.78.27,1.56.57,2.34.83.34.12.42.26.23.58-.57.9-.93,1-2,.75-1.27-.36-2.55-.7-3.79-1-.08-.12-.07-.18,0-.2a2.91,2.91,0,0,0,2.26-3.39C192.37,125.38,192.27,124.85,192.2,124.33Z"/><path class="cls-2" d="M221,136.16a14.84,14.84,0,0,1,1.4,2.28c.88,1.52,1.84,3,2.61,4.58-.14.5,0,1-.21,1.53a14.51,14.51,0,0,1-1.44-2.35c-.85-1.49-1.8-2.92-2.53-4.48C221,137.21,220.84,136.67,221,136.16Z"/><path class="cls-3" d="M191.18,85a6.69,6.69,0,0,1-1.28-1.74c-.11-.19-.26-.46,0-.6a23.41,23.41,0,0,1,2.26-1.37,4.42,4.42,0,0,1,2.23.07c.16,0,.18.26.18.43a1.52,1.52,0,0,0,0,.48c.15.38-.07.46-.36.5h-1c-.45,0-.89,0-.89.61l0,0c-.23,0-.34.11-.47.26A7.61,7.61,0,0,0,191.18,85Z"/><path class="cls-2" d="M199.79,135.65c-1.75,1.06-3.59,2-5.43,2.86-.39.19-.76.4-1.13.62a5.34,5.34,0,0,0-.48.35,1.54,1.54,0,0,0-.5,1.44c.05.51.54.59,1,.68-.73-.28-1.58-.17-2.23-.7a4.6,4.6,0,0,0,.44-.89,2.83,2.83,0,0,1,1.92-1.84c1.79-.76,3.57-1.58,5.4-2.23C199.08,135.82,199.44,135.74,199.79,135.65Z"/><path class="cls-3" d="M206,85.81c-.51-.79-1.37-.74-2.12-.77-1.59-.08-3.19,0-4.78,0h-1.2a.56.56,0,0,1-.52-.23c2.16,0,4.32-.19,6.48,0a5.09,5.09,0,0,1,1.18.17,26.49,26.49,0,0,1,5.72,2.57,2.29,2.29,0,0,1,.27.27c-.4,0-.66-.24-1-.41a5,5,0,0,0-2.36-.93Z"/><path class="cls-3" d="M195.27,83.44c.19.08.51.09.25.43a2.71,2.71,0,0,0-2.67,2c-.08.28-.06.6-.36.77a1.51,1.51,0,0,1-.69-1.27c.08-1.06.08-1.06,1.12-1.08-.16-.33-.57-.5-.53-.91l0,0a2.67,2.67,0,0,0,1.08-.25.88.88,0,0,1,.62,0Z"/><path class="cls-3" d="M216,131c-.09-.37.46-.6.24-1l0,0c.24,0,.27-.12.21-.32a6.11,6.11,0,0,0,1.13-2.08,3.26,3.26,0,0,1,.45-1,2.19,2.19,0,0,1-.15,2.46A7.89,7.89,0,0,1,216,131Z"/><path class="cls-3" d="M192.49,86.67c.3-.17.28-.49.36-.77a2.71,2.71,0,0,1,2.67-2c-.1.16-.25.33.07.42a4.14,4.14,0,0,1,1.19.38c-.25.23-.49,0-.74,0a1.8,1.8,0,0,0-2.13.75c.14.31.59.12.71.45a1.41,1.41,0,0,1-1-.16c-.44-.25-.59,0-.63.36,0,.16,0,.32,0,.48C193,87.09,192.75,86.91,192.49,86.67Z"/><path class="cls-2" d="M204.64,102.27c-.52.24-.62-.14-.7-.5-.12-.58-.22-1.16-.33-1.75a2.38,2.38,0,0,0-.53-1.15c.95.11,1.18.3,1.3,1.15S204.56,101.52,204.64,102.27Z"/><path class="cls-3" d="M219.08,127.34a8.84,8.84,0,0,1-.52-1.85,3.62,3.62,0,0,1,1.7.11A4.29,4.29,0,0,1,219.08,127.34Z"/><path class="cls-3" d="M195.27,83.44l-1.16-.3c.06-.12.2-.2.16-.36.29,0,.51-.12.36-.5a1.52,1.52,0,0,1,0-.48.94.94,0,0,1,.71,1.19C195.28,83.14,195.18,83.28,195.27,83.44Z"/><path class="cls-3" d="M192.39,83.41c0,.41.37.58.53.91-1,0-1,0-1.12,1.08-.16-.21-.54-.06-.62-.39a7.61,7.61,0,0,1,.74-1.34C192.05,83.52,192.16,83.36,192.39,83.41Z"/><path class="cls-3" d="M212.17,122.94l.08.67a1,1,0,0,1-.67.64A2.59,2.59,0,0,1,212.17,122.94Z"/><path class="cls-3" d="M202.2,88.21a.87.87,0,0,1,1-.26A1.47,1.47,0,0,1,202.2,88.21Z"/><path class="cls-3" d="M195,85.93a.51.51,0,0,1,.8.13A1.17,1.17,0,0,1,195,85.93Z"/><path class="cls-3" d="M196.22,86.12a.54.54,0,0,1,.78.1A.94.94,0,0,1,196.22,86.12Z"/><path class="cls-3" d="M213.79,90a.58.58,0,0,1-.6-.53A.93.93,0,0,1,213.79,90Z"/><path class="cls-3" d="M216,117.85a.31.31,0,0,1,.48-.18c.13.06.17.19,0,.32Z"/><path class="cls-3" d="M214.84,119.06a.36.36,0,0,1,.19-.48A.43.43,0,0,1,214.84,119.06Z"/><path class="cls-3" d="M199.76,87.42a.37.37,0,0,1,.45.31A.5.5,0,0,1,199.76,87.42Z"/><path class="cls-3" d="M198.55,86.63a.36.36,0,0,1,.46.28A.51.51,0,0,1,198.55,86.63Z"/><path class="cls-3" d="M197.66,86.3a.38.38,0,0,1,.56.18A.68.68,0,0,1,197.66,86.3Z"/><path class="cls-3" d="M213.82,121.44a.37.37,0,0,1,.23-.46A.4.4,0,0,1,213.82,121.44Z"/><path class="cls-3" d="M212.62,89c-.25,0-.4-.09-.43-.34A.5.5,0,0,1,212.62,89Z"/><path class="cls-3" d="M200.89,88.07a.43.43,0,0,1,.52.17A.39.39,0,0,1,200.89,88.07Z"/><path class="cls-3" d="M212.59,123.16a.35.35,0,0,1,.32-.37C212.88,123,212.81,123.13,212.59,123.16Z"/><path class="cls-3" d="M211.61,88.19a.34.34,0,0,1-.42-.3A.43.43,0,0,1,211.61,88.19Z"/><path class="cls-2" d="M191,120.81c-.22,0-.26-.23-.31-.4A.39.39,0,0,1,191,120.81Z"/><path class="cls-2" d="M216.42,129.7c.06.2,0,.32-.21.32A.32.32,0,0,1,216.42,129.7Z"/><path class="cls-3" d="M215.53,91l-.13-.07s0-.07.07-.06l.13.06Z"/><path class="cls-4" d="M215.77,131.23c.06-.1.1-.22.24-.24C216,131.11,215.92,131.22,215.77,131.23Z"/><path class="cls-2" d="M115,122.21c0,.29-.48.27-.35.74,7.19-1.21,14.1.33,21,2.3q2.16,3.12,4.31,6.25,4.66,6.8,9.3,13.6c.12.18.33.34.26.61-.36.14-.65-.09-1-.2-1.93-.72-3.88-1.4-5.78-2.21-3.09-1.33-6.29-2.37-9.44-3.52a50.8,50.8,0,0,1-7.41-3.23,40.22,40.22,0,0,1-10.56-8,6.47,6.47,0,0,1-1.75-4.81A1.64,1.64,0,0,1,115,122.21Z"/><path class="cls-2" d="M143.4,127.48a16.25,16.25,0,0,1,2.56.73c1.7.54,3.39,1.1,5.08,1.65.79,1.57,1.58,3.15,2.38,4.72l7.3,14.21a2.07,2.07,0,0,1,.34.86.25.25,0,0,1-.31.12l-4.61-1.64a1.48,1.48,0,0,1-.78-.72q-4.23-7-8.47-13.9c-1-1.68-2-3.36-3.06-5A1.81,1.81,0,0,1,143.4,127.48Z"/><path class="cls-2" d="M122.73,121.09c-1.42.16-2.85.14-4.27.3a9.86,9.86,0,0,0-2.89.7c-.18.08-.35.21-.57.12-.16-.37.18-.45.37-.56a6.16,6.16,0,0,1,2.18-.68A21.38,21.38,0,0,1,122.73,121.09Z"/><path class="cls-1" d="M196,142.79c.42-.3.7,0,1,.23C196.65,143.07,196.37,142.78,196,142.79Z"/><path class="cls-2" d="M193.2,141.59c0,.13,0,.18.13.16C193.31,141.67,193.3,141.59,193.2,141.59Z"/><path class="cls-1" d="M206,85.81l1.69.63c-.76,0-1.45-.39-2.23-.34s-1.42.41-2.16-.2A8.53,8.53,0,0,1,206,85.81Z"/><path class="cls-3" d="M193.49,83.14a2.67,2.67,0,0,1-1.08.25c0-.65.44-.63.89-.61C193.28,83,193.42,83,193.49,83.14Z"/><path class="cls-1" d="M193.49,83.14c-.07-.12-.21-.19-.19-.36h1c0,.16-.1.24-.16.36A.88.88,0,0,0,193.49,83.14Z"/><path class="cls-1" d="M195.74,83.87c-.63-.75-1.13-.75-2.3-.67a1,1,0,0,0-.84.62c-.15.38.36.42.41.71,0,.07-.1.17-.13.16-1-.09-.9,0-1,1.31-.32-.38-.88-.16-1-.78.48,0,.54-.56.73-.94a2.5,2.5,0,0,1,3.09-1.54c.29-.32.08-.68.15-1,.66.22.85.46.73,1.27C195.52,83.35,195.74,83.53,195.74,83.87Z"/><path class="cls-1" d="M195.58,84.42c.37-.06,1.56.36,2,.07-.47-.14-1.17-.06-1.65-.18-.29-.08-.23-.25-.13-.44A3,3,0,0,0,193.52,85a1.91,1.91,0,0,0-.34,1.49c.14-.19.24-.84.52-.68A2.39,2.39,0,0,1,195.58,84.42Z"/></svg>