<svg id="frames" xmlns="http://www.w3.org/2000/svg" viewBox="0 0 384 216"><defs><style>.cls-1{fill:#0f1b33;}.cls-2{fill:#fd0101;}.cls-3{fill:#f5f5f6;}.cls-4{fill:#d6d7d0;}</style></defs><path class="cls-1" d="M229.67,79.25c2.23-.06,4.47-.07,6.7,0l.9,0c5.53,0,11.06-.1,16.59,0,3.87.06,7.73,0,11.59.16a26.79,26.79,0,0,1,17.37,7.07,25.77,25.77,0,0,1,8.24,14.92,26.28,26.28,0,0,1-6.2,22.59,26.56,26.56,0,0,1-16,9,30.05,30.05,0,0,1-5.27.42H249a.44.44,0,0,0-.5.49v.3c-.05,2.76-.16,5.53-.12,8.29.07,6,0,11.93,0,17.89v.4c0,1.16-.42,1.6-1.54,1.63-1,0-1.93,0-2.9-.05l-1.19,0c.93-.45,2-.67,2.84-1.19a1.37,1.37,0,0,0,.72-.66c.15-.36.05-.46-.49-.46a10.64,10.64,0,0,0-2.92-1.25q-2.49-.71-5-1.46c-4.74-1.44-9.39-3.13-14.07-4.75-4-1.39-8-2.68-12-4.14s-7.7-2.75-11.55-4.11c-1.72-.61-3.46-1.18-5.12-1.95,1.29.41,2.6.78,3.88,1.23,4,1.41,8.12,2.61,12.12,4.08,4.63,1.7,9.32,3.24,14,4.84.71.25.78.19.77-.6,0-1.64-.07-3.27-.08-4.9a4.44,4.44,0,0,0-.43-2.22c.24-.49.07-1,.23-1.54,1.17,1.7,2.06,3.57,3.12,5.34a2.33,2.33,0,0,1,.22.86c.23,1.35.49,2.69.7,4a1,1,0,0,0,.75.92c1.81.56,3.61,1.17,5.41,1.75.18.06.38.18.55,0a1.33,1.33,0,0,0-.05-.19,43.2,43.2,0,0,0-5.75-7.37,13.41,13.41,0,0,1-1.95-2.48c-.93-1.72-2-3.37-3-5.05q-3.15-5.32-6.32-10.64c-.12-.21-.17-.52-.5-.55-.55.66-.55.66-.16,1.35,1,1.74,2.08,3.41,3,5.2-.05.54-.09,1.07-.14,1.61-.15-.22-.32-.42-.45-.65l-3-5.14c-.54-.94-.62-.95-1.45-.2a4.5,4.5,0,0,1-1.08.86c0-.61.67-.8.74-1.34.07,0,.17,0,.16-.14h0a.32.32,0,0,0,.35-.13c.57-.73,1.31-1.31,1.82-2.1a2.08,2.08,0,0,0,0-2.29,24.27,24.27,0,0,1-1.42,2.84,13.62,13.62,0,0,1-1.89,1.75,10.21,10.21,0,0,1-7.3,1.58c-2.08-.33-2.08-.3-3.85.91l-.06.08c-1.2.63-2.37,1.32-3.63,1.84a9.23,9.23,0,0,0-2.34.79c-1.42.56-2.83,1.15-4.22,1.77a2.62,2.62,0,0,0-1.54,1.17c-.24.51-.49,1-.73,1.52-.67-.2-1.34-.4-2-.62s-1.27-.44-1.91-.66a11.08,11.08,0,0,0,5.6-2.33c2.67-2,5.34-4,8-6,2-1.54,3.87-3.25,5.91-4.74a38.11,38.11,0,0,0,5.33-4.66c.11-.12.22-.26.42-.18.17.55-.21,1-.26,1.54-.1.13-.22.27,0,.41s.22,0,.29-.12l.29-.26a12,12,0,0,0,2.35-4.37,1.53,1.53,0,0,1,1.46-1.07,1.31,1.31,0,0,1-.1.76c-.19.6-.4,1.2-.6,1.8-.06.18-.2.39,0,.54s.43,0,.61-.15a9.81,9.81,0,0,0,1.88-2.18.85.85,0,0,0,.11-.76,15.06,15.06,0,0,0-1-2.92,4,4,0,0,0-3.93-2.35,1.36,1.36,0,0,0-1.3.74c-.5.94-1.08,1.84-1.54,2.8a3.36,3.36,0,0,1-1,1.2c-1.13.88-2.31,1.68-3.38,2.64-2,1.8-3.73,3.89-5.55,5.87-2.32,2.53-4.65,5.05-7.07,7.47a11.13,11.13,0,0,1-4.24,2.76,23.7,23.7,0,0,1-7.41,1.43,6.17,6.17,0,0,1-2.18-.16l-2.64-.91c-4-1.43-8.1-2.85-12.22-4.07,0-.1,0-.2,0-.3-.06-1-.18-1.11-1.15-.81a1.12,1.12,0,0,0-.73.46c-.55-.16-1.09-.31-1.63-.48a4.88,4.88,0,0,1-1.61-.63l.61-.2a46.85,46.85,0,0,1,8.05-1.44,32.13,32.13,0,0,0,6.42-1.47,19.61,19.61,0,0,0,3.14-1.74c.26-.15.15-.31-.08-.42a3.83,3.83,0,0,1,.86-.49c1.43-.69,2.95-1.21,4.41-1.83A11.84,11.84,0,0,0,188,124a24.69,24.69,0,0,1,4.84.56c.07.53.18,1.06.2,1.59.1,1.87-.49,2.73-2.26,3.39,0,0,0,0-.05.07s.07.12.11.13l4.33,1.22a.63.63,0,0,0,.71-.2l.6-.67c.28-.32.21-.51-.19-.64-.76-.26-1.5-.55-2.26-.81-.44-.15-.64-.39-.5-.89a8.36,8.36,0,0,0-1.92-6.76l0,0a.38.38,0,0,0-.3-.38,1.84,1.84,0,0,0-2.09-.93c-.9.08-1.8.05-2.69.09-3.78.18-7.36,1.49-11.09,1.88-.3,0-.58.14-.88.19s-.59.08-.89.11a.66.66,0,0,0-.79-.43l-1.17.23a48.86,48.86,0,0,0-6.25,2c0-.8,0-1.6,0-2.4,0-7,0-14-.05-21q-.07-7.39,0-14.79c0-1.83,0-3.66.16-5.49a1,1,0,0,1,.79-1,3,3,0,0,1,1-.07q9.84,0,19.69,0,7.86,0,15.7.16c1.59,0,3.19.08,4.79.19a19.36,19.36,0,0,1,5.89,1.46,30.67,30.67,0,0,1,9.39,5.59,39.52,39.52,0,0,1,3,3.19,28.43,28.43,0,0,1,1.48,3c.4,1,.78,2.06,1.17,3.09l.16,0Zm-38.45,3.36h0c-1.07.38-1.07.38-.44,1.24a1.53,1.53,0,0,0,.49.73.49.49,0,0,0,.32.43h0a4.51,4.51,0,0,1,1.2,1.66c.06.16.27.28.44.37s.45.09.44-.26a2.55,2.55,0,0,1,0-.39c.05-.57.12-.61.7-.43a1.33,1.33,0,0,0,.68.09.49.49,0,0,0,.39.08,1.1,1.1,0,0,0,.81.12.47.47,0,0,0,.4.08,1.06,1.06,0,0,0,.8.1,1.82,1.82,0,0,0,.8.09l1.39.61a.12.12,0,0,0,.15.08.52.52,0,0,0,.45.33.11.11,0,0,0,.13.09.53.53,0,0,0,.47.32.11.11,0,0,0,.13.08,1.32,1.32,0,0,0,1.08.44.88.88,0,0,0,.76,0,.34.34,0,0,0,.41-.1l.39-.12c.41.09.74-.23,1.13-.2.09.36.19.71.27,1.07a6.09,6.09,0,0,0,.65,2c.3.45.13.67-.24.86a8.34,8.34,0,0,0-2,1.42,2.41,2.41,0,0,0-.81,1.76,8.93,8.93,0,0,1,3-2.55,1.42,1.42,0,0,1,1.95.21,26.89,26.89,0,0,0,4.61,3.16,1.91,1.91,0,0,0,2.79-.73c.15-.18.32-.34.46-.53a2.91,2.91,0,0,0-.33-3.94,10.16,10.16,0,0,0-1.58-1.35A.48.48,0,0,0,213,89a.49.49,0,0,0-.35-.26.83.83,0,0,0-.65-.51.13.13,0,0,0-.15-.09c-.06-.21-.26-.29-.42-.4a29.2,29.2,0,0,0-5.57-2.55,1.14,1.14,0,0,0-.87-.09.41.41,0,0,0-.37,0,17.08,17.08,0,0,0-4.79,0,4.68,4.68,0,0,0-1.24,0c-.65-.22-1.37-.18-2-.45-.15-.06-.43-.11-.37-.24.23-.57-.54-.91-.27-1.49a.85.85,0,0,0-.19-.65,2.45,2.45,0,0,0-3.2-.47l-.31.14A1.11,1.11,0,0,0,191.22,82.61Zm29.2,42.75,0,0c0,.18-.06.31-.28.32s-.65-.15-1,.07a7.42,7.42,0,0,0,.56,1.8,9.34,9.34,0,0,0,1.51-2.15,3.54,3.54,0,0,0,.65-1.3,2.51,2.51,0,0,0,.4-1.14c.52-1,1-2,1.58-3a21.67,21.67,0,0,0,3-8.6,12,12,0,0,0-.56-6.09c-.59-1.53-1.25-3-1.75-4.57a14.35,14.35,0,0,0-3.4-5.47,15.88,15.88,0,0,0-2.94-2.67l-.13-.09a.42.42,0,0,0,0,.13s.1,0,.12-.07c-.29.27.13.54,0,.81l-.11.09a.69.69,0,0,1-.32-.37,9.19,9.19,0,0,0-1.1-1.54c-.13-.16-.26-.45-.54-.34s-.09.39,0,.6a4.81,4.81,0,0,1-.27,2.83c-.35.82-.35.85.35,1.33a1.05,1.05,0,0,1,.55,1.17c0,.22,0,.46-.06.69a.28.28,0,0,0-.07.37c-.1.41-.19.82-.33,1.22a1.78,1.78,0,0,0,.62,2.17.86.86,0,0,0,.5.58,8.82,8.82,0,0,0,1.83,1.83c.1.19.2.39,0,.6-.83-.17-1.56-.62-2.37-.85a14,14,0,0,0-2.06-.73c-.13.29-.09.49.12.64a2.88,2.88,0,0,0,.43,1.13.38.38,0,0,0,.17.46c-.06.26.32.46.07.76-.7,0-1.24-.53-1.94-.66-.19,1-.36,2-.53,2.9a2.36,2.36,0,0,0,0,1.09,2.73,2.73,0,0,1-.1,1.67,1.73,1.73,0,0,0,0,1.3l7.59,1.29v.12l-2.84.47c.68.63,1.49.59,2.07,1.07-.42.2-.86-.21-1.24.08a.74.74,0,0,0,0,.19,2.43,2.43,0,0,0,.13.38,13.12,13.12,0,0,1,.76,7.73,2,2,0,0,0-.08,1.17C219.64,125.18,220.05,125.24,220.42,125.36Zm-15.17-22.84c-.07-.72-.14-1.45-.23-2.17-.13-.92-.36-1.12-1.34-1.25a3.6,3.6,0,0,0-2.16-.47,90.29,90.29,0,0,0,6.23,10.48c.2-1.69.68-3.24-.4-4.81A5.22,5.22,0,0,0,205.25,102.52Zm-11.59-14.7c-.32-.07-.6-.29-1-.14a1.87,1.87,0,0,0,.35.8c.62,1.1,1.26,2.18,1.88,3.28l3.81,6.75c-3.26,0-6.52.11-9.78.15-.92,0-.93,0-.93.9v7.19c0,2.53,0,5.06,0,7.59,0,.65,0,.65.68.64,3.93,0,7.86-.11,11.78-.14a7,7,0,0,0,5.22-2.32c.72-.76.7-.76.18-1.7-1-1.74-2-3.43-2.93-5.22l.17-1.37c.18.28.38.55.55.83l5.26,9.07c.12.21.19.49.51.56a2.06,2.06,0,0,0-.15-1.93c-.86-1.42-1.66-2.87-2.5-4.29q-3-5-5.88-10c-1.93-3.31-3.9-6.59-5.77-9.93A1.21,1.21,0,0,0,193.66,87.82Zm32.09,34.87a57.16,57.16,0,0,1-5,4.8,9.4,9.4,0,0,0-1.05,1.2.81.81,0,0,0,0,1.07c1.9,3.16,3.76,6.35,5.64,9.52.11.18.15.45.55.5,0-2.16,0-4.3,0-6.44.42-4.2.66-8.42.86-12.65A9.37,9.37,0,0,0,225.75,122.69Zm29.19-7.61v.13h5.19a5.35,5.35,0,0,0,1.49-.15,8.88,8.88,0,0,0,6.56-7.31,5.64,5.64,0,0,0-.31-3.34,10.49,10.49,0,0,0-4.44-5,5.83,5.83,0,0,0-3-.78c-3.7,0-7.4,0-11.1,0-.78,0-.8,0-.8.75q-.06,7.39-.1,14.79c0,.85,0,.89.87.9C251.21,115.1,253.07,115.08,254.94,115.08Zm-63.3,4.86c.55.55,1,1.1,1.59,1.57a5.87,5.87,0,0,0,3,1.56,38.39,38.39,0,0,0,6.06.38.61.61,0,0,0,.46-.14c.72-.74,1.45-1.48,2.16-2.22.26-.28.13-.49-.16-.62a2.68,2.68,0,0,0-.49-.11,68.14,68.14,0,0,0-11.33-.87A1.84,1.84,0,0,0,191.64,119.94Zm18.07-20.35a5.33,5.33,0,0,1,0-1.6,1.18,1.18,0,0,0-.74-1.27A6.27,6.27,0,0,1,206.69,95c-.21-.25-.41-.52-.83-.29s-.68.38-.59.9a9.83,9.83,0,0,1,0,1.09c0,.68.14.83.8.89.49,0,1,0,1.55,0-.08.42-.16.77-.22,1.12-.12.7-.09.87.58,1a1.54,1.54,0,0,1,1.2,1.39,6.05,6.05,0,0,0,.66,2c1-1.56,1.64-3,1-4.87C210.4,98.61,210.39,99.32,209.71,99.59ZM188,136.5a11.09,11.09,0,0,0,5-2.73c-.11-.13-.15-.21-.2-.22a36.79,36.79,0,0,0-4.46-.17c-.24,0-.37.12-.37.36C187.94,134.62,188,135.51,188,136.5Zm28.38-15.13.07-.07-.13-.06s-.05,0-.07.06Zm-.16-30.24L216.1,91s-.07,0-.06.07a.75.75,0,0,0,.06.13Z"/><path class="cls-1" d="M161.26,124.63c.1.32.19.64.29,1l-1.18.66c-.57.31-.05.37.12.5l-.06.08c-1.34,1-2.9,1.64-4.26,2.6-.26.18-.51,0-.76,0-2.62-.86-5.24-1.75-7.87-2.57-3-1-6.11-1.85-9.17-2.77-.35-.11-.73-.14-1-.46a4.06,4.06,0,0,0-.38-1.53q-2-7-4.1-14.09c-.07-.24,0-.63-.43-.72-.1.3-.21.57-.3.86-1.06,3.4-2.12,6.8-3.3,10.16a26.1,26.1,0,0,0-1.08,3.31,11.12,11.12,0,0,1-2,0l-.2,0-2-.23a20.66,20.66,0,0,0-5.27-.19,5.5,5.5,0,0,0-3.54,1.66,1.83,1.83,0,0,0-.59,1.33,6.12,6.12,0,0,0,1.42,4.24,38.77,38.77,0,0,0,7.87,6.56,57.49,57.49,0,0,0,11.73,5.49c2.85,1,5.72,2,8.51,3.2,1.89.81,3.83,1.53,5.78,2.2.2.07.42.25.65,0-.11-.19-.22-.39-.35-.58q-4.65-6.8-9.31-13.6c-1.41-2.06-2.84-4.11-4.26-6.16.71.15,1.43.28,2.13.46a50,50,0,0,1,5.58,1.74,13.19,13.19,0,0,0,1.37,2.43q5.34,8.81,10.7,17.59a1.61,1.61,0,0,0,.9.72c1.39.48,2.76,1,4.14,1.49.21.07.42.24.69,0-.11-.26-.21-.53-.35-.8-2.41-4.71-4.84-9.42-7.25-14.13-.83-1.63-1.74-3.22-2.48-4.9.45.12.9.23,1.35.37,13,4.14,26.11,8.18,39.1,12.5,6.72,2.23,13.5,4.35,20.2,6.65,6.23,2.15,12.39,4.51,18.61,6.71,2.94,1,6,1.92,9,2.71,1.61.42,3.23.78,4.84,1.19a1.84,1.84,0,0,1-.76.21c-2,.4-4,.53-6,.84a87.23,87.23,0,0,1-23.11.07c-2.94-.34-5.87-.79-8.8-1.18a210.28,210.28,0,0,1-21.59-4c-2.85-.69-5.69-1.44-8.58-1.94-.33,0-.68-.24-1.07,0a2,2,0,0,0,.93.42q4.71,1.37,9.45,2.59a12.93,12.93,0,0,1,2.59.72c0,1-.08,2-.13,3s-.37,1.18-1.23,1.23c-.2,0-.4,0-.6,0h-36c-.87,0-1-.11-1.28-.95-.47-1.42-.92-2.85-1.38-4.27q-.84-2.56-1.7-5.12c-.27-.82-.3-.85-1.11-.85-8,0-15.93,0-23.9,0a.83.83,0,0,0-1,.73c-.72,2.6-1.64,5.14-2.25,7.77a9,9,0,0,1-.57,1.49,1.61,1.61,0,0,1-1.66,1c-2.43,0-4.86,0-7.29.08q-5.79.16-11.58.22c-.7,0-1.39.07-2.09.07-1.6,0-1.88-.4-1.38-2q1.74-5.47,3.49-10.94,1.68-5.23,3.34-10.47l0-.07.09-.3a.67.67,0,0,0,.18-.46v0c.14-.3.3-.59.41-.9q4.75-12.35,9.5-24.69c.66-1.71.66-1.71-1.08-2.35-1.53-1-3.2-1.73-4.78-2.63-.29-.17-.6-.3-.87-.49a1,1,0,0,1-.37-1.46c.36-.49.85-.53,1.48-.1l4.42,3a4.44,4.44,0,0,0,.53.28,6.39,6.39,0,0,0,1.17.9c.32.24.51.19.66-.2.37-1,.76-2,1.13-2.95.77-2,.77-2-1.28-2.87a2.54,2.54,0,0,0-.81-.57L102,98.49a10.29,10.29,0,0,1-1.54-1.1,1.07,1.07,0,0,1-.32-1.57,1.47,1.47,0,0,1,1.72-.85,3.3,3.3,0,0,1,.71.34,25.14,25.14,0,0,1,2.7,1.89c1.7,1.27,3.39,2.56,5.09,3.84a2.51,2.51,0,0,0,.91.59,8.64,8.64,0,0,0,2,1.54l.48-1.16,4.35-11.35L122.56,79c.33,0,.66,0,1,0h21.9c1.38,0,1.68.29,2.16,1.48Z"/><path class="cls-2" d="M187.76,158a12.93,12.93,0,0,0-2.59-.72q-4.74-1.22-9.45-2.59a2,2,0,0,1-.93-.42c.39-.26.74-.07,1.07,0,2.89.5,5.73,1.25,8.58,1.94a210.28,210.28,0,0,0,21.59,4c2.93.39,5.86.84,8.8,1.18a87.23,87.23,0,0,0,23.11-.07c2-.31,4-.44,6-.84a1.84,1.84,0,0,0,.76-.21c.23,0,.46,0,.68.08a.3.3,0,0,0,.42-.28c.54,0,.64.1.49.46a1.37,1.37,0,0,1-.72.66c-.89.52-1.91.74-2.84,1.19-.49.1-1,.17-1.47.31a42.62,42.62,0,0,1-10.65,1.6A88.44,88.44,0,0,1,212.33,163c-2.73-.45-5.48-.76-8.2-1.29-3.76-.73-7.46-1.75-11.19-2.61C191.22,158.67,189.51,158.22,187.76,158Z"/><path class="cls-2" d="M122.56,79l-4.44,11.63L113.77,102l-.48,1.16a8.64,8.64,0,0,1-2-1.54c1.9-5.33,3.38-10.8,5.11-16.19.6-1.87,1.27-3.71,1.89-5.58a1.05,1.05,0,0,1,1.07-.85A31.05,31.05,0,0,1,122.56,79Z"/><path class="cls-2" d="M229.67,79.25l-1.12,16.47-.16,0c-.39-1-.77-2.06-1.17-3.09a28.43,28.43,0,0,0-1.48-3c.09-2.88.33-5.76.21-8.64,0-1.09.41-1.95,1.64-1.8C228.28,79.27,229,79.23,229.67,79.25Z"/><path class="cls-2" d="M108.61,110.26c1.74.64,1.74.64,1.08,2.35Q105,125,100.19,137.3c-.11.31-.27.6-.41.9.36-1.62.94-3.18,1.44-4.76q3.48-11.09,7-22.16C108.33,110.93,108.48,110.6,108.61,110.26Z"/><path class="cls-2" d="M110.7,103.78c2,.86,2,.86,1.28,2.87-.37,1-.76,2-1.13,2.95-.15.39-.34.44-.66.2a6.39,6.39,0,0,1-1.17-.9Z"/><path class="cls-2" d="M160.49,126.75c-.17-.13-.69-.19-.12-.5l1.18-.66,3.9-1.81a48.86,48.86,0,0,1,6.25-2l1.17-.23a.66.66,0,0,1,.79.43,2.87,2.87,0,0,1-.95.27,56,56,0,0,0-5.65,1.64A65.88,65.88,0,0,0,160.49,126.75Z"/><path class="cls-2" d="M99.79,138.18a.67.67,0,0,1-.18.46A.61.61,0,0,1,99.79,138.18Z"/><path class="cls-2" d="M99.52,138.94l0,.07Z"/><path class="cls-3" d="M160.49,126.75a65.88,65.88,0,0,1,6.57-2.86,56,56,0,0,1,5.65-1.64,2.87,2.87,0,0,0,.95-.27c.3,0,.6-.06.89-.11s.58-.16.88-.19c3.73-.39,7.31-1.7,11.09-1.88.89,0,1.79,0,2.69-.09a1.84,1.84,0,0,1,2.09.93c0,.17.07.35.3.38l0,0a18.13,18.13,0,0,0,.89,2,2.6,2.6,0,0,1,.34,1.61A24.69,24.69,0,0,0,188,124a11.84,11.84,0,0,1-4.29-.77.6.6,0,0,1,.13-.81,3,3,0,0,0,.79-1l-4.4.49c0,.47.65.41.53.93a11.47,11.47,0,0,0-3.64.92,49.52,49.52,0,0,1-7.4,2.4,1.52,1.52,0,0,0-.85.37,11.83,11.83,0,0,0,2.86,0,34.59,34.59,0,0,0,6.71-1c.23.11.34.27.08.42a19.61,19.61,0,0,1-3.14,1.74,32.13,32.13,0,0,1-6.42,1.47,46.85,46.85,0,0,0-8.05,1.44l-.61.2a4.88,4.88,0,0,0,1.61.63c.54.17,1.08.32,1.63.48a7.56,7.56,0,0,0,1.91.65c4.12,1.22,8.17,2.64,12.22,4.07l2.64.91a6.17,6.17,0,0,0,2.18.16,23.7,23.7,0,0,0,7.41-1.43,11.13,11.13,0,0,0,4.24-2.76c2.42-2.42,4.75-4.94,7.07-7.47,1.82-2,3.53-4.07,5.55-5.87,1.07-1,2.25-1.76,3.38-2.64a3.36,3.36,0,0,0,1-1.2c.46-1,1-1.86,1.54-2.8a1.36,1.36,0,0,1,1.3-.74,4,4,0,0,1,3.93,2.35,15.06,15.06,0,0,1,1,2.92.85.85,0,0,1-.11.76,9.81,9.81,0,0,1-1.88,2.18c-.18.14-.37.35-.61.15s-.05-.36,0-.54c.2-.6.41-1.2.6-1.8a1.31,1.31,0,0,0,.1-.76,1.53,1.53,0,0,0-1.46,1.07,12,12,0,0,1-2.35,4.37l-.29.26-.24-.29c.05-.52.43-1,.26-1.54-.2-.08-.31.06-.42.18a38.11,38.11,0,0,1-5.33,4.66c-2,1.49-3.91,3.2-5.91,4.74-2.64,2-5.31,4-8,6a11.08,11.08,0,0,1-5.6,2.33c.64.22,1.27.45,1.91.66s1.33.42,2,.62c.3.37.84.3,1.16.63a5.7,5.7,0,0,0,2.1.6l.36,0v0c1.66.77,3.4,1.34,5.12,1.95,3.85,1.36,7.72,2.7,11.55,4.11s8,2.75,12,4.14c4.68,1.62,9.33,3.31,14.07,4.75q2.49.75,5,1.46a10.64,10.64,0,0,1,2.92,1.25.3.3,0,0,1-.42.28c-.22,0-.45-.06-.68-.08-1.61-.41-3.23-.77-4.84-1.19-3-.79-6-1.67-9-2.71-6.22-2.2-12.38-4.56-18.61-6.71-6.7-2.3-13.48-4.42-20.2-6.65-13-4.32-26.06-8.36-39.1-12.5-.45-.14-.9-.25-1.35-.37-1-.33-2-.69-3-1-1.57-.47-3.11-1.08-4.72-1.42a50,50,0,0,0-5.58-1.74c-.7-.18-1.42-.31-2.13-.46-6.86-1.95-13.77-3.52-21-2.29a.47.47,0,0,1,.34-.56,7.33,7.33,0,0,1,2.44-.86,41.35,41.35,0,0,1,5.56-.4l2,.23c.06.1.12.12.2,0a11.12,11.12,0,0,0,2,0c.11.07.22.18.33.19a45.07,45.07,0,0,1,5.76,1.12,18.09,18.09,0,0,0,3.5.7c.25.32.63.35,1,.46,3.06.92,6.12,1.81,9.17,2.77,2.63.82,5.25,1.71,7.87,2.57.25.08.5.21.76,0,1.36-1,2.92-1.6,4.26-2.6Z"/><path class="cls-3" d="M219.42,124.8a2,2,0,0,1,.08-1.17,13.12,13.12,0,0,0-.76-7.73,2.43,2.43,0,0,1-.13-.38.74.74,0,0,1,0-.19c.38-.29.82.12,1.24-.08-.58-.48-1.39-.44-2.07-1.07l2.84-.47v-.12l-7.59-1.29a1.73,1.73,0,0,1,0-1.3,2.73,2.73,0,0,0,.1-1.67,2.36,2.36,0,0,1,0-1.09c.17-.94.34-1.89.53-2.9.7.13,1.24.69,1.94.66.25-.3-.13-.5-.07-.76a.34.34,0,0,0-.17-.46,2.88,2.88,0,0,1-.43-1.13c.08-.29.25-.3.52-.23a3.17,3.17,0,0,0,1.42.32c.81.23,1.54.68,2.37.85.2.08.42.06.44-.16s-.2-.42-.48-.44a8.82,8.82,0,0,1-1.83-1.83.58.58,0,0,0-.5-.58,1.78,1.78,0,0,1-.62-2.17c.14-.4.23-.81.33-1.22.17-.1.22-.21.07-.37,0-.23,0-.47.06-.69A1.05,1.05,0,0,0,216.2,96c-.7-.48-.7-.51-.35-1.33a4.81,4.81,0,0,0,.27-2.83c0-.21-.25-.46,0-.6s.41.18.54.34a9.19,9.19,0,0,1,1.1,1.54.69.69,0,0,0,.32.37c0,.14,0,.39.23.28s0-.27-.12-.37c.12-.27-.3-.54,0-.81v0a16.58,16.58,0,0,1,2.93,2.68,14.35,14.35,0,0,1,3.4,5.47c.5,1.54,1.16,3,1.75,4.57a12,12,0,0,1,.56,6.09,21.67,21.67,0,0,1-3,8.6c-.6,1-1.06,2-1.58,3a1.15,1.15,0,0,0-.4,1.14,3.54,3.54,0,0,1-.65,1.3l-.78,0,0,0C220.24,124.89,219.84,124.83,219.42,124.8Z"/><path class="cls-3" d="M202.78,88.46a.88.88,0,0,1-.76,0,1.21,1.21,0,0,0-1.08-.44.11.11,0,0,1-.13-.08.37.37,0,0,0-.47-.32.11.11,0,0,1-.13-.09.37.37,0,0,0-.45-.33.12.12,0,0,1-.15-.08,1.26,1.26,0,0,0-1.39-.61,1.82,1.82,0,0,1-.8-.09.51.51,0,0,0-.8-.1.47.47,0,0,1-.4-.08.52.52,0,0,0-.81-.12.49.49,0,0,1-.39-.08c-.05-.27-.42-.18-.49-.48a1.85,1.85,0,0,1,2.26-.62,2.19,2.19,0,0,0,1.79.1,4.68,4.68,0,0,1,1.24,0,1,1,0,0,0,.36.13,28.69,28.69,0,0,1,4.15.14c.13,0,.24-.11.28-.24a.41.41,0,0,1,.37,0c.14.29.45.23.68.32s.67.13.74.55a7.79,7.79,0,0,0-2.47.16,1.75,1.75,0,0,0,1.42.26,4.27,4.27,0,0,1,2.87.42c0,.12.08.26.13.22.62-.45,1.1,0,1.63.2s1.12.87,1.86.91a.13.13,0,0,1,.15.09.57.57,0,0,0,.65.51A.49.49,0,0,1,213,89a.36.36,0,0,0,.43.35A10.16,10.16,0,0,1,215,90.74a2.91,2.91,0,0,1,.33,3.94c-.14.19-.31.35-.46.53a8.19,8.19,0,0,1-1.79-1.41,20,20,0,0,0-5.29-3.64c-.19-.09-.48-.13-.42-.49.37-.24.89.06,1.41-.39a4.56,4.56,0,0,1-2.32-.9,2.49,2.49,0,0,0-1.81-.41c-.43-.23-.76,0-1.07.27l-.39.12C203,88.15,202.87,88.25,202.78,88.46Z"/><path class="cls-3" d="M221.65,136.4c-.88-1.79-2-3.46-3-5.2-.39-.69-.39-.69.16-1.35.33,0,.38.34.5.55q3.18,5.31,6.32,10.64c1,1.68,2.08,3.33,3,5.05a13.41,13.41,0,0,0,1.95,2.48,43.2,43.2,0,0,1,5.75,7.37,1.33,1.33,0,0,1,.05.19c-.17.21-.37.09-.55,0-1.8-.58-3.6-1.19-5.41-1.75a1,1,0,0,1-.75-.92c-.21-1.34-.47-2.68-.7-4a2.33,2.33,0,0,0-.22-.86c-1.06-1.77-2-3.64-3.12-5.34-.9-1.59-1.79-3.18-2.72-4.75A12.79,12.79,0,0,0,221.65,136.4Z"/><path class="cls-3" d="M191.64,119.94a1.84,1.84,0,0,1,1.25-.45,68.14,68.14,0,0,1,11.33.87,2.68,2.68,0,0,1,.49.11c.29.13.42.34.16.62-.71.74-1.44,1.48-2.16,2.22a.61.61,0,0,1-.46.14,38.39,38.39,0,0,1-6.06-.38,5.87,5.87,0,0,1-3-1.56C192.68,121,192.19,120.49,191.64,119.94Z"/><path class="cls-2" d="M204.65,88a2.49,2.49,0,0,1,1.81.41,4.56,4.56,0,0,0,2.32.9c-.52.45-1,.15-1.41.39-.06.36.23.4.42.49a20,20,0,0,1,5.29,3.64,8.19,8.19,0,0,0,1.79,1.41,1.91,1.91,0,0,1-2.79.73,26.89,26.89,0,0,1-4.61-3.16,1.42,1.42,0,0,0-1.95-.21,8.93,8.93,0,0,0-3,2.55,2.41,2.41,0,0,1,.81-1.76,8.34,8.34,0,0,1,2-1.42c.37-.19.54-.41.24-.86a6.09,6.09,0,0,1-.65-2c-.08-.36-.18-.71-.27-1.07Z"/><path class="cls-3" d="M193.66,87.82a1.21,1.21,0,0,1,1.42.75c1.87,3.34,3.84,6.62,5.77,9.93s3.91,6.65,5.88,10c.84,1.42,1.64,2.87,2.5,4.29a2.06,2.06,0,0,1,.15,1.93c-.32-.07-.39-.35-.51-.56l-5.26-9.07c-.17-.28-.37-.55-.55-.83s-.27-.6-.44-.88c-1.58-2.73-3.17-5.46-4.74-8.19C196.46,92.71,195.06,90.27,193.66,87.82Z"/><path class="cls-2" d="M178.41,125.56a34.59,34.59,0,0,1-6.71,1,11.83,11.83,0,0,1-2.86,0,1.52,1.52,0,0,1,.85-.37,49.52,49.52,0,0,0,7.4-2.4,11.47,11.47,0,0,1,3.64-.92c.12-.52-.58-.46-.53-.93l4.4-.49a3,3,0,0,1-.79,1,.6.6,0,0,0-.13.81c-1.46.62-3,1.14-4.41,1.83A3.83,3.83,0,0,0,178.41,125.56Z"/><path class="cls-2" d="M215.51,132.88c-1.57,1.88-3.68,2.25-6,2.13a23.76,23.76,0,0,1-5.49-1l.06-.08c1.77-1.21,1.77-1.24,3.85-.91a10.21,10.21,0,0,0,7.3-1.58,13.62,13.62,0,0,0,1.89-1.75c0,.67-.56,1.1-.76,1.68h0l-.16.14C216.18,132.08,215.47,132.27,215.51,132.88Z"/><path class="cls-3" d="M209.71,99.59c.68-.27.69-1,1.19-1.36.63,1.83,0,3.31-1,4.87a6.05,6.05,0,0,1-.66-2,1.54,1.54,0,0,0-1.2-1.39c-.67-.17-.7-.34-.58-1,.06-.35.14-.7.22-1.12-.56,0-1.06,0-1.55,0-.66-.06-.77-.21-.8-.89a9.83,9.83,0,0,0,0-1.09c-.09-.52.21-.7.59-.9s.62,0,.83.29A6.27,6.27,0,0,0,209,96.72a1.18,1.18,0,0,1,.74,1.27A5.33,5.33,0,0,0,209.71,99.59Z"/><path class="cls-2" d="M193.66,87.82c1.4,2.45,2.8,4.89,4.22,7.34,1.57,2.73,3.16,5.46,4.74,8.19.17.28.29.59.44.88-.06.46-.12.92-.17,1.37-1.19-1.83-2.19-3.78-3.3-5.65-.29-.49-.59-1-.88-1.44l-3.81-6.75c-.62-1.1-1.26-2.18-1.88-3.28a1.87,1.87,0,0,1-.35-.8C193.06,87.53,193.34,87.75,193.66,87.82Z"/><path class="cls-2" d="M192.81,124.57a2.6,2.6,0,0,0-.34-1.61,18.13,18.13,0,0,1-.89-2,8.36,8.36,0,0,1,1.92,6.76c-.14.5.06.74.5.89.76.26,1.5.55,2.26.81.4.13.47.32.19.64l-.6.67a.63.63,0,0,1-.71.2l-4.33-1.22s-.07-.08-.11-.13,0-.06.05-.07c1.77-.66,2.36-1.52,2.26-3.39C193,125.63,192.88,125.1,192.81,124.57Z"/><path class="cls-3" d="M198.58,85.06a2.19,2.19,0,0,1-1.79-.1,1.85,1.85,0,0,0-2.26.62c.07.3.44.21.49.48a1.33,1.33,0,0,1-.68-.09c-.58-.18-.65-.14-.7.43a2.55,2.55,0,0,0,0,.39c0,.35-.19.4-.44.26s-.38-.21-.44-.37a4.51,4.51,0,0,0-1.2-1.66c.48-.1.52-.58.72-.9a2.44,2.44,0,0,1,2.19-1.32,1.51,1.51,0,0,0,.3,0c.38,0,.4-.28.3-.57a.72.72,0,0,0-.5-.44,3.79,3.79,0,0,0-2.06,0,2.45,2.45,0,0,1,3.2.47.85.85,0,0,1,.19.65c-.27.58.5.92.27,1.49-.06.13.22.18.37.24C197.21,84.88,197.93,84.84,198.58,85.06Z"/><path class="cls-2" d="M221.65,136.4a12.79,12.79,0,0,1,1.31,2.11c.93,1.57,1.82,3.16,2.72,4.75-.16.5,0,1.05-.23,1.54a15.59,15.59,0,0,1-1.45-2.38c-.83-1.47-1.78-2.87-2.49-4.41C221.56,137.47,221.6,136.94,221.65,136.4Z"/><path class="cls-2" d="M200.43,135.89c-1.59.94-3.24,1.8-4.92,2.6-.27.13-.53.28-.81.39a2.69,2.69,0,0,0-1.94,2.89c-.32-.33-.86-.26-1.16-.63.24-.5.49-1,.73-1.52a2.62,2.62,0,0,1,1.54-1.17c1.39-.62,2.8-1.21,4.22-1.77A9.23,9.23,0,0,1,200.43,135.89Z"/><path class="cls-2" d="M225.84,133.34q0-4.68-.05-9.36c0-.43,0-.86,0-1.29a9.37,9.37,0,0,1,.95-2C226.5,124.92,226.26,129.14,225.84,133.34Z"/><path class="cls-3" d="M192.53,81.76a3.79,3.79,0,0,1,2.06,0,.72.72,0,0,1,.5.44c.1.29.08.53-.3.57a1.51,1.51,0,0,1-.3,0,2.44,2.44,0,0,0-2.19,1.32c-.2.32-.24.8-.72.9h0a.35.35,0,0,0-.32-.43,1.53,1.53,0,0,1-.49-.73c-.11-.44-.11-.84.38-1.07,0,0,0-.11.06-.17h0a1.64,1.64,0,0,0,1-.71Z"/><path class="cls-3" d="M216.4,131.41c.2-.58.75-1,.76-1.68a24.27,24.27,0,0,0,1.42-2.84,2.08,2.08,0,0,1,0,2.29c-.51.79-1.25,1.37-1.82,2.1A.32.32,0,0,1,216.4,131.41Z"/><path class="cls-3" d="M206.4,86c-.07-.42-.44-.44-.74-.55s-.54,0-.68-.32a1.14,1.14,0,0,1,.87.09,29.2,29.2,0,0,1,5.57,2.55c.16.11.36.19.42.4-.74,0-1.21-.65-1.86-.91s-1-.65-1.63-.2c0,0-.14-.1-.13-.22-.4-.27-.75-.64-1.3-.61A.63.63,0,0,1,206.4,86Z"/><path class="cls-2" d="M205.25,102.52c-.53.22-.62-.16-.7-.53-.12-.58-.22-1.16-.33-1.74a2.36,2.36,0,0,0-.54-1.15c1,.13,1.21.33,1.34,1.25C205.11,101.07,205.18,101.8,205.25,102.52Z"/><path class="cls-3" d="M220.45,125.38l.78,0a9.34,9.34,0,0,1-1.51,2.15,7.42,7.42,0,0,1-.56-1.8c.36-.22.69,0,1-.07S220.45,125.56,220.45,125.38Z"/><path class="cls-3" d="M204.61,85.1c0,.13-.15.26-.28.24a28.69,28.69,0,0,0-4.15-.14,1,1,0,0,1-.36-.13A17.08,17.08,0,0,1,204.61,85.1Z"/><path class="cls-4" d="M216.91,103.74a3.17,3.17,0,0,1-1.42-.32c-.27-.07-.44-.06-.52.23-.21-.15-.25-.35-.12-.64A14,14,0,0,1,216.91,103.74Z"/><path class="cls-3" d="M191.21,82.62c0,.06,0,.15-.06.17-.49.23-.49.63-.38,1.07C190.14,83,190.14,83,191.21,82.62Z"/><path class="cls-3" d="M198.22,86.53a1.26,1.26,0,0,1,1.39.61Z"/><path class="cls-3" d="M192.22,81.9a1.64,1.64,0,0,1-1,.71A1.11,1.11,0,0,1,192.22,81.9Z"/><path class="cls-4" d="M219.42,124.8c.42,0,.82.09,1,.56C220.05,125.24,219.64,125.18,219.42,124.8Z"/><path class="cls-3" d="M200.94,88a1.21,1.21,0,0,1,1.08.44A1.32,1.32,0,0,1,200.94,88Z"/><path class="cls-3" d="M204.65,88l.06.07c-.39,0-.72.29-1.13.2C203.89,87.94,204.22,87.74,204.65,88Z"/><path class="cls-4" d="M221.88,124.12a1.15,1.15,0,0,1,.4-1.14A2.51,2.51,0,0,1,221.88,124.12Z"/><path class="cls-4" d="M219.24,104c.28,0,.52.13.48.44s-.24.24-.44.16C219.44,104.38,219.34,104.18,219.24,104Z"/><path class="cls-3" d="M196.62,86.34a.51.51,0,0,1,.8.1A1.06,1.06,0,0,1,196.62,86.34Z"/><path class="cls-3" d="M195.41,86.14a.52.52,0,0,1,.81.12A1.1,1.1,0,0,1,195.41,86.14Z"/><path class="cls-4" d="M216.91,101.58a.58.58,0,0,1,.5.58A.86.86,0,0,1,216.91,101.58Z"/><path class="cls-3" d="M212.64,88.78a.57.57,0,0,1-.65-.51A.83.83,0,0,1,212.64,88.78Z"/><path class="cls-4" d="M215.4,104.78a.34.34,0,0,1,.17.46A.38.38,0,0,1,215.4,104.78Z"/><path class="cls-3" d="M216.69,97.82c.15.16.1.27-.07.37A.28.28,0,0,1,216.69,97.82Z"/><path class="cls-3" d="M200.34,87.64a.37.37,0,0,1,.47.32A.53.53,0,0,1,200.34,87.64Z"/><path class="cls-3" d="M202.78,88.46c.09-.21.21-.31.41-.1A.34.34,0,0,1,202.78,88.46Z"/><path class="cls-3" d="M191.26,84.59a.35.35,0,0,1,.32.43A.49.49,0,0,1,191.26,84.59Z"/><path class="cls-3" d="M199.76,87.22a.37.37,0,0,1,.45.33A.52.52,0,0,1,199.76,87.22Z"/><path class="cls-3" d="M213.42,89.39A.36.36,0,0,1,213,89,.48.48,0,0,1,213.42,89.39Z"/><path class="cls-2" d="M191.6,121c-.23,0-.25-.21-.3-.38A.38.38,0,0,1,191.6,121Z"/><path class="cls-3" d="M216.33,121.37l-.13-.07s.05-.07.07-.06l.13.06Z"/><path class="cls-3" d="M212.91,123.78c-.07.12-.18.22-.29.12s-.05-.28,0-.41Z"/><path class="cls-3" d="M216.17,91.13l-.07.07a.75.75,0,0,1-.06-.13s0,0,.06-.07Z"/><path class="cls-3" d="M218.23,92.55c0,.07-.07.11-.12.07a.42.42,0,0,1,0-.13l.13.09Z"/><path class="cls-4" d="M216.25,131.54l.16-.14C216.42,131.52,216.32,131.51,216.25,131.54Z"/><path class="cls-2" d="M123.58,121.38a41.35,41.35,0,0,0-5.56.4,7.33,7.33,0,0,0-2.44.86.47.47,0,0,0-.34.56c7.21-1.23,14.12.34,21,2.29,1.42,2.05,2.85,4.1,4.26,6.16q4.67,6.79,9.31,13.6c.13.19.24.39.35.58-.23.29-.45.11-.65,0-2-.67-3.89-1.39-5.78-2.2-2.79-1.21-5.66-2.18-8.51-3.2A57.49,57.49,0,0,1,123.47,135a38.77,38.77,0,0,1-7.87-6.56,6.12,6.12,0,0,1-1.42-4.24,1.83,1.83,0,0,1,.59-1.33,5.5,5.5,0,0,1,3.54-1.66A20.66,20.66,0,0,1,123.58,121.38Z"/><path class="cls-2" d="M143.93,127.69c1.61.34,3.15.95,4.72,1.42,1,.3,2,.66,3,1,.74,1.68,1.65,3.27,2.48,4.9,2.41,4.71,4.84,9.42,7.25,14.13.14.27.24.54.35.8-.27.23-.48.06-.69,0-1.38-.5-2.75-1-4.14-1.49a1.61,1.61,0,0,1-.9-.72q-5.34-8.81-10.7-17.59A13.19,13.19,0,0,1,143.93,127.69Z"/><path class="cls-4" d="M125.8,121.63c-.08.1-.14.08-.2,0Z"/><path class="cls-1" d="M194.86,142.37l.36,0Z"/><path class="cls-1" d="M218.24,93.36c.15.1.28.29.12.37s-.2-.14-.23-.28Z"/><path class="cls-1" d="M206.4,86a.63.63,0,0,0,.52.23c.55,0,.9.34,1.3.61a4.27,4.27,0,0,0-2.87-.42,1.75,1.75,0,0,1-1.42-.26A7.79,7.79,0,0,1,206.4,86Z"/><path class="cls-1" d="M196.18,84c-.63-.75-1.12-.75-2.3-.68A1,1,0,0,0,193,84c-.14.37.36.42.42.71-.06.06-.1.16-.14.16-1-.1-.9,0-1,1.3-.32-.38-.87-.16-1-.78.49,0,.55-.55.73-.94a2.52,2.52,0,0,1,3.1-1.54c.29-.32.07-.68.15-1,.66.22.84.46.72,1.27C196,83.47,196.18,83.65,196.18,84Z"/><path class="cls-1" d="M196.15,84.62c.37-.06,1.56.35,2,.06-.47-.14-1.17-.06-1.65-.18-.29-.08-.23-.25-.13-.44a3.07,3.07,0,0,0-2.24,1.08,1.91,1.91,0,0,0-.34,1.49c.14-.19.24-.83.52-.68A2.37,2.37,0,0,1,196.15,84.62Z"/></svg>