<svg id="frames" xmlns="http://www.w3.org/2000/svg" viewBox="0 0 384 216"><defs><style>.cls-1{fill:#0f1b33;}.cls-2{fill:#1b273d;}.cls-3{fill:#fc0101;}.cls-4{fill:#adb1b0;}.cls-5{fill:#fafafa;}.cls-6{fill:#d6d7d0;}</style></defs><path class="cls-1" d="M183,79.08a3.54,3.54,0,0,1-1.11,1.38c-.21.16-.48.31-.46.6,0,.47-.26.85-.34,1.3.78.08.78.07,1.23.59a11.25,11.25,0,0,0,.95.88c.42.38.56.07.73-.23h.21c0,.37.19.62.61.65s1.12.11,1.68.18a.36.36,0,0,0,.4-.22h.36c.19.47.63.51,1.06.59a10.11,10.11,0,0,1,4.56,1.57A5.59,5.59,0,0,0,197,87.6a2.7,2.7,0,0,1,.12,1.46.66.66,0,0,0,.28.77,9.72,9.72,0,0,1,.93.89,22.32,22.32,0,0,0,4,3.24,1.72,1.72,0,0,0,1.09.43A3.81,3.81,0,0,0,206.34,93a1.93,1.93,0,0,1,.6-.67l.31.34a2.08,2.08,0,0,0-.21.21c-.87,1-1,1.53.38,2.45.77.53,1.57,1,2.37,1.48a4.63,4.63,0,0,1,1.08.79c-1.34.11-2.3-.67-3.53-.8a36.13,36.13,0,0,1,2.4,2.82c-1.25-.17-2-1-3-1.27a1,1,0,0,0,0,.83,1.61,1.61,0,0,1-.38,1.89,6.27,6.27,0,0,0-1.64,4,.83.83,0,0,0,.48.86,7.13,7.13,0,0,1,2.22,1.5,2.74,2.74,0,0,0,1.8.93,20.72,20.72,0,0,1,2.86.58c-1.16.47-2.2,0-3.21.24.35.66,1,1,1.43,1.58-.76.1-1.08-.67-1.75-.66.3,1.27.59,2.53.9,3.78a18.49,18.49,0,0,1,.59,5.73c-.45,0-.45.4-.56.71a7.51,7.51,0,0,1-3.79,4.58c-2.14,1-4.4,1.76-6.85,1.12-.42-.11-.85-.14-1.28-.23-1.25-.28-2,.48-2.83,1.24a2.61,2.61,0,0,0,.33.22,11.69,11.69,0,0,0,7.07,1.2,10.41,10.41,0,0,0,6.2-2.92c.16.28.32.56.49.84.64,1.1,1.41,2.12,1.95,3.28a3.68,3.68,0,0,0,0,2.18,37.84,37.84,0,0,1-7.24,1.33c-1.33.15-2.66,0-4,.16a31.88,31.88,0,0,1-4.79.19q-3.14-.18-6.29-.17c-.51,0-.71.17-.69.69,0,.93,0,1.87,0,2.8s-.16.91.92,1.35l.29.1,14.31,5.07c4.48,1.59,9,3.06,13.44,4.8a2,2,0,0,0,1.09.25c-.12-.46-.2-.84-.32-1.21a65.66,65.66,0,0,1-1.88-6.43,9.54,9.54,0,0,0-1.56-3.63,7.37,7.37,0,0,1-.43-.78c.18-.64,0-1.29.14-1.93a20.76,20.76,0,0,1,3.13,6.17c.63,2.6,1.67,5.1,2.48,7.67a1.74,1.74,0,0,0,1.26,1.29c1.9.6,3.77,1.3,5.66,2,.28.1.59.2.84,0s.07-.57,0-.83a14.89,14.89,0,0,0-1.46-2.38,66.21,66.21,0,0,0-5.26-6.88.7.7,0,0,1,.36-.38,32.28,32.28,0,0,1,4.66,5.44,1.81,1.81,0,0,0,.79.86c0-.25,0-.41,0-.58,0-4.69,0-9.38.13-14.07.05-2,0-4.06,0-6.09,0-1.34,0-2.67,0-4,0-.19,0-.42-.25-.47s-.22.08-.3.2a22.51,22.51,0,0,1-6.19,5.56,34.24,34.24,0,0,1-5.57,2.9c-.47.19-.53.4-.33.82a8.8,8.8,0,0,0,1,1.56l-.59.07s-.11-.07-.14-.12L209.69,126c-.13-.23-.28-.45-.42-.68s-.38-.16-.58,0c.23-.77.76-1.41.92-2.21.08-.14.23-.26.2-.46l0,0c.36-.08.5-.41.68-.67.85-1.19,1.67-2.4,2.52-3.59a20.17,20.17,0,0,0,3.14-6.31,20.59,20.59,0,0,0,.94-7.57c-.16-1.69-.51-3.35-.79-5a17.17,17.17,0,0,0-4.17-8.17c-.1-.12-.2-.4-.44-.13l-.21.24c-.49-.55-1-1.1-1.47-1.64-.24-.25-.48-.6-.92-.46s-.16.53-.27.79a1.63,1.63,0,0,1-.11.17l-.45,0c0-.32.08-.63-.27-.9-.53-.39-1-.89-1.49-1.32a18.47,18.47,0,0,0-6.68-3.87c-2.88-.81-5.79-1.5-8.69-2.2a6.73,6.73,0,0,0-3.06-.09l-.61-.24a2.7,2.7,0,0,1-1.23-.11v-.29c-.07-.74-.67-1.27-.77-2,.13,0,.25.11.35,0h2.82a1.72,1.72,0,0,0,.39,0c4.62,0,9.24,0,13.86,0a38.66,38.66,0,0,1,5.15.37.35.35,0,0,0,.42.05A33.88,33.88,0,0,1,216,82.09a25.65,25.65,0,0,1,7.12,4.78,30.92,30.92,0,0,1,2.68,2.93c0,.13.08.22.23.18s.11-.11.07-.2c0-3,0-5.93,0-8.89,0-1.62.05-1.68,1.66-1.68,2.56,0,5.12-.06,7.68,0,5.4.17,10.79,0,16.18.09,4.52.07,9,.07,13.56.07a26.53,26.53,0,0,1,5.4.67,28.52,28.52,0,0,1,4.4,1.5,28.18,28.18,0,0,1,7.74,4.92,26.91,26.91,0,0,1,5.95,7.87A33.73,33.73,0,0,1,290.56,99a2,2,0,0,0,.27,1c.11.52.21,1,.32,1.56a.83.83,0,0,0,.08.62c.09,1.29.31,2.57.33,3.86,0,1.46-.23,2.9-.33,4.35a.8.8,0,0,0-.09.62l-.3,1.39a.39.39,0,0,0-.08.41,31.16,31.16,0,0,1-2.37,6,27.3,27.3,0,0,1-3.62,5.3,28,28,0,0,1-9.75,7.13,25.52,25.52,0,0,1-5.12,1.59,4.34,4.34,0,0,0-.48.14.42.42,0,0,0-.42.06l-2.17.33a3.76,3.76,0,0,0-1.42.08h-16c-1,0-1,0-1,1l-.07,26a7.09,7.09,0,0,1,0,.8,1.29,1.29,0,0,1-1.28,1.24c-.73,0-1.47,0-2.2,0-5.69-.14-11.38,0-17.08-.06h-.59c-1,0-1.11-.18-1.1-1.21s0-2.33,0-3.49a8.3,8.3,0,0,1,1.7-.5A10.55,10.55,0,0,0,231,156c.47-.29.46-.3-.14-.66.28-.22.21-.46,0-.7a2.54,2.54,0,0,0-1-.82,37.71,37.71,0,0,0-4.7-1.93c-4.58-1.44-9.18-2.78-13.74-4.26-5.23-1.7-10.37-3.63-15.51-5.58-3.67-1.4-7.18-3.2-10.91-4.47-1-.34-2-.76-3-1.2a46.11,46.11,0,0,0-5-2.08c-3.54-1.09-7-2.5-10.41-3.81-3.64-1.38-7.23-2.91-10.85-4.34s-7.38-2.87-11.08-4.28c-1.34-.51-2.71-.93-4.06-1.39a88.64,88.64,0,0,0-14.12-4,65.76,65.76,0,0,0-12.84-.93,8.75,8.75,0,0,0-4.42,1c-.72-.29-.9-.25-1.13.4a4.47,4.47,0,0,0,.22,3.58,8.91,8.91,0,0,0,2.3,2.85c2,1.75,4.19,3.28,6.34,4.85a8,8,0,0,0,.94.55c1.9,1,3.82,2,5.69,3.12a81.41,81.41,0,0,0,8.07,4.36c3.87,1.7,7.66,3.57,11.66,5a2.7,2.7,0,0,0,1.25.33,1.77,1.77,0,0,0-.47-1c-2.88-4.52-5.92-8.94-9-13.35q-2.84-4.11-5.65-8.24a21.87,21.87,0,0,1,3.59.78,38.34,38.34,0,0,1,5.13,1.55c0,.09.06.19.11.28C142.55,129,147,136.26,151,143.78a1.5,1.5,0,0,0,.79.72c1.42.57,2.83,1.16,4.25,1.74a.33.33,0,0,0,.43,0c-.12-.3-.24-.63-.37-1-1.3-3.25-2.93-6.34-4.41-9.51q-2.73-5.82-5.48-11.65c.23.07.45.13.67.21,3.72,1.36,7.4,2.81,11.14,4.12,5.72,2,11.19,4.64,16.89,6.72,4.31,1.57,8.46,3.58,12.76,5.21q11.67,4.42,23.53,8.33c4.49,1.48,9.06,2.7,13.52,4.28a41.7,41.7,0,0,1,6,2.37,117.77,117.77,0,0,1-17.67,1.74,47.31,47.31,0,0,1-5.19.08c-2.1-.17-4.19-.33-6.27-.54q-5.37-.53-10.71-1.33l-.75-.08a4.19,4.19,0,0,0-1.6-.36l-.4-.05c-.26-.1-.48-.07-.51.25s0,.53,0,.8c0,1.6,0,3.2,0,4.8,0,1.37-.22,1.57-1.57,1.57H150.19c-1.54,0-1.49,0-1.93-1.55-.4-1.38-1-2.71-1.41-4.07-.55-1.65-1.09-3.3-1.6-5a.75.75,0,0,0-.84-.63c-1,0-2.07,0-3.1,0H120.92c-.26,0-.53,0-.8,0a.53.53,0,0,0-.57.43q-1,3.27-2,6.52c-.32,1-.64,2.09-1,3.12a1.28,1.28,0,0,1-1.35.93c-1.27,0-2.53,0-3.8.05-3.29.08-6.58.09-9.88.14-2.63.05-5.25.13-7.88.17-.48,0-1,.1-1.22-.57a.81.81,0,0,1,0-.27v-.18l0-.08,25.81-81.41c.18-.63.57-.73,1-.84a3.26,3.26,0,0,1,.7,0h25.35c1.25,0,1.48.15,1.85,1.32l9.64,31,1.38,4.44c-1,.34-2,.67-3,1-1.16.43-2.23,1-3.54,1.68.7.18,1.16,0,1.6.14a45.74,45.74,0,0,1-6.88,3c1.32.55,2.46,1,3.59,1.49a1.78,1.78,0,0,0,1.43,0,11.15,11.15,0,0,1,3.36-.93c1.8-.11,3.58-.33,5.36-.52a32.68,32.68,0,0,0,4.91-.92,1.15,1.15,0,0,0,.89-.55h-2.38a2.73,2.73,0,0,1,1.13-.36,41.26,41.26,0,0,0,8-2.64,2.39,2.39,0,0,0,1.82.22,7.2,7.2,0,0,1,3.53-.3,20.3,20.3,0,0,0,5.45,0,6.15,6.15,0,0,1-4,4.52c.1.09.12.13.15.14a42.06,42.06,0,0,0,7.75,1.78.74.74,0,0,0,.79-.3c.26-.36.65-.65.78-1a.5.5,0,0,0-.48-.27c-1,0-2-.34-3-.41a4.22,4.22,0,0,1-1.63-.45c-.63-.32-.64-.33-.29-1a6.41,6.41,0,0,0,.55-6.1c-.08-.16-.22-.37.07-.49a2.8,2.8,0,0,1,1,1.42,3.81,3.81,0,0,0,3,2.09,10.29,10.29,0,0,0,3.67.1,4.66,4.66,0,0,0,2.66-1,22.47,22.47,0,0,0,2-2.54,58.41,58.41,0,0,0-12.62-1c0,.4.44.58.32,1-.33.24-.37-.1-.47-.25a2.64,2.64,0,0,0-.92-1c-.33-.18-.51-.08-.41.33-.76,0-1.52.09-2.28.1a27.49,27.49,0,0,0-7.59,1.11,5.48,5.48,0,0,1-2,.25,5.94,5.94,0,0,0-2.73.48,11.8,11.8,0,0,1-3.89.81l-2.1-.39a9.43,9.43,0,0,1,1.06-.2c1.26-.21,2.42-.35,2.42-.35.15,0,.24-.05.23-.22.13-2,.1-4,.1-6q0-13.65,0-27.29c0-.23,0-.47,0-.7,0-.9.13-1.14,1-1.19l15.67.13h.76m18.49,15.61c-.07-.19-.21-.37-.39-.31s-.09.24,0,.36a8.09,8.09,0,0,0,.64,2.33c.69-.72.79-1.28.32-1.86A4.22,4.22,0,0,0,201.43,94.78Zm-16.81,36.49,0-.25a10,10,0,0,1,1.87-1.14c2.78-1.5,5.47-3.15,8.09-4.92a13.19,13.19,0,0,0,2.71-2.34,47.6,47.6,0,0,0,5.88-8.28c.1-.18.1-.48.48-.47a8.33,8.33,0,0,1-.36,2.33.84.84,0,0,0-.18.71,1.12,1.12,0,0,0,.52-.7,14.48,14.48,0,0,0,2.29-3.84.87.87,0,0,1,1.31-.42c.46.3.08.63,0,1,0,.06-.06.11-.09.18-.48,1.1-1.21,2.07-1.73,3.15-.13.27-.39.54-.18,1a8.17,8.17,0,0,0,3.41-3.43.66.66,0,0,0,0-.48,47,47,0,0,0-1.25-4.94,1.28,1.28,0,0,0-.46-.75,8,8,0,0,0-3.62-1.58,1.12,1.12,0,0,0-1.25.76,16.51,16.51,0,0,1-2.35,3.93c-.62.78-1.3,1.52-1.88,2.33-1.92,2.65-4.17,5-6.3,7.48-2.27,2.63-4.71,5.08-7.2,7.49a9,9,0,0,1-4.48,2.63c-2,.43-4,1.11-6.28,1.45,2.88,1.31,5.8,2.13,8.59,3.29,1,.49,1.09.46,1.14-.66v-.09c0-1.88-.16-1.58,1.63-2.55.47-.25,1-.46,1.44-.7l4.43-2.2a1.13,1.13,0,0,0,.64-.54l-1.6.64C188.09,130,186.39,130.7,184.62,131.27Zm9.62-32.77c-.2,0-.26.3-.45.3-1.06-1.37-1.86-2.91-2.78-4.37-1.79-2.88-3.55-5.78-5.34-8.67-.41-.67-.42-.66-1.12-.33a1.19,1.19,0,0,0-1.13.07c0,.35.21.57.37.82,1.2,2,2.43,4,3.63,6s2.64,4.14,3.81,6.31l-2.29,0c-.93,0-.94,0-.94.92v9c0,.93,0,1.86-.08,2.79,0,.42.15.59.58.61,2.19.11,4.35.57,6.53.82s2.13.27,3.31-1.55a1,1,0,0,0,0-1.26c-.75-1.14-1.46-2.3-2.17-3.47-1.29-2.13-2.68-4.2-3.89-6.38l.29-1.52c.19.28.38.54.56.82,1.92,3.13,3.83,6.27,5.76,9.4.13.21.19.49.48.59a1,1,0,0,0,.41-.95A.63.63,0,0,1,200,108c.24,0,.32-.2.4-.39a5.22,5.22,0,0,0,.36-2.25,8.52,8.52,0,0,1,.86-4.54,5.7,5.7,0,0,0,.53-1.5c.12-.6-.19-1-.76-.83a5.09,5.09,0,0,1-2.71,0l-4.45,0m74.2,7.49a1.82,1.82,0,0,0-.36-1.6,8.51,8.51,0,0,0-7.93-5.76c-3.56,0-7.13,0-10.69,0-.88,0-.89,0-.89.86q-.06,7.16-.1,14.29c0,1.58,0,1.59,1.63,1.61,3.36,0,6.73,0,10.09.09a5.31,5.31,0,0,0,1.38-.15A9.1,9.1,0,0,0,268.44,106Zm-135.89.74c-.12.11-.16.13-.17.16-.91,3-1.81,6-2.72,9-.11.36,0,.48.37.54.52.1,1,.2,1.56.33,1.32.3,2.63.62,4.13,1C134.65,114,133.61,110.39,132.55,106.73ZM160.4,123a21.79,21.79,0,0,1,.83,2.75,2.87,2.87,0,0,0,2.53,2.61c.53.1,1,.52,1.68.41,0-1.8,0-3.55,0-5.31,0-.29,0-.53-.42-.51C163.53,123,162,122.82,160.4,123ZM196,93.17a5.2,5.2,0,0,1,.62,1.94c.05.36.08.72.13,1.09,0,.2.08.42.34.42s.29-.23.28-.43c0-.67-.1-1.33-.18-2S196.7,93.27,196,93.17Zm4.75,1a2,2,0,0,0-.82-1c-.12-.1-.27-.23-.42,0a.39.39,0,0,0,0,.46C199.75,94,200.17,94.06,200.7,94.2Zm-3.08-2.92c-.11,0-.17.1-.15.2a.32.32,0,0,0,.27.24.14.14,0,0,0,.18-.15A.28.28,0,0,0,197.62,91.28Z"/><path class="cls-2" d="M224.77,17.75a29.76,29.76,0,0,1,6.66-2.45,33.48,33.48,0,0,1,18.53.9,15.71,15.71,0,0,1,7.71,5.31,8.26,8.26,0,0,1,1.75,6.83,11.9,11.9,0,0,1-2.75,5.43,20.79,20.79,0,0,1-8.3,5.55,39.41,39.41,0,0,1-7.08,2,3.87,3.87,0,0,1-1.59.09c-.18,0-.44,0-.47-.27s.22-.29.41-.33c.62-.13,1.23-.27,1.85-.38a21.38,21.38,0,0,0,4.59-1.33,22.89,22.89,0,0,0,6.38-3.62A19.8,19.8,0,0,0,255.8,32a6.91,6.91,0,0,0,.69-1.52,8.77,8.77,0,0,0,.82-2.71,8.52,8.52,0,0,0-1.76-5.64,10.32,10.32,0,0,0-3.56-3,26.85,26.85,0,0,0-3.36-1.76,30.67,30.67,0,0,0-13.23-1.67,48.79,48.79,0,0,0-8.14,1.49c-.63.16-1.19.52-1.84.64A.68.68,0,0,1,224.77,17.75Z"/><path class="cls-3" d="M190.2,155.19l.53.06a4.17,4.17,0,0,0,.62.08c3.56.53,6.73.92,10.31,1.27,2.08.21,4.17.37,6.27.54a47.31,47.31,0,0,0,5.19-.08,117.77,117.77,0,0,0,17.67-1.74l0,0,0,0c.6.36.61.37.14.66a10.55,10.55,0,0,1-3.12,1.19,8.3,8.3,0,0,0-1.7.5,11.88,11.88,0,0,0-2,.46.32.32,0,0,0-.36.07c-3.73.67-7.5.38-11.26.38a4.53,4.53,0,0,0-1.76,0,15.33,15.33,0,0,0-2.44-.18.29.29,0,0,0-.36,0l-2.24-.35a.28.28,0,0,0-.36,0c-2.68-.45-5.37-.88-8-1.36-1.17-.22-2.33-.48-3.51-.66C191.89,155.63,190.2,155.19,190.2,155.19Z"/><path class="cls-2" d="M68.3,60.09c-.39.23-.62,0-.89-.21l-2.25-1.6C64,57.43,62.63,56.85,61.45,56c-1-.72-2.12-1.25-3.11-2a26.41,26.41,0,0,1-2.57-1.92,7,7,0,0,0-1.26-.92,1.62,1.62,0,0,1-.72-.77c-.21-.39-.33-.8,0-1.11a1.13,1.13,0,0,1,1.11-.24,7.76,7.76,0,0,1,2.73,1.35,86,86,0,0,1,7.2,6.16c1,.95,2,1.92,3,2.89A1.86,1.86,0,0,1,68.3,60.09Z"/><path class="cls-2" d="M210.17,14.09a5.16,5.16,0,0,1,1.35.35c.69.26.84.61.4,1.2a6,6,0,0,1-2.1,1.8,31.27,31.27,0,0,1-5.26,2.08,40.49,40.49,0,0,0-5.27,1.82c-.12.05-.24.12-.36.16-.39.11-.89.28-1.09-.12s.3-.6.59-.86a60.56,60.56,0,0,1,5.79-4,16.34,16.34,0,0,1,5.46-2.37C209.84,14.13,210,14.12,210.17,14.09Zm-8.6,5.48c.08,0,.15.06.21,0A33.52,33.52,0,0,0,209,16.84a4.33,4.33,0,0,0,1.4-1.26c.13-.18.3-.4.17-.63s-.42-.18-.63-.12a11.75,11.75,0,0,0-1.42.46,38,38,0,0,0-6.92,4.1S201.59,19.45,201.57,19.57Zm-.34.19.15-.07s0-.07,0-.07l-.16.07Z"/><path class="cls-2" d="M233.07,51.24a73.58,73.58,0,0,1,9.73-.61,14.77,14.77,0,0,1,3,.33,4.8,4.8,0,0,1,1.12.39.84.84,0,0,1,.5.81c0,.42-.38.53-.7.6a8.83,8.83,0,0,1-2.18.15,25.14,25.14,0,0,1-4-.56,28.34,28.34,0,0,0-6.42-.72,1.32,1.32,0,0,1-1-.23A.19.19,0,0,0,233.07,51.24Z"/><path class="cls-2" d="M291,99c-.18-3.35-.66-6.67-1.13-10a3.78,3.78,0,0,1-.07-.89c.07-.66.28-1,.68-1a1.25,1.25,0,0,1,1.33.86,6.25,6.25,0,0,1,.2,1.77,26.94,26.94,0,0,1-.84,9.29A.33.33,0,0,0,291,99Z"/><path class="cls-2" d="M59.36,75.94c-.18.51-.54.45-.9.39A26.75,26.75,0,0,0,54.09,76c-2.52,0-5-.36-7.55-.14-.34,0-.77,0-.89-.3s.29-.6.57-.83a1.49,1.49,0,0,1,.93-.29,12.19,12.19,0,0,1,2.49,0c2.86.38,5.73.77,8.59,1.17A2.93,2.93,0,0,1,59.36,75.94Z"/><path class="cls-2" d="M269,65.8a8.79,8.79,0,0,0-1.52.72c-1.18.65-2.31,1.41-3.5,2s-1.42.85-2.5,1.57c-.18.09-1.35.79-1.24,1,.36.13.78-.13,1.39-.3.86-.35,1.24-.43,2-.75l2.18-.83c.27-.14,1-.51,1.43-.69a9,9,0,0,0,2.29-1.33.74.74,0,0,0,.25-1A.7.7,0,0,0,269,65.8Z"/><path class="cls-2" d="M246.38,69.63c1,.17.78,1.08-.1,1.74-.6.45-1.23.86-1.87,1.26s-1.61.9-2.39,1.39a15.17,15.17,0,0,1-3.11,1.27c0-.14.57-.75,1.27-1.45,1.48-1.27,2-1.69,3.29-2.71l.94-.71S245.72,69.52,246.38,69.63Z"/><path class="cls-2" d="M91.19,73.38a1.1,1.1,0,0,1,.93.66c.88,1.45,2,2.76,2.91,4.15.35.52.74,1,1.1,1.54a5.87,5.87,0,0,1,.37.59.34.34,0,0,1,0,.45c-.15.14-.3.08-.45,0l-.07-.07c-1.89-1.87-3.79-3.74-5.67-5.62A.82.82,0,0,1,90.11,74,1.25,1.25,0,0,1,91.19,73.38Z"/><path class="cls-2" d="M217.43,70.85c-1.26,1-2.63,1.86-3.82,3a11.85,11.85,0,0,0-1.26,1.3,14.33,14.33,0,0,0,3.24-1.53,33.94,33.94,0,0,0,6-3.77.6.6,0,0,0,.07-.64.69.69,0,0,0-.33-.32A2,2,0,0,0,220,69,15.9,15.9,0,0,0,217.43,70.85Z"/><path class="cls-2" d="M115.23,15.92c.2-2.19.39-4.38.59-6.56a.93.93,0,0,1,.38-.78,1,1,0,0,1,1,0c.29.16.2.47.16.72-.37,2.26-.75,4.53-1.12,6.79-.06.41-.1.86-.67.76S115.32,16.23,115.23,15.92Z"/><path class="cls-3" d="M163.83,115.37c-.32.07-.64.16-1,.21a33.48,33.48,0,0,0-5.11,1.27c-1.54.53-3,1.15-4.54,1.76-.44-.19-.9,0-1.6-.14,1.31-.63,2.38-1.25,3.54-1.68,1-.36,2-.69,3-1l3-.7.23,0,.3,0"/><path class="cls-2" d="M148.63,26.53a1.47,1.47,0,0,1,.41-1,27.63,27.63,0,0,1,2.12-3A4,4,0,0,1,153.52,21c.39-.05.86-.14,1.07.28s-.1.69-.34,1a.86.86,0,0,1-.13.14A55.07,55.07,0,0,1,148.63,26.53Zm2.88-3.18c-.16.17-.6.56-.59.75a4.63,4.63,0,0,0,1-.72l1.24-1.15s.16-.15.07-.22a.27.27,0,0,0-.36.08A9.08,9.08,0,0,0,151.51,23.35Z"/><path class="cls-2" d="M88.12,57.06c0,.21-.39.39-.53.23-.35-.39-.86-.56-1.22-1a6.82,6.82,0,0,0-1.71-1.49,3.79,3.79,0,0,1-1-1c-.62-.8-1.43-1.43-2-2.29-.12-.18-.39-.32-.23-.59s.42-.26.69-.11a3.19,3.19,0,0,1,.93.52c1.19,1.24,2.43,2.44,3.63,3.68.5.52.76,1.23,1.32,1.72C88.07,56.86,88.09,57,88.12,57.06Z"/><path class="cls-2" d="M290,83.38s-.12-.08-.13-.13c-.33-2-1-3.83-1.47-5.76a5.35,5.35,0,0,1-.17-.87c0-.33,0-.69.38-.84a1,1,0,0,1,1.14.38,2.4,2.4,0,0,1,.27.75,24.82,24.82,0,0,1,.16,6.27A.2.2,0,0,1,290,83.38Z"/><path class="cls-2" d="M213.81,45c-.23.32-.59.35-.93.44-2.29.57-4.58,1.13-6.87,1.72a17.6,17.6,0,0,1-2.27.59c-.13,0-.26.07-.39.07-.32,0-.8.18-.87-.2s.46-.41.74-.49c3.26-.94,6.59-1.59,9.91-2.27C213.34,44.77,213.58,44.67,213.81,45Z"/><path class="cls-2" d="M141.92,68a.48.48,0,0,1,0-.52A11.83,11.83,0,0,1,144.4,64a2,2,0,0,1,1-.58c.2,0,.41,0,.52.18s0,.31-.11.45a17.26,17.26,0,0,1-2.16,2.59A4.5,4.5,0,0,1,141.92,68Z"/><path class="cls-2" d="M157.84,74.87c.17-.16.42-.29.24-.56a.71.71,0,0,0-.76-.35,1.65,1.65,0,0,0-.54.25,6.06,6.06,0,0,0-1.54,1.21,4.91,4.91,0,0,0-1.15,1.93A28.12,28.12,0,0,0,157.84,74.87Z"/><path class="cls-2" d="M161.79,80.62l.19.19.06.4a6.13,6.13,0,0,1-1.5,1.33,5.13,5.13,0,0,1-.87.54c-.25,0-.81.31-1,0s.49-.92.63-1.1a3.7,3.7,0,0,1,1.14-1c.25-.17.5-.32.75-.48Z"/><path class="cls-2" d="M185.81,79.2a.34.34,0,0,1-.32.13c-.05-.08-.18-.29-.22-.38-.32-.69-.32-.7-1-.45a5.58,5.58,0,0,0-1.43.7c-.23,0-.44,0-.67,0,.4-1,1.48-1.06,2.26-1.3S185.52,78.62,185.81,79.2Z"/><path class="cls-2" d="M163.35,91.22c.61-.63.77-1.45,1.6-1.68C165.22,90.93,165,91.24,163.35,91.22Z"/><path class="cls-4" d="M290.56,99l.46,0a.33.33,0,0,1,.17,0"/><path class="cls-4" d="M223.83,158.21a.32.32,0,0,1,.36-.07C224.11,158.34,224,158.42,223.83,158.21Z"/><path class="cls-4" d="M225.8,89.8l.3,0"/><path class="cls-4" d="M233.07,51.24a.19.19,0,0,1-.07.16c-.08,0-.13-.06-.1-.13S233,51.25,233.07,51.24Z"/><path class="cls-3" d="M129.47,119q2.82,4.13,5.65,8.24c3,4.41,6.08,8.83,9,13.35a1.77,1.77,0,0,1,.47,1,2.7,2.7,0,0,1-1.25-.33c-4-1.41-7.79-3.28-11.66-5a81.41,81.41,0,0,1-8.07-4.36c-1.87-1.08-3.79-2.09-5.69-3.12a8,8,0,0,1-.94-.55c-2.15-1.57-4.33-3.1-6.34-4.85a8.91,8.91,0,0,1-2.3-2.85,4.47,4.47,0,0,1-.22-3.58c.23-.65.41-.69,1.13-.4.07.34.22.57.61.42a8,8,0,0,1,2.87-.23,59,59,0,0,1,11.7,1.21C126.08,118.34,127.81,118.52,129.47,119Z"/><path class="cls-5" d="M208.69,90.24a1.63,1.63,0,0,0,.11-.17c.11-.26-.11-.65.27-.79s.68.21.92.46c.5.54,1,1.09,1.47,1.64.06-.08.28,0,.3.25.17-.13.05-.34-.09-.49.24-.27.34,0,.44.13a17.17,17.17,0,0,1,4.17,8.17c.28,1.67.63,3.33.79,5a20.59,20.59,0,0,1-.94,7.57,20.17,20.17,0,0,1-3.14,6.31c-.85,1.19-1.67,2.4-2.52,3.59-.18.26-.32.59-.68.67a9.93,9.93,0,0,0,.33-3,18.49,18.49,0,0,0-.59-5.73c-.31-1.25-.6-2.51-.9-3.78.67,0,1,.76,1.75.66-.44-.62-1.08-.92-1.43-1.58,1-.22,2.05.23,3.21-.24a20.72,20.72,0,0,0-2.86-.58,2.74,2.74,0,0,1-1.8-.93,7.13,7.13,0,0,0-2.22-1.5.83.83,0,0,1-.48-.86,6.27,6.27,0,0,1,1.64-4,1.61,1.61,0,0,0,.38-1.89,1,1,0,0,1,0-.83c1,.27,1.7,1.1,3,1.27a36.13,36.13,0,0,0-2.4-2.82c1.23.13,2.19.91,3.53.8a4.63,4.63,0,0,0-1.08-.79c-.8-.48-1.6-.95-2.37-1.48-1.35-.92-1.25-1.43-.38-2.45a2.08,2.08,0,0,1,.21-.21A7.23,7.23,0,0,0,208.69,90.24Z"/><path class="cls-5" d="M203.27,116.2a8.33,8.33,0,0,0,.36-2.33c-.38,0-.38.29-.48.47a47.6,47.6,0,0,1-5.88,8.28,13.19,13.19,0,0,1-2.71,2.34c-2.62,1.77-5.31,3.42-8.09,4.92A10,10,0,0,0,184.6,131a2.88,2.88,0,0,0-1.23.89,3,3,0,0,0-1.22,3,2.12,2.12,0,0,1,0,.5c-2.79-1.16-5.71-2-8.59-3.29,2.23-.34,4.23-1,6.28-1.45A9,9,0,0,0,184.3,128c2.49-2.41,4.93-4.86,7.2-7.49,2.13-2.46,4.38-4.83,6.3-7.48.58-.81,1.26-1.55,1.88-2.33a16.51,16.51,0,0,0,2.35-3.93,1.12,1.12,0,0,1,1.25-.76,8,8,0,0,1,3.62,1.58,1.28,1.28,0,0,1,.46.75,47,47,0,0,1,1.25,4.94.66.66,0,0,1,0,.48,8.17,8.17,0,0,1-3.41,3.43c-.21-.41,0-.68.18-1,.52-1.08,1.25-2,1.73-3.15,0-.07.07-.12.09-.18.11-.32.49-.65,0-1a.87.87,0,0,0-1.31.42,14.48,14.48,0,0,1-2.29,3.84Z"/><path class="cls-5" d="M129.47,119c-1.66-.5-3.39-.68-5.08-1a59,59,0,0,0-11.7-1.21,8,8,0,0,0-2.87.23c-.39.15-.54-.08-.61-.42a8.75,8.75,0,0,1,4.42-1,65.76,65.76,0,0,1,12.84.93,88.64,88.64,0,0,1,14.12,4c1.35.46,2.72.88,4.06,1.39q5.55,2.11,11.08,4.28c3.62,1.43,7.21,3,10.85,4.34,3.45,1.31,6.87,2.72,10.41,3.81a46.11,46.11,0,0,1,5,2.08c1,.44,2,.86,3,1.2,3.73,1.27,7.24,3.07,10.91,4.47,5.14,2,10.28,3.88,15.51,5.58,4.56,1.48,9.16,2.82,13.74,4.26a37.71,37.71,0,0,1,4.7,1.93,2.54,2.54,0,0,1,1,.82c.18.24.25.48,0,.7l0,0,0,0a41.7,41.7,0,0,0-6-2.37c-4.46-1.58-9-2.8-13.52-4.28q-11.85-3.91-23.53-8.33c-4.3-1.63-8.45-3.64-12.76-5.21-5.7-2.08-11.17-4.71-16.89-6.72-3.74-1.31-7.42-2.76-11.14-4.12-.22-.08-.44-.14-.67-.21a17.07,17.07,0,0,0-2.49-1,57.18,57.18,0,0,0-5.57-1.77,38.34,38.34,0,0,0-5.13-1.55A21.87,21.87,0,0,0,129.47,119Z"/><path class="cls-5" d="M153.21,118.61c1.51-.61,3-1.23,4.54-1.76a33.48,33.48,0,0,1,5.11-1.27c.33,0,.65-.14,1-.21a11.8,11.8,0,0,0,3.89-.81,5.94,5.94,0,0,1,2.73-.48,5.48,5.48,0,0,0,2-.25,27.49,27.49,0,0,1,7.59-1.11c.76,0,1.52-.07,2.28-.1a5,5,0,0,1,1.16,4.54,20.3,20.3,0,0,1-5.45,0,7.2,7.2,0,0,0-3.53.3,2.39,2.39,0,0,1-1.82-.22,2.43,2.43,0,0,1,.1-2c-1.69,1.35-3.65,1.42-5.74,1.39l.3.38c.52.48.48.77-.17,1a3.85,3.85,0,0,1-1,.23c-1.48.22-3,.41-4.44.61a39,39,0,0,0-6.12,1.38c-.28.09-.64.11-.78.49.36.22.68.07,1,0,.59,0,1.19-.13,1.78-.17l5.87-.34h2.38a1.15,1.15,0,0,1-.89.55,32.68,32.68,0,0,1-4.91.92c-1.78.19-3.56.41-5.36.52a11.15,11.15,0,0,0-3.36.93,1.78,1.78,0,0,1-1.43,0c-1.13-.49-2.27-.94-3.59-1.49A45.74,45.74,0,0,0,153.21,118.61Z"/><path class="cls-3" d="M138.19,121.35a57.18,57.18,0,0,1,5.57,1.77,17.07,17.07,0,0,1,2.49,1q2.75,5.82,5.48,11.65c1.48,3.17,3.11,6.26,4.41,9.51.13.33.25.66.37,1a.33.33,0,0,1-.43,0c-1.42-.58-2.83-1.17-4.25-1.74a1.5,1.5,0,0,1-.79-.72c-4-7.52-8.49-14.77-12.74-22.15C138.25,121.54,138.23,121.44,138.19,121.35Z"/><path class="cls-5" d="M197,87.6a5.59,5.59,0,0,1-4.18-1.24,10.11,10.11,0,0,0-4.56-1.57c-.43-.08-.87-.12-1.06-.59a3.82,3.82,0,0,1,.17-1.81l0,0,.66-.59a6.73,6.73,0,0,1,3.06.09c2.9.7,5.81,1.39,8.69,2.2A18.47,18.47,0,0,1,206.48,88c.51.43,1,.93,1.49,1.32.35.27.24.58.27.9a17.42,17.42,0,0,1-1.3,2.16,1.93,1.93,0,0,0-.6.67,2.67,2.67,0,0,1-1.55-.56c-1.34-.85-2.59-1.85-4-2.57a4.13,4.13,0,0,1-.8-.59c-.26-.23-.28-.39.11-.56s.83,0,1.32-.33a11.18,11.18,0,0,0-3.8-1A1.5,1.5,0,0,0,197,87.6Zm-1.31-3.1c1.28,0,2.53.59,3.92.26A5.49,5.49,0,0,0,195.73,84.5Z"/><path class="cls-5" d="M208.69,125.25c.2-.12.41-.25.58,0s.29.45.42.68L214,133.1c0,.05.1.08.14.12a44.08,44.08,0,0,0,3.34,5.19,25.62,25.62,0,0,0,2.91,3,66.21,66.21,0,0,1,5.26,6.88,14.89,14.89,0,0,1,1.46,2.38c.12.26.32.56,0,.83s-.56.14-.84,0c-1.89-.66-3.76-1.36-5.66-2a1.74,1.74,0,0,1-1.26-1.29c-.81-2.57-1.85-5.07-2.48-7.67a20.76,20.76,0,0,0-3.13-6.17,49.74,49.74,0,0,0-3-4.77c-.54-1.16-1.31-2.18-1.95-3.28-.17-.28-.33-.56-.49-.84Z"/><path class="cls-5" d="M184.09,113.55c.12-.37-.31-.55-.32-1a58.41,58.41,0,0,1,12.62,1,22.47,22.47,0,0,1-2,2.54,4.66,4.66,0,0,1-2.66,1,10.29,10.29,0,0,1-3.67-.1,3.81,3.81,0,0,1-3-2.09,2.73,2.73,0,0,0-1-1.41Z"/><path class="cls-3" d="M208.69,125.25l-.28.3a10.41,10.41,0,0,1-6.2,2.92,11.69,11.69,0,0,1-7.07-1.2,2.61,2.61,0,0,1-.33-.22c.83-.76,1.58-1.52,2.83-1.24.43.09.86.12,1.28.23,2.45.64,4.71-.08,6.85-1.12a7.51,7.51,0,0,0,3.79-4.58c.11-.31.11-.68.56-.71a9.93,9.93,0,0,1-.33,3l0,0c-.21.09-.12.32-.2.46C209.45,123.84,208.92,124.48,208.69,125.25Z"/><path class="cls-3" d="M163.49,120.23l-5.87.34c-.59,0-1.19.12-1.78.17-.32,0-.64.18-1,0,.14-.38.5-.4.78-.49a39,39,0,0,1,6.12-1.38c1.48-.2,3-.39,4.44-.61a3.85,3.85,0,0,0,1-.23c.65-.27.69-.56.17-1l-.3-.38c2.09,0,4.05,0,5.74-1.39a2.43,2.43,0,0,0-.1,2,41.26,41.26,0,0,1-8,2.64A2.73,2.73,0,0,0,163.49,120.23Z"/><path class="cls-3" d="M183.45,117.16a5,5,0,0,0-1.16-4.54c-.1-.41.08-.51.41-.33a2.64,2.64,0,0,1,.92,1c.1.15.14.49.47.25v0c-.29.11-.15.32-.07.48a6.41,6.41,0,0,1-.55,6.1c-.35.63-.34.64.29,1a4.22,4.22,0,0,0,1.63.45c1,.07,2,.42,3,.41a.5.5,0,0,1,.48.27c-.13.4-.52.69-.78,1a.74.74,0,0,1-.79.3,42.06,42.06,0,0,1-7.75-1.78s-.05,0-.15-.14A6.15,6.15,0,0,0,183.45,117.16Z"/><path class="cls-3" d="M197,87.6a1.5,1.5,0,0,1,.57-.12,11.18,11.18,0,0,1,3.8,1c-.49.29-.94.16-1.32.33s-.37.33-.11.56a4.13,4.13,0,0,0,.8.59c1.42.72,2.67,1.72,4,2.57a2.67,2.67,0,0,0,1.55.56,3.81,3.81,0,0,1-2.87,1.35,1.72,1.72,0,0,1-1.09-.43,22.32,22.32,0,0,1-4-3.24,9.72,9.72,0,0,0-.93-.89.66.66,0,0,1-.28-.77A2.7,2.7,0,0,0,197,87.6Z"/><path class="cls-5" d="M184.55,85.43c.7-.33.71-.34,1.12.33,1.79,2.89,3.55,5.79,5.34,8.67.92,1.46,1.72,3,2.78,4.37.94,1.8,2.08,3.48,3.14,5.2.93,1.49,1.79,3,2.86,4.43a1,1,0,0,1-.41.95c-.29-.1-.35-.38-.48-.59-1.93-3.13-3.84-6.27-5.76-9.4-.18-.28-.37-.54-.56-.82a1.71,1.71,0,0,0-.35-.7Z"/><path class="cls-3" d="M184.55,85.43l7.68,12.44a1.71,1.71,0,0,1,.35.7c-.1.51-.19,1-.29,1.52l-1.06-1.5c-1.17-2.17-2.55-4.2-3.81-6.31s-2.43-4-3.63-6c-.16-.25-.39-.47-.37-.82A1.19,1.19,0,0,1,184.55,85.43Z"/><path class="cls-5" d="M183,79.08a4.32,4.32,0,0,1,1.32-.58c.65-.25.65-.24,1,.45a2,2,0,0,0,.16.24c.1.73.7,1.26.77,2A2.7,2.7,0,0,0,184,83.6c-.17.3-.31.61-.73.23a11.25,11.25,0,0,1-.95-.88c-.45-.52-.45-.51-1.23-.59.08-.45.37-.83.34-1.3,0-.29.25-.44.46-.6A3.54,3.54,0,0,0,183,79.08Z"/><path class="cls-3" d="M182.13,135.36a2.12,2.12,0,0,0,0-.5,3,3,0,0,1,1.22-3l1.25-.64c1.77-.57,3.47-1.32,5.19-2l1.6-.64a1.13,1.13,0,0,1-.64.54l-4.43,2.2c-.48.24-1,.45-1.44.7-1.79,1-1.58.67-1.63,2.55v.09C183.22,135.82,183.17,135.85,182.13,135.36Z"/><path class="cls-3" d="M210.85,129.67a49.74,49.74,0,0,1,3,4.77c-.12.64,0,1.29-.14,1.93-.71-1.16-1.42-2.31-2.14-3.45a4.9,4.9,0,0,0-.72-1.07A3.68,3.68,0,0,1,210.85,129.67Z"/><path class="cls-2" d="M199.79,108.43c-1.07-1.4-1.93-2.94-2.86-4.43-1.06-1.72-2.2-3.4-3.14-5.2.19,0,.25-.3.45-.3,1.45,2.11,2.86,4.65,4.21,6.82.55.88,1.05,1.78,1.56,2.67A.63.63,0,0,0,199.79,108.43Z"/><path class="cls-2" d="M220.4,141.4a25.62,25.62,0,0,1-2.91-3,44.08,44.08,0,0,1-3.34-5.19l.59-.07c.84,1.12,1.49,2.36,2.21,3.55a9,9,0,0,0,1.41,1.79,22.09,22.09,0,0,1,2.4,2.53A.7.7,0,0,0,220.4,141.4Z"/><path class="cls-5" d="M186.21,81.48a2.7,2.7,0,0,0,1.23.11c.26.29-.18.54-.05.83l0,0c-.66.46-.6,1.14-.53,1.82a.36.36,0,0,1-.4.22q-.84-.11-1.68-.18c-.42,0-.57-.28-.61-.65.24-.32.23-.88.85-.8a.15.15,0,0,0,.12-.26c-.27-.26-.09-.42.1-.54S185.89,81.65,186.21,81.48Z"/><path class="cls-1" d="M268.08,104.39a1.82,1.82,0,0,1,.36,1.6c-.07-.52-1.11,0-1.46.15a23.27,23.27,0,0,1-2.28.77.67.67,0,0,1-.66,0,1.69,1.69,0,0,1,.69-.71Z"/><path class="cls-3" d="M196,93.17c.75.1,1.12.42,1.19,1s.13,1.32.18,2c0,.2,0,.42-.28.43s-.31-.22-.34-.42c0-.37-.08-.73-.13-1.09A5.2,5.2,0,0,0,196,93.17Z"/><path class="cls-5" d="M201.43,94.78a4.22,4.22,0,0,1,.59.52c.47.58.37,1.14-.32,1.86a8.09,8.09,0,0,1-.64-2.33Z"/><path class="cls-2" d="M206.94,92.37a17.42,17.42,0,0,0,1.3-2.16l.45,0a7.23,7.23,0,0,1-1.44,2.47Z"/><path class="cls-2" d="M186.21,81.48c-.32.17-.64.33-1,.52s-.37.28-.1.54a.15.15,0,0,1-.12.26c-.62-.08-.61.48-.85.8H184a2.7,2.7,0,0,1,2.22-2.41Z"/><path class="cls-5" d="M200.7,94.2c-.53-.14-.95-.2-1.23-.57a.39.39,0,0,1,0-.46c.15-.18.3,0,.42,0A2,2,0,0,1,200.7,94.2Z"/><path class="cls-2" d="M186.88,84.21c-.07-.68-.13-1.36.53-1.82a3.82,3.82,0,0,0-.17,1.81Z"/><path class="cls-2" d="M184.62,131.27l-1.25.64a2.88,2.88,0,0,1,1.23-.89Z"/><path class="cls-2" d="M187.39,82.42c-.13-.29.31-.54.05-.83l.61.24Z"/><path class="cls-4" d="M203.27,116.2h.34a1.12,1.12,0,0,1-.52.7A.84.84,0,0,1,203.27,116.2Z"/><path class="cls-1" d="M197.62,91.28a.28.28,0,0,1,.3.29.14.14,0,0,1-.18.15.32.32,0,0,1-.27-.24C197.45,91.38,197.51,91.31,197.62,91.28Z"/><path class="cls-5" d="M201.43,94.78l-.37,0c-.11-.12-.21-.3,0-.36S201.36,94.59,201.43,94.78Z"/><path class="cls-5" d="M209.61,123c.08-.14,0-.37.2-.46C209.84,122.78,209.69,122.9,209.61,123Z"/><path class="cls-6" d="M201.23,19.76l-.06-.07.16-.07s0,.05,0,.07Z"/><path class="cls-1" d="M211.67,91.14c.14.15.32.39.15.52l-.36-.28Z"/><path class="cls-1" d="M195.73,84.5a5.49,5.49,0,0,1,3.92.26C198.26,85.09,197,84.52,195.73,84.5Z"/></svg>