<svg id="frames" xmlns="http://www.w3.org/2000/svg" viewBox="0 0 384 216"><defs><style>.cls-1{fill:#152238;}.cls-2{fill:#fcfcfb;}.cls-3{fill:#fb1212;}</style></defs><path class="cls-1" d="M288.31,96c.08.3.1.53-.2.63s-.45-.12-.57-.39a34.94,34.94,0,0,0-6.54-10,11.74,11.74,0,0,1-.94-1.17,2.36,2.36,0,0,1-.41-1.61c.09-1,.61-1.37,1.55-1.16a3.47,3.47,0,0,1,1.81,1,12.07,12.07,0,0,1,1.5,2A24.88,24.88,0,0,1,288.31,96Z"/><path class="cls-2" d="M295.3,168.79h-.1c-.32,0-.79.1-.83-.33s.45-.38.76-.45a23.29,23.29,0,0,0,4.14-1.43,55.45,55.45,0,0,0,9.29-5,2.65,2.65,0,0,1,1.82-.35.53.53,0,0,1,.53.37.54.54,0,0,1-.26.6c-.37.28-.74.57-1.13.82a49.46,49.46,0,0,1-7.39,3.69,31.47,31.47,0,0,1-4.87,1.76A8.74,8.74,0,0,1,295.3,168.79Z"/><path class="cls-3" d="M294.59,176.53a1,1,0,0,1,1.21-.09,81.7,81.7,0,0,0,10.67,4.24,7.47,7.47,0,0,0,1.15.3c.24.05.52.07.54.34s-.32.4-.56.44a3.88,3.88,0,0,1-1.4,0,15.48,15.48,0,0,1-2.67-.8,72.21,72.21,0,0,1-7.6-3.32A3,3,0,0,1,294.59,176.53Z"/><path class="cls-1" d="M281.75,100.64v1c0,.24,0,.5-.3.54s-.39-.21-.4-.45a16.1,16.1,0,0,0-.68-3c-.14-.62-.32-1.22-.47-1.84-.08-.31-.09-.6.28-.74a.63.63,0,0,1,.9.38,10.11,10.11,0,0,1,.34,1.34A17.49,17.49,0,0,1,281.75,100.64Z"/><path class="cls-2" d="M254.88,108.46a.74.74,0,0,1,.45.2,2,2,0,0,1,.49.62L258,114c.07.17.24.39,0,.51s-.38-.08-.49-.25c-.27-.46-.54-.92-.8-1.38a17.07,17.07,0,0,0-1.54-2.33,6.86,6.86,0,0,1-.76-1.28A.53.53,0,0,1,254.88,108.46Z"/><path class="cls-1" d="M264.25,73.21a5.41,5.41,0,0,1,5.57,1.6,7.17,7.17,0,0,1-1.8-.58c-.61-.16-1.2-.36-1.83-.48A4.49,4.49,0,0,1,264.25,73.21Z"/><path class="cls-1" d="M300.23,73.78a8.21,8.21,0,0,1,2.92-1.4c.22,0,.5-.07.58.23s-.16.35-.34.44a14,14,0,0,1-2.61,1C300.63,74.05,300.45,74,300.23,73.78Z"/><path class="cls-2" d="M269.38,125.46s-.11-.11-.1-.15c.26-1.13.52-2.25.8-3.37.07-.26.19-.53.56-.38s.57.27.41.66c-.42,1-.85,2-1.29,3C269.7,125.37,269.59,125.51,269.38,125.46Z"/><path class="cls-2" d="M247.66,139.38c-.14,0-.29,0-.32-.17a.38.38,0,0,1,.08-.27,9.08,9.08,0,0,1,2-1.78.45.45,0,0,1,.63.05c.2.25,0,.44-.17.59-.54.48-1.09.95-1.64,1.42A.76.76,0,0,1,247.66,139.38Z"/><path class="cls-2" d="M270.57,135.38a6.07,6.07,0,0,1-2.17-1.17.32.32,0,0,1,.19-.53.88.88,0,0,1,.57.13c.56.28,1.13.55,1.68.84.19.1.5.16.41.46S270.9,135.37,270.57,135.38Z"/><path class="cls-1" d="M169,69.9c1.09-.88,1.94-1,2.73-.57A10.24,10.24,0,0,1,169,69.9Z"/><path class="cls-2" d="M251.89,107.93c0,.23-.21.25-.38.24a.91.91,0,0,1-.5-.29,9.66,9.66,0,0,1-1.27-1.52c-.21-.28-.06-.51.29-.54a.68.68,0,0,1,.63.23c.39.53.76,1.07,1.14,1.62A1.14,1.14,0,0,1,251.89,107.93Z"/><path class="cls-1" d="M215.44,65.64a2.48,2.48,0,0,1,1.94-1.42c.19,0,.52.12.32.29A3.81,3.81,0,0,1,215.44,65.64Z"/><path class="cls-1" d="M262.46,69c-.45.26-.9.53-1.36.77a.33.33,0,0,1-.43-.14c-.08-.15,0-.26.14-.33A1.4,1.4,0,0,1,262.46,69Z"/><path class="cls-1" d="M229.86,75.38a.84.84,0,0,1-1.06.36A1.09,1.09,0,0,1,229.86,75.38Z"/></svg>