<svg id="frames" xmlns="http://www.w3.org/2000/svg" viewBox="0 0 384 216"><defs><style>.cls-1{fill:#0f1b33;}.cls-2{fill:#fd0101;}.cls-3{fill:#f5f5f6;}.cls-4{fill:#d6d7d0;}</style></defs><path class="cls-1" d="M165.45,122.32c0-.24,0-.47,0-.7l-.09-36.29c0-1.73,0-3.46.17-5.19.05-.64.23-.92.84-1.06a4.09,4.09,0,0,1,1-.07c10,0,19.93,0,29.89.15,3.1,0,6.2,0,9.29.18a19,19,0,0,1,5.19,1,31.5,31.5,0,0,1,10.92,6.08,25.11,25.11,0,0,1,2.63,2.73c.12.14.18.36.52.38,0-1.21.1-2.43.1-3.64,0-1.7.21-3.38.08-5.09-.07-1,.48-1.59,1.59-1.58,7.4,0,14.79,0,22.19,0,2.83,0,5.66,0,8.5.07h2.54c6.62-.07,10.91.52,15.93,3a26.86,26.86,0,0,1,11.46,37,27.43,27.43,0,0,1-23.82,14.14h-14.5c-.23,0-.47,0-.7,0-.54-.05-.72.23-.67.72,0,.13,0,.27,0,.4-.18,8.66,0,17.32-.08,26v.5a1.29,1.29,0,0,1-1.36,1.4c-.5,0-1,0-1.5,0l-7.19-.11a8.2,8.2,0,0,1,1.69-.57,19.61,19.61,0,0,0,3.63-1.29,1.45,1.45,0,0,0,.8-.7c.18-.47,0-.62-.46-.49a11.29,11.29,0,0,0-2.74-1.18c-5.57-1.55-11-3.39-16.51-5.32-3.64-1.28-7.31-2.46-10.95-3.74-4.86-1.71-9.71-3.47-14.56-5.2-1.9-.69-3.81-1.36-5.72-2,.35.21.76.06,1.14.19,3.85,1.3,7.72,2.49,11.55,3.83s7.63,2.76,11.48,4c2.46.82,4.9,1.69,7.36,2.52.82.28.87.24.84-.59,0-1-.11-2.06-.14-3.09a3.64,3.64,0,0,0-.5-1.69,23.7,23.7,0,0,1-1.64-3c.25-.48.08-1,.22-1.51,1,1.54,1.87,3.22,2.85,4.8a4,4,0,0,1,.53,1.49c.2,1.32.46,2.63.67,3.94a1,1,0,0,0,.76.9c1.78.56,3.55,1.16,5.32,1.72.2.06.42.27.62,0a.9.9,0,0,0-.22-.55,52,52,0,0,0-4.49-5.86,35.09,35.09,0,0,1-2.48-2.7c-.67-1-1.23-2.13-1.86-3.19l-6.85-11.48-1.54-2.57c-.71.67-.71.67-.33,1.34,1,1.77,2.11,3.47,3,5.29l-.18,1.55a5.22,5.22,0,0,1-.34-.48c-1.07-1.8-2.12-3.61-3.18-5.41-.41-.7-.59-.73-1.22-.2a6.57,6.57,0,0,1-1.23,1c0-.56.49-.82.78-1.2l.16-.15,0,0a24.37,24.37,0,0,0,2-2.18,2.35,2.35,0,0,0,.21-2.47,16.86,16.86,0,0,1-1.45,2.8l-.16.26,0,0c-.18.08-.32.18-.22.41h0c-.6.09-.83.69-1.29,1a10.51,10.51,0,0,1-7.47,1.75c-.55-.08-1.11-.14-1.67-.21a1,1,0,0,0-.77.12,7.87,7.87,0,0,0-1.53,1.09l-3.62,1.79a7.67,7.67,0,0,0-2,.65c-1.61.66-3.21,1.32-4.79,2a2.36,2.36,0,0,0-1.39,1.07l-.72,1.54c-1.34-.33-2.62-.83-4.14-1.34a5.62,5.62,0,0,1,.72-.12,8.63,8.63,0,0,0,4.51-1.75c2.72-1.93,5.36-4,8-6,2.15-1.63,4.14-3.47,6.32-5.07a38.47,38.47,0,0,0,5.49-4.79c.1-.12.2-.27.42-.13.17.72-.47,1.33-.42,2.06.38,0,.48-.3.65-.49a11.92,11.92,0,0,0,2.36-4.37,1.6,1.6,0,0,1,1.53-1.11c-.15,1.21-.77,2.22-1,3.54a8.19,8.19,0,0,0,2.84-3c.12-.19,0-.39,0-.58a13.83,13.83,0,0,0-.93-2.74,4,4,0,0,0-4.15-2.49,1.13,1.13,0,0,0-1.06.59c-.52,1-1.11,1.9-1.6,2.89a3.28,3.28,0,0,1-1.06,1.27,40.86,40.86,0,0,0-7.38,6.77c-2.72,3.19-5.61,6.24-8.59,9.2a11.63,11.63,0,0,1-4.31,2.78,23.89,23.89,0,0,1-6.63,1.38,7.66,7.66,0,0,1-3-.17c-4.32-1.45-8.59-3.05-13-4.4l0-1.38c0-.82,0-.82-.84-.69-1.31.2-1.31.2-1.2,1.44-.25-.07-.49,0-.76-.12a28.74,28.74,0,0,0-3.52-1.23c-.21-.06-.47,0-.54-.38a37,37,0,0,1,4.16-1c2.73-.38,5.48-.65,8.17-1.26a16.25,16.25,0,0,0,5.72-2.48c.26-.18.34-.33,0-.49a2.8,2.8,0,0,1,.86-.48c1.44-.69,2.94-1.23,4.42-1.82a11.5,11.5,0,0,0,4.18.76,26.32,26.32,0,0,1,4.93.56c.07.53.17,1,.2,1.58.09,1.9-.46,2.71-2.24,3.41-.09,0-.09.09,0,.19l4.35,1.22a.58.58,0,0,0,.64-.13,3.16,3.16,0,0,0,.91-1.2c-.91-.34-1.77-.67-2.64-1-.49-.17-.7-.39-.55-1a7.07,7.07,0,0,0-.32-3.92,7.77,7.77,0,0,0-1.77-3.07l0,0-.15-.15a1.76,1.76,0,0,0-2-.92,11.29,11.29,0,0,1-1.3,0,32.21,32.21,0,0,0-7.76,1.09,17.53,17.53,0,0,1-3,.55c-.59,0-1.17.2-1.76.3a8.88,8.88,0,0,1-1.76.3.73.73,0,0,0-.91-.4q-.54.09-1.08.21C168.36,121.36,166.92,121.89,165.45,122.32Zm23.33-40.16c-.49.23-.27.46,0,.69a3,3,0,0,0,.78,1.18.61.61,0,0,0,.29.49c.57.21.73.68.94,1.17a1,1,0,0,0,1,.68c.11-.49-.15-1,.32-1.46a2.14,2.14,0,0,0,1.72.52,1,1,0,0,0,.59.11,1,1,0,0,0,.81.11,1.27,1.27,0,0,0,.79.1l1.6.57.76.49a.47.47,0,0,0,.44.31,2,2,0,0,0,1.07.55,1.62,1.62,0,0,0,1.71-.12.56.56,0,0,0,.39-.11l.92-.15a10.87,10.87,0,0,0,.89,3c.28.47.11.64-.25.85a9.65,9.65,0,0,0-2,1.43,2,2,0,0,0-.73,1.56A9.18,9.18,0,0,1,203.34,92c1-.7,1.34-.73,2.25,0a34,34,0,0,0,4.87,3.28,1.85,1.85,0,0,0,2.54-.88,3,3,0,0,0-.17-4.77c-.2-.17-.42-.32-.62-.47a.52.52,0,0,0-.42-.37,1.15,1.15,0,0,0-.55-.45,1,1,0,0,0-.65-.53.1.1,0,0,0-.12-.09c-.18-.34-.54-.48-.84-.68A26.7,26.7,0,0,0,204,84.51a3.7,3.7,0,0,0-2.06-.18,1.55,1.55,0,0,0-.8-.06,4.63,4.63,0,0,0-2,0,2.25,2.25,0,0,0-1,0,2.93,2.93,0,0,0-1.44,0,1,1,0,0,0-.6-.08c-.41-.1-.84-.19-1.24-.33s-.92,0-.53-.67c.09-.16-.15-.26-.29-.34a3.46,3.46,0,0,0-3-.11,2.15,2.15,0,0,1,2-.45c.18,0,.4.14.51-.12s-.25-1.38-.51-1.4a4.16,4.16,0,0,0-2.24,0C190.09,81.19,189.5,81.77,188.78,82.16Zm13.09,16.33a5.39,5.39,0,0,0-1.83.1c.51,1.28,6.47,11.37,7,11.85.17-.07.23-.24.3-.38a8.37,8.37,0,0,0,.37-5.85c-.12-.48-.35-.52-.8-.39-1,.29-1,.21-1.64-.68a3.61,3.61,0,0,0-1.84-1.36c-.09-.79-.14-1.59-.27-2.38S202.64,98.38,201.87,98.49ZM191.8,87.07a2.75,2.75,0,0,0-1-.19,1.47,1.47,0,0,0,.3.78c1.06,1.85,2.13,3.69,3.18,5.55s2.1,3.52,3,5.32c-1.66.1-3.38,0-5,0-1.19,0-2.39.07-3.58.05-.55,0-.71.22-.66.71,0,.17,0,.34,0,.5,0,3.5,0,7-.05,10.49,0,1.33,0,2.66,0,4,0,.52.17.74.69.67a2.67,2.67,0,0,1,.4,0c3.89,0,7.79-.08,11.68-.14a6.74,6.74,0,0,0,3.8-1.32c1-.7,1-.73.37-1.81q-1.95-3.42-3.88-6.86c.19-.42.07-.89.2-1.33.18.28.38.54.55.83q2.63,4.53,5.26,9.07c.12.21.16.52.52.55a2.29,2.29,0,0,0-.26-2.09c-.34-.5-.6-1-.9-1.56q-6.59-11.24-13.16-22.49A1.27,1.27,0,0,0,191.8,87.07Zm25.78,36.55a.39.39,0,0,0,.18.64c.23.11.48.2.72.31,0,.24-.09.35-.34.38s-.6-.16-.85.18l.57,1.75a11,11,0,0,0,1.57-2.26,3.73,3.73,0,0,0,.68-1.33,17.78,17.78,0,0,1,2-4.22,22,22,0,0,0,2.92-8.53,12.34,12.34,0,0,0-.71-6.37q-1.14-2.88-2.26-5.77A7.33,7.33,0,0,0,221,96.5a28.4,28.4,0,0,0-3.73-4,2.22,2.22,0,0,0-.95-.62c0,.57.45,1,.37,1.62a13.28,13.28,0,0,0-2.53-3.39c-.18.2-.15.33-.09.45A4,4,0,0,1,214,94c-.29.71-.31.74.35,1.16a1.2,1.2,0,0,1,.6,1.34c-.13.82-.31,1.63-.51,2.44a1.61,1.61,0,0,0,.36,1.58,25.11,25.11,0,0,0,2.62,2.74c.14.12.37.19.24.54-1.59-.21-3-1.25-4.7-1.43l1,2.86c-.86.06-1.41-.55-2.11-.69-.11.71-.2,1.37-.32,2a4.34,4.34,0,0,0-.21,1.67,3.68,3.68,0,0,1-.12,2.25,1.28,1.28,0,0,0-.07.39c-.05.44.11.69.59.72a9.29,9.29,0,0,1,1.58.25,26,26,0,0,0,5.12.82c.14,0,.33,0,.35.27l-2.64.47c.38.94,1.39.57,2,1.14l-.67,0c-.22,0-.45-.15-.66,0a.54.54,0,0,0,0,.1,1,1,0,0,0,.05.29,13.41,13.41,0,0,1,.9,7.91A.89.89,0,0,0,217.58,123.62Zm42.55-8.41a5.35,5.35,0,0,0,1.49-.15,8.88,8.88,0,0,0,6.56-7.31,5.63,5.63,0,0,0-.35-3.43,10.57,10.57,0,0,0-4.31-4.85,5.8,5.8,0,0,0-2.95-.82c-3.76,0-7.53,0-11.29,0-.69,0-.71,0-.71.74q-.06,7.44-.1,14.89c0,.77,0,.78.77.78Zm-34.35,7.52c-.18.06-.26.07-.3.11A31.57,31.57,0,0,1,218.4,129c-.48.29-.32.53-.12.88l7,11.89c.12.2.17.5.52.51Zm-31.1-4h-3.49a3,3,0,0,0-.79.07c-.53.15-.59.36-.21.76a14.25,14.25,0,0,0,1.75,1.63,5.52,5.52,0,0,0,2.62,1.14,38.51,38.51,0,0,0,5.78.35c.17,0,.35,0,.47-.11.75-.76,1.5-1.51,2.23-2.29.2-.21.14-.44-.14-.56a2.79,2.79,0,0,0-.57-.14A65.32,65.32,0,0,0,194.68,118.77Zm13.18-19.9c0-.64,0-1.17,0-1.69a1.09,1.09,0,0,0-.7-1.19,6.17,6.17,0,0,1-2.3-1.71c-.2-.24-.38-.55-.82-.34s-.72.44-.62,1a8.11,8.11,0,0,1,0,1c0,.73.15.84.86.94.48.07,1-.11,1.46.11,0,.2-.06.36-.08.53s-.07.32-.1.49c-.1.71-.08.86.59,1a1.54,1.54,0,0,1,1.19,1.4c.12.62.34,1.23.58,2,1.1-1.66,1.69-3.15,1.1-5C208.54,97.86,208.56,98.64,207.86,98.87Zm-19.72,36.25a12.11,12.11,0,0,0,2.38-1.63,2.52,2.52,0,0,0-1.11-.12c-1.58,0-1.58,0-1.4,1.56C188,135,188,135,188.14,135.12Z"/><path class="cls-1" d="M115,162a1.59,1.59,0,0,0,1.64-1,10,10,0,0,0,.57-1.49c.61-2.63,1.53-5.17,2.24-7.77.16-.57.43-.71,1-.71h23.79c.9,0,.92,0,1.2.87q1.5,4.56,3,9.11c.37,1.15.43,1.21,1.6,1.21h35.89a5.45,5.45,0,0,0,.7,0,1,1,0,0,0,1-1.05c0-1.16.06-2.32.09-3.49-2.2-.56-4.4-1.08-6.59-1.67-2.86-.78-5.71-1.59-8.56-2.41A11.33,11.33,0,0,1,171,153c2.63.4,5.24.9,7.82,1.53,5.21,1.27,10.43,2.5,15.72,3.42,4.16.72,8.35,1.31,12.53,1.89,3.13.44,6.27.85,9.41,1.14a85.59,85.59,0,0,0,20.73-.57c1.52-.23,3.05-.35,4.55-.64a2.38,2.38,0,0,0,1-.28c-1.66-.34-3.3-.77-4.94-1.2-3-.76-5.91-1.63-8.79-2.65-5.81-2.06-11.57-4.26-17.39-6.28-5.66-2-11.36-3.82-17.06-5.66-8.2-2.65-16.37-5.41-24.6-8-6.42-2-12.83-4-19.25-6.05a2.88,2.88,0,0,0-1-.24c1,2,2,4,3,6l6.69,13.05a1.65,1.65,0,0,1,.31.83c-.24.2-.45,0-.65-.06-1.38-.48-2.75-1-4.14-1.47a1.74,1.74,0,0,1-.95-.82l-10.84-17.82A10.89,10.89,0,0,1,142.1,127a17,17,0,0,0-3.18-1.07,35,35,0,0,0-4.51-1.14c1.42,2.06,2.84,4.11,4.25,6.17q4.67,6.8,9.31,13.6c.14.21.37.39.33.7-.29.14-.52,0-.76-.13-2-.76-4.07-1.47-6.06-2.32-3.19-1.37-6.47-2.48-9.73-3.62a52.88,52.88,0,0,1-12.3-6.34,30.36,30.36,0,0,1-5.87-5.39,5.8,5.8,0,0,1-1.22-4.2A1.89,1.89,0,0,1,113,122a5.87,5.87,0,0,1,4-1.64,30,30,0,0,1,5.76.34c1.45.18,2.92.18,4.36.43.28,0,.59.15.86,0,.44-1.36.83-2.74,1.33-4.07,1.11-2.93,1.91-6,2.89-8.93a3.11,3.11,0,0,1,.35-.87c.33.14.29.42.35.62q2.28,7.75,4.53,15.51a1.18,1.18,0,0,1,0,.2c2.22.67,4.45,1.32,6.66,2q4.71,1.49,9.38,3a1.14,1.14,0,0,0,1.1-.12c1.06-.68,2.18-1.28,3.26-1.93a2.29,2.29,0,0,0,.8-.58c-.44-.15-.48-.38-.06-.57.88-.39,1.73-.83,2.57-1.29,0-.13-.1-.25-.13-.38L147.69,80.55c-.56-1.36-.83-1.54-2.21-1.55h-.2l-16.79,0c-2.94,0-5.87,0-8.8,0-1,0-1.14.12-1.45,1-.47,1.39-1,2.76-1.41,4.16-1.67,5.31-3.31,10.62-5,15.93-.25.78-.24.78-.89.31-1.27-.91-2.53-1.83-3.81-2.74a5.63,5.63,0,0,0-.85-.51,1.28,1.28,0,0,0-1.75.46,1.15,1.15,0,0,0,.07,1.7,4.64,4.64,0,0,0,1.22,1l4.38,2.8c.3.19.53.37.39.79-.44,1.36-.86,2.73-1.3,4.09-.09.29-.29.35-.54.17s-.59-.43-.9-.62a.89.89,0,0,0-1.24.21.8.8,0,0,0,.25,1.07,7.5,7.5,0,0,0,1,.69c.71.45.72.45.47,1.24q-1.63,5.19-3.28,10.38l-9.9,31.34c-.87,2.77-1.77,5.52-2.63,8.29-.32,1,0,1.51,1.12,1.55h.6Z"/><path class="cls-2" d="M187.71,157.65c-2.2-.56-4.4-1.08-6.59-1.67-2.86-.78-5.71-1.59-8.56-2.41A11.33,11.33,0,0,1,171,153c2.63.4,5.24.9,7.82,1.53,5.21,1.27,10.43,2.5,15.72,3.42,4.16.72,8.35,1.31,12.53,1.89,3.13.44,6.27.85,9.41,1.14a85.59,85.59,0,0,0,20.73-.57c1.52-.23,3.05-.35,4.55-.64a2.38,2.38,0,0,0,1-.28l.78.13c.25,0,.38-.05.4-.3.47-.13.64,0,.46.49a1.45,1.45,0,0,1-.8.7,19.61,19.61,0,0,1-3.63,1.29,8.2,8.2,0,0,0-1.69.57c-2,.33-4.06.78-6.12,1a74.93,74.93,0,0,1-15.27-.18c-5.13-.61-10.24-1.32-15.31-2.3-2.85-.55-5.66-1.27-8.47-2C191.36,158.36,189.55,157.94,187.71,157.65Z"/><path class="cls-2" d="M158.65,126c-.44-.15-.48-.38-.06-.57.88-.39,1.73-.83,2.57-1.29l4.3-1.83c1.46-.43,2.9-1,4.4-1.27q.54-.12,1.08-.21a.73.73,0,0,1,.91.4,1.36,1.36,0,0,1-.75.22,51.41,51.41,0,0,0-9.51,3.13C160.59,125,159.68,125.64,158.65,126Z"/><path class="cls-1" d="M268.62,29.09A15.11,15.11,0,0,0,265.31,17a13.07,13.07,0,0,1,3.3,5.87A9.48,9.48,0,0,1,268.62,29.09Z"/><path class="cls-1" d="M46.61,44.5c-.45.27-.7,0-1-.18a.26.26,0,0,1,0-.36A.28.28,0,0,1,46,43.9,1.22,1.22,0,0,1,46.61,44.5Z"/><path class="cls-1" d="M218.33,12.54a.32.32,0,0,1-.32-.37c0-.23.21-.23.37-.22s.37,0,.33.26S218.46,12.48,218.33,12.54Z"/><path class="cls-1" d="M40.24,75c.36-.28.72-.18,1.24-.1A.94.94,0,0,1,40.24,75Z"/><path class="cls-1" d="M218.36,43.12c.07,0,.16,0,.16.14a.16.16,0,0,1-.13.09,1.28,1.28,0,0,1-.27-.05A.26.26,0,0,1,218.36,43.12Z"/><path class="cls-3" d="M158.65,126c1-.37,1.94-1,2.94-1.42a51.41,51.41,0,0,1,9.51-3.13,1.36,1.36,0,0,0,.75-.22,8.88,8.88,0,0,0,1.76-.3c.59-.1,1.17-.25,1.76-.3a17.53,17.53,0,0,0,3-.55,32.21,32.21,0,0,1,7.76-1.09,11.29,11.29,0,0,0,1.3,0,1.76,1.76,0,0,1,2,.92c0,.1,0,.18.15.15l0,0c.36.74.72,1.47,1.06,2.22a2.4,2.4,0,0,1,.35,1.61,26.32,26.32,0,0,0-4.93-.56,11.5,11.5,0,0,1-4.18-.76.57.57,0,0,1,.09-.8c.24-.26.57-.44.7-.81a15.44,15.44,0,0,0-4.33.43c.1.33.59.31.64.83a7.7,7.7,0,0,0-1.91.31c-1.31.41-2.57.91-3.85,1.39a38.19,38.19,0,0,1-5,1.53,1.83,1.83,0,0,0-1.23.55,49.93,49.93,0,0,0,6-.45,18.64,18.64,0,0,0,3.62-.68c.33.16.25.31,0,.49a16.25,16.25,0,0,1-5.72,2.48c-2.69.61-5.44.88-8.17,1.26a37,37,0,0,0-4.16,1c.07.33.33.32.54.38a28.74,28.74,0,0,1,3.52,1.23c.27.13.51,0,.76.12l2.07.63c4.36,1.35,8.63,2.95,13,4.4a7.66,7.66,0,0,0,3,.17,23.89,23.89,0,0,0,6.63-1.38,11.63,11.63,0,0,0,4.31-2.78c3-3,5.87-6,8.59-9.2a40.86,40.86,0,0,1,7.38-6.77,3.28,3.28,0,0,0,1.06-1.27c.49-1,1.08-1.92,1.6-2.89a1.13,1.13,0,0,1,1.06-.59,4,4,0,0,1,4.15,2.49,13.83,13.83,0,0,1,.93,2.74c.05.19.14.39,0,.58a8.19,8.19,0,0,1-2.84,3c.24-1.32.86-2.33,1-3.54a1.6,1.6,0,0,0-1.53,1.11,11.92,11.92,0,0,1-2.36,4.37c-.17.19-.27.47-.65.49-.05-.73.59-1.34.42-2.06-.22-.14-.32,0-.42.13a38.47,38.47,0,0,1-5.49,4.79c-2.18,1.6-4.17,3.44-6.32,5.07-2.66,2-5.3,4-8,6a8.63,8.63,0,0,1-4.51,1.75,5.62,5.62,0,0,0-.72.12c1.52.51,2.8,1,4.14,1.34.28.4.76.39,1.16.54a6.46,6.46,0,0,0,2.59.86c1.91.68,3.82,1.35,5.72,2,4.85,1.73,9.7,3.49,14.56,5.2,3.64,1.28,7.31,2.46,10.95,3.74,5.46,1.93,10.94,3.77,16.51,5.32a11.29,11.29,0,0,1,2.74,1.18c0,.25-.15.35-.4.3l-.78-.13c-1.66-.34-3.3-.77-4.94-1.2-3-.76-5.91-1.63-8.79-2.65-5.81-2.06-11.57-4.26-17.39-6.28-5.66-2-11.36-3.82-17.06-5.66-8.2-2.65-16.37-5.41-24.6-8-6.42-2-12.83-4-19.25-6.05a2.88,2.88,0,0,0-1-.24,2.31,2.31,0,0,0-.35-.18l-6.42-2a2.44,2.44,0,0,0-1-.21,17,17,0,0,0-3.18-1.07,35,35,0,0,0-4.51-1.14,1.51,1.51,0,0,0-.17-.1,90.37,90.37,0,0,0-10.14-2.24,34.53,34.53,0,0,0-10.15-.05c-.18,0-.38.16-.54,0s.17-.34.34-.44a6.33,6.33,0,0,1,2.23-.82,30,30,0,0,1,6.76-.33c1.45.18,2.92.18,4.36.43.28,0,.59.15.86,0a.7.7,0,0,0,.51.27c2.47.48,4.93,1,7.35,1.73a9.18,9.18,0,0,0,1.63.46c2.22.67,4.45,1.32,6.66,2q4.71,1.49,9.38,3a1.14,1.14,0,0,0,1.1-.12c1.06-.68,2.18-1.28,3.26-1.93A2.29,2.29,0,0,0,158.65,126Z"/><path class="cls-3" d="M218.48,124.57c-.24-.11-.49-.2-.72-.31a.39.39,0,0,1-.18-.64.57.57,0,0,0,.12-.76,13.41,13.41,0,0,0-.9-7.91,1,1,0,0,1-.05-.29.54.54,0,0,1,0-.1c.21-.18.44,0,.66,0l.67,0c-.61-.57-1.62-.2-2-1.14l2.64-.47c0-.29-.21-.25-.35-.27a26,26,0,0,1-5.12-.82,9.29,9.29,0,0,0-1.58-.25c-.48,0-.64-.28-.59-.72a1.28,1.28,0,0,1,.07-.39,3.68,3.68,0,0,0,.12-2.25,4.34,4.34,0,0,1,.21-1.67c.12-.66.21-1.32.32-2,.7.14,1.25.75,2.11.69l-1-2.86c1.75.18,3.11,1.22,4.7,1.43.13-.35-.1-.42-.24-.54a25.11,25.11,0,0,1-2.62-2.74,1.61,1.61,0,0,1-.36-1.58c.2-.81.38-1.62.51-2.44a1.2,1.2,0,0,0-.6-1.34c-.66-.42-.64-.45-.35-1.16a4,4,0,0,0,.1-3.48c-.06-.12-.09-.25.09-.45a13.28,13.28,0,0,1,2.53,3.39c.08-.65-.36-1-.37-1.62a2.22,2.22,0,0,1,.95.62,28.4,28.4,0,0,1,3.73,4,7.33,7.33,0,0,1,1.09,1.9q1.13,2.89,2.26,5.77a12.34,12.34,0,0,1,.71,6.37,22,22,0,0,1-2.92,8.53,17.78,17.78,0,0,0-2,4.22,3.73,3.73,0,0,1-.68,1.33Z"/><path class="cls-3" d="M198.22,84.33a2.25,2.25,0,0,1,1,0,2.81,2.81,0,0,0,2,0,1.55,1.55,0,0,1,.8.06c.27.43.7.21,1.06.26s1,0,1.16.62a8,8,0,0,0-2.13.24,1.33,1.33,0,0,0,1,.31,7.28,7.28,0,0,1,2.94,0l0,0,.21.27c0,.23.24.42.4.27.39-.35.71-.16,1.08,0a14.67,14.67,0,0,1,1.82,1c.3.18.55.51,1,.44a.1.1,0,0,1,.12.09.57.57,0,0,0,.65.53,1.15,1.15,0,0,1,.55.45.37.37,0,0,0,.42.37c.2.15.42.3.62.47a3,3,0,0,1,.17,4.77,12.91,12.91,0,0,1-2.16-1.73,19.7,19.7,0,0,0-4.58-3.14c-.28-.12-.65-.17-.73-.58.37-.33.9,0,1.51-.46a4.9,4.9,0,0,1-2.64-1,2.48,2.48,0,0,0-1.54-.32c-.33,0-.65-.09-.88.24a.56.56,0,0,1-.39.11,7.54,7.54,0,0,0-1.71.12,2,2,0,0,1-1.07-.55.36.36,0,0,0-.44-.31l-.76-.49a1.38,1.38,0,0,0-1.6-.57,1.27,1.27,0,0,1-.79-.1.53.53,0,0,0-.81-.11,1,1,0,0,1-.59-.11c-.25-.4-.85-.11-1.1-.61a1.88,1.88,0,0,1,2.16-.64c.41.16.85.39,1.3.08a1,1,0,0,1,.6.08A1,1,0,0,0,198.22,84.33Z"/><path class="cls-3" d="M219.82,135.68c-.9-1.82-2-3.52-3-5.29-.38-.67-.38-.67.33-1.34l1.54,2.57,6.85,11.48c.63,1.06,1.19,2.16,1.86,3.19a35.09,35.09,0,0,0,2.48,2.7,52,52,0,0,1,4.49,5.86.9.9,0,0,1,.22.55c-.2.26-.42,0-.62,0-1.77-.56-3.54-1.16-5.32-1.72a1,1,0,0,1-.76-.9c-.21-1.31-.47-2.62-.67-3.94a4,4,0,0,0-.53-1.49c-1-1.58-1.8-3.26-2.85-4.8-.83-1.7-1.86-3.29-2.81-4.93A10.71,10.71,0,0,0,219.82,135.68Z"/><path class="cls-3" d="M194.68,118.77a65.32,65.32,0,0,1,7.65.85,2.79,2.79,0,0,1,.57.14c.28.12.34.35.14.56-.73.78-1.48,1.53-2.23,2.29-.12.13-.3.11-.47.11a38.51,38.51,0,0,1-5.78-.35,5.52,5.52,0,0,1-2.62-1.14,14.25,14.25,0,0,1-1.75-1.63c-.38-.4-.32-.61.21-.76a3,3,0,0,1,.79-.07Z"/><path class="cls-2" d="M202.86,87.2a2.48,2.48,0,0,1,1.54.32,4.9,4.9,0,0,0,2.64,1c-.61.45-1.14.13-1.51.46.08.41.45.46.73.58a19.7,19.7,0,0,1,4.58,3.14A12.91,12.91,0,0,0,213,94.44a1.85,1.85,0,0,1-2.54.88A34,34,0,0,1,205.59,92c-.91-.77-1.23-.74-2.25,0a9.18,9.18,0,0,0-2.56,2.17,2,2,0,0,1,.73-1.56,9.65,9.65,0,0,1,2-1.43c.36-.21.53-.38.25-.85a10.87,10.87,0,0,1-.89-3A.07.07,0,0,0,202.86,87.2Z"/><path class="cls-3" d="M191.8,87.07a1.27,1.27,0,0,1,1.44.75q6.56,11.27,13.16,22.49c.3.52.56,1.06.9,1.56a2.29,2.29,0,0,1,.26,2.09c-.36,0-.4-.34-.52-.55q-2.64-4.53-5.26-9.07c-.17-.29-.37-.55-.55-.83s-.28-.6-.44-.89q-2.4-4.14-4.81-8.29C194.58,91.92,193.2,89.49,191.8,87.07Z"/><path class="cls-2" d="M176.58,124.81a18.64,18.64,0,0,1-3.62.68,49.93,49.93,0,0,1-6,.45,1.83,1.83,0,0,1,1.23-.55,38.19,38.19,0,0,0,5-1.53c1.28-.48,2.54-1,3.85-1.39a7.7,7.7,0,0,1,1.91-.31c-.05-.52-.54-.5-.64-.83a15.44,15.44,0,0,1,4.33-.43c-.13.37-.46.55-.7.81a.57.57,0,0,0-.09.8c-1.48.59-3,1.13-4.42,1.82A2.8,2.8,0,0,0,176.58,124.81Z"/><path class="cls-2" d="M213.67,132.14c-1.59,1.9-3.72,2.27-6,2.14a25.81,25.81,0,0,1-5.38-.94,7.87,7.87,0,0,1,1.53-1.09,1,1,0,0,1,.77-.12c.56.07,1.12.13,1.67.21a10.51,10.51,0,0,0,7.47-1.75c.46-.3.69-.9,1.29-1,0,.46-.42.76-.41,1.21l0,0-.16.15C214.16,131.32,213.68,131.58,213.67,132.14Z"/><path class="cls-3" d="M207.86,98.87c.7-.23.68-1,1.21-1.38.59,1.82,0,3.31-1.1,5-.24-.82-.46-1.43-.58-2A1.54,1.54,0,0,0,206.2,99c-.67-.17-.69-.32-.59-1,0-.17.07-.33.1-.49s0-.33.08-.53c-.48-.22-1,0-1.46-.11-.71-.1-.83-.21-.86-.94a8.11,8.11,0,0,0,0-1c-.1-.54.19-.77.62-1s.62.1.82.34a6.17,6.17,0,0,0,2.3,1.71,1.09,1.09,0,0,1,.7,1.19C207.84,97.7,207.86,98.23,207.86,98.87Z"/><path class="cls-2" d="M191.8,87.07c1.4,2.42,2.78,4.85,4.18,7.26q2.4,4.15,4.81,8.29c.16.29.29.6.44.89-.13.44,0,.91-.2,1.33-1.07-1.83-2.13-3.66-3.21-5.49-.18-.31-.39-.61-.59-.91-.88-1.8-1.94-3.49-2.92-5.23s-2.12-3.7-3.18-5.55a1.47,1.47,0,0,1-.3-.78A2.75,2.75,0,0,1,191.8,87.07Z"/><path class="cls-2" d="M191,123.83a2.4,2.4,0,0,0-.35-1.61c-.34-.75-.7-1.48-1.06-2.22a7.77,7.77,0,0,1,1.77,3.07,7.07,7.07,0,0,1,.32,3.92c-.15.56.06.78.55,1,.87.29,1.73.62,2.64,1a3.16,3.16,0,0,1-.91,1.2.58.58,0,0,1-.64.13L188.94,129c-.1-.1-.1-.16,0-.19,1.78-.7,2.33-1.51,2.24-3.41C191.14,124.88,191,124.36,191,123.83Z"/><path class="cls-3" d="M196.18,84.26c-.45.31-.89.08-1.3-.08a1.88,1.88,0,0,0-2.16.64c.25.5.85.21,1.1.61a2.14,2.14,0,0,1-1.72-.52c-.47.42-.21,1-.32,1.46a1,1,0,0,1-1-.68c-.21-.49-.37-1-.94-1.17a.61.61,0,0,1-.29-.49c.42,0,.64-.22.86-.53s.27-.69.73-.69a3.46,3.46,0,0,1,3,.11c.14.08.38.18.29.34-.39.69.23.57.53.67S195.77,84.16,196.18,84.26Z"/><path class="cls-2" d="M219.82,135.68a10.71,10.71,0,0,1,1.2,1.93c.95,1.64,2,3.23,2.81,4.93-.14.49,0,1-.22,1.51-1.18-1.67-2.08-3.51-3.13-5.26a6.52,6.52,0,0,1-.84-1.56Z"/><path class="cls-2" d="M198.65,135.13c-1.61.92-3.24,1.79-4.91,2.59-.3.14-.59.31-.9.44a2.59,2.59,0,0,0-1.91,2.78c-.4-.15-.88-.14-1.16-.54l.72-1.54a2.36,2.36,0,0,1,1.39-1.07c1.58-.69,3.18-1.35,4.79-2A7.67,7.67,0,0,1,198.65,135.13Z"/><path class="cls-3" d="M191.14,82.81c-.46,0-.54.42-.73.69s-.44.57-.86.53a3,3,0,0,1-.78-1.18v-.69c.72-.39,1.31-1,2.07-1.31a4.16,4.16,0,0,1,2.24,0c.26,0,.63,1.13.51,1.4s-.33.16-.51.12A2.15,2.15,0,0,0,191.14,82.81Z"/><path class="cls-3" d="M210.47,87.76c-.42.07-.67-.26-1-.44a14.67,14.67,0,0,0-1.82-1c-.37-.16-.69-.35-1.08,0-.16.15-.36,0-.4-.27l-.21-.27,0,0c-.53-.44-1.27-.23-1.82-.6-.15-.64-.69-.56-1.16-.62s-.79.17-1.06-.26a3.7,3.7,0,0,1,2.06.18,26.7,26.7,0,0,1,5.59,2.57C209.93,87.28,210.29,87.42,210.47,87.76Z"/><path class="cls-4" d="M214.59,130.81c0-.45.45-.75.41-1.21h0a.3.3,0,0,0,.22-.41l0,0c.19,0,.16-.14.16-.26a16.86,16.86,0,0,0,1.45-2.8,2.35,2.35,0,0,1-.21,2.47A24.37,24.37,0,0,1,214.59,130.81Z"/><path class="cls-4" d="M165.41,132.4l-2.07-.63c-.11-1.24-.11-1.24,1.2-1.44.83-.13.83-.13.84.69Z"/><path class="cls-2" d="M203.41,101.78c-.54.25-.62-.16-.7-.51-.13-.61-.22-1.23-.35-1.84a1.45,1.45,0,0,0-.49-.94c.77-.11,1.14.12,1.27.91S203.32,101,203.41,101.78Z"/><path class="cls-4" d="M218.48,124.57l1,.05a11,11,0,0,1-1.57,2.26l-.57-1.75c.25-.34.58-.16.85-.18S218.5,124.81,218.48,124.57Z"/><path class="cls-3" d="M201.18,84.27a2.81,2.81,0,0,1-2,0A4.63,4.63,0,0,1,201.18,84.27Z"/><path class="cls-3" d="M199.88,87.67a7.54,7.54,0,0,1,1.71-.12A1.62,1.62,0,0,1,199.88,87.67Z"/><path class="cls-3" d="M196,85.75a1.38,1.38,0,0,1,1.6.57Z"/><path class="cls-3" d="M198.22,84.33a1,1,0,0,1-1.44,0A2.93,2.93,0,0,1,198.22,84.33Z"/><path class="cls-3" d="M194.41,85.54a.53.53,0,0,1,.81.11A1,1,0,0,1,194.41,85.54Z"/><path class="cls-3" d="M211.24,88.38a.57.57,0,0,1-.65-.53A1,1,0,0,1,211.24,88.38Z"/><path class="cls-3" d="M202.86,87.2a.07.07,0,0,1,0,.09l-.92.15C202.21,87.11,202.53,87.15,202.86,87.2Z"/><path class="cls-3" d="M188.78,82.16v.69C188.51,82.62,188.29,82.39,188.78,82.16Z"/><path class="cls-4" d="M217.7,122.86a.57.57,0,0,1-.12.76A.89.89,0,0,1,217.7,122.86Z"/><path class="cls-3" d="M198.37,86.81a.36.36,0,0,1,.44.31A.47.47,0,0,1,198.37,86.81Z"/><path class="cls-3" d="M212.21,89.2a.37.37,0,0,1-.42-.37A.52.52,0,0,1,212.21,89.2Z"/><path class="cls-2" d="M215.22,129.2a.3.3,0,0,1-.22.41C214.9,129.38,215,129.28,215.22,129.2Z"/><path class="cls-2" d="M189.6,120c-.13,0-.15-.05-.15-.15Z"/><path class="cls-2" d="M215.36,129c0,.12,0,.25-.16.26Z"/><path class="cls-4" d="M214.45,130.94l.16-.15Z"/><path class="cls-2" d="M122.74,120.74a30,30,0,0,0-6.76.33,6.33,6.33,0,0,0-2.23.82c-.17.1-.39.16-.34.44s.36.08.54,0a34.53,34.53,0,0,1,10.15.05,90.37,90.37,0,0,1,10.14,2.24,1.51,1.51,0,0,1,.17.1c1.42,2.06,2.84,4.11,4.25,6.17q4.67,6.8,9.31,13.6c.14.21.37.39.33.7-.29.14-.52,0-.76-.13-2-.76-4.07-1.47-6.06-2.32-3.19-1.37-6.47-2.48-9.73-3.62a52.88,52.88,0,0,1-12.3-6.34,30.36,30.36,0,0,1-5.87-5.39,5.8,5.8,0,0,1-1.22-4.2A1.89,1.89,0,0,1,113,122a5.87,5.87,0,0,1,4-1.64A30,30,0,0,1,122.74,120.74Z"/><path class="cls-2" d="M142.1,127a2.44,2.44,0,0,1,1,.21l6.42,2a2.31,2.31,0,0,1,.35.18c1,2,2,4,3,6l6.69,13.05a1.65,1.65,0,0,1,.31.83c-.24.2-.45,0-.65-.06-1.38-.48-2.75-1-4.14-1.47a1.74,1.74,0,0,1-.95-.82l-10.84-17.82A10.89,10.89,0,0,1,142.1,127Z"/><path class="cls-1" d="M204.2,85.21c.55.37,1.29.16,1.82.6a7.28,7.28,0,0,0-2.94,0,1.33,1.33,0,0,1-1-.31A8,8,0,0,1,204.2,85.21Z"/><path class="cls-1" d="M206,85.78l.21.27Z"/><path class="cls-1" d="M194.12,82.92a3.05,3.05,0,0,0-2.13-.16c-.3,0-.63.06-.75.38s.33.36.38.62c-.05,0-.09.14-.13.14-.88-.09-1,.13-1.08,1.31-.29-.33-.78-.54-.9-1.08.45,0,.64-.26.81-.6a2.33,2.33,0,0,1,2.84-1.34c.44-.1.21-.59.28-.87.61.2.64.41.52,1.11C193.92,82.72,193.94,82.71,194.12,82.92Z"/><path class="cls-1" d="M194.77,83.86c-.29-.08-.23-.25-.13-.44a3.05,3.05,0,0,0-2.24,1.08c-.21.22-.6.63-.4,1,.15-.19.32,0,.51-.3C193.62,83.62,194.77,83.86,194.77,83.86Z"/></svg>