<svg id="frames" xmlns="http://www.w3.org/2000/svg" viewBox="0 0 384 216"><defs><style>.cls-1{fill:#0f1b33;}.cls-2{fill:#1d293e;}.cls-3{fill:#f90203;}.cls-4{fill:#aeb1b0;}.cls-5{fill:#fbf9fa;}</style></defs><path class="cls-1" d="M152.5,97.45l8.74-6.22a5.8,5.8,0,0,1,2.28-1.09,1,1,0,0,1,1.24.39,1.34,1.34,0,0,1,0,1.5,4.33,4.33,0,0,1-1.32,1.2q-4.78,3-9.56,6.14c-.68.44-.68.45-.46,1.19s.37,1.2.56,1.81l-1.33.33c-.45.11-.58.37-.4.79a4.12,4.12,0,0,1-1.21.45A30.56,30.56,0,0,0,145,106.6a2.12,2.12,0,0,0-1,.73c0,.09,0,.14.05.15l5.91,2.08a2.29,2.29,0,0,0,1.37,0,19.88,19.88,0,0,1,7.66-1,14.69,14.69,0,0,0,2.2,0,20.2,20.2,0,0,0,4.24-.56,1.92,1.92,0,0,0,1-.16,25.8,25.8,0,0,0,6.6-2c2.61.3,5.18.89,7.81,1-.09,1.59-.11,3.21-1.66,4.34.38.18.67.33,1,.45l4.12,1.75c.88.37.93.33,1.35-.52a.55.55,0,0,0-.2-.83,6.18,6.18,0,0,0-1.3-.73,2.88,2.88,0,0,1-2.06-3,14.37,14.37,0,0,0-.4-3.75l.37,0a6.6,6.6,0,0,1,.75,1.28,3,3,0,0,0,1.76,1.38,7.84,7.84,0,0,0,2.36.35,2.85,2.85,0,0,0,1.74-.63,10.47,10.47,0,0,0,2.41-2.89c.26-.42.12-.54-.26-.71-.56-.25-1.16-.26-1.73-.46a57.47,57.47,0,0,0-7.56-1.73,1.6,1.6,0,0,0-.78-.06c-.26.06-.27.25-.2.46l-.33,0-.43-.41c-.22-.2-.44-.3-.65,0-1.93-.17-3.86-.11-5.78-.12a8.18,8.18,0,0,0-2.58.13,7.88,7.88,0,0,1-3.33.31,3.61,3.61,0,0,0-1.85.27c-.77.33-1.52.69-2.27,1-.24.11-.62.31-.73.1-.3-.62-.79-.32-1.2-.34-.7-.05-1.4,0-2.09,0l.39-.47a11.55,11.55,0,0,1,2.49-.07,4.9,4.9,0,0,0,2.45-.61,1.45,1.45,0,0,0,.92-1.61c0-6.55,0-13.11-.06-19.66a.7.7,0,0,1,.54-.79A3.09,3.09,0,0,1,167.1,79l4.29,0,.42,0a13.17,13.17,0,0,1,1.79,1.87c1.85,2.18,3.66,4.4,5.5,6.59.15.19.53.6.53.6l.37-1.51c.23.25.46.48.67.74q5.78,7.06,11.54,14.15c.19.24.31.59.69.63.35-.49.62-1,.11-1.51l.15-.11c.66.12.66.12,1.59-.2a1.08,1.08,0,0,0,.88-1.3c0-.24-.11-.37-.35-.37h-3.11a1.73,1.73,0,0,0,.22.78c.06.17.13.27,0,.3A4.56,4.56,0,0,1,191,98.26Q183.94,89.64,176.87,81a5.45,5.45,0,0,0-2.42-1.83,1.36,1.36,0,0,0-.84-.46c-.26-.18-.53-.36-.78-.57a1.18,1.18,0,0,0-1.66-.05,1.6,1.6,0,0,1-1.46-.6,1.19,1.19,0,0,0-1.43-.57c-.27.1-.41-.09-.48-.35a1.89,1.89,0,0,0-.82-1.2.78.78,0,0,1-.28-1,7.17,7.17,0,0,0,.48-2.51l.25-.79c.6-.32,1.19-.59,1.45-1.35.2-.59,1-.59,1.47-.07a3.82,3.82,0,0,1,.39.57c.1.14.24.3.4.21.75-.39.88.21,1.13.66.36.67.75,1.31,1.13,2l-.23.22a15.59,15.59,0,0,1-3.45-3.43c-.28.39-.44.88-.84,1-1,.35-1.12,1.15-1.1,2a3.28,3.28,0,0,1-.1.69,1.18,1.18,0,0,0,.7,1.47,10.72,10.72,0,0,1,1,.64,4.61,4.61,0,0,0,2,.9c.17-.69.17-1.45.77-2l.25.25c0,.18-.26.31-.12.52l-.1.44c-.29.44-.34,1,.16,1.16a3,3,0,0,0,1.4.52c0-.37,0-.73,0-1.08a2.17,2.17,0,0,1,.62-1.51c.12-.12.27-.33.49-.12a4.8,4.8,0,0,0-.64,1.92c0,.87.08,1,.91,1.29l4.84,1.6a13.55,13.55,0,0,0,4.24,1.06c-.36.29-.13.45.13.58.9.44,1.79.88,2.7,1.29a4.21,4.21,0,0,1,1.2.69,23.07,23.07,0,0,0,2.92,2.08,12.82,12.82,0,0,0,3.84,1.6c.19.05.45.15.58.07.82-.48,1.67-.92,2-1.93a3.55,3.55,0,0,0-.63-4.77,12.07,12.07,0,0,0-3.74-2c-2.39-.93-5-1.17-7.4-2-.84-.29-1.74-.43-2.61-.66a29.26,29.26,0,0,0-8.34-.76c-.2-.22-.34-.51-.65-.62l.19-.28a52.6,52.6,0,0,1,7.49.89c1.73.41,3.51.64,5.25,1a7.42,7.42,0,0,1,1.67.6,8.28,8.28,0,0,0,3,.56.41.41,0,0,0,.42.07l.86.3a2,2,0,0,0,1.35.1c.81-.3,1.64-.54,2.46-.81a4,4,0,0,1,1.91,1.65,1.82,1.82,0,0,0,1.8.94,14.33,14.33,0,0,1,3.07.07,2,2,0,0,0,1.5-.52c.91-.64,1.62-1.51,2.57-2.1A17.66,17.66,0,0,1,211,74.12a5.27,5.27,0,0,1,3.13-.55c.47,0,.68.39.8.79a1.28,1.28,0,0,1-.38,1.45,15.64,15.64,0,0,1-1.83,1.31c-2.31,1.4-3.78,2.52-3.78,2.52s.15.17.29.14a25.12,25.12,0,0,0,2.57.73,29.52,29.52,0,0,1,10,5.21c.05,0,.41.41.47.44a76.62,76.62,0,0,1,12.55-9.34,7,7,0,0,1,2.25-1.09,3.41,3.41,0,0,1,1.19,0,1.26,1.26,0,0,1,1,1.54,4.08,4.08,0,0,1-1.14,1.92,12.18,12.18,0,0,0,2.22.11,5.59,5.59,0,0,0,3.93-1c2.25-1.6,4.74-2.82,7.1-4.25a4.6,4.6,0,0,1,4.14-.73c.63.24,1.13.59,1.07,1.37a.52.52,0,0,0-.17.41,22.12,22.12,0,0,1-3.94,2.55c-.83.52-1.7,1-2.63,1.5a1.09,1.09,0,0,0,.79.17c.73,0,1.46,0,2.19,0A5,5,0,0,0,256,78.4a9.77,9.77,0,0,1,3.37-1.11,1.29,1.29,0,0,0,.82-.1h1a.84.84,0,0,0,.62.1,7.77,7.77,0,0,1,1.29.49,2.32,2.32,0,0,1,1.33,2.42l-.19.4a4.86,4.86,0,0,1-1.85,2.16c-1.74,1.29-3.59,2.42-5.39,3.62-2.8,1.85-5.62,3.67-8.44,5.52l-2.92,2,6.07-2.18c1.89-.68,3.77-1.41,5.68-2s3.68-1.28,5.52-1.93a10.76,10.76,0,0,1,3-.62,3.55,3.55,0,0,1,.8,0c.84.15,1.11.51,1.13,1.44a.57.57,0,0,0-.25.39,18.6,18.6,0,0,1-3.89,2.57L257.6,95l3.4-1.24c.66-.11,1.34-.38,1.91.23v.64a5.56,5.56,0,0,1-2.64,1.67c-3.42,1.39-6.85,2.72-10.28,4.08-1.43.57-1.43.58-1.42,2.13,0,.64,0,1.27,0,1.9,0,.15,0,.28.19.23q2.31-1.16,4.61-2.32a6.72,6.72,0,0,1,2.63-.7,2.42,2.42,0,0,1,.89.06,1.38,1.38,0,0,1,1.07,1.06c.1.57-.37.81-.75,1.06A10.2,10.2,0,0,1,254.5,105c-1.84.57-3.58,1.39-5.38,2a.75.75,0,0,0-.57.81c0,1.12-.07,2.25-.08,3.39,0,1,0,1,.91.53l9-4.11c1-.46,2-.8,3-1.27,0,0,1.93-.7,2.45-.36,1.08.7,1,1.28.61,2.21a8.34,8.34,0,0,1-2.34,2.6c-2.38,1.42-4.77,2.81-7.15,4.22a.39.39,0,0,0-.26.34c.88,0,1.76.1,2.64.12s1.81,0,2.7,0a5.79,5.79,0,0,0,2.85-.67,62.62,62.62,0,0,0,7.71-4.4c2.41-1.6,3.87-2.39,8.84-7.43.93-.93,1.92-1.81,2.81-2.77A6.38,6.38,0,0,1,283.83,99a1.4,1.4,0,0,1,2.11.49,2.17,2.17,0,0,1,.59,1.15,2.29,2.29,0,0,1-.07.73,9.08,9.08,0,0,1-.6,1.78,17,17,0,0,1-2.57,4.2c-.76,1.07-1.7,2-2.53,3-.19.18-.39.34-.57.53s-.21.28,0,.43c0,0,.13.07.64-.27a7.65,7.65,0,0,1,2.59-1.18,1.67,1.67,0,0,1,.83,0,1.6,1.6,0,0,1,.81.35c.59.58.86.58.38,1.57a14,14,0,0,1-4.57,5.31,42.26,42.26,0,0,1-5.32,3.32s-.52.26-.64.52.24.19.36.16a11.76,11.76,0,0,0,2.36-.31,14,14,0,0,0,4.5-1.9c1.33-.86,2.7-1.66,4-2.57a1.61,1.61,0,0,1,2.55.65c.21.45,0,.85,0,1.27l-.18.41a26,26,0,0,1-3.7,5.48,27.87,27.87,0,0,1-9.75,7.13,26.09,26.09,0,0,1-5,1.57c-.19,0-.38.1-.58.16a.42.42,0,0,0-.42.06l-2.18.33a3.72,3.72,0,0,0-1.41.08H249c-.25,0-.51,0-.52.33a4.23,4.23,0,0,0,.12,1.83,8,8,0,0,1,3-1.52,1.11,1.11,0,0,0,.65,0c.91.51,1.09,1.25.45,2a3.46,3.46,0,0,1-.67.59l-7.3,4.66a88.52,88.52,0,0,0-7.56,5.56,69.89,69.89,0,0,0,6.94-3.69l3.64-2c.57-.22.62-.23.62.33q0,5.44,0,10.89v8.09a5.43,5.43,0,0,1,0,.7,1.31,1.31,0,0,1-1.3,1.24c-.73,0-1.46,0-2.2,0-5.62-.14-11.25,0-16.88-.06-1.87,0-1.86,0-1.84-1.83s.05-3.67,0-5.5a1.18,1.18,0,0,1,.82-1.25c1.95-.92,3.8-2.05,5.77-2.94a6.27,6.27,0,0,0,1-.58c.3-.24.7-.67.23-1a2,2,0,0,0-1-.08,3.63,3.63,0,0,0-1.93.73l-4.14,2.82a.92.92,0,0,1-.6.25,8.82,8.82,0,0,1-.1-2.3c0-.8,0-1.6,0-2.4v-2.4c0-.8,0-1.6,0-2.39a15.63,15.63,0,0,0-.06-2.45c-.46.08-.88.15-1.29.24a5.88,5.88,0,0,1-2.09,0,3.15,3.15,0,0,1-2.28-1.42c-1.42-2.29-2.83-4.58-4.1-6.95L215,130.41a25.8,25.8,0,0,1-4.72,1.69,26.28,26.28,0,0,1-3.68.7l-1.4.22c-1.32.16-2.8.23-5.18.33l-6.35.25c0,.19.16.22.3.25,1.73,1.28,3.48,2.53,5.19,3.84,2.77,2.11,5.41,4.37,8.07,6.61a80.7,80.7,0,0,1,6.43,6c1.05,1.11,2,2.28,3,3.43.28.33.23.57-.13.78a.49.49,0,0,1-.18.08c-1.46.21-2.88.68-4.36.85a50.43,50.43,0,0,1-7.87.12c-1.45-.05-2.91-.21-4.36-.32l-.62-.09c-2.77-.34-5.52-.82-8.27-1.25a19.06,19.06,0,0,0-3.13-.61c0,1.45-.07,2.88-.09,4.31,0,1.13,0,2.26-.06,3.39,0,.9-.33,1.19-1.2,1.24H149.94c-1.12,0-1.35-.13-1.62-1.13l-3-9.3c-.34-.73-.29-.76-1.12-.76h-23.6c-1,0-.87.11-1.1.79-.9,2.7-1.61,5.45-2.46,8.17,0,.06,0,.13,0,.2-.64,1.73-.79,1.82-2.66,1.84-2.43,0-4.87,0-7.3.08-3.59.13-7.18.16-10.78.22-1,0-1.92.08-2.89.06-.42,0-.8-.07-.92-.57a.84.84,0,0,1,0-.4l25.81-81.54c.18-.63.58-.71,1-.84a1.67,1.67,0,0,1,.5,0h25.74c1,0,1.26.18,1.62,1.21.18.53.46,1.33.65,1.85l3.06-2.8a1.23,1.23,0,0,1,.42-.26c.36-.11.75-.21,1,.17s0,.65-.23.89c-1.14,1.12-2.28,2.23-3.44,3.32-.25.24-.35.38-.22.75.64,1.79,1.1,3.65,1.78,5.44l.14.32,2.87-3.38a3.63,3.63,0,0,1,1.29-.75c.33-.07.67-.29,1,0,.66.66-.8,2.17-.8,2.17-1,1-2,2.06-3,3l-.78.83s1,3.46,1.4,4.61l.33,1m93.15-3.55-53,21.57a.85.85,0,0,0,.47-.34c.12-.08.25-.14.26-.31a14.27,14.27,0,0,0,2.87-4,22,22,0,0,0,1.46-4.66,1.54,1.54,0,0,1,.38,1.13,11.21,11.21,0,0,1-1.06,5.13c-.07.16-.41.36,0,.55,0-.1-.05-.17-.16-.16a.14.14,0,0,0,0,.08c0,.12.13.08.21.06l.43-.24a13.55,13.55,0,0,0,3.9-2.57,1.75,1.75,0,0,0,.53-1.5,9.72,9.72,0,0,0-1.26-3.85c-.49-.91-1-1.83-1.47-2.73a2,2,0,0,0-1.75-1.12,8.4,8.4,0,0,0-3.1.62c-.25.08-.32.32-.43.52-.38.74-.74,1.49-1.17,2.21-1.59,2.65-3.23,5.27-5,7.84a36.51,36.51,0,0,1-10.34,10.56c-.12.08-.31.12-.27.41l4,2.42a4.9,4.9,0,0,1,1.66-2.24c1.23-.8,2.35-1.74,3.5-2.65a26.2,26.2,0,0,0,6.72-7.83,36.74,36.74,0,0,0,1.93-3.26c.05-.12.13-.25.29-.21a.29.29,0,0,1,.18.4,9,9,0,0,1-.34,1,26.92,26.92,0,0,1-2,3.82c-.16,0-.2.19-.25.31a.78.78,0,0,0-.28.55l-.12.12C192.57,115.61,192.63,115.56,192.69,115.47ZM211.8,95.4a46.59,46.59,0,0,1,.26,4.87c.54-1.18,1-2.36.34-3.65a8.3,8.3,0,0,1-.44-1.21c.1-.27-.3-.32-.3-.63C211.87,95,211.53,95.26,211.8,95.4Zm13.93,39c.18.18.38.35.5,0a3.62,3.62,0,0,0,.16-1.18c0-2.4,0-4.8,0-7.19,0-1.17,0-2.33,0-3.5,0-.17,0-.35-.19-.42s-.28.09-.38.23a22.13,22.13,0,0,1-6.7,5.85.71.71,0,0,0-.54.49,13.78,13.78,0,0,1-3.54-2.86c-1.22-1.46-2.5-2.87-3.76-4.29l-5.3-6c-.6-.67-.6-.68-.12-1.45.34-.54.71-1,1.05-1.58a24.92,24.92,0,0,0,4.1-12.07,34.78,34.78,0,0,0-.32-6.76c-.21-1.67-.22-3.37-.48-5.05a1.31,1.31,0,0,0-.25-.73,17.11,17.11,0,0,0-1.29-1.4,23.11,23.11,0,0,0-8-5c-.2-.07-.4-.26-.72,0l.55,1a3.89,3.89,0,0,1,.27.54.3.3,0,0,1-.17.41.28.28,0,0,1-.34-.13c-.2-.27-.36-.56-.54-.84-.14-.57-.58-1-.69-1.61-.06-.29-.36-.4-.73-.26l.93,2c-.1.41.14.78.15,1.18a6.27,6.27,0,0,1-.86,3.13,1.17,1.17,0,0,0,.18,1.54,5.78,5.78,0,0,0,.49.5c.92.87,1.85,1.73,2.76,2.61.39.37.33.6-.19.75a4.16,4.16,0,0,1-1.79.09c-.22,0-.5-.21-.72.09a25.68,25.68,0,0,1,2.69,3.09c-1.06-.14-2-.76-3-.87a.82.82,0,0,0-.06.71c.24,1,.46,2,.75,3a4.88,4.88,0,0,1,.24,2.07,1.61,1.61,0,0,0,.74,1.7.37.37,0,0,0,0,.18c.13.14.4.31.37.41-.15.61.25,1,.49,1.46a15.91,15.91,0,0,1,1.75,6.17,2,2,0,0,0,.59,1.29.42.42,0,0,1-.3.43c-.64-.1-.77.44-1,.83a9.24,9.24,0,0,1-4.47,4.36,7.13,7.13,0,0,1-4.73.7c-.26-.06-.55-.17-.78,0a16.36,16.36,0,0,0-2.11,1.36,6,6,0,0,0,1.28.85,9.16,9.16,0,0,0,6.58,1.39,2.74,2.74,0,0,0,1.06-.24,8.4,8.4,0,0,0,3.82-3.79l1.77-2.1,2.94,3.55-.24,1.53c.5.43,1.71,1.68,2.16,2.17.67.68.6.84.6.84.11-.34.28-.83.39-1.17,1.66,1.74,3.18,3.59,4.73,5.42a2.05,2.05,0,0,1,.39.69c.84,2.32,2,4.51,3,6.73a36.78,36.78,0,0,0,2.2,3.8,2.64,2.64,0,0,0,2.86,1.37l.2,0a9.13,9.13,0,0,0,3.42-1c.77-.41.83-.68.43-1.43a7,7,0,0,0-.9-1.32l-1.82-2A.46.46,0,0,1,225.73,134.41Zm-86.86-25.47a2.23,2.23,0,0,0,.18,1.64c1,2.65,2,5.3,3,7.94L149,137a1.81,1.81,0,0,0,.79,1.09c2.18,1.22,4.35,2.46,6.58,3.58.15.08.32.26.54,0-.05-.18-.1-.37-.16-.56q-3.44-10.11-6.87-20.23c-1-3-2-6.06-3-9.1.19.07.39.11.57.19q4.24,1.75,8.39,3.72,7.77,3.68,15.25,7.89a302.4,302.4,0,0,1,28.25,18.06,92.73,92.73,0,0,1,13.76,12,.92.92,0,0,0,1,.36c.34-.12.73-.07,1-.34-.06-.08-.1-.17-.16-.25a81.58,81.58,0,0,0-6.74-6.67c-2-1.83-4.18-3.4-6.31-5.06-4.09-3.2-8.25-6.28-12.57-9.16a232.29,232.29,0,0,0-32.95-18.11,156.24,156.24,0,0,0-24.62-9,48.45,48.45,0,0,0-13.86-1.95c-.56,0-1.13,0-1.69.1-.74.07-.79.17-.55.86.18.5.38,1,.57,1.49-.67.41-.6.39-.38,1.08a19,19,0,0,0,1.47,2.7,35,35,0,0,0,2.47,4.11,41.18,41.18,0,0,0,5.67,6.42c.75.71,1.47,1.44,2.21,2.16l-1.8,5.79a1.3,1.3,0,0,0,0,1h4.66c1.93,0,3.85,0,5.77.06,1.2.63,2.14,1.67,3.56,2.31-.22-.53-.34-.87-.49-1.2q-3.21-7.41-6.43-14.81-2-4.71-4.06-9.42A60.74,60.74,0,0,1,138.87,108.94Zm17.48.92c.27.87.53,1.62.71,2.39a1.37,1.37,0,0,0,.86,1c2.32,1.07,4.63,2.17,6.94,3.26a.55.55,0,0,0,.57,0v-6.19c0-.31-.2-.37-.46-.38-.6,0-1.2,0-1.79-.1A59.78,59.78,0,0,0,156.35,109.86Zm31.88-11.12-.23.09c0,.36,0,.71,0,1.07,0,.56-.2,1.2.12,1.65a4.79,4.79,0,0,0,1.5.56c.66.26,1.3.4,2,.64Zm11.08-18.87a26.14,26.14,0,0,0-1.94-2.25.77.77,0,0,0-1-.12c-.29.2-.71.2-.91.6a6.94,6.94,0,0,1,1.45.89A3.53,3.53,0,0,0,199.31,79.87ZM211.43,104a2.36,2.36,0,0,0,.76-1.32c.43-1,.84-2,1.25-3,.08-.18.18-.41-.06-.52s-.36.11-.44.29c-.33.8-.66,1.6-1,2.4A5.55,5.55,0,0,0,211.43,104ZM191.52,87.25c0,.29.11.68.2,1.07a.27.27,0,0,0,.31.2.26.26,0,0,0,.25-.26,3.24,3.24,0,0,0-.13-1.28.45.45,0,0,0-.46-.32C191.4,86.71,191.5,87,191.52,87.25ZM171.72,71a.3.3,0,0,0-.28-.3c-.11,0-.19.07-.17.18a.34.34,0,0,0,.24.27C171.61,71.15,171.69,71.1,171.72,71Z"/><path class="cls-2" d="M208.29,27.06a13.32,13.32,0,0,1,4.88-2.59c3.34-1.18,6.7-2.29,10.07-3.41A49.72,49.72,0,0,1,232,19.24a58.32,58.32,0,0,1,9.06-.66,13.51,13.51,0,0,1,10.12,4.84A7.93,7.93,0,0,1,253,27.37a16,16,0,0,1,.17,2.59,2.24,2.24,0,0,1-.63,1.73,26.18,26.18,0,0,1-5.16,4.18A41.61,41.61,0,0,1,242,38.2a66,66,0,0,1-6.86,2.08c-2.59.68-5.15,1.48-7.78,2-1.37.28-2.76.45-4.11.81a.77.77,0,0,1-.88-.17c.06-.28.26-.34.44-.41a10.81,10.81,0,0,1,1.92-.56,64.33,64.33,0,0,0,7.37-1.79c1.34-.39,2.69-.75,4-1.1a49.94,49.94,0,0,0,9.08-3.34,20.06,20.06,0,0,0,5.12-3.94,2.13,2.13,0,0,0,.64-1.63,9.85,9.85,0,0,0-3.38-7.49c-.32-.29-.69-.53-1-.81a9.55,9.55,0,0,0-6.56-2.24,54.89,54.89,0,0,0-16.84,2.5A107.6,107.6,0,0,0,210,27,1.79,1.79,0,0,1,208.29,27.06Z"/><path class="cls-2" d="M75.32,67.68a16.54,16.54,0,0,0,2.91,1.78c.3.12.51.27.78,0s.14-.55-.08-.78c-.54-.58-1.09-1.17-1.65-1.73-2.87-2.88-4.65-4.47-7.73-7.11a87.24,87.24,0,0,0-8.17-6.3,1.42,1.42,0,0,0-2.06.5.54.54,0,0,1,.14.61,6.91,6.91,0,0,0,1.72,2.28A131.65,131.65,0,0,0,75.32,67.68Z"/><path class="cls-1" d="M220.1,55.3l-2.74.5a.75.75,0,0,1,.45-.6s6.83-4.2,21-5a2.5,2.5,0,0,1,1.44.4c.38.24,1,.39.93.93s-.62.65-1.05.76a17.17,17.17,0,0,1-2.25.43c-3.86.5-7.71,1-11.58,1.51C223.51,54.63,220.1,55.3,220.1,55.3Z"/><path class="cls-2" d="M205.62,17.07c.94.49,1,.87.35,1.66a18,18,0,0,1-2.35,2,34.76,34.76,0,0,1-5.54,3.59c-3,1.65-6,3.36-9,5.06-.79.45-1.56.95-2.36,1.4A6.73,6.73,0,0,0,185.16,32a1.22,1.22,0,0,1-1,.45l-.07-.42a32.54,32.54,0,0,1,4.11-4.81,40.84,40.84,0,0,0,3.11-2.92,7.4,7.4,0,0,1,1.46-1.15c.78-.5,1.44-1.13,2.17-1.68a33.64,33.64,0,0,1,2.89-1.79l1.07-.68a11.46,11.46,0,0,1,5.35-1.78,4.63,4.63,0,0,0,.49-.09A1.71,1.71,0,0,0,205.62,17.07Zm-17,11.59c.3-.18.53-.22.65-.43,1-.41,3.35-1.83,3.63-2,3-1.68,3.23-1.83,6.23-3.5a40.32,40.32,0,0,0,5.08-3.52,5.68,5.68,0,0,0,.78-.77c.13-.14.26-.33.13-.54s-.28-.13-.45-.13a5.6,5.6,0,0,0-1.85.38,23.56,23.56,0,0,0-6.56,3.56c-7.07,5.77-7.64,7-7.64,7"/><path class="cls-2" d="M67.92,79.41c.45.12.51,0,.73-.2l0-.42C66.76,78,64.9,77.19,63,76.53a41.85,41.85,0,0,0-8.46-1.82,2.68,2.68,0,0,0-1.09,0,.93.93,0,0,0-.8.9c-.06.53.28.66.68.82C53.32,76.38,56.33,76.4,67.92,79.41Z"/><path class="cls-2" d="M115,13.59c0-.32.1-.65.13-1s.25-.57.63-.64.59.19.72.51a2.7,2.7,0,0,1,.12,1,83.88,83.88,0,0,1-.2,10.15,7,7,0,0,0,0,.79.36.36,0,0,0,0,.42,13,13,0,0,1-.3,1.87c-.06.15-.07.33-.13.48a.44.44,0,0,1-.49.26c-.2,0-.25-.19-.29-.36a5.59,5.59,0,0,1-.17-1.58c.19-3.83-.11-7.66,0-11.49A.32.32,0,0,0,115,13.59Z"/><path class="cls-2" d="M268.34,97.54c2.13-.89,4.38-1.48,6.51-2.41a1.94,1.94,0,0,0,.68-.4,1.11,1.11,0,0,0,.26-1.29,1,1,0,0,0-1-.64,6.21,6.21,0,0,0-2.69,1.11c-1.53.84-3,1.73-4.59,2.53,0,0-4.57,2.32-4.57,2.68C263.42,99.28,268.34,97.54,268.34,97.54Z"/><path class="cls-2" d="M267.87,104.13a12.58,12.58,0,0,1,2.33-1.87,38,38,0,0,1,4.05-2.76c1.22-.7,2.14-1.81,3.43-2.39l.09-.06q1-.49,1.35,0a1.45,1.45,0,0,1,0,1.76,2.79,2.79,0,0,1-1,.77c-2.81,1.21-5.57,2.53-8.32,3.87A3.74,3.74,0,0,1,267.87,104.13Z"/><path class="cls-3" d="M178.64,84.73A10,10,0,0,1,180,86.54l-.37,1.51s-.38-.41-.53-.6c-1.84-2.19-3.65-4.41-5.5-6.59A13.17,13.17,0,0,0,171.81,79c-.07-.18-.14-.36-.37-.4s-.23-.33-.27-.52a1.18,1.18,0,0,1,1.66.05c.25.21.52.39.78.57"/><path class="cls-2" d="M134.49,77.86a.25.25,0,0,1-.25-.27.66.66,0,0,1,.16-.46c1.34-2.13,2.69-4.26,4-6.41.37-.58.92-1,1.27-1.63a1,1,0,0,1,1.39-.27.93.93,0,0,1,.3,1.38,7.15,7.15,0,0,1-1.16,1.62c-1.64,1.83-3.3,3.64-5,5.46A1.87,1.87,0,0,1,134.49,77.86Z"/><path class="cls-2" d="M151,25.67a2.92,2.92,0,0,1-.71,1.6,26.33,26.33,0,0,1-4.14,4.3,6.4,6.4,0,0,0-1.88,2,.41.41,0,0,1-.58.22c-.23-.11-.12-.33-.12-.53,0-.5.35-.82.54-1.23a22.11,22.11,0,0,1,1.7-3.23c.72-1,1.55-1.95,2.31-2.92a3,3,0,0,1,1.71-1.06C150.47,24.73,151.19,25.11,151,25.67Zm-5.37,5.38c1.95-1.36,4.17-4.31,4.1-5.5a2.55,2.55,0,0,0-1.13.8,15,15,0,0,0-1.78,2.28A7.52,7.52,0,0,0,145.58,31s-.11.11-.1.11S145.61,31.13,145.65,31.05Z"/><path class="cls-2" d="M92.48,60.39c-.91-1-1.67-1.54-3-2.94S87.14,55,85.91,53.86a.68.68,0,0,0-1,0,.72.72,0,0,0-.17.71,42,42,0,0,0,3.09,2.92s6.27,5.54,6.9,5.55C95.05,63.06,92.48,60.39,92.48,60.39Z"/><path class="cls-3" d="M152.29,103.49c-.18-.42,0-.68.4-.79l1.33-.33a39,39,0,0,1,4.59-.48c.35,0,.71,0,1.07,0l-.39.47A30.72,30.72,0,0,0,152.29,103.49Z"/><path class="cls-3" d="M196.89,76.64c-.82.27-1.65.51-2.46.81a2,2,0,0,1-1.35-.1A4.85,4.85,0,0,1,196.89,76.64Z"/><path class="cls-1" d="M174.39,73.88l-.19.28a1.56,1.56,0,0,0-1.78.68l-.25-.25a1.34,1.34,0,0,1,1-.69c.35-.09.29-.28.16-.49l.24-.21C173.82,73.48,174,73.84,174.39,73.88Z"/><path class="cls-4" d="M199.18,155.12l.62.09C199.56,155.42,199.34,155.43,199.18,155.12Z"/><path class="cls-4" d="M116.36,24.82a.36.36,0,0,1,0-.42C116.62,24.57,116.56,24.7,116.36,24.82Z"/><path class="cls-4" d="M115,13.59a.32.32,0,0,1,0,.41C114.83,13.85,114.85,13.72,115,13.59Z"/><path class="cls-1" d="M173.6,73.2l-.24.21a.21.21,0,0,1-.19-.19l.23-.22A.22.22,0,0,1,173.6,73.2Z"/><path class="cls-5" d="M225.37,134.65l1.82,2a7,7,0,0,1,.9,1.32c.4.75.34,1-.43,1.43a9.13,9.13,0,0,1-3.42,1l-.2,0a2.64,2.64,0,0,1-2.86-1.37,36.78,36.78,0,0,1-2.2-3.8c-1-2.22-2.2-4.41-3-6.73a2.05,2.05,0,0,0-.39-.69c-1.55-1.83-3.07-3.68-4.72-5.42a44.32,44.32,0,0,0-2.92-3.37L205,115.51l-1.77,2.1c-.15-.27,0-.51.09-.75a6.59,6.59,0,0,0,.29-3.78,1.7,1.7,0,0,1-.09-.87c.82.29,1.26,1.24,2.24,1.3a10.68,10.68,0,0,0-1.92-1.76,2,2,0,0,1-.59-1.29,15.91,15.91,0,0,0-1.75-6.17c-.24-.44-.64-.85-.49-1.46,0-.1-.24-.27-.37-.41a4.25,4.25,0,0,0,1.42-.12,3,3,0,0,0-1.43-.06,1.61,1.61,0,0,1-.74-1.7,4.88,4.88,0,0,0-.24-2.07c-.29-1-.51-2-.75-3a.82.82,0,0,1,.06-.71c1,.11,1.94.73,3,.87a25.68,25.68,0,0,0-2.69-3.09c.22-.3.5-.12.72-.09a4.16,4.16,0,0,0,1.79-.09c.52-.15.58-.38.19-.75-.91-.88-1.84-1.74-2.76-2.61a5.78,5.78,0,0,1-.49-.5,1.17,1.17,0,0,1-.18-1.54,6.27,6.27,0,0,0,.86-3.13c0-.4-.25-.77-.15-1.18l.49-.13c.18.28.34.57.54.84a.28.28,0,0,0,.34.13.3.3,0,0,0,.17-.41,3.89,3.89,0,0,0-.27-.54l-.55-1c.32-.22.52,0,.72,0a23.11,23.11,0,0,1,8,5A17.11,17.11,0,0,1,210,87.9a1.31,1.31,0,0,1,.25.73c.26,1.68.27,3.38.48,5.05a34.78,34.78,0,0,1,.32,6.76,24.92,24.92,0,0,1-4.1,12.07c-.34.53-.71,1-1.05,1.58-.48.77-.48.78.12,1.45l5.3,6c1.26,1.42,2.54,2.83,3.76,4.29a13.78,13.78,0,0,0,3.54,2.86c1.84,1.53,3.68,3.05,5.4,4.72A8.36,8.36,0,0,0,225.37,134.65Z"/><path class="cls-3" d="M128.88,106.22q2,4.71,4.06,9.42,3.21,7.41,6.43,14.81c.15.33.27.67.49,1.2-1.42-.64-2.36-1.68-3.56-2.31-.25-.22-.49-.45-.75-.65-1.71-1.25-3.37-2.57-5-3.9-1-.77-1.81-1.66-2.84-2.33-.74-.72-1.46-1.45-2.21-2.16a41.18,41.18,0,0,1-5.67-6.42,35,35,0,0,1-2.47-4.11,19,19,0,0,1-1.47-2.7c-.22-.69-.29-.67.38-1.08a12.08,12.08,0,0,1,2.71-.55A33.11,33.11,0,0,1,128.88,106.22Z"/><path class="cls-3" d="M146.83,111.87c1,3,2,6.07,3,9.1q3.42,10.11,6.87,20.23c.06.19.11.38.16.56-.22.21-.39,0-.54,0-2.23-1.12-4.4-2.36-6.58-3.58A1.81,1.81,0,0,1,149,137l-7-18.52c-1-2.64-2-5.29-3-7.94a2.23,2.23,0,0,1-.18-1.64A69.54,69.54,0,0,1,146.83,111.87Z"/><path class="cls-5" d="M146.83,111.87a69.54,69.54,0,0,0-8-2.93,60.74,60.74,0,0,0-10-2.72,33.11,33.11,0,0,0-9.92-.78,12.08,12.08,0,0,0-2.71.55c-.19-.5-.39-1-.57-1.49-.24-.69-.19-.79.55-.86.56-.06,1.13-.08,1.69-.1a48.45,48.45,0,0,1,13.86,1.95,156.24,156.24,0,0,1,24.62,9,232.29,232.29,0,0,1,32.95,18.11c4.32,2.88,8.48,6,12.57,9.16,2.13,1.66,4.32,3.23,6.31,5.06a81.58,81.58,0,0,1,6.74,6.67c.06.08.1.17.16.25-.3.27-.69.22-1,.34a.92.92,0,0,1-1-.36,92.73,92.73,0,0,0-13.76-12A302.4,302.4,0,0,0,171,123.67q-7.48-4.22-15.25-7.89-4.15-2-8.39-3.72C147.22,112,147,111.94,146.83,111.87Z"/><path class="cls-5" d="M193.13,114.54a26.92,26.92,0,0,0,2-3.82,9,9,0,0,0,.34-1,.29.29,0,0,0-.18-.4c-.16,0-.24.09-.29.21a36.74,36.74,0,0,1-1.93,3.26,26.2,26.2,0,0,1-6.72,7.83c-1.15.91-2.27,1.85-3.5,2.65a4.9,4.9,0,0,0-1.66,2.24l-4-2.42c0-.29.15-.33.27-.41a36.51,36.51,0,0,0,10.34-10.56c1.73-2.57,3.37-5.19,5-7.84.43-.72.79-1.47,1.17-2.21.11-.2.18-.44.43-.52a8.4,8.4,0,0,1,3.1-.62,2,2,0,0,1,1.75,1.12c.51.9,1,1.82,1.47,2.73a9.72,9.72,0,0,1,1.26,3.85,1.75,1.75,0,0,1-.53,1.5,13.55,13.55,0,0,1-3.9,2.57l-.43.24v0c-.4-.2-.06-.4,0-.56a11.21,11.21,0,0,0,1.06-5.13,1.54,1.54,0,0,0-.38-1.13,22,22,0,0,1-1.46,4.66,14.27,14.27,0,0,1-2.87,4A.47.47,0,0,1,193.13,114.54Z"/><path class="cls-5" d="M152.29,103.49a30.72,30.72,0,0,1,7-1.13c.69,0,1.39,0,2.09,0,.41,0,.9-.28,1.2.34.11.21.49,0,.73-.1.75-.35,1.5-.71,2.27-1a3.61,3.61,0,0,1,1.85-.27,7.88,7.88,0,0,0,3.33-.31,8.18,8.18,0,0,1,2.58-.13c1.92,0,3.85,0,5.78.12a6.76,6.76,0,0,1,1.87,3.52,3.35,3.35,0,0,1-.14,2.23c-2.63-.06-5.2-.65-7.81-1-.77-1-.67-1.52.35-2.18.22-.14.62-.12.56-.66-1.34.24-2.69.4-4,.72s-2.63.24-3.93.56c.09.29.22.34.34.37l1.93.52c.22.06.48.1.48.41s-.19.41-.41.51a2.54,2.54,0,0,1-1.45.26,19.71,19.71,0,0,0-3.68-.1,28.11,28.11,0,0,0-5.63.74c-.19.05-.41.07-.37.37a5.52,5.52,0,0,0,2.25.21,37.32,37.32,0,0,1,6,.28l-.05.2a20.2,20.2,0,0,1-4.24.56,14.69,14.69,0,0,1-2.2,0,19.88,19.88,0,0,0-7.66,1,2.29,2.29,0,0,1-1.37,0L144,107.48s0-.06-.05-.15a2.12,2.12,0,0,1,1-.73,30.56,30.56,0,0,1,6.12-2.66A4.12,4.12,0,0,0,152.29,103.49Z"/><path class="cls-5" d="M184.23,80.64A13.55,13.55,0,0,1,180,79.58L175.15,78c-.83-.28-.89-.42-.91-1.29a4.94,4.94,0,0,1,.63-1.92h0a29.63,29.63,0,0,1,8.34.77c.87.23,1.77.37,2.61.66,2.42.84,5,1.08,7.4,2a12.07,12.07,0,0,1,3.74,2,3.55,3.55,0,0,1,.63,4.77,3.71,3.71,0,0,1-3,.56,11.25,11.25,0,0,1-1.42-.47,42.5,42.5,0,0,1-5.4-3,1.49,1.49,0,0,1-.32-.24c-.29-.3-.22-.6.19-.73s1-.22,1.46-.35.79-.11,1.07-.55a4.23,4.23,0,0,1-1.22-.11,3.53,3.53,0,0,0-2.52.09A12.22,12.22,0,0,1,184.23,80.64Zm6.42-2.16c-1.35-.29-2.62-1.12-4.07-.79C188,77.7,189.2,78.73,190.65,78.48Z"/><path class="cls-3" d="M203.49,112.21a1.7,1.7,0,0,0,.09.87,6.59,6.59,0,0,1-.29,3.78c-.08.24-.24.48-.09.75a8.4,8.4,0,0,1-3.82,3.79,2.74,2.74,0,0,1-1.06.24,9.16,9.16,0,0,1-6.58-1.39,6,6,0,0,1-1.28-.85,16.36,16.36,0,0,1,2.11-1.36c.23-.14.52,0,.78,0a7.13,7.13,0,0,0,4.73-.7,9.24,9.24,0,0,0,4.47-4.36c.19-.39.32-.93,1-.83Z"/><path class="cls-5" d="M180.53,101.37c-.07-.21-.06-.4.2-.46a1.6,1.6,0,0,1,.78.06,57.47,57.47,0,0,1,7.56,1.73c.57.2,1.17.21,1.73.46.38.17.52.29.26.71a10.47,10.47,0,0,1-2.41,2.89,2.85,2.85,0,0,1-1.74.63,7.84,7.84,0,0,1-2.36-.35,3,3,0,0,1-1.76-1.38,6.6,6.6,0,0,0-.75-1.28A14.14,14.14,0,0,0,180.53,101.37Z"/><path class="cls-5" d="M193,100.55c.51.54.24,1-.11,1.51-.38,0-.5-.39-.69-.63q-5.78-7.07-11.54-14.15c-.21-.26-.44-.49-.67-.74a10,10,0,0,0-1.36-1.81c-1.51-1.85-3.73-4.53-5.26-6.36.13,0,1.37.82,1.49.79a6.58,6.58,0,0,1,2,1.82q7,8.67,14.16,17.28"/><path class="cls-3" d="M165.46,107.82a37.32,37.32,0,0,0-6-.28,5.52,5.52,0,0,1-2.25-.21c0-.3.18-.32.37-.37a28.11,28.11,0,0,1,5.63-.74,19.71,19.71,0,0,1,3.68.1,2.54,2.54,0,0,0,1.45-.26c.22-.1.42-.24.41-.51s-.26-.35-.48-.41l-1.93-.52c-.12,0-.25-.08-.34-.37,1.3-.32,2.65-.25,3.93-.56s2.66-.48,4-.72c.06.54-.34.52-.56.66-1,.66-1.12,1.2-.35,2.18a25.8,25.8,0,0,1-6.6,2A3.57,3.57,0,0,0,165.46,107.82Z"/><path class="cls-5" d="M173.17,73.22a.21.21,0,0,0,.19.19c.13.21.19.4-.16.49a1.34,1.34,0,0,0-1,.69c-.6.5-.6,1.26-.77,2a4.61,4.61,0,0,1-2-.9,10.72,10.72,0,0,0-1-.64,1.18,1.18,0,0,1-.7-1.47,3.28,3.28,0,0,0,.1-.69c0-.89.05-1.69,1.1-2,.4-.13.56-.62.84-1A15.59,15.59,0,0,0,173.17,73.22Z"/><path class="cls-3" d="M180.85,106.76a3.35,3.35,0,0,0,.14-2.23,6.76,6.76,0,0,0-1.87-3.52c.21-.31.43-.21.65,0l.43.41a27.91,27.91,0,0,1,1.47,3,14.37,14.37,0,0,1,.4,3.75,2.88,2.88,0,0,0,2.06,3,6.18,6.18,0,0,1,1.3.73.55.55,0,0,1,.2.83c-.42.85-.47.89-1.35.52l-4.12-1.75c-.3-.12-.59-.27-1-.45C180.74,110,180.76,108.35,180.85,106.76Z"/><path class="cls-3" d="M184.23,80.64a12.22,12.22,0,0,0,2.15-.43,3.53,3.53,0,0,1,2.52-.09,4.23,4.23,0,0,0,1.22.11c-.28.44-.7.45-1.07.55s-1,.2-1.46.35-.48.43-.19.73a1.49,1.49,0,0,0,.32.24,42.5,42.5,0,0,0,5.4,3,11.25,11.25,0,0,0,1.42.47,3.71,3.71,0,0,0,3-.56c-.3,1-1.15,1.45-2,1.93-.13.08-.39,0-.58-.07a12.82,12.82,0,0,1-3.84-1.6,23.07,23.07,0,0,1-2.92-2.08,4.21,4.21,0,0,0-1.2-.69c-.91-.41-1.8-.85-2.7-1.29C184.1,81.09,183.87,80.93,184.23,80.64Z"/><path class="cls-1" d="M219.11,128.18c-.07.47.36.59.62.79a58.75,58.75,0,0,1,5.49,4.85,1.46,1.46,0,0,1,.51.59.46.46,0,0,0-.36.24,8.36,8.36,0,0,1-1.4-1.26c-1.72-1.67-3.56-3.19-5.4-4.72A.71.71,0,0,1,219.11,128.18Z"/><path class="cls-3" d="M207.67,120.59l.24-1.53a44.32,44.32,0,0,1,2.92,3.37c-.12.34-.29.83-.4,1.17Z"/><path class="cls-5" d="M172.42,74.84a1.56,1.56,0,0,1,1.78-.68c.31.11.45.4.65.62h0c-.21-.21-.36,0-.48.12a2.17,2.17,0,0,0-.62,1.51c0,.35,0,.71,0,1.08a3,3,0,0,1-1.4-.52c-.5-.21-.45-.72-.16-1.16a1.5,1.5,0,0,0,.29,0c.09,0,.23,0,.26-.09s-.06-.24-.17-.29a1.52,1.52,0,0,0-.28-.09C172.16,75.15,172.39,75,172.42,74.84Z"/><path class="cls-5" d="M199.31,79.87a3.53,3.53,0,0,1-2.39-.88,6.94,6.94,0,0,0-1.45-.89c.2-.4.62-.4.91-.6a.77.77,0,0,1,1,.12A26.14,26.14,0,0,1,199.31,79.87Z"/><path class="cls-3" d="M211.43,104a5.55,5.55,0,0,1,.53-2.19c.32-.8.65-1.6,1-2.4.08-.18.2-.4.44-.29s.14.34.06.52c-.41,1-.82,2-1.25,3A2.36,2.36,0,0,1,211.43,104Z"/><path class="cls-5" d="M212,95.23c.14.4.24.72.45,1.39.66,1.29.2,2.47-.34,3.65.08-1.63-.32-4-.4-5.58l.16.29Z"/><path class="cls-3" d="M191.52,87.25c0-.29-.12-.54.17-.59a.45.45,0,0,1,.46.32,3.24,3.24,0,0,1,.13,1.28.26.26,0,0,1-.25.26.27.27,0,0,1-.31-.2C191.63,87.93,191.57,87.54,191.52,87.25Z"/><path class="cls-2" d="M203.49,112.21l0,0a.42.42,0,0,0,.3-.43,10.68,10.68,0,0,1,1.92,1.76C204.75,113.45,204.31,112.5,203.49,112.21Z"/><path class="cls-5" d="M199.71,82.51l-.49.13-.93-2c.37-.14.67,0,.73.26C199.13,81.5,199.57,81.94,199.71,82.51Z"/><path class="cls-2" d="M181.67,104.42a27.91,27.91,0,0,0-1.47-3l.33,0a14.14,14.14,0,0,1,1.51,3Z"/><path class="cls-2" d="M200.6,102.24a3,3,0,0,1,1.43.06,4.25,4.25,0,0,1-1.42.12A.37.37,0,0,1,200.6,102.24Z"/><path class="cls-5" d="M171.72,71c0,.13-.11.18-.21.15a.34.34,0,0,1-.24-.27c0-.11.06-.18.17-.18A.3.3,0,0,1,171.72,71Z"/><path class="cls-5" d="M165.46,107.82a3.57,3.57,0,0,1,1,0,1.92,1.92,0,0,1-1,.16Z"/><path class="cls-5" d="M172.3,75.36a1.52,1.52,0,0,1,.28.09c.11,0,.24.14.17.29s-.17.08-.26.09a1.5,1.5,0,0,1-.29,0Z"/><path class="cls-4" d="M193.16,115.13a.85.85,0,0,1-.47.34l-.09-.07a.78.78,0,0,1,.28-.55Z"/><path class="cls-4" d="M193.13,114.54a.47.47,0,0,0,.29.28c0,.17-.14.23-.26.31l-.28-.28C192.93,114.73,193,114.58,193.13,114.54Z"/><path class="cls-4" d="M192.69,115.47c-.06.09-.12.14-.21,0l.12-.12Z"/><path class="cls-5" d="M197.05,112.9c-.08,0-.17.06-.21-.06a.14.14,0,0,1,0-.08c.11,0,.16.06.16.17S197.05,112.9,197.05,112.9Z"/><path class="cls-4" d="M145.65,31.05c0,.08-.09.16-.17,0s.06-.07.1-.11Z"/><path class="cls-2" d="M190.65,78.48c-1.45.25-2.66-.78-4.07-.79C188,77.36,189.3,78.19,190.65,78.48Z"/><path class="cls-1" d="M191.26,98.51c0-.05,1.19,1,1.22.95.23.33.33.45.7,1,0,0-.11.19-.12.19Z"/></svg>