<svg id="frames" xmlns="http://www.w3.org/2000/svg" viewBox="0 0 384 216"><defs><style>.cls-1{fill:#0e1b32;}.cls-2{fill:#fd0101;}.cls-3{fill:#f5f3f4;}.cls-4{fill:#d6d7d0;}.cls-5{fill:#0f1b33;}</style></defs><path class="cls-1" d="M165.47,123.91c0-.4,0-.8,0-1.2,0-7.43,0-14.85-.05-22.28,0-5.29,0-10.59,0-15.88,0-1.5.1-3,.16-4.49a1,1,0,0,1,.73-1,2.88,2.88,0,0,1,1.09-.09q9.84,0,19.68,0,7.84,0,15.68.16a48.89,48.89,0,0,1,5.68.29,30,30,0,0,1,15.73,8.28c.57.6,1.11,1.23,1.67,1.85a31.69,31.69,0,0,1,2.78,6.83c.05.18,0,.45.36.53l1.23-17.73c2.09-.06,4.19-.08,6.29,0h1c5.5,0,11-.1,16.5,0,3.83.07,7.66,0,11.49.15a26.9,26.9,0,0,1,17.38,7,26.27,26.27,0,0,1,6.61,9.28A27.14,27.14,0,0,1,274,131.62a27,27,0,0,1-9.56,1.81c-4.9,0-9.8,0-14.7,0h-.8a.4.4,0,0,0-.44.43c0,.2,0,.4,0,.6-.16,8.56,0,17.13-.07,25.69v.7c0,1.13-.44,1.56-1.59,1.58a28.43,28.43,0,0,1-3.69-.11c.85-.35,1.7-.7,2.55-1.07a1.3,1.3,0,0,0,.8-.69c.18-.47,0-.62-.46-.49a11.75,11.75,0,0,0-3.13-1.29q-5-1.39-10-3.08-9.78-3.33-19.53-6.75c-5.15-1.8-10.29-3.65-15.42-5.49-.32-.11-.73-.1-.91-.49a1.68,1.68,0,0,1,.39.07c4.4,1.54,8.89,2.82,13.26,4.45,4.78,1.78,9.63,3.35,14.45,5,.81.28.86.24.85-.6,0-1.83-.07-3.67-.09-5.5a4.33,4.33,0,0,0-.26-1.56c.25-.49.08-1,.22-1.55.13.19.29.37.4.57l2.58,4.51a3.2,3.2,0,0,1,.37,1.13c.22,1.35.48,2.69.68,4a1.05,1.05,0,0,0,.85.95c1.69.52,3.36,1.09,5,1.63.24.07.48.25.77.06a6.52,6.52,0,0,0-1.26-2.22q-1.68-2.1-3.41-4.18a29.8,29.8,0,0,1-3.29-4.08c-2.89-5.05-5.93-10-8.92-15a2.57,2.57,0,0,0-.62-.87c-.57.47-.51.91-.18,1.48,1,1.72,2.1,3.39,3,5.19-.06.52-.11,1-.17,1.55a4.59,4.59,0,0,1-.71-1.08l-2.81-4.81c-.42-.7-.59-.73-1.21-.2a7.44,7.44,0,0,1-1.24,1c.07-.71.69-1,1.1-1.44.08-.16.39-.22.25-.5v0c.22.08.25,0,.2-.21h0c1.61-1,2.26-2.56,1.53-3.88a18.83,18.83,0,0,1-1.21,2.61,15.08,15.08,0,0,1-2,1.92,10,10,0,0,1-7.38,1.67c-.52-.08-1.05-.12-1.58-.19a1.13,1.13,0,0,0-.86.16,8.66,8.66,0,0,0-1.45,1l-3.62,1.8a7.55,7.55,0,0,0-1.69.53c-1.7.63-3.38,1.32-5,2.1a2.53,2.53,0,0,0-1.46,1.11l-.72,1.53a34.78,34.78,0,0,1-3.92-1.33,11.6,11.6,0,0,0,6.08-2.61c2.52-1.91,5.07-3.78,7.57-5.72,2-1.59,4-3.33,6.08-4.87a37.49,37.49,0,0,0,5-4.4c.11-.11.2-.28.45-.24a.71.71,0,0,1,0,.8,2.76,2.76,0,0,0-.29.94A3.46,3.46,0,0,0,212,125c.49-.43,1-.65,1.05-1.2a1.9,1.9,0,0,0,.75-.86.38.38,0,0,0,.29-.38l.13-.19a.4.4,0,0,0,.25-.41,2.5,2.5,0,0,0,.57-1.15.4.4,0,0,0,.2-.45.8.8,0,0,0,.21-.53.41.41,0,0,0,.17-.47.87.87,0,0,0,.22-.55l.37-.43a1.19,1.19,0,0,0,.6-.25c.46.08.37.37.26.66-.33,1-.67,2-1,3a.57.57,0,0,0,.56-.38,7.91,7.91,0,0,0,2.31-2.44A1,1,0,0,0,219,118a15.72,15.72,0,0,0-1-2.71c-1.09-2.07-2.12-2.39-4.16-2.41a1,1,0,0,0-1,.56c-.52,1-1.12,1.9-1.6,2.89a3.66,3.66,0,0,1-1.13,1.34,30.51,30.51,0,0,0-6.41,5.76c-.73,1-1.66,1.81-2.48,2.73-2.32,2.58-4.68,5.11-7.15,7.54a11.86,11.86,0,0,1-5.5,3.08,25.35,25.35,0,0,1-4.79.93,9.52,9.52,0,0,1-3.75-.22c-4.88-1.67-9.72-3.46-14.67-4.92,0-.1,0-.2,0-.3,0-.95-.13-1-1-.73a.87.87,0,0,0-.57.36,11.16,11.16,0,0,1-3.28-1,21.13,21.13,0,0,1,4-1.09c2.76-.4,5.54-.66,8.27-1.28a16,16,0,0,0,5.81-2.52c.36-.25.15-.35-.11-.44a2.18,2.18,0,0,1,.77-.43c1.49-.7,3-1.28,4.57-1.88a9.78,9.78,0,0,0,3.29.7,31.7,31.7,0,0,1,5.83.62c.05.3.11.59.13.89.23,2.65-.29,3.33-2.32,4.24,1.38.38,2.71.7,4,1.13a1.21,1.21,0,0,0,1.62-.48c.14-.21.4-.37.35-.69-.22-.23-.54-.24-.81-.35l-1.88-.69c-.35-.12-.57-.3-.44-.73a6.75,6.75,0,0,0-.18-3.65,7.86,7.86,0,0,0-2-3.61c-.4-.4-.62-1-1.39-.94-2.07.06-4.11.16-6.17.42-2.38.29-4.61,1.26-7,1.35a13.38,13.38,0,0,0-1.85.35c-.4.07-.79.11-1.18.17a.74.74,0,0,0-.92-.4l-1.08.21A47.17,47.17,0,0,0,165.47,123.91Zm29.9-41.81c0-.25-.08-.47-.36-.5a3.62,3.62,0,0,0-2.58.26c-.44.28-.85.59-1.27.9-.7.51-.73.48-.27,1.21.2.3.44.57.66.86,0,.12.08.28.17.34a2.69,2.69,0,0,1,1.11,1.41.84.84,0,0,0,1,.57c0-.52-.14-1.09.31-1.51.22.19.34.54.71.4a.88.88,0,0,0,.59.13.35.35,0,0,0,.41.07,1.76,1.76,0,0,0,.79.14.69.69,0,0,0,.61.07,5.84,5.84,0,0,1,2.68.89c.32.25.65.46,1,.68a2.74,2.74,0,0,0,2.62.41,3.9,3.9,0,0,1,1.43-.35,9.64,9.64,0,0,0,.86,3c.28.46.15.64-.23.85a10,10,0,0,0-2,1.43,2.43,2.43,0,0,0-.84,1.73,9.64,9.64,0,0,1,2.48-2.22c1.31-.87,1.48-.89,2.64.09a34.38,34.38,0,0,0,4.72,3.16c.23.14.46.32.74.23.69-.21,1.43-.38,1.78-1.14a3.29,3.29,0,0,0,.86-1.3c.5-1.49,0-2.67-1.48-3.76a1.69,1.69,0,0,0-.83-.73A1.25,1.25,0,0,0,213,89a.52.52,0,0,0-.42-.35.48.48,0,0,0-.37-.26.5.5,0,0,0-.43-.32.14.14,0,0,0-.16-.09,5.22,5.22,0,0,0-1.91-1.16,19.19,19.19,0,0,0-3.94-1.51.46.46,0,0,0-.39-.08,2.43,2.43,0,0,0-1.41-.11,15.9,15.9,0,0,0-4,0,2.27,2.27,0,0,0-1.24,0,2.54,2.54,0,0,0-1-.11.76.76,0,0,0-.6-.13,1.58,1.58,0,0,0-1.61-.08c-.07-.12-.08-.25.06-.33s.57-.13.83-.43a1,1,0,0,1-.39-1A.78.78,0,0,0,195.37,82.1Zm10,20.48c-.08-.76-.14-1.51-.25-2.26s-.36-1-1.31-1.15a3.74,3.74,0,0,0-2.21-.54,1,1,0,0,0,.25.71c1.9,3.16,3.66,6.41,5.63,9.53,0,0,.05,0,.08,0l.14,0a6.74,6.74,0,0,0,.29-2.41,3.65,3.65,0,0,0-.84-2.6A3.3,3.3,0,0,0,205.4,102.58ZM193.8,87.86a3.34,3.34,0,0,0-.94-.19c-.07.36.15.56.27.78.8,1.41,1.63,2.82,2.42,4.24,1.09,1.94,2.27,3.83,3.27,5.82l-10.09.15c-.71,0-.73,0-.73.71q0,7.45,0,14.9c0,.72,0,.72.71.71,3.9,0,7.8-.11,11.69-.14a7,7,0,0,0,5.38-2.43c.68-.75.67-.75.18-1.62L203,105.65c.2-.42.06-.89.2-1.33.16.25.35.48.5.74,1.76,3,3.5,6,5.26,9.07.14.23.17.58.58.61a2.52,2.52,0,0,0-.29-2.1c-2.9-4.92-5.77-9.86-8.66-14.8-1.8-3.07-3.62-6.13-5.38-9.22A1.28,1.28,0,0,0,193.8,87.86Zm32,51.38c.12-1.26.24-2.51.34-3.77.25-3.45.49-6.89.74-10.34l.39-5.9-.13,0-1.44,3.49c-1.17,1.17-2.27,2.42-3.55,3.49a15.44,15.44,0,0,0-2.32,2.46,1,1,0,0,0-.07,1.25c1.78,3,3.53,6,5.29,8.93a2.2,2.2,0,0,0,.43.67C225.83,139.73,225.79,139.39,225.85,139.24Zm-6-14.16c.11.19.49.2.43.48s-.38.15-.58.17a.52.52,0,0,0-.45.19,16.79,16.79,0,0,0,.62,1.72,11.5,11.5,0,0,0,1.53-2.23,3.67,3.67,0,0,0,.67-1.32,17.69,17.69,0,0,1,1.92-4,21.87,21.87,0,0,0,2.9-7.91,12.91,12.91,0,0,0-.62-7.25c-.57-1.38-1.17-2.76-1.63-4.18-1.08-3.32-3.4-5.66-6-7.82-.08-.09-.18-.23-.3-.15s-.05.26,0,.38c0,.36.37.64.18,1.09A13.29,13.29,0,0,0,216.3,91c-.08,0-.21-.1-.25-.06s-.06.22,0,.32a4.47,4.47,0,0,1-.17,3.58c-.29.64-.3.68.34,1.07a1.23,1.23,0,0,1,.62,1.42c-.13.79-.29,1.57-.49,2.34a1.71,1.71,0,0,0,.38,1.67,29.25,29.25,0,0,0,2.55,2.67c.14.12.37.19.25.58-1.57-.27-2.94-1.25-4.68-1.46.36,1,.68,1.9,1,2.88-.85,0-1.39-.52-2.07-.67-.2,1.07-.38,2.08-.56,3.09a1.31,1.31,0,0,0,0,.59,3.5,3.5,0,0,1-.12,2.26,2.44,2.44,0,0,0-.07.39c0,.44.12.68.6.71a8.28,8.28,0,0,1,1.48.23,27.21,27.21,0,0,0,5.31.85.29.29,0,0,1,.3.26l-2.83.49c.61.79,1.58.52,2.12,1.07-.44.18-.9-.18-1.42.06a14.06,14.06,0,0,1,.92,2.89,10.75,10.75,0,0,1,.15,5c-.08.43-.14.86-.23,1.28A.43.43,0,0,0,219.88,125.08ZM255,98.64c-1.77,0-3.54,0-5.3,0-1.21,0-1.16-.15-1.16,1.1,0,2.74,0,5.47,0,8.2,0,.33,0,.67,0,1-.14,1.86,0,3.73-.07,5.59,0,.38.15.55.53.54s.47,0,.7,0l10.5.11a4.62,4.62,0,0,0,1.48-.17,8.88,8.88,0,0,0,6.51-7.25,6.11,6.11,0,0,0-.71-4.24,11.74,11.74,0,0,0-2.53-3.08A7.09,7.09,0,0,0,260,98.63C258.35,98.65,256.68,98.64,255,98.64ZM191.85,120A12.39,12.39,0,0,0,194,122.1a5.32,5.32,0,0,0,2.24,1,37.36,37.36,0,0,0,6.16.4.62.62,0,0,0,.52-.24c.62-.69,1.26-1.36,1.94-2,.43-.4.34-.64-.24-.81-.1,0-.2,0-.3-.06a67,67,0,0,0-11.32-.85A1.56,1.56,0,0,0,191.85,120Zm16-22.35c-.08.37-.14.63-.19.89-.19,1-.2,1,.78,1.37a1.22,1.22,0,0,1,.87,1c.17.73.38,1.44.59,2.22a4.34,4.34,0,0,0,1.1-4.73c-.47.31-.43,1.11-1.13,1.27,0-.6,0-1.15,0-1.71a1,1,0,0,0-.66-1.11A6.45,6.45,0,0,1,206.83,95c-.21-.26-.42-.51-.84-.28s-.67.39-.58.91a7.88,7.88,0,0,1,.05,1.09c0,.68.13.81.81.88C206.76,97.68,207.25,97.64,207.84,97.64Zm-14.49,36a40.81,40.81,0,0,0-4.92-.24c-.34,0-.49.12-.49.46,0,.77,0,1.54,0,2.3,0,.43.21.5.58.39A12.52,12.52,0,0,0,193.35,133.61Z"/><path class="cls-1" d="M187.76,158c0,1-.08,1.93-.13,2.9s-.35,1.28-1.34,1.31H149.81c-.87,0-1-.11-1.28-.95-.47-1.42-.92-2.85-1.38-4.27-.55-1.68-1.1-3.35-1.66-5-.31-.94-.32-.94-1.35-.94H121.86c-.54,0-1.07,0-1.6,0a.63.63,0,0,0-.72.52c-.69,2.51-1.58,4.95-2.18,7.48a10.71,10.71,0,0,1-.69,2,1.61,1.61,0,0,1-1.65,1c-1.19,0-2.39.06-3.59.05-3.06,0-6.12.14-9.18.15-2.73,0-5.45.11-8.18.17a5.31,5.31,0,0,1-.8,0,.93.93,0,0,1-.84-1.14,6.5,6.5,0,0,1,.25-.86c1.41-4.44,2.82-8.89,4.25-13.32a4.31,4.31,0,0,1,.48-1.4c.82-1.7,1.4-3.5,2.08-5.26q5.28-13.65,10.5-27.32c.74-1.92.73-1.93-1.18-2.77a1.2,1.2,0,0,0-.2,0c-1.64-1.06-3.45-1.85-5.15-2.83a8.23,8.23,0,0,1-.86-.49,1,1,0,0,1-.36-1.39,1,1,0,0,1,1.48-.16c1.48,1,3,2,4.44,3.06a2.49,2.49,0,0,0,.85.49,9,9,0,0,0,1.5,1.12c.37.27.58.16.73-.25.53-1.43,1.08-2.84,1.63-4.26.12-.29.09-.51-.19-.66a11,11,0,0,0-2-1.09,2.23,2.23,0,0,0-.81-.58l-8.13-4.87a10.23,10.23,0,0,1-1.54-1.09c-.67-.59-.75-1-.35-1.64a1.41,1.41,0,0,1,1.84-.77,9.14,9.14,0,0,1,1.62,1c2.38,1.76,4.73,3.55,7.1,5.33a3.08,3.08,0,0,0,.83.55,17.31,17.31,0,0,0,2,1.56c.26.21.47.2.6-.15.07-.19.15-.37.22-.56q2.69-7,5.37-14Q121.22,83.79,123,79c.3,0,.6,0,.9,0,7.19,0,14.39,0,21.59,0a2,2,0,0,1,2.1,1.44,9,9,0,0,1,.79,3,.9.9,0,0,0,.1.39,43.94,43.94,0,0,1,2.32,6.89c3.7,11.65,7.2,23.36,10.79,35a7.73,7.73,0,0,0-1.15.68c-.35.28,0,.31.2.4a2.44,2.44,0,0,1-.29.27c-1.33.8-2.67,1.58-4,2.39a.91.91,0,0,1-.85,0c-4.35-1.42-8.69-2.88-13.08-4.16-1.68-.48-3.35-1-5-1.5a1.15,1.15,0,0,0-.09-.68q-2.21-7.59-4.45-15.19c-.06-.23,0-.56-.36-.66a2.55,2.55,0,0,0-.36.91c-1.19,3.94-2.51,7.84-3.84,11.74a5.61,5.61,0,0,0-.53,1.7c-1,.31-2-.07-3.06-.07a31.7,31.7,0,0,0-5.67-.34,5.93,5.93,0,0,0-4.07,1.64,1.94,1.94,0,0,0-.66,1.4,6.19,6.19,0,0,0,1.36,4.16,30.39,30.39,0,0,0,4.16,4,46.81,46.81,0,0,0,11.84,6.75c2.58,1,5.21,1.86,7.79,2.84,3.08,1.17,6.14,2.4,9.21,3.6a6.91,6.91,0,0,0,1.71.5c-.18-.31-.28-.51-.41-.7q-4.81-7-9.64-14.09c-1.32-1.93-2.65-3.84-4-5.75a9.18,9.18,0,0,1,1.94.41,43,43,0,0,1,5.78,1.8,2.73,2.73,0,0,0,.38.81q5.82,9.54,11.63,19.1a1.77,1.77,0,0,0,.95.81c1.39.47,2.76,1,4.14,1.48.2.07.41.26.69,0-.12-.26-.22-.53-.35-.79q-3.34-6.54-6.7-13.06c-1-2-2-4-3-6a12.89,12.89,0,0,1,2.3.66c11.67,3.71,23.37,7.29,35,11.15,7.52,2.5,15.06,4.9,22.57,7.4,6.5,2.17,12.87,4.72,19.34,7,3,1,6,1.93,9,2.71,1.64.42,3.28.83,4.94,1.19-.26.07-.52.14-.78.19-1.63.32-3.29.49-4.93.71-2.65.34-5.29.7-7.95.85a96.61,96.61,0,0,1-16-.6c-3.41-.37-6.79-.91-10.18-1.38a199.32,199.32,0,0,1-21.27-4c-3.49-.86-7-1.65-10.55-2.24-.13,0,0,.12-.08,0l0-.06c0-.06.1-.05.14,0a3.89,3.89,0,0,0,1.45.62q4.17,1.2,8.35,2.35C184.61,157.18,186.19,157.58,187.76,158Z"/><path class="cls-2" d="M187.76,158c-1.57-.41-3.15-.81-4.71-1.24q-4.19-1.16-8.35-2.35a3.89,3.89,0,0,1-1.45-.62h0c3.55.59,7.06,1.38,10.55,2.24a199.32,199.32,0,0,0,21.27,4c3.39.47,6.77,1,10.18,1.38a96.61,96.61,0,0,0,16,.6c2.66-.15,5.3-.51,7.95-.85,1.64-.22,3.3-.39,4.93-.71.26-.05.52-.12.78-.19l.67.1c.25.05.37-.06.4-.3.46-.13.64,0,.46.49a1.3,1.3,0,0,1-.8.69c-.85.37-1.7.72-2.55,1.07-1.23.17-2.38.63-3.58.91a58.71,58.71,0,0,1-13.81,1.11,114.63,114.63,0,0,1-14.2-1.45,147.57,147.57,0,0,1-17.32-3.51C192.07,158.84,189.91,158.45,187.76,158Z"/><path class="cls-2" d="M123,79q-1.8,4.75-3.62,9.52-2.67,7-5.37,14c-.07.19-.15.37-.22.56-.13.35-.34.36-.6.15a17.31,17.31,0,0,1-2-1.56c1.73-4.71,3.06-9.55,4.54-14.34.77-2.51,1.67-5,2.48-7.47a1.12,1.12,0,0,1,1.15-.89C120.62,79,121.82,78.91,123,79Z"/><path class="cls-2" d="M230.12,79.25,228.89,97c-.38-.08-.31-.35-.36-.53a31.69,31.69,0,0,0-2.78-6.83c.07-2.89.31-5.77.21-8.66-.05-1.25.5-1.91,1.67-1.77C228.45,79.28,229.29,79.14,230.12,79.25Z"/><path class="cls-2" d="M108.61,110.26a1.2,1.2,0,0,1,.2,0c1.91.84,1.92.85,1.18,2.77q-5.25,13.66-10.5,27.32c-.68,1.76-1.26,3.56-2.08,5.26a13.67,13.67,0,0,1,.61-2.1q4.91-15.57,9.82-31.12A13.88,13.88,0,0,1,108.61,110.26Z"/><path class="cls-2" d="M110.69,103.8a11,11,0,0,1,2,1.09c.28.15.31.37.19.66-.55,1.42-1.1,2.83-1.63,4.26-.15.41-.36.52-.73.25a9,9,0,0,1-1.5-1.12Z"/><path class="cls-2" d="M160.65,126.8c-.17-.09-.55-.12-.2-.4a7.73,7.73,0,0,1,1.15-.68l3.87-1.81a47.17,47.17,0,0,1,6.36-2.06l1.08-.21a.74.74,0,0,1,.92.4,1.31,1.31,0,0,1-.66.2,47.14,47.14,0,0,0-11.52,4.12C161.32,126.53,161,126.66,160.65,126.8Z"/><path class="cls-3" d="M160.65,126.8c.33-.14.67-.27,1-.44a47.14,47.14,0,0,1,11.52-4.12,1.31,1.31,0,0,0,.66-.2c.39-.06.78-.1,1.18-.17a13.38,13.38,0,0,1,1.85-.35c2.42-.09,4.65-1.06,7-1.35,2.06-.26,4.1-.36,6.17-.42.77,0,1,.54,1.39.94.39.79.8,1.56,1.18,2.36a2.3,2.3,0,0,1,.34,1.58,31.7,31.7,0,0,0-5.83-.62,9.78,9.78,0,0,1-3.29-.7.55.55,0,0,1,.09-.79,2.87,2.87,0,0,0,.78-1c-1.54.13-3,.34-4.44.51.12.4.61.4.63.88a13.32,13.32,0,0,0-3.81,1,46.79,46.79,0,0,1-7.11,2.3,1.83,1.83,0,0,0-1,.4,1.35,1.35,0,0,0,.84.1c1.75-.13,3.52-.16,5.27-.45a18.83,18.83,0,0,0,3.41-.65c.26.09.47.19.11.44a16,16,0,0,1-5.81,2.52c-2.73.62-5.51.88-8.27,1.28a21.13,21.13,0,0,0-4,1.09,11.13,11.13,0,0,0,3.29,1,3.18,3.18,0,0,0,1.64.67c5,1.46,9.79,3.25,14.67,4.92a9.52,9.52,0,0,0,3.75.22,25.35,25.35,0,0,0,4.79-.93,11.86,11.86,0,0,0,5.5-3.08c2.47-2.43,4.83-5,7.15-7.54.82-.92,1.75-1.75,2.48-2.73a30.51,30.51,0,0,1,6.41-5.76,3.66,3.66,0,0,0,1.13-1.34c.48-1,1.08-1.92,1.6-2.89a1,1,0,0,1,1-.56c2,0,3.07.34,4.16,2.41a15.72,15.72,0,0,1,1,2.71,1,1,0,0,1-.11.94,7.91,7.91,0,0,1-2.31,2.44c-.24-.25,0-.49,0-.73.23-.71.47-1.42.7-2.13.07-.2.09-.4-.13-.51a.31.31,0,0,0-.42.12,1.19,1.19,0,0,1-.6.25c-.28,0-.4.15-.37.43a.87.87,0,0,1-.22.55.37.37,0,0,0-.17.47.8.8,0,0,1-.21.53.36.36,0,0,0-.2.45,2.5,2.5,0,0,1-.57,1.15.34.34,0,0,0-.25.41l-.13.19a.35.35,0,0,0-.29.38,1.9,1.9,0,0,1-.75.86l-.33,0a2.76,2.76,0,0,1,.29-.94.71.71,0,0,0,0-.8c-.25,0-.34.13-.45.24a37.49,37.49,0,0,1-5,4.4c-2.1,1.54-4,3.28-6.08,4.87-2.5,1.94-5.05,3.81-7.57,5.72a11.6,11.6,0,0,1-6.08,2.61,34.78,34.78,0,0,0,3.92,1.33c.29.4.77.38,1.17.54a17,17,0,0,0,3.51,1.23l.58,0v0c.18.39.59.38.91.49,5.13,1.84,10.27,3.69,15.42,5.49q9.75,3.4,19.53,6.75,4.95,1.69,10,3.08a11.75,11.75,0,0,1,3.13,1.29c0,.24-.15.35-.4.3l-.67-.1c-1.66-.36-3.3-.77-4.94-1.19-3-.78-6-1.69-9-2.71-6.47-2.26-12.84-4.81-19.34-7-7.51-2.5-15-4.9-22.57-7.4-11.61-3.86-23.31-7.44-35-11.15a13,13,0,0,0-2.29-.66c-1.88-.74-3.83-1.24-5.74-1.86a7.17,7.17,0,0,0-2-.55,43,43,0,0,0-5.78-1.8,9.18,9.18,0,0,0-1.94-.41,1,1,0,0,0-.27-.13,79.37,79.37,0,0,0-11.32-2.39,31.8,31.8,0,0,0-8.66.12c-.23,0-.5.19-.74-.06,0-.25.19-.33.35-.42a6.67,6.67,0,0,1,1.76-.7,27.47,27.47,0,0,1,7.24-.45c1,0,2,.38,3.06.07.11.15.27.16.43.21a16.22,16.22,0,0,0,2,.28c2.42.52,4.85,1,7.24,1.69,1.66.5,3.33,1,5,1.5,4.39,1.28,8.73,2.74,13.08,4.16a.91.91,0,0,0,.85,0c1.32-.81,2.66-1.59,4-2.39A2.44,2.44,0,0,0,160.65,126.8Z"/><path class="cls-3" d="M216.3,91a13.29,13.29,0,0,1,2.32,3.16c.19-.45-.21-.73-.18-1.09l.26-.23c2.57,2.16,4.89,4.5,6,7.82.46,1.42,1.06,2.8,1.63,4.18a12.91,12.91,0,0,1,.62,7.25A21.87,21.87,0,0,1,224,120a17.69,17.69,0,0,0-1.92,4,3.67,3.67,0,0,1-.67,1.32c-.57.11-1-.47-1.55-.33a.43.43,0,0,1-.38-.58c.09-.42.15-.85.23-1.28a10.75,10.75,0,0,0-.15-5,14.06,14.06,0,0,0-.92-2.89c.52-.24,1,.12,1.42-.06-.54-.55-1.51-.28-2.12-1.07l2.83-.49a.29.29,0,0,0-.3-.26,27.21,27.21,0,0,1-5.31-.85,8.28,8.28,0,0,0-1.48-.23c-.48,0-.64-.27-.6-.71a2.44,2.44,0,0,1,.07-.39,3.5,3.5,0,0,0,.12-2.26,1.31,1.31,0,0,1,0-.59c.18-1,.36-2,.56-3.09.68.15,1.22.68,2.07.67-.35-1-.67-1.89-1-2.88,1.74.21,3.11,1.19,4.68,1.46.12-.39-.11-.46-.25-.58a29.25,29.25,0,0,1-2.55-2.67,1.71,1.71,0,0,1-.38-1.67c.2-.77.36-1.55.49-2.34a1.23,1.23,0,0,0-.62-1.42c-.64-.39-.63-.43-.34-1.07a4.47,4.47,0,0,0,.17-3.58Z"/><path class="cls-3" d="M212.22,88.39a.48.48,0,0,1,.37.26A.37.37,0,0,0,213,89a1.25,1.25,0,0,1,.58.46.89.89,0,0,0,.83.73c1.53,1.09,2,2.27,1.48,3.76a3.29,3.29,0,0,1-.86,1.3,10.62,10.62,0,0,1-2.18-1.71,19.13,19.13,0,0,0-4.67-3.19,1.36,1.36,0,0,1-.83-.65l1.36-.14.06-.22a6.24,6.24,0,0,1-2.51-1.06,1.57,1.57,0,0,0-1.34-.2,3.9,3.9,0,0,0-1.43.35,2.74,2.74,0,0,1-2.62-.41c-.33-.22-.66-.43-1-.68a5.84,5.84,0,0,0-2.68-.89c-.18-.27-.38-.29-.61-.07a1.76,1.76,0,0,1-.79-.14c-.11-.2-.24-.27-.41-.07a.88.88,0,0,1-.59-.13c-.22-.35-.24-.65.19-.87.2-.1.38-.24.57-.36a1.58,1.58,0,0,1,1.61.08c.14.34.34.37.6.13a2.54,2.54,0,0,1,1,.11.83.83,0,0,0,1.24,0,15.9,15.9,0,0,1,4,0c.44.45.92.32,1.41.11a.46.46,0,0,1,.39.08l.25.49a7.23,7.23,0,0,0-1.88.18c-.13,0-.26.08-.26.24a.28.28,0,0,0,.22.29,2.34,2.34,0,0,0,.38,0c.71.13,1.41-.24,2.12-.08a16.23,16.23,0,0,1,1.64.62.33.33,0,0,0,.45,0c.31-.35.59-.08.89,0,.73.21,1.25.87,2,.91a.14.14,0,0,1,.16.09A.35.35,0,0,0,212.22,88.39Z"/><path class="cls-3" d="M221.81,136.48c-.87-1.8-2-3.47-3-5.19-.33-.57-.39-1,.18-1.48a2.57,2.57,0,0,1,.62.87c3,5,6,10,8.92,15a29.8,29.8,0,0,0,3.29,4.08q1.72,2.09,3.41,4.18a6.52,6.52,0,0,1,1.26,2.22c-.29.19-.53,0-.77-.06-1.68-.54-3.35-1.11-5-1.63a1.05,1.05,0,0,1-.85-.95c-.2-1.35-.46-2.69-.68-4a3.2,3.2,0,0,0-.37-1.13l-2.58-4.51c-.11-.2-.27-.38-.4-.57-.9-1.57-1.79-3.16-2.71-4.72A12.3,12.3,0,0,0,221.81,136.48Z"/><path class="cls-3" d="M191.85,120a1.56,1.56,0,0,1,1.18-.43,67,67,0,0,1,11.32.85c.1,0,.2,0,.3.06.58.17.67.41.24.81-.68.64-1.32,1.31-1.94,2a.62.62,0,0,1-.52.24,37.36,37.36,0,0,1-6.16-.4,5.32,5.32,0,0,1-2.24-1A12.39,12.39,0,0,1,191.85,120Z"/><path class="cls-2" d="M204.93,88.08a1.57,1.57,0,0,1,1.34.2,6.24,6.24,0,0,0,2.51,1.06l-.06.22-1.36.14a1.36,1.36,0,0,0,.83.65,19.13,19.13,0,0,1,4.67,3.19A10.62,10.62,0,0,0,215,95.25c-.35.76-1.09.93-1.78,1.14-.28.09-.51-.09-.74-.23A34.38,34.38,0,0,1,207.8,93c-1.16-1-1.33-1-2.64-.09a9.64,9.64,0,0,0-2.48,2.22,2.43,2.43,0,0,1,.84-1.73,10,10,0,0,1,2-1.43c.38-.21.51-.39.23-.85A9.64,9.64,0,0,1,204.93,88.08Z"/><path class="cls-3" d="M193.8,87.86a1.28,1.28,0,0,1,1.44.76c1.76,3.09,3.58,6.15,5.38,9.22,2.89,4.94,5.76,9.88,8.66,14.8a2.52,2.52,0,0,1,.29,2.1c-.41,0-.44-.38-.58-.61-1.76-3-3.5-6-5.26-9.07-.15-.26-.34-.49-.5-.74s-.25-.54-.39-.8L198,95.22C196.61,92.77,195.21,90.31,193.8,87.86Z"/><path class="cls-2" d="M178.51,125.62a18.83,18.83,0,0,1-3.41.65c-1.75.29-3.52.32-5.27.45a1.35,1.35,0,0,1-.84-.1,1.83,1.83,0,0,1,1-.4,46.79,46.79,0,0,0,7.11-2.3,13.32,13.32,0,0,1,3.81-1c0-.48-.51-.48-.63-.88,1.46-.17,2.9-.38,4.44-.51a2.87,2.87,0,0,1-.78,1,.55.55,0,0,0-.09.79c-1.53.6-3.08,1.18-4.57,1.88A2.18,2.18,0,0,0,178.51,125.62Z"/><path class="cls-2" d="M215.67,132.94c-1.56,1.86-3.66,2.25-5.93,2.14a24.3,24.3,0,0,1-5.48-1,8.66,8.66,0,0,1,1.45-1,1.13,1.13,0,0,1,.86-.16c.53.07,1.06.11,1.58.19a10,10,0,0,0,7.38-1.67,15.08,15.08,0,0,0,2-1.92c-.12.3-.26.59-.38.89-.05.13-.19.29.06.38h0c-.32-.18-.21.06-.2.21v0c-.29.07-.37.23-.25.5C216.36,131.94,215.74,132.23,215.67,132.94Z"/><path class="cls-3" d="M207.84,97.64c-.59,0-1.08,0-1.57,0-.68-.07-.78-.2-.81-.88a7.88,7.88,0,0,0-.05-1.09c-.09-.52.21-.7.58-.91s.63,0,.84.28a6.45,6.45,0,0,0,2.37,1.77,1,1,0,0,1,.66,1.11c0,.56,0,1.11,0,1.71.7-.16.66-1,1.13-1.27a4.34,4.34,0,0,1-1.1,4.73c-.21-.78-.42-1.49-.59-2.22a1.22,1.22,0,0,0-.87-1c-1-.34-1-.37-.78-1.37C207.7,98.27,207.76,98,207.84,97.64Z"/><path class="cls-2" d="M193.8,87.86c1.41,2.45,2.81,4.91,4.23,7.36l4.81,8.3c.14.26.26.53.39.8-.14.44,0,.91-.2,1.33l-3.38-5.8a8.8,8.8,0,0,0-.83-1.34c-1-2-2.18-3.88-3.27-5.82-.79-1.42-1.62-2.83-2.42-4.24-.12-.22-.34-.42-.27-.78A3.34,3.34,0,0,1,193.8,87.86Z"/><path class="cls-2" d="M225.85,139.24c0-3.39,0-6.78,0-10.17,0-2.13,0-4.26-.05-6.38l1.44-3.49.13,0-.39,5.9c-.25,3.45-.49,6.89-.74,10.34C226.09,136.73,226,138,225.85,139.24Z"/><path class="cls-2" d="M193,124.63a2.3,2.3,0,0,0-.34-1.58c-.38-.8-.79-1.57-1.18-2.36a7.86,7.86,0,0,1,2,3.61,6.75,6.75,0,0,1,.18,3.65c-.13.43.09.61.44.73l1.88.69c.27.11.59.12.81.35.05.32-.21.48-.35.69a1.21,1.21,0,0,1-1.62.48c-1.29-.43-2.62-.75-4-1.13,2-.91,2.55-1.59,2.32-4.24C193.08,125.22,193,124.93,193,124.63Z"/><path class="cls-3" d="M195.58,84.81c-.19.12-.37.26-.57.36-.43.22-.41.52-.19.87-.37.14-.49-.21-.71-.4-.45.42-.26,1-.31,1.51a.84.84,0,0,1-1-.57,2.69,2.69,0,0,0-1.11-1.41c-.09-.06-.12-.22-.17-.34.59.06.78-.42,1-.8A2.28,2.28,0,0,1,194.78,83c.22,0,.43.18.66,0l-.07-.89a.78.78,0,0,1,.71,1,1,1,0,0,0,.39,1c-.26.3-.59.28-.83.43S195.51,84.69,195.58,84.81Z"/><path class="cls-2" d="M221.81,136.48a12.3,12.3,0,0,1,1.31,2.1c.92,1.56,1.81,3.15,2.71,4.72-.14.51,0,1.06-.22,1.55a12.56,12.56,0,0,1-1.35-2.18c-.87-1.55-1.86-3-2.62-4.64C221.7,137.51,221.75,137,221.81,136.48Z"/><path class="cls-3" d="M195.37,82.1l.07.89c-.23.15-.44,0-.66,0A2.28,2.28,0,0,0,192.57,84c-.24.38-.43.86-1,.8-.22-.29-.46-.56-.66-.86-.46-.73-.43-.7.27-1.21.42-.31.83-.62,1.27-.9A3.62,3.62,0,0,1,195,81.6C195.29,81.63,195.37,81.85,195.37,82.1Z"/><path class="cls-2" d="M200.64,135.93q-2.49,1.44-5.09,2.68c-.27.12-.53.27-.81.39a2.54,2.54,0,0,0-1.81,2.74c-.4-.16-.88-.14-1.17-.54l.72-1.53a2.53,2.53,0,0,1,1.46-1.11c1.63-.78,3.31-1.47,5-2.1A7.55,7.55,0,0,1,200.64,135.93Z"/><path class="cls-3" d="M211.63,88c-.79,0-1.31-.7-2-.91-.3-.08-.58-.35-.89,0a.33.33,0,0,1-.45,0,16.23,16.23,0,0,0-1.64-.62c0-.07,0-.17,0-.19a2.82,2.82,0,0,0-2.06-.06c-.13,0-.08.21,0,.33a2.34,2.34,0,0,1-.38,0,.28.28,0,0,1-.22-.29c0-.16.13-.2.26-.24A7.23,7.23,0,0,1,206,85.8l-.25-.49a19.19,19.19,0,0,1,3.94,1.51A5.22,5.22,0,0,1,211.63,88Z"/><path class="cls-3" d="M219.88,125.08c.57-.14,1,.44,1.55.33a11.5,11.5,0,0,1-1.53,2.23,16.79,16.79,0,0,1-.62-1.72.52.52,0,0,1,.45-.19c.2,0,.51.13.58-.17S220,125.27,219.88,125.08Z"/><path class="cls-3" d="M217.21,130.81c-.25-.09-.11-.25-.06-.38.12-.3.26-.59.38-.89a18.83,18.83,0,0,0,1.21-2.61C219.47,128.25,218.82,129.83,217.21,130.81Z"/><path class="cls-2" d="M205.4,102.58c-.54.25-.62-.16-.7-.52-.12-.57-.2-1.16-.32-1.74a2.27,2.27,0,0,0-.54-1.15c.95.12,1.2.32,1.31,1.15S205.32,101.82,205.4,102.58Z"/><path class="cls-3" d="M216.79,118.15a.31.31,0,0,1,.42-.12c.22.11.2.31.13.51-.23.71-.47,1.42-.7,2.13-.07.24-.28.48,0,.73a.57.57,0,0,1-.56.38c.34-1,.68-2,1-3C217.16,118.52,217.25,118.23,216.79,118.15Z"/><path class="cls-3" d="M212.7,123.77l.33,0c-.09.55-.56.77-1.05,1.2A3.46,3.46,0,0,1,212.7,123.77Z"/><path class="cls-3" d="M205.39,85.23c-.49.21-1,.34-1.41-.11A2.43,2.43,0,0,1,205.39,85.23Z"/><path class="cls-3" d="M200,85.14a.83.83,0,0,1-1.24,0A2.27,2.27,0,0,1,200,85.14Z"/><path class="cls-3" d="M214.42,90.19a.89.89,0,0,1-.83-.73A1.69,1.69,0,0,1,214.42,90.19Z"/><path class="cls-3" d="M196.61,86.38c.23-.22.43-.2.61.07A.69.69,0,0,1,196.61,86.38Z"/><path class="cls-3" d="M197.79,85c-.26.24-.46.21-.6-.13A.76.76,0,0,1,197.79,85Z"/><path class="cls-3" d="M215.82,118.83c0-.28.09-.43.37-.43Z"/><path class="cls-3" d="M195.41,86.17c.17-.2.3-.13.41.07A.35.35,0,0,1,195.41,86.17Z"/><path class="cls-3" d="M213,89a.37.37,0,0,1-.42-.35A.52.52,0,0,1,213,89Z"/><path class="cls-3" d="M213.78,123a.35.35,0,0,1,.29-.38A.38.38,0,0,1,213.78,123Z"/><path class="cls-3" d="M212.22,88.39a.35.35,0,0,1-.43-.32A.5.5,0,0,1,212.22,88.39Z"/><path class="cls-3" d="M215,120.83a.36.36,0,0,1,.2-.45A.4.4,0,0,1,215,120.83Z"/><path class="cls-3" d="M214.2,122.39a.34.34,0,0,1,.25-.41A.4.4,0,0,1,214.2,122.39Z"/><path class="cls-3" d="M215.43,119.85a.37.37,0,0,1,.17-.47A.41.41,0,0,1,215.43,119.85Z"/><path class="cls-4" d="M216.77,131.5c-.12-.27,0-.43.25-.5C217.16,131.28,216.85,131.34,216.77,131.5Z"/><path class="cls-3" d="M218.44,93.11c-.09-.12-.24-.26,0-.38s.22.06.3.15Z"/><path class="cls-3" d="M216.09,91.3c-.1-.1-.18-.21,0-.32s.17,0,.25.06Z"/><path class="cls-4" d="M217,131c0-.15-.12-.39.2-.21C217.26,131,217.23,131.1,217,131Z"/><path class="cls-2" d="M124.74,121.54a27.47,27.47,0,0,0-7.24.45,6.67,6.67,0,0,0-1.76.7c-.16.09-.36.17-.35.42.24.25.51.09.74.06a31.8,31.8,0,0,1,8.66-.12,79.37,79.37,0,0,1,11.32,2.39,1,1,0,0,1,.27.13c1.33,1.91,2.66,3.82,4,5.75q4.83,7,9.64,14.09c.13.19.23.39.41.7a6.91,6.91,0,0,1-1.71-.5c-3.07-1.2-6.13-2.43-9.21-3.6-2.58-1-5.21-1.85-7.79-2.84a46.81,46.81,0,0,1-11.84-6.75,30.39,30.39,0,0,1-4.16-4,6.19,6.19,0,0,1-1.36-4.16,1.94,1.94,0,0,1,.66-1.4,5.93,5.93,0,0,1,4.07-1.64A31.7,31.7,0,0,1,124.74,121.54Z"/><path class="cls-2" d="M144.1,127.78a7.17,7.17,0,0,1,2,.55c1.91.62,3.86,1.12,5.74,1.86q1.5,3,3,6,3.34,6.53,6.7,13.06c.13.26.23.53.35.79-.28.24-.49.05-.69,0-1.38-.49-2.75-1-4.14-1.48a1.77,1.77,0,0,1-.95-.81q-5.81-9.56-11.63-19.1A2.73,2.73,0,0,1,144.1,127.78Z"/><path class="cls-2" d="M173.25,153.78c0-.08-.09-.09-.14,0l0,.06c.11.08-.05,0,.08,0Z"/><path class="cls-1" d="M196.44,143c.21-.25.4-.13.58,0Z"/><path class="cls-1" d="M204.49,86.54c-.05-.12-.1-.3,0-.33a2.82,2.82,0,0,1,2.06.06s0,.12,0,.19C205.9,86.3,205.2,86.67,204.49,86.54Z"/><path class="cls-5" d="M196.31,83.91c-.62-.75-1.12-.75-2.29-.67a1,1,0,0,0-.85.62c-.14.37.37.42.42.71-.05.06-.1.16-.13.16-1-.1-.9,0-1,1.3-.32-.38-.88-.16-1-.78.48,0,.54-.55.73-.94a2.52,2.52,0,0,1,3.09-1.54c.29-.31.08-.67.15-1,.66.22.85.46.73,1.27C196.1,83.38,196.31,83.57,196.31,83.91Z"/><path class="cls-5" d="M196.28,84.63c.37-.06,1.57.36,2,.06-.47-.13-1.18,0-1.65-.18-.3-.08-.24-.24-.14-.43a3,3,0,0,0-2.23,1.07,1.87,1.87,0,0,0-.35,1.49c.15-.18.24-.83.53-.67A2.37,2.37,0,0,1,196.28,84.63Z"/></svg>