<svg id="frames" xmlns="http://www.w3.org/2000/svg" viewBox="0 0 384 216"><defs><style>.cls-1{fill:#0f1b33;}.cls-2{fill:#f90404;}.cls-3{fill:#f9fafa;}.cls-4{fill:#d6d7d0;}</style></defs><path class="cls-1" d="M105.41,120.12,118,80.38c.07-.23.26-.38.28-.62,0-.61.51-.71,1-.74s1.13,0,1.7,0q12.2,0,24.4,0c1.31,0,1.83.18,2.36,1.76l2.35,7.45c.91,2.92,1.82,5.82,2.72,8.74,1.21,4,2.4,7.9,3.61,11.85q1.92,6.27,3.85,12.53,1.57,5.17,3.13,10.36a1.22,1.22,0,0,0,.81.91,2.34,2.34,0,0,0,1.09.22,1.83,1.83,0,0,0,.1-1.06q.15-18.64,0-37.29c0-3.8,0-7.6,0-11.4,0-1.1.08-2.2.11-3.29,0-.32.17-.44.43-.57a2.8,2.8,0,0,1,1.37-.2l23.19.11c4,0,7.94,0,11.9.1,1.63,0,3.27.08,4.89.21a21.48,21.48,0,0,1,6.62,1.75,35.56,35.56,0,0,1,5.88,3,25.91,25.91,0,0,1,5.48,4.91c.14.17.21.42.59.46V88.5c0-2.6.27-5.19.15-7.79-.05-1.11.12-1.54,1.5-1.5h.5c8.17,0,16.33,0,24.5,0q6.43,0,12.89.17a25.56,25.56,0,0,1,9.74,2.17,27.74,27.74,0,0,1,7.73,5,26.73,26.73,0,0,1,7.75,12.8,25.38,25.38,0,0,1,.94,7.08A26.74,26.74,0,0,1,287.68,120a26.37,26.37,0,0,1-4,5.29,27.85,27.85,0,0,1-7,5.14,22.82,22.82,0,0,1-4.32,1.8,27,27,0,0,1-6.26,1.09c-5.46.16-10.93,0-16.39.07-1.22,0-1.19-.14-1.21,1.18,0,2.56-.12,5.13-.12,7.69,0,5.57,0,11.13.06,16.7a12.32,12.32,0,0,1-2.69.6,4.26,4.26,0,0,0-1.11-.43l-14.25-4.59-22.62-7.31q-25-8-50-16c-2.69-.86-5.32-1.93-8.06-2.64-.21-.53-.43-1.05-.62-1.58l-2-5.65a6.14,6.14,0,0,0-1.26-2.13,1.81,1.81,0,0,0-1.94-.37c-.6.28-.58.83-.58,1.37a5.31,5.31,0,0,0,.64,2.58c.86,1.58,1.67,3.18,2.5,4.78l-3.67-.91a24,24,0,0,0-6.2-.87,5.46,5.46,0,0,0-3.75,1.07c-.19-.23-.46-.42-.39-.78a7.94,7.94,0,0,1,4.55-1.2c.2,0,.4,0,.6,0s.33-.11.27-.31a13.75,13.75,0,0,0-.82-2.47,22.07,22.07,0,0,0-2.9,1.79,3.4,3.4,0,0,1-2.89.73,2,2,0,0,1-.63-.79c1.74-1.34,3.39-2.79,5.07-4.2a1,1,0,0,0,.36-1.28c-1-3.45-2-6.9-3-10.34-.09-.29-.05-.69-.49-.87-.36,1.12-.72,2.22-1,3.33q-1.56,5.2-3.43,10.32a5,5,0,0,1-.9-.93,27.56,27.56,0,0,0-5.32-4.62,10.89,10.89,0,0,0-3.79-1.74,5.7,5.7,0,0,0-3.71.24,2.12,2.12,0,0,0-1.11,2.75,8.2,8.2,0,0,0,1.86,2.89,3,3,0,0,1,.42.56,27.82,27.82,0,0,0-4.72,5.27c-2.25,3-4.51,5.93-6.75,8.91a76,76,0,0,0-4.51,6.69,2.43,2.43,0,0,1-.62.78.85.85,0,0,1-.06-.81c.53-1.62,1-3.24,1.6-4.84a9.56,9.56,0,0,0,.39-1.39,5.28,5.28,0,0,1,1.2-2.22c1.56-2,2.93-4.11,4.43-6.15.43-.58.83-1.18,1.26-1.77.1-.14.23-.27.06-.41a.46.46,0,0,0-.48,0c-.26.1-.39.36-.55.57-1,1.31-2,2.64-3.06,4-.23.3-.4.69-.91.84a6.57,6.57,0,0,1,.35-2.11c.64-1.58,1-3.24,1.57-4.85m118.87,21.52a.31.31,0,0,1-.15.1c-.31.18-.64.35-1,.54-1.28.83-2.56,1.65-3.9,2.38s-1.25.69-.9,2.06c.25.94.43,1.08,1.45,1.13l6.82,2.12c.13-1,0-9.35-.18-10.08l-2.17,1.74ZM205.78,98.55c.35.07.17.26.1.42a1.68,1.68,0,0,0,.9,2.54,4.56,4.56,0,0,1,1.86-3.69c-.41-.51-.84-.34-1.3-.06-.17.1-.38.45-.59,0,0-.09,0-.25.08-.27.49-.18.48-.45.23-.83s-.35-.72-.58-1.05c-.5-.71-1.17,0-1.74-.16a.42.42,0,0,0-.6.36c0,.76-.6,1.21-.87,1.84-.52,1.2-.48,1.48.66,2.14a2.3,2.3,0,0,0-1.54.26,1.72,1.72,0,0,1-.31-1c0-.44-.25-.56-.63-.57s-.53,0-.8,0c-1.89.06-3.79,0-5.68.1-2.06.1-4.12.07-6.19.1-.76,0-.78,0-.78.76q0,7.35,0,14.68c0,.92,0,.92.92.91,3.8,0,7.59-.09,11.39-.11a7.09,7.09,0,0,0,5.72-2.75,9.39,9.39,0,0,0,2-4.27c.26.3.53.59.78.9,1.86,2.35,3.42,4.9,5.08,7.39.17.26.27.61.67.75a9.25,9.25,0,0,0,.23-1.64,3,3,0,0,1,.59.79l4.55,6.93c.57.88.63.89,1.71.56-.1-.18-.19-.35-.29-.51l-12.65-19a14.9,14.9,0,0,0-1-1.37c-.4-.49-.72-.53-1.37-.3A11.44,11.44,0,0,1,204,99.83c.27.06.49.32.8.24C205.08,99,205.08,99,205.78,98.55Zm21-3.18.78-.53a.22.22,0,0,0-.27-.13c-.26,0-.53,0-.79.08a21,21,0,0,0-5,1.66,2.26,2.26,0,0,0-1.56,2.27c.46.15.64-.12.72-.47.12-.58.54-.8,1-1s.76-.22,1.15-.33c0,.62-.42,1.18-.41,1.8a1,1,0,0,0,.81,0,7.72,7.72,0,0,1,2.66-.29,22.76,22.76,0,0,1,3.78.3,1.72,1.72,0,0,0,1.06-.12,14,14,0,0,1-.84-1.44A2.59,2.59,0,0,0,226.76,95.37Zm3.83,43.41c-.14.31.12.49.26.7q4,6.15,8,12.28a11.59,11.59,0,0,1,2.29,4.92c0,.09,0,.19.07.29a.61.61,0,0,0,.41.4l4.42,1.41a26.5,26.5,0,0,0-3.52-4.26A11.21,11.21,0,0,1,241,152.6q-4.62-7-9.27-14l1.53-.46a6,6,0,0,0,2.28-1.19,25.05,25.05,0,0,0,3.27-3.48c.12-.16.33-.31.22-.62l-.38.23a15.9,15.9,0,0,1-7.32,3.42,1,1,0,0,0-.59.33l-1.67,2Zm1-33.92A4,4,0,0,0,228,99.11a26.87,26.87,0,0,0-5,.22,3.57,3.57,0,0,0-1.16.21,1.61,1.61,0,0,1-1.25.09l-1.35-.37a21,21,0,0,0-5.5-.9c-1.55,0-3.06.23-4.59.24a.54.54,0,0,0-.44.18,3.56,3.56,0,0,0-.89,1.43c-.17.62-.12.7.56.83.26,0,.52.09.78.15a16.88,16.88,0,0,1,4.75,1.46,1.66,1.66,0,0,0,1.08.1,9,9,0,0,0,2.86-.86,5,5,0,0,1,3.21-.38c.56.1,1.12.18,1.68.26-1.77.86-3.12,2.32-4.79,3.34a5.6,5.6,0,0,0,1.79-.11c.75-.08.74-.08.91.63.06.23,0,.55.31.62a.23.23,0,0,0,.19-.23c.12-.89.31-1,1.1-.68.12,0,.23.14.35.19a16,16,0,0,0,6.2,1.34A2.79,2.79,0,0,0,231.58,104.86Zm-23.17,24.63a5.24,5.24,0,0,1-3,4.81,10.09,10.09,0,0,0-3.94-1,4.47,4.47,0,0,0-2.15.26c-1.12.43-2.25.85-3.33,1.36a14,14,0,0,1-7.52,1.6c-.4,0-.55.1-.54.49,0,.76,0,1.53,0,2.3s0,.79.77,1l19.5,6.23c.22.07.45.23.67.13a12.83,12.83,0,0,0,3.52-1.6,70.11,70.11,0,0,0,7.55-8c.14-.16.24-.33.07-.53.15-.33.31-.65.45-1s.09-.63-.41-.63a23.56,23.56,0,0,1-2.38-.12,67.32,67.32,0,0,1-8-1.78,4.43,4.43,0,0,1-.47-.17.58.58,0,0,1-.42-.84,13.71,13.71,0,0,0,.48-2.54A3.75,3.75,0,0,0,208,126c-.35-.36-.71-.71-1-1.07a1,1,0,0,0-.88-.37,4.44,4.44,0,0,0-1.48.15,5.59,5.59,0,0,1-3.13.24,3.74,3.74,0,0,0-2.8.79,4.54,4.54,0,0,1-2,.85l-1.27.31-6.2,1.48a1.52,1.52,0,0,0-1.48-.34c-2.13.65-4.28,1.22-6.37,2a3.22,3.22,0,0,0-1.26.67l1.09.34c-1.28.7-2.63,1.28-3.86,2.08a24.74,24.74,0,0,0-3.85,2.4,16.26,16.26,0,0,1,1.62.53,4,4,0,0,0,3.46.05,7.23,7.23,0,0,1,1.15-.32,34.47,34.47,0,0,1,8.22-1,41.47,41.47,0,0,0,5-.42,1.84,1.84,0,0,0,.76-.21c.2-.12.45-.23.37-.52s-.4-.13-.6-.21a5.26,5.26,0,0,1,.82-.34,79.64,79.64,0,0,0,7.67-2.77,7.61,7.61,0,0,0,2.29-1.16C205.64,129.16,207,129.45,208.41,129.49Zm32.15-1.87c0,.22,0,.37-.27.43s-.53-.14-.85.11l.47,1.28a5,5,0,0,0,1.07-1.65,3.29,3.29,0,0,0,.6-1.14,26.51,26.51,0,0,0,1.27-5.33,40.92,40.92,0,0,0-.35-10.25,9.08,9.08,0,0,0-1.91-4.94c-.71-.83-1.49-1.61-2.26-2.4-.14-.15-.27-.39-.6-.29.07.58.17,1.17.22,1.76,0,.24.17.63-.16.68s-.25-.36-.32-.58a1,1,0,0,1-.05-.3,6.34,6.34,0,0,0-1.54-3.69c-1.35-1.64-3.18-1.84-5.07-2a6.06,6.06,0,0,0,1,1,2.25,2.25,0,0,1,.76,1.15,5.35,5.35,0,0,1,0,3.24,1,1,0,0,0-.11.58,24.6,24.6,0,0,0,.74,3.51,3.29,3.29,0,0,0,1.66,1.91c.28.15.48.15.68-.12a11.83,11.83,0,0,0,1.65-2.72,3.26,3.26,0,0,1,.17-.47c0-.06.16-.1.25-.1s.22.15.18.27a4.74,4.74,0,0,1-.26.75,12.49,12.49,0,0,1-1.33,2.11c-.49.67-.49.67.1,1.19-.95.16-1,.16-.87,1.1,0,.16.05.33.07.49a36.66,36.66,0,0,1,.25,4.19c0,.22.06.49-.28.55-.32-.25-.2-.61-.22-.92,0-.94,0-1.87-.12-2.8s-.1-1-1-1.17l-1.36-.33c-.68-.17-.69-.17-.73.58a13.9,13.9,0,0,0,.39,4.06c.27,1.06.44,1.28,1.52,1.39s2.06.12,3.09.17c.24,0,.51,0,.69.25-.4.34-1,.13-1.34.44.34.39,1,.26,1.21.77-.25.37-.58,0-.89.2a7.21,7.21,0,0,1,1.4,2.5,15.86,15.86,0,0,1,.67,2.3A2.8,2.8,0,0,0,240.56,127.62Zm14.36-12.52v.15c1.7,0,3.39,0,5.09,0a5.59,5.59,0,0,0,1.68-.18,8.75,8.75,0,0,0,5.68-4.68,7.08,7.08,0,0,0,.59-5.79,10,10,0,0,0-4.58-5.22,5.51,5.51,0,0,0-2.67-.72c-3.82,0-7.65,0-11.48,0-.55,0-.67.21-.67.7,0,5-.06,10-.09,15,0,.8,0,.8.86.8C251.19,115.11,253.05,115.1,254.92,115.1Zm-45,32.05,2.43.79a.67.67,0,0,0,.39,0,12,12,0,0,0,3.4-1.38,67.6,67.6,0,0,0,5.27-4.44,37.35,37.35,0,0,0,9-12.38c.18-.39.37-.78.56-1.17.1-.2.16-.49.46-.43a.52.52,0,0,1,.37.54,5.22,5.22,0,0,1,0,.79,6.18,6.18,0,0,0-.09,1.36c.28,0,.31-.19.4-.31a8.18,8.18,0,0,0,1.43-3.48c.2-1.15,1-1.71,1.92-2.36a22.18,22.18,0,0,1-.63,3.63,10,10,0,0,0,2.41-2.74,2.17,2.17,0,0,0,.34-1.61,10.29,10.29,0,0,0-1-2.4,5,5,0,0,0-4.25-2.57c-1.42,0-1.4,0-1.85,1.35a10.46,10.46,0,0,1-1.26,3c-1.22,1.67-2.41,3.35-3.63,5a21.48,21.48,0,0,0-3.12,5.89,8.8,8.8,0,0,1-1.6,3.08q-2.38,2.76-4.82,5.47A31.59,31.59,0,0,1,212.4,146,17.71,17.71,0,0,1,209.87,147.15Zm-1.35-22.44a7.94,7.94,0,0,1,2.25,2.3,2,2,0,0,0,.67.58,16,16,0,0,0,5.47,2.33c1.85.42,3.75.5,5.59,1,.27.06.42-.11.55-.33.89-1.45,2-2.76,2.95-4.15.17-.23.43-.42.41-.81a1.93,1.93,0,0,1-1.38-.44,4.76,4.76,0,0,0-2.07-.62c-1.2-.13-2.38.06-3.57,0-1.5-.08-3-.18-4.49-.18A41.44,41.44,0,0,0,208.52,124.71Zm26.36-12c.15-1,.14-1-.83-1-.2,0-.45-.06-.62.22A2.37,2.37,0,0,0,234.88,112.69Z"/><path class="cls-1" d="M108.61,158.41a4.05,4.05,0,0,1,1.56-1c3.2-1.64,6.3-3.46,9.41-5.27,5.29-3.08,10.62-6.12,15.92-9.18q2.08-1.2,4-2.6c.16-.11.36-.2.4-.49l-1.62-1.25a.42.42,0,0,0-.55-.05c-.54.41-.93.19-1.33-.25a1.74,1.74,0,0,0-.91-.38,20.81,20.81,0,0,1-2.27-.55,5.32,5.32,0,0,0-3.33-.1c-.86.27-1.72.52-2.56.85a143.81,143.81,0,0,0-13.82,6.51,41.26,41.26,0,0,1-5.89,2.71,3.81,3.81,0,0,0-1.15.55.32.32,0,0,1-.45-.08c-.12-.14,0-.24.09-.32a17,17,0,0,1,2-1.65,11.56,11.56,0,0,0,1.65-1.39c1.45-1.33,3-2.47,4.59-3.67s2.88-2.22,4.29-3.37c1.06-.87,2.12-1.76,3.17-2.64s2.14-2.06,3.18-3.13c.29-.3.7-.7.37-1.13s-.78-.16-1.19-.05a1.14,1.14,0,0,1-.47.1c-1.73-.18-3,.86-4.36,1.64a86,86,0,0,0-8.9,6.28c-.55.42-1.08.89-1.63,1.31a1.85,1.85,0,0,1-.81.33c4.23-5.24,8.13-10.7,12.19-16,2,1.32,4,2.71,5.85,4.18-.1.3-.35.56-.21.94a6.1,6.1,0,0,0,1.48,0c.39.25.79.49,1.16.76,3,2.14,5.93,4.29,8.9,6.42.3.22.56.54,1,.56.14-.36-.09-.56-.21-.78-.45-.84-.92-1.69-1.41-2.52-1.2-2.07-2.42-4.13-3.63-6.19a3.72,3.72,0,0,1,2.07-.44,3.25,3.25,0,0,0,.5,2.2c1.44,2.63,2.68,5.36,4,8,.1.19.14.45.46.53-.06-.37-.11-.73-.18-1.08-.61-2.86-1.46-5.67-1.89-8.58a3.7,3.7,0,0,0-.41-1,37.49,37.49,0,0,1,6.11,1.37c1.2.37,2.42.69,3.63,1,.12.17.24.33.34.5l5,9a1.86,1.86,0,0,0,.83,1c-.37-1.17-.68-2.16-1-3.14l-2.22-6.41c3.14,1,6.3,1.95,9.44,2.95L200,146.23l38.74,12.37c1.59.51,3.2.93,4.73,1.58-1.14.46-2.36.66-3.53,1a18.19,18.19,0,0,1-4.19.89c-1.46.09-2.91.29-4.37.42-2.58.22-5.15.61-7.75.62-1.57,0-3.12-.17-4.68-.3a4.34,4.34,0,0,0-3.08.37,1.29,1.29,0,0,1-.49.08c-5.15-.91-10.25-2-15.36-3.14a4.2,4.2,0,0,0-.79-.13,11.52,11.52,0,0,1-3.06-.75c-.82-.27-1.67-.45-2.51-.66l-4.56-1.13a2.9,2.9,0,0,0-1.44,0c0,1.14,0,2.28,0,3.43s-.29,1.33-1.3,1.33H149.64c-.81,0-1.08-.21-1.32-1.13-.54-2-1.33-4-2-6-.35-1.1-.66-2.21-1.07-3.29a.94.94,0,0,0-1-.76c-2.6,0-5.2,0-7.8,0a1.55,1.55,0,0,1-.81-.1c0-.37.38-.38.6-.49a5.65,5.65,0,0,0,2.07-1.44c.34-.43.27-.56-.22-.78a3.63,3.63,0,0,0-3.12.09c-3.1,1.34-6.23,2.63-9.31,4-1.35.61-2.78,1-4.14,1.62-2.44,1.09-5.09,1.54-7.54,2.6-1.36.59-2.76,1.08-4.15,1.59a2.12,2.12,0,0,1-1.24.27Z"/><path class="cls-2" d="M126,128.28c-1.89-1.47-3.85-2.86-5.85-4.18a2.4,2.4,0,0,0-1.31-.74l-.18-.27c-.36-.61-1.07-.81-1.55-1.31s-1.13-1.22-1.71-1.8a3,3,0,0,0-.42-.56,8.2,8.2,0,0,1-1.86-2.89,2.12,2.12,0,0,1,1.11-2.75,5.7,5.7,0,0,1,3.71-.24,10.89,10.89,0,0,1,3.79,1.74,27.56,27.56,0,0,1,5.32,4.62,5,5,0,0,0,.9.93,27.45,27.45,0,0,0,2.56,3,2,2,0,0,0,.64.79,3.58,3.58,0,0,0,1.18,1.46c-.07.36.2.55.39.78a1.19,1.19,0,0,0,.34.54c1.21,2.06,2.43,4.12,3.63,6.19.49.83,1,1.68,1.41,2.52.12.22.35.42.21.78-.42,0-.68-.34-1-.56-3-2.13-5.93-4.28-8.9-6.42-.37-.27-.77-.51-1.16-.76A4.23,4.23,0,0,0,126,128.28Z"/><path class="cls-1" d="M252.75,160.56c2.24.82,4.54,1.43,6.83,2.08,1.08.31,2.16.63,3.23,1,.76.25.84.7.21,1.19a5.42,5.42,0,0,1-2.14,1c-5,1.18-10.1,1.11-15.18,1.39a29.18,29.18,0,0,1-4.47-.36c-3.67-.39-7.36-.68-11-1.22-.19,0-.4,0-.55-.14a4.38,4.38,0,0,1,1.38-.22,54.66,54.66,0,0,0,13.16-2.56,24.9,24.9,0,0,1,4.24-1.09,25,25,0,0,0,9.33,1.33,15.19,15.19,0,0,0-1.84-.6L251.06,161A5.11,5.11,0,0,1,252.75,160.56Z"/><path class="cls-2" d="M252.75,160.56a5.11,5.11,0,0,0-1.69.41,7.54,7.54,0,0,0-2.61.61,24.9,24.9,0,0,0-4.24,1.09,54.66,54.66,0,0,1-13.16,2.56,4.38,4.38,0,0,0-1.38.22,121.24,121.24,0,0,1-12.32-1.55c-.7-.11-1.31-.48-2-.61a1.29,1.29,0,0,0,.49-.08,4.34,4.34,0,0,1,3.08-.37c1.56.13,3.11.3,4.68.3,2.6,0,5.17-.4,7.75-.62,1.46-.13,2.91-.33,4.37-.42a18.19,18.19,0,0,0,4.19-.89c1.17-.37,2.39-.57,3.53-1a8,8,0,0,0,2.26-.58,12.32,12.32,0,0,0,2.69-.6,18.34,18.34,0,0,0,2.73-.55,11.83,11.83,0,0,0,2.67-.65,5.35,5.35,0,0,1,2.16-.3,31.57,31.57,0,0,1,7.31.94,11.7,11.7,0,0,1,5.44,2.5c-.1.31-.3.29-.49.21a30.25,30.25,0,0,0-9.05-1.93,2.35,2.35,0,0,0-.7,0A55.81,55.81,0,0,0,252.75,160.56Z"/><path class="cls-1" d="M81.65,89.48a1.76,1.76,0,0,1-1.19-.36c-.79-.51-1.61-1-2.42-1.44-.34-.21-.66-.44-1-.67-.13-.09-.27-.21-.21-.41s.31-.22.49-.24.36.12.52.25Z"/><path class="cls-1" d="M80,90.4a5.19,5.19,0,0,1-2.33-1.19.18.18,0,0,1,0-.26c.1-.14.22-.09.34,0A16.64,16.64,0,0,1,80,90.4Z"/><path class="cls-1" d="M118.68,123.09l.18.27-.56.81C117.92,123.61,118.18,123.3,118.68,123.09Z"/><path class="cls-1" d="M102.77,129.47l-.07.13s-.07,0-.06-.07a.75.75,0,0,1,.06-.13Z"/><path class="cls-1" d="M108.43,158.37c-.06.07-.1.06-.13,0l0,0c.13,0-.06,0,.06.06Z"/><path class="cls-1" d="M108.41,158.39l.2,0,0,0c0,.12,0,.18-.15.14s-.07-.09,0-.16Z"/><path class="cls-3" d="M240.56,127.62a2.8,2.8,0,0,1-1.78-2.31,15.86,15.86,0,0,0-.67-2.3,7.21,7.21,0,0,0-1.4-2.5c.31-.18.64.17.89-.2-.22-.51-.87-.38-1.21-.77.38-.31.94-.1,1.34-.44-.18-.29-.45-.23-.69-.25-1,0-2.06-.07-3.09-.17s-1.25-.33-1.52-1.39a13.9,13.9,0,0,1-.39-4.06c0-.75.05-.75.73-.58l1.36.33c.91.22.93.22,1,1.17s.07,1.86.12,2.8c0,.31-.1.67.22.92.34-.06.27-.33.28-.55a36.66,36.66,0,0,0-.25-4.19c0-.16-.06-.33-.07-.49-.09-.94-.08-.94.87-1.1-.59-.52-.59-.52-.1-1.19a12.49,12.49,0,0,0,1.33-2.11,4.74,4.74,0,0,0,.26-.75c0-.12,0-.28-.18-.27s-.22,0-.25.1a3.26,3.26,0,0,0-.17.47,11.83,11.83,0,0,1-1.65,2.72c-.2.27-.4.27-.68.12a3.29,3.29,0,0,1-1.66-1.91,24.6,24.6,0,0,1-.74-3.51,1,1,0,0,1,.11-.58,5.35,5.35,0,0,0,0-3.24,2.25,2.25,0,0,0-.76-1.15,6.06,6.06,0,0,1-1-1c1.89.21,3.72.41,5.07,2a6.34,6.34,0,0,1,1.54,3.69,1,1,0,0,0,.05.3c.07.22-.05.64.32.58s.18-.44.16-.68c0-.59-.15-1.18-.22-1.76.33-.1.46.14.6.29.77.79,1.55,1.57,2.26,2.4a9.08,9.08,0,0,1,1.91,4.94,40.92,40.92,0,0,1,.35,10.25,26.51,26.51,0,0,1-1.27,5.33,3.29,3.29,0,0,1-.6,1.14Z"/><path class="cls-3" d="M209.87,147.15A17.71,17.71,0,0,0,212.4,146a31.59,31.59,0,0,0,3.54-3.09q2.43-2.72,4.82-5.47a8.8,8.8,0,0,0,1.6-3.08,21.48,21.48,0,0,1,3.12-5.89c1.22-1.67,2.41-3.35,3.63-5a10.46,10.46,0,0,0,1.26-3c.45-1.39.43-1.4,1.85-1.35a5,5,0,0,1,4.25,2.57,10.29,10.29,0,0,1,1,2.4,2.17,2.17,0,0,1-.34,1.61,10,10,0,0,1-2.41,2.74,22.18,22.18,0,0,0,.63-3.63c-.91.65-1.72,1.21-1.92,2.36a8.18,8.18,0,0,1-1.43,3.48c-.09.12-.12.31-.4.31a6.18,6.18,0,0,1,.09-1.36,5.22,5.22,0,0,0,0-.79.52.52,0,0,0-.37-.54c-.3-.06-.36.23-.46.43-.19.39-.38.78-.56,1.17a37.35,37.35,0,0,1-9,12.38,67.6,67.6,0,0,1-5.27,4.44,12,12,0,0,1-3.4,1.38.67.67,0,0,1-.39,0Z"/><path class="cls-3" d="M245.71,159.6a8,8,0,0,1-2.26.58c-1.53-.65-3.14-1.07-4.73-1.58L200,146.23l-40.26-12.84c-3.14-1-6.3-2-9.44-2.95a6.78,6.78,0,0,1-.65-1.83c2.74.71,5.37,1.78,8.06,2.64q25,8,50,16l22.62,7.31,14.25,4.59A4.26,4.26,0,0,1,245.71,159.6Z"/><path class="cls-3" d="M193.46,133.47c.2.08.51-.11.6.21s-.17.4-.37.52a1.84,1.84,0,0,1-.76.21,41.47,41.47,0,0,1-5,.42,34.47,34.47,0,0,0-8.22,1,7.23,7.23,0,0,0-1.15.32,4,4,0,0,1-3.46-.05,16.26,16.26,0,0,0-1.62-.53,24.74,24.74,0,0,1,3.85-2.4c1.23-.8,2.58-1.38,3.86-2.08,1.7-.67,3.44-1.21,5.19-1.74a23.36,23.36,0,0,0,2.83-.92l6.2-1.48,1.27-.31a4.54,4.54,0,0,0,2-.85,3.74,3.74,0,0,1,2.8-.79,5.59,5.59,0,0,0,3.13-.24,4.44,4.44,0,0,1,1.48-.15,1,1,0,0,1,.88.37c.33.36.69.71,1,1.07a4.47,4.47,0,0,1,.4,3.47c-1.39,0-2.77-.33-4.17-.29a14.28,14.28,0,0,1-2.63-.48c.21-.72,1.11-.67,1.42-1.28-1.36-.29-4.83.26-5.62.87.28.3.68.25,1,.37s.8,0,.86.38-.36.6-.66.81a3.22,3.22,0,0,1-1.08.5c-.62.16-1.23.32-1.85.44a92.65,92.65,0,0,0-10.11,2.37c-.23.07-.48.1-.62.37A31,31,0,0,0,193.46,133.47Z"/><path class="cls-3" d="M222.76,101.77c-.56-.08-1.12-.16-1.68-.26a5,5,0,0,0-3.21.38,9,9,0,0,1-2.86.86,1.66,1.66,0,0,1-1.08-.1,16.88,16.88,0,0,0-4.75-1.46c-.26-.06-.52-.1-.78-.15-.68-.13-.73-.21-.56-.83a3.56,3.56,0,0,1,.89-1.43.54.54,0,0,1,.44-.18c1.53,0,3-.28,4.59-.24a21,21,0,0,1,5.5.9l1.35.37a1.61,1.61,0,0,0,1.25-.09,3.57,3.57,0,0,1,1.16-.21,26.87,26.87,0,0,1,5-.22,4,4,0,0,1,3.57,5.75,6.4,6.4,0,0,1-1.58,0c-1.41-.38-2.84-.7-4.26-1a6.18,6.18,0,0,1-2.14-1c.4-.6,1.18-.47,1.67-1A2.77,2.77,0,0,0,222.76,101.77Z"/><path class="cls-3" d="M208.52,124.71a41.44,41.44,0,0,1,6.38-.36c1.5,0,3,.1,4.49.18,1.19.07,2.37-.12,3.57,0a4.76,4.76,0,0,1,2.07.62,1.93,1.93,0,0,0,1.38.44c0,.39-.24.58-.41.81-1,1.39-2.06,2.7-2.95,4.15-.13.22-.28.39-.55.33-1.84-.47-3.74-.55-5.59-1a16,16,0,0,1-5.47-2.33,2,2,0,0,1-.67-.58A7.94,7.94,0,0,0,208.52,124.71Z"/><path class="cls-2" d="M149.63,128.61a6.78,6.78,0,0,0,.65,1.83l2.22,6.41c.33,1,.64,2,1,3.14a1.86,1.86,0,0,1-.83-1l-5-9c-.1-.17-.22-.33-.34-.5a8.07,8.07,0,0,0-1-1.89c-.83-1.6-1.64-3.2-2.5-4.78a5.31,5.31,0,0,1-.64-2.58c0-.54,0-1.09.58-1.37a1.81,1.81,0,0,1,1.94.37,6.14,6.14,0,0,1,1.26,2.13l2,5.65C149.2,127.56,149.42,128.08,149.63,128.61Z"/><path class="cls-2" d="M193.46,133.47a31,31,0,0,1-8.5.08c.14-.27.39-.3.62-.37a92.65,92.65,0,0,1,10.11-2.37c.62-.12,1.23-.28,1.85-.44a3.22,3.22,0,0,0,1.08-.5c.3-.21.72-.43.66-.81s-.55-.28-.86-.38-.73-.07-1-.37c.79-.61,4.26-1.16,5.62-.87-.31.61-1.21.56-1.42,1.28a14.28,14.28,0,0,0,2.63.48,7.61,7.61,0,0,1-2.29,1.16,79.64,79.64,0,0,1-7.67,2.77A5.26,5.26,0,0,0,193.46,133.47Z"/><path class="cls-3" d="M231.7,138.62q4.63,7,9.27,14a11.21,11.21,0,0,0,1.58,1.92,26.5,26.5,0,0,1,3.52,4.26l-4.42-1.41a.61.61,0,0,1-.41-.4c0-.1-.05-.2-.07-.29a11.59,11.59,0,0,0-2.29-4.92q-4-6.13-8-12.28c-.14-.21-.4-.39-.26-.7Z"/><path class="cls-2" d="M208,107.86c-.76-1.2-1.71-2.25-2.58-3.37-.62-.81-1.27-1.59-1.91-2.39a6,6,0,0,0-.91-1.27,1.24,1.24,0,0,1-.25-.76,2.3,2.3,0,0,1,1.54-.26.09.09,0,0,1,.09,0,11.44,11.44,0,0,0,2.33,2.48l.58.81c2.57,3.61,4.82,7.42,7.27,11.11a3.92,3.92,0,0,1,.6,1,9.25,9.25,0,0,1-.23,1.64c-.4-.14-.5-.49-.67-.75-1.66-2.49-3.22-5-5.08-7.39C208.57,108.45,208.3,108.16,208,107.86Z"/><path class="cls-2" d="M222.76,101.77a2.77,2.77,0,0,1,2.51.18c-.49.48-1.27.35-1.67,1a6.18,6.18,0,0,0,2.14,1c1.42.34,2.85.66,4.26,1a6.4,6.4,0,0,0,1.58,0,2.79,2.79,0,0,1-2.76,2,16,16,0,0,1-6.2-1.34c-.12,0-.23-.14-.35-.19-.79-.34-1-.21-1.1.68a.23.23,0,0,1-.19.23c-.32-.07-.25-.39-.31-.62-.17-.71-.16-.71-.91-.63a5.6,5.6,0,0,1-1.79.11C219.64,104.09,221,102.63,222.76,101.77Z"/><path class="cls-2" d="M208.41,129.49A4.47,4.47,0,0,0,208,126a3.75,3.75,0,0,1,1.27,3.57,13.71,13.71,0,0,1-.48,2.54.58.58,0,0,0,.42.84,4.43,4.43,0,0,0,.47.17,67.32,67.32,0,0,0,8,1.78A23.56,23.56,0,0,0,220,135c.5,0,.57.24.41.63s-.3.66-.45,1a7.19,7.19,0,0,1-2.65-.34c-.55-.13-1.09-.32-1.64-.44a26.31,26.31,0,0,0-2.94-.41,39,39,0,0,1-6.79-.95,4.33,4.33,0,0,1-.56-.22A5.24,5.24,0,0,0,208.41,129.49Z"/><path class="cls-3" d="M214.8,115.26a3.92,3.92,0,0,0-.6-1c-2.45-3.69-4.7-7.5-7.27-11.11l-.58-.81c.65-.23,1-.19,1.37.3a14.9,14.9,0,0,1,1,1.37l12.65,19c.1.16.19.33.29.51-1.08.33-1.14.32-1.71-.56l-4.55-6.93A3,3,0,0,0,214.8,115.26Z"/><path class="cls-3" d="M226.76,95.37a2.59,2.59,0,0,1,3.12,1.83,14,14,0,0,0,.84,1.44,1.72,1.72,0,0,1-1.06.12,22.76,22.76,0,0,0-3.78-.3,7.72,7.72,0,0,0-2.66.29,1,1,0,0,1-.81,0c0-.62.37-1.18.41-1.8A17,17,0,0,1,226.76,95.37Z"/><path class="cls-3" d="M146.36,127.61a8.07,8.07,0,0,1,1,1.89c-1.21-.34-2.43-.66-3.63-1a37.49,37.49,0,0,0-6.11-1.37c-1.08-1-1.64-1-2.5-.1a3.72,3.72,0,0,0-2.07.44,1.19,1.19,0,0,1-.34-.54,5.46,5.46,0,0,1,3.75-1.07,24,24,0,0,1,6.2.87Z"/><path class="cls-2" d="M231.7,138.62l-1.11.16-1.55.07,1.67-2a1,1,0,0,1,.59-.33,15.9,15.9,0,0,0,7.32-3.42l.38-.23c.11.31-.1.46-.22.62a25.05,25.05,0,0,1-3.27,3.48,6,6,0,0,1-2.28,1.19Z"/><path class="cls-3" d="M204,99.83a.09.09,0,0,0-.09,0c-1.14-.66-1.18-.94-.66-2.14.27-.63.87-1.08.87-1.84a.42.42,0,0,1,.6-.36c.57.18,1.24-.55,1.74.16.23.33.36.72.58,1.05s.26.65-.23.83c-.05,0-.05.18-.08.27h0c-.51-.07-.71.09-1,.79v0c-.7.43-.7.43-1,1.52C204.51,100.15,204.29,99.89,204,99.83Z"/><path class="cls-2" d="M189.24,128.4a23.36,23.36,0,0,1-2.83.92c-1.75.53-3.49,1.07-5.19,1.74l-1.09-.34a3.22,3.22,0,0,1,1.26-.67c2.09-.77,4.24-1.34,6.37-2A1.52,1.52,0,0,1,189.24,128.4Z"/><path class="cls-2" d="M226.76,95.37A17,17,0,0,0,222.82,97c-.39.11-.77.21-1.15.33s-.91.39-1,1c-.08.35-.26.62-.72.47a2.26,2.26,0,0,1,1.56-2.27,21,21,0,0,1,5-1.66c.26,0,.53-.06.79-.08a.22.22,0,0,1,.27.13Z"/><path class="cls-2" d="M223.34,144a19.24,19.24,0,0,1-4,3c-.73.39-.75.41-.53,1.23.16.62.07,1.26.18,1.88-1,0-1.2-.19-1.45-1.13-.35-1.37-.36-1.38.9-2.06s2.62-1.55,3.9-2.38C222.7,144.38,223,144.21,223.34,144Z"/><path class="cls-3" d="M206.75,97.78c.21.43.42.08.59,0,.46-.28.89-.45,1.3.06a4.56,4.56,0,0,0-1.86,3.69,1.68,1.68,0,0,1-.9-2.54c.07-.16.25-.35-.1-.42v0c.05.06,0,.24.16.18a2,2,0,0,0,1-.79c.09-.14-.08-.13-.14-.18Z"/><path class="cls-4" d="M240.56,127.62l.42.17a5,5,0,0,1-1.07,1.65l-.47-1.28c.32-.25.59,0,.85-.11S240.59,127.84,240.56,127.62Z"/><path class="cls-4" d="M234.88,112.69a2.37,2.37,0,0,1-1.45-.74c.17-.28.42-.2.62-.22C235,111.64,235,111.65,234.88,112.69Z"/><path class="cls-2" d="M223.51,143.92h0Z"/><path class="cls-2" d="M135.15,127c.86-.89,1.42-.87,2.5.1a3.7,3.7,0,0,1,.41,1c.43,2.91,1.28,5.72,1.89,8.58.07.35.12.71.18,1.08-.32-.08-.36-.34-.46-.53-1.34-2.68-2.58-5.41-4-8A3.25,3.25,0,0,1,135.15,127Z"/><path class="cls-3" d="M248.45,161.58a7.54,7.54,0,0,1,2.61-.61l4.88,1.34a15.19,15.19,0,0,1,1.84.6A25,25,0,0,1,248.45,161.58Z"/><path class="cls-1" d="M202.64,100.83a6,6,0,0,1,.91,1.27C202.77,102,202.84,101.32,202.64,100.83Z"/><path class="cls-1" d="M206.78,97.79c.06,0,.23,0,.14.18a2,2,0,0,1-1,.79c-.16.06-.11-.12-.16-.18C206.07,97.88,206.27,97.72,206.78,97.79Z"/></svg>